<?xml version="1.0" encoding="UTF-8" standalone="no"?>
<svg
   width="713.99951pt"
   height="232.95998pt"
   viewBox="0 0 713.99951 232.95998"
   version="1.1"
   id="svg70"
   sodipodi:docname="fig_partial_chains.svg"
   inkscape:version="1.4 (e7c3feb100, 2024-10-09)"
   xmlns:inkscape="http://www.inkscape.org/namespaces/inkscape"
   xmlns:sodipodi="http://sodipodi.sourceforge.net/DTD/sodipodi-0.dtd"
   xmlns:xlink="http://www.w3.org/1999/xlink"
   xmlns="http://www.w3.org/2000/svg"
   xmlns:svg="http://www.w3.org/2000/svg"
   xmlns:rdf="http://www.w3.org/1999/02/22-rdf-syntax-ns#"
   xmlns:cc="http://creativecommons.org/ns#"
   xmlns:dc="http://purl.org/dc/elements/1.1/">
  <sodipodi:namedview
     id="namedview70"
     pagecolor="#ffffff"
     bordercolor="#000000"
     borderopacity="0.25"
     inkscape:showpageshadow="2"
     inkscape:pageopacity="0.0"
     inkscape:pagecheckerboard="0"
     inkscape:deskcolor="#d1d1d1"
     inkscape:document-units="pt"
     inkscape:zoom="0.67548781"
     inkscape:cx="461.14822"
     inkscape:cy="247.96895"
     inkscape:window-width="1281"
     inkscape:window-height="785"
     inkscape:window-x="0"
     inkscape:window-y="0"
     inkscape:window-maximized="1"
     inkscape:current-layer="svg70" />
  <metadata
     id="metadata1">
    <rdf:RDF>
      <cc:Work>
        <dc:type
           rdf:resource="http://purl.org/dc/dcmitype/StillImage" />
        <dc:date>2025-04-11T16:06:33.583344</dc:date>
        <dc:format>image/svg+xml</dc:format>
        <dc:creator>
          <cc:Agent>
            <dc:title>Matplotlib v3.10.0, https://matplotlib.org/</dc:title>
          </cc:Agent>
        </dc:creator>
      </cc:Work>
    </rdf:RDF>
  </metadata>
  <defs
     id="defs1">
    <style
       type="text/css"
       id="style1">*{stroke-linejoin: round; stroke-linecap: butt}</style>
    <clipPath
       clipPathUnits="userSpaceOnUse"
       id="clipPath71">
      <rect
         style="fill:none;stroke:#000000;stroke-width:1.98425;stroke-linecap:square"
         id="rect72"
         width="182.25134"
         height="217.20218"
         x="178.34711"
         y="52.017906" />
    </clipPath>
  </defs>
  <g
     id="figure_1"
     transform="translate(-3.0002401,-52.017906)">
    <g
       id="axes_1">
      <g
         id="PathCollection_1">
        <defs
           id="defs2">
          <path
             id="m8b63081ed2"
             d="M 0,2.5 C 0.663008,2.5 1.29895,2.236584 1.767767,1.767767 2.236584,1.29895 2.5,0.663008 2.5,0 2.5,-0.663008 2.236584,-1.29895 1.767767,-1.767767 1.29895,-2.236584 0.663008,-2.5 0,-2.5 c -0.663008,0 -1.29895,0.263416 -1.767767,0.732233 C -2.236584,-1.29895 -2.5,-0.663008 -2.5,0 c 0,0.663008 0.263416,1.29895 0.732233,1.767767 C -1.29895,2.236584 -0.663008,2.5 0,2.5 Z"
             style="stroke:#1f7dad" />
        </defs>
        <g
           clip-path="url(#p823ea5a7ab)"
           id="g3">
          <use
             xlink:href="#m8b63081ed2"
             x="54.000206"
             y="198.70576"
             style="fill:#1f7dad;stroke:#1f7dad"
             id="use2" />
          <use
             xlink:href="#m8b63081ed2"
             x="156.00014"
             y="198.70576"
             style="fill:#1f7dad;stroke:#1f7dad"
             id="use3" />
        </g>
      </g>
      <g
         id="PathCollection_2">
        <path
           d="m 258.00007,201.20577 c 0.66301,0 1.29895,-0.26342 1.76777,-0.73223 0.46881,-0.46882 0.73223,-1.10476 0.73223,-1.76777 0,-0.66301 -0.26342,-1.29895 -0.73223,-1.76777 -0.46882,-0.46882 -1.10476,-0.73223 -1.76777,-0.73223 -0.66301,0 -1.29895,0.26341 -1.76777,0.73223 -0.46882,0.46882 -0.73223,1.10476 -0.73223,1.76777 0,0.66301 0.26341,1.29895 0.73223,1.76777 0.46882,0.46881 1.10476,0.73223 1.76777,0.73223 z"
           clip-path="url(#p823ea5a7ab)"
           style="fill:none;stroke:#808080"
           id="path3" />
      </g>
      <g
         id="PathCollection_3">
        <defs
           id="defs3">
          <path
             id="mfc8d182d89"
             d="M 0,2.5 C 0.663008,2.5 1.29895,2.236584 1.767767,1.767767 2.236584,1.29895 2.5,0.663008 2.5,0 2.5,-0.663008 2.236584,-1.29895 1.767767,-1.767767 1.29895,-2.236584 0.663008,-2.5 0,-2.5 c -0.663008,0 -1.29895,0.263416 -1.767767,0.732233 C -2.236584,-1.29895 -2.5,-0.663008 -2.5,0 c 0,0.663008 0.263416,1.29895 0.732233,1.767767 C -1.29895,2.236584 -0.663008,2.5 0,2.5 Z"
             style="stroke:#db7371" />
        </defs>
        <g
           clip-path="url(#p823ea5a7ab)"
           id="g7">
          <use
             xlink:href="#mfc8d182d89"
             x="360"
             y="198.70576"
             style="fill:#db7371;stroke:#db7371"
             id="use4" />
          <use
             xlink:href="#mfc8d182d89"
             x="461.99994"
             y="198.70576"
             style="fill:#db7371;stroke:#db7371"
             id="use5" />
          <use
             xlink:href="#mfc8d182d89"
             x="563.99988"
             y="198.70576"
             style="fill:#db7371;stroke:#db7371"
             id="use6" />
          <use
             xlink:href="#mfc8d182d89"
             x="665.99982"
             y="198.70576"
             style="fill:#db7371;stroke:#db7371"
             id="use7" />
        </g>
      </g>
      <g
         id="matplotlib.axis_1">
        <g
           id="xtick_1">
          <g
             id="line2d_1">
            <defs
               id="defs7">
              <path
                 id="ma3958d3f4e"
                 d="M 0,0 V 3.5"
                 style="stroke:#000000;stroke-width:0.8" />
            </defs>
            <g
               id="g8">
              <use
                 xlink:href="#ma3958d3f4e"
                 x="54.000206"
                 y="254.62163"
                 style="stroke:#000000;stroke-width:0.8"
                 id="use8" />
            </g>
          </g>
          <g
             id="text_1">
            <!-- 1 -->
            <g
               transform="matrix(0.1,0,0,-0.1,50.818956,269.22007)"
               id="g9">
              <defs
                 id="defs8">
                <path
                   id="DejaVuSans-31"
                   d="M 794,531 H 1825 V 4091 L 703,3866 v 575 l 1116,225 h 631 V 531 H 3481 V 0 H 794 Z"
                   transform="scale(0.015625)" />
              </defs>
              <use
                 xlink:href="#DejaVuSans-31"
                 id="use9" />
            </g>
          </g>
        </g>
        <g
           id="xtick_2">
          <g
             id="line2d_2">
            <g
               id="g10">
              <use
                 xlink:href="#ma3958d3f4e"
                 x="156.00014"
                 y="254.62163"
                 style="stroke:#000000;stroke-width:0.8"
                 id="use10" />
            </g>
          </g>
          <g
             id="text_2">
            <!-- 2 -->
            <g
               transform="matrix(0.1,0,0,-0.1,152.81889,269.22007)"
               id="g11">
              <defs
                 id="defs10">
                <path
                   id="DejaVuSans-32"
                   d="M 1228,531 H 3431 V 0 H 469 v 531 q 359,372 979,998 621,627 780,809 303,340 423,576 121,236 121,464 0,372 -261,606 -261,235 -680,235 -297,0 -627,-103 -329,-103 -704,-313 v 638 q 381,153 712,231 332,78 607,78 725,0 1156,-363 431,-362 431,-968 0,-288 -108,-546 -107,-257 -392,-607 -78,-91 -497,-524 Q 1991,1309 1228,531 Z"
                   transform="scale(0.015625)" />
              </defs>
              <use
                 xlink:href="#DejaVuSans-32"
                 id="use11" />
            </g>
          </g>
        </g>
        <g
           id="xtick_3">
          <g
             id="line2d_3">
            <g
               id="g12">
              <use
                 xlink:href="#ma3958d3f4e"
                 x="258.00006"
                 y="254.62163"
                 style="stroke:#000000;stroke-width:0.8"
                 id="use12" />
            </g>
          </g>
          <g
             id="text_3">
            <!-- 3 -->
            <g
               transform="matrix(0.1,0,0,-0.1,254.81882,269.22007)"
               id="g13">
              <defs
                 id="defs12">
                <path
                   id="DejaVuSans-33"
                   d="m 2597,2516 q 453,-97 707,-404 255,-306 255,-756 0,-690 -475,-1069 -475,-378 -1350,-378 -293,0 -604,58 -311,58 -642,174 v 609 q 262,-153 574,-231 313,-78 654,-78 593,0 904,234 311,234 311,681 0,413 -289,645 -289,233 -804,233 h -544 v 519 h 569 q 465,0 712,186 247,186 247,536 0,359 -255,551 -254,193 -729,193 -260,0 -557,-57 -297,-56 -653,-174 v 562 q 360,100 674,150 314,50 592,50 719,0 1137,-327 419,-326 419,-882 0,-388 -222,-655 -222,-267 -631,-370 z"
                   transform="scale(0.015625)" />
              </defs>
              <use
                 xlink:href="#DejaVuSans-33"
                 id="use13" />
            </g>
          </g>
        </g>
        <g
           id="xtick_4">
          <g
             id="line2d_4">
            <g
               id="g14">
              <use
                 xlink:href="#ma3958d3f4e"
                 x="360"
                 y="254.62163"
                 style="stroke:#000000;stroke-width:0.8"
                 id="use14" />
            </g>
          </g>
          <g
             id="text_4">
            <!-- 4 -->
            <g
               transform="matrix(0.1,0,0,-0.1,356.81875,269.22007)"
               id="g15">
              <defs
                 id="defs14">
                <path
                   id="DejaVuSans-34"
                   d="M 2419,4116 825,1625 h 1594 z m -166,550 h 794 V 1625 h 666 V 1100 H 3047 V 0 H 2419 V 1100 H 313 v 609 z"
                   transform="scale(0.015625)" />
              </defs>
              <use
                 xlink:href="#DejaVuSans-34"
                 id="use15" />
            </g>
          </g>
        </g>
        <g
           id="xtick_5">
          <g
             id="line2d_5">
            <g
               id="g16">
              <use
                 xlink:href="#ma3958d3f4e"
                 x="461.99994"
                 y="254.62163"
                 style="stroke:#000000;stroke-width:0.8"
                 id="use16" />
            </g>
          </g>
          <g
             id="text_5">
            <!-- 5 -->
            <g
               transform="matrix(0.1,0,0,-0.1,458.81868,269.22007)"
               id="g17">
              <defs
                 id="defs16">
                <path
                   id="DejaVuSans-35"
                   d="M 691,4666 H 3169 V 4134 H 1269 V 2991 q 137,47 274,70 138,23 276,23 781,0 1237,-428 457,-428 457,-1159 Q 3513,744 3044,326 2575,-91 1722,-91 1428,-91 1123,-41 819,9 494,109 v 635 q 281,-153 581,-228 300,-75 634,-75 541,0 856,284 316,284 316,772 0,487 -316,771 -315,285 -856,285 -253,0 -505,-56 -251,-56 -513,-175 z"
                   transform="scale(0.015625)" />
              </defs>
              <use
                 xlink:href="#DejaVuSans-35"
                 id="use17" />
            </g>
          </g>
        </g>
        <g
           id="xtick_6">
          <g
             id="line2d_6">
            <g
               id="g18">
              <use
                 xlink:href="#ma3958d3f4e"
                 x="563.99988"
                 y="254.62163"
                 style="stroke:#000000;stroke-width:0.8"
                 id="use18" />
            </g>
          </g>
          <g
             id="text_6">
            <!-- 6 -->
            <g
               transform="matrix(0.1,0,0,-0.1,560.81861,269.22007)"
               id="g19">
              <defs
                 id="defs18">
                <path
                   id="DejaVuSans-36"
                   d="m 2113,2584 q -425,0 -674,-291 -248,-290 -248,-796 0,-503 248,-796 249,-292 674,-292 425,0 673,292 248,293 248,796 0,506 -248,796 -248,291 -673,291 z m 1253,1979 v -575 q -238,112 -480,171 -242,60 -480,60 -625,0 -955,-422 -329,-422 -376,-1275 184,272 462,417 279,145 613,145 703,0 1111,-427 408,-426 408,-1160 0,-719 -425,-1154 -425,-434 -1131,-434 -810,0 -1238,620 -428,621 -428,1799 0,1106 525,1764 525,658 1409,658 238,0 480,-47 242,-47 505,-140 z"
                   transform="scale(0.015625)" />
              </defs>
              <use
                 xlink:href="#DejaVuSans-36"
                 id="use19" />
            </g>
          </g>
        </g>
        <g
           id="xtick_7">
          <g
             id="line2d_7">
            <g
               id="g20">
              <use
                 xlink:href="#ma3958d3f4e"
                 x="665.99982"
                 y="254.62163"
                 style="stroke:#000000;stroke-width:0.8"
                 id="use20" />
            </g>
          </g>
          <g
             id="text_7">
            <!-- 7 -->
            <g
               transform="matrix(0.1,0,0,-0.1,662.81854,269.22007)"
               id="g21">
              <defs
                 id="defs20">
                <path
                   id="DejaVuSans-37"
                   d="M 525,4666 H 3525 V 4397 L 1831,0 H 1172 L 2766,4134 H 525 Z"
                   transform="scale(0.015625)" />
              </defs>
              <use
                 xlink:href="#DejaVuSans-37"
                 id="use21" />
            </g>
          </g>
        </g>
        <g
           id="text_8">
          <!-- $j$ -->
          <g
             transform="matrix(0.1,0,0,-0.1,358.6,282.89976)"
             id="g22">
            <defs
               id="defs21">
              <path
                 id="DejaVuSans-Oblique-6a"
                 d="m 928,3500 h 575 L 813,-63 809,-78 q -115,-597 -265,-819 -141,-209 -412,-321 -270,-113 -638,-113 h -216 l 94,487 h 147 q 337,0 480,141 142,140 239,640 z m 269,1363 h 575 l -141,-729 h -575 z"
                 transform="scale(0.015625)" />
            </defs>
            <use
               xlink:href="#DejaVuSans-Oblique-6a"
               transform="translate(0,0.015625)"
               id="use22" />
          </g>
        </g>
      </g>
      <g
         id="matplotlib.axis_2" />
      <g
         id="line2d_8">
        <path
           d="m 3.00024,124.15128 1.789472,0.33937 1.789473,1.014 1.789472,1.67631 1.789473,2.31827 1.789472,2.93211 1.789473,3.51033 1.789472,4.04596 1.789473,4.53247 1.789472,4.96397 3.578945,10.97687 3.578945,11.92597 7.15789,24.37195 3.578945,11.26622 1.789473,5.15741 1.789472,4.75544 1.789473,4.29574 1.789472,3.78389 1.789473,3.22612 1.789472,2.62918 1.789473,2.00034 1.789472,1.34719 1.789472,0.67772 h 1.789473 l 1.789472,-0.67772 1.789473,-1.34719 1.789472,-2.00034 1.789473,-2.62918 1.789472,-3.22612 1.789473,-3.78389 1.789472,-4.29574 1.789473,-4.75544 1.789472,-5.15741 3.578945,-11.26622 5.368418,-18.23244 5.368417,-18.06548 3.578945,-10.97687 1.789473,-4.96397 1.789472,-4.53247 1.789473,-4.04596 1.789472,-3.51033 1.789473,-2.93211 1.789472,-2.31827 1.789476,-1.67631 1.78947,-1.014 1.78947,-0.33937 1.78947,0.33937 1.78948,1.014 1.78947,1.67631 1.78947,2.31827 1.78947,2.93211 1.78948,3.51033 1.78947,4.04596 1.78947,4.53247 1.78947,4.96397 3.57895,10.97687 3.57894,11.92597 7.15789,24.37195 3.57895,11.26622 1.78947,5.15741 1.78947,4.75544 1.78948,4.29574 1.78947,3.78389 1.78947,3.22612 1.78947,2.62918 1.78948,2.00034 1.78947,1.34719 1.78947,0.67772 h 1.78947 l 1.78948,-0.67772 1.78947,-1.34719 1.78947,-2.00034 1.78947,-2.62918 1.78948,-3.22612 1.78947,-3.78389 1.78947,-4.29574 1.78947,-4.75544 1.78948,-5.15741 3.57894,-11.26622 5.36842,-18.23244 5.36842,-18.06548 3.57894,-10.97687 1.78947,-4.96397 1.78947,-4.53247 1.78948,-4.04596 1.78947,-3.51033 1.78947,-2.93211 1.78947,-2.31827 1.78948,-1.67631 1.78947,-1.014 1.78947,-0.33937 1.78948,0.33937 1.78947,1.014 1.78947,1.67631 1.78947,2.31827 1.78947,2.93211 1.78948,3.51033 1.78947,4.04596 1.78947,4.53247 1.78947,4.96397 3.57895,10.97687 3.57894,11.92597 7.15789,24.37195 3.57895,11.26622 1.78947,5.15741 1.78947,4.75544 1.78948,4.29574 1.78947,3.78389 1.78947,3.22612 1.78947,2.62918 1.78948,2.00034 1.78947,1.34719 1.78947,0.67772 h 1.78948 l 1.78947,-0.67772 1.78947,-1.34719 1.78947,-2.00034 1.78948,-2.62918 1.78947,-3.22612 1.78947,-3.78389 1.78947,-4.29574 1.78947,-4.75544 1.78948,-5.15741 3.57894,-11.26622 5.36842,-18.23244 5.36842,-18.06548 3.57894,-10.97687 1.78947,-4.96397 1.78948,-4.53247 1.78947,-4.04596 1.78947,-3.51033 1.78947,-2.93211 1.78948,-2.31827 1.78947,-1.67631 1.78947,-1.014 1.78947,-0.33937 1.78948,0.33937 1.78947,1.014 1.78947,1.67631 1.78947,2.31827 1.78948,2.93211 1.78947,3.51033 1.78947,4.04596 1.78947,4.53247 1.78948,4.96397 3.57894,10.97687 3.57895,11.92597 7.15789,24.37195 3.57894,11.26622 1.78947,5.15741 1.78948,4.75544 1.78947,4.29574 1.78947,3.78389 1.78947,3.22612 1.78948,2.62918 1.78947,2.00034 1.78947,1.34719 1.78947,0.67772 h 1.78948 l 1.78947,-0.67772 1.78947,-1.34719 1.78947,-2.00034 1.78948,-2.62918 1.78947,-3.22612 1.78947,-3.78389 1.78947,-4.29574 1.78948,-4.75544 1.78947,-5.15741 3.57894,-11.26622 5.36842,-18.23244 5.36842,-18.06548 3.57894,-10.97687 1.78948,-4.96397 1.78947,-4.53247 1.78947,-4.04596 1.78947,-3.51033 1.78948,-2.93211 1.78947,-2.31827 1.78947,-1.67631 1.78947,-1.014 1.78948,-0.33937 1.78947,0.33937 1.78947,1.014 1.78947,1.67631 1.78948,2.31827 1.78947,2.93211 1.78947,3.51033 1.78947,4.04596 1.78948,4.53247 1.78947,4.96397 3.57894,10.97687 3.57895,11.92597 7.15789,24.37195 3.57894,11.26622 1.78948,5.15741 1.78947,4.75544 1.78947,4.29574 1.78947,3.78389 1.78947,3.22612 1.78948,2.62918 1.78947,2.00034 1.78947,1.34719 1.78947,0.67772 h 1.78948 l 1.78947,-0.67772 1.78947,-1.34719 1.78947,-2.00034 1.78948,-2.62918 1.78947,-3.22612 1.78947,-3.78389 1.78947,-4.29574 1.78948,-4.75544 1.78947,-5.15741 3.57894,-11.26622 5.36842,-18.23244 5.36842,-18.06548 3.57895,-10.97687 1.78947,-4.96397 1.78947,-4.53247 1.78947,-4.04596 1.78947,-3.51033 1.78948,-2.93211 1.78947,-2.31827 1.78947,-1.67631 1.78947,-1.014 1.78948,-0.33937 1.78947,0.33937 1.78947,1.014 1.78948,1.67631 1.78947,2.31827 1.78947,2.93211 1.78947,3.51033 1.78947,4.04596 1.78948,4.53247 1.78947,4.96397 3.57894,10.97687 3.57895,11.92597 7.15789,24.37195 3.57894,11.26622 1.78948,5.15741 1.78947,4.75544 1.78947,4.29574 1.78947,3.78389 1.78948,3.22612 1.78947,2.62918 1.78947,2.00034 1.78947,1.34719 1.78948,0.67772 h 1.78947 l 1.78947,-0.67772 1.78947,-1.34719 1.78948,-2.00034 1.78947,-2.62918 1.78947,-3.22612 1.78947,-3.78389 1.78948,-4.29574 1.78947,-4.75544 1.78947,-5.15741 3.57895,-11.26622 5.36841,-18.23244 5.36842,-18.06548 3.57895,-10.97687 1.78947,-4.96397 1.78947,-4.53247 1.78947,-4.04596 1.78948,-3.51033 1.78947,-2.93211 1.78947,-2.31827 1.78947,-1.67631 1.78948,-1.014 1.78947,-0.33937 1.78947,0.33937 1.78947,1.014 1.78948,1.67631 1.78947,2.31827 1.78947,2.93211 1.78947,3.51033 1.78948,4.04596 1.78947,4.53247 1.78947,4.96397 3.57895,10.97687 3.57894,11.92597 7.15789,24.37195 3.57895,11.26622 1.78947,5.15741 1.78947,4.75544 1.78947,4.29574 1.78948,3.78389 1.78947,3.22612 1.78947,2.62918 1.78947,2.00034 1.78948,1.34719 1.78947,0.67772 h 1.78947 l 1.78947,-0.67772 1.78947,-1.34719 1.78948,-2.00034 1.78947,-2.62918 1.78947,-3.22612 1.78947,-3.78389 1.78948,-4.29574 1.78947,-4.75544 1.78947,-5.15741 3.57895,-11.26622 5.36841,-18.23244 5.36842,-18.06548 3.57895,-10.97687 1.78947,-4.96397 1.78947,-4.53247 1.78947,-4.04596 1.78948,-3.51033 1.78947,-2.93211 1.78947,-2.31827 1.78947,-1.67631 1.78948,-1.014 1.78947,-0.33937 v 0"
           clip-path="url(#p823ea5a7ab)"
           style="fill:none;stroke:#808080;stroke-width:1.5;stroke-linecap:square"
           id="path22" />
      </g>
      <g
         id="g71"
         clip-path="url(#clipPath71)">
        <g
           id="line2d_9">
          <path
             d="M 207.0001,254.62163 V 3.00024"
             clip-path="url(#p823ea5a7ab)"
             style="fill:none;stroke:#808080;stroke-dasharray:3.7, 1.6;stroke-dashoffset:0"
             id="path23" />
        </g>
        <g
           id="line2d_10">
          <path
             d="M 309.00003,254.62163 V 3.00024"
             clip-path="url(#p823ea5a7ab)"
             style="fill:none;stroke:#808080;stroke-dasharray:3.7, 1.6;stroke-dashoffset:0"
             id="path24" />
        </g>
      </g>
      <g
         id="text_9">
        <!-- left partial -->
        <g
           style="fill:#1f7dad"
           transform="matrix(0.1,0,0,-0.1,79.216578,84.034507)"
           id="g35">
          <defs
             id="defs24">
            <path
               id="DejaVuSans-6c"
               d="m 603,4863 h 575 V 0 H 603 Z"
               transform="scale(0.015625)" />
            <path
               id="DejaVuSans-65"
               d="M 3597,1894 V 1613 H 953 q 38,-594 358,-905 320,-311 892,-311 331,0 642,81 311,81 618,244 V 178 Q 3153,47 2828,-22 2503,-91 2169,-91 1331,-91 842,396 353,884 353,1716 q 0,859 464,1363 464,505 1252,505 706,0 1117,-455 411,-454 411,-1235 z m -575,169 q -6,471 -264,752 -258,282 -683,282 -481,0 -770,-272 -289,-272 -333,-766 z"
               transform="scale(0.015625)" />
            <path
               id="DejaVuSans-66"
               d="m 2375,4863 v -479 h -550 q -309,0 -430,-125 -120,-125 -120,-450 v -309 h 947 V 3053 H 1275 V 0 H 697 V 3053 H 147 v 447 h 550 v 244 q 0,584 272,851 272,268 862,268 z"
               transform="scale(0.015625)" />
            <path
               id="DejaVuSans-74"
               d="M 1172,4494 V 3500 H 2356 V 3053 H 1172 V 1153 q 0,-428 117,-550 117,-122 477,-122 h 590 V 0 H 1766 Q 1100,0 847,248 594,497 594,1153 V 3053 H 172 v 447 h 422 v 994 z"
               transform="scale(0.015625)" />
            <path
               id="DejaVuSans-20"
               transform="scale(0.015625)"
               d="" />
            <path
               id="DejaVuSans-70"
               d="M 1159,525 V -1331 H 581 v 4831 h 578 v -531 q 182,312 458,463 277,152 661,152 638,0 1036,-506 399,-506 399,-1331 0,-825 -399,-1332 -398,-506 -1036,-506 -384,0 -661,152 -276,152 -458,464 z m 1957,1222 q 0,634 -261,995 -261,361 -717,361 -457,0 -718,-361 -261,-361 -261,-995 0,-634 261,-995 261,-361 718,-361 456,0 717,361 261,361 261,995 z"
               transform="scale(0.015625)" />
            <path
               id="DejaVuSans-61"
               d="m 2194,1759 q -697,0 -966,-159 -269,-159 -269,-544 0,-306 202,-486 202,-179 548,-179 479,0 768,339 289,339 289,901 v 128 z m 1147,238 V 0 H 2766 V 531 Q 2569,213 2275,61 1981,-91 1556,-91 q -537,0 -855,302 -317,302 -317,808 0,590 395,890 396,300 1180,300 h 807 v 57 q 0,397 -261,614 -261,217 -733,217 -300,0 -585,-72 -284,-72 -546,-216 v 532 q 315,122 612,182 297,61 578,61 760,0 1135,-394 375,-393 375,-1193 z"
               transform="scale(0.015625)" />
            <path
               id="DejaVuSans-72"
               d="m 2631,2963 q -97,56 -211,82 -114,27 -251,27 -488,0 -749,-317 -261,-317 -261,-911 V 0 H 581 v 3500 h 578 v -544 q 182,319 472,473 291,155 707,155 59,0 131,-8 72,-7 159,-23 z"
               transform="scale(0.015625)" />
            <path
               id="DejaVuSans-69"
               d="m 603,3500 h 575 V 0 H 603 Z m 0,1363 h 575 V 4134 H 603 Z"
               transform="scale(0.015625)" />
          </defs>
          <use
             xlink:href="#DejaVuSans-6c"
             id="use24" />
          <use
             xlink:href="#DejaVuSans-65"
             transform="translate(27.783203)"
             id="use25" />
          <use
             xlink:href="#DejaVuSans-66"
             transform="translate(89.306641)"
             id="use26" />
          <use
             xlink:href="#DejaVuSans-74"
             transform="translate(122.76172)"
             id="use27" />
          <use
             xlink:href="#DejaVuSans-20"
             transform="translate(161.9707)"
             id="use28" />
          <use
             xlink:href="#DejaVuSans-70"
             transform="translate(193.75781)"
             id="use29" />
          <use
             xlink:href="#DejaVuSans-61"
             transform="translate(257.23437)"
             id="use30" />
          <use
             xlink:href="#DejaVuSans-72"
             transform="translate(318.51367)"
             id="use31" />
          <use
             xlink:href="#DejaVuSans-74"
             transform="translate(359.62695)"
             id="use32" />
          <use
             xlink:href="#DejaVuSans-69"
             transform="translate(398.83594)"
             id="use33" />
          <use
             xlink:href="#DejaVuSans-61"
             transform="translate(426.61914)"
             id="use34" />
          <use
             xlink:href="#DejaVuSans-6c"
             transform="translate(487.89844)"
             id="use35" />
        </g>
        <!--  chain -->
        <g
           style="fill:#1f7dad"
           transform="matrix(0.1,0,0,-0.1,89.871265,95.23232)"
           id="g41">
          <defs
             id="defs35">
            <path
               id="DejaVuSans-63"
               d="m 3122,3366 v -538 q -244,135 -489,202 -245,67 -495,67 -560,0 -870,-355 -309,-354 -309,-995 0,-641 309,-996 310,-354 870,-354 250,0 495,67 245,67 489,202 V 134 Q 2881,22 2623,-34 2366,-91 2075,-91 1284,-91 818,406 353,903 353,1747 q 0,856 470,1346 471,491 1290,491 265,0 518,-55 253,-54 491,-163 z"
               transform="scale(0.015625)" />
            <path
               id="DejaVuSans-68"
               d="M 3513,2113 V 0 h -575 v 2094 q 0,497 -194,743 -194,247 -581,247 -466,0 -735,-297 -269,-296 -269,-809 V 0 H 581 v 4863 h 578 V 2956 q 207,316 486,472 280,156 646,156 603,0 912,-373 310,-373 310,-1098 z"
               transform="scale(0.015625)" />
            <path
               id="DejaVuSans-6e"
               d="M 3513,2113 V 0 h -575 v 2094 q 0,497 -194,743 -194,247 -581,247 -466,0 -735,-297 -269,-296 -269,-809 V 0 H 581 v 3500 h 578 v -544 q 207,316 486,472 280,156 646,156 603,0 912,-373 310,-373 310,-1098 z"
               transform="scale(0.015625)" />
          </defs>
          <use
             xlink:href="#DejaVuSans-20"
             id="use36" />
          <use
             xlink:href="#DejaVuSans-63"
             transform="translate(31.787109)"
             id="use37" />
          <use
             xlink:href="#DejaVuSans-68"
             transform="translate(86.767578)"
             id="use38" />
          <use
             xlink:href="#DejaVuSans-61"
             transform="translate(150.14648)"
             id="use39" />
          <use
             xlink:href="#DejaVuSans-69"
             transform="translate(211.42578)"
             id="use40" />
          <use
             xlink:href="#DejaVuSans-6e"
             transform="translate(239.20898)"
             id="use41" />
        </g>
      </g>
      <g
         id="text_11">
        <!-- hole -->
        <g
           style="fill:#808080"
           transform="matrix(0.1,0,0,-0.1,247.30632,89.633413)"
           id="g48">
          <defs
             id="defs44">
            <path
               id="DejaVuSans-6f"
               d="m 1959,3097 q -462,0 -731,-361 -269,-361 -269,-989 0,-628 267,-989 268,-361 733,-361 460,0 728,362 269,363 269,988 0,622 -269,986 -268,364 -728,364 z m 0,487 q 750,0 1178,-488 429,-487 429,-1349 Q 3566,888 3137,398 2709,-91 1959,-91 1206,-91 779,398 353,888 353,1747 q 0,862 426,1349 427,488 1180,488 z"
               transform="scale(0.015625)" />
          </defs>
          <use
             xlink:href="#DejaVuSans-68"
             id="use45" />
          <use
             xlink:href="#DejaVuSans-6f"
             transform="translate(63.378906)"
             id="use46" />
          <use
             xlink:href="#DejaVuSans-6c"
             transform="translate(124.56055)"
             id="use47" />
          <use
             xlink:href="#DejaVuSans-65"
             transform="translate(152.34375)"
             id="use48" />
        </g>
      </g>
      <g
         id="text_12">
        <!-- right partial -->
        <g
           style="fill:#db7371"
           transform="matrix(0.1,0,0,-0.1,483.56709,84.034507)"
           id="g61">
          <defs
             id="defs48">
            <path
               id="DejaVuSans-67"
               d="m 2906,1791 q 0,625 -258,968 -257,344 -723,344 -462,0 -720,-344 -258,-343 -258,-968 0,-622 258,-966 258,-344 720,-344 466,0 723,344 258,344 258,966 z M 3481,434 q 0,-893 -397,-1329 -396,-436 -1215,-436 -303,0 -572,45 -269,45 -522,139 v 559 q 253,-137 500,-202 247,-66 503,-66 566,0 847,295 281,295 281,892 V 616 Q 2728,306 2450,153 2172,0 1784,0 1141,0 747,490 353,981 353,1791 q 0,812 394,1302 394,491 1037,491 388,0 666,-153 278,-153 456,-462 v 531 h 575 z"
               transform="scale(0.015625)" />
          </defs>
          <use
             xlink:href="#DejaVuSans-72"
             id="use49" />
          <use
             xlink:href="#DejaVuSans-69"
             transform="translate(41.113281)"
             id="use50" />
          <use
             xlink:href="#DejaVuSans-67"
             transform="translate(68.896484)"
             id="use51" />
          <use
             xlink:href="#DejaVuSans-68"
             transform="translate(132.37305)"
             id="use52" />
          <use
             xlink:href="#DejaVuSans-74"
             transform="translate(195.75195)"
             id="use53" />
          <use
             xlink:href="#DejaVuSans-20"
             transform="translate(234.96094)"
             id="use54" />
          <use
             xlink:href="#DejaVuSans-70"
             transform="translate(266.74805)"
             id="use55" />
          <use
             xlink:href="#DejaVuSans-61"
             transform="translate(330.22461)"
             id="use56" />
          <use
             xlink:href="#DejaVuSans-72"
             transform="translate(391.50391)"
             id="use57" />
          <use
             xlink:href="#DejaVuSans-74"
             transform="translate(432.61719)"
             id="use58" />
          <use
             xlink:href="#DejaVuSans-69"
             transform="translate(471.82617)"
             id="use59" />
          <use
             xlink:href="#DejaVuSans-61"
             transform="translate(499.60937)"
             id="use60" />
          <use
             xlink:href="#DejaVuSans-6c"
             transform="translate(560.88867)"
             id="use61" />
        </g>
        <!--  chain -->
        <g
           style="fill:#db7371"
           transform="matrix(0.1,0,0,-0.1,497.87099,95.23232)"
           id="g67">
          <use
             xlink:href="#DejaVuSans-20"
             id="use62" />
          <use
             xlink:href="#DejaVuSans-63"
             transform="translate(31.787109)"
             id="use63" />
          <use
             xlink:href="#DejaVuSans-68"
             transform="translate(86.767578)"
             id="use64" />
          <use
             xlink:href="#DejaVuSans-61"
             transform="translate(150.14648)"
             id="use65" />
          <use
             xlink:href="#DejaVuSans-69"
             transform="translate(211.42578)"
             id="use66" />
          <use
             xlink:href="#DejaVuSans-6e"
             transform="translate(239.20898)"
             id="use67" />
        </g>
      </g>
    </g>
  </g>
  <defs
     id="defs70">
    <clipPath
       id="p823ea5a7ab">
      <rect
         x="3.0002401"
         y="3.0002401"
         width="713.99951"
         height="251.6214"
         id="rect70" />
    </clipPath>
  </defs>
</svg>
