<?xml version="1.0" encoding="UTF-8" standalone="no"?>
<svg
   width="247.71255"
   height="179.65009"
   viewBox="0 0 247.71256 179.65008"
   version="1.1"
   id="svg165"
   sodipodi:docname="drawing2.svg"
   inkscape:version="1.4.2 (ebf0e940d0, 2025-05-08)"
   xmlns:inkscape="http://www.inkscape.org/namespaces/inkscape"
   xmlns:sodipodi="http://sodipodi.sourceforge.net/DTD/sodipodi-0.dtd"
   xmlns:xlink="http://www.w3.org/1999/xlink"
   xmlns="http://www.w3.org/2000/svg"
   xmlns:svg="http://www.w3.org/2000/svg">
  <sodipodi:namedview
     id="namedview165"
     pagecolor="#ffffff"
     bordercolor="#000000"
     borderopacity="0.25"
     inkscape:showpageshadow="2"
     inkscape:pageopacity="0.0"
     inkscape:pagecheckerboard="0"
     inkscape:deskcolor="#d1d1d1"
     inkscape:zoom="1.7108316"
     inkscape:cx="94.983048"
     inkscape:cy="99.659137"
     inkscape:window-width="1281"
     inkscape:window-height="785"
     inkscape:window-x="0"
     inkscape:window-y="0"
     inkscape:window-maximized="1"
     inkscape:current-layer="svg165" />
  <defs
     id="defs8">
    <filter
       id="filter-remove-color"
       x="0"
       y="0"
       width="1"
       height="1">
      <feColorMatrix
         color-interpolation-filters="sRGB"
         values="0 0 0 0 1 0 0 0 0 1 0 0 0 0 1 0 0 0 1 0"
         id="feColorMatrix1" />
    </filter>
    <clipPath
       id="clip-0">
      <path
         clip-rule="nonzero"
         d="m 392,622 h 8.27734 v 6 H 392 Z m 0,0"
         id="path1" />
    </clipPath>
    <clipPath
       id="clip-1">
      <path
         clip-rule="nonzero"
         d="m 196,658 h 20 v 4.82812 h -20 z m 0,0"
         id="path2" />
    </clipPath>
    <clipPath
       id="clip-2">
      <path
         clip-rule="nonzero"
         d="M 221,179.0625 H 392 V 426 H 221 Z m 0,0"
         id="path3" />
    </clipPath>
    <clipPath
       id="clip-3">
      <path
         clip-rule="nonzero"
         d="M 212,179.0625 H 400.27734 V 435 H 212 Z m 0,0"
         id="path4" />
    </clipPath>
    <clipPath
       id="clip-4">
      <path
         clip-rule="nonzero"
         d="M 195,179.0625 H 400.27734 V 662.82812 H 195 Z m 0,0"
         id="path5" />
    </clipPath>
    <mask
       id="mask-0">
      <g
         filter="url(#filter-remove-color)"
         id="g5">
        <rect
           x="-59.527557"
           y="-84.188972"
           width="714.33069"
           height="1010.2677"
           fill="#000000"
           fill-opacity="0.793"
           id="rect5" />
      </g>
    </mask>
    <clipPath
       id="clip-5">
      <rect
         x="0"
         y="0"
         width="206"
         height="484"
         id="rect6" />
    </clipPath>
    <g
       id="source-21513"
       clip-path="url(#clip-5)">
      <path
         fill-rule="nonzero"
         fill="#c4f2f2"
         fill-opacity="1"
         stroke-width="1.75616"
         stroke-linecap="butt"
         stroke-linejoin="miter"
         stroke="#53c5e6"
         stroke-opacity="0.94902"
         stroke-miterlimit="4"
         d="m 419.12534,135.33289 c 0,19.86719 -28.49609,35.97266 -63.65234,35.97266 -35.15625,0 -63.65625,-16.10547 -63.65625,-35.97266 0,-19.86328 28.5,-35.968748 63.65625,-35.968748 35.15625,0 63.65234,16.105468 63.65234,35.968748 z m 0,0"
         transform="rotate(-90,241.9138,241.91466)"
         id="path6" />
    </g>
    <clipPath
       id="clip-6">
      <path
         clip-rule="nonzero"
         d="M 195,179.0625 H 400.27734 V 662.82812 H 195 Z m 0,0"
         id="path7" />
    </clipPath>
    <mask
       id="mask-1">
      <g
         filter="url(#filter-remove-color)"
         id="g7">
        <rect
           x="-59.527557"
           y="-84.188972"
           width="714.33069"
           height="1010.2677"
           fill="#000000"
           fill-opacity="0.75"
           id="rect7" />
      </g>
    </mask>
    <clipPath
       id="clip-7">
      <rect
         x="0"
         y="0"
         width="206"
         height="484"
         id="rect8" />
    </clipPath>
    <g
       id="source-21516"
       clip-path="url(#clip-7)">
      <path
         fill-rule="nonzero"
         fill="#2cc52c"
         fill-opacity="0.758454"
         stroke-width="1.46789"
         stroke-linecap="butt"
         stroke-linejoin="miter"
         stroke="#166316"
         stroke-opacity="0.94902"
         stroke-miterlimit="4"
         d="m 457.00425,87.664924 c 0,15.304686 -25.81641,27.714846 -57.66406,27.714846 -31.84375,0 -57.66016,-12.41016 -57.66016,-27.714846 0,-15.308594 25.81641,-27.71875 57.66016,-27.71875 31.84765,0 57.66406,12.410156 57.66406,27.71875 z m 0,0"
         transform="rotate(-90,241.9138,241.91466)"
         id="path8" />
    </g>
  </defs>
  <g
     clip-path="url(#clip-2)"
     id="g43"
     transform="rotate(90,319.56135,107.21371)">
    <path
       fill-rule="nonzero"
       fill="#f2f2f2"
       fill-opacity="1"
       d="m 306.27344,179.85547 c 46.90625,0 84.92968,55.09765 84.92968,123.0625 0,67.96484 -38.02343,123.0625 -84.92968,123.0625 -46.90625,0 -84.92969,-55.09766 -84.92969,-123.0625 0,-67.96485 38.02344,-123.0625 84.92969,-123.0625 z m 0,0"
       id="path43" />
  </g>
  <g
     clip-path="url(#clip-3)"
     id="g44"
     transform="rotate(90,319.56135,107.21371)">
    <path
       fill="none"
       stroke-width="1.58919"
       stroke-linecap="butt"
       stroke-linejoin="miter"
       stroke="#cecbe6"
       stroke-opacity="0.94902"
       stroke-miterlimit="4"
       d="m 482.973,111.2743 c 0,46.90625 -55.09766,84.92969 -123.0625,84.92969 -67.96485,0 -123.0625,-38.02344 -123.0625,-84.92969 0,-46.906251 55.09765,-84.929689 123.0625,-84.929689 67.96484,0 123.0625,38.023438 123.0625,84.929689 z m 0,0"
       transform="rotate(-90,428.9138,233.91466)"
       id="path44" />
  </g>
  <path
     fill-rule="nonzero"
     fill="#000000"
     fill-opacity="1"
     d="m 26.427405,12.03516 c 0.28125,-1.03906 0.5625,-2.16016 0.77734,-3.21875 0.28125,-1.47266 0.4336,-2.94141 0.4336,-3.22266 0,-1.23046 -1.21094,-1.23046 -1.49219,-1.23046 -1.66406,0 -3.15625,0.625 -4.19141,1.33984 -1.79296,1.21094 -2.3789,2.67969 -2.3789,2.78906 0,0.14844 0.17578,0.14844 0.23828,0.14844 0.17187,0 1.21094,-0.25781 1.66406,-1.10156 0.60547,-1.125 1.23047,-1.96485 3.21875,-1.96485 0.91016,0 1.0586,0.625 1.0586,0.97266 0,0.0195 -0.0625,1.05859 -0.32032,2.58984 -0.10937,0.60547 -0.17578,1.01563 -0.64843,2.89844 h -0.80079 c -0.60546,0.0195 -1.62109,0.73438 -1.62109,1.05859 0,0.12891 0.0195,0.15235 0.49609,0.15235 h 1.60157 c -0.47657,1.55469 -1.08203,3.67187 -2.09766,6.35156 -0.19531,0.51953 -0.19531,0.5625 -0.19531,0.58203 0,0.15235 0.17187,0.15235 0.21484,0.15235 0.30469,0 0.9961,-0.28125 1.42969,-0.73438 0.10547,-0.12891 0.14844,-0.17187 0.23437,-0.39062 0.78125,-1.94141 1.44922,-3.92969 2.01172,-5.96094 h 4.96875 c 0.23828,0 0.64844,0 1.01563,-0.21875 -0.23438,0.92969 -1.14453,4.51953 -1.14453,6.26953 0,0.625 0.36718,1.20703 1.32031,1.20703 2.9375,0 4.55859,-1.83594 4.55859,-2.52734 0,-0.12891 -0.10937,-0.17188 -0.21484,-0.17188 -0.17578,0 -1.33984,0.30078 -1.6875,1.16797 -0.0859,0.17188 -0.10938,0.19141 -0.51953,0.25781 -0.23828,0.043 -0.66797,0.0664 -0.69141,0.0664 -0.38672,0 -0.90625,-0.26172 -0.90625,-0.95313 0,-0.25781 0.17188,-1.46875 0.23828,-1.96484 0.36719,-2.44141 1.44532,-6.59375 3.34766,-11.60547 0.0664,-0.15234 0.0664,-0.19531 0.0664,-0.25781 0,-0.15234 -0.12891,-0.15234 -0.23829,-0.15234 -0.32421,0 -0.94921,0.32421 -1.38281,0.6914 -0.0234,0.043 -0.15234,0.15235 -0.23828,0.34375 -0.88672,2.16406 -1.55469,4.38672 -2.22656,6.63672 z m 0,0"
     id="path49" />
  <path
     fill-rule="nonzero"
     fill="#000000"
     fill-opacity="1"
     d="m 49.107095,6.67579 c 0,-2.82813 -2.33594,-5.1211 -5.14453,-5.1211 -2.875,0 -5.16407,2.33594 -5.16407,5.1211 0,2.85546 2.3125,5.14453 5.14063,5.14453 2.875,0 5.16797,-2.33203 5.16797,-5.14453 z M 40.892245,3.3711 c -0.043,-0.0234 -0.14843,-0.12891 -0.14843,-0.17188 0,-0.0664 1.25,-1.2539 3.19531,-1.2539 0.54297,0 1.96875,0.0625 3.22266,1.2539 l -3.19922,3.21875 z m -0.45312,6.54687 c -0.94922,-1.05859 -1.25391,-2.24609 -1.25391,-3.24218 0,-1.16407 0.45313,-2.3125 1.25391,-3.21875 l 3.21875,3.21875 z m 7.00391,-6.46093 c 0.73437,0.80078 1.27343,1.96484 1.27343,3.21875 0,1.1914 -0.45312,2.33593 -1.2539,3.24218 l -3.21875,-3.24218 z m -0.4336,6.54687 c 0.043,0.0234 0.15235,0.12891 0.15235,0.17578 0,0.0625 -1.25391,1.25 -3.19922,1.25 -0.53907,0 -1.96875,-0.0625 -3.21875,-1.25 l 3.19531,-3.22265 z m 0,0"
     id="path50" />
  <path
     fill-rule="nonzero"
     fill="#000000"
     fill-opacity="1"
     d="m 61.626625,1.6211 c 0.15234,-0.60547 0.43359,-1.08203 1.66406,-1.14453 0.0664,0 0.25781,0 0.25781,-0.30469 0,-0.0195 0,-0.17188 -0.1914,-0.17188 -0.51953,0 -1.0586,0.043 -1.5586,0.043 -0.53906,0 -1.07812,-0.043 -1.57812,-0.043 -0.0859,0 -0.27734,0 -0.27734,0.32422 0,0.15235 0.14843,0.15235 0.27734,0.15235 0.88672,0.0195 1.03906,0.34375 1.03906,0.6914 0,0.043 -0.0234,0.28125 -0.043,0.32422 l -1.73047,6.8711 -3.41406,-8.0625 C 55.966435,0.01954 55.943005,0 55.599255,0 h -2.07813 c -0.30078,0 -0.45312,0 -0.45312,0.32422 0,0.15235 0.15234,0.15235 0.43359,0.15235 0.0859,0 1.05859,0 1.05859,0.14843 l -2.07422,8.27735 c -0.15234,0.6289 -0.41015,1.125 -1.66406,1.16797 -0.0859,0 -0.25781,0.0195 -0.25781,0.30078 0,0.10937 0.0625,0.17578 0.19141,0.17578 0.5,0 1.03906,-0.043 1.55859,-0.043 0.51562,0 1.07812,0.043 1.57812,0.043 0.0859,0 0.27735,0 0.27735,-0.30469 0,-0.15234 -0.14844,-0.17187 -0.30078,-0.17187 -0.90625,-0.043 -1.01563,-0.36719 -1.01563,-0.69141 0,-0.10937 0,-0.17187 0.043,-0.34766 l 2.05469,-8.14453 c 0.043,0.0859 0.043,0.12891 0.1289,0.28125 l 3.84766,9.07422 c 0.10547,0.28125 0.14844,0.30469 0.27734,0.30469 0.17579,0 0.17579,-0.043 0.26172,-0.32422 z m 0,0"
     id="path51" />
  <path
     fill-rule="nonzero"
     fill="#000000"
     fill-opacity="1"
     d="m 39.708655,24.11719 1.62109,-1.60156 c 2.41797,-2.11719 3.34766,-2.96094 3.34766,-4.49609 0,-1.75 -1.40234,-3.00391 -3.28516,-3.00391 -1.72656,0 -2.87109,1.42969 -2.87109,2.8125 0,0.86328 0.75391,0.86328 0.82031,0.86328 0.25782,0 0.79688,-0.19531 0.79688,-0.82031 0,-0.41016 -0.27735,-0.80078 -0.82031,-0.80078 -0.12891,0 -0.14844,0 -0.19532,0 0.34766,-0.99219 1.19141,-1.55469 2.07813,-1.55469 1.40234,0 2.07422,1.23047 2.07422,2.50391 0,1.23437 -0.78125,2.46484 -1.6211,3.41796 l -2.96093,3.30469 c -0.17188,0.15235 -0.17188,0.19531 -0.17188,0.5625 h 5.72656 l 0.42969,-2.67969 h -0.38672 c -0.0859,0.45313 -0.19531,1.14454 -0.34765,1.35938 -0.10938,0.13281 -1.125,0.13281 -1.46875,0.13281 z m 0,0"
     id="path52" />
  <path
     fill-rule="nonzero"
     fill="#ffccaa"
     fill-opacity="0.614188"
     stroke-width="0.893441"
     stroke-linecap="butt"
     stroke-linejoin="miter"
     stroke="#ffb380"
     stroke-opacity="1"
     stroke-miterlimit="4"
     d="m 27.548495,95.86212 21.39844,-29.058601 50.84375,-0.37109 21.855475,25.128911 -18.10547,28.6289 -55.027345,1.25781 z m 0,0"
     id="path53" />
  <g
     clip-path="url(#clip-6)"
     id="g54"
     transform="rotate(90,305.18108,117.59398)">
    <g
       mask="url(#mask-1)"
       id="g53">
      <use
         xlink:href="#source-21516"
         transform="translate(195,179)"
         id="use53" />
    </g>
  </g>
  <path
     fill-rule="nonzero"
     fill="#000000"
     fill-opacity="1"
     d="m 50.048495,78.0379 c 0,-0.29688 0,-0.375 -0.17187,-0.375 -0.125,0 -0.42188,0.35937 -0.53125,0.5 -0.5,-0.40625 -1,-0.5 -1.5,-0.5 -1.9375,0 -2.5,1.04687 -2.5,1.92187 0,0.1875 0,0.73438 0.59375,1.29688 0.51562,0.45312 1.0625,0.5625 1.79687,0.70312 0.875,0.17188 1.07813,0.21875 1.48438,0.54688 0.28125,0.23437 0.48437,0.57812 0.48437,1.03125 0,0.6875 -0.39062,1.45312 -1.79687,1.45312 -1.04688,0 -1.8125,-0.60937 -2.17188,-2.20312 -0.0625,-0.28125 -0.0625,-0.29688 -0.0781,-0.3125 -0.0312,-0.0625 -0.0937,-0.0625 -0.14063,-0.0625 -0.17187,0 -0.17187,0.0781 -0.17187,0.35937 v 2.17188 c 0,0.28125 0,0.35937 0.15625,0.35937 0.0781,0 0.0937,-0.0156 0.35937,-0.34375 0.0781,-0.10937 0.0781,-0.14062 0.32813,-0.40625 0.59375,0.75 1.46875,0.75 1.73437,0.75 1.67188,0 2.5,-0.92187 2.5,-2.1875 0,-0.85937 -0.53125,-1.35937 -0.67187,-1.5 -0.57813,-0.5 -1,-0.59375 -2.04688,-0.78125 -0.48437,-0.10937 -1.64062,-0.32812 -1.64062,-1.28125 0,-0.5 0.32812,-1.23437 1.76562,-1.23437 1.73438,0 1.82813,1.48437 1.85938,1.98437 0.0156,0.125 0.125,0.125 0.17187,0.125 0.1875,0 0.1875,-0.0781 0.1875,-0.35937 z m 0,0"
     id="path54" />
  <path
     fill-rule="nonzero"
     fill="#000000"
     fill-opacity="1"
     d="m 53.638345,78.36602 h 2.25 v -0.46875 h -2.25 V 74.9754 h -0.34375 c -0.0156,1.5 -0.59375,3.01562 -2.04688,3.07812 v 0.3125 h 1.35938 v 4.4375 c 0,1.76563 1.1875,2.125 2.03125,2.125 1,0 1.53125,-0.98437 1.53125,-2.125 v -0.92187 h -0.35938 v 0.875 c 0,1.15625 -0.45312,1.82812 -1.07812,1.82812 -1.09375,0 -1.09375,-1.48437 -1.09375,-1.75 z m 0,0"
     id="path55" />
  <path
     fill-rule="nonzero"
     fill="#000000"
     fill-opacity="1"
     d="m 63.181315,80.52227 c 0,-0.85937 0,-1.5 -0.70313,-2.125 -0.5625,-0.51562 -1.28125,-0.73437 -1.98437,-0.73437 -1.29688,0 -2.3125,0.85937 -2.3125,1.89062 0,0.46875 0.3125,0.6875 0.67187,0.6875 0.39063,0 0.65625,-0.26562 0.65625,-0.65625 0,-0.64062 -0.57812,-0.64062 -0.8125,-0.64062 0.375,-0.67188 1.14063,-0.96875 1.76563,-0.96875 0.73437,0 1.67187,0.60937 1.67187,2.04687 v 0.64063 c -3.20312,0.0469 -4.40625,1.39062 -4.40625,2.60937 0,1.26563 1.46875,1.65625 2.4375,1.65625 1.04688,0 1.76563,-0.64062 2.07813,-1.40625 0.0625,0.75 0.54687,1.32813 1.23437,1.32813 0.34375,0 1.26563,-0.21875 1.26563,-1.5 v -0.89063 h -0.35938 v 0.89063 c 0,0.90625 -0.375,1.04687 -0.60937,1.04687 -0.59375,0 -0.59375,-0.85937 -0.59375,-1.09375 z m -1.04688,2 c 0,1.5625 -1.15625,2.09375 -1.84375,2.09375 -0.78125,0 -1.4375,-0.57812 -1.4375,-1.34375 0,-2.10937 2.71875,-2.29687 3.28125,-2.32812 z m 0,0"
     id="path56" />
  <path
     fill-rule="nonzero"
     fill="#000000"
     fill-opacity="1"
     d="m 67.478185,73.709769 -2.20312,0.17188 v 0.46875 c 1.07812,0 1.20312,0.10937 1.20312,0.890621 v 9.53125 h 0.35938 c 0.0625,-0.125 0.5,-0.92187 0.5625,-1.03125 0.375,0.57813 1.0625,1.1875 2.07812,1.1875 1.82813,0 3.4375,-1.54687 3.4375,-3.59375 0,-2.03125 -1.5,-3.59375 -3.26562,-3.59375 -0.875,0 -1.625,0.40625 -2.17188,1.07813 z m 0.0312,5.968751 c 0,-0.29687 0,-0.32812 0.1875,-0.57812 0.375,-0.57813 1.07813,-1.03125 1.85938,-1.03125 0.48437,0 2.15625,0.1875 2.15625,3.25 0,1.0625 -0.17188,1.73437 -0.54688,2.3125 -0.3125,0.48437 -0.95312,0.98437 -1.75,0.98437 -0.85937,0 -1.42187,-0.5625 -1.6875,-0.98437 -0.21875,-0.34375 -0.21875,-0.40625 -0.21875,-0.67188 z m 0,0"
     id="path57" />
  <path
     fill-rule="nonzero"
     fill="#000000"
     fill-opacity="1"
     d="m 76.239905,74.95977 c 0,-0.421871 -0.32812,-0.781251 -0.76562,-0.781251 -0.42188,0 -0.76563,0.32813 -0.76563,0.765631 0,0.46875 0.375,0.78125 0.76563,0.78125 0.48437,0 0.76562,-0.42188 0.76562,-0.76563 z m -2.1875,2.95313 v 0.46875 c 1.01563,0 1.15625,0.0937 1.15625,0.875 v 4.34375 c 0,0.70312 -0.17187,0.70312 -1.20312,0.70312 v 0.46875 c 0.4375,-0.0312 1.20312,-0.0312 1.67187,-0.0312 0.17188,0 1.09375,0 1.64063,0.0312 v -0.46875 c -1.03125,0 -1.10938,-0.0781 -1.10938,-0.6875 v -5.875 z m 0,0"
     id="path58" />
  <path
     fill-rule="nonzero"
     fill="#000000"
     fill-opacity="1"
     d="m 80.528965,73.709769 -2.20312,0.17188 v 0.46875 c 1.07812,0 1.20312,0.10937 1.20312,0.890621 v 8.35938 c 0,0.70312 -0.17187,0.70312 -1.20312,0.70312 v 0.46875 c 0.4375,-0.0312 1.21875,-0.0312 1.70312,-0.0312 0.46875,0 1.26563,0 1.71875,0.0312 v -0.46875 c -1.01562,0 -1.21875,0 -1.21875,-0.70312 z m 0,0"
     id="path59" />
  <path
     fill-rule="nonzero"
     fill="#000000"
     fill-opacity="1"
     d="m 84.880535,74.95977 c 0,-0.421871 -0.32813,-0.781251 -0.76563,-0.781251 -0.42187,0 -0.76562,0.32813 -0.76562,0.765631 0,0.46875 0.375,0.78125 0.76562,0.78125 0.48438,0 0.76563,-0.42188 0.76563,-0.76563 z m -2.1875,2.95313 v 0.46875 c 1.01562,0 1.15625,0.0937 1.15625,0.875 v 4.34375 c 0,0.70312 -0.17188,0.70312 -1.20313,0.70312 v 0.46875 c 0.4375,-0.0312 1.20313,-0.0312 1.67188,-0.0312 0.17187,0 1.09375,0 1.64062,0.0312 v -0.46875 c -1.03125,0 -1.10937,-0.0781 -1.10937,-0.6875 v -5.875 z m 0,0"
     id="path60" />
  <path
     fill-rule="nonzero"
     fill="#000000"
     fill-opacity="1"
     d="m 92.513345,78.3504 c 0.14062,-0.17188 0.14062,-0.20313 0.14062,-0.26563 0,-0.1875 -0.10937,-0.1875 -0.39062,-0.1875 h -5 l -0.17188,2.54688 h 0.34375 c 0.0937,-1.625 0.40625,-2.21875 2.14063,-2.21875 h 1.84375 l -4.54688,6.26562 c 0,0.28125 0.0312,0.28125 0.375,0.28125 h 5.20313 l 0.25,-2.9375 h -0.35938 c -0.14062,1.82813 -0.40625,2.59375 -2.29687,2.59375 h -1.9375 z m 0,0"
     id="path61" />
  <path
     fill-rule="nonzero"
     fill="#000000"
     fill-opacity="1"
     d="m 99.478185,81.06915 c 0.34375,0 0.375,0 0.375,-0.29688 0,-1.60937 -0.85937,-3.10937 -2.78125,-3.10937 -1.82812,0 -3.21875,1.64062 -3.21875,3.625 0,2.09375 1.625,3.64062 3.39063,3.64062 1.89062,0 2.60937,-1.71875 2.60937,-2.04687 0,-0.10938 -0.0781,-0.17188 -0.17187,-0.17188 -0.125,0 -0.15625,0.0937 -0.1875,0.17188 -0.42188,1.32812 -1.48438,1.70312 -2.15625,1.70312 -0.67188,0 -2.28125,-0.45312 -2.28125,-3.20312 v -0.3125 z m -4.40625,-0.29688 c 0.125,-2.5 1.53125,-2.79687 1.98438,-2.79687 1.70312,0 1.79687,2.25 1.8125,2.79687 z m 0,0"
     id="path62" />
  <path
     fill-rule="nonzero"
     fill="#000000"
     fill-opacity="1"
     d="m 102.95866,81.05352 c 0,-1.54687 0.64063,-2.98437 1.875,-2.98437 0.125,0 0.15625,0 0.21875,0.0156 -0.125,0.0625 -0.39062,0.15625 -0.39062,0.57813 0,0.46875 0.375,0.64062 0.625,0.64062 0.32812,0 0.64062,-0.20312 0.64062,-0.64062 0,-0.46875 -0.42187,-0.92188 -1.10937,-0.92188 -1.35938,0 -1.82813,1.46875 -1.92188,1.76563 h -0.0156 V 77.741 l -2.125,0.17188 v 0.46875 c 1.07812,0 1.20312,0.10937 1.20312,0.89062 v 4.32813 c 0,0.70312 -0.17187,0.70312 -1.20312,0.70312 v 0.46875 c 0.4375,-0.0312 1.3125,-0.0312 1.79687,-0.0312 0.42188,0 1.5625,0 1.92188,0.0312 V 84.3035 h -0.3125 c -1.17188,0 -1.20313,-0.17187 -1.20313,-0.75 z m 0,0"
     id="path63" />
  <path
     fill-rule="nonzero"
     fill="#000000"
     fill-opacity="1"
     d="m 52.536785,115.81524 c 0,-0.0469 0,-0.0781 -0.28125,-0.35937 -1.59375,-1.60938 -2.48438,-4.23438 -2.48438,-7.48438 0,-3.09375 0.75,-5.75 2.59375,-7.64062 0.17188,-0.14063 0.17188,-0.17188 0.17188,-0.21875 0,-0.0937 -0.0937,-0.125 -0.15625,-0.125 -0.20313,0 -1.51563,1.14062 -2.29688,2.70312 -0.8125,1.60938 -1.17187,3.32813 -1.17187,5.28125 0,1.42188 0.21875,3.3125 1.04687,5.01563 0.9375,1.92187 2.25,2.95312 2.42188,2.95312 0.0625,0 0.15625,-0.0312 0.15625,-0.125 z m 0,0"
     id="path64" />
  <path
     fill-rule="nonzero"
     fill="#000000"
     fill-opacity="1"
     d="m 58.165685,103.03399 c 0.42188,2.0625 1.125,5.48438 2.03125,7.32813 0.35938,0.6875 0.53125,1.03125 0.6875,1.03125 0.0625,0 0.0937,0 0.39063,-0.28125 1.20312,-1.17188 2.03125,-2.09375 3.15625,-3.35938 l 3.48437,-4.0625 c -0.21875,1.34375 -0.79687,4.9375 -0.79687,6.79688 0,0.4375 0.0156,0.84375 0.0625,1.28125 0.0156,0.17187 0.0781,0.64062 0.75,0.64062 0.67187,0 1.875,-0.70312 1.875,-1.03125 0,-0.0937 -0.0937,-0.10937 -0.14063,-0.10937 -0.20312,0 -0.53125,0.14062 -0.70312,0.25 -0.375,-0.0469 -0.40625,-0.29688 -0.4375,-0.65625 -0.0469,-0.51563 -0.0469,-1 -0.0469,-1.0625 0,-1.76563 0.70313,-6.59375 1.15625,-8.5625 0.0156,-0.125 0.0312,-0.15625 0.0312,-0.28125 0,-0.0625 -0.0156,-0.23438 -0.125,-0.23438 -0.0625,0 -0.0781,0.0156 -0.375,0.35938 -1.5,1.82812 -6.15625,7.40625 -7.73437,8.73437 -0.40625,-0.84375 -0.6875,-1.4375 -1.25,-3.67187 -0.45313,-1.8125 -0.73438,-3.125 -1,-4.67188 -0.0469,-0.21875 -0.125,-0.65625 -0.125,-0.6875 -0.0469,-0.082 -0.125,-0.082 -0.17188,-0.082 -0.29687,0 -0.96875,0.34375 -1.01562,0.6875 -0.1875,1.32813 -0.5,3.4375 -1.625,6.48438 -1.26563,3.39062 -1.625,3.39062 -1.92188,3.39062 -0.20312,0 -0.79687,-0.125 -1.15625,-0.4375 -0.0781,-0.0898 -0.10937,-0.0898 -0.14062,-0.0898 -0.21875,0 -0.5625,0.71875 -0.5625,1.17187 0,0.14063 0,0.32813 0.5,0.60938 0.40625,0.20312 0.78125,0.21875 0.85937,0.21875 1,0 1.9375,-2.28125 2.25,-3.09375 0.75,-1.79688 1.64063,-4.3125 2.09375,-6.60938 z m 0,0"
     id="path65" />
  <path
     fill-rule="nonzero"
     fill="#000000"
     fill-opacity="1"
     d="m 76.216465,109.51837 c 0,-0.0469 -0.0312,-0.10938 -0.10937,-0.10938 -0.125,0 -0.57813,0.45313 -0.76563,0.76563 -0.25,-0.59375 -0.6875,-0.78125 -1.03125,-0.78125 -1.32812,0 -2.6875,1.65625 -2.6875,3.28125 0,1.09375 0.65625,1.78125 1.46875,1.78125 0.48438,0 0.90625,-0.26563 1.3125,-0.67188 -0.0937,0.39063 -0.46875,1.89063 -0.5,2 -0.0937,0.3125 -0.17187,0.35938 -0.79687,0.35938 -0.15625,0 -0.26563,0 -0.26563,0.23437 0,0 0,0.125 0.14063,0.125 0.35937,0 0.75,-0.0469 1.125,-0.0469 0.375,0 0.78125,0.0469 1.14062,0.0469 0.0625,0 0.20313,0 0.20313,-0.23437 0,-0.125 -0.10938,-0.125 -0.28125,-0.125 -0.54688,0 -0.54688,-0.0781 -0.54688,-0.17188 0,-0.0781 0.0312,-0.14062 0.0469,-0.25 z m -3.09375,4.6875 c -0.67187,0 -0.71875,-0.85938 -0.71875,-1.04688 0,-0.53125 0.32813,-1.75 0.51563,-2.21875 0.34375,-0.82812 0.92187,-1.29687 1.39062,-1.29687 0.71875,0 0.875,0.90625 0.875,0.98437 0,0.0625 -0.60937,2.51563 -0.64062,2.54688 -0.17188,0.3125 -0.79688,1.03125 -1.42188,1.03125 z m 0,0"
     id="path66" />
  <path
     fill-rule="nonzero"
     fill="#000000"
     fill-opacity="1"
     d="m 87.739905,106.78399 c 0.21875,0 0.5,0 0.5,-0.29687 0,-0.29688 -0.26562,-0.29688 -0.5,-0.29688 h -9.39062 c -0.23438,0 -0.51563,0 -0.51563,0.28125 0,0.3125 0.26563,0.3125 0.51563,0.3125 z m 0,2.95313 c 0.21875,0 0.5,0 0.5,-0.28125 0,-0.3125 -0.26562,-0.3125 -0.5,-0.3125 h -9.39062 c -0.23438,0 -0.51563,0 -0.51563,0.29687 0,0.29688 0.26563,0.29688 0.51563,0.29688 z m 0,0"
     id="path67" />
  <path
     fill-rule="nonzero"
     fill="#000000"
     fill-opacity="1"
     d="m 97.673495,106.84649 c 0,-1.32812 -0.0781,-2.625 -0.65625,-3.82812 -0.65625,-1.32813 -1.79687,-1.67188 -2.57812,-1.67188 -0.92188,0 -2.0625,0.45313 -2.64063,1.78125 -0.45312,1 -0.60937,1.98438 -0.60937,3.71875 0,1.54688 0.10937,2.70313 0.6875,3.82813 0.60937,1.21875 1.71875,1.59375 2.54687,1.59375 1.39063,0 2.1875,-0.82813 2.64063,-1.75 0.57812,-1.1875 0.60937,-2.75 0.60937,-3.67188 z m -3.25,5.10938 c -0.51562,0 -1.54687,-0.28125 -1.84375,-2.03125 -0.1875,-0.95313 -0.1875,-2.15625 -0.1875,-3.28125 0,-1.29688 0,-2.48438 0.26563,-3.42188 0.26562,-1.0625 1.07812,-1.5625 1.76562,-1.5625 0.60938,0 1.53125,0.375 1.82813,1.73438 0.20312,0.90625 0.20312,2.17187 0.20312,3.25 0,1.07812 0,2.28125 -0.17187,3.25 -0.29688,1.76562 -1.29688,2.0625 -1.85938,2.0625 z m 0,0"
     id="path68" />
  <path
     fill-rule="nonzero"
     fill="#000000"
     fill-opacity="1"
     d="m 102.82975,107.97149 c 0,-1.21875 -0.17187,-3.1875 -1.0625,-5.03125 -0.9375,-1.92187 -2.234375,-2.95312 -2.421875,-2.95312 -0.0625,0 -0.14063,0.0312 -0.14063,0.125 0,0.043 0,0.0781 0.26563,0.35937 1.593755,1.60938 2.500005,4.23438 2.500005,7.48438 0,3.09375 -0.75,5.75 -2.609385,7.64062 -0.15625,0.14063 -0.15625,0.17188 -0.15625,0.21875 0,0.0937 0.0781,0.125 0.14063,0.125 0.21875,0 1.515625,-1.14062 2.296875,-2.70312 0.8125,-1.625 1.1875,-3.35938 1.1875,-5.26563 z m 0,0"
     id="path69" />
  <path
     fill-rule="nonzero"
     fill="#000000"
     fill-opacity="1"
     d="m 125.82194,79.13555 h 1.8125 V 78.6668 h -1.84375 v -1.85937 c 0,-1.4375 0.73438,-2.171881 1.39063,-2.171881 0.125,0 0.375,0.0312 0.5625,0.125001 -0.0625,0.0156 -0.46875,0.17188 -0.46875,0.625 0,0.375 0.26562,0.625 0.625,0.625 0.39062,0 0.64062,-0.25 0.64062,-0.64062 0,-0.59375 -0.57812,-1.046881 -1.34375,-1.046881 -1.10937,0 -2.375,0.859381 -2.375,2.484381 v 1.85937 h -1.23437 v 0.46875 h 1.23437 v 5.23438 c 0,0.70312 -0.17187,0.70312 -1.20312,0.70312 v 0.46875 c 0.4375,-0.0312 1.3125,-0.0312 1.79687,-0.0312 0.42188,0 1.5625,0 1.92188,0.0312 v -0.46875 h -0.3125 c -1.17188,0 -1.20313,-0.17187 -1.20313,-0.75 z m 0,0"
     id="path70" />
  <path
     fill-rule="nonzero"
     fill="#000000"
     fill-opacity="1"
     d="m 133.96257,81.83868 c 0.34375,0 0.375,0 0.375,-0.29688 0,-1.60937 -0.85938,-3.10937 -2.78125,-3.10937 -1.82813,0 -3.21875,1.64062 -3.21875,3.625 0,2.09375 1.625,3.64062 3.39062,3.64062 1.89063,0 2.60938,-1.71875 2.60938,-2.04687 0,-0.10938 -0.0781,-0.17188 -0.17188,-0.17188 -0.125,0 -0.15625,0.0937 -0.1875,0.17188 -0.42187,1.32812 -1.48437,1.70312 -2.15625,1.70312 -0.67187,0 -2.28125,-0.45312 -2.28125,-3.20312 v -0.3125 z m -4.40625,-0.29688 c 0.125,-2.5 1.53125,-2.79687 1.98437,-2.79687 1.70313,0 1.79688,2.25 1.8125,2.79687 z m 0,0"
     id="path71" />
  <path
     fill-rule="nonzero"
     fill="#000000"
     fill-opacity="1"
     d="m 137.44304,81.82305 c 0,-1.54687 0.64062,-2.98437 1.875,-2.98437 0.125,0 0.15625,0 0.21875,0.0156 -0.125,0.0625 -0.39063,0.15625 -0.39063,0.57813 0,0.46875 0.375,0.64062 0.625,0.64062 0.32813,0 0.64063,-0.20312 0.64063,-0.64062 0,-0.46875 -0.42188,-0.92188 -1.10938,-0.92188 -1.35937,0 -1.82812,1.46875 -1.92187,1.76563 h -0.0156 v -1.76563 l -2.125,0.17188 v 0.46875 c 1.07813,0 1.20313,0.10937 1.20313,0.89062 v 4.32813 c 0,0.70312 -0.17188,0.70312 -1.20313,0.70312 v 0.46875 c 0.4375,-0.0312 1.3125,-0.0312 1.79688,-0.0312 0.42187,0 1.5625,0 1.92187,0.0312 v -0.46875 h -0.3125 c -1.17187,0 -1.20312,-0.17187 -1.20312,-0.75 z m 0,0"
     id="path72" />
  <path
     fill-rule="nonzero"
     fill="#000000"
     fill-opacity="1"
     d="m 152.26725,81.6668 c 0,-1.48437 0,-1.92187 -0.35937,-2.4375 -0.46875,-0.625 -1.21875,-0.71875 -1.75,-0.71875 -1.32813,0 -2,0.95313 -2.25,1.57813 -0.21875,-1.21875 -1.07813,-1.57813 -2.09375,-1.57813 -1.54688,0 -2.14063,1.32813 -2.28125,1.64063 h -0.0156 v -1.64063 l -2.15625,0.17188 v 0.46875 c 1.07813,0 1.20313,0.10937 1.20313,0.89062 v 4.32813 c 0,0.70312 -0.17188,0.70312 -1.20313,0.70312 v 0.46875 c 0.40625,-0.0312 1.26563,-0.0312 1.71875,-0.0312 0.45313,0 1.3125,0 1.73438,0.0312 v -0.46875 c -1.01563,0 -1.21875,0 -1.21875,-0.70312 v -2.96875 c 0,-1.67188 1.10937,-2.5625 2.09375,-2.5625 0.98437,0 1.21875,0.8125 1.21875,1.78125 v 3.75 c 0,0.70312 -0.1875,0.70312 -1.21875,0.70312 v 0.46875 c 0.42187,-0.0312 1.28125,-0.0312 1.71875,-0.0312 0.46875,0 1.32812,0 1.73437,0.0312 v -0.46875 c -1.01562,0 -1.20312,0 -1.20312,-0.70312 v -2.96875 c 0,-1.67188 1.09375,-2.5625 2.09375,-2.5625 0.98437,0 1.20312,0.8125 1.20312,1.78125 v 3.75 c 0,0.70312 -0.17187,0.70312 -1.20312,0.70312 v 0.46875 c 0.40625,-0.0312 1.26562,-0.0312 1.71875,-0.0312 0.45312,0 1.3125,0 1.73437,0.0312 v -0.46875 c -0.79687,0 -1.20312,0 -1.21875,-0.46875 z m 0,0"
     id="path73" />
  <path
     fill-rule="nonzero"
     fill="#000000"
     fill-opacity="1"
     d="m 156.60319,75.7293 c 0,-0.42187 -0.32812,-0.78125 -0.76562,-0.78125 -0.42188,0 -0.76563,0.32813 -0.76563,0.76563 0,0.46875 0.375,0.78125 0.76563,0.78125 0.48437,0 0.76562,-0.42188 0.76562,-0.76563 z m -2.1875,2.95313 v 0.46875 c 1.01563,0 1.15625,0.0937 1.15625,0.875 v 4.34375 c 0,0.70312 -0.17187,0.70312 -1.20312,0.70312 v 0.46875 c 0.4375,-0.0312 1.20312,-0.0312 1.67187,-0.0312 0.17188,0 1.09375,0 1.64063,0.0312 v -0.46875 c -1.03125,0 -1.10938,-0.0781 -1.10938,-0.6875 v -5.875 z m 0,0"
     id="path74" />
  <path
     fill-rule="nonzero"
     fill="#000000"
     fill-opacity="1"
     d="m 165.47038,82.13555 c 0,-2.0625 -1.5625,-3.70312 -3.40625,-3.70312 -1.90625,0 -3.42188,1.6875 -3.42188,3.70312 0,2.03125 1.59375,3.5625 3.40625,3.5625 1.875,0 3.42188,-1.5625 3.42188,-3.5625 z m -3.40625,3.21875 c -0.59375,0 -1.3125,-0.26562 -1.76563,-1.04687 -0.4375,-0.70313 -0.45312,-1.65625 -0.45312,-2.3125 0,-0.60938 0,-1.57813 0.5,-2.29688 0.4375,-0.6875 1.14062,-0.95312 1.70312,-0.95312 0.625,0 1.29688,0.29687 1.71875,0.92187 0.5,0.73438 0.5,1.73438 0.5,2.32813 0,0.54687 0,1.53125 -0.42187,2.28125 -0.4375,0.76562 -1.17188,1.07812 -1.78125,1.07812 z m 0,0"
     id="path75" />
  <path
     fill-rule="nonzero"
     fill="#000000"
     fill-opacity="1"
     d="m 173.0446,81.6668 c 0,-1.48437 0,-1.92187 -0.375,-2.4375 -0.45313,-0.625 -1.20313,-0.71875 -1.75,-0.71875 -1.54688,0 -2.14063,1.32813 -2.28125,1.64063 h -0.0156 v -1.64063 l -2.15625,0.17188 v 0.46875 c 1.07813,0 1.20313,0.10937 1.20313,0.89062 v 4.32813 c 0,0.70312 -0.17188,0.70312 -1.20313,0.70312 v 0.46875 c 0.40625,-0.0312 1.26563,-0.0312 1.71875,-0.0312 0.45313,0 1.3125,0 1.73438,0.0312 v -0.46875 c -1.01563,0 -1.21875,0 -1.21875,-0.70312 v -2.96875 c 0,-1.67188 1.10937,-2.5625 2.09375,-2.5625 0.98437,0 1.21875,0.8125 1.21875,1.78125 v 3.75 c 0,0.70312 -0.1875,0.70312 -1.21875,0.70312 v 0.46875 c 0.42187,-0.0312 1.28125,-0.0312 1.71875,-0.0312 0.46875,0 1.32812,0 1.73437,0.0312 v -0.46875 c -0.79687,0 -1.1875,0 -1.20312,-0.46875 z m 0,0"
     id="path76" />
  <path
     fill-rule="nonzero"
     fill="#000000"
     fill-opacity="1"
     d="m 177.37272,75.7293 c 0,-0.42187 -0.32812,-0.78125 -0.76562,-0.78125 -0.42188,0 -0.76563,0.32813 -0.76563,0.76563 0,0.46875 0.375,0.78125 0.76563,0.78125 0.48437,0 0.76562,-0.42188 0.76562,-0.76563 z m -2.1875,2.95313 v 0.46875 c 1.01563,0 1.15625,0.0937 1.15625,0.875 v 4.34375 c 0,0.70312 -0.17187,0.70312 -1.20312,0.70312 v 0.46875 c 0.4375,-0.0312 1.20312,-0.0312 1.67187,-0.0312 0.17188,0 1.09375,0 1.64063,0.0312 v -0.46875 c -1.03125,0 -1.10938,-0.0781 -1.10938,-0.6875 v -5.875 z m 0,0"
     id="path77" />
  <path
     fill-rule="nonzero"
     fill="#000000"
     fill-opacity="1"
     d="m 184.69304,79.65118 c -0.1875,0 -0.78125,0 -0.78125,0.64062 0,0.39063 0.28125,0.65625 0.65625,0.65625 0.375,0 0.67187,-0.21875 0.67187,-0.6875 0,-1.0625 -1.10937,-1.82812 -2.40625,-1.82812 -1.85937,0 -3.34375,1.65625 -3.34375,3.67187 0,2.03125 1.53125,3.59375 3.32813,3.59375 2.10937,0 2.57812,-1.90625 2.57812,-2.04687 0,-0.15625 -0.10937,-0.15625 -0.15625,-0.15625 -0.14062,0 -0.15625,0.0469 -0.20312,0.25 -0.35938,1.125 -1.21875,1.60937 -2.07813,1.60937 -0.96875,0 -2.26562,-0.84375 -2.26562,-3.26562 0,-2.65625 1.35937,-3.29688 2.15625,-3.29688 0.60937,0 1.48437,0.23438 1.84375,0.85938 z m 0,0"
     id="path78" />
  <path
     fill-rule="nonzero"
     fill="#000000"
     fill-opacity="1"
     d="m 119.27897,95.80352 c 0,-0.625 0.0625,-0.70312 1.07813,-0.70312 v -0.45313 c -0.40625,0.0312 -1.51563,0.0312 -1.98438,0.0312 -0.51562,0 -1.89062,0 -2.32812,-0.0312 v 0.45313 h 0.5 c 1.39062,0 1.4375,0.1875 1.4375,0.76562 v 1.01563 c 0,1.82812 -2.07813,1.95312 -2.5,1.95312 -1.25,0 -4.23438,-0.76562 -4.23438,-5.32812 0,-4.60938 3.01563,-5.3125 4.125,-5.3125 1.39063,0 3.04688,1.01562 3.45313,3.82812 0.0469,0.1875 0.0469,0.23438 0.23437,0.23438 0.21875,0 0.21875,-0.0469 0.21875,-0.375 V 88.1004 c 0,-0.28125 0,-0.35938 -0.15625,-0.35938 -0.0937,0 -0.10937,0.0312 -0.20312,0.1875 l -0.78125,1.26563 c -0.46875,-0.57813 -1.4375,-1.45313 -2.95313,-1.45313 -2.89062,0 -5.42187,2.5 -5.42187,5.76563 0,3.29687 2.53125,5.78125 5.4375,5.78125 1.125,0 2.42187,-0.35938 3.01562,-1.375 0.28125,0.5 0.8125,1.03125 0.9375,1.03125 0.125,0 0.125,-0.0937 0.125,-0.34375 z m 0,0"
     id="path79" />
  <path
     fill-rule="nonzero"
     fill="#000000"
     fill-opacity="1"
     d="m 127.30241,94.70977 c 0,-0.85937 0,-1.5 -0.70312,-2.125 -0.5625,-0.51562 -1.28125,-0.73437 -1.98438,-0.73437 -1.29687,0 -2.3125,0.85937 -2.3125,1.89062 0,0.46875 0.3125,0.6875 0.67188,0.6875 0.39062,0 0.65625,-0.26562 0.65625,-0.65625 0,-0.64062 -0.57813,-0.64062 -0.8125,-0.64062 0.375,-0.67188 1.14062,-0.96875 1.76562,-0.96875 0.73438,0 1.67188,0.60937 1.67188,2.04687 v 0.64063 c -3.20313,0.0469 -4.40625,1.39062 -4.40625,2.60937 0,1.26563 1.46875,1.65625 2.4375,1.65625 1.04687,0 1.76562,-0.64062 2.07812,-1.40625 0.0625,0.75 0.54688,1.32813 1.23438,1.32813 0.34375,0 1.26562,-0.21875 1.26562,-1.5 v -0.89063 h -0.35937 v 0.89063 c 0,0.90625 -0.375,1.04687 -0.60938,1.04687 -0.59375,0 -0.59375,-0.85937 -0.59375,-1.09375 z m -1.04687,2 c 0,1.5625 -1.15625,2.09375 -1.84375,2.09375 -0.78125,0 -1.4375,-0.57812 -1.4375,-1.34375 0,-2.10937 2.71875,-2.29687 3.28125,-2.32812 z m 0,0"
     id="path80" />
  <path
     fill-rule="nonzero"
     fill="#000000"
     fill-opacity="1"
     d="m 133.78679,92.1004 v 0.46875 c 1.07812,0 1.21875,0.10937 1.21875,0.89062 v 2.85938 c 0,1.34375 -0.71875,2.48437 -1.92188,2.48437 -1.29687,0 -1.39062,-0.75 -1.39062,-1.59375 v -5.28125 l -2.23438,0.17188 v 0.46875 c 1.20313,0 1.20313,0.0469 1.20313,1.46875 v 2.39062 c 0,0.98438 0,1.5625 0.48437,2.07813 0.375,0.42187 1.03125,0.60937 1.84375,0.60937 0.26563,0 0.78125,0 1.32813,-0.45312 0.45312,-0.375 0.71875,-0.98438 0.71875,-0.98438 v 1.4375 l 2.20312,-0.15625 v -0.46875 c -1.07812,0 -1.20312,-0.10937 -1.20312,-0.89062 v -5.67188 z m 0,0"
     id="path81" />
  <path
     fill-rule="nonzero"
     fill="#000000"
     fill-opacity="1"
     d="m 142.82975,92.2254 c 0,-0.29688 0,-0.375 -0.17187,-0.375 -0.125,0 -0.42188,0.35937 -0.53125,0.5 -0.5,-0.40625 -1,-0.5 -1.5,-0.5 -1.9375,0 -2.5,1.04687 -2.5,1.92187 0,0.1875 0,0.73438 0.59375,1.29688 0.51562,0.45312 1.0625,0.5625 1.79687,0.70312 0.875,0.17188 1.07813,0.21875 1.48438,0.54688 0.28125,0.23437 0.48437,0.57812 0.48437,1.03125 0,0.6875 -0.39062,1.45312 -1.79687,1.45312 -1.04688,0 -1.8125,-0.60937 -2.17188,-2.20312 -0.0625,-0.28125 -0.0625,-0.29688 -0.0781,-0.3125 -0.0312,-0.0625 -0.0937,-0.0625 -0.14063,-0.0625 -0.17187,0 -0.17187,0.0781 -0.17187,0.35937 v 2.17188 c 0,0.28125 0,0.35937 0.15625,0.35937 0.0781,0 0.0937,-0.0156 0.35937,-0.34375 0.0781,-0.10937 0.0781,-0.14062 0.32813,-0.40625 0.59375,0.75 1.46875,0.75 1.73437,0.75 1.67188,0 2.5,-0.92187 2.5,-2.1875 0,-0.85937 -0.53125,-1.35937 -0.67187,-1.5 -0.57813,-0.5 -1,-0.59375 -2.04688,-0.78125 -0.48437,-0.10937 -1.64062,-0.32812 -1.64062,-1.28125 0,-0.5 0.32812,-1.23437 1.76562,-1.23437 1.73438,0 1.82813,1.48437 1.85938,1.98437 0.0156,0.125 0.125,0.125 0.17187,0.125 0.1875,0 0.1875,-0.0781 0.1875,-0.35937 z m 0,0"
     id="path82" />
  <path
     fill-rule="nonzero"
     fill="#000000"
     fill-opacity="1"
     d="m 148.986,92.2254 c 0,-0.29688 0,-0.375 -0.17187,-0.375 -0.125,0 -0.42188,0.35937 -0.53125,0.5 -0.5,-0.40625 -1,-0.5 -1.5,-0.5 -1.9375,0 -2.5,1.04687 -2.5,1.92187 0,0.1875 0,0.73438 0.59375,1.29688 0.51562,0.45312 1.0625,0.5625 1.79687,0.70312 0.875,0.17188 1.07813,0.21875 1.48438,0.54688 0.28125,0.23437 0.48437,0.57812 0.48437,1.03125 0,0.6875 -0.39062,1.45312 -1.79687,1.45312 -1.04688,0 -1.8125,-0.60937 -2.17188,-2.20312 -0.0625,-0.28125 -0.0625,-0.29688 -0.0781,-0.3125 -0.0312,-0.0625 -0.0937,-0.0625 -0.14063,-0.0625 -0.17187,0 -0.17187,0.0781 -0.17187,0.35937 v 2.17188 c 0,0.28125 0,0.35937 0.15625,0.35937 0.0781,0 0.0937,-0.0156 0.35937,-0.34375 0.0781,-0.10937 0.0781,-0.14062 0.32813,-0.40625 0.59375,0.75 1.46875,0.75 1.73437,0.75 1.67188,0 2.5,-0.92187 2.5,-2.1875 0,-0.85937 -0.53125,-1.35937 -0.67187,-1.5 -0.57813,-0.5 -1,-0.59375 -2.04688,-0.78125 -0.48437,-0.10937 -1.64062,-0.32812 -1.64062,-1.28125 0,-0.5 0.32812,-1.23437 1.76562,-1.23437 1.73438,0 1.82813,1.48437 1.85938,1.98437 0.0156,0.125 0.125,0.125 0.17187,0.125 0.1875,0 0.1875,-0.0781 0.1875,-0.35937 z m 0,0"
     id="path83" />
  <path
     fill-rule="nonzero"
     fill="#000000"
     fill-opacity="1"
     d="m 152.6696,89.14727 c 0,-0.42187 -0.32813,-0.78125 -0.76563,-0.78125 -0.42187,0 -0.76562,0.32813 -0.76562,0.76563 0,0.46875 0.375,0.78125 0.76562,0.78125 0.48438,0 0.76563,-0.42188 0.76563,-0.76563 z m -2.1875,2.95313 v 0.46875 c 1.01562,0 1.15625,0.0937 1.15625,0.875 v 4.34375 c 0,0.70312 -0.17188,0.70312 -1.20313,0.70312 v 0.46875 c 0.4375,-0.0312 1.20313,-0.0312 1.67188,-0.0312 0.17187,0 1.09375,0 1.64062,0.0312 v -0.46875 c -1.03125,0 -1.10937,-0.0781 -1.10937,-0.6875 v -5.875 z m 0,0"
     id="path84" />
  <path
     fill-rule="nonzero"
     fill="#000000"
     fill-opacity="1"
     d="m 160.38054,94.70977 c 0,-0.85937 0,-1.5 -0.70313,-2.125 -0.5625,-0.51562 -1.28125,-0.73437 -1.98437,-0.73437 -1.29688,0 -2.3125,0.85937 -2.3125,1.89062 0,0.46875 0.3125,0.6875 0.67187,0.6875 0.39063,0 0.65625,-0.26562 0.65625,-0.65625 0,-0.64062 -0.57812,-0.64062 -0.8125,-0.64062 0.375,-0.67188 1.14063,-0.96875 1.76563,-0.96875 0.73437,0 1.67187,0.60937 1.67187,2.04687 v 0.64063 c -3.20312,0.0469 -4.40625,1.39062 -4.40625,2.60937 0,1.26563 1.46875,1.65625 2.4375,1.65625 1.04688,0 1.76563,-0.64062 2.07813,-1.40625 0.0625,0.75 0.54687,1.32813 1.23437,1.32813 0.34375,0 1.26563,-0.21875 1.26563,-1.5 v -0.89063 h -0.35938 v 0.89063 c 0,0.90625 -0.375,1.04687 -0.60937,1.04687 -0.59375,0 -0.59375,-0.85937 -0.59375,-1.09375 z m -1.04688,2 c 0,1.5625 -1.15625,2.09375 -1.84375,2.09375 -0.78125,0 -1.4375,-0.57812 -1.4375,-1.34375 0,-2.10937 2.71875,-2.29687 3.28125,-2.32812 z m 0,0"
     id="path85" />
  <path
     fill-rule="nonzero"
     fill="#000000"
     fill-opacity="1"
     d="m 169.111,95.08477 c 0,-1.48437 0,-1.92187 -0.375,-2.4375 -0.45312,-0.625 -1.20312,-0.71875 -1.75,-0.71875 -1.54687,0 -2.14062,1.32813 -2.28125,1.64063 h -0.0156 v -1.64063 l -2.15625,0.17188 v 0.46875 c 1.07812,0 1.20312,0.10937 1.20312,0.89062 v 4.32813 c 0,0.70312 -0.17187,0.70312 -1.20312,0.70312 v 0.46875 c 0.40625,-0.0312 1.26562,-0.0312 1.71875,-0.0312 0.45312,0 1.3125,0 1.73437,0.0312 v -0.46875 c -1.01562,0 -1.21875,0 -1.21875,-0.70312 v -2.96875 c 0,-1.67188 1.10938,-2.5625 2.09375,-2.5625 0.98438,0 1.21875,0.8125 1.21875,1.78125 v 3.75 c 0,0.70312 -0.1875,0.70312 -1.21875,0.70312 v 0.46875 c 0.42188,-0.0312 1.28125,-0.0312 1.71875,-0.0312 0.46875,0 1.32813,0 1.73438,0.0312 v -0.46875 c -0.79688,0 -1.1875,0 -1.20313,-0.46875 z m 0,0"
     id="path86" />
  <path
     fill-rule="nonzero"
     fill="#000000"
     fill-opacity="1"
     d="m 138.13054,117.43243 c 0,-0.0469 0,-0.0781 -0.28125,-0.35938 -1.59375,-1.60937 -2.48438,-4.23437 -2.48438,-7.48437 0,-3.09375 0.75,-5.75 2.59375,-7.64063 0.17188,-0.14062 0.17188,-0.17187 0.17188,-0.21875 0,-0.0937 -0.0937,-0.125 -0.15625,-0.125 -0.20313,0 -1.51563,1.14063 -2.29688,2.70313 -0.8125,1.60937 -1.17187,3.32812 -1.17187,5.28125 0,1.42187 0.21875,3.3125 1.04687,5.01562 0.9375,1.92188 2.25,2.95313 2.42188,2.95313 0.0625,0 0.15625,-0.0312 0.15625,-0.125 z m 0,0"
     id="path87" />
  <path
     fill-rule="nonzero"
     fill="#000000"
     fill-opacity="1"
     d="m 152.44694,103.27618 c 0,-0.73438 -1.23437,-0.625 -1.73437,-0.625 h -6 c -0.79688,0 -2.21875,0.46875 -2.46875,1.32812 0.0312,0.0937 0.0625,0.10938 0.15625,0.10938 0.34375,0 0.82812,-0.28125 1.04687,-0.53125 0.5,0 0.98438,-0.0312 1.46875,-0.0312 h 0.98438 c 0,0 -0.0625,0.29687 -0.0625,0.3125 -0.60938,2.90625 -1.5625,5.39062 -2.26563,6.95312 -0.0937,0.20313 -0.95312,2.1875 -1.17187,2.39063 -0.70313,0 -1.23438,-0.39063 -1.51563,-1.01563 -0.0469,-0.0937 -0.0469,-0.15625 -0.15625,-0.15625 -0.375,0 -1.25,0.51563 -1.25,0.78125 0,0.0312 0.0156,0.0625 0.0312,0.0937 0.29688,0.75 1.01563,1.1875 1.79688,1.1875 0.8125,0 1.75,-0.59375 2.25,-1.1875 0.53125,-0.60937 1.57812,-3.21875 2,-4.17187 h 3.07812 c -0.0156,0.0156 -0.0312,0.0312 -0.0312,0.0469 0,0.0625 0.0937,0.10938 0.15625,0.10938 0.34375,0 1.26563,-0.4375 1.26563,-0.9375 0,-0.10938 -0.125,-0.0937 -0.3125,-0.0937 h -3.82813 c 0.42188,-1.4375 0.96875,-2.84375 1.25,-4.3125 h 2.10938 c 0.39062,0 1.5,-0.0781 1.79687,0.28125 0.0312,0.0937 -0.0156,0.25 0.0312,0.32812 0.0312,0.0312 0.0781,0.0469 0.125,0.0469 0.39063,0 1.25,-0.46875 1.25,-0.90625 z m 0,0"
     id="path88" />
  <path
     fill-rule="nonzero"
     fill="#000000"
     fill-opacity="1"
     d="m 153.87272,108.32305 c 0,0 0,-0.125 -0.14062,-0.125 -0.26563,0 -1.07813,0.0937 -1.35938,0.125 -0.0937,0 -0.21875,0.0156 -0.21875,0.21875 0,0.125 0.0937,0.125 0.26563,0.125 0.53125,0 0.5625,0.0781 0.5625,0.20313 l -0.0312,0.21875 -1.625,6.42187 c -0.0469,0.15625 -0.0469,0.1875 -0.0469,0.25 0,0.25 0.23438,0.3125 0.32813,0.3125 0.14062,0 0.3125,-0.10937 0.375,-0.23437 0.0625,-0.10938 0.5625,-2.17188 0.625,-2.45313 0.39062,0.0469 1.29687,0.21875 1.29687,0.95313 0,0.0781 0,0.125 -0.0312,0.23437 -0.0312,0.14063 -0.0469,0.26563 -0.0469,0.39063 0,0.65625 0.45312,1.10937 1.03125,1.10937 0.32812,0 0.625,-0.1875 0.875,-0.59375 0.28125,-0.48437 0.40625,-1.10937 0.40625,-1.125 0,-0.10937 -0.10938,-0.10937 -0.14063,-0.10937 -0.10937,0 -0.125,0.0469 -0.15625,0.20312 -0.21875,0.8125 -0.46875,1.375 -0.96875,1.375 -0.20312,0 -0.35937,-0.125 -0.35937,-0.51562 0,-0.20313 0.0469,-0.45313 0.0937,-0.625 0.0469,-0.20313 0.0469,-0.23438 0.0469,-0.35938 0,-0.71875 -0.70312,-1.04687 -1.65625,-1.17187 0.34375,-0.1875 0.70313,-0.54688 0.96875,-0.8125 0.53125,-0.59375 1.04688,-1.07813 1.59375,-1.07813 0.0625,0 0.0781,0 0.0937,0.0156 0.14063,0.0156 0.14063,0.0156 0.23438,0.0937 0.0312,0 0.0312,0.0156 0.0469,0.0312 -0.53125,0.0469 -0.64062,0.46875 -0.64062,0.60937 0,0.17188 0.125,0.39063 0.42187,0.39063 0.29688,0 0.625,-0.25 0.625,-0.6875 0,-0.32813 -0.26562,-0.70313 -0.76562,-0.70313 -0.3125,0 -0.82813,0.0937 -1.625,0.98438 -0.375,0.42187 -0.8125,0.875 -1.23438,1.04687 z m 0,0"
     id="path89" />
  <path
     fill-rule="nonzero"
     fill="#000000"
     fill-opacity="1"
     d="m 169.52116,108.40118 c 0.21875,0 0.5,0 0.5,-0.29688 0,-0.29687 -0.26562,-0.29687 -0.5,-0.29687 h -9.39062 c -0.23438,0 -0.51563,0 -0.51563,0.28125 0,0.3125 0.26563,0.3125 0.51563,0.3125 z m 0,2.95312 c 0.21875,0 0.5,0 0.5,-0.28125 0,-0.3125 -0.26562,-0.3125 -0.5,-0.3125 h -9.39062 c -0.23438,0 -0.51563,0 -0.51563,0.29688 0,0.29687 0.26563,0.29687 0.51563,0.29687 z m 0,0"
     id="path90" />
  <path
     fill-rule="nonzero"
     fill="#000000"
     fill-opacity="1"
     d="m 179.45475,108.46368 c 0,-1.32813 -0.0781,-2.625 -0.65625,-3.82813 -0.65625,-1.32812 -1.79687,-1.67187 -2.57812,-1.67187 -0.92188,0 -2.0625,0.45312 -2.64063,1.78125 -0.45312,1 -0.60937,1.98437 -0.60937,3.71875 0,1.54687 0.10937,2.70312 0.6875,3.82812 0.60937,1.21875 1.71875,1.59375 2.54687,1.59375 1.39063,0 2.1875,-0.82812 2.64063,-1.75 0.57812,-1.1875 0.60937,-2.75 0.60937,-3.67187 z m -3.25,5.10937 c -0.51562,0 -1.54687,-0.28125 -1.84375,-2.03125 -0.1875,-0.95312 -0.1875,-2.15625 -0.1875,-3.28125 0,-1.29687 0,-2.48437 0.26563,-3.42187 0.26562,-1.0625 1.07812,-1.5625 1.76562,-1.5625 0.60938,0 1.53125,0.375 1.82813,1.73437 0.20312,0.90625 0.20312,2.17188 0.20312,3.25 0,1.07813 0,2.28125 -0.17187,3.25 -0.29688,1.76563 -1.29688,2.0625 -1.85938,2.0625 z m 0,0"
     id="path91" />
  <path
     fill-rule="nonzero"
     fill="#000000"
     fill-opacity="1"
     d="m 184.6071,109.58868 c 0,-1.21875 -0.17188,-3.1875 -1.0625,-5.03125 -0.9375,-1.92188 -2.23438,-2.95313 -2.42188,-2.95313 -0.0625,0 -0.14062,0.0312 -0.14062,0.125 0,0.0469 0,0.0781 0.26562,0.35938 1.59375,1.60937 2.5,4.23437 2.5,7.48437 0,3.09375 -0.75,5.75 -2.60937,7.64063 -0.15625,0.14062 -0.15625,0.17187 -0.15625,0.21875 0,0.0937 0.0781,0.125 0.14062,0.125 0.21875,0 1.51563,-1.14063 2.29688,-2.70313 0.8125,-1.625 1.1875,-3.35937 1.1875,-5.26562 z m 0,0"
     id="path92" />
  <path
     fill-rule="nonzero"
     fill="#000000"
     fill-opacity="1"
     d="m 60.505535,89.57305 c 0,-0.29687 0,-0.375 -0.17188,-0.375 -0.125,0 -0.42187,0.35938 -0.53125,0.5 -0.5,-0.40625 -1,-0.5 -1.5,-0.5 -1.9375,0 -2.5,1.04688 -2.5,1.92188 0,0.1875 0,0.73437 0.59375,1.29687 0.51563,0.45313 1.0625,0.5625 1.79688,0.70313 0.875,0.17187 1.07812,0.21875 1.48437,0.54687 0.28125,0.23438 0.48438,0.57813 0.48438,1.03125 0,0.6875 -0.39063,1.45313 -1.79688,1.45313 -1.04687,0 -1.8125,-0.60938 -2.17187,-2.20313 -0.0625,-0.28125 -0.0625,-0.29687 -0.0781,-0.3125 -0.0312,-0.0625 -0.0937,-0.0625 -0.14062,-0.0625 -0.17188,0 -0.17188,0.0781 -0.17188,0.35938 v 2.17187 c 0,0.28125 0,0.35938 0.15625,0.35938 0.0781,0 0.0937,-0.0156 0.35938,-0.34375 0.0781,-0.10938 0.0781,-0.14063 0.32812,-0.40625 0.59375,0.75 1.46875,0.75 1.73438,0.75 1.67187,0 2.5,-0.92188 2.5,-2.1875 0,-0.85938 -0.53125,-1.35938 -0.67188,-1.5 -0.57812,-0.5 -1,-0.59375 -2.04687,-0.78125 -0.48438,-0.10938 -1.64063,-0.32813 -1.64063,-1.28125 0,-0.5 0.32813,-1.23438 1.76563,-1.23438 1.73437,0 1.82812,1.48438 1.85937,1.98438 0.0156,0.125 0.125,0.125 0.17188,0.125 0.1875,0 0.1875,-0.0781 0.1875,-0.35938 z m 0,0"
     id="path118" />
  <path
     fill-rule="nonzero"
     fill="#000000"
     fill-opacity="1"
     d="m 64.095375,89.90118 h 2.25 v -0.46875 h -2.25 v -2.92188 h -0.34375 c -0.0156,1.5 -0.59375,3.01563 -2.04688,3.07813 v 0.3125 h 1.35938 v 4.4375 c 0,1.76562 1.1875,2.125 2.03125,2.125 1,0 1.53125,-0.98438 1.53125,-2.125 V 93.4168 h -0.35938 v 0.875 c 0,1.15625 -0.45312,1.82813 -1.07812,1.82813 -1.09375,0 -1.09375,-1.48438 -1.09375,-1.75 z m 0,0"
     id="path119" />
  <path
     fill-rule="nonzero"
     fill="#000000"
     fill-opacity="1"
     d="m 73.638345,92.05743 c 0,-0.85938 0,-1.5 -0.70313,-2.125 -0.5625,-0.51563 -1.28125,-0.73438 -1.98437,-0.73438 -1.29688,0 -2.3125,0.85938 -2.3125,1.89063 0,0.46875 0.3125,0.6875 0.67187,0.6875 0.39063,0 0.65625,-0.26563 0.65625,-0.65625 0,-0.64063 -0.57812,-0.64063 -0.8125,-0.64063 0.375,-0.67187 1.14063,-0.96875 1.76563,-0.96875 0.73437,0 1.67187,0.60938 1.67187,2.04688 v 0.64062 c -3.20312,0.0469 -4.40625,1.39063 -4.40625,2.60938 0,1.26562 1.46875,1.65625 2.4375,1.65625 1.04688,0 1.76563,-0.64063 2.07813,-1.40625 0.0625,0.75 0.54687,1.32812 1.23437,1.32812 0.34375,0 1.26563,-0.21875 1.26563,-1.5 v -0.89062 h -0.35938 v 0.89062 c 0,0.90625 -0.375,1.04688 -0.60937,1.04688 -0.59375,0 -0.59375,-0.85938 -0.59375,-1.09375 z m -1.04688,2 c 0,1.5625 -1.15625,2.09375 -1.84375,2.09375 -0.78125,0 -1.4375,-0.57813 -1.4375,-1.34375 0,-2.10938 2.71875,-2.29688 3.28125,-2.32813 z m 0,0"
     id="path120" />
  <path
     fill-rule="nonzero"
     fill="#000000"
     fill-opacity="1"
     d="m 77.946935,89.90118 h 2.25 v -0.46875 h -2.25 v -2.92188 h -0.34375 c -0.0156,1.5 -0.59375,3.01563 -2.04687,3.07813 v 0.3125 h 1.35937 v 4.4375 c 0,1.76562 1.1875,2.125 2.03125,2.125 1,0 1.53125,-0.98438 1.53125,-2.125 V 93.4168 h -0.35937 v 0.875 c 0,1.15625 -0.45313,1.82813 -1.07813,1.82813 -1.09375,0 -1.09375,-1.48438 -1.09375,-1.75 z m 0,0"
     id="path121" />
  <path
     fill-rule="nonzero"
     fill="#000000"
     fill-opacity="1"
     d="m 87.443035,92.6043 c 0.34375,0 0.375,0 0.375,-0.29687 0,-1.60938 -0.85938,-3.10938 -2.78125,-3.10938 -1.82813,0 -3.21875,1.64063 -3.21875,3.625 0,2.09375 1.625,3.64063 3.39062,3.64063 1.89063,0 2.60938,-1.71875 2.60938,-2.04688 0,-0.10937 -0.0781,-0.17187 -0.17188,-0.17187 -0.125,0 -0.15625,0.0937 -0.1875,0.17187 -0.42187,1.32813 -1.48437,1.70313 -2.15625,1.70313 -0.67187,0 -2.28125,-0.45313 -2.28125,-3.20313 v -0.3125 z m -4.40625,-0.29687 c 0.125,-2.5 1.53125,-2.79688 1.98437,-2.79688 1.70313,0 1.79688,2.25 1.8125,2.79688 z m 0,0"
     id="path122" />
  <path
     fill-rule="nonzero"
     fill="#000000"
     fill-opacity="1"
     d="m 93.501625,89.57305 c 0,-0.29687 0,-0.375 -0.17188,-0.375 -0.125,0 -0.42187,0.35938 -0.53125,0.5 -0.5,-0.40625 -1,-0.5 -1.5,-0.5 -1.9375,0 -2.5,1.04688 -2.5,1.92188 0,0.1875 0,0.73437 0.59375,1.29687 0.51563,0.45313 1.0625,0.5625 1.79688,0.70313 0.875,0.17187 1.07812,0.21875 1.48437,0.54687 0.28125,0.23438 0.48438,0.57813 0.48438,1.03125 0,0.6875 -0.39063,1.45313 -1.79688,1.45313 -1.04687,0 -1.8125,-0.60938 -2.17187,-2.20313 -0.0625,-0.28125 -0.0625,-0.29687 -0.0781,-0.3125 -0.0312,-0.0625 -0.0937,-0.0625 -0.14062,-0.0625 -0.17188,0 -0.17188,0.0781 -0.17188,0.35938 v 2.17187 c 0,0.28125 0,0.35938 0.15625,0.35938 0.0781,0 0.0937,-0.0156 0.35938,-0.34375 0.0781,-0.10938 0.0781,-0.14063 0.32812,-0.40625 0.59375,0.75 1.46875,0.75 1.73438,0.75 1.67187,0 2.5,-0.92188 2.5,-2.1875 0,-0.85938 -0.53125,-1.35938 -0.67188,-1.5 -0.57812,-0.5 -1,-0.59375 -2.04687,-0.78125 -0.48438,-0.10938 -1.64063,-0.32813 -1.64063,-1.28125 0,-0.5 0.32813,-1.23438 1.76563,-1.23438 1.73437,0 1.82812,1.48438 1.85937,1.98438 0.0156,0.125 0.125,0.125 0.17188,0.125 0.1875,0 0.1875,-0.0781 0.1875,-0.35938 z m 0,0"
     id="path123" />
  <path
     fill-rule="nonzero"
     fill="#000000"
     fill-opacity="1"
     d="m 180.25944,92.51446 c 0,-0.29687 0,-0.375 -0.17187,-0.375 -0.125,0 -0.42188,0.35938 -0.53125,0.5 -0.5,-0.40625 -1,-0.5 -1.5,-0.5 -1.9375,0 -2.5,1.04688 -2.5,1.92188 0,0.1875 0,0.73437 0.59375,1.29687 0.51562,0.45313 1.0625,0.5625 1.79687,0.70313 0.875,0.17187 1.07813,0.21875 1.48438,0.54687 0.28125,0.23438 0.48437,0.57813 0.48437,1.03125 0,0.6875 -0.39062,1.45313 -1.79687,1.45313 -1.04688,0 -1.8125,-0.60938 -2.17188,-2.20313 -0.0625,-0.28125 -0.0625,-0.29687 -0.0781,-0.3125 -0.0312,-0.0625 -0.0937,-0.0625 -0.14063,-0.0625 -0.17187,0 -0.17187,0.0781 -0.17187,0.35938 v 2.17187 c 0,0.28125 0,0.35938 0.15625,0.35938 0.0781,0 0.0937,-0.0156 0.35937,-0.34375 0.0781,-0.10938 0.0781,-0.14063 0.32813,-0.40625 0.59375,0.75 1.46875,0.75 1.73437,0.75 1.67188,0 2.5,-0.92188 2.5,-2.1875 0,-0.85938 -0.53125,-1.35938 -0.67187,-1.5 -0.57813,-0.5 -1,-0.59375 -2.04688,-0.78125 -0.48437,-0.10938 -1.64062,-0.32813 -1.64062,-1.28125 0,-0.5 0.32812,-1.23438 1.76562,-1.23438 1.73438,0 1.82813,1.48438 1.85938,1.98438 0.0156,0.125 0.125,0.125 0.17187,0.125 0.1875,0 0.1875,-0.0781 0.1875,-0.35938 z m 0,0"
     id="path124" />
  <path
     fill-rule="nonzero"
     fill="#000000"
     fill-opacity="1"
     d="m 183.84929,92.84259 h 2.25 v -0.46875 h -2.25 v -2.92188 h -0.34375 c -0.0156,1.5 -0.59375,3.01563 -2.04688,3.07813 v 0.3125 h 1.35938 v 4.4375 c 0,1.76562 1.1875,2.125 2.03125,2.125 1,0 1.53125,-0.98438 1.53125,-2.125 v -0.92188 h -0.35938 v 0.875 c 0,1.15625 -0.45312,1.82813 -1.07812,1.82813 -1.09375,0 -1.09375,-1.48438 -1.09375,-1.75 z m 0,0"
     id="path125" />
  <path
     fill-rule="nonzero"
     fill="#000000"
     fill-opacity="1"
     d="m 193.38835,94.99884 c 0,-0.85938 0,-1.5 -0.70313,-2.125 -0.5625,-0.51563 -1.28125,-0.73438 -1.98437,-0.73438 -1.29688,0 -2.3125,0.85938 -2.3125,1.89063 0,0.46875 0.3125,0.6875 0.67187,0.6875 0.39063,0 0.65625,-0.26563 0.65625,-0.65625 0,-0.64063 -0.57812,-0.64063 -0.8125,-0.64063 0.375,-0.67187 1.14063,-0.96875 1.76563,-0.96875 0.73437,0 1.67187,0.60938 1.67187,2.04688 v 0.64062 c -3.20312,0.0469 -4.40625,1.39063 -4.40625,2.60938 0,1.26562 1.46875,1.65625 2.4375,1.65625 1.04688,0 1.76563,-0.64063 2.07813,-1.40625 0.0625,0.75 0.54687,1.32812 1.23437,1.32812 0.34375,0 1.26563,-0.21875 1.26563,-1.5 v -0.89062 h -0.35938 v 0.89062 c 0,0.90625 -0.375,1.04688 -0.60937,1.04688 -0.59375,0 -0.59375,-0.85938 -0.59375,-1.09375 z m -1.04688,2 c 0,1.5625 -1.15625,2.09375 -1.84375,2.09375 -0.78125,0 -1.4375,-0.57813 -1.4375,-1.34375 0,-2.10938 2.71875,-2.29688 3.28125,-2.32813 z m 0,0"
     id="path126" />
  <path
     fill-rule="nonzero"
     fill="#000000"
     fill-opacity="1"
     d="m 197.70085,92.84259 h 2.25 v -0.46875 h -2.25 v -2.92188 h -0.34375 c -0.0156,1.5 -0.59375,3.01563 -2.04688,3.07813 v 0.3125 h 1.35938 v 4.4375 c 0,1.76562 1.1875,2.125 2.03125,2.125 1,0 1.53125,-0.98438 1.53125,-2.125 v -0.92188 h -0.35938 v 0.875 c 0,1.15625 -0.45312,1.82813 -1.07812,1.82813 -1.09375,0 -1.09375,-1.48438 -1.09375,-1.75 z m 0,0"
     id="path127" />
  <path
     fill-rule="nonzero"
     fill="#000000"
     fill-opacity="1"
     d="m 207.19304,95.54571 c 0.34375,0 0.375,0 0.375,-0.29687 0,-1.60938 -0.85938,-3.10938 -2.78125,-3.10938 -1.82813,0 -3.21875,1.64063 -3.21875,3.625 0,2.09375 1.625,3.64063 3.39062,3.64063 1.89063,0 2.60938,-1.71875 2.60938,-2.04688 0,-0.10937 -0.0781,-0.17187 -0.17188,-0.17187 -0.125,0 -0.15625,0.0937 -0.1875,0.17187 -0.42187,1.32813 -1.48437,1.70313 -2.15625,1.70313 -0.67187,0 -2.28125,-0.45313 -2.28125,-3.20313 v -0.3125 z m -4.40625,-0.29687 c 0.125,-2.5 1.53125,-2.79688 1.98437,-2.79688 1.70313,0 1.79688,2.25 1.8125,2.79688 z m 0,0"
     id="path128" />
  <path
     fill-rule="nonzero"
     fill="#000000"
     fill-opacity="1"
     d="m 213.25554,92.51446 c 0,-0.29687 0,-0.375 -0.17188,-0.375 -0.125,0 -0.42187,0.35938 -0.53125,0.5 -0.5,-0.40625 -1,-0.5 -1.5,-0.5 -1.9375,0 -2.5,1.04688 -2.5,1.92188 0,0.1875 0,0.73437 0.59375,1.29687 0.51563,0.45313 1.0625,0.5625 1.79688,0.70313 0.875,0.17187 1.07812,0.21875 1.48437,0.54687 0.28125,0.23438 0.48438,0.57813 0.48438,1.03125 0,0.6875 -0.39063,1.45313 -1.79688,1.45313 -1.04687,0 -1.8125,-0.60938 -2.17187,-2.20313 -0.0625,-0.28125 -0.0625,-0.29687 -0.0781,-0.3125 -0.0312,-0.0625 -0.0937,-0.0625 -0.14062,-0.0625 -0.17188,0 -0.17188,0.0781 -0.17188,0.35938 v 2.17187 c 0,0.28125 0,0.35938 0.15625,0.35938 0.0781,0 0.0937,-0.0156 0.35938,-0.34375 0.0781,-0.10938 0.0781,-0.14063 0.32812,-0.40625 0.59375,0.75 1.46875,0.75 1.73438,0.75 1.67187,0 2.5,-0.92188 2.5,-2.1875 0,-0.85938 -0.53125,-1.35938 -0.67188,-1.5 -0.57812,-0.5 -1,-0.59375 -2.04687,-0.78125 -0.48438,-0.10938 -1.64063,-0.32813 -1.64063,-1.28125 0,-0.5 0.32813,-1.23438 1.76563,-1.23438 1.73437,0 1.82812,1.48438 1.85937,1.98438 0.0156,0.125 0.125,0.125 0.17188,0.125 0.1875,0 0.1875,-0.0781 0.1875,-0.35938 z m 0,0"
     id="path129" />
</svg>
