<?xml version="1.0" encoding="utf-8" standalone="no"?>
<!DOCTYPE svg PUBLIC "-//W3C//DTD SVG 1.1//EN"
  "http://www.w3.org/Graphics/SVG/1.1/DTD/svg11.dtd">
<svg xmlns:xlink="http://www.w3.org/1999/xlink" width="244.8pt" height="122.4pt" viewBox="0 0 244.8 122.4" xmlns="http://www.w3.org/2000/svg" version="1.1">
 <metadata>
  <rdf:RDF xmlns:dc="http://purl.org/dc/elements/1.1/" xmlns:cc="http://creativecommons.org/ns#" xmlns:rdf="http://www.w3.org/1999/02/22-rdf-syntax-ns#">
   <cc:Work>
    <dc:type rdf:resource="http://purl.org/dc/dcmitype/StillImage"/>
    <dc:date>2025-10-06T16:37:21.878186</dc:date>
    <dc:format>image/svg+xml</dc:format>
    <dc:creator>
     <cc:Agent>
      <dc:title>Matplotlib v3.10.0, https://matplotlib.org/</dc:title>
     </cc:Agent>
    </dc:creator>
   </cc:Work>
  </rdf:RDF>
 </metadata>
 <defs>
  <style type="text/css">*{stroke-linejoin: round; stroke-linecap: butt}</style>
 </defs>
 <g id="figure_1">
  <g id="patch_1">
   <path d="M 0 122.4 
L 244.8 122.4 
L 244.8 0 
L 0 0 
L 0 122.4 
z
" style="fill: none"/>
  </g>
  <g id="axes_1">
   <g id="patch_2">
    <path d="M 25.038347 97.968647 
L 125.87941 97.968647 
L 125.87941 0.72 
L 25.038347 0.72 
z
" style="fill: #ffffff"/>
   </g>
   <g id="matplotlib.axis_1">
    <g id="xtick_1">
     <g id="line2d_1">
      <defs>
       <path id="m78aed704de" d="M 0 0 
L 0 3.5 
" style="stroke: #000000; stroke-width: 0.8"/>
      </defs>
      <g>
       <use xlink:href="#m78aed704de" x="51.15382" y="97.968647" style="stroke: #000000; stroke-width: 0.8"/>
      </g>
     </g>
     <g id="text_1">
      <!-- $\mathdefault{10^{1}}$ -->
      <g transform="translate(44.186866 109.887145) scale(0.1 -0.1)">
       <defs>
        <path id="CMR17-31" d="M 1702 4083 
C 1702 4217 1696 4224 1606 4224 
C 1357 3927 979 3833 621 3820 
C 602 3820 570 3820 563 3808 
C 557 3795 557 3782 557 3648 
C 755 3648 1088 3686 1344 3839 
L 1344 467 
C 1344 243 1331 166 781 166 
L 589 166 
L 589 0 
C 896 6 1216 12 1523 12 
C 1830 12 2150 6 2458 0 
L 2458 166 
L 2266 166 
C 1715 166 1702 236 1702 467 
L 1702 4083 
z
" transform="scale(0.015625)"/>
        <path id="CMR17-30" d="M 2688 2038 
C 2688 2430 2682 3099 2413 3613 
C 2176 4063 1798 4224 1466 4224 
C 1158 4224 768 4082 525 3620 
C 269 3137 243 2539 243 2038 
C 243 1671 250 1112 448 623 
C 723 -39 1216 -128 1466 -128 
C 1760 -128 2208 -7 2470 604 
C 2662 1048 2688 1568 2688 2038 
z
M 1466 -26 
C 1056 -26 813 328 723 816 
C 653 1196 653 1749 653 2109 
C 653 2604 653 3015 736 3407 
C 858 3954 1216 4121 1466 4121 
C 1728 4121 2067 3947 2189 3420 
C 2272 3054 2278 2623 2278 2109 
C 2278 1691 2278 1176 2202 797 
C 2067 96 1690 -26 1466 -26 
z
" transform="scale(0.015625)"/>
       </defs>
       <use xlink:href="#CMR17-31" transform="scale(0.996264)"/>
       <use xlink:href="#CMR17-30" transform="translate(45.690477 0) scale(0.996264)"/>
       <use xlink:href="#CMR17-31" transform="translate(91.380954 36.153639) scale(0.697382)"/>
      </g>
     </g>
    </g>
    <g id="xtick_2">
     <g id="line2d_2">
      <g>
       <use xlink:href="#m78aed704de" x="88.516615" y="97.968647" style="stroke: #000000; stroke-width: 0.8"/>
      </g>
     </g>
     <g id="text_2">
      <!-- $\mathdefault{10^{2}}$ -->
      <g transform="translate(81.549661 109.887145) scale(0.1 -0.1)">
       <defs>
        <path id="CMR17-32" d="M 2669 990 
L 2554 990 
C 2490 537 2438 460 2413 422 
C 2381 371 1920 371 1830 371 
L 602 371 
C 832 620 1280 1073 1824 1596 
C 2214 1966 2669 2400 2669 3033 
C 2669 3788 2067 4224 1395 4224 
C 691 4224 262 3603 262 3027 
C 262 2777 448 2745 525 2745 
C 589 2745 781 2783 781 3007 
C 781 3206 614 3264 525 3264 
C 486 3264 448 3257 422 3244 
C 544 3788 915 4057 1306 4057 
C 1862 4057 2227 3616 2227 3033 
C 2227 2477 1901 1998 1536 1583 
L 262 147 
L 262 0 
L 2515 0 
L 2669 990 
z
" transform="scale(0.015625)"/>
       </defs>
       <use xlink:href="#CMR17-31" transform="scale(0.996264)"/>
       <use xlink:href="#CMR17-30" transform="translate(45.690477 0) scale(0.996264)"/>
       <use xlink:href="#CMR17-32" transform="translate(91.380954 36.153639) scale(0.697382)"/>
      </g>
     </g>
    </g>
    <g id="xtick_3">
     <g id="line2d_3">
      <g>
       <use xlink:href="#m78aed704de" x="125.87941" y="97.968647" style="stroke: #000000; stroke-width: 0.8"/>
      </g>
     </g>
     <g id="text_3">
      <!-- $\mathdefault{10^{3}}$ -->
      <g transform="translate(118.912456 109.887145) scale(0.1 -0.1)">
       <defs>
        <path id="CMR17-33" d="M 1414 2176 
C 1984 2176 2234 1673 2234 1094 
C 2234 322 1824 25 1453 25 
C 1114 25 563 193 390 691 
C 422 678 454 678 486 678 
C 640 678 755 780 755 947 
C 755 1132 614 1216 486 1216 
C 378 1216 211 1164 211 927 
C 211 335 787 -128 1466 -128 
C 2176 -128 2720 432 2720 1087 
C 2720 1718 2208 2176 1600 2246 
C 2086 2347 2554 2776 2554 3353 
C 2554 3856 2048 4224 1472 4224 
C 890 4224 378 3862 378 3347 
C 378 3123 544 3084 627 3084 
C 762 3084 877 3167 877 3334 
C 877 3500 762 3584 627 3584 
C 602 3584 570 3584 544 3571 
C 730 3999 1235 4076 1459 4076 
C 1683 4076 2106 3966 2106 3347 
C 2106 3167 2080 2851 1862 2574 
C 1670 2329 1453 2316 1242 2297 
C 1210 2297 1062 2284 1037 2284 
C 992 2278 966 2272 966 2227 
C 966 2182 973 2176 1101 2176 
L 1414 2176 
z
" transform="scale(0.015625)"/>
       </defs>
       <use xlink:href="#CMR17-31" transform="scale(0.996264)"/>
       <use xlink:href="#CMR17-30" transform="translate(45.690477 0) scale(0.996264)"/>
       <use xlink:href="#CMR17-33" transform="translate(91.380954 36.153639) scale(0.697382)"/>
      </g>
     </g>
    </g>
    <g id="xtick_4">
     <g id="line2d_4">
      <defs>
       <path id="m48f62de8db" d="M 0 0 
L 0 2 
" style="stroke: #000000; stroke-width: 0.6"/>
      </defs>
      <g>
       <use xlink:href="#m48f62de8db" x="25.038347" y="97.968647" style="stroke: #000000; stroke-width: 0.6"/>
      </g>
     </g>
    </g>
    <g id="xtick_5">
     <g id="line2d_5">
      <g>
       <use xlink:href="#m48f62de8db" x="31.617609" y="97.968647" style="stroke: #000000; stroke-width: 0.6"/>
      </g>
     </g>
    </g>
    <g id="xtick_6">
     <g id="line2d_6">
      <g>
       <use xlink:href="#m48f62de8db" x="36.285669" y="97.968647" style="stroke: #000000; stroke-width: 0.6"/>
      </g>
     </g>
    </g>
    <g id="xtick_7">
     <g id="line2d_7">
      <g>
       <use xlink:href="#m48f62de8db" x="39.906498" y="97.968647" style="stroke: #000000; stroke-width: 0.6"/>
      </g>
     </g>
    </g>
    <g id="xtick_8">
     <g id="line2d_8">
      <g>
       <use xlink:href="#m48f62de8db" x="42.864931" y="97.968647" style="stroke: #000000; stroke-width: 0.6"/>
      </g>
     </g>
    </g>
    <g id="xtick_9">
     <g id="line2d_9">
      <g>
       <use xlink:href="#m48f62de8db" x="45.36625" y="97.968647" style="stroke: #000000; stroke-width: 0.6"/>
      </g>
     </g>
    </g>
    <g id="xtick_10">
     <g id="line2d_10">
      <g>
       <use xlink:href="#m48f62de8db" x="47.532991" y="97.968647" style="stroke: #000000; stroke-width: 0.6"/>
      </g>
     </g>
    </g>
    <g id="xtick_11">
     <g id="line2d_11">
      <g>
       <use xlink:href="#m48f62de8db" x="49.444192" y="97.968647" style="stroke: #000000; stroke-width: 0.6"/>
      </g>
     </g>
    </g>
    <g id="xtick_12">
     <g id="line2d_12">
      <g>
       <use xlink:href="#m48f62de8db" x="62.401142" y="97.968647" style="stroke: #000000; stroke-width: 0.6"/>
      </g>
     </g>
    </g>
    <g id="xtick_13">
     <g id="line2d_13">
      <g>
       <use xlink:href="#m48f62de8db" x="68.980404" y="97.968647" style="stroke: #000000; stroke-width: 0.6"/>
      </g>
     </g>
    </g>
    <g id="xtick_14">
     <g id="line2d_14">
      <g>
       <use xlink:href="#m48f62de8db" x="73.648464" y="97.968647" style="stroke: #000000; stroke-width: 0.6"/>
      </g>
     </g>
    </g>
    <g id="xtick_15">
     <g id="line2d_15">
      <g>
       <use xlink:href="#m48f62de8db" x="77.269293" y="97.968647" style="stroke: #000000; stroke-width: 0.6"/>
      </g>
     </g>
    </g>
    <g id="xtick_16">
     <g id="line2d_16">
      <g>
       <use xlink:href="#m48f62de8db" x="80.227726" y="97.968647" style="stroke: #000000; stroke-width: 0.6"/>
      </g>
     </g>
    </g>
    <g id="xtick_17">
     <g id="line2d_17">
      <g>
       <use xlink:href="#m48f62de8db" x="82.729045" y="97.968647" style="stroke: #000000; stroke-width: 0.6"/>
      </g>
     </g>
    </g>
    <g id="xtick_18">
     <g id="line2d_18">
      <g>
       <use xlink:href="#m48f62de8db" x="84.895786" y="97.968647" style="stroke: #000000; stroke-width: 0.6"/>
      </g>
     </g>
    </g>
    <g id="xtick_19">
     <g id="line2d_19">
      <g>
       <use xlink:href="#m48f62de8db" x="86.806987" y="97.968647" style="stroke: #000000; stroke-width: 0.6"/>
      </g>
     </g>
    </g>
    <g id="xtick_20">
     <g id="line2d_20">
      <g>
       <use xlink:href="#m48f62de8db" x="99.763937" y="97.968647" style="stroke: #000000; stroke-width: 0.6"/>
      </g>
     </g>
    </g>
    <g id="xtick_21">
     <g id="line2d_21">
      <g>
       <use xlink:href="#m48f62de8db" x="106.343199" y="97.968647" style="stroke: #000000; stroke-width: 0.6"/>
      </g>
     </g>
    </g>
    <g id="xtick_22">
     <g id="line2d_22">
      <g>
       <use xlink:href="#m48f62de8db" x="111.011259" y="97.968647" style="stroke: #000000; stroke-width: 0.6"/>
      </g>
     </g>
    </g>
    <g id="xtick_23">
     <g id="line2d_23">
      <g>
       <use xlink:href="#m48f62de8db" x="114.632088" y="97.968647" style="stroke: #000000; stroke-width: 0.6"/>
      </g>
     </g>
    </g>
    <g id="xtick_24">
     <g id="line2d_24">
      <g>
       <use xlink:href="#m48f62de8db" x="117.590521" y="97.968647" style="stroke: #000000; stroke-width: 0.6"/>
      </g>
     </g>
    </g>
    <g id="xtick_25">
     <g id="line2d_25">
      <g>
       <use xlink:href="#m48f62de8db" x="120.09184" y="97.968647" style="stroke: #000000; stroke-width: 0.6"/>
      </g>
     </g>
    </g>
    <g id="xtick_26">
     <g id="line2d_26">
      <g>
       <use xlink:href="#m48f62de8db" x="122.258581" y="97.968647" style="stroke: #000000; stroke-width: 0.6"/>
      </g>
     </g>
    </g>
    <g id="xtick_27">
     <g id="line2d_27">
      <g>
       <use xlink:href="#m48f62de8db" x="124.169782" y="97.968647" style="stroke: #000000; stroke-width: 0.6"/>
      </g>
     </g>
    </g>
    <g id="text_4">
     <!-- $N$ -->
     <g transform="translate(71.456531 119.742822) scale(0.1 -0.1)">
      <defs>
       <path id="CMMI12-4e" d="M 4736 3682 
C 4806 3956 4909 4147 5395 4166 
C 5414 4166 5491 4172 5491 4281 
C 5491 4352 5434 4352 5408 4352 
C 5280 4352 4954 4339 4826 4339 
L 4518 4339 
C 4429 4339 4314 4352 4224 4352 
C 4186 4352 4109 4352 4109 4230 
C 4109 4166 4160 4166 4205 4166 
C 4589 4153 4614 4007 4614 3892 
C 4614 3835 4608 3816 4589 3726 
L 3866 854 
L 2496 4243 
C 2451 4345 2445 4352 2304 4352 
L 1523 4352 
C 1395 4352 1338 4352 1338 4230 
C 1338 4166 1382 4166 1504 4166 
C 1536 4166 1914 4166 1914 4109 
C 1914 4096 1901 4045 1894 4026 
L 1043 650 
C 966 338 813 204 390 185 
C 358 185 294 179 294 64 
C 294 0 358 0 378 0 
C 506 0 832 12 960 12 
L 1267 12 
C 1357 12 1466 0 1555 0 
C 1600 0 1670 0 1670 121 
C 1670 179 1606 185 1581 185 
C 1370 191 1165 230 1165 459 
C 1165 510 1178 567 1190 618 
L 2054 4026 
C 2093 3962 2093 3949 2118 3892 
L 3642 115 
C 3674 38 3686 0 3744 0 
C 3808 0 3814 19 3840 128 
L 4736 3682 
z
" transform="scale(0.015625)"/>
      </defs>
      <use xlink:href="#CMMI12-4e" transform="scale(0.996264)"/>
     </g>
    </g>
   </g>
   <g id="matplotlib.axis_2">
    <g id="ytick_1">
     <g id="line2d_28">
      <defs>
       <path id="m1f977acbf2" d="M 0 0 
L -3.5 0 
" style="stroke: #000000; stroke-width: 0.8"/>
      </defs>
      <g>
       <use xlink:href="#m1f977acbf2" x="25.038347" y="97.968647" style="stroke: #000000; stroke-width: 0.8"/>
      </g>
     </g>
     <g id="text_5">
      <!-- $\mathdefault{0}$ -->
      <g transform="translate(15.557012 101.427896) scale(0.1 -0.1)">
       <use xlink:href="#CMR17-30" transform="scale(0.996264)"/>
      </g>
     </g>
    </g>
    <g id="ytick_2">
     <g id="line2d_29">
      <g>
       <use xlink:href="#m1f977acbf2" x="25.038347" y="67.578445" style="stroke: #000000; stroke-width: 0.8"/>
      </g>
     </g>
     <g id="text_6">
      <!-- $\mathdefault{5}$ -->
      <g transform="translate(15.557012 71.037694) scale(0.1 -0.1)">
       <defs>
        <path id="CMR17-35" d="M 730 3750 
C 794 3724 1056 3641 1325 3641 
C 1920 3641 2246 3961 2432 4140 
C 2432 4191 2432 4224 2394 4224 
C 2387 4224 2374 4224 2323 4198 
C 2099 4102 1837 4032 1517 4032 
C 1325 4032 1037 4055 723 4191 
C 653 4224 640 4224 634 4224 
C 602 4224 595 4217 595 4090 
L 595 2231 
C 595 2113 595 2080 659 2080 
C 691 2080 704 2093 736 2139 
C 941 2435 1222 2560 1542 2560 
C 1766 2560 2246 2415 2246 1293 
C 2246 1087 2246 716 2054 422 
C 1894 159 1645 25 1370 25 
C 947 25 518 319 403 812 
C 429 806 480 793 506 793 
C 589 793 749 838 749 1036 
C 749 1209 627 1280 506 1280 
C 358 1280 262 1190 262 1011 
C 262 454 704 -128 1382 -128 
C 2042 -128 2669 441 2669 1267 
C 2669 2054 2170 2662 1549 2662 
C 1222 2662 947 2540 730 2304 
L 730 3750 
z
" transform="scale(0.015625)"/>
       </defs>
       <use xlink:href="#CMR17-35" transform="scale(0.996264)"/>
      </g>
     </g>
    </g>
    <g id="ytick_3">
     <g id="line2d_30">
      <g>
       <use xlink:href="#m1f977acbf2" x="25.038347" y="37.188242" style="stroke: #000000; stroke-width: 0.8"/>
      </g>
     </g>
     <g id="text_7">
      <!-- $\mathdefault{10}$ -->
      <g transform="translate(10.575677 40.647492) scale(0.1 -0.1)">
       <use xlink:href="#CMR17-31" transform="scale(0.996264)"/>
       <use xlink:href="#CMR17-30" transform="translate(45.690477 0) scale(0.996264)"/>
      </g>
     </g>
    </g>
    <g id="ytick_4">
     <g id="line2d_31">
      <g>
       <use xlink:href="#m1f977acbf2" x="25.038347" y="6.79804" style="stroke: #000000; stroke-width: 0.8"/>
      </g>
     </g>
     <g id="text_8">
      <!-- $\mathdefault{15}$ -->
      <g transform="translate(10.575677 10.25729) scale(0.1 -0.1)">
       <use xlink:href="#CMR17-31" transform="scale(0.996264)"/>
       <use xlink:href="#CMR17-35" transform="translate(45.690477 0) scale(0.996264)"/>
      </g>
     </g>
    </g>
    <g id="text_9">
     <!-- $\mathcal{M}_{2}$ -->
     <g transform="translate(7.638498 57.312003) rotate(-90) scale(0.1 -0.1)">
      <defs>
       <path id="CMSY10-4d" d="M 2464 3603 
C 2637 2764 2918 1384 3283 636 
C 3424 359 3494 217 3558 217 
C 3584 217 3597 217 3712 333 
C 4198 804 4531 1178 4979 1694 
L 6381 3338 
C 6291 2790 6061 1339 6061 584 
C 6061 410 6067 243 6086 70 
C 6093 0 6118 -186 6387 -186 
C 6656 -186 7142 96 7142 224 
C 7142 262 7104 268 7085 268 
C 7002 268 6874 211 6803 166 
C 6650 185 6637 288 6624 436 
C 6605 642 6605 836 6605 862 
C 6605 1578 6886 3532 7072 4331 
C 7078 4376 7085 4389 7085 4441 
C 7085 4467 7078 4537 7034 4537 
C 7008 4537 7002 4531 6880 4389 
C 6278 3654 4410 1397 3776 855 
C 3616 1197 3501 1442 3277 2345 
C 3091 3074 2982 3609 2874 4235 
C 2854 4325 2822 4499 2822 4511 
C 2803 4544 2771 4544 2752 4544 
C 2637 4544 2368 4402 2349 4267 
C 2272 3725 2144 2874 1696 1642 
C 1184 268 1043 268 922 268 
C 838 268 602 320 461 449 
C 429 481 416 481 403 481 
C 314 481 173 192 173 12 
C 173 -45 173 -122 378 -231 
C 538 -314 691 -320 723 -320 
C 1120 -320 1498 597 1626 926 
C 1926 1655 2285 2674 2464 3603 
z
" transform="scale(0.015625)"/>
      </defs>
      <use xlink:href="#CMSY10-4d" transform="scale(0.996264)"/>
      <use xlink:href="#CMR17-32" transform="translate(119.641341 -14.943915) scale(0.697382)"/>
     </g>
    </g>
   </g>
   <g id="line2d_32">
    <path d="M 25.038347 99.001458 
L 36.285669 97.972927 
L 125.87941 97.968647 
L 125.87941 97.968647 
" clip-path="url(#pd2c4f24593)" style="fill: none; stroke: #542512; stroke-linecap: square"/>
   </g>
   <g id="line2d_33">
    <path d="M 25.038347 96.797742 
L 36.285669 82.145105 
L 42.864931 79.90427 
L 47.532991 79.745223 
L 91.475048 79.734525 
L 125.87941 79.734525 
L 125.87941 79.734525 
" clip-path="url(#pd2c4f24593)" style="fill: none; stroke: #7c3b0d; stroke-linecap: square"/>
   </g>
   <g id="line2d_34">
    <path d="M 25.038347 97.402724 
L 36.285669 85.922725 
L 42.864931 77.903384 
L 47.532991 71.611941 
L 51.15382 67.082509 
L 54.112253 64.073639 
L 56.613572 62.186773 
L 58.780313 61.045922 
L 60.691514 60.370739 
L 62.401142 59.976023 
L 65.359575 59.614485 
L 68.980404 59.468917 
L 79.108216 59.434807 
L 125.87941 59.434782 
L 125.87941 59.434782 
" clip-path="url(#pd2c4f24593)" style="fill: none; stroke: #a45009; stroke-linecap: square"/>
   </g>
   <g id="line2d_35">
    <path d="M 25.038347 97.968647 
L 36.285669 90.396361 
L 42.864931 82.568111 
L 47.532991 75.889991 
L 54.112253 65.793916 
L 56.613572 62.21963 
L 58.780313 59.616874 
L 60.691514 57.879346 
L 62.401142 56.806982 
L 63.947689 56.183096 
L 65.359575 55.833977 
L 67.860894 55.540213 
L 71.938836 55.431774 
L 95.73229 55.422364 
L 125.87941 55.422364 
L 125.87941 55.422364 
" clip-path="url(#pd2c4f24593)" style="fill: none; stroke: #cc6604; stroke-linecap: square"/>
   </g>
   <g id="line2d_36">
    <path d="M 25.038347 98.300981 
L 36.285669 92.96885 
L 42.864931 86.945714 
L 47.532991 81.053118 
L 51.15382 75.68784 
L 56.613572 66.76567 
L 62.401142 57.163158 
L 65.359575 52.678548 
L 67.860894 49.366754 
L 70.027635 46.97217 
L 71.938836 45.27308 
L 73.648464 44.085514 
L 75.195011 43.264808 
L 77.269293 42.49212 
L 79.108216 42.058626 
L 81.274957 41.763481 
L 84.484968 41.579138 
L 90.642739 41.519295 
L 125.87941 41.517555 
L 125.87941 41.517555 
" clip-path="url(#pd2c4f24593)" style="fill: none; stroke: #f47b00; stroke-linecap: square"/>
   </g>
   <g id="line2d_37">
    <path d="M 25.038347 96.797744 
L 36.285669 82.145111 
L 42.864931 77.636736 
L 51.15382 67.047346 
L 56.613572 61.24542 
L 58.780313 58.866625 
L 60.691514 57.045337 
L 63.947689 54.344745 
L 66.658384 50.762269 
L 68.980404 48.01654 
L 73.648464 42.995829 
L 77.269293 39.224927 
L 80.759788 35.347636 
L 86.442333 29.265915 
L 89.462113 25.961894 
L 93.021594 22.113699 
L 99.763937 14.84313 
L 113.696972 -0.204061 
L 114.450698 -1 
L 114.450698 -1 
" clip-path="url(#pd2c4f24593)" style="fill: none; stroke: #000000; stroke-linecap: square"/>
   </g>
   <g id="PathCollection_1">
    <defs>
     <path id="ma628f89aa6" d="M -1 -1.732051 
L -2 -0 
L -1 1.732051 
L 1 1.732051 
L 2 0 
L 1 -1.732051 
z
" style="stroke: #2c1016; stroke-width: 0.5"/>
    </defs>
    <g clip-path="url(#pd2c4f24593)">
     <use xlink:href="#ma628f89aa6" x="25.038347" y="97.968647" style="fill: #542512; stroke: #2c1016; stroke-width: 0.5"/>
     <use xlink:href="#ma628f89aa6" x="36.285669" y="97.968647" style="fill: #542512; stroke: #2c1016; stroke-width: 0.5"/>
     <use xlink:href="#ma628f89aa6" x="47.532991" y="97.968647" style="fill: #542512; stroke: #2c1016; stroke-width: 0.5"/>
     <use xlink:href="#ma628f89aa6" x="54.112253" y="97.968647" style="fill: #542512; stroke: #2c1016; stroke-width: 0.5"/>
     <use xlink:href="#ma628f89aa6" x="60.691514" y="97.968647" style="fill: #542512; stroke: #2c1016; stroke-width: 0.5"/>
     <use xlink:href="#ma628f89aa6" x="67.860894" y="97.968647" style="fill: #542512; stroke: #2c1016; stroke-width: 0.5"/>
     <use xlink:href="#ma628f89aa6" x="74.440156" y="97.968647" style="fill: #542512; stroke: #2c1016; stroke-width: 0.5"/>
     <use xlink:href="#ma628f89aa6" x="81.274957" y="97.968647" style="fill: #542512; stroke: #2c1016; stroke-width: 0.5"/>
    </g>
   </g>
   <g id="PathCollection_2">
    <defs>
     <path id="mc96044e398" d="M -1 -1.732051 
L -2 -0 
L -1 1.732051 
L 1 1.732051 
L 2 0 
L 1 -1.732051 
z
" style="stroke: #2c1016; stroke-width: 0.5"/>
    </defs>
    <g clip-path="url(#pd2c4f24593)">
     <use xlink:href="#mc96044e398" x="25.038347" y="95.446034" style="fill: #7c3b0d; stroke: #2c1016; stroke-width: 0.5"/>
     <use xlink:href="#mc96044e398" x="36.285669" y="86.845377" style="fill: #7c3b0d; stroke: #2c1016; stroke-width: 0.5"/>
     <use xlink:href="#mc96044e398" x="47.532991" y="80.394108" style="fill: #7c3b0d; stroke: #2c1016; stroke-width: 0.5"/>
     <use xlink:href="#mc96044e398" x="54.112253" y="79.777149" style="fill: #7c3b0d; stroke: #2c1016; stroke-width: 0.5"/>
     <use xlink:href="#mc96044e398" x="60.691514" y="79.734987" style="fill: #7c3b0d; stroke: #2c1016; stroke-width: 0.5"/>
     <use xlink:href="#mc96044e398" x="67.860894" y="79.734014" style="fill: #7c3b0d; stroke: #2c1016; stroke-width: 0.5"/>
     <use xlink:href="#mc96044e398" x="74.440156" y="79.73336" style="fill: #7c3b0d; stroke: #2c1016; stroke-width: 0.5"/>
     <use xlink:href="#mc96044e398" x="81.274957" y="79.731797" style="fill: #7c3b0d; stroke: #2c1016; stroke-width: 0.5"/>
    </g>
   </g>
   <g id="PathCollection_3">
    <defs>
     <path id="me6c8b72b48" d="M -1 -1.732051 
L -2 -0 
L -1 1.732051 
L 1 1.732051 
L 2 0 
L 1 -1.732051 
z
" style="stroke: #2c1016; stroke-width: 0.5"/>
    </defs>
    <g clip-path="url(#pd2c4f24593)">
     <use xlink:href="#me6c8b72b48" x="25.038347" y="96.149131" style="fill: #a45009; stroke: #2c1016; stroke-width: 0.5"/>
     <use xlink:href="#me6c8b72b48" x="36.285669" y="88.247166" style="fill: #a45009; stroke: #2c1016; stroke-width: 0.5"/>
     <use xlink:href="#me6c8b72b48" x="47.532991" y="75.646881" style="fill: #a45009; stroke: #2c1016; stroke-width: 0.5"/>
     <use xlink:href="#me6c8b72b48" x="54.112253" y="67.976305" style="fill: #a45009; stroke: #2c1016; stroke-width: 0.5"/>
     <use xlink:href="#me6c8b72b48" x="60.691514" y="62.383829" style="fill: #a45009; stroke: #2c1016; stroke-width: 0.5"/>
     <use xlink:href="#me6c8b72b48" x="67.860894" y="59.845195" style="fill: #a45009; stroke: #2c1016; stroke-width: 0.5"/>
     <use xlink:href="#me6c8b72b48" x="74.440156" y="59.457128" style="fill: #a45009; stroke: #2c1016; stroke-width: 0.5"/>
     <use xlink:href="#me6c8b72b48" x="81.274957" y="59.433807" style="fill: #a45009; stroke: #2c1016; stroke-width: 0.5"/>
    </g>
   </g>
   <g id="PathCollection_4">
    <defs>
     <path id="m710050e304" d="M -1 -1.732051 
L -2 -0 
L -1 1.732051 
L 1 1.732051 
L 2 0 
L 1 -1.732051 
z
" style="stroke: #2c1016; stroke-width: 0.5"/>
    </defs>
    <g clip-path="url(#pd2c4f24593)">
     <use xlink:href="#m710050e304" x="25.038347" y="96.796758" style="fill: #cc6604; stroke: #2c1016; stroke-width: 0.5"/>
     <use xlink:href="#m710050e304" x="36.285669" y="91.246093" style="fill: #cc6604; stroke: #2c1016; stroke-width: 0.5"/>
     <use xlink:href="#m710050e304" x="47.532991" y="78.076589" style="fill: #cc6604; stroke: #2c1016; stroke-width: 0.5"/>
     <use xlink:href="#m710050e304" x="54.112253" y="68.429459" style="fill: #cc6604; stroke: #2c1016; stroke-width: 0.5"/>
     <use xlink:href="#m710050e304" x="60.691514" y="59.474851" style="fill: #cc6604; stroke: #2c1016; stroke-width: 0.5"/>
     <use xlink:href="#m710050e304" x="67.860894" y="55.706402" style="fill: #cc6604; stroke: #2c1016; stroke-width: 0.5"/>
     <use xlink:href="#m710050e304" x="74.440156" y="55.427201" style="fill: #cc6604; stroke: #2c1016; stroke-width: 0.5"/>
     <use xlink:href="#m710050e304" x="81.274957" y="55.421691" style="fill: #cc6604; stroke: #2c1016; stroke-width: 0.5"/>
    </g>
   </g>
   <g id="PathCollection_5">
    <defs>
     <path id="m1df99e0028" d="M -1 -1.732051 
L -2 -0 
L -1 1.732051 
L 1 1.732051 
L 2 0 
L 1 -1.732051 
z
" style="stroke: #2c1016; stroke-width: 0.5"/>
    </defs>
    <g clip-path="url(#pd2c4f24593)">
     <use xlink:href="#m1df99e0028" x="25.038347" y="97.175823" style="fill: #f47b00; stroke: #2c1016; stroke-width: 0.5"/>
     <use xlink:href="#m1df99e0028" x="36.285669" y="93.330266" style="fill: #f47b00; stroke: #2c1016; stroke-width: 0.5"/>
     <use xlink:href="#m1df99e0028" x="47.532991" y="81.980356" style="fill: #f47b00; stroke: #2c1016; stroke-width: 0.5"/>
     <use xlink:href="#m1df99e0028" x="54.112253" y="72.1191" style="fill: #f47b00; stroke: #2c1016; stroke-width: 0.5"/>
     <use xlink:href="#m1df99e0028" x="60.691514" y="61.332784" style="fill: #f47b00; stroke: #2c1016; stroke-width: 0.5"/>
     <use xlink:href="#m1df99e0028" x="67.860894" y="50.764298" style="fill: #f47b00; stroke: #2c1016; stroke-width: 0.5"/>
     <use xlink:href="#m1df99e0028" x="74.440156" y="44.447949" style="fill: #f47b00; stroke: #2c1016; stroke-width: 0.5"/>
     <use xlink:href="#m1df99e0028" x="81.274957" y="41.944147" style="fill: #f47b00; stroke: #2c1016; stroke-width: 0.5"/>
    </g>
   </g>
   <g id="PathCollection_6">
    <defs>
     <path id="maa0fd8d9c1" d="M -1 -1.732051 
L -2 -0 
L -1 1.732051 
L 1 1.732051 
L 2 0 
L 1 -1.732051 
z
" style="stroke: #2c1016; stroke-width: 0.5"/>
    </defs>
    <g clip-path="url(#pd2c4f24593)">
     <use xlink:href="#maa0fd8d9c1" x="25.038347" y="95.446034" style="stroke: #2c1016; stroke-width: 0.5"/>
     <use xlink:href="#maa0fd8d9c1" x="36.285669" y="86.845377" style="stroke: #2c1016; stroke-width: 0.5"/>
     <use xlink:href="#maa0fd8d9c1" x="47.532991" y="75.61112" style="stroke: #2c1016; stroke-width: 0.5"/>
     <use xlink:href="#maa0fd8d9c1" x="54.112253" y="67.62052" style="stroke: #2c1016; stroke-width: 0.5"/>
     <use xlink:href="#maa0fd8d9c1" x="60.691514" y="58.891931" style="stroke: #2c1016; stroke-width: 0.5"/>
     <use xlink:href="#maa0fd8d9c1" x="67.860894" y="50.432091" style="stroke: #2c1016; stroke-width: 0.5"/>
     <use xlink:href="#maa0fd8d9c1" x="74.440156" y="42.924594" style="stroke: #2c1016; stroke-width: 0.5"/>
     <use xlink:href="#maa0fd8d9c1" x="81.274957" y="35.220116" style="stroke: #2c1016; stroke-width: 0.5"/>
    </g>
   </g>
   <g id="patch_3">
    <path d="M 25.038347 97.968647 
L 25.038347 0.72 
" style="fill: none; stroke: #000000; stroke-width: 0.8; stroke-linejoin: miter; stroke-linecap: square"/>
   </g>
   <g id="patch_4">
    <path d="M 125.87941 97.968647 
L 125.87941 0.72 
" style="fill: none; stroke: #000000; stroke-width: 0.8; stroke-linejoin: miter; stroke-linecap: square"/>
   </g>
   <g id="patch_5">
    <path d="M 25.038347 97.968647 
L 125.87941 97.968647 
" style="fill: none; stroke: #000000; stroke-width: 0.8; stroke-linejoin: miter; stroke-linecap: square"/>
   </g>
   <g id="patch_6">
    <path d="M 25.038347 0.72 
L 125.87941 0.72 
" style="fill: none; stroke: #000000; stroke-width: 0.8; stroke-linejoin: miter; stroke-linecap: square"/>
   </g>
   <g id="text_10">
    <!-- $n = 2$ -->
    <g style="fill: #542512" transform="translate(98.054428 96.031468) scale(0.1 -0.1)">
     <defs>
      <path id="CMMI12-6e" d="M 1318 1870 
C 1331 1909 1491 2228 1728 2432 
C 1894 2585 2112 2687 2362 2687 
C 2618 2687 2707 2496 2707 2241 
C 2707 1877 2445 1149 2317 804 
C 2259 651 2227 568 2227 453 
C 2227 166 2426 -64 2733 -64 
C 3328 -64 3552 874 3552 913 
C 3552 945 3526 970 3488 970 
C 3430 970 3424 951 3392 842 
C 3245 319 3002 64 2752 64 
C 2688 64 2586 70 2586 274 
C 2586 434 2656 625 2694 715 
C 2822 1066 3091 1781 3091 2145 
C 3091 2528 2867 2816 2381 2816 
C 1811 2816 1510 2413 1395 2253 
C 1376 2617 1114 2816 832 2816 
C 627 2816 486 2694 378 2477 
C 262 2247 173 1864 173 1838 
C 173 1813 198 1781 243 1781 
C 294 1781 301 1787 339 1934 
C 442 2324 557 2687 813 2687 
C 960 2687 1011 2585 1011 2394 
C 1011 2253 947 2004 902 1807 
L 723 1117 
C 698 996 627 708 595 593 
C 550 427 480 127 480 95 
C 480 6 550 -64 646 -64 
C 723 -64 813 -26 864 70 
C 877 102 934 325 966 453 
L 1107 1028 
L 1318 1870 
z
" transform="scale(0.015625)"/>
      <path id="CMR17-3d" d="M 4115 2048 
C 4211 2048 4307 2048 4307 2156 
C 4307 2272 4198 2272 4090 2272 
L 512 2272 
C 403 2272 294 2272 294 2156 
C 294 2048 390 2048 486 2048 
L 4115 2048 
z
M 4090 927 
C 4198 927 4307 927 4307 1043 
C 4307 1152 4211 1152 4115 1152 
L 486 1152 
C 390 1152 294 1152 294 1043 
C 294 927 403 927 512 927 
L 4090 927 
z
" transform="scale(0.015625)"/>
     </defs>
     <use xlink:href="#CMMI12-6e" transform="scale(0.996264)"/>
     <use xlink:href="#CMR17-3d" transform="translate(85.904056 0) scale(0.996264)"/>
     <use xlink:href="#CMR17-32" transform="translate(185.292853 0) scale(0.996264)"/>
    </g>
   </g>
   <g id="text_11">
    <!-- $n = 4$ -->
    <g style="fill: #7c3b0d" transform="translate(98.054428 77.797347) scale(0.1 -0.1)">
     <defs>
      <path id="CMR17-34" d="M 2150 4147 
C 2150 4281 2144 4288 2029 4288 
L 128 1254 
L 128 1088 
L 1779 1088 
L 1779 460 
C 1779 230 1766 166 1318 166 
L 1197 166 
L 1197 0 
C 1402 12 1747 12 1965 12 
C 2182 12 2528 12 2733 0 
L 2733 166 
L 2611 166 
C 2163 166 2150 230 2150 460 
L 2150 1088 
L 2803 1088 
L 2803 1254 
L 2150 1254 
L 2150 4147 
z
M 1798 3723 
L 1798 1254 
L 256 1254 
L 1798 3723 
z
" transform="scale(0.015625)"/>
     </defs>
     <use xlink:href="#CMMI12-6e" transform="scale(0.996264)"/>
     <use xlink:href="#CMR17-3d" transform="translate(85.904056 0) scale(0.996264)"/>
     <use xlink:href="#CMR17-34" transform="translate(185.292853 0) scale(0.996264)"/>
    </g>
   </g>
   <g id="text_12">
    <!-- $n = 6$ -->
    <g style="fill: #a45009" transform="translate(98.054428 66.35328) scale(0.1 -0.1)">
     <defs>
      <path id="CMR17-36" d="M 678 2198 
C 678 3712 1395 4076 1811 4076 
C 1946 4076 2272 4049 2400 3782 
C 2298 3782 2106 3782 2106 3558 
C 2106 3385 2246 3328 2336 3328 
C 2394 3328 2566 3353 2566 3571 
C 2566 3987 2246 4224 1805 4224 
C 1043 4224 243 3411 243 2011 
C 243 257 966 -128 1478 -128 
C 2099 -128 2688 431 2688 1295 
C 2688 2101 2170 2688 1517 2688 
C 1126 2688 838 2430 678 1979 
L 678 2198 
z
M 1478 25 
C 691 25 691 1212 691 1450 
C 691 1914 909 2585 1504 2585 
C 1613 2585 1926 2585 2138 2140 
C 2253 1889 2253 1624 2253 1302 
C 2253 954 2253 696 2118 438 
C 1978 173 1773 25 1478 25 
z
" transform="scale(0.015625)"/>
     </defs>
     <use xlink:href="#CMMI12-6e" transform="scale(0.996264)"/>
     <use xlink:href="#CMR17-3d" transform="translate(85.904056 0) scale(0.996264)"/>
     <use xlink:href="#CMR17-36" transform="translate(185.292853 0) scale(0.996264)"/>
    </g>
   </g>
   <g id="text_13">
    <!-- $n = 8$ -->
    <g style="fill: #cc6604" transform="translate(98.054428 53.485185) scale(0.1 -0.1)">
     <defs>
      <path id="CMR17-38" d="M 1741 2289 
C 2144 2494 2554 2803 2554 3298 
C 2554 3884 1990 4224 1472 4224 
C 890 4224 378 3800 378 3215 
C 378 3054 416 2777 666 2533 
C 730 2469 998 2276 1171 2154 
C 883 2006 211 1652 211 945 
C 211 282 838 -128 1459 -128 
C 2144 -128 2720 366 2720 1022 
C 2720 1607 2330 1877 2074 2051 
L 1741 2289 
z
M 902 2855 
C 851 2887 595 3086 595 3388 
C 595 3781 998 4076 1459 4076 
C 1965 4076 2336 3716 2336 3298 
C 2336 2700 1670 2359 1638 2359 
C 1632 2359 1626 2359 1574 2398 
L 902 2855 
z
M 2080 1536 
C 2176 1466 2483 1253 2483 861 
C 2483 385 2010 25 1472 25 
C 890 25 448 443 448 951 
C 448 1459 838 1884 1280 2083 
L 2080 1536 
z
" transform="scale(0.015625)"/>
     </defs>
     <use xlink:href="#CMMI12-6e" transform="scale(0.996264)"/>
     <use xlink:href="#CMR17-3d" transform="translate(85.904056 0) scale(0.996264)"/>
     <use xlink:href="#CMR17-38" transform="translate(185.292853 0) scale(0.996264)"/>
    </g>
   </g>
   <g id="text_14">
    <!-- $n = 10$ -->
    <g style="fill: #f47b00" transform="translate(93.073092 39.580377) scale(0.1 -0.1)">
     <use xlink:href="#CMMI12-6e" transform="scale(0.996264)"/>
     <use xlink:href="#CMR17-3d" transform="translate(85.904056 0) scale(0.996264)"/>
     <use xlink:href="#CMR17-31" transform="translate(185.292853 0) scale(0.996264)"/>
     <use xlink:href="#CMR17-30" transform="translate(230.98333 0) scale(0.996264)"/>
    </g>
   </g>
   <g id="text_15">
    <!-- $\max(\mathcal{M}_{2})$ -->
    <g transform="translate(45.464917 25.117478) scale(0.1 -0.1)">
     <defs>
      <path id="CMR17-6d" d="M 4326 1954 
C 4326 2276 4269 2816 3507 2816 
C 3072 2816 2771 2520 2656 2173 
L 2650 2173 
C 2573 2700 2195 2816 1837 2816 
C 1331 2816 1069 2424 973 2166 
L 966 2166 
L 966 2816 
L 211 2745 
L 211 2578 
C 589 2578 646 2540 646 2231 
L 646 443 
C 646 198 621 166 211 166 
L 211 0 
C 365 12 646 12 813 12 
C 979 12 1267 12 1421 0 
L 1421 166 
C 1011 166 986 192 986 443 
L 986 1678 
C 986 2269 1344 2713 1792 2713 
C 2266 2713 2317 2289 2317 1980 
L 2317 443 
C 2317 198 2291 166 1882 166 
L 1882 0 
C 2035 12 2317 12 2483 12 
C 2650 12 2938 12 3091 0 
L 3091 166 
C 2682 166 2656 192 2656 443 
L 2656 1678 
C 2656 2269 3014 2713 3462 2713 
C 3936 2713 3987 2289 3987 1980 
L 3987 443 
C 3987 198 3962 166 3552 166 
L 3552 0 
C 3706 12 3987 12 4154 12 
C 4320 12 4608 12 4762 0 
L 4762 166 
C 4352 166 4326 192 4326 443 
L 4326 1954 
z
" transform="scale(0.015625)"/>
      <path id="CMR17-61" d="M 2304 1656 
C 2304 2048 2304 2275 2035 2534 
C 1798 2751 1523 2816 1306 2816 
C 800 2816 435 2408 435 1977 
C 435 1740 627 1728 666 1728 
C 749 1728 896 1779 896 1958 
C 896 2118 774 2188 666 2188 
C 640 2188 608 2182 589 2176 
C 723 2594 1069 2713 1293 2713 
C 1613 2713 1965 2421 1965 1875 
L 1965 1632 
C 1587 1619 1133 1568 774 1373 
C 371 1147 256 822 256 576 
C 256 77 832 -64 1171 -64 
C 1523 -64 1850 135 1990 505 
C 2003 219 2182 -39 2464 -39 
C 2598 -39 2938 51 2938 563 
L 2938 926 
L 2822 926 
L 2822 557 
C 2822 161 2650 109 2566 109 
C 2304 109 2304 446 2304 732 
L 2304 1656 
z
M 1965 887 
C 1965 323 1568 38 1216 38 
C 896 38 646 278 646 576 
C 646 771 730 1114 1101 1322 
C 1408 1497 1760 1523 1965 1536 
L 1965 887 
z
" transform="scale(0.015625)"/>
      <path id="CMR17-78" d="M 1664 1491 
C 1856 1740 2074 2022 2253 2233 
C 2464 2476 2707 2579 2989 2585 
L 2989 2752 
C 2880 2745 2656 2739 2541 2739 
C 2368 2739 2170 2739 2022 2752 
L 2022 2585 
C 2112 2572 2163 2508 2163 2419 
C 2163 2304 2099 2233 2067 2188 
L 1594 1587 
L 1030 2323 
C 973 2393 973 2406 973 2438 
C 973 2515 1037 2579 1146 2585 
L 1146 2752 
C 992 2739 717 2739 557 2739 
C 384 2739 179 2739 38 2752 
L 38 2585 
C 384 2585 461 2560 614 2368 
L 1350 1414 
C 1363 1401 1395 1363 1395 1344 
C 1395 1318 838 633 768 544 
C 480 198 179 172 6 166 
L 6 0 
C 115 6 339 12 454 12 
C 582 12 864 12 979 0 
L 979 166 
C 941 172 838 185 838 332 
C 838 448 890 518 947 595 
L 1478 1248 
L 2035 524 
C 2086 454 2163 358 2163 313 
C 2163 224 2086 172 1984 166 
L 1984 0 
C 2138 12 2413 12 2573 12 
C 2746 12 2950 12 3091 0 
L 3091 166 
C 2771 166 2675 179 2522 377 
L 1664 1491 
z
" transform="scale(0.015625)"/>
      <path id="CMR17-28" d="M 1958 -1562 
C 1958 -1556 1958 -1543 1939 -1524 
C 1645 -1223 858 -403 858 1596 
C 858 3595 1632 4408 1946 4729 
C 1946 4735 1958 4748 1958 4767 
C 1958 4787 1939 4800 1914 4800 
C 1843 4800 1299 4325 986 3620 
C 666 2909 576 2218 576 1603 
C 576 1141 621 360 1005 -467 
C 1312 -1133 1837 -1600 1914 -1600 
C 1946 -1600 1958 -1588 1958 -1562 
z
" transform="scale(0.015625)"/>
      <path id="CMR17-29" d="M 1683 1596 
C 1683 2057 1638 2839 1254 3665 
C 947 4332 422 4800 346 4800 
C 326 4800 301 4793 301 4761 
C 301 4748 307 4742 314 4729 
C 621 4408 1402 3595 1402 1603 
C 1402 -396 627 -1210 314 -1530 
C 307 -1543 301 -1549 301 -1562 
C 301 -1594 326 -1600 346 -1600 
C 416 -1600 960 -1127 1274 -422 
C 1594 289 1683 981 1683 1596 
z
" transform="scale(0.015625)"/>
     </defs>
     <use xlink:href="#CMR17-6d" transform="scale(0.996264)"/>
     <use xlink:href="#CMR17-61" transform="translate(76.91959 0) scale(0.996264)"/>
     <use xlink:href="#CMR17-78" transform="translate(122.610067 0) scale(0.996264)"/>
     <use xlink:href="#CMR17-28" transform="translate(170.902983 0) scale(0.996264)"/>
     <use xlink:href="#CMSY10-4d" transform="translate(206.183751 0) scale(0.996264)"/>
     <use xlink:href="#CMR17-32" transform="translate(325.825092 -14.943915) scale(0.697382)"/>
     <use xlink:href="#CMR17-29" transform="translate(358.306406 0) scale(0.996264)"/>
    </g>
   </g>
  </g>
  <g id="axes_2">
   <g id="patch_7">
    <path d="M 138.762651 97.968647 
L 239.603714 97.968647 
L 239.603714 0.72 
L 138.762651 0.72 
z
" style="fill: #ffffff"/>
   </g>
   <g id="PathCollection_7">
    <defs>
     <path id="C0_0_edaec1b38c" d="M -1 -1.732051 
L -2 -0 
L -1 1.732051 
L 1 1.732051 
L 2 0 
L 1 -1.732051 
z
"/>
    </defs>
    <g clip-path="url(#p194396b5ac)">
     <use xlink:href="#C0_0_edaec1b38c" x="138.762651" y="97.968647" style="fill: #542512; stroke: #542512"/>
    </g>
    <g clip-path="url(#p194396b5ac)">
     <use xlink:href="#C0_0_edaec1b38c" x="163.972916" y="79.734525" style="fill: #7c3b0d; stroke: #7c3b0d"/>
    </g>
    <g clip-path="url(#p194396b5ac)">
     <use xlink:href="#C0_0_edaec1b38c" x="178.719976" y="59.434782" style="fill: #a45009; stroke: #a45009"/>
    </g>
    <g clip-path="url(#p194396b5ac)">
     <use xlink:href="#C0_0_edaec1b38c" x="189.183182" y="55.422364" style="fill: #cc6604; stroke: #cc6604"/>
    </g>
    <g clip-path="url(#p194396b5ac)">
     <use xlink:href="#C0_0_edaec1b38c" x="197.299075" y="41.517555" style="fill: #f47b00; stroke: #f47b00"/>
    </g>
    <g clip-path="url(#p194396b5ac)">
     <use xlink:href="#C0_0_edaec1b38c" x="203.930242" y="41.200661" style="stroke: #000000"/>
    </g>
    <g clip-path="url(#p194396b5ac)">
     <use xlink:href="#C0_0_edaec1b38c" x="209.536814" y="29.71578" style="stroke: #000000"/>
    </g>
    <g clip-path="url(#p194396b5ac)">
     <use xlink:href="#C0_0_edaec1b38c" x="214.393448" y="31.110202" style="stroke: #000000"/>
    </g>
    <g clip-path="url(#p194396b5ac)">
     <use xlink:href="#C0_0_edaec1b38c" x="218.677302" y="20.900918" style="stroke: #000000"/>
    </g>
    <g clip-path="url(#p194396b5ac)">
     <use xlink:href="#C0_0_edaec1b38c" x="222.509341" y="23.283434" style="stroke: #000000"/>
    </g>
    <g clip-path="url(#p194396b5ac)">
     <use xlink:href="#C0_0_edaec1b38c" x="225.975841" y="13.862386" style="stroke: #000000"/>
    </g>
    <g clip-path="url(#p194396b5ac)">
     <use xlink:href="#C0_0_edaec1b38c" x="229.140508" y="16.888499" style="stroke: #000000"/>
    </g>
    <g clip-path="url(#p194396b5ac)">
     <use xlink:href="#C0_0_edaec1b38c" x="232.051719" y="8.003021" style="stroke: #000000"/>
    </g>
    <g clip-path="url(#p194396b5ac)">
     <use xlink:href="#C0_0_edaec1b38c" x="234.74708" y="11.481659" style="stroke: #000000"/>
    </g>
    <g clip-path="url(#p194396b5ac)">
     <use xlink:href="#C0_0_edaec1b38c" x="237.256401" y="2.986102" style="stroke: #000000"/>
    </g>
    <g clip-path="url(#p194396b5ac)">
     <use xlink:href="#C0_0_edaec1b38c" x="239.603714" y="6.798044" style="stroke: #000000"/>
    </g>
    <g clip-path="url(#p194396b5ac)">
     <use xlink:href="#C0_0_edaec1b38c" x="241.808675" y="-1.379011" style="stroke: #000000"/>
    </g>
    <g clip-path="url(#p194396b5ac)">
     <use xlink:href="#C0_0_edaec1b38c" x="243.887568" y="2.667028" style="stroke: #000000"/>
    </g>
    <g clip-path="url(#p194396b5ac)">
     <use xlink:href="#C0_0_edaec1b38c" x="245.854032" y="-5.157228" style="stroke: #000000"/>
    </g>
    <g clip-path="url(#p194396b5ac)">
     <use xlink:href="#C0_0_edaec1b38c" x="247.719606" y="-1.024505" style="stroke: #000000"/>
    </g>
    <g clip-path="url(#p194396b5ac)">
     <use xlink:href="#C0_0_edaec1b38c" x="249.49414" y="-8.299468" style="stroke: #000000"/>
    </g>
    <g clip-path="url(#p194396b5ac)">
     <use xlink:href="#C0_0_edaec1b38c" x="251.186107" y="-4.335668" style="stroke: #000000"/>
    </g>
    <g clip-path="url(#p194396b5ac)">
     <use xlink:href="#C0_0_edaec1b38c" x="252.80285" y="-10.700813" style="stroke: #000000"/>
    </g>
    <g clip-path="url(#p194396b5ac)">
     <use xlink:href="#C0_0_edaec1b38c" x="254.350774" y="-7.240485" style="stroke: #000000"/>
    </g>
    <g clip-path="url(#p194396b5ac)">
     <use xlink:href="#C0_0_edaec1b38c" x="255.835499" y="-12.281671" style="stroke: #000000"/>
    </g>
    <g clip-path="url(#p194396b5ac)">
     <use xlink:href="#C0_0_edaec1b38c" x="257.261985" y="-9.592863" style="stroke: #000000"/>
    </g>
    <g clip-path="url(#p194396b5ac)">
     <use xlink:href="#C0_0_edaec1b38c" x="258.634628" y="-13.040924" style="stroke: #000000"/>
    </g>
    <g clip-path="url(#p194396b5ac)">
     <use xlink:href="#C0_0_edaec1b38c" x="259.957346" y="-11.165153" style="stroke: #000000"/>
    </g>
    <g clip-path="url(#p194396b5ac)">
     <use xlink:href="#C0_0_edaec1b38c" x="261.233642" y="-13.061485" style="stroke: #000000"/>
    </g>
    <g clip-path="url(#p194396b5ac)">
     <use xlink:href="#C0_0_edaec1b38c" x="262.466666" y="-11.800056" style="stroke: #000000"/>
    </g>
    <g clip-path="url(#p194396b5ac)">
     <use xlink:href="#C0_0_edaec1b38c" x="263.659256" y="-12.482385" style="stroke: #000000"/>
    </g>
    <g clip-path="url(#p194396b5ac)">
     <use xlink:href="#C0_0_edaec1b38c" x="264.813979" y="-11.551795" style="stroke: #000000"/>
    </g>
    <g clip-path="url(#p194396b5ac)">
     <use xlink:href="#C0_0_edaec1b38c" x="265.933167" y="-11.461572" style="stroke: #000000"/>
    </g>
    <g clip-path="url(#p194396b5ac)">
     <use xlink:href="#C0_0_edaec1b38c" x="267.018941" y="-10.650195" style="stroke: #000000"/>
    </g>
    <g clip-path="url(#p194396b5ac)">
     <use xlink:href="#C0_0_edaec1b38c" x="268.073239" y="-10.14639" style="stroke: #000000"/>
    </g>
    <g clip-path="url(#p194396b5ac)">
     <use xlink:href="#C0_0_edaec1b38c" x="269.097834" y="-9.353675" style="stroke: #000000"/>
    </g>
    <g clip-path="url(#p194396b5ac)">
     <use xlink:href="#C0_0_edaec1b38c" x="270.094354" y="-8.657456" style="stroke: #000000"/>
    </g>
    <g clip-path="url(#p194396b5ac)">
     <use xlink:href="#C0_0_edaec1b38c" x="271.064298" y="-7.856773" style="stroke: #000000"/>
    </g>
    <g clip-path="url(#p194396b5ac)">
     <use xlink:href="#C0_0_edaec1b38c" x="272.009045" y="-7.084167" style="stroke: #000000"/>
    </g>
    <g clip-path="url(#p194396b5ac)">
     <use xlink:href="#C0_0_edaec1b38c" x="272.929872" y="-6.280013" style="stroke: #000000"/>
    </g>
    <g clip-path="url(#p194396b5ac)">
     <use xlink:href="#C0_0_edaec1b38c" x="273.82796" y="-5.487419" style="stroke: #000000"/>
    </g>
    <g clip-path="url(#p194396b5ac)">
     <use xlink:href="#C0_0_edaec1b38c" x="274.704406" y="-4.691335" style="stroke: #000000"/>
    </g>
    <g clip-path="url(#p194396b5ac)">
     <use xlink:href="#C0_0_edaec1b38c" x="275.560227" y="-3.905477" style="stroke: #000000"/>
    </g>
    <g clip-path="url(#p194396b5ac)">
     <use xlink:href="#C0_0_edaec1b38c" x="276.396372" y="-3.127009" style="stroke: #000000"/>
    </g>
    <g clip-path="url(#p194396b5ac)">
     <use xlink:href="#C0_0_edaec1b38c" x="277.213727" y="-2.36031" style="stroke: #000000"/>
    </g>
    <g clip-path="url(#p194396b5ac)">
     <use xlink:href="#C0_0_edaec1b38c" x="278.013115" y="-1.605205" style="stroke: #000000"/>
    </g>
    <g clip-path="url(#p194396b5ac)">
     <use xlink:href="#C0_0_edaec1b38c" x="278.795312" y="-0.863044" style="stroke: #000000"/>
    </g>
    <g clip-path="url(#p194396b5ac)">
     <use xlink:href="#C0_0_edaec1b38c" x="279.561039" y="-0.133907" style="stroke: #000000"/>
    </g>
    <g clip-path="url(#p194396b5ac)">
     <use xlink:href="#C0_0_edaec1b38c" x="280.310978" y="0.581918" style="stroke: #000000"/>
    </g>
    <g clip-path="url(#p194396b5ac)">
     <use xlink:href="#C0_0_edaec1b38c" x="281.045765" y="1.284529" style="stroke: #000000"/>
    </g>
   </g>
   <g id="matplotlib.axis_3">
    <g id="xtick_28">
     <g id="line2d_38">
      <g>
       <use xlink:href="#m78aed704de" x="138.762651" y="97.968647" style="stroke: #000000; stroke-width: 0.8"/>
      </g>
     </g>
     <g id="text_16">
      <!-- $\mathdefault{2^{1}}$ -->
      <g transform="translate(134.286364 109.887145) scale(0.1 -0.1)">
       <use xlink:href="#CMR17-32" transform="scale(0.996264)"/>
       <use xlink:href="#CMR17-31" transform="translate(45.690477 36.153639) scale(0.697382)"/>
      </g>
     </g>
    </g>
    <g id="xtick_29">
     <g id="line2d_39">
      <g>
       <use xlink:href="#m78aed704de" x="189.183182" y="97.968647" style="stroke: #000000; stroke-width: 0.8"/>
      </g>
     </g>
     <g id="text_17">
      <!-- $\mathdefault{2^{3}}$ -->
      <g transform="translate(184.706896 109.887145) scale(0.1 -0.1)">
       <use xlink:href="#CMR17-32" transform="scale(0.996264)"/>
       <use xlink:href="#CMR17-33" transform="translate(45.690477 36.153639) scale(0.697382)"/>
      </g>
     </g>
    </g>
    <g id="xtick_30">
     <g id="line2d_40">
      <g>
       <use xlink:href="#m78aed704de" x="239.603714" y="97.968647" style="stroke: #000000; stroke-width: 0.8"/>
      </g>
     </g>
     <g id="text_18">
      <!-- $\mathdefault{2^{5}}$ -->
      <g transform="translate(235.127427 109.887145) scale(0.1 -0.1)">
       <use xlink:href="#CMR17-32" transform="scale(0.996264)"/>
       <use xlink:href="#CMR17-35" transform="translate(45.690477 36.153639) scale(0.697382)"/>
      </g>
     </g>
    </g>
    <g id="text_19">
     <!-- $n$ -->
     <g transform="translate(186.19322 119.742822) scale(0.1 -0.1)">
      <use xlink:href="#CMMI12-6e" transform="scale(0.996264)"/>
     </g>
    </g>
   </g>
   <g id="matplotlib.axis_4">
    <g id="ytick_5">
     <g id="line2d_41">
      <g>
       <use xlink:href="#m1f977acbf2" x="138.762651" y="97.968647" style="stroke: #000000; stroke-width: 0.8"/>
      </g>
     </g>
    </g>
    <g id="ytick_6">
     <g id="line2d_42">
      <g>
       <use xlink:href="#m1f977acbf2" x="138.762651" y="67.578445" style="stroke: #000000; stroke-width: 0.8"/>
      </g>
     </g>
    </g>
    <g id="ytick_7">
     <g id="line2d_43">
      <g>
       <use xlink:href="#m1f977acbf2" x="138.762651" y="37.188242" style="stroke: #000000; stroke-width: 0.8"/>
      </g>
     </g>
    </g>
    <g id="ytick_8">
     <g id="line2d_44">
      <g>
       <use xlink:href="#m1f977acbf2" x="138.762651" y="6.79804" style="stroke: #000000; stroke-width: 0.8"/>
      </g>
     </g>
    </g>
   </g>
   <g id="patch_8">
    <path d="M 138.762651 97.968647 
L 138.762651 0.72 
" style="fill: none; stroke: #000000; stroke-width: 0.8; stroke-linejoin: miter; stroke-linecap: square"/>
   </g>
   <g id="patch_9">
    <path d="M 239.603714 97.968647 
L 239.603714 0.72 
" style="fill: none; stroke: #000000; stroke-width: 0.8; stroke-linejoin: miter; stroke-linecap: square"/>
   </g>
   <g id="patch_10">
    <path d="M 138.762651 97.968647 
L 239.603714 97.968647 
" style="fill: none; stroke: #000000; stroke-width: 0.8; stroke-linejoin: miter; stroke-linecap: square"/>
   </g>
   <g id="patch_11">
    <path d="M 138.762651 0.72 
L 239.603714 0.72 
" style="fill: none; stroke: #000000; stroke-width: 0.8; stroke-linejoin: miter; stroke-linecap: square"/>
   </g>
  </g>
 </g>
 <defs>
  <clipPath id="pd2c4f24593">
   <rect x="25.038347" y="0.72" width="100.841063" height="97.248647"/>
  </clipPath>
  <clipPath id="p194396b5ac">
   <rect x="138.762651" y="0.72" width="100.841063" height="97.248647"/>
  </clipPath>
 </defs>
</svg>
