<?xml version="1.0" encoding="UTF-8" standalone="no"?>
<!-- Created with Inkscape (http://www.inkscape.org/) -->

<svg
   width="98.385597mm"
   height="63.312519mm"
   viewBox="0 0 98.385597 63.312519"
   version="1.1"
   id="svg30231"
   inkscape:version="1.1.2 (0a00cf5339, 2022-02-04, custom)"
   sodipodi:docname="E_SW1.svg"
   xmlns:inkscape="http://www.inkscape.org/namespaces/inkscape"
   xmlns:sodipodi="http://sodipodi.sourceforge.net/DTD/sodipodi-0.dtd"
   xmlns="http://www.w3.org/2000/svg"
   xmlns:svg="http://www.w3.org/2000/svg">
  <sodipodi:namedview
     id="namedview30233"
     pagecolor="#ffffff"
     bordercolor="#666666"
     borderopacity="1.0"
     inkscape:pageshadow="2"
     inkscape:pageopacity="0.0"
     inkscape:pagecheckerboard="0"
     inkscape:document-units="mm"
     showgrid="false"
     fit-margin-top="0"
     fit-margin-left="0"
     fit-margin-right="0"
     fit-margin-bottom="0"
     inkscape:zoom="0.56569164"
     inkscape:cx="190.03286"
     inkscape:cy="374.76248"
     inkscape:window-width="1200"
     inkscape:window-height="1892"
     inkscape:window-x="1920"
     inkscape:window-y="0"
     inkscape:window-maximized="1"
     inkscape:current-layer="layer1" />
  <defs
     id="defs30228">
    <marker
       style="overflow:visible"
       id="Arrow1Mstart-8-1"
       refX="0"
       refY="0"
       orient="auto"
       inkscape:stockid="Arrow1Mstart"
       inkscape:isstock="true">
      <path
         transform="matrix(0.4,0,0,0.4,4,0)"
         style="fill:context-stroke;fill-rule:evenodd;stroke:context-stroke;stroke-width:1pt"
         d="M 0,0 5,-5 -12.5,0 5,5 Z"
         id="path1315-5-8" />
    </marker>
    <marker
       style="overflow:visible"
       id="Arrow1Mend"
       refX="0"
       refY="0"
       orient="auto"
       inkscape:stockid="Arrow1Mend"
       inkscape:isstock="true">
      <path
         transform="matrix(-0.4,0,0,-0.4,-4,0)"
         style="fill:context-stroke;fill-rule:evenodd;stroke:context-stroke;stroke-width:1pt"
         d="M 0,0 5,-5 -12.5,0 5,5 Z"
         id="path1318" />
    </marker>
    <marker
       style="overflow:visible"
       id="marker30083"
       refX="0"
       refY="0"
       orient="auto"
       inkscape:stockid="Arrow1Mstart"
       inkscape:isstock="true">
      <path
         transform="matrix(0.4,0,0,0.4,4,0)"
         style="fill:context-stroke;fill-rule:evenodd;stroke:context-stroke;stroke-width:1pt"
         d="M 0,0 5,-5 -12.5,0 5,5 Z"
         id="path30081" />
    </marker>
    <marker
       style="overflow:visible"
       id="marker30087"
       refX="0"
       refY="0"
       orient="auto"
       inkscape:stockid="Arrow1Mend"
       inkscape:isstock="true">
      <path
         transform="matrix(-0.4,0,0,-0.4,-4,0)"
         style="fill:context-stroke;fill-rule:evenodd;stroke:context-stroke;stroke-width:1pt"
         d="M 0,0 5,-5 -12.5,0 5,5 Z"
         id="path30085" />
    </marker>
    <marker
       style="overflow:visible"
       id="marker30091"
       refX="0"
       refY="0"
       orient="auto"
       inkscape:stockid="Arrow1Mstart"
       inkscape:isstock="true">
      <path
         transform="matrix(0.4,0,0,0.4,4,0)"
         style="fill:context-stroke;fill-rule:evenodd;stroke:context-stroke;stroke-width:1pt"
         d="M 0,0 5,-5 -12.5,0 5,5 Z"
         id="path30089" />
    </marker>
    <marker
       style="overflow:visible"
       id="marker30095"
       refX="0"
       refY="0"
       orient="auto"
       inkscape:stockid="Arrow1Mend"
       inkscape:isstock="true">
      <path
         transform="matrix(-0.4,0,0,-0.4,-4,0)"
         style="fill:context-stroke;fill-rule:evenodd;stroke:context-stroke;stroke-width:1pt"
         d="M 0,0 5,-5 -12.5,0 5,5 Z"
         id="path30093" />
    </marker>
  </defs>
  <g
     inkscape:label="Layer 1"
     inkscape:groupmode="layer"
     id="layer1"
     transform="translate(-61.656019,-49.258704)">
    <g
       id="g462173"
       transform="translate(-4.944911,-815.29408)">
      <g
         inkscape:label=""
         transform="matrix(0.59346446,0,0,0.59346446,20.220614,844.53577)"
         id="g72117"
         style="fill:#000000;stroke:#000000">
        <g
           id="g6732"
           style="fill:#000000;stroke:#000000">
          <g
             style="fill:#000000;fill-opacity:1;stroke:#000000"
             id="g3856">
            <g
               id="use64"
               style="fill:#000000;stroke:#000000"
               transform="translate(93.121002,78.040001)">
              <path
                 style="stroke:none"
                 d="m 5.28125,-1.171875 h -0.25 c 0,0.015625 -0.0625,0.34375 -0.125,0.515625 C 4.875,-0.546875 4.84375,-0.5 4.421875,-0.5 H 3.828125 C 3.9375,-0.890625 4.140625,-1.15625 4.53125,-1.671875 4.875,-2.140625 5.1875,-2.59375 5.1875,-3.15625 c 0,-0.953125 -1.015625,-1.75 -2.34375,-1.75 -1.34375,0 -2.359375,0.796875 -2.359375,1.75 0,0.609375 0.34375,1.0625 0.828125,1.71875 0.203125,0.265625 0.421875,0.578125 0.53125,0.9375 H 1.25 C 0.84375,-0.5 0.8125,-0.546875 0.78125,-0.625 0.71875,-0.765625 0.640625,-1.15625 0.640625,-1.171875 h -0.25 L 0.640625,0 H 1.90625 c 0.140625,0 0.1875,0 0.1875,-0.15625 0,-0.5 -0.25,-1.09375 -0.40625,-1.4375 -0.265625,-0.609375 -0.453125,-1.0625 -0.453125,-1.578125 0,-0.984375 0.78125,-1.53125 1.609375,-1.53125 0.8125,0 1.59375,0.546875 1.59375,1.53125 0,0.53125 -0.203125,1 -0.4375,1.546875 C 3.84375,-1.28125 3.578125,-0.65625 3.578125,-0.15625 3.578125,0 3.609375,0 3.78125,0 h 1.25 z m 0,0"
                 id="path30789" />
            </g>
          </g>
          <path
             style="fill:#000000;stroke:#000000;stroke-width:0.398;stroke-linecap:butt;stroke-linejoin:miter;stroke-miterlimit:10;stroke-opacity:1"
             d="M 9.375e-5,-6.5625e-4 H 5.687594"
             transform="matrix(1,0,0,-1,93.121,79.472)"
             id="path6769" />
          <g
             style="fill:#000000;fill-opacity:1;stroke:#000000"
             id="g8155">
            <g
               id="use3372"
               style="fill:#000000;stroke:#000000"
               transform="translate(93.978996,85.398003)">
              <path
                 style="stroke:none"
                 d="M 3.515625,-1.265625 H 3.28125 c -0.015625,0.15625 -0.09375,0.5625 -0.1875,0.625 C 3.046875,-0.59375 2.515625,-0.59375 2.40625,-0.59375 H 1.125 c 0.734375,-0.640625 0.984375,-0.84375 1.390625,-1.171875 0.515625,-0.40625 1,-0.84375 1,-1.5 0,-0.84375 -0.734375,-1.359375 -1.625,-1.359375 -0.859375,0 -1.453125,0.609375 -1.453125,1.25 0,0.34375 0.296875,0.390625 0.375,0.390625 0.15625,0 0.359375,-0.125 0.359375,-0.375 0,-0.125 -0.046875,-0.375 -0.40625,-0.375 C 0.984375,-4.21875 1.453125,-4.375 1.78125,-4.375 c 0.703125,0 1.0625,0.546875 1.0625,1.109375 0,0.609375 -0.4375,1.078125 -0.65625,1.328125 L 0.515625,-0.265625 C 0.4375,-0.203125 0.4375,-0.1875 0.4375,0 h 2.875 z m 0,0"
                 id="path30785" />
            </g>
          </g>
        </g>
      </g>
      <g
         inkscape:label=""
         transform="matrix(0.59346446,0,0,0.59346446,15.386351,875.93993)"
         id="g214625"
         style="fill:#000000;stroke:#000000">
        <g
           id="g2898"
           style="fill:#000000;stroke:#000000">
          <g
             style="fill:#000000;fill-opacity:1;stroke:#000000"
             id="g8219">
            <g
               id="use4754"
               style="fill:#000000;stroke:#000000"
               transform="translate(91.925003,81.962997)">
              <path
                 style="stroke:none"
                 d="m 6.5625,-2.296875 c 0.171875,0 0.359375,0 0.359375,-0.203125 0,-0.1875 -0.1875,-0.1875 -0.359375,-0.1875 H 1.171875 c -0.171875,0 -0.34375,0 -0.34375,0.1875 0,0.203125 0.171875,0.203125 0.34375,0.203125 z m 0,0"
                 id="path30781" />
            </g>
          </g>
          <g
             style="fill:#000000;fill-opacity:1;stroke:#000000"
             id="g4966">
            <g
               id="use6650"
               style="fill:#000000;stroke:#000000"
               transform="translate(100.87,78.040001)">
              <path
                 style="stroke:none"
                 d="m 5.28125,-1.171875 h -0.25 c 0,0.015625 -0.0625,0.34375 -0.125,0.515625 C 4.875,-0.546875 4.84375,-0.5 4.421875,-0.5 H 3.828125 C 3.9375,-0.890625 4.140625,-1.15625 4.53125,-1.671875 4.875,-2.140625 5.1875,-2.59375 5.1875,-3.15625 c 0,-0.953125 -1.015625,-1.75 -2.34375,-1.75 -1.34375,0 -2.359375,0.796875 -2.359375,1.75 0,0.609375 0.34375,1.0625 0.828125,1.71875 0.203125,0.265625 0.421875,0.578125 0.53125,0.9375 H 1.25 C 0.84375,-0.5 0.8125,-0.546875 0.78125,-0.625 0.71875,-0.765625 0.640625,-1.15625 0.640625,-1.171875 h -0.25 L 0.640625,0 H 1.90625 c 0.140625,0 0.1875,0 0.1875,-0.15625 0,-0.5 -0.25,-1.09375 -0.40625,-1.4375 -0.265625,-0.609375 -0.453125,-1.0625 -0.453125,-1.578125 0,-0.984375 0.78125,-1.53125 1.609375,-1.53125 0.8125,0 1.59375,0.546875 1.59375,1.53125 0,0.53125 -0.203125,1 -0.4375,1.546875 C 3.84375,-1.28125 3.578125,-0.65625 3.578125,-0.15625 3.578125,0 3.609375,0 3.78125,0 h 1.25 z m 0,0"
                 id="path30777" />
            </g>
          </g>
          <path
             style="fill:#000000;stroke:#000000;stroke-width:0.398;stroke-linecap:butt;stroke-linejoin:miter;stroke-miterlimit:10;stroke-opacity:1"
             d="M 0.00109375,-6.5625e-4 H 5.688594"
             transform="matrix(1,0,0,-1,100.87,79.472)"
             id="path4418" />
          <g
             style="fill:#000000;fill-opacity:1;stroke:#000000"
             id="g7821">
            <g
               id="use213"
               style="fill:#000000;stroke:#000000"
               transform="translate(101.727,85.398003)">
              <path
                 style="stroke:none"
                 d="M 3.515625,-1.265625 H 3.28125 c -0.015625,0.15625 -0.09375,0.5625 -0.1875,0.625 C 3.046875,-0.59375 2.515625,-0.59375 2.40625,-0.59375 H 1.125 c 0.734375,-0.640625 0.984375,-0.84375 1.390625,-1.171875 0.515625,-0.40625 1,-0.84375 1,-1.5 0,-0.84375 -0.734375,-1.359375 -1.625,-1.359375 -0.859375,0 -1.453125,0.609375 -1.453125,1.25 0,0.34375 0.296875,0.390625 0.375,0.390625 0.15625,0 0.359375,-0.125 0.359375,-0.375 0,-0.125 -0.046875,-0.375 -0.40625,-0.375 C 0.984375,-4.21875 1.453125,-4.375 1.78125,-4.375 c 0.703125,0 1.0625,0.546875 1.0625,1.109375 0,0.609375 -0.4375,1.078125 -0.65625,1.328125 L 0.515625,-0.265625 C 0.4375,-0.203125 0.4375,-0.1875 0.4375,0 h 2.875 z m 0,0"
                 id="path30773" />
            </g>
          </g>
        </g>
      </g>
      <g
         inkscape:label=""
         transform="matrix(0.59346446,0,0,0.59346446,19.695923,825.69327)"
         id="g214803"
         style="fill:#000000;stroke:#000000">
        <g
           id="g6015"
           style="fill:#000000;stroke:#000000">
          <g
             style="fill:#000000;fill-opacity:1;stroke:#000000"
             id="g8339">
            <g
               id="use8423"
               style="fill:#000000;stroke:#000000"
               transform="translate(93.121002,78.040001)">
              <path
                 style="stroke:none"
                 d="m 4.921875,-4 c 0.078125,-0.265625 0.1875,-0.5 0.75,-0.515625 0.03125,0 0.140625,0 0.140625,-0.140625 0,-0.046875 -0.046875,-0.109375 -0.109375,-0.109375 -0.21875,0 -0.484375,0.03125 -0.71875,0.03125 -0.234375,0 -0.53125,-0.03125 -0.734375,-0.03125 -0.03125,0 -0.140625,0 -0.140625,0.15625 0,0.09375 0.09375,0.09375 0.15625,0.09375 0.328125,0.015625 0.4375,0.125 0.4375,0.296875 0,0.03125 0,0.0625 0,0.09375 C 4.59375,-3.671875 4.078125,-1.578125 4,-1.359375 c -0.390625,0.890625 -1.21875,1.25 -1.78125,1.25 C 1.75,-0.109375 1.25,-0.34375 1.25,-1.03125 c 0,-0.171875 0.03125,-0.34375 0.0625,-0.5 L 2,-4.21875 c 0.0625,-0.234375 0.0625,-0.296875 0.609375,-0.296875 0.109375,0 0.203125,0 0.203125,-0.140625 0,-0.03125 -0.015625,-0.109375 -0.109375,-0.109375 -0.203125,0 -0.703125,0.03125 -0.90625,0.03125 -0.125,0 -0.375,0 -0.484375,0 C 1.171875,-4.75 1,-4.765625 0.875,-4.765625 c -0.046875,0 -0.15625,0 -0.15625,0.15625 0,0.09375 0.09375,0.09375 0.234375,0.09375 0,0 0.140625,0 0.265625,0.015625 0.140625,0.015625 0.15625,0.03125 0.15625,0.109375 0,0.03125 -0.078125,0.3125 -0.109375,0.453125 l -0.15625,0.625 -0.40625,1.59375 c -0.0625,0.28125 -0.0625,0.34375 -0.0625,0.484375 0,0.859375 0.71875,1.375 1.546875,1.375 0.96875,0 1.890625,-0.78125 2.125,-1.6875 z m 0,0"
                 id="path30769" />
            </g>
          </g>
          <path
             style="fill:#000000;stroke:#000000;stroke-width:0.398;stroke-linecap:butt;stroke-linejoin:miter;stroke-miterlimit:10;stroke-opacity:1"
             d="M 9.375e-5,-6.5625e-4 H 6.175875"
             transform="matrix(1,0,0,-1,93.121,79.472)"
             id="path113" />
          <g
             style="fill:#000000;fill-opacity:1;stroke:#000000"
             id="g5848">
            <g
               id="use5243"
               style="fill:#000000;stroke:#000000"
               transform="translate(94.223,85.398003)">
              <path
                 style="stroke:none"
                 d="M 3.515625,-1.265625 H 3.28125 c -0.015625,0.15625 -0.09375,0.5625 -0.1875,0.625 C 3.046875,-0.59375 2.515625,-0.59375 2.40625,-0.59375 H 1.125 c 0.734375,-0.640625 0.984375,-0.84375 1.390625,-1.171875 0.515625,-0.40625 1,-0.84375 1,-1.5 0,-0.84375 -0.734375,-1.359375 -1.625,-1.359375 -0.859375,0 -1.453125,0.609375 -1.453125,1.25 0,0.34375 0.296875,0.390625 0.375,0.390625 0.15625,0 0.359375,-0.125 0.359375,-0.375 0,-0.125 -0.046875,-0.375 -0.40625,-0.375 C 0.984375,-4.21875 1.453125,-4.375 1.78125,-4.375 c 0.703125,0 1.0625,0.546875 1.0625,1.109375 0,0.609375 -0.4375,1.078125 -0.65625,1.328125 L 0.515625,-0.265625 C 0.4375,-0.203125 0.4375,-0.1875 0.4375,0 h 2.875 z m 0,0"
                 id="path30929" />
            </g>
          </g>
        </g>
      </g>
      <g
         inkscape:label=""
         transform="matrix(0.59346446,0,0,0.59346446,42.929758,840.28077)"
         id="g215016"
         style="fill:#000000;stroke:#000000">
        <g
           id="g6550"
           style="fill:#000000;stroke:#000000">
          <g
             style="fill:#000000;fill-opacity:1;stroke:#000000"
             id="g3977">
            <g
               id="use4495"
               style="fill:#000000;stroke:#000000"
               transform="translate(91.925003,81.962997)">
              <path
                 style="stroke:none"
                 d="m 1.578125,-7.125 c 0,-0.171875 0,-0.359375 -0.1875,-0.359375 -0.203125,0 -0.203125,0.1875 -0.203125,0.359375 v 9.265625 c 0,0.171875 0,0.359375 0.203125,0.359375 0.1875,0 0.1875,-0.1875 0.1875,-0.359375 z m 0,0"
                 id="path30925" />
            </g>
            <g
               id="use3897"
               style="fill:#000000;stroke:#000000"
               transform="translate(94.692612,81.962997)">
              <path
                 style="stroke:none"
                 d="m 2.6875,-5.53125 c 0.25,0.375 0.515625,0.65625 0.765625,0.84375 0.609375,0.453125 1.21875,0.5625 1.234375,0.5625 0.125,0 0.125,-0.109375 0.125,-0.1875 0,-0.15625 0,-0.171875 -0.234375,-0.25 C 3.90625,-4.75 3.515625,-5.109375 3.296875,-5.359375 2.78125,-5.90625 2.65625,-6.5 2.609375,-6.8125 2.59375,-6.875 2.546875,-6.90625 2.5,-6.90625 c -0.09375,0 -0.109375,0.0625 -0.125,0.171875 C 2.140625,-5.625 1.4375,-4.84375 0.34375,-4.53125 0.1875,-4.484375 0.171875,-4.484375 0.171875,-4.3125 c 0,0.078125 0,0.1875 0.125,0.1875 0.015625,0 0.609375,-0.109375 1.171875,-0.515625 0.328125,-0.25 0.609375,-0.546875 0.828125,-0.890625 v 7.109375 c 0,0.171875 0,0.359375 0.203125,0.359375 0.1875,0 0.1875,-0.1875 0.1875,-0.359375 z m 0,0"
                 id="path30917" />
            </g>
          </g>
          <g
             style="fill:#000000;fill-opacity:1;stroke:#000000"
             id="g5286">
            <g
               id="use8272"
               style="fill:#000000;stroke:#000000"
               transform="translate(99.674004,81.962997)">
              <path
                 style="stroke:none"
                 d="m 2.03125,-0.015625 c 0,-0.65625 -0.25,-1.046875 -0.640625,-1.046875 -0.328125,0 -0.53125,0.25 -0.53125,0.53125 C 0.859375,-0.265625 1.0625,0 1.390625,0 1.5,0 1.640625,-0.046875 1.734375,-0.125 1.765625,-0.15625 1.78125,-0.15625 1.78125,-0.15625 c 0.015625,0 0.015625,0 0.015625,0.140625 0,0.75 -0.34375,1.34375 -0.671875,1.671875 -0.109375,0.109375 -0.109375,0.125 -0.109375,0.15625 0,0.078125 0.046875,0.109375 0.09375,0.109375 0.109375,0 0.921875,-0.765625 0.921875,-1.9375 z m 0,0"
                 id="path30909" />
            </g>
          </g>
          <g
             style="fill:#000000;fill-opacity:1;stroke:#000000"
             id="g2787">
            <g
               id="use7850"
               style="fill:#000000;stroke:#000000"
               transform="translate(104.102,81.962997)">
              <path
                 style="stroke:none"
                 d="m 2.6875,-5.53125 c 0.25,0.375 0.515625,0.65625 0.765625,0.84375 0.609375,0.453125 1.21875,0.5625 1.234375,0.5625 0.125,0 0.125,-0.109375 0.125,-0.1875 0,-0.15625 0,-0.171875 -0.234375,-0.25 C 3.90625,-4.75 3.515625,-5.109375 3.296875,-5.359375 2.78125,-5.90625 2.65625,-6.5 2.609375,-6.8125 2.59375,-6.875 2.546875,-6.90625 2.5,-6.90625 c -0.09375,0 -0.109375,0.0625 -0.125,0.171875 C 2.140625,-5.625 1.4375,-4.84375 0.34375,-4.53125 0.1875,-4.484375 0.171875,-4.484375 0.171875,-4.3125 c 0,0.078125 0,0.1875 0.125,0.1875 0.015625,0 0.609375,-0.109375 1.171875,-0.515625 0.328125,-0.25 0.609375,-0.546875 0.828125,-0.890625 v 7.109375 c 0,0.171875 0,0.359375 0.203125,0.359375 0.1875,0 0.1875,-0.1875 0.1875,-0.359375 z m 0,0"
                 id="path30921" />
            </g>
            <g
               id="use5677"
               style="fill:#000000;stroke:#000000"
               transform="translate(109.0833,81.962997)">
              <path
                 style="stroke:none"
                 d="M 2.71875,-2.328125 C 2.765625,-2.4375 2.765625,-2.46875 2.765625,-2.5 c 0,-0.015625 0,-0.046875 -0.046875,-0.15625 L 0.984375,-7.25 c -0.0625,-0.171875 -0.125,-0.234375 -0.234375,-0.234375 -0.109375,0 -0.203125,0.09375 -0.203125,0.203125 0,0.03125 0,0.046875 0.046875,0.15625 L 2.359375,-2.5 0.59375,2.109375 C 0.546875,2.21875 0.546875,2.25 0.546875,2.296875 0.546875,2.40625 0.640625,2.5 0.75,2.5 0.875,2.5 0.921875,2.390625 0.953125,2.296875 Z m 0,0"
                 id="path30913" />
            </g>
          </g>
        </g>
      </g>
      <g
         inkscape:label=""
         transform="matrix(0.59346446,0,0,0.59346446,95.652298,821.57219)"
         id="g215290"
         style="fill:#000000;stroke:#000000">
        <g
           id="g8074"
           style="fill:#000000;stroke:#000000">
          <g
             style="fill:#000000;fill-opacity:1;stroke:#000000"
             id="g485">
            <g
               id="use4029"
               style="fill:#000000;stroke:#000000"
               transform="translate(91.925003,81.962997)">
              <path
                 style="stroke:none"
                 d="m 1.578125,-7.125 c 0,-0.171875 0,-0.359375 -0.1875,-0.359375 -0.203125,0 -0.203125,0.1875 -0.203125,0.359375 v 9.265625 c 0,0.171875 0,0.359375 0.203125,0.359375 0.1875,0 0.1875,-0.1875 0.1875,-0.359375 z m 0,0"
                 id="path30905" />
            </g>
            <g
               id="use9817"
               style="fill:#000000;stroke:#000000"
               transform="translate(94.692612,81.962997)">
              <path
                 style="stroke:none"
                 d="m 2.6875,-5.53125 c 0.25,0.375 0.515625,0.65625 0.765625,0.84375 0.609375,0.453125 1.21875,0.5625 1.234375,0.5625 0.125,0 0.125,-0.109375 0.125,-0.1875 0,-0.15625 0,-0.171875 -0.234375,-0.25 C 3.90625,-4.75 3.515625,-5.109375 3.296875,-5.359375 2.78125,-5.90625 2.65625,-6.5 2.609375,-6.8125 2.59375,-6.875 2.546875,-6.90625 2.5,-6.90625 c -0.09375,0 -0.109375,0.0625 -0.125,0.171875 C 2.140625,-5.625 1.4375,-4.84375 0.34375,-4.53125 0.1875,-4.484375 0.171875,-4.484375 0.171875,-4.3125 c 0,0.078125 0,0.1875 0.125,0.1875 0.015625,0 0.609375,-0.109375 1.171875,-0.515625 0.328125,-0.25 0.609375,-0.546875 0.828125,-0.890625 v 7.109375 c 0,0.171875 0,0.359375 0.203125,0.359375 0.1875,0 0.1875,-0.1875 0.1875,-0.359375 z m 0,0"
                 id="path30901" />
            </g>
            <g
               id="use1988"
               style="fill:#000000;stroke:#000000"
               transform="translate(99.673912,81.962997)">
              <path
                 style="stroke:none"
                 d="m 2.6875,-6.5625 c 0,-0.171875 0,-0.359375 -0.1875,-0.359375 -0.203125,0 -0.203125,0.1875 -0.203125,0.359375 v 7.109375 c -0.25,-0.375 -0.515625,-0.65625 -0.765625,-0.84375 -0.609375,-0.453125 -1.21875,-0.5625 -1.234375,-0.5625 -0.125,0 -0.125,0.109375 -0.125,0.1875 0,0.15625 0,0.171875 0.234375,0.25 C 1.078125,-0.234375 1.46875,0.125 1.6875,0.375 2.203125,0.921875 2.328125,1.515625 2.375,1.828125 2.390625,1.875 2.421875,1.921875 2.5,1.921875 c 0.078125,0 0.09375,-0.0625 0.109375,-0.15625 0.21875,-1.125 0.9375,-1.90625 2.03125,-2.21875 C 4.796875,-0.5 4.8125,-0.5 4.8125,-0.671875 c 0,-0.078125 0,-0.1875 -0.125,-0.1875 -0.015625,0 -0.609375,0.109375 -1.171875,0.515625 C 3.1875,-0.09375 2.90625,0.203125 2.6875,0.546875 Z m 0,0"
                 id="path30897" />
            </g>
          </g>
          <g
             style="fill:#000000;fill-opacity:1;stroke:#000000"
             id="g7219">
            <g
               id="use5665"
               style="fill:#000000;stroke:#000000"
               transform="translate(104.655,81.962997)">
              <path
                 style="stroke:none"
                 d="m 2.03125,-0.015625 c 0,-0.65625 -0.25,-1.046875 -0.640625,-1.046875 -0.328125,0 -0.53125,0.25 -0.53125,0.53125 C 0.859375,-0.265625 1.0625,0 1.390625,0 1.5,0 1.640625,-0.046875 1.734375,-0.125 1.765625,-0.15625 1.78125,-0.15625 1.78125,-0.15625 c 0.015625,0 0.015625,0 0.015625,0.140625 0,0.75 -0.34375,1.34375 -0.671875,1.671875 -0.109375,0.109375 -0.109375,0.125 -0.109375,0.15625 0,0.078125 0.046875,0.109375 0.09375,0.109375 0.109375,0 0.921875,-0.765625 0.921875,-1.9375 z m 0,0"
                 id="path30889" />
            </g>
          </g>
          <g
             style="fill:#000000;fill-opacity:1;stroke:#000000"
             id="g1774">
            <g
               id="use849"
               style="fill:#000000;stroke:#000000"
               transform="translate(109.083,81.962997)">
              <path
                 style="stroke:none"
                 d="m 4.578125,-3.1875 c 0,-0.796875 -0.046875,-1.59375 -0.390625,-2.328125 -0.453125,-0.96875 -1.28125,-1.125 -1.6875,-1.125 -0.609375,0 -1.328125,0.265625 -1.75,1.1875 -0.3125,0.6875 -0.359375,1.46875 -0.359375,2.265625 0,0.75 0.03125,1.640625 0.453125,2.40625 0.421875,0.796875 1.15625,1 1.640625,1 0.53125,0 1.296875,-0.203125 1.734375,-1.15625 0.3125,-0.6875 0.359375,-1.46875 0.359375,-2.25 z M 2.484375,0 C 2.09375,0 1.5,-0.25 1.328125,-1.203125 1.21875,-1.796875 1.21875,-2.71875 1.21875,-3.3125 c 0,-0.640625 0,-1.296875 0.078125,-1.828125 0.1875,-1.1875 0.9375,-1.28125 1.1875,-1.28125 0.328125,0 0.984375,0.1875 1.171875,1.171875 0.109375,0.5625 0.109375,1.3125 0.109375,1.9375 0,0.75 0,1.421875 -0.109375,2.0625 C 3.5,-0.296875 2.9375,0 2.484375,0 Z m 0,0"
                 id="path30885" />
            </g>
          </g>
          <g
             style="fill:#000000;fill-opacity:1;stroke:#000000"
             id="g462">
            <g
               id="use1553"
               style="fill:#000000;stroke:#000000"
               transform="translate(114.064,81.962997)">
              <path
                 style="stroke:none"
                 d="M 2.71875,-2.328125 C 2.765625,-2.4375 2.765625,-2.46875 2.765625,-2.5 c 0,-0.015625 0,-0.046875 -0.046875,-0.15625 L 0.984375,-7.25 c -0.0625,-0.171875 -0.125,-0.234375 -0.234375,-0.234375 -0.109375,0 -0.203125,0.09375 -0.203125,0.203125 0,0.03125 0,0.046875 0.046875,0.15625 L 2.359375,-2.5 0.59375,2.109375 C 0.546875,2.21875 0.546875,2.25 0.546875,2.296875 0.546875,2.40625 0.640625,2.5 0.75,2.5 0.875,2.5 0.921875,2.390625 0.953125,2.296875 Z m 0,0"
                 id="path30893" />
            </g>
          </g>
        </g>
      </g>
      <g
         inkscape:label=""
         transform="matrix(0.59346446,0,0,0.59346446,75.182994,821.47289)"
         id="g215635"
         style="fill:#000000;stroke:#000000">
        <g
           id="g5478"
           style="fill:#000000;stroke:#000000">
          <g
             style="fill:#000000;fill-opacity:1;stroke:#000000"
             id="g215624">
            <g
               id="use7658"
               style="fill:#000000;stroke:#000000"
               transform="translate(91.925003,81.962997)">
              <path
                 style="stroke:none"
                 d="m 1.578125,-7.125 c 0,-0.171875 0,-0.359375 -0.1875,-0.359375 -0.203125,0 -0.203125,0.1875 -0.203125,0.359375 v 9.265625 c 0,0.171875 0,0.359375 0.203125,0.359375 0.1875,0 0.1875,-0.1875 0.1875,-0.359375 z m 0,0"
                 id="path30881" />
            </g>
          </g>
          <g
             style="fill:#000000;fill-opacity:1;stroke:#000000"
             id="g5730">
            <g
               id="use1681"
               style="fill:#000000;stroke:#000000"
               transform="translate(94.693001,81.962997)">
              <path
                 style="stroke:none"
                 d="m 4.578125,-3.1875 c 0,-0.796875 -0.046875,-1.59375 -0.390625,-2.328125 -0.453125,-0.96875 -1.28125,-1.125 -1.6875,-1.125 -0.609375,0 -1.328125,0.265625 -1.75,1.1875 -0.3125,0.6875 -0.359375,1.46875 -0.359375,2.265625 0,0.75 0.03125,1.640625 0.453125,2.40625 0.421875,0.796875 1.15625,1 1.640625,1 0.53125,0 1.296875,-0.203125 1.734375,-1.15625 0.3125,-0.6875 0.359375,-1.46875 0.359375,-2.25 z M 2.484375,0 C 2.09375,0 1.5,-0.25 1.328125,-1.203125 1.21875,-1.796875 1.21875,-2.71875 1.21875,-3.3125 c 0,-0.640625 0,-1.296875 0.078125,-1.828125 0.1875,-1.1875 0.9375,-1.28125 1.1875,-1.28125 0.328125,0 0.984375,0.1875 1.171875,1.171875 0.109375,0.5625 0.109375,1.3125 0.109375,1.9375 0,0.75 0,1.421875 -0.109375,2.0625 C 3.5,-0.296875 2.9375,0 2.484375,0 Z m 0,0"
                 id="path30865" />
            </g>
          </g>
          <g
             style="fill:#000000;fill-opacity:1;stroke:#000000"
             id="g3360">
            <g
               id="use1872"
               style="fill:#000000;stroke:#000000"
               transform="translate(99.674004,81.962997)">
              <path
                 style="stroke:none"
                 d="m 2.03125,-0.015625 c 0,-0.65625 -0.25,-1.046875 -0.640625,-1.046875 -0.328125,0 -0.53125,0.25 -0.53125,0.53125 C 0.859375,-0.265625 1.0625,0 1.390625,0 1.5,0 1.640625,-0.046875 1.734375,-0.125 1.765625,-0.15625 1.78125,-0.15625 1.78125,-0.15625 c 0.015625,0 0.015625,0 0.015625,0.140625 0,0.75 -0.34375,1.34375 -0.671875,1.671875 -0.109375,0.109375 -0.109375,0.125 -0.109375,0.15625 0,0.078125 0.046875,0.109375 0.09375,0.109375 0.109375,0 0.921875,-0.765625 0.921875,-1.9375 z m 0,0"
                 id="path30861" />
            </g>
          </g>
          <g
             style="fill:#000000;fill-opacity:1;stroke:#000000"
             id="g1731">
            <g
               id="use2899"
               style="fill:#000000;stroke:#000000"
               transform="translate(104.102,81.962997)">
              <path
                 style="stroke:none"
                 d="m 2.6875,-5.53125 c 0.25,0.375 0.515625,0.65625 0.765625,0.84375 0.609375,0.453125 1.21875,0.5625 1.234375,0.5625 0.125,0 0.125,-0.109375 0.125,-0.1875 0,-0.15625 0,-0.171875 -0.234375,-0.25 C 3.90625,-4.75 3.515625,-5.109375 3.296875,-5.359375 2.78125,-5.90625 2.65625,-6.5 2.609375,-6.8125 2.59375,-6.875 2.546875,-6.90625 2.5,-6.90625 c -0.09375,0 -0.109375,0.0625 -0.125,0.171875 C 2.140625,-5.625 1.4375,-4.84375 0.34375,-4.53125 0.1875,-4.484375 0.171875,-4.484375 0.171875,-4.3125 c 0,0.078125 0,0.1875 0.125,0.1875 0.015625,0 0.609375,-0.109375 1.171875,-0.515625 0.328125,-0.25 0.609375,-0.546875 0.828125,-0.890625 v 7.109375 c 0,0.171875 0,0.359375 0.203125,0.359375 0.1875,0 0.1875,-0.1875 0.1875,-0.359375 z m 0,0"
                 id="path30877" />
            </g>
            <g
               id="use7312"
               style="fill:#000000;stroke:#000000"
               transform="translate(109.0833,81.962997)">
              <path
                 style="stroke:none"
                 d="m 2.6875,-6.5625 c 0,-0.171875 0,-0.359375 -0.1875,-0.359375 -0.203125,0 -0.203125,0.1875 -0.203125,0.359375 v 7.109375 c -0.25,-0.375 -0.515625,-0.65625 -0.765625,-0.84375 -0.609375,-0.453125 -1.21875,-0.5625 -1.234375,-0.5625 -0.125,0 -0.125,0.109375 -0.125,0.1875 0,0.15625 0,0.171875 0.234375,0.25 C 1.078125,-0.234375 1.46875,0.125 1.6875,0.375 2.203125,0.921875 2.328125,1.515625 2.375,1.828125 2.390625,1.875 2.421875,1.921875 2.5,1.921875 c 0.078125,0 0.09375,-0.0625 0.109375,-0.15625 0.21875,-1.125 0.9375,-1.90625 2.03125,-2.21875 C 4.796875,-0.5 4.8125,-0.5 4.8125,-0.671875 c 0,-0.078125 0,-0.1875 -0.125,-0.1875 -0.015625,0 -0.609375,0.109375 -1.171875,0.515625 C 3.1875,-0.09375 2.90625,0.203125 2.6875,0.546875 Z m 0,0"
                 id="path30873" />
            </g>
            <g
               id="use544"
               style="fill:#000000;stroke:#000000"
               transform="translate(114.0646,81.962997)">
              <path
                 style="stroke:none"
                 d="M 2.71875,-2.328125 C 2.765625,-2.4375 2.765625,-2.46875 2.765625,-2.5 c 0,-0.015625 0,-0.046875 -0.046875,-0.15625 L 0.984375,-7.25 c -0.0625,-0.171875 -0.125,-0.234375 -0.234375,-0.234375 -0.109375,0 -0.203125,0.09375 -0.203125,0.203125 0,0.03125 0,0.046875 0.046875,0.15625 L 2.359375,-2.5 0.59375,2.109375 C 0.546875,2.21875 0.546875,2.25 0.546875,2.296875 0.546875,2.40625 0.640625,2.5 0.75,2.5 0.875,2.5 0.921875,2.390625 0.953125,2.296875 Z m 0,0"
                 id="path30869" />
            </g>
          </g>
        </g>
      </g>
      <g
         inkscape:label=""
         transform="matrix(0.59346446,0,0,0.59346446,51.815969,856.07046)"
         id="g216035"
         style="fill:#000000;stroke:#000000">
        <g
           id="g3376"
           style="fill:#000000;stroke:#000000">
          <g
             style="fill:#000000;fill-opacity:1;stroke:#000000"
             id="g9036">
            <g
               id="use9079"
               style="fill:#000000;stroke:#000000"
               transform="translate(91.925003,81.962997)">
              <path
                 style="stroke:none"
                 d="m 1.578125,-7.125 c 0,-0.171875 0,-0.359375 -0.1875,-0.359375 -0.203125,0 -0.203125,0.1875 -0.203125,0.359375 v 9.265625 c 0,0.171875 0,0.359375 0.203125,0.359375 0.1875,0 0.1875,-0.1875 0.1875,-0.359375 z m 0,0"
                 id="path30857" />
            </g>
            <g
               id="use4785"
               style="fill:#000000;stroke:#000000"
               transform="translate(94.692612,81.962997)">
              <path
                 style="stroke:none"
                 d="m 2.6875,-5.53125 c 0.25,0.375 0.515625,0.65625 0.765625,0.84375 0.609375,0.453125 1.21875,0.5625 1.234375,0.5625 0.125,0 0.125,-0.109375 0.125,-0.1875 0,-0.15625 0,-0.171875 -0.234375,-0.25 C 3.90625,-4.75 3.515625,-5.109375 3.296875,-5.359375 2.78125,-5.90625 2.65625,-6.5 2.609375,-6.8125 2.59375,-6.875 2.546875,-6.90625 2.5,-6.90625 c -0.09375,0 -0.109375,0.0625 -0.125,0.171875 C 2.140625,-5.625 1.4375,-4.84375 0.34375,-4.53125 0.1875,-4.484375 0.171875,-4.484375 0.171875,-4.3125 c 0,0.078125 0,0.1875 0.125,0.1875 0.015625,0 0.609375,-0.109375 1.171875,-0.515625 0.328125,-0.25 0.609375,-0.546875 0.828125,-0.890625 v 7.109375 c 0,0.171875 0,0.359375 0.203125,0.359375 0.1875,0 0.1875,-0.1875 0.1875,-0.359375 z m 0,0"
                 id="path30853" />
            </g>
          </g>
          <g
             style="fill:#000000;fill-opacity:1;stroke:#000000"
             id="g7160">
            <g
               id="use9461"
               style="fill:#000000;stroke:#000000"
               transform="translate(99.674004,81.962997)">
              <path
                 style="stroke:none"
                 d="m 2.03125,-0.015625 c 0,-0.65625 -0.25,-1.046875 -0.640625,-1.046875 -0.328125,0 -0.53125,0.25 -0.53125,0.53125 C 0.859375,-0.265625 1.0625,0 1.390625,0 1.5,0 1.640625,-0.046875 1.734375,-0.125 1.765625,-0.15625 1.78125,-0.15625 1.78125,-0.15625 c 0.015625,0 0.015625,0 0.015625,0.140625 0,0.75 -0.34375,1.34375 -0.671875,1.671875 -0.109375,0.109375 -0.109375,0.125 -0.109375,0.15625 0,0.078125 0.046875,0.109375 0.09375,0.109375 0.109375,0 0.921875,-0.765625 0.921875,-1.9375 z m 0,0"
                 id="path30841" />
            </g>
          </g>
          <g
             style="fill:#000000;fill-opacity:1;stroke:#000000"
             id="g241">
            <g
               id="use2135"
               style="fill:#000000;stroke:#000000"
               transform="translate(104.102,81.962997)">
              <path
                 style="stroke:none"
                 d="m 2.6875,-6.5625 c 0,-0.171875 0,-0.359375 -0.1875,-0.359375 -0.203125,0 -0.203125,0.1875 -0.203125,0.359375 v 7.109375 c -0.25,-0.375 -0.515625,-0.65625 -0.765625,-0.84375 -0.609375,-0.453125 -1.21875,-0.5625 -1.234375,-0.5625 -0.125,0 -0.125,0.109375 -0.125,0.1875 0,0.15625 0,0.171875 0.234375,0.25 C 1.078125,-0.234375 1.46875,0.125 1.6875,0.375 2.203125,0.921875 2.328125,1.515625 2.375,1.828125 2.390625,1.875 2.421875,1.921875 2.5,1.921875 c 0.078125,0 0.09375,-0.0625 0.109375,-0.15625 0.21875,-1.125 0.9375,-1.90625 2.03125,-2.21875 C 4.796875,-0.5 4.8125,-0.5 4.8125,-0.671875 c 0,-0.078125 0,-0.1875 -0.125,-0.1875 -0.015625,0 -0.609375,0.109375 -1.171875,0.515625 C 3.1875,-0.09375 2.90625,0.203125 2.6875,0.546875 Z m 0,0"
                 id="path30849" />
            </g>
            <g
               id="use9255"
               style="fill:#000000;stroke:#000000"
               transform="translate(109.0833,81.962997)">
              <path
                 style="stroke:none"
                 d="M 2.71875,-2.328125 C 2.765625,-2.4375 2.765625,-2.46875 2.765625,-2.5 c 0,-0.015625 0,-0.046875 -0.046875,-0.15625 L 0.984375,-7.25 c -0.0625,-0.171875 -0.125,-0.234375 -0.234375,-0.234375 -0.109375,0 -0.203125,0.09375 -0.203125,0.203125 0,0.03125 0,0.046875 0.046875,0.15625 L 2.359375,-2.5 0.59375,2.109375 C 0.546875,2.21875 0.546875,2.25 0.546875,2.296875 0.546875,2.40625 0.640625,2.5 0.75,2.5 0.875,2.5 0.921875,2.390625 0.953125,2.296875 Z m 0,0"
                 id="path30845" />
            </g>
          </g>
        </g>
      </g>
      <g
         id="g216566"
         transform="matrix(0.59346446,0,0,0.59346446,42.233354,784.16544)"
         style="fill:#000000;stroke:#000000">
        <g
           id="use207"
           style="fill:#000000;fill-opacity:1;stroke:#000000"
           transform="translate(78.65417,203.12446)">
          <path
             style="stroke:none"
             d="m 1.578125,-7.125 c 0,-0.171875 0,-0.359375 -0.1875,-0.359375 -0.203125,0 -0.203125,0.1875 -0.203125,0.359375 v 9.265625 c 0,0.171875 0,0.359375 0.203125,0.359375 0.1875,0 0.1875,-0.1875 0.1875,-0.359375 z m 0,0"
             id="path30837" />
        </g>
        <g
           id="use5669"
           style="fill:#000000;fill-opacity:1;stroke:#000000"
           transform="translate(81.421779,203.12446)">
          <path
             style="stroke:none"
             d="m 2.6875,-6.5625 c 0,-0.171875 0,-0.359375 -0.1875,-0.359375 -0.203125,0 -0.203125,0.1875 -0.203125,0.359375 v 7.109375 c -0.25,-0.375 -0.515625,-0.65625 -0.765625,-0.84375 -0.609375,-0.453125 -1.21875,-0.5625 -1.234375,-0.5625 -0.125,0 -0.125,0.109375 -0.125,0.1875 0,0.15625 0,0.171875 0.234375,0.25 C 1.078125,-0.234375 1.46875,0.125 1.6875,0.375 2.203125,0.921875 2.328125,1.515625 2.375,1.828125 2.390625,1.875 2.421875,1.921875 2.5,1.921875 c 0.078125,0 0.09375,-0.0625 0.109375,-0.15625 0.21875,-1.125 0.9375,-1.90625 2.03125,-2.21875 C 4.796875,-0.5 4.8125,-0.5 4.8125,-0.671875 c 0,-0.078125 0,-0.1875 -0.125,-0.1875 -0.015625,0 -0.609375,0.109375 -1.171875,0.515625 C 3.1875,-0.09375 2.90625,0.203125 2.6875,0.546875 Z m 0,0"
             id="path30833" />
        </g>
        <g
           id="use607"
           style="fill:#000000;fill-opacity:1;stroke:#000000"
           transform="translate(86.403171,203.12446)">
          <path
             style="stroke:none"
             d="m 2.03125,-0.015625 c 0,-0.65625 -0.25,-1.046875 -0.640625,-1.046875 -0.328125,0 -0.53125,0.25 -0.53125,0.53125 C 0.859375,-0.265625 1.0625,0 1.390625,0 1.5,0 1.640625,-0.046875 1.734375,-0.125 1.765625,-0.15625 1.78125,-0.15625 1.78125,-0.15625 c 0.015625,0 0.015625,0 0.015625,0.140625 0,0.75 -0.34375,1.34375 -0.671875,1.671875 -0.109375,0.109375 -0.109375,0.125 -0.109375,0.15625 0,0.078125 0.046875,0.109375 0.09375,0.109375 0.109375,0 0.921875,-0.765625 0.921875,-1.9375 z m 0,0"
             id="path30821" />
        </g>
        <g
           id="use8524"
           style="fill:#000000;fill-opacity:1;stroke:#000000"
           transform="translate(90.831164,203.12446)">
          <path
             style="stroke:none"
             d="m 2.6875,-5.53125 c 0.25,0.375 0.515625,0.65625 0.765625,0.84375 0.609375,0.453125 1.21875,0.5625 1.234375,0.5625 0.125,0 0.125,-0.109375 0.125,-0.1875 0,-0.15625 0,-0.171875 -0.234375,-0.25 C 3.90625,-4.75 3.515625,-5.109375 3.296875,-5.359375 2.78125,-5.90625 2.65625,-6.5 2.609375,-6.8125 2.59375,-6.875 2.546875,-6.90625 2.5,-6.90625 c -0.09375,0 -0.109375,0.0625 -0.125,0.171875 C 2.140625,-5.625 1.4375,-4.84375 0.34375,-4.53125 0.1875,-4.484375 0.171875,-4.484375 0.171875,-4.3125 c 0,0.078125 0,0.1875 0.125,0.1875 0.015625,0 0.609375,-0.109375 1.171875,-0.515625 0.328125,-0.25 0.609375,-0.546875 0.828125,-0.890625 v 7.109375 c 0,0.171875 0,0.359375 0.203125,0.359375 0.1875,0 0.1875,-0.1875 0.1875,-0.359375 z m 0,0"
             id="path30829" />
        </g>
        <g
           id="use8528"
           style="fill:#000000;fill-opacity:1;stroke:#000000"
           transform="translate(95.812465,203.12446)">
          <path
             style="stroke:none"
             d="M 2.71875,-2.328125 C 2.765625,-2.4375 2.765625,-2.46875 2.765625,-2.5 c 0,-0.015625 0,-0.046875 -0.046875,-0.15625 L 0.984375,-7.25 c -0.0625,-0.171875 -0.125,-0.234375 -0.234375,-0.234375 -0.109375,0 -0.203125,0.09375 -0.203125,0.203125 0,0.03125 0,0.046875 0.046875,0.15625 L 2.359375,-2.5 0.59375,2.109375 C 0.546875,2.21875 0.546875,2.25 0.546875,2.296875 0.546875,2.40625 0.640625,2.5 0.75,2.5 0.875,2.5 0.921875,2.390625 0.953125,2.296875 Z m 0,0"
             id="path30825" />
        </g>
      </g>
      <g
         inkscape:label=""
         transform="matrix(0.59346446,0,0,0.59346446,42.929758,871.36145)"
         id="g217004"
         style="fill:#000000;stroke:#000000">
        <g
           id="g4231"
           style="fill:#000000;stroke:#000000">
          <g
             style="fill:#000000;fill-opacity:1;stroke:#000000"
             id="g8178">
            <g
               id="use4387"
               style="fill:#000000;stroke:#000000"
               transform="translate(91.925003,81.962997)">
              <path
                 style="stroke:none"
                 d="m 1.578125,-7.125 c 0,-0.171875 0,-0.359375 -0.1875,-0.359375 -0.203125,0 -0.203125,0.1875 -0.203125,0.359375 v 9.265625 c 0,0.171875 0,0.359375 0.203125,0.359375 0.1875,0 0.1875,-0.1875 0.1875,-0.359375 z m 0,0"
                 id="path30817" />
            </g>
            <g
               id="use7929"
               style="fill:#000000;stroke:#000000"
               transform="translate(94.692612,81.962997)">
              <path
                 style="stroke:none"
                 d="m 2.6875,-6.5625 c 0,-0.171875 0,-0.359375 -0.1875,-0.359375 -0.203125,0 -0.203125,0.1875 -0.203125,0.359375 v 7.109375 c -0.25,-0.375 -0.515625,-0.65625 -0.765625,-0.84375 -0.609375,-0.453125 -1.21875,-0.5625 -1.234375,-0.5625 -0.125,0 -0.125,0.109375 -0.125,0.1875 0,0.15625 0,0.171875 0.234375,0.25 C 1.078125,-0.234375 1.46875,0.125 1.6875,0.375 2.203125,0.921875 2.328125,1.515625 2.375,1.828125 2.390625,1.875 2.421875,1.921875 2.5,1.921875 c 0.078125,0 0.09375,-0.0625 0.109375,-0.15625 0.21875,-1.125 0.9375,-1.90625 2.03125,-2.21875 C 4.796875,-0.5 4.8125,-0.5 4.8125,-0.671875 c 0,-0.078125 0,-0.1875 -0.125,-0.1875 -0.015625,0 -0.609375,0.109375 -1.171875,0.515625 C 3.1875,-0.09375 2.90625,0.203125 2.6875,0.546875 Z m 0,0"
                 id="path30809" />
            </g>
          </g>
          <g
             style="fill:#000000;fill-opacity:1;stroke:#000000"
             id="g3778">
            <g
               id="use2845"
               style="fill:#000000;stroke:#000000"
               transform="translate(99.674004,81.962997)">
              <path
                 style="stroke:none"
                 d="m 2.03125,-0.015625 c 0,-0.65625 -0.25,-1.046875 -0.640625,-1.046875 -0.328125,0 -0.53125,0.25 -0.53125,0.53125 C 0.859375,-0.265625 1.0625,0 1.390625,0 1.5,0 1.640625,-0.046875 1.734375,-0.125 1.765625,-0.15625 1.78125,-0.15625 1.78125,-0.15625 c 0.015625,0 0.015625,0 0.015625,0.140625 0,0.75 -0.34375,1.34375 -0.671875,1.671875 -0.109375,0.109375 -0.109375,0.125 -0.109375,0.15625 0,0.078125 0.046875,0.109375 0.09375,0.109375 0.109375,0 0.921875,-0.765625 0.921875,-1.9375 z m 0,0"
                 id="path30801" />
            </g>
          </g>
          <g
             style="fill:#000000;fill-opacity:1;stroke:#000000"
             id="g708">
            <g
               id="use9978"
               style="fill:#000000;stroke:#000000"
               transform="translate(104.102,81.962997)">
              <path
                 style="stroke:none"
                 d="m 2.6875,-6.5625 c 0,-0.171875 0,-0.359375 -0.1875,-0.359375 -0.203125,0 -0.203125,0.1875 -0.203125,0.359375 v 7.109375 c -0.25,-0.375 -0.515625,-0.65625 -0.765625,-0.84375 -0.609375,-0.453125 -1.21875,-0.5625 -1.234375,-0.5625 -0.125,0 -0.125,0.109375 -0.125,0.1875 0,0.15625 0,0.171875 0.234375,0.25 C 1.078125,-0.234375 1.46875,0.125 1.6875,0.375 2.203125,0.921875 2.328125,1.515625 2.375,1.828125 2.390625,1.875 2.421875,1.921875 2.5,1.921875 c 0.078125,0 0.09375,-0.0625 0.109375,-0.15625 0.21875,-1.125 0.9375,-1.90625 2.03125,-2.21875 C 4.796875,-0.5 4.8125,-0.5 4.8125,-0.671875 c 0,-0.078125 0,-0.1875 -0.125,-0.1875 -0.015625,0 -0.609375,0.109375 -1.171875,0.515625 C 3.1875,-0.09375 2.90625,0.203125 2.6875,0.546875 Z m 0,0"
                 id="path30813" />
            </g>
            <g
               id="use9501"
               style="fill:#000000;stroke:#000000"
               transform="translate(109.0833,81.962997)">
              <path
                 style="stroke:none"
                 d="M 2.71875,-2.328125 C 2.765625,-2.4375 2.765625,-2.46875 2.765625,-2.5 c 0,-0.015625 0,-0.046875 -0.046875,-0.15625 L 0.984375,-7.25 c -0.0625,-0.171875 -0.125,-0.234375 -0.234375,-0.234375 -0.109375,0 -0.203125,0.09375 -0.203125,0.203125 0,0.03125 0,0.046875 0.046875,0.15625 L 2.359375,-2.5 0.59375,2.109375 C 0.546875,2.21875 0.546875,2.25 0.546875,2.296875 0.546875,2.40625 0.640625,2.5 0.75,2.5 0.875,2.5 0.921875,2.390625 0.953125,2.296875 Z m 0,0"
                 id="path30805" />
            </g>
          </g>
        </g>
      </g>
      <g
         inkscape:label=""
         transform="matrix(0.59346446,0,0,0.59346446,20.741732,861.216)"
         id="g217576"
         style="fill:#000000;stroke:#000000">
        <g
           id="g8133"
           style="fill:#000000;stroke:#000000">
          <g
             style="fill:#000000;fill-opacity:1;stroke:#000000"
             id="g9289">
            <g
               id="use9840"
               style="fill:#000000;stroke:#000000"
               transform="translate(91.925003,81.962997)">
              <path
                 style="stroke:none"
                 d="m 4.578125,-3.1875 c 0,-0.796875 -0.046875,-1.59375 -0.390625,-2.328125 -0.453125,-0.96875 -1.28125,-1.125 -1.6875,-1.125 -0.609375,0 -1.328125,0.265625 -1.75,1.1875 -0.3125,0.6875 -0.359375,1.46875 -0.359375,2.265625 0,0.75 0.03125,1.640625 0.453125,2.40625 0.421875,0.796875 1.15625,1 1.640625,1 0.53125,0 1.296875,-0.203125 1.734375,-1.15625 0.3125,-0.6875 0.359375,-1.46875 0.359375,-2.25 z M 2.484375,0 C 2.09375,0 1.5,-0.25 1.328125,-1.203125 1.21875,-1.796875 1.21875,-2.71875 1.21875,-3.3125 c 0,-0.640625 0,-1.296875 0.078125,-1.828125 0.1875,-1.1875 0.9375,-1.28125 1.1875,-1.28125 0.328125,0 0.984375,0.1875 1.171875,1.171875 0.109375,0.5625 0.109375,1.3125 0.109375,1.9375 0,0.75 0,1.421875 -0.109375,2.0625 C 3.5,-0.296875 2.9375,0 2.484375,0 Z m 0,0"
                 id="path30797" />
            </g>
          </g>
        </g>
      </g>
      <g
         id="path327"
         style="fill:#000000;stroke:#000000"
         transform="matrix(0.59346446,0,0,0.59346446,64.493217,815.73205)">
        <path
           style="color:#000000;fill:#000000;fill-rule:evenodd;stroke:#000000;stroke-width:0.24pt;-inkscape-stroke:none"
           d="m 31.75,87.666667 1.2,1.2 -1.2,-4.2 -1.2,4.2 z"
           id="path331" />
        <path
           style="color:#000000;fill:#000000;fill-rule:evenodd;stroke:#000000;-inkscape-stroke:none"
           d="m 31.75,84.083984 -1.523438,5.332032 1.523438,-1.523438 1.523437,1.523438 z m 0,1.166016 0.876953,3.068359 -0.876953,-0.878906 -0.113281,0.113281 -0.763672,0.765625 z"
           id="path333" />
      </g>
      <path
         style="color:#000000;fill:#000000;stroke:#000000;stroke-width:0.593464;stroke-linecap:square;-inkscape-stroke:none;paint-order:fill markers stroke"
         d="m 83.246462,866.3249 v 0.0881 61.15557 h 0.178503 V 866.413 866.3249 Z"
         id="path343"
         sodipodi:nodetypes="ccccccc" />
      <path
         style="fill:#000000;stroke:#000000;stroke-width:0.178039;paint-order:fill markers stroke"
         d="M 83.335714,872.85747 H 80.195297"
         id="path217643" />
      <path
         style="fill:#000000;stroke:#000000;stroke-width:0.178039;paint-order:fill markers stroke"
         d="m 80.195297,891.69997 h 3.140417"
         id="path217645" />
      <path
         style="fill:#000000;stroke:#000000;stroke-width:0.178039;paint-order:fill markers stroke"
         d="m 80.195297,907.40205 h 3.140417"
         id="path217647" />
      <path
         style="fill:#000000;stroke:#000000;stroke-width:0.178039;paint-order:fill markers stroke"
         d="m 80.195297,923.10413 h 3.140417"
         id="path217731" />
      <path
         style="fill:#000000;stroke:#000000;stroke-width:0.593464;stroke-miterlimit:4;stroke-dasharray:none;paint-order:fill markers stroke"
         d="M 86.476129,907.40205 H 121.02071"
         id="path218041" />
      <path
         style="fill:#000000;stroke:#000000;stroke-width:0.593464;stroke-miterlimit:4;stroke-dasharray:none;paint-order:fill markers stroke"
         d="m 86.47613,923.10413 h 34.54458"
         id="path218971" />
      <path
         style="fill:#000000;stroke:#000000;stroke-width:0.593464;stroke-miterlimit:4;stroke-dasharray:none;paint-order:fill markers stroke"
         d="m 86.47613,891.69997 h 34.54458"
         id="path218973" />
      <path
         style="fill:#000000;stroke:#000000;stroke-width:0.593464;stroke-miterlimit:4;stroke-dasharray:none;paint-order:fill markers stroke"
         d="m 130.44196,872.85747 h 34.54457"
         id="path219107" />
      <g
         inkscape:label=""
         transform="matrix(0,-0.59346446,0.59346446,0,21.983235,955.43867)"
         id="g221018"
         style="fill:#000000;stroke:#000000">
        <g
           id="g8828"
           style="fill:#000000;stroke:#000000">
          <g
             style="fill:#000000;fill-opacity:1;stroke:#000000"
             id="g2725">
            <g
               id="use8595"
               style="fill:#000000;stroke:#000000"
               transform="translate(91.925003,81.962997)">
              <path
                 style="stroke:none"
                 d="M 7.0625,-2.328125 C 7.078125,-2.375 7.109375,-2.4375 7.109375,-2.46875 c 0,0 0,-0.109375 -0.125,-0.109375 -0.09375,0 -0.109375,0.0625 -0.125,0.125 C 6.203125,-0.984375 5.84375,-0.3125 4.140625,-0.3125 H 2.6875 c -0.140625,0 -0.171875,0 -0.21875,0 -0.109375,-0.015625 -0.140625,-0.03125 -0.140625,-0.109375 0,-0.03125 0,-0.046875 0.046875,-0.21875 L 3.0625,-3.375 h 0.984375 c 0.84375,0 0.84375,0.21875 0.84375,0.46875 0,0.0625 0,0.1875 -0.0625,0.484375 C 4.8125,-2.375 4.796875,-2.34375 4.796875,-2.3125 c 0,0.046875 0.03125,0.109375 0.125,0.109375 C 5,-2.203125 5.03125,-2.25 5.078125,-2.40625 l 0.5625,-2.328125 c 0,-0.0625 -0.046875,-0.109375 -0.125,-0.109375 -0.078125,0 -0.109375,0.0625 -0.125,0.171875 -0.21875,0.765625 -0.390625,1 -1.3125,1 h -0.9375 l 0.59375,-2.40625 C 3.828125,-6.4375 3.84375,-6.46875 4.28125,-6.46875 H 5.6875 c 1.203125,0 1.515625,0.28125 1.515625,1.109375 0,0.234375 0,0.25 -0.046875,0.53125 0,0.046875 -0.015625,0.125 -0.015625,0.171875 0,0.046875 0.03125,0.125 0.125,0.125 0.109375,0 0.125,-0.0625 0.140625,-0.25 L 7.609375,-6.515625 C 7.640625,-6.78125 7.59375,-6.78125 7.34375,-6.78125 H 2.296875 c -0.1875,0 -0.296875,0 -0.296875,0.203125 0,0.109375 0.09375,0.109375 0.28125,0.109375 0.375,0 0.65625,0 0.65625,0.171875 0,0.046875 0,0.0625 -0.0625,0.25 L 1.5625,-0.78125 c -0.09375,0.390625 -0.109375,0.46875 -0.90625,0.46875 -0.171875,0 -0.28125,0 -0.28125,0.1875 C 0.375,0 0.46875,0 0.65625,0 h 5.171875 c 0.234375,0 0.25,-0.015625 0.3125,-0.171875 z m 0,0"
                 id="path30793" />
            </g>
          </g>
        </g>
      </g>
      <path
         style="fill:none;stroke:#000000;stroke-width:0.675525;stroke-linecap:butt;stroke-linejoin:miter;stroke-miterlimit:4;stroke-dasharray:1.35105, 0.675525;stroke-dashoffset:0;stroke-opacity:1;marker-start:url(#Arrow1Mstart-8-1);marker-end:url(#Arrow1Mend)"
         d="m 146.40522,873.90454 -24.07588,48.15291"
         id="path38781-1"
         sodipodi:nodetypes="cc" />
      <path
         style="fill:none;stroke:#000000;stroke-width:0.675525;stroke-linecap:butt;stroke-linejoin:miter;stroke-miterlimit:4;stroke-dasharray:1.35105, 0.675525;stroke-dashoffset:0;stroke-opacity:1;marker-start:url(#Arrow1Mstart-8-1);marker-end:url(#Arrow1Mend)"
         d="m 138.55457,873.90454 -16.22523,32.45044"
         id="path661372"
         sodipodi:nodetypes="cc" />
      <path
         style="fill:none;stroke:#000000;stroke-width:0.675525;stroke-linecap:butt;stroke-linejoin:miter;stroke-miterlimit:4;stroke-dasharray:1.35105, 0.675525;stroke-dashoffset:0;stroke-opacity:1;marker-start:url(#Arrow1Mstart-8-1);marker-end:url(#Arrow1Mend)"
         d="m 130.70392,873.90454 -8.37458,16.74798"
         id="path661412"
         sodipodi:nodetypes="cc" />
    </g>
  </g>
</svg>
