<?xml version="1.0" encoding="UTF-8" standalone="no"?>
<!-- Created with Inkscape (http://www.inkscape.org/) -->

<svg
   width="95.513939mm"
   height="73.760712mm"
   viewBox="0 0 95.513939 73.760712"
   version="1.1"
   id="svg1"
   inkscape:version="1.4 (e7c3feb100, 2024-10-09)"
   sodipodi:docname="egg_lattice.svg"
   xmlns:inkscape="http://www.inkscape.org/namespaces/inkscape"
   xmlns:sodipodi="http://sodipodi.sourceforge.net/DTD/sodipodi-0.dtd"
   xmlns="http://www.w3.org/2000/svg"
   xmlns:svg="http://www.w3.org/2000/svg">
  <sodipodi:namedview
     id="namedview1"
     pagecolor="#ffffff"
     bordercolor="#000000"
     borderopacity="0.25"
     inkscape:showpageshadow="2"
     inkscape:pageopacity="0.0"
     inkscape:pagecheckerboard="0"
     inkscape:deskcolor="#d1d1d1"
     inkscape:document-units="mm"
     inkscape:zoom="2.4791516"
     inkscape:cx="121.4125"
     inkscape:cy="129.07641"
     inkscape:window-width="1192"
     inkscape:window-height="656"
     inkscape:window-x="26"
     inkscape:window-y="23"
     inkscape:window-maximized="0"
     inkscape:current-layer="layer1" />
  <defs
     id="defs1">
    <marker
       style="overflow:visible"
       id="Triangle"
       refX="0"
       refY="0"
       orient="auto-start-reverse"
       inkscape:stockid="Triangle arrow"
       markerWidth="1"
       markerHeight="1"
       viewBox="0 0 1 1"
       inkscape:isstock="true"
       inkscape:collect="always"
       preserveAspectRatio="xMidYMid">
      <path
         transform="scale(0.5)"
         style="fill:context-stroke;fill-rule:evenodd;stroke:context-stroke;stroke-width:1pt"
         d="M 5.77,0 -2.88,5 V -5 Z"
         id="path135" />
    </marker>
    <inkscape:path-effect
       effect="bspline"
       id="path-effect9"
       is_visible="true"
       lpeversion="1.3"
       weight="33.333333"
       steps="2"
       helper_size="0"
       apply_no_weight="true"
       apply_with_weight="true"
       only_selected="false"
       uniform="false" />
    <inkscape:path-effect
       effect="bspline"
       id="path-effect8"
       is_visible="true"
       lpeversion="1.3"
       weight="33.333333"
       steps="2"
       helper_size="0"
       apply_no_weight="true"
       apply_with_weight="true"
       only_selected="false"
       uniform="false" />
    <g
       id="g4791">
      <g
         id="g8851">
        <path
           d="m 2.328125,-5.296875 c 0,-0.015625 0.03125,-0.109375 0.03125,-0.125 0,-0.03125 -0.03125,-0.109375 -0.125,-0.109375 -0.03125,0 -0.28125,0.03125 -0.46875,0.046875 l -0.4375,0.03125 C 1.140625,-5.4375 1.0625,-5.4375 1.0625,-5.296875 c 0,0.125 0.109375,0.125 0.21875,0.125 0.375,0 0.375,0.046875 0.375,0.109375 0,0.03125 0,0.046875 -0.03125,0.1875 l -1.140625,4.53125 c -0.03125,0.125 -0.03125,0.171875 -0.03125,0.171875 0,0.140625 0.109375,0.25 0.265625,0.25 0.125,0 0.234375,-0.078125 0.296875,-0.1875 0.03125,-0.046875 0.09375,-0.296875 0.125,-0.453125 l 0.1875,-0.71875 c 0.03125,-0.109375 0.109375,-0.421875 0.125,-0.53125 0.125,-0.46875 0.125,-0.484375 0.296875,-0.734375 0.28125,-0.390625 0.65625,-0.75 1.1875,-0.75 0.28125,0 0.453125,0.171875 0.453125,0.546875 0,0.4375 -0.34375,1.34375 -0.484375,1.734375 -0.109375,0.265625 -0.109375,0.3125 -0.109375,0.421875 0,0.453125 0.375,0.671875 0.71875,0.671875 0.78125,0 1.109375,-1.109375 1.109375,-1.21875 C 4.625,-1.21875 4.5625,-1.25 4.5,-1.25 c -0.09375,0 -0.109375,0.0625 -0.140625,0.140625 -0.1875,0.65625 -0.515625,0.96875 -0.828125,0.96875 -0.125,0 -0.1875,-0.078125 -0.1875,-0.265625 0,-0.1875 0.0625,-0.359375 0.140625,-0.5625 0.125,-0.296875 0.46875,-1.21875 0.46875,-1.65625 0,-0.609375 -0.40625,-0.890625 -0.984375,-0.890625 -0.4375,0 -0.859375,0.1875 -1.234375,0.609375 z m 0,0"
           id="path8657" />
      </g>
      <g
         id="g9052">
        <path
           d="m 2.78125,-3.734375 c 0,-0.171875 -0.140625,-0.234375 -0.25,-0.234375 -0.1875,0 -0.328125,0.1875 -0.328125,0.328125 0,0.125 0.09375,0.234375 0.234375,0.234375 0.15625,0 0.34375,-0.140625 0.34375,-0.328125 z m -1.28125,4 c -0.109375,0.453125 -0.46875,0.75 -0.8125,0.75 C 0.671875,1.015625 0.5,1.015625 0.5,1 0.5,0.984375 0.515625,0.96875 0.515625,0.96875 0.609375,0.890625 0.65625,0.796875 0.65625,0.71875 c 0,-0.203125 -0.15625,-0.234375 -0.25,-0.234375 -0.15625,0 -0.328125,0.125 -0.328125,0.34375 0,0.328125 0.375,0.390625 0.609375,0.390625 C 1.09375,1.21875 1.8125,1 2,0.28125 l 0.53125,-2.140625 c 0.015625,-0.0625 0.03125,-0.125 0.03125,-0.203125 0,-0.34375 -0.296875,-0.578125 -0.6875,-0.578125 -0.671875,0 -1.09375,0.8125 -1.09375,0.921875 0,0.03125 0.03125,0.078125 0.109375,0.078125 0.078125,0 0.09375,-0.015625 0.125,-0.09375 C 1.203125,-2.125 1.53125,-2.4375 1.859375,-2.4375 c 0.1875,0 0.21875,0.140625 0.21875,0.296875 0,0.078125 0,0.15625 -0.015625,0.171875 z m 0,0"
           id="path1271" />
      </g>
    </g>
  </defs>
  <g
     inkscape:label="Capa 1"
     inkscape:groupmode="layer"
     id="layer1"
     transform="translate(-13.3771, -57.6337)">
    <path
       style="fill:#ffffff;fill-opacity:1;stroke:#000000;stroke-width:0.7;stroke-linecap:square;stroke-dasharray:none;stroke-opacity:1;marker-end:url(#Triangle)"
       d="m 17.002525,94.514015 c 10.885725,0 21.771449,0 32.657172,0"
       id="path8"
       inkscape:path-effect="#path-effect9"
       inkscape:original-d="m 17.002525,94.514015 c 10.885725,0 21.771449,0 32.657172,0" />
    <path
       id="path1"
       style="fill:none;stroke:#1f7dad;stroke-width:0.7;stroke-linecap:square;stroke-dasharray:none;stroke-opacity:1"
       d="m 105.26561,95.7642 c 0,9.18309 -9.160494,17.18428 -20.616759,22.88969 -11.456265,5.70541 -25.208303,9.11505 -34.391397,9.11505 -9.183094,0 -17.496826,-3.72218 -23.514784,-9.74014 -6.017959,-6.01796 -9.740144,-14.33169 -9.740145,-23.514785 -10e-7,-9.183095 3.722184,-17.496827 9.740143,-23.514785 6.017958,-6.017958 14.331691,-9.740143 23.514786,-9.740143 9.183095,0 22.935134,4.034731 34.391399,10.365236 11.456266,6.330504 20.616757,14.956783 20.616757,24.139877 z"
       sodipodi:nodetypes="sssssssss" />
    <circle
       style="fill:#ffffff;fill-opacity:1;stroke:#53257f;stroke-width:1.5;stroke-linecap:square;stroke-dasharray:none;stroke-opacity:1"
       id="path2"
       cx="105.26561"
       cy="95.764198"
       r="2.8754263" />
    <circle
       style="fill:#ffffff;fill-opacity:1;stroke:#53257f;stroke-width:1.5;stroke-linecap:square;stroke-dasharray:none;stroke-opacity:1"
       id="circle2"
       cx="50.257454"
       cy="61.259087"
       r="2.8754263" />
    <circle
       style="fill:#ffffff;fill-opacity:1;stroke:#53257f;stroke-width:1.5;stroke-linecap:square;stroke-dasharray:none;stroke-opacity:1"
       id="circle3"
       cx="84.648849"
       cy="71.624321"
       r="2.8754263" />
    <circle
       style="fill:#ffffff;fill-opacity:1;stroke:#53257f;stroke-width:1.5;stroke-linecap:square;stroke-dasharray:none;stroke-opacity:1"
       id="circle4"
       cx="84.648849"
       cy="118.65389"
       r="2.8754263" />
    <circle
       style="fill:#ffffff;fill-opacity:1;stroke:#53257f;stroke-width:1.5;stroke-linecap:square;stroke-dasharray:none;stroke-opacity:1"
       id="circle5"
       cx="50.257454"
       cy="127.76894"
       r="2.8754263" />
    <circle
       style="fill:#ffffff;fill-opacity:1;stroke:#53257f;stroke-width:1.5;stroke-linecap:square;stroke-dasharray:none;stroke-opacity:1"
       id="circle6"
       cx="26.74267"
       cy="118.0288"
       r="2.8754263" />
    <circle
       style="fill:#ffffff;fill-opacity:1;stroke:#53257f;stroke-width:1.5;stroke-linecap:square;stroke-dasharray:none;stroke-opacity:1"
       id="circle7"
       cx="17.002525"
       cy="94.514015"
       r="2.8754263" />
    <circle
       style="fill:#ffffff;fill-opacity:1;stroke:#53257f;stroke-width:1.5;stroke-linecap:square;stroke-dasharray:none;stroke-opacity:1"
       id="circle8"
       cx="26.742668"
       cy="70.999229"
       r="2.8754263" />
    <g
       inkscape:label=""
       transform="matrix(3.6446154,0,0,3.6446154,31.08928,80.715971)"
       id="g9">
      <g
         fill="#000000"
         fill-opacity="1"
         id="g3"
         transform="matrix(0.352778,0,0,0.352778,-0.862939,-0.704056)">
        <g
           id="use2"
           transform="translate(1.993,7.527)">
          <path
             d="m 2.328125,-5.296875 c 0,-0.015625 0.03125,-0.109375 0.03125,-0.125 0,-0.03125 -0.03125,-0.109375 -0.125,-0.109375 -0.03125,0 -0.28125,0.03125 -0.46875,0.046875 l -0.4375,0.03125 C 1.140625,-5.4375 1.0625,-5.4375 1.0625,-5.296875 c 0,0.125 0.109375,0.125 0.21875,0.125 0.375,0 0.375,0.046875 0.375,0.109375 0,0.03125 0,0.046875 -0.03125,0.1875 l -1.140625,4.53125 c -0.03125,0.125 -0.03125,0.171875 -0.03125,0.171875 0,0.140625 0.109375,0.25 0.265625,0.25 0.125,0 0.234375,-0.078125 0.296875,-0.1875 0.03125,-0.046875 0.09375,-0.296875 0.125,-0.453125 l 0.1875,-0.71875 c 0.03125,-0.109375 0.109375,-0.421875 0.125,-0.53125 0.125,-0.46875 0.125,-0.484375 0.296875,-0.734375 0.28125,-0.390625 0.65625,-0.75 1.1875,-0.75 0.28125,0 0.453125,0.171875 0.453125,0.546875 0,0.4375 -0.34375,1.34375 -0.484375,1.734375 -0.109375,0.265625 -0.109375,0.3125 -0.109375,0.421875 0,0.453125 0.375,0.671875 0.71875,0.671875 0.78125,0 1.109375,-1.109375 1.109375,-1.21875 C 4.625,-1.21875 4.5625,-1.25 4.5,-1.25 c -0.09375,0 -0.109375,0.0625 -0.140625,0.140625 -0.1875,0.65625 -0.515625,0.96875 -0.828125,0.96875 -0.125,0 -0.1875,-0.078125 -0.1875,-0.265625 0,-0.1875 0.0625,-0.359375 0.140625,-0.5625 0.125,-0.296875 0.46875,-1.21875 0.46875,-1.65625 0,-0.609375 -0.40625,-0.890625 -0.984375,-0.890625 -0.4375,0 -0.859375,0.1875 -1.234375,0.609375 z m 0,0"
             id="path4" />
        </g>
      </g>
      <g
         fill="#000000"
         fill-opacity="1"
         id="g4"
         transform="matrix(0.352778,0,0,0.352778,-0.862939,-0.704056)">
        <g
           id="use3"
           transform="translate(6.8720002,8.7419996)">
          <path
             d="m 2.78125,-3.734375 c 0,-0.171875 -0.140625,-0.234375 -0.25,-0.234375 -0.1875,0 -0.328125,0.1875 -0.328125,0.328125 0,0.125 0.09375,0.234375 0.234375,0.234375 0.15625,0 0.34375,-0.140625 0.34375,-0.328125 z m -1.28125,4 c -0.109375,0.453125 -0.46875,0.75 -0.8125,0.75 C 0.671875,1.015625 0.5,1.015625 0.5,1 0.5,0.984375 0.515625,0.96875 0.515625,0.96875 0.609375,0.890625 0.65625,0.796875 0.65625,0.71875 c 0,-0.203125 -0.15625,-0.234375 -0.25,-0.234375 -0.15625,0 -0.328125,0.125 -0.328125,0.34375 0,0.328125 0.375,0.390625 0.609375,0.390625 C 1.09375,1.21875 1.8125,1 2,0.28125 l 0.53125,-2.140625 c 0.015625,-0.0625 0.03125,-0.125 0.03125,-0.203125 0,-0.34375 -0.296875,-0.578125 -0.6875,-0.578125 -0.671875,0 -1.09375,0.8125 -1.09375,0.921875 0,0.03125 0.03125,0.078125 0.109375,0.078125 0.078125,0 0.09375,-0.015625 0.125,-0.09375 C 1.203125,-2.125 1.53125,-2.4375 1.859375,-2.4375 c 0.1875,0 0.21875,0.140625 0.21875,0.296875 0,0.078125 0,0.15625 -0.015625,0.171875 z m 0,0"
             id="path5" />
        </g>
      </g>
    </g>
  </g>
</svg>
