<?xml version="1.0" encoding="UTF-8" standalone="no"?>
<!-- Created with Inkscape (http://www.inkscape.org/) -->

<svg
   width="160.15411mm"
   height="104.68504mm"
   viewBox="0 0 160.15411 104.68504"
   version="1.1"
   id="svg1"
   inkscape:version="1.3.2 (091e20ef0f, 2023-11-25)"
   sodipodi:docname="OAT_ilust.svg"
   xmlns:inkscape="http://www.inkscape.org/namespaces/inkscape"
   xmlns:sodipodi="http://sodipodi.sourceforge.net/DTD/sodipodi-0.dtd"
   xmlns="http://www.w3.org/2000/svg"
   xmlns:svg="http://www.w3.org/2000/svg">
  <sodipodi:namedview
     id="namedview1"
     pagecolor="#ffffff"
     bordercolor="#000000"
     borderopacity="0.25"
     inkscape:showpageshadow="2"
     inkscape:pageopacity="0.0"
     inkscape:pagecheckerboard="0"
     inkscape:deskcolor="#d1d1d1"
     inkscape:document-units="mm"
     inkscape:zoom="1.3808888"
     inkscape:cx="200.59544"
     inkscape:cy="200.23335"
     inkscape:window-width="1920"
     inkscape:window-height="1003"
     inkscape:window-x="1920"
     inkscape:window-y="40"
     inkscape:window-maximized="1"
     inkscape:current-layer="layer1" />
  <defs
     id="defs1">
    <marker
       style="overflow:visible"
       id="TriangleOutS-6"
       refX="0"
       refY="0"
       orient="auto"
       inkscape:stockid="TriangleOutS"
       inkscape:isstock="true"
       viewBox="0 0 2.1297632 2.462154"
       markerWidth="4.3250003"
       markerHeight="5"
       preserveAspectRatio="xMidYMid">
      <path
         transform="scale(0.2)"
         style="fill:context-stroke;fill-rule:evenodd;stroke:context-stroke;stroke-width:1pt"
         d="M 5.77,0 -2.88,5 V -5 Z"
         id="path20756-10" />
    </marker>
    <marker
       style="overflow:visible"
       id="marker1"
       refX="0"
       refY="0"
       orient="auto"
       inkscape:stockid="TriangleOutS"
       inkscape:isstock="true"
       viewBox="0 0 2.1297632 2.462154"
       markerWidth="4.3250003"
       markerHeight="5"
       preserveAspectRatio="xMidYMid">
      <path
         transform="scale(0.2)"
         style="fill:context-stroke;fill-rule:evenodd;stroke:context-stroke;stroke-width:1pt"
         d="M 5.77,0 -2.88,5 V -5 Z"
         id="path1" />
    </marker>
    <marker
       style="overflow:visible"
       id="marker10717"
       refX="0"
       refY="0"
       orient="auto"
       inkscape:stockid="Arrow2Send"
       inkscape:isstock="true"
       viewBox="0 0 3.4652294 2.5981128"
       markerWidth="5"
       markerHeight="5"
       preserveAspectRatio="xMidYMid">
      <path
         transform="matrix(-0.3,0,0,-0.3,0.69,0)"
         d="M 8.7185878,4.0337352 -2.2072895,0.01601326 8.7185884,-4.0017078 c -1.7454984,2.3720609 -1.7354408,5.6174519 -6e-7,8.035443 z"
         style="fill:context-stroke;fill-rule:evenodd;stroke:context-stroke;stroke-width:0.625;stroke-linejoin:round"
         id="path10469" />
    </marker>
    <marker
       style="overflow:visible"
       id="marker2"
       refX="0"
       refY="0"
       orient="auto"
       inkscape:stockid="Arrow2Send"
       inkscape:isstock="true"
       viewBox="0 0 3.4652294 2.5981128"
       markerWidth="5"
       markerHeight="5"
       preserveAspectRatio="xMidYMid">
      <path
         transform="matrix(-0.3,0,0,-0.3,0.69,0)"
         d="M 8.7185878,4.0337352 -2.2072895,0.01601326 8.7185884,-4.0017078 c -1.7454984,2.3720609 -1.7354408,5.6174519 -6e-7,8.035443 z"
         style="fill:context-stroke;fill-rule:evenodd;stroke:context-stroke;stroke-width:0.625;stroke-linejoin:round"
         id="path2" />
    </marker>
    <marker
       style="overflow:visible"
       id="marker3"
       refX="0"
       refY="0"
       orient="auto"
       inkscape:stockid="Arrow2Send"
       inkscape:isstock="true"
       viewBox="0 0 3.4652294 2.5981128"
       markerWidth="5"
       markerHeight="5"
       preserveAspectRatio="xMidYMid">
      <path
         transform="matrix(-0.3,0,0,-0.3,0.69,0)"
         d="M 8.7185878,4.0337352 -2.2072895,0.01601326 8.7185884,-4.0017078 c -1.7454984,2.3720609 -1.7354408,5.6174519 -6e-7,8.035443 z"
         style="fill:context-stroke;fill-rule:evenodd;stroke:context-stroke;stroke-width:0.625;stroke-linejoin:round"
         id="path3" />
    </marker>
    <marker
       style="overflow:visible"
       id="marker4"
       refX="0"
       refY="0"
       orient="auto"
       inkscape:stockid="Arrow2Send"
       inkscape:isstock="true"
       viewBox="0 0 3.4652294 2.5981128"
       markerWidth="5"
       markerHeight="5"
       preserveAspectRatio="xMidYMid">
      <path
         transform="matrix(-0.3,0,0,-0.3,0.69,0)"
         d="M 8.7185878,4.0337352 -2.2072895,0.01601326 8.7185884,-4.0017078 c -1.7454984,2.3720609 -1.7354408,5.6174519 -6e-7,8.035443 z"
         style="fill:context-stroke;fill-rule:evenodd;stroke:context-stroke;stroke-width:0.625;stroke-linejoin:round"
         id="path4" />
    </marker>
    <marker
       style="overflow:visible"
       id="marker5"
       refX="0"
       refY="0"
       orient="auto"
       inkscape:stockid="Arrow2Send"
       inkscape:isstock="true"
       viewBox="0 0 3.4652294 2.5981128"
       markerWidth="5"
       markerHeight="5"
       preserveAspectRatio="xMidYMid">
      <path
         transform="matrix(-0.3,0,0,-0.3,0.69,0)"
         d="M 8.7185878,4.0337352 -2.2072895,0.01601326 8.7185884,-4.0017078 c -1.7454984,2.3720609 -1.7354408,5.6174519 -6e-7,8.035443 z"
         style="fill:context-stroke;fill-rule:evenodd;stroke:context-stroke;stroke-width:0.625;stroke-linejoin:round"
         id="path5" />
    </marker>
    <marker
       style="overflow:visible"
       id="marker6"
       refX="0"
       refY="0"
       orient="auto"
       inkscape:stockid="Arrow2Send"
       inkscape:isstock="true"
       viewBox="0 0 3.4652294 2.5981128"
       markerWidth="5"
       markerHeight="5"
       preserveAspectRatio="xMidYMid">
      <path
         transform="matrix(-0.3,0,0,-0.3,0.69,0)"
         d="M 8.7185878,4.0337352 -2.2072895,0.01601326 8.7185884,-4.0017078 c -1.7454984,2.3720609 -1.7354408,5.6174519 -6e-7,8.035443 z"
         style="fill:context-stroke;fill-rule:evenodd;stroke:context-stroke;stroke-width:0.625;stroke-linejoin:round"
         id="path6" />
    </marker>
    <marker
       style="overflow:visible"
       id="marker7"
       refX="0"
       refY="0"
       orient="auto"
       inkscape:stockid="Arrow2Send"
       inkscape:isstock="true"
       viewBox="0 0 3.4652294 2.5981128"
       markerWidth="5"
       markerHeight="5"
       preserveAspectRatio="xMidYMid">
      <path
         transform="matrix(-0.3,0,0,-0.3,0.69,0)"
         d="M 8.7185878,4.0337352 -2.2072895,0.01601326 8.7185884,-4.0017078 c -1.7454984,2.3720609 -1.7354408,5.6174519 -6e-7,8.035443 z"
         style="fill:context-stroke;fill-rule:evenodd;stroke:context-stroke;stroke-width:0.625;stroke-linejoin:round"
         id="path7" />
    </marker>
    <marker
       style="overflow:visible"
       id="marker8"
       refX="0"
       refY="0"
       orient="auto"
       inkscape:stockid="Arrow2Send"
       inkscape:isstock="true"
       viewBox="0 0 3.4652294 2.5981128"
       markerWidth="5"
       markerHeight="5"
       preserveAspectRatio="xMidYMid">
      <path
         transform="matrix(-0.3,0,0,-0.3,0.69,0)"
         d="M 8.7185878,4.0337352 -2.2072895,0.01601326 8.7185884,-4.0017078 c -1.7454984,2.3720609 -1.7354408,5.6174519 -6e-7,8.035443 z"
         style="fill:context-stroke;fill-rule:evenodd;stroke:context-stroke;stroke-width:0.625;stroke-linejoin:round"
         id="path8" />
    </marker>
  </defs>
  <g
     inkscape:label="Layer 1"
     inkscape:groupmode="layer"
     id="layer1"
     transform="translate(-23.899737,-17.591156)">
    <ellipse
       style="display:inline;fill:none;stroke:#000000;stroke-width:0.706001;stroke-linecap:round;stroke-linejoin:round;paint-order:fill markers stroke"
       id="path168540"
       cx="67.701347"
       cy="78.474586"
       rx="26.279995"
       ry="30.451883" />
    <ellipse
       style="display:inline;fill:none;stroke:#000000;stroke-width:0.706001;stroke-linecap:round;stroke-linejoin:round;paint-order:fill markers stroke"
       id="ellipse168695"
       cx="67.701347"
       cy="78.474586"
       rx="13.139994"
       ry="30.451883" />
    <circle
       style="display:inline;fill:none;stroke:#000000;stroke-width:0.757416;stroke-linecap:round;stroke-linejoin:round;paint-order:fill markers stroke"
       id="path123130-9"
       cx="67.701347"
       cy="78.474586"
       r="30.71747" />
    <path
       style="display:inline;fill:none;stroke:#000000;stroke-width:0.757416;stroke-linecap:round;stroke-linejoin:round;marker-end:url(#TriangleOutS-6);paint-order:fill markers stroke"
       d="M 67.701355,121.89748 V 35.051671"
       id="path123186-4" />
    <path
       style="display:inline;fill:none;stroke:#000000;stroke-width:0.757416;stroke-linecap:round;stroke-linejoin:round;marker-end:url(#TriangleOutS-6);paint-order:fill markers stroke"
       d="M 24.278445,78.474571 H 111.12425"
       id="path155575-9" />
    <path
       id="path117131"
       style="color:#000000;display:inline;fill:#1f7dad;fill-opacity:1;fill-rule:evenodd;stroke-width:0.0284172;stroke-linecap:butt;stroke-linejoin:round;-inkscape-stroke:none"
       d="m 65.416945,47.842361 a 30.71747,30.71747 0 0 0 -4.31188,0.63976 c 0.13473,0.38279 0.23855,0.77355 0.30954,1.1684 h -4.27829 a 30.71747,30.71747 0 0 0 -5.43688,2.6262 h 9.71724 c -0.19268,1.07307 -0.62378,2.10942 -1.2976,3.02514 a 0.35525173,0.35525173 0 0 0 0.40928,0.54312 l 2.68873,-0.98857 c 0.22339,0.43241 0.37703,0.88968 0.46095,1.35599 h -17.12505 a 30.71747,30.71747 0 0 0 -1.63711,1.68051 h 18.76371 c -0.12327,0.68702 -0.39947,1.35047 -0.83096,1.93684 a 0.22736045,0.22736045 0 0 0 0.26149,0.34778 l 6.21305,-2.28462 h 21.17701 a 30.71747,30.71747 0 0 0 -1.63711,-1.68051 h -19.4784 l -4.92735,-1.81178 5.77639,-2.1239 h 13.50254 a 30.71747,30.71747 0 0 0 -5.42344,-2.6262 h -7.97781 z m -0.34365,13.52321 a 0.12789038,0.12789038 0 0 0 -0.10231,0.20154 c 0.24196,0.33713 0.39775,0.71506 0.46767,1.10381 h -24.06003 a 30.71747,30.71747 0 0 0 -0.54416,0.94567 h 24.60522 c -0.0693,0.38614 -0.22466,0.75876 -0.46715,1.08831 a 0.12789038,0.12789038 0 0 0 0.14624,0.19585 l 3.49281,-1.28416 h 25.97206 a 30.71747,30.71747 0 0 0 -0.5426,-0.94567 h -25.39174 l -3.53053,-1.29812 a 0.12789038,0.12789038 0 0 0 -0.0455,-0.007 z m 1.46038,7.07709 v 5.1e-4 a 0.05684034,0.05684034 0 0 0 -0.046,0.0894 c 0.10754,0.14984 0.17676,0.31817 0.20774,0.49093 h -28.2081 a 30.71747,30.71747 0 0 0 -0.14521,0.42013 h 28.35331 c -0.0309,0.17155 -0.10001,0.33726 -0.20774,0.48369 a 0.05684034,0.05684034 0 0 0 0.0667,0.0873 l 1.55236,-0.57102 h 28.95224 a 30.71747,30.71747 0 0 0 -0.13178,-0.42013 h -28.80392 l -1.5689,-0.57671 a 0.05684034,0.05684034 0 0 0 -0.0207,-0.004 z m 0.87592,6.68228 a 0.01421004,0.01421004 0 0 0 -0.0109,0.0233 c 0.0267,0.0372 0.0438,0.0791 0.0517,0.12196 h -30.27823 a 30.71747,30.71747 0 0 0 -0.0119,0.10593 h 30.29014 c -0.008,0.043 -0.0247,0.0842 -0.0517,0.12093 a 0.01421004,0.01421004 0 0 0 0.016,0.0222 l 0.38654,-0.14315 h 30.46016 a 30.71747,30.71747 0 0 0 -0.0109,-0.10593 h -30.44672 l -0.38913,-0.14418 a 0.01421004,0.01421004 0 0 0 -0.005,-0.001 z m 0.0109,0.0336 h 5.1e-4 l 0.001,5.1e-4 c 0.0214,0.0348 0.0351,0.0723 0.0419,0.11111 h -0.002 c -0.007,-0.0383 -0.0205,-0.0763 -0.0413,-0.11162 z m 0.0413,0.21755 h 5.2e-4 0.002 c -0.007,0.0386 -0.0205,0.0759 -0.0419,0.11007 l -0.002,5.2e-4 c 0.0211,-0.0349 0.0348,-0.0722 0.0413,-0.11059 z"
       inkscape:transform-center-x="-0.00951"
       inkscape:transform-center-y="-16.79335" />
    <g
       id="g240632"
       transform="matrix(0.66666994,0,0,0.66666994,-28.672825,-230.12181)"
       style="display:inline;stroke-linecap:butt;stroke-linejoin:round">
      <rect
         style="fill:none;stroke:#000000;stroke-width:0.705556;stroke-linecap:round;stroke-linejoin:round;stroke-dasharray:none;stroke-dashoffset:0;paint-order:fill markers stroke"
         id="rect235814"
         width="52.560005"
         height="52.560005"
         x="236.53998"
         y="382.46997" />
      <path
         style="fill:none;stroke:#000000;stroke-width:0.705556;stroke-linecap:round;stroke-linejoin:round;stroke-dasharray:none;stroke-dashoffset:0;marker-end:url(#marker10717);paint-order:fill markers stroke"
         d="m 227.06656,382.50307 h 6.82758"
         id="path235816"
         inkscape:transform-center-x="32.339646"
         inkscape:transform-center-y="-26.24692" />
      <path
         style="fill:none;stroke:#000000;stroke-width:0.705556;stroke-linecap:round;stroke-linejoin:round;stroke-dasharray:none;stroke-dashoffset:0;marker-end:url(#marker10717);paint-order:fill markers stroke"
         d="m 298.57343,434.99691 h -6.82758"
         id="path236272"
         inkscape:transform-center-x="-32.339644"
         inkscape:transform-center-y="26.24692" />
      <path
         style="fill:none;stroke:#000000;stroke-width:0.705556;stroke-linecap:round;stroke-linejoin:round;stroke-dasharray:none;stroke-dashoffset:0;marker-end:url(#marker10717);paint-order:fill markers stroke"
         d="m 291.07845,382.50985 h 6.82758"
         id="path236276" />
      <path
         style="fill:none;stroke:#000000;stroke-width:0.705556;stroke-linecap:round;stroke-linejoin:round;stroke-dasharray:none;stroke-dashoffset:0;marker-end:url(#marker10717);paint-order:fill markers stroke"
         d="m 234.56154,434.99013 h -6.82758"
         id="path236280" />
      <circle
         style="fill:none;stroke:#53257f;stroke-width:0.704997;stroke-linecap:round;stroke-linejoin:round;stroke-dasharray:none;stroke-dashoffset:0;stroke-opacity:1;paint-order:fill markers stroke"
         id="path235656"
         cx="262.81998"
         cy="408.74997"
         r="26.279993" />
    </g>
    <g
       id="g352545"
       transform="matrix(0.66666994,0,-0.57665264,0.66666994,205.01949,-176.50665)"
       style="display:inline;stroke-linecap:butt;stroke-linejoin:round">
      <rect
         style="fill:none;stroke:#000000;stroke-width:0.705556;stroke-linecap:round;stroke-linejoin:round;stroke-dasharray:none;stroke-dashoffset:0;paint-order:fill markers stroke"
         id="rect352533"
         width="52.560005"
         height="52.560005"
         x="236.53998"
         y="382.46997" />
      <path
         style="fill:none;stroke:#000000;stroke-width:0.705556;stroke-linecap:round;stroke-linejoin:round;stroke-dasharray:none;stroke-dashoffset:0;marker-end:url(#marker10717);paint-order:fill markers stroke"
         d="m 227.06656,382.50307 h 6.82758"
         id="path352535"
         inkscape:transform-center-x="32.339646"
         inkscape:transform-center-y="-26.24692" />
      <path
         style="fill:none;stroke:#000000;stroke-width:0.705556;stroke-linecap:round;stroke-linejoin:round;stroke-dasharray:none;stroke-dashoffset:0;marker-end:url(#marker10717);paint-order:fill markers stroke"
         d="m 298.57343,434.99691 h -6.82758"
         id="path352537"
         inkscape:transform-center-x="-32.339644"
         inkscape:transform-center-y="26.24692" />
      <path
         style="fill:none;stroke:#000000;stroke-width:0.705556;stroke-linecap:round;stroke-linejoin:round;stroke-dasharray:none;stroke-dashoffset:0;marker-end:url(#marker10717);paint-order:fill markers stroke"
         d="m 291.07845,382.50985 h 6.82758"
         id="path352539" />
      <path
         style="fill:none;stroke:#000000;stroke-width:0.705556;stroke-linecap:round;stroke-linejoin:round;stroke-dasharray:none;stroke-dashoffset:0;marker-end:url(#marker10717);paint-order:fill markers stroke"
         d="m 234.56154,434.99013 h -6.82758"
         id="path352541" />
      <path
         id="circle352543"
         style="fill:none;stroke:#53257f;stroke-width:0.705556;stroke-linecap:round;stroke-linejoin:round;stroke-opacity:1;paint-order:fill markers stroke"
         d="m 289.09997,408.74997 a 26.279993,26.279993 0 0 1 -26.27999,26.27999 26.279993,26.279993 0 0 1 -26.28,-26.27999 26.279993,26.279993 0 0 1 26.28,-26.27999 26.279993,26.279993 0 0 1 26.27999,26.27999 z" />
    </g>
    <path
       id="path117200"
       style="color:#000000;display:inline;fill:#1f7dad;fill-opacity:1;fill-rule:evenodd;stroke-width:0.0284172;stroke-linecap:butt;stroke-linejoin:round;-inkscape-stroke:none"
       d="m 69.985705,109.10683 a 30.71747,30.71747 0 0 0 4.31188,-0.63976 c -0.13473,-0.38279 -0.23855,-0.77355 -0.30954,-1.1684 h 4.27829 a 30.71747,30.71747 0 0 0 5.43688,-2.6262 h -9.71724 c 0.19268,-1.07307 0.62378,-2.10942 1.2976,-3.02514 a 0.35525173,0.35525173 0 0 0 -0.40928,-0.54312 l -2.68873,0.98857 c -0.22339,-0.43241 -0.37703,-0.88968 -0.46095,-1.35599 h 17.12505 a 30.71747,30.71747 0 0 0 1.63711,-1.680509 h -18.76371 c 0.12327,-0.68702 0.39947,-1.35047 0.83096,-1.93684 a 0.22736045,0.22736045 0 0 0 -0.26149,-0.34778 l -6.21305,2.28462 h -21.17701 a 30.71747,30.71747 0 0 0 1.63711,1.680509 h 19.4784 l 4.92735,1.81178 -5.77639,2.1239 h -13.50254 a 30.71747,30.71747 0 0 0 5.42344,2.6262 h 7.97781 z m 0.34365,-13.523209 a 0.12789038,0.12789038 0 0 0 0.10231,-0.20154 c -0.24196,-0.33713 -0.39775,-0.71506 -0.46767,-1.10381 h 24.06003 a 30.71747,30.71747 0 0 0 0.54416,-0.94567 h -24.60522 c 0.0693,-0.38614 0.22466,-0.75876 0.46715,-1.08831 a 0.12789038,0.12789038 0 0 0 -0.14624,-0.19585 l -3.49281,1.28416 h -25.97206 a 30.71747,30.71747 0 0 0 0.5426,0.94567 h 25.39174 l 3.53053,1.29812 a 0.12789038,0.12789038 0 0 0 0.0455,0.007 z m -1.46038,-7.07709 v -5.1e-4 a 0.05684034,0.05684034 0 0 0 0.046,-0.0894 c -0.10754,-0.14984 -0.17676,-0.31817 -0.20774,-0.49093 h 28.2081 a 30.71747,30.71747 0 0 0 0.14521,-0.42013 h -28.35331 c 0.0309,-0.17155 0.10001,-0.33726 0.20774,-0.48369 a 0.05684034,0.05684034 0 0 0 -0.0667,-0.0873 l -1.55236,0.57102 h -28.95224 a 30.71747,30.71747 0 0 0 0.13178,0.42013 h 28.80392 l 1.5689,0.57671 a 0.05684034,0.05684034 0 0 0 0.0207,0.004 z m -0.87592,-6.68228 a 0.01421004,0.01421004 0 0 0 0.0109,-0.0233 c -0.0267,-0.0372 -0.0438,-0.0791 -0.0517,-0.12196 h 30.27823 a 30.71747,30.71747 0 0 0 0.0119,-0.10593 h -30.29014 c 0.008,-0.043 0.0247,-0.0842 0.0517,-0.12093 a 0.01421004,0.01421004 0 0 0 -0.016,-0.0222 l -0.38654,0.14315 h -30.46016 a 30.71747,30.71747 0 0 0 0.0109,0.10593 h 30.44672 l 0.38913,0.14418 a 0.01421004,0.01421004 0 0 0 0.005,0.001 z m -0.0109,-0.0336 h -5.1e-4 l -0.001,-5.1e-4 c -0.0214,-0.0348 -0.0351,-0.0723 -0.0419,-0.11111 h 0.002 c 0.007,0.0383 0.0205,0.0763 0.0413,0.11162 z m -0.0413,-0.21755 h -5.2e-4 -0.002 c 0.007,-0.0386 0.0205,-0.0759 0.0419,-0.11007 l 0.002,-5.2e-4 c -0.0211,0.0349 -0.0348,0.0722 -0.0413,0.11059 z"
       inkscape:transform-center-x="0.00951"
       inkscape:transform-center-y="16.793353" />
    <g
       inkscape:label=""
       transform="matrix(1.4043667,0,0,1.4043667,61.827353,17.591155)"
       id="g21"
       style="fill:#1f7dad;fill-opacity:1">
      <g
         fill="#000000"
         fill-opacity="1"
         id="g14"
         transform="matrix(0.352778,0,0,0.352778,-1.14957,-0.706217)"
         style="fill:#1f7dad;fill-opacity:1">
        <g
           id="g13"
           transform="translate(6.5159998,19.205)"
           style="fill:#1f7dad;fill-opacity:1">
          <path
             d="m 5.671875,-17.203125 -3.046875,3.375 0.296875,0.296875 2.75,-2.671875 2.75,2.671875 0.296875,-0.296875 z m 0,0"
             id="path13"
             style="fill:#1f7dad;fill-opacity:1" />
        </g>
      </g>
      <g
         fill="#000000"
         fill-opacity="1"
         id="g16"
         transform="matrix(0.352778,0,0,0.352778,-1.14957,-0.706217)"
         style="fill:#1f7dad;fill-opacity:1">
        <g
           id="g15"
           transform="translate(1.993,25.473)"
           style="fill:#1f7dad;fill-opacity:1">
          <path
             d="m 15.734375,-17.21875 c 0,-0.234375 -0.171875,-0.234375 -0.21875,-0.234375 -0.109375,0 -0.125,0.03125 -0.421875,0.40625 -0.15625,0.171875 -1.171875,1.453125 -1.1875,1.484375 -0.828125,-1.609375 -2.453125,-1.890625 -3.5,-1.890625 -3.140625,0 -6,2.875 -6,5.6875 0,1.859375 1.125,2.9375 2.328125,3.359375 0.28125,0.109375 1.734375,0.5 2.484375,0.671875 1.265625,0.34375 1.578125,0.453125 2.109375,1 0.09375,0.125 0.59375,0.6875 0.59375,1.859375 0,2.296875 -2.140625,4.671875 -4.609375,4.671875 -2.03125,0 -4.296875,-0.859375 -4.296875,-3.640625 0,-0.46875 0.109375,-1.0625 0.1875,-1.3125 0,-0.078125 0.015625,-0.203125 0.015625,-0.25 0,-0.09375 -0.046875,-0.21875 -0.25,-0.21875 -0.21875,0 -0.25,0.046875 -0.34375,0.46875 l -1.265625,5.078125 c 0,0.03125 -0.09375,0.34375 -0.09375,0.375 0,0.21875 0.203125,0.21875 0.25,0.21875 0.09375,0 0.125,-0.015625 0.421875,-0.390625 l 1.140625,-1.484375 c 0.59375,0.890625 1.875,1.875 4.1875,1.875 3.1875,0 6.109375,-3.09375 6.109375,-6.1875 0,-1.046875 -0.234375,-1.953125 -1.1875,-2.875 C 11.671875,-9.0625 11.21875,-9.1875 8.953125,-9.78125 7.28125,-10.234375 7.0625,-10.3125 6.609375,-10.703125 6.1875,-11.125 5.875,-11.71875 5.875,-12.5625 c 0,-2.078125 2.109375,-4.21875 4.453125,-4.21875 2.4375,0 3.578125,1.484375 3.578125,3.84375 0,0.640625 -0.125,1.3125 -0.125,1.421875 0,0.21875 0.203125,0.21875 0.265625,0.21875 0.234375,0 0.25,-0.07813 0.34375,-0.46875 z m 0,0"
             id="path14"
             style="fill:#1f7dad;fill-opacity:1" />
        </g>
      </g>
      <g
         fill="#000000"
         fill-opacity="1"
         id="g18"
         transform="matrix(0.352778,0,0,0.352778,-1.14957,-0.706217)"
         style="fill:#1f7dad;fill-opacity:1">
        <g
           id="g17"
           transform="translate(18.362,16.478001)"
           style="fill:#1f7dad;fill-opacity:1">
          <path
             d="m 8.609375,-3.203125 h -0.375 c -0.203125,1.46875 -0.359375,1.71875 -0.453125,1.84375 -0.09375,0.15625 -1.578125,0.15625 -1.875,0.15625 H 1.9375 C 2.6875,-2 4.125,-3.46875 5.890625,-5.171875 c 1.25,-1.1875 2.71875,-2.59375 2.71875,-4.640625 0,-2.4375 -1.9375,-3.84375 -4.109375,-3.84375 -2.265625,0 -3.65625,2 -3.65625,3.859375 0,0.8125 0.609375,0.921875 0.84375,0.921875 0.21875,0 0.828125,-0.125 0.828125,-0.859375 0,-0.640625 -0.53125,-0.828125 -0.828125,-0.828125 -0.125,0 -0.234375,0.03125 -0.328125,0.0625 0.390625,-1.75 1.59375,-2.609375 2.859375,-2.609375 1.796875,0 2.96875,1.421875 2.96875,3.296875 0,1.796875 -1.046875,3.34375 -2.234375,4.6875 L 0.84375,-0.46875 V 0 H 8.125 Z m 0,0"
             id="path16"
             style="fill:#1f7dad;fill-opacity:1" />
        </g>
      </g>
      <g
         fill="#000000"
         fill-opacity="1"
         id="g20"
         transform="matrix(0.352778,0,0,0.352778,-1.14957,-0.706217)"
         style="fill:#1f7dad;fill-opacity:1">
        <g
           id="g19"
           transform="translate(16.919001,31.6)"
           style="fill:#1f7dad;fill-opacity:1">
          <path
             d="M 2.625,-1.671875 C 3.515625,-2.6875 4.234375,-3.328125 5.265625,-4.25 6.5,-5.328125 7.046875,-5.84375 7.328125,-6.15625 8.78125,-7.578125 9.5,-8.78125 9.5,-8.9375 9.5,-9.109375 9.34375,-9.109375 9.296875,-9.109375 9.15625,-9.109375 9.109375,-9.03125 9,-8.875 8.484375,-8 8,-7.5625 7.453125,-7.5625 c -0.4375,0 -0.65625,-0.1875 -1.046875,-0.671875 -0.4375,-0.53125 -0.78125,-0.875 -1.390625,-0.875 -1.5,0 -2.40625,1.875 -2.40625,2.3125 0,0.0625 0.015625,0.1875 0.203125,0.1875 0.15625,0 0.1875,-0.078125 0.25,-0.234375 0.34375,-0.8125 1.34375,-0.96875 1.734375,-0.96875 0.421875,0 0.84375,0.15625 1.28125,0.328125 0.78125,0.34375 1.109375,0.34375 1.3125,0.34375 0.15625,0 0.234375,0 0.328125,-0.03125 C 7.046875,-6.359375 5.921875,-5.375 5,-4.53125 l -2.09375,1.921875 c -1.25,1.28125 -2.015625,2.5 -2.015625,2.65625 0,0.125 0.09375,0.15625 0.21875,0.15625 0.125,0 0.15625,-0.015625 0.296875,-0.265625 0.328125,-0.515625 0.984375,-1.28125 1.75,-1.28125 0.4375,0 0.640625,0.140625 1.0625,0.65625 0.390625,0.453125 0.734375,0.890625 1.40625,0.890625 2.015625,0 3.171875,-2.625 3.171875,-3.09375 0,-0.078125 -0.015625,-0.203125 -0.21875,-0.203125 -0.171875,0 -0.1875,0.078125 -0.25,0.28125 C 7.875,-1.59375 6.65625,-1.09375 5.84375,-1.09375 5.40625,-1.09375 5,-1.234375 4.5625,-1.421875 3.734375,-1.75 3.515625,-1.75 3.25,-1.75 c -0.21875,0 -0.4375,0 -0.625,0.078125 z m 0,0"
             id="path18"
             style="fill:#1f7dad;fill-opacity:1" />
        </g>
      </g>
    </g>
  </g>
</svg>
