<?xml version="1.0" encoding="utf-8" standalone="no"?>
<!DOCTYPE svg PUBLIC "-//W3C//DTD SVG 1.1//EN"
  "http://www.w3.org/Graphics/SVG/1.1/DTD/svg11.dtd">
<svg xmlns:xlink="http://www.w3.org/1999/xlink" width="244.8pt" height="151.295093pt" viewBox="0 0 244.8 151.295093" xmlns="http://www.w3.org/2000/svg" version="1.1">
 <metadata>
  <rdf:RDF xmlns:dc="http://purl.org/dc/elements/1.1/" xmlns:cc="http://creativecommons.org/ns#" xmlns:rdf="http://www.w3.org/1999/02/22-rdf-syntax-ns#">
   <cc:Work>
    <dc:type rdf:resource="http://purl.org/dc/dcmitype/StillImage"/>
    <dc:date>2025-10-06T16:36:41.129029</dc:date>
    <dc:format>image/svg+xml</dc:format>
    <dc:creator>
     <cc:Agent>
      <dc:title>Matplotlib v3.10.0, https://matplotlib.org/</dc:title>
     </cc:Agent>
    </dc:creator>
   </cc:Work>
  </rdf:RDF>
 </metadata>
 <defs>
  <style type="text/css">*{stroke-linejoin: round; stroke-linecap: butt}</style>
 </defs>
 <g id="figure_1">
  <g id="patch_1">
   <path d="M 0 151.295093 
L 244.8 151.295093 
L 244.8 0 
L 0 0 
L 0 151.295093 
z
" style="fill: none"/>
  </g>
  <g id="axes_1">
   <g id="patch_2">
    <path d="M 25.038347 126.86374 
L 237.113046 126.86374 
L 237.113046 0.72 
L 25.038347 0.72 
z
" style="fill: #ffffff"/>
   </g>
   <g id="matplotlib.axis_1">
    <g id="xtick_1">
     <g id="line2d_1">
      <defs>
       <path id="m3da770095d" d="M 0 0 
L 0 3.5 
" style="stroke: #000000; stroke-width: 0.8"/>
      </defs>
      <g>
       <use xlink:href="#m3da770095d" x="79.960726" y="126.86374" style="stroke: #000000; stroke-width: 0.8"/>
      </g>
     </g>
     <g id="text_1">
      <!-- $\mathdefault{10^{1}}$ -->
      <g transform="translate(72.993772 138.782238) scale(0.1 -0.1)">
       <defs>
        <path id="CMR17-31" d="M 1702 4083 
C 1702 4217 1696 4224 1606 4224 
C 1357 3927 979 3833 621 3820 
C 602 3820 570 3820 563 3808 
C 557 3795 557 3782 557 3648 
C 755 3648 1088 3686 1344 3839 
L 1344 467 
C 1344 243 1331 166 781 166 
L 589 166 
L 589 0 
C 896 6 1216 12 1523 12 
C 1830 12 2150 6 2458 0 
L 2458 166 
L 2266 166 
C 1715 166 1702 236 1702 467 
L 1702 4083 
z
" transform="scale(0.015625)"/>
        <path id="CMR17-30" d="M 2688 2038 
C 2688 2430 2682 3099 2413 3613 
C 2176 4063 1798 4224 1466 4224 
C 1158 4224 768 4082 525 3620 
C 269 3137 243 2539 243 2038 
C 243 1671 250 1112 448 623 
C 723 -39 1216 -128 1466 -128 
C 1760 -128 2208 -7 2470 604 
C 2662 1048 2688 1568 2688 2038 
z
M 1466 -26 
C 1056 -26 813 328 723 816 
C 653 1196 653 1749 653 2109 
C 653 2604 653 3015 736 3407 
C 858 3954 1216 4121 1466 4121 
C 1728 4121 2067 3947 2189 3420 
C 2272 3054 2278 2623 2278 2109 
C 2278 1691 2278 1176 2202 797 
C 2067 96 1690 -26 1466 -26 
z
" transform="scale(0.015625)"/>
       </defs>
       <use xlink:href="#CMR17-31" transform="scale(0.996264)"/>
       <use xlink:href="#CMR17-30" transform="translate(45.690477 0) scale(0.996264)"/>
       <use xlink:href="#CMR17-31" transform="translate(91.380954 36.153639) scale(0.697382)"/>
      </g>
     </g>
    </g>
    <g id="xtick_2">
     <g id="line2d_2">
      <g>
       <use xlink:href="#m3da770095d" x="158.536886" y="126.86374" style="stroke: #000000; stroke-width: 0.8"/>
      </g>
     </g>
     <g id="text_2">
      <!-- $\mathdefault{10^{2}}$ -->
      <g transform="translate(151.569932 138.782238) scale(0.1 -0.1)">
       <defs>
        <path id="CMR17-32" d="M 2669 990 
L 2554 990 
C 2490 537 2438 460 2413 422 
C 2381 371 1920 371 1830 371 
L 602 371 
C 832 620 1280 1073 1824 1596 
C 2214 1966 2669 2400 2669 3033 
C 2669 3788 2067 4224 1395 4224 
C 691 4224 262 3603 262 3027 
C 262 2777 448 2745 525 2745 
C 589 2745 781 2783 781 3007 
C 781 3206 614 3264 525 3264 
C 486 3264 448 3257 422 3244 
C 544 3788 915 4057 1306 4057 
C 1862 4057 2227 3616 2227 3033 
C 2227 2477 1901 1998 1536 1583 
L 262 147 
L 262 0 
L 2515 0 
L 2669 990 
z
" transform="scale(0.015625)"/>
       </defs>
       <use xlink:href="#CMR17-31" transform="scale(0.996264)"/>
       <use xlink:href="#CMR17-30" transform="translate(45.690477 0) scale(0.996264)"/>
       <use xlink:href="#CMR17-32" transform="translate(91.380954 36.153639) scale(0.697382)"/>
      </g>
     </g>
    </g>
    <g id="xtick_3">
     <g id="line2d_3">
      <g>
       <use xlink:href="#m3da770095d" x="237.113046" y="126.86374" style="stroke: #000000; stroke-width: 0.8"/>
      </g>
     </g>
     <g id="text_3">
      <!-- $\mathdefault{10^{3}}$ -->
      <g transform="translate(230.146092 138.782238) scale(0.1 -0.1)">
       <defs>
        <path id="CMR17-33" d="M 1414 2176 
C 1984 2176 2234 1673 2234 1094 
C 2234 322 1824 25 1453 25 
C 1114 25 563 193 390 691 
C 422 678 454 678 486 678 
C 640 678 755 780 755 947 
C 755 1132 614 1216 486 1216 
C 378 1216 211 1164 211 927 
C 211 335 787 -128 1466 -128 
C 2176 -128 2720 432 2720 1087 
C 2720 1718 2208 2176 1600 2246 
C 2086 2347 2554 2776 2554 3353 
C 2554 3856 2048 4224 1472 4224 
C 890 4224 378 3862 378 3347 
C 378 3123 544 3084 627 3084 
C 762 3084 877 3167 877 3334 
C 877 3500 762 3584 627 3584 
C 602 3584 570 3584 544 3571 
C 730 3999 1235 4076 1459 4076 
C 1683 4076 2106 3966 2106 3347 
C 2106 3167 2080 2851 1862 2574 
C 1670 2329 1453 2316 1242 2297 
C 1210 2297 1062 2284 1037 2284 
C 992 2278 966 2272 966 2227 
C 966 2182 973 2176 1101 2176 
L 1414 2176 
z
" transform="scale(0.015625)"/>
       </defs>
       <use xlink:href="#CMR17-31" transform="scale(0.996264)"/>
       <use xlink:href="#CMR17-30" transform="translate(45.690477 0) scale(0.996264)"/>
       <use xlink:href="#CMR17-33" transform="translate(91.380954 36.153639) scale(0.697382)"/>
      </g>
     </g>
    </g>
    <g id="xtick_4">
     <g id="line2d_4">
      <defs>
       <path id="m8598e2fdf5" d="M 0 0 
L 0 2 
" style="stroke: #000000; stroke-width: 0.6"/>
      </defs>
      <g>
       <use xlink:href="#m8598e2fdf5" x="25.038347" y="126.86374" style="stroke: #000000; stroke-width: 0.6"/>
      </g>
     </g>
    </g>
    <g id="xtick_5">
     <g id="line2d_5">
      <g>
       <use xlink:href="#m8598e2fdf5" x="38.874922" y="126.86374" style="stroke: #000000; stroke-width: 0.6"/>
      </g>
     </g>
    </g>
    <g id="xtick_6">
     <g id="line2d_6">
      <g>
       <use xlink:href="#m8598e2fdf5" x="48.692128" y="126.86374" style="stroke: #000000; stroke-width: 0.6"/>
      </g>
     </g>
    </g>
    <g id="xtick_7">
     <g id="line2d_7">
      <g>
       <use xlink:href="#m8598e2fdf5" x="56.306945" y="126.86374" style="stroke: #000000; stroke-width: 0.6"/>
      </g>
     </g>
    </g>
    <g id="xtick_8">
     <g id="line2d_8">
      <g>
       <use xlink:href="#m8598e2fdf5" x="62.528703" y="126.86374" style="stroke: #000000; stroke-width: 0.6"/>
      </g>
     </g>
    </g>
    <g id="xtick_9">
     <g id="line2d_9">
      <g>
       <use xlink:href="#m8598e2fdf5" x="67.789125" y="126.86374" style="stroke: #000000; stroke-width: 0.6"/>
      </g>
     </g>
    </g>
    <g id="xtick_10">
     <g id="line2d_10">
      <g>
       <use xlink:href="#m8598e2fdf5" x="72.345909" y="126.86374" style="stroke: #000000; stroke-width: 0.6"/>
      </g>
     </g>
    </g>
    <g id="xtick_11">
     <g id="line2d_11">
      <g>
       <use xlink:href="#m8598e2fdf5" x="76.365278" y="126.86374" style="stroke: #000000; stroke-width: 0.6"/>
      </g>
     </g>
    </g>
    <g id="xtick_12">
     <g id="line2d_12">
      <g>
       <use xlink:href="#m8598e2fdf5" x="103.614507" y="126.86374" style="stroke: #000000; stroke-width: 0.6"/>
      </g>
     </g>
    </g>
    <g id="xtick_13">
     <g id="line2d_13">
      <g>
       <use xlink:href="#m8598e2fdf5" x="117.451082" y="126.86374" style="stroke: #000000; stroke-width: 0.6"/>
      </g>
     </g>
    </g>
    <g id="xtick_14">
     <g id="line2d_14">
      <g>
       <use xlink:href="#m8598e2fdf5" x="127.268288" y="126.86374" style="stroke: #000000; stroke-width: 0.6"/>
      </g>
     </g>
    </g>
    <g id="xtick_15">
     <g id="line2d_15">
      <g>
       <use xlink:href="#m8598e2fdf5" x="134.883105" y="126.86374" style="stroke: #000000; stroke-width: 0.6"/>
      </g>
     </g>
    </g>
    <g id="xtick_16">
     <g id="line2d_16">
      <g>
       <use xlink:href="#m8598e2fdf5" x="141.104863" y="126.86374" style="stroke: #000000; stroke-width: 0.6"/>
      </g>
     </g>
    </g>
    <g id="xtick_17">
     <g id="line2d_17">
      <g>
       <use xlink:href="#m8598e2fdf5" x="146.365285" y="126.86374" style="stroke: #000000; stroke-width: 0.6"/>
      </g>
     </g>
    </g>
    <g id="xtick_18">
     <g id="line2d_18">
      <g>
       <use xlink:href="#m8598e2fdf5" x="150.922069" y="126.86374" style="stroke: #000000; stroke-width: 0.6"/>
      </g>
     </g>
    </g>
    <g id="xtick_19">
     <g id="line2d_19">
      <g>
       <use xlink:href="#m8598e2fdf5" x="154.941438" y="126.86374" style="stroke: #000000; stroke-width: 0.6"/>
      </g>
     </g>
    </g>
    <g id="xtick_20">
     <g id="line2d_20">
      <g>
       <use xlink:href="#m8598e2fdf5" x="182.190667" y="126.86374" style="stroke: #000000; stroke-width: 0.6"/>
      </g>
     </g>
    </g>
    <g id="xtick_21">
     <g id="line2d_21">
      <g>
       <use xlink:href="#m8598e2fdf5" x="196.027242" y="126.86374" style="stroke: #000000; stroke-width: 0.6"/>
      </g>
     </g>
    </g>
    <g id="xtick_22">
     <g id="line2d_22">
      <g>
       <use xlink:href="#m8598e2fdf5" x="205.844448" y="126.86374" style="stroke: #000000; stroke-width: 0.6"/>
      </g>
     </g>
    </g>
    <g id="xtick_23">
     <g id="line2d_23">
      <g>
       <use xlink:href="#m8598e2fdf5" x="213.459265" y="126.86374" style="stroke: #000000; stroke-width: 0.6"/>
      </g>
     </g>
    </g>
    <g id="xtick_24">
     <g id="line2d_24">
      <g>
       <use xlink:href="#m8598e2fdf5" x="219.681023" y="126.86374" style="stroke: #000000; stroke-width: 0.6"/>
      </g>
     </g>
    </g>
    <g id="xtick_25">
     <g id="line2d_25">
      <g>
       <use xlink:href="#m8598e2fdf5" x="224.941445" y="126.86374" style="stroke: #000000; stroke-width: 0.6"/>
      </g>
     </g>
    </g>
    <g id="xtick_26">
     <g id="line2d_26">
      <g>
       <use xlink:href="#m8598e2fdf5" x="229.498229" y="126.86374" style="stroke: #000000; stroke-width: 0.6"/>
      </g>
     </g>
    </g>
    <g id="xtick_27">
     <g id="line2d_27">
      <g>
       <use xlink:href="#m8598e2fdf5" x="233.517598" y="126.86374" style="stroke: #000000; stroke-width: 0.6"/>
      </g>
     </g>
    </g>
    <g id="text_4">
     <!-- $N$ -->
     <g transform="translate(127.073349 148.637915) scale(0.1 -0.1)">
      <defs>
       <path id="CMMI12-4e" d="M 4736 3682 
C 4806 3956 4909 4147 5395 4166 
C 5414 4166 5491 4172 5491 4281 
C 5491 4352 5434 4352 5408 4352 
C 5280 4352 4954 4339 4826 4339 
L 4518 4339 
C 4429 4339 4314 4352 4224 4352 
C 4186 4352 4109 4352 4109 4230 
C 4109 4166 4160 4166 4205 4166 
C 4589 4153 4614 4007 4614 3892 
C 4614 3835 4608 3816 4589 3726 
L 3866 854 
L 2496 4243 
C 2451 4345 2445 4352 2304 4352 
L 1523 4352 
C 1395 4352 1338 4352 1338 4230 
C 1338 4166 1382 4166 1504 4166 
C 1536 4166 1914 4166 1914 4109 
C 1914 4096 1901 4045 1894 4026 
L 1043 650 
C 966 338 813 204 390 185 
C 358 185 294 179 294 64 
C 294 0 358 0 378 0 
C 506 0 832 12 960 12 
L 1267 12 
C 1357 12 1466 0 1555 0 
C 1600 0 1670 0 1670 121 
C 1670 179 1606 185 1581 185 
C 1370 191 1165 230 1165 459 
C 1165 510 1178 567 1190 618 
L 2054 4026 
C 2093 3962 2093 3949 2118 3892 
L 3642 115 
C 3674 38 3686 0 3744 0 
C 3808 0 3814 19 3840 128 
L 4736 3682 
z
" transform="scale(0.015625)"/>
      </defs>
      <use xlink:href="#CMMI12-4e" transform="scale(0.996264)"/>
     </g>
    </g>
   </g>
   <g id="matplotlib.axis_2">
    <g id="ytick_1">
     <g id="line2d_28">
      <defs>
       <path id="m55b702913e" d="M 0 0 
L -3.5 0 
" style="stroke: #000000; stroke-width: 0.8"/>
      </defs>
      <g>
       <use xlink:href="#m55b702913e" x="25.038347" y="126.86374" style="stroke: #000000; stroke-width: 0.8"/>
      </g>
     </g>
     <g id="text_5">
      <!-- $\mathdefault{0}$ -->
      <g transform="translate(15.557012 130.322989) scale(0.1 -0.1)">
       <use xlink:href="#CMR17-30" transform="scale(0.996264)"/>
      </g>
     </g>
    </g>
    <g id="ytick_2">
     <g id="line2d_29">
      <g>
       <use xlink:href="#m55b702913e" x="25.038347" y="88.016822" style="stroke: #000000; stroke-width: 0.8"/>
      </g>
     </g>
     <g id="text_6">
      <!-- $\mathdefault{5}$ -->
      <g transform="translate(15.557012 91.476071) scale(0.1 -0.1)">
       <defs>
        <path id="CMR17-35" d="M 730 3750 
C 794 3724 1056 3641 1325 3641 
C 1920 3641 2246 3961 2432 4140 
C 2432 4191 2432 4224 2394 4224 
C 2387 4224 2374 4224 2323 4198 
C 2099 4102 1837 4032 1517 4032 
C 1325 4032 1037 4055 723 4191 
C 653 4224 640 4224 634 4224 
C 602 4224 595 4217 595 4090 
L 595 2231 
C 595 2113 595 2080 659 2080 
C 691 2080 704 2093 736 2139 
C 941 2435 1222 2560 1542 2560 
C 1766 2560 2246 2415 2246 1293 
C 2246 1087 2246 716 2054 422 
C 1894 159 1645 25 1370 25 
C 947 25 518 319 403 812 
C 429 806 480 793 506 793 
C 589 793 749 838 749 1036 
C 749 1209 627 1280 506 1280 
C 358 1280 262 1190 262 1011 
C 262 454 704 -128 1382 -128 
C 2042 -128 2669 441 2669 1267 
C 2669 2054 2170 2662 1549 2662 
C 1222 2662 947 2540 730 2304 
L 730 3750 
z
" transform="scale(0.015625)"/>
       </defs>
       <use xlink:href="#CMR17-35" transform="scale(0.996264)"/>
      </g>
     </g>
    </g>
    <g id="ytick_3">
     <g id="line2d_30">
      <g>
       <use xlink:href="#m55b702913e" x="25.038347" y="49.169904" style="stroke: #000000; stroke-width: 0.8"/>
      </g>
     </g>
     <g id="text_7">
      <!-- $\mathdefault{10}$ -->
      <g transform="translate(10.575677 52.629153) scale(0.1 -0.1)">
       <use xlink:href="#CMR17-31" transform="scale(0.996264)"/>
       <use xlink:href="#CMR17-30" transform="translate(45.690477 0) scale(0.996264)"/>
      </g>
     </g>
    </g>
    <g id="ytick_4">
     <g id="line2d_31">
      <g>
       <use xlink:href="#m55b702913e" x="25.038347" y="10.322986" style="stroke: #000000; stroke-width: 0.8"/>
      </g>
     </g>
     <g id="text_8">
      <!-- $\mathdefault{15}$ -->
      <g transform="translate(10.575677 13.782235) scale(0.1 -0.1)">
       <use xlink:href="#CMR17-31" transform="scale(0.996264)"/>
       <use xlink:href="#CMR17-35" transform="translate(45.690477 0) scale(0.996264)"/>
      </g>
     </g>
    </g>
    <g id="text_9">
     <!-- $\mathcal{M}_2$ -->
     <g transform="translate(7.638498 71.75955) rotate(-90) scale(0.1 -0.1)">
      <defs>
       <path id="CMSY10-4d" d="M 2464 3603 
C 2637 2764 2918 1384 3283 636 
C 3424 359 3494 217 3558 217 
C 3584 217 3597 217 3712 333 
C 4198 804 4531 1178 4979 1694 
L 6381 3338 
C 6291 2790 6061 1339 6061 584 
C 6061 410 6067 243 6086 70 
C 6093 0 6118 -186 6387 -186 
C 6656 -186 7142 96 7142 224 
C 7142 262 7104 268 7085 268 
C 7002 268 6874 211 6803 166 
C 6650 185 6637 288 6624 436 
C 6605 642 6605 836 6605 862 
C 6605 1578 6886 3532 7072 4331 
C 7078 4376 7085 4389 7085 4441 
C 7085 4467 7078 4537 7034 4537 
C 7008 4537 7002 4531 6880 4389 
C 6278 3654 4410 1397 3776 855 
C 3616 1197 3501 1442 3277 2345 
C 3091 3074 2982 3609 2874 4235 
C 2854 4325 2822 4499 2822 4511 
C 2803 4544 2771 4544 2752 4544 
C 2637 4544 2368 4402 2349 4267 
C 2272 3725 2144 2874 1696 1642 
C 1184 268 1043 268 922 268 
C 838 268 602 320 461 449 
C 429 481 416 481 403 481 
C 314 481 173 192 173 12 
C 173 -45 173 -122 378 -231 
C 538 -314 691 -320 723 -320 
C 1120 -320 1498 597 1626 926 
C 1926 1655 2285 2674 2464 3603 
z
" transform="scale(0.015625)"/>
      </defs>
      <use xlink:href="#CMSY10-4d" transform="scale(0.996264)"/>
      <use xlink:href="#CMR17-32" transform="translate(119.641341 -14.943915) scale(0.697382)"/>
     </g>
    </g>
   </g>
   <g id="line2d_32">
    <path d="M 25.038347 129.471111 
L 48.692128 119.582269 
L 62.528703 114.443374 
L 72.345909 110.287147 
L 79.960726 106.792453 
L 91.442906 101.087172 
L 100.019059 96.52371 
L 109.836265 91.044802 
L 121.722298 84.097295 
L 134.883105 76.110801 
L 161.163196 59.574073 
L 173.711875 51.504755 
L 180.079157 47.383269 
L 215.704284 24.183993 
L 217.326628 23.118059 
L 218.524126 22.335468 
L 219.794585 21.496503 
L 221.019437 20.707024 
L 229.66843 15.026547 
L 230.340869 14.60383 
L 232.905471 12.90304 
L 233.365592 12.612461 
L 235.146441 11.430874 
L 235.577502 11.159342 
L 237.044727 10.189348 
L 237.113046 10.162465 
L 237.113046 10.162465 
" clip-path="url(#p1f491de332)" style="fill: none; stroke: #9a2abe; stroke-linecap: square"/>
   </g>
   <g id="line2d_33">
    <path d="M 25.038347 125.395134 
L 48.692128 119.179552 
L 62.528703 115.894309 
L 79.960726 111.218297 
L 91.442906 107.639246 
L 103.614507 103.513212 
L 115.096687 99.35684 
L 128.933262 94.059556 
L 144.357341 87.868407 
L 173.711875 75.495313 
L 194.396376 66.497668 
L 202.999035 62.721506 
L 206.853148 61.017976 
L 211.347755 59.033575 
L 217.204534 56.441392 
L 237.113046 47.609092 
L 237.113046 47.609092 
" clip-path="url(#p1f491de332)" style="fill: none; stroke: #f47b00; stroke-linecap: square"/>
   </g>
   <g id="line2d_34">
    <path d="M 25.038347 140.048444 
L 237.113046 0.731209 
L 237.113046 0.731209 
" clip-path="url(#p1f491de332)" style="fill: none; stroke-dasharray: 3.7,1.6; stroke-dashoffset: 0; stroke: #000000"/>
   </g>
   <g id="PathCollection_1">
    <defs>
     <path id="m004a84d70f" d="M -1 -1.732051 
L -2 -0 
L -1 1.732051 
L 1 1.732051 
L 2 0 
L 1 -1.732051 
z
" style="stroke: #2c1016; stroke-width: 0.5"/>
    </defs>
    <g clip-path="url(#p1f491de332)">
     <use xlink:href="#m004a84d70f" x="25.038347" y="123.64691" style="fill: #9a2abe; stroke: #2c1016; stroke-width: 0.5"/>
     <use xlink:href="#m004a84d70f" x="48.692128" y="119.563551" style="fill: #9a2abe; stroke: #2c1016; stroke-width: 0.5"/>
     <use xlink:href="#m004a84d70f" x="62.528703" y="115.16681" style="fill: #9a2abe; stroke: #2c1016; stroke-width: 0.5"/>
     <use xlink:href="#m004a84d70f" x="72.345909" y="111.116936" style="fill: #9a2abe; stroke: #2c1016; stroke-width: 0.5"/>
     <use xlink:href="#m004a84d70f" x="79.960726" y="107.542003" style="fill: #9a2abe; stroke: #2c1016; stroke-width: 0.5"/>
     <use xlink:href="#m004a84d70f" x="86.182484" y="104.385973" style="fill: #9a2abe; stroke: #2c1016; stroke-width: 0.5"/>
     <use xlink:href="#m004a84d70f" x="95.99969" y="99.10111" style="fill: #9a2abe; stroke: #2c1016; stroke-width: 0.5"/>
     <use xlink:href="#m004a84d70f" x="103.614507" y="94.809617" style="fill: #9a2abe; stroke: #2c1016; stroke-width: 0.5"/>
     <use xlink:href="#m004a84d70f" x="109.836265" y="91.216322" style="fill: #9a2abe; stroke: #2c1016; stroke-width: 0.5"/>
     <use xlink:href="#m004a84d70f" x="117.451082" y="86.71996" style="fill: #9a2abe; stroke: #2c1016; stroke-width: 0.5"/>
     <use xlink:href="#m004a84d70f" x="123.67284" y="82.997142" style="fill: #9a2abe; stroke: #2c1016; stroke-width: 0.5"/>
     <use xlink:href="#m004a84d70f" x="130.520766" y="78.834573" style="fill: #9a2abe; stroke: #2c1016; stroke-width: 0.5"/>
     <use xlink:href="#m004a84d70f" x="137.509415" y="74.520548" style="fill: #9a2abe; stroke: #2c1016; stroke-width: 0.5"/>
     <use xlink:href="#m004a84d70f" x="144.357341" y="70.24365" style="fill: #9a2abe; stroke: #2c1016; stroke-width: 0.5"/>
     <use xlink:href="#m004a84d70f" x="151.764709" y="65.562225" style="fill: #9a2abe; stroke: #2c1016; stroke-width: 0.5"/>
     <use xlink:href="#m004a84d70f" x="158.536886" y="61.256083" style="fill: #9a2abe; stroke: #2c1016; stroke-width: 0.5"/>
    </g>
   </g>
   <g id="PathCollection_2">
    <defs>
     <path id="md8c8d6c207" d="M -1 -1.732051 
L -2 -0 
L -1 1.732051 
L 1 1.732051 
L 2 0 
L 1 -1.732051 
z
" style="stroke: #2c1016; stroke-width: 0.5"/>
    </defs>
    <g clip-path="url(#p1f491de332)">
     <use xlink:href="#md8c8d6c207" x="25.038347" y="126.86374" style="stroke: #2c1016; stroke-width: 0.5"/>
     <use xlink:href="#md8c8d6c207" x="48.692128" y="120.275327" style="stroke: #2c1016; stroke-width: 0.5"/>
     <use xlink:href="#md8c8d6c207" x="62.528703" y="113.950997" style="stroke: #2c1016; stroke-width: 0.5"/>
     <use xlink:href="#md8c8d6c207" x="72.345909" y="108.462483" style="stroke: #2c1016; stroke-width: 0.5"/>
     <use xlink:href="#md8c8d6c207" x="79.960726" y="103.774392" style="stroke: #2c1016; stroke-width: 0.5"/>
     <use xlink:href="#md8c8d6c207" x="86.182484" y="99.759733" style="stroke: #2c1016; stroke-width: 0.5"/>
     <use xlink:href="#md8c8d6c207" x="95.99969" y="93.26445" style="stroke: #2c1016; stroke-width: 0.5"/>
     <use xlink:href="#md8c8d6c207" x="103.614507" y="88.20378" style="stroke: #2c1016; stroke-width: 0.5"/>
     <use xlink:href="#md8c8d6c207" x="109.836265" y="84.09153" style="stroke: #2c1016; stroke-width: 0.5"/>
     <use xlink:href="#md8c8d6c207" x="117.451082" y="79.090202" style="stroke: #2c1016; stroke-width: 0.5"/>
     <use xlink:href="#md8c8d6c207" x="123.67284" y="75.020781" style="stroke: #2c1016; stroke-width: 0.5"/>
     <use xlink:href="#md8c8d6c207" x="130.520766" y="70.549226" style="stroke: #2c1016; stroke-width: 0.5"/>
     <use xlink:href="#md8c8d6c207" x="137.509415" y="65.987193" style="stroke: #2c1016; stroke-width: 0.5"/>
     <use xlink:href="#md8c8d6c207" x="144.357341" y="61.515287" style="stroke: #2c1016; stroke-width: 0.5"/>
     <use xlink:href="#md8c8d6c207" x="151.764709" y="56.674827" style="stroke: #2c1016; stroke-width: 0.5"/>
     <use xlink:href="#md8c8d6c207" x="158.536886" y="52.246255" style="stroke: #2c1016; stroke-width: 0.5"/>
    </g>
   </g>
   <g id="PathCollection_3">
    <defs>
     <path id="m86df51f152" d="M -1 -1.732051 
L -2 -0 
L -1 1.732051 
L 1 1.732051 
L 2 0 
L 1 -1.732051 
z
" style="stroke: #2c1016; stroke-width: 0.5"/>
    </defs>
    <g clip-path="url(#p1f491de332)">
     <use xlink:href="#m86df51f152" x="25.038347" y="123.671744" style="fill: #f47b00; stroke: #2c1016; stroke-width: 0.5"/>
     <use xlink:href="#m86df51f152" x="48.692128" y="119.957436" style="fill: #f47b00; stroke: #2c1016; stroke-width: 0.5"/>
     <use xlink:href="#m86df51f152" x="62.528703" y="116.562755" style="fill: #f47b00; stroke: #2c1016; stroke-width: 0.5"/>
     <use xlink:href="#m86df51f152" x="72.345909" y="113.822489" style="fill: #f47b00; stroke: #2c1016; stroke-width: 0.5"/>
     <use xlink:href="#m86df51f152" x="79.960726" y="111.534382" style="fill: #f47b00; stroke: #2c1016; stroke-width: 0.5"/>
     <use xlink:href="#m86df51f152" x="86.182484" y="109.568512" style="fill: #f47b00; stroke: #2c1016; stroke-width: 0.5"/>
     <use xlink:href="#m86df51f152" x="95.99969" y="106.305282" style="fill: #f47b00; stroke: #2c1016; stroke-width: 0.5"/>
     <use xlink:href="#m86df51f152" x="103.614507" y="103.649684" style="fill: #f47b00; stroke: #2c1016; stroke-width: 0.5"/>
     <use xlink:href="#m86df51f152" x="109.836265" y="101.405232" style="fill: #f47b00; stroke: #2c1016; stroke-width: 0.5"/>
     <use xlink:href="#m86df51f152" x="117.451082" y="98.573184" style="fill: #f47b00; stroke: #2c1016; stroke-width: 0.5"/>
     <use xlink:href="#m86df51f152" x="123.67284" y="96.194473" style="fill: #f47b00; stroke: #2c1016; stroke-width: 0.5"/>
     <use xlink:href="#m86df51f152" x="130.520766" y="93.515162" style="fill: #f47b00; stroke: #2c1016; stroke-width: 0.5"/>
     <use xlink:href="#m86df51f152" x="137.509415" y="90.723869" style="fill: #f47b00; stroke: #2c1016; stroke-width: 0.5"/>
     <use xlink:href="#m86df51f152" x="144.357341" y="87.937503" style="fill: #f47b00; stroke: #2c1016; stroke-width: 0.5"/>
     <use xlink:href="#m86df51f152" x="151.764709" y="84.873965" style="fill: #f47b00; stroke: #2c1016; stroke-width: 0.5"/>
     <use xlink:href="#m86df51f152" x="158.536886" y="82.032768" style="fill: #f47b00; stroke: #2c1016; stroke-width: 0.5"/>
    </g>
   </g>
   <g id="patch_3">
    <path d="M 25.038347 126.86374 
L 25.038347 0.72 
" style="fill: none; stroke: #000000; stroke-width: 0.8; stroke-linejoin: miter; stroke-linecap: square"/>
   </g>
   <g id="patch_4">
    <path d="M 237.113046 126.86374 
L 237.113046 0.72 
" style="fill: none; stroke: #000000; stroke-width: 0.8; stroke-linejoin: miter; stroke-linecap: square"/>
   </g>
   <g id="patch_5">
    <path d="M 25.038347 126.86374 
L 237.113046 126.86374 
" style="fill: none; stroke: #000000; stroke-width: 0.8; stroke-linejoin: miter; stroke-linecap: square"/>
   </g>
   <g id="patch_6">
    <path d="M 25.038347 0.72 
L 237.113046 0.72 
" style="fill: none; stroke: #000000; stroke-width: 0.8; stroke-linejoin: miter; stroke-linecap: square"/>
   </g>
   <g id="text_10">
    <!-- TACT -->
    <g style="fill: #9a2abe" transform="translate(172.373461 59.283292) scale(0.1 -0.1)">
     <defs>
      <path id="CMSS17-54" d="M 2317 3987 
L 2848 3987 
C 2925 3987 3002 3980 3078 3980 
L 3878 3980 
L 3878 4396 
L 218 4396 
L 218 3980 
L 1018 3980 
C 1094 3980 1171 3987 1248 3987 
L 1779 3987 
L 1779 0 
L 2317 0 
L 2317 3987 
z
" transform="scale(0.015625)"/>
      <path id="CMSS17-41" d="M 2272 4416 
L 1722 4416 
L 166 0 
L 653 0 
L 1101 1280 
L 2816 1280 
L 3270 0 
L 3827 0 
L 2272 4416 
z
M 2694 1638 
L 1222 1638 
C 1530 2530 1914 3638 1958 3924 
L 1965 3924 
C 2010 3663 2138 3281 2246 2956 
L 2694 1638 
z
" transform="scale(0.015625)"/>
      <path id="CMSS17-43" d="M 3501 705 
C 3072 416 2874 332 2355 332 
C 1459 332 934 1304 934 2191 
C 934 3137 1472 4070 2381 4070 
C 2790 4070 3059 3954 3386 3748 
L 3475 4255 
C 3168 4409 2778 4480 2387 4480 
C 1158 4480 397 3343 397 2191 
C 397 924 1299 -77 2323 -77 
C 2874 -77 3066 -32 3539 268 
L 3501 705 
z
" transform="scale(0.015625)"/>
     </defs>
     <use xlink:href="#CMSS17-54" transform="scale(0.996264)"/>
     <use xlink:href="#CMSS17-41" transform="translate(56.012199 0) scale(0.996264)"/>
     <use xlink:href="#CMSS17-43" transform="translate(115.6276 0) scale(0.996264)"/>
     <use xlink:href="#CMSS17-54" transform="translate(175.483371 0) scale(0.996264)"/>
    </g>
   </g>
   <g id="text_11">
    <!-- OAT -->
    <g style="fill: #f47b00" transform="translate(196.027242 72.697494) scale(0.1 -0.1)">
     <defs>
      <path id="CMSS17-4f" d="M 4096 2201 
C 4096 3541 3219 4544 2214 4544 
C 1210 4544 333 3535 333 2201 
C 333 855 1222 -128 2214 -128 
C 3206 -128 4096 855 4096 2201 
z
M 2214 275 
C 1510 275 870 1067 870 2285 
C 870 3470 1549 4140 2214 4140 
C 2880 4140 3558 3470 3558 2285 
C 3558 1061 2912 275 2214 275 
z
" transform="scale(0.015625)"/>
     </defs>
     <use xlink:href="#CMSS17-4f" transform="scale(0.996264)"/>
     <use xlink:href="#CMSS17-41" transform="translate(66.421801 0) scale(0.996264)"/>
     <use xlink:href="#CMSS17-54" transform="translate(120.832401 0) scale(0.996264)"/>
    </g>
   </g>
   <g id="text_12">
    <!-- Dicke -->
    <g transform="translate(149.348644 41.25204) scale(0.1 -0.1)">
     <defs>
      <path id="CMSS17-44" d="M 570 4416 
L 570 0 
L 2144 0 
C 3194 0 4000 981 4000 2169 
C 4000 3396 3194 4416 2144 4416 
L 570 4416 
z
M 1094 358 
L 1094 4057 
L 2003 4057 
C 2861 4057 3475 3275 3475 2169 
C 3475 1108 2867 358 2003 358 
L 1094 358 
z
" transform="scale(0.015625)"/>
      <path id="CMSS17-69" d="M 979 4224 
L 442 4224 
L 442 3686 
L 979 3686 
L 979 4224 
z
M 947 2752 
L 474 2752 
L 474 0 
L 947 0 
L 947 2752 
z
" transform="scale(0.015625)"/>
      <path id="CMSS17-63" d="M 2464 2540 
C 2464 2585 2170 2713 2093 2739 
C 1882 2816 1613 2816 1542 2816 
C 710 2816 211 2092 211 1363 
C 211 595 768 -64 1517 -64 
C 1946 -64 2253 76 2502 243 
L 2464 665 
C 2189 454 1869 339 1523 339 
C 1024 339 698 774 698 1369 
C 698 1830 909 2412 1549 2412 
C 1901 2412 2099 2342 2394 2143 
L 2464 2540 
z
" transform="scale(0.015625)"/>
      <path id="CMSS17-6b" d="M 1696 1686 
L 2688 2735 
L 2074 2735 
L 954 1552 
L 954 4416 
L 480 4416 
L 480 0 
L 947 0 
L 947 891 
L 1376 1342 
L 2278 0 
L 2822 0 
L 1696 1686 
z
" transform="scale(0.015625)"/>
      <path id="CMSS17-65" d="M 2502 1375 
C 2502 1587 2490 2001 2285 2347 
C 2061 2713 1696 2816 1421 2816 
C 755 2816 192 2184 192 1363 
C 192 579 774 -64 1510 -64 
C 1798 -64 2150 19 2470 249 
C 2470 275 2458 414 2451 421 
C 2451 433 2432 629 2432 655 
C 2125 408 1773 326 1517 326 
C 1107 326 666 667 646 1375 
L 2502 1375 
z
M 698 1728 
C 781 2086 1062 2425 1421 2425 
C 1517 2425 1965 2412 2080 1728 
L 698 1728 
z
" transform="scale(0.015625)"/>
     </defs>
     <use xlink:href="#CMSS17-44" transform="scale(0.996264)"/>
     <use xlink:href="#CMSS17-69" transform="translate(67.542842 0) scale(0.996264)"/>
     <use xlink:href="#CMSS17-63" transform="translate(89.723565 0) scale(0.996264)"/>
     <use xlink:href="#CMSS17-6b" transform="translate(131.362387 0) scale(0.996264)"/>
     <use xlink:href="#CMSS17-65" transform="translate(174.362422 0) scale(0.996264)"/>
    </g>
   </g>
  </g>
 </g>
 <defs>
  <clipPath id="p1f491de332">
   <rect x="25.038347" y="0.72" width="212.074699" height="126.14374"/>
  </clipPath>
 </defs>
</svg>
