<?xml version="1.0" encoding="UTF-8" standalone="no"?>
<!-- Created with Inkscape (http://www.inkscape.org/) -->

<svg
   width="102.42892mm"
   height="39.218845mm"
   viewBox="0 0 102.42892 39.218845"
   version="1.1"
   id="svg265884"
   inkscape:version="1.1.2 (0a00cf5339, 2022-02-04, custom)"
   sodipodi:docname="E_SW2.svg"
   xmlns:inkscape="http://www.inkscape.org/namespaces/inkscape"
   xmlns:sodipodi="http://sodipodi.sourceforge.net/DTD/sodipodi-0.dtd"
   xmlns="http://www.w3.org/2000/svg"
   xmlns:svg="http://www.w3.org/2000/svg"
   xmlns:ns16="http://www.iki.fi/pav/software/textext/">
  <sodipodi:namedview
     id="namedview265886"
     pagecolor="#ffffff"
     bordercolor="#666666"
     borderopacity="1.0"
     inkscape:pageshadow="2"
     inkscape:pageopacity="0.0"
     inkscape:pagecheckerboard="0"
     inkscape:document-units="mm"
     showgrid="false"
     fit-margin-top="0"
     fit-margin-left="0"
     fit-margin-right="0"
     fit-margin-bottom="0"
     inkscape:zoom="0.56569164"
     inkscape:cx="159.98115"
     inkscape:cy="-69.826028"
     inkscape:window-width="1920"
     inkscape:window-height="1135"
     inkscape:window-x="0"
     inkscape:window-y="259"
     inkscape:window-maximized="1"
     inkscape:current-layer="layer1" />
  <defs
     id="defs265881">
    <marker
       style="overflow:visible"
       id="Arrow1Mstart-8"
       refX="0"
       refY="0"
       orient="auto"
       inkscape:stockid="Arrow1Mstart"
       inkscape:isstock="true">
      <path
         transform="matrix(0.4,0,0,0.4,4,0)"
         style="fill:context-stroke;fill-rule:evenodd;stroke:context-stroke;stroke-width:1pt"
         d="M 0,0 5,-5 -12.5,0 5,5 Z"
         id="path1315-5" />
    </marker>
    <marker
       style="overflow:visible"
       id="marker265735"
       refX="0"
       refY="0"
       orient="auto"
       inkscape:stockid="Arrow1Mstart"
       inkscape:isstock="true">
      <path
         transform="matrix(0.4,0,0,0.4,4,0)"
         style="fill:context-stroke;fill-rule:evenodd;stroke:context-stroke;stroke-width:1pt"
         d="M 0,0 5,-5 -12.5,0 5,5 Z"
         id="path265733" />
    </marker>
    <g
       id="g233443">
      <g
         id="g233411" />
      <g
         id="g233415">
        <path
           d="m 2.03125,0 c 2.328125,0 5.609375,-1.78125 5.609375,-4.5 0,-0.890625 -0.421875,-1.4375 -0.90625,-1.75 C 5.875,-6.8125 4.953125,-6.8125 4,-6.8125 c -0.84375,0 -1.4375,0 -2.28125,0.359375 -1.3125,0.59375 -1.515625,1.421875 -1.515625,1.5 0,0.0625 0.046875,0.078125 0.109375,0.078125 0.15625,0 0.390625,-0.140625 0.46875,-0.1875 0.203125,-0.140625 0.234375,-0.203125 0.296875,-0.390625 0.140625,-0.40625 0.421875,-0.75 1.671875,-0.8125 -0.15625,2.09375 -0.671875,4 -1.359375,5.734375 -0.375,0.125 -0.609375,0.359375 -0.609375,0.46875 C 0.78125,-0.015625 0.78125,0 1,0 Z m 0.046875,-0.546875 c 1.140625,-2.78125 1.34375,-4.515625 1.484375,-5.71875 0.671875,0 3.21875,0 3.21875,2.203125 0,1.953125 -1.75,3.515625 -4.15625,3.515625 z m 0,0"
           id="path233413" />
      </g>
      <g
         id="g233417" />
      <g
         id="g233421">
        <path
           d="M 5.8125,-4 C 5.875,-4.265625 6,-4.5 6.546875,-4.515625 c 0.03125,0 0.140625,0 0.140625,-0.140625 0,-0.046875 -0.03125,-0.109375 -0.109375,-0.109375 -0.21875,0 -0.484375,0.03125 -0.71875,0.03125 -0.171875,0 -0.5625,-0.03125 -0.734375,-0.03125 -0.03125,0 -0.140625,0 -0.140625,0.15625 0,0.09375 0.09375,0.09375 0.15625,0.09375 0.328125,0.015625 0.4375,0.125 0.4375,0.296875 0,0.046875 0,0.09375 -0.03125,0.15625 l -0.75,3.046875 -1.765625,-3.625 c -0.0625,-0.125 -0.078125,-0.125 -0.25,-0.125 H 1.828125 c -0.125,0 -0.21875,0 -0.21875,0.15625 0,0.09375 0.078125,0.09375 0.234375,0.09375 0.140625,0 0.296875,0.015625 0.4375,0.046875 L 1.359375,-0.75 c -0.0625,0.265625 -0.1875,0.484375 -0.734375,0.5 -0.046875,0 -0.140625,0 -0.140625,0.140625 C 0.484375,-0.03125 0.53125,0 0.578125,0 0.8125,0 1.078125,-0.03125 1.3125,-0.03125 1.484375,-0.03125 1.875,0 2.046875,0 2.125,0 2.1875,-0.03125 2.1875,-0.140625 2.1875,-0.25 2.109375,-0.25 2.03125,-0.25 c -0.4375,-0.015625 -0.4375,-0.203125 -0.4375,-0.296875 0,-0.03125 0,-0.0625 0.015625,-0.171875 l 0.90625,-3.5625 2.03125,4.15625 C 4.59375,0 4.625,0 4.703125,0 4.8125,0 4.8125,-0.015625 4.84375,-0.140625 Z m 0,0"
           id="path233419" />
      </g>
      <g
         id="g233425">
        <path
           d="m 3.484375,-4.921875 c 0.046875,-0.09375 0.046875,-0.109375 0.046875,-0.125 0,-0.109375 -0.09375,-0.171875 -0.171875,-0.171875 -0.109375,0 -0.140625,0.078125 -0.1875,0.171875 L 0.578125,1.4375 C 0.53125,1.53125 0.53125,1.546875 0.53125,1.5625 c 0,0.109375 0.09375,0.171875 0.171875,0.171875 0.125,0 0.15625,-0.078125 0.1875,-0.171875 z m 0,0"
           id="path233423" />
      </g>
      <g
         id="g233427" />
      <g
         id="g233431">
        <path
           d="M 3.515625,-1.265625 H 3.28125 c -0.015625,0.15625 -0.09375,0.5625 -0.1875,0.625 C 3.046875,-0.59375 2.515625,-0.59375 2.40625,-0.59375 H 1.125 c 0.734375,-0.640625 0.984375,-0.84375 1.390625,-1.171875 0.515625,-0.40625 1,-0.84375 1,-1.5 0,-0.84375 -0.734375,-1.359375 -1.625,-1.359375 -0.859375,0 -1.453125,0.609375 -1.453125,1.25 0,0.34375 0.296875,0.390625 0.375,0.390625 0.15625,0 0.359375,-0.125 0.359375,-0.375 0,-0.125 -0.046875,-0.375 -0.40625,-0.375 C 0.984375,-4.21875 1.453125,-4.375 1.78125,-4.375 c 0.703125,0 1.0625,0.546875 1.0625,1.109375 0,0.609375 -0.4375,1.078125 -0.65625,1.328125 L 0.515625,-0.265625 C 0.4375,-0.203125 0.4375,-0.1875 0.4375,0 h 2.875 z m 0,0"
           id="path233429" />
      </g>
      <g
         id="g233435">
        <path
           d="m 2.328125,-4.4375 c 0,-0.1875 0,-0.1875 -0.203125,-0.1875 -0.453125,0.4375 -1.078125,0.4375 -1.359375,0.4375 v 0.25 c 0.15625,0 0.625,0 1,-0.1875 v 3.546875 c 0,0.234375 0,0.328125 -0.6875,0.328125 H 0.8125 V 0 c 0.125,0 0.984375,-0.03125 1.234375,-0.03125 0.21875,0 1.09375,0.03125 1.25,0.03125 V -0.25 H 3.03125 c -0.703125,0 -0.703125,-0.09375 -0.703125,-0.328125 z m 0,0"
           id="path233433" />
      </g>
      <g
         id="g233437" />
      <g
         id="g233441">
        <path
           d="m 5.1875,-1.578125 c 0.109375,0 0.28125,0 0.28125,-0.15625 0,-0.1875 -0.171875,-0.1875 -0.28125,-0.1875 H 1.03125 c -0.109375,0 -0.28125,0 -0.28125,0.171875 0,0.171875 0.15625,0.171875 0.28125,0.171875 z m 0,0"
           id="path233439" />
      </g>
    </g>
    <g
       id="g233507">
      <g
         id="g233485" />
      <g
         id="g233489">
        <path
           d="m 2.03125,0 c 2.328125,0 5.609375,-1.78125 5.609375,-4.5 0,-0.890625 -0.421875,-1.4375 -0.90625,-1.75 C 5.875,-6.8125 4.953125,-6.8125 4,-6.8125 c -0.84375,0 -1.4375,0 -2.28125,0.359375 -1.3125,0.59375 -1.515625,1.421875 -1.515625,1.5 0,0.0625 0.046875,0.078125 0.109375,0.078125 0.15625,0 0.390625,-0.140625 0.46875,-0.1875 0.203125,-0.140625 0.234375,-0.203125 0.296875,-0.390625 0.140625,-0.40625 0.421875,-0.75 1.671875,-0.8125 -0.15625,2.09375 -0.671875,4 -1.359375,5.734375 -0.375,0.125 -0.609375,0.359375 -0.609375,0.46875 C 0.78125,-0.015625 0.78125,0 1,0 Z m 0.046875,-0.546875 c 1.140625,-2.78125 1.34375,-4.515625 1.484375,-5.71875 0.671875,0 3.21875,0 3.21875,2.203125 0,1.953125 -1.75,3.515625 -4.15625,3.515625 z m 0,0"
           id="path233487" />
      </g>
      <g
         id="g233491" />
      <g
         id="g233495">
        <path
           d="M 5.8125,-4 C 5.875,-4.265625 6,-4.5 6.546875,-4.515625 c 0.03125,0 0.140625,0 0.140625,-0.140625 0,-0.046875 -0.03125,-0.109375 -0.109375,-0.109375 -0.21875,0 -0.484375,0.03125 -0.71875,0.03125 -0.171875,0 -0.5625,-0.03125 -0.734375,-0.03125 -0.03125,0 -0.140625,0 -0.140625,0.15625 0,0.09375 0.09375,0.09375 0.15625,0.09375 0.328125,0.015625 0.4375,0.125 0.4375,0.296875 0,0.046875 0,0.09375 -0.03125,0.15625 l -0.75,3.046875 -1.765625,-3.625 c -0.0625,-0.125 -0.078125,-0.125 -0.25,-0.125 H 1.828125 c -0.125,0 -0.21875,0 -0.21875,0.15625 0,0.09375 0.078125,0.09375 0.234375,0.09375 0.140625,0 0.296875,0.015625 0.4375,0.046875 L 1.359375,-0.75 c -0.0625,0.265625 -0.1875,0.484375 -0.734375,0.5 -0.046875,0 -0.140625,0 -0.140625,0.140625 C 0.484375,-0.03125 0.53125,0 0.578125,0 0.8125,0 1.078125,-0.03125 1.3125,-0.03125 1.484375,-0.03125 1.875,0 2.046875,0 2.125,0 2.1875,-0.03125 2.1875,-0.140625 2.1875,-0.25 2.109375,-0.25 2.03125,-0.25 c -0.4375,-0.015625 -0.4375,-0.203125 -0.4375,-0.296875 0,-0.03125 0,-0.0625 0.015625,-0.171875 l 0.90625,-3.5625 2.03125,4.15625 C 4.59375,0 4.625,0 4.703125,0 4.8125,0 4.8125,-0.015625 4.84375,-0.140625 Z m 0,0"
           id="path233493" />
      </g>
      <g
         id="g233499">
        <path
           d="m 3.484375,-4.921875 c 0.046875,-0.09375 0.046875,-0.109375 0.046875,-0.125 0,-0.109375 -0.09375,-0.171875 -0.171875,-0.171875 -0.109375,0 -0.140625,0.078125 -0.1875,0.171875 L 0.578125,1.4375 C 0.53125,1.53125 0.53125,1.546875 0.53125,1.5625 c 0,0.109375 0.09375,0.171875 0.171875,0.171875 0.125,0 0.15625,-0.078125 0.1875,-0.171875 z m 0,0"
           id="path233497" />
      </g>
      <g
         id="g233501" />
      <g
         id="g233505">
        <path
           d="M 3.515625,-1.265625 H 3.28125 c -0.015625,0.15625 -0.09375,0.5625 -0.1875,0.625 C 3.046875,-0.59375 2.515625,-0.59375 2.40625,-0.59375 H 1.125 c 0.734375,-0.640625 0.984375,-0.84375 1.390625,-1.171875 0.515625,-0.40625 1,-0.84375 1,-1.5 0,-0.84375 -0.734375,-1.359375 -1.625,-1.359375 -0.859375,0 -1.453125,0.609375 -1.453125,1.25 0,0.34375 0.296875,0.390625 0.375,0.390625 0.15625,0 0.359375,-0.125 0.359375,-0.375 0,-0.125 -0.046875,-0.375 -0.40625,-0.375 C 0.984375,-4.21875 1.453125,-4.375 1.78125,-4.375 c 0.703125,0 1.0625,0.546875 1.0625,1.109375 0,0.609375 -0.4375,1.078125 -0.65625,1.328125 L 0.515625,-0.265625 C 0.4375,-0.203125 0.4375,-0.1875 0.4375,0 h 2.875 z m 0,0"
           id="path233503" />
      </g>
    </g>
    <g
       id="id-57d03d1f-ad91-493b-93ed-deac70a9d394">
      <g
         id="id-90589b6f-c963-4c58-ba73-e6351d73215e" />
      <g
         id="id-3d8a0a2f-29c3-4b67-93e1-654bf81593d0">
        <path
           d="M 5.390625,-6.078125 C 5.46875,-6.40625 5.5,-6.5 6.046875,-6.5 c 0.15625,0 0.265625,0 0.265625,-0.1875 0,-0.09375 -0.0625,-0.125 -0.140625,-0.125 -0.25,0 -0.859375,0.03125 -1.109375,0.03125 -0.328125,0 -1.140625,-0.03125 -1.46875,-0.03125 -0.078125,0 -0.203125,0 -0.203125,0.203125 C 3.390625,-6.5 3.46875,-6.5 3.734375,-6.5 c 0.21875,0 0.328125,0 0.578125,0.015625 0.234375,0.03125 0.296875,0.0625 0.296875,0.203125 0,0.0625 -0.015625,0.125 -0.03125,0.203125 L 3.421875,-1.5 C 3.1875,-0.53125 2.515625,0 2,0 1.734375,0 1.203125,-0.09375 1.046875,-0.625 c 0.03125,0.015625 0.09375,0.015625 0.125,0.015625 0.390625,0 0.640625,-0.34375 0.640625,-0.640625 0,-0.3125 -0.265625,-0.421875 -0.4375,-0.421875 -0.171875,0 -0.671875,0.125 -0.671875,0.796875 0,0.625 0.53125,1.09375 1.328125,1.09375 0.90625,0 1.953125,-0.65625 2.203125,-1.640625 z m 0,0"
           id="id-c99fea89-58e7-437a-9b22-f28d7fb93b5d" />
      </g>
      <g
         id="id-fcded4ff-eb84-4fcf-8936-d873e6339b1a">
        <path
           d="m 4.5,-4.296875 c 0,-0.046875 -0.03125,-0.09375 -0.09375,-0.09375 -0.109375,0 -0.515625,0.390625 -0.671875,0.6875 C 3.515625,-4.25 3.125,-4.40625 2.796875,-4.40625 c -1.171875,0 -2.390625,1.46875 -2.390625,2.921875 0,0.96875 0.578125,1.59375 1.3125,1.59375 0.421875,0 0.8125,-0.234375 1.171875,-0.59375 -0.09375,0.34375 -0.421875,1.6875 -0.453125,1.78125 -0.078125,0.28125 -0.15625,0.3125 -0.71875,0.328125 -0.125,0 -0.21875,0 -0.21875,0.203125 0,0 0,0.109375 0.125,0.109375 0.3125,0 0.671875,-0.03125 1,-0.03125 0.328125,0 0.6875,0.03125 1.03125,0.03125 0.046875,0 0.171875,0 0.171875,-0.203125 C 3.828125,1.625 3.734375,1.625 3.5625,1.625 3.09375,1.625 3.09375,1.5625 3.09375,1.46875 3.09375,1.390625 3.109375,1.328125 3.125,1.25 Z m -2.75,4.1875 c -0.609375,0 -0.640625,-0.765625 -0.640625,-0.9375 0,-0.484375 0.28125,-1.5625 0.453125,-1.984375 0.3125,-0.734375 0.828125,-1.15625 1.234375,-1.15625 0.65625,0 0.796875,0.8125 0.796875,0.875 0,0.0625 -0.546875,2.25 -0.578125,2.28125 C 2.859375,-0.75 2.296875,-0.109375 1.75,-0.109375 Z m 0,0"
           id="id-1ffded63-77e3-4d59-bfe9-e084cbc91fa7" />
      </g>
      <g
         id="id-ed8f10aa-521d-4ba7-96b8-47c253c8aacd" />
      <g
         id="id-b3f03bb4-88db-4a0c-9688-efb3ba856e93">
        <path
           d="M 1.734375,-2.90625 C 1.125,-3.046875 0.9375,-3.484375 0.9375,-3.78125 c 0,-0.453125 0.421875,-0.890625 1.0625,-0.890625 0.9375,0 1.34375,0.625 1.453125,1.359375 0.015625,0.09375 0.015625,0.140625 0.125,0.140625 0.109375,0 0.109375,-0.046875 0.109375,-0.1875 V -4.71875 c 0,-0.125 0,-0.1875 -0.09375,-0.1875 -0.046875,0 -0.0625,0.03125 -0.109375,0.109375 L 3.21875,-4.40625 C 2.765625,-4.875 2.1875,-4.90625 2,-4.90625 c -0.890625,0 -1.515625,0.640625 -1.515625,1.34375 0,0.390625 0.171875,0.6875 0.421875,0.921875 0.28125,0.265625 0.515625,0.3125 1.265625,0.484375 0.640625,0.140625 0.78125,0.171875 0.984375,0.359375 0.15625,0.171875 0.296875,0.390625 0.296875,0.703125 0,0.484375 -0.40625,0.984375 -1.0625,0.984375 -0.6875,0 -1.609375,-0.265625 -1.671875,-1.3125 0,-0.125 0,-0.15625 -0.109375,-0.15625 -0.125,0 -0.125,0.046875 -0.125,0.1875 v 1.34375 c 0,0.125 0,0.1875 0.09375,0.1875 0.0625,0 0.078125,-0.015625 0.125,-0.078125 0.0625,-0.09375 0.203125,-0.3125 0.25,-0.40625 0.4375,0.390625 0.984375,0.484375 1.4375,0.484375 0.90625,0 1.515625,-0.6875 1.515625,-1.4375 0,-0.625 -0.4375,-1.21875 -1.140625,-1.375 z m 0,0"
           id="id-85ed06f6-66f7-4c35-8097-0bb49ae0be1d" />
      </g>
      <g
         id="id-3d13b04b-2dfc-4060-b733-01d0f758ec4b">
        <path
           d="M 5.078125,-1.828125 H 4.84375 C 4.65625,-0.78125 4.5,-0.25 3.203125,-0.25 h -1.09375 c -0.328125,0 -0.34375,-0.0625 -0.34375,-0.265625 v -1.8125 H 2.46875 c 0.703125,0 0.8125,0.203125 0.8125,0.8125 H 3.515625 V -3.40625 H 3.28125 c 0,0.609375 -0.109375,0.828125 -0.8125,0.828125 H 1.765625 v -1.625 c 0,-0.21875 0.015625,-0.28125 0.34375,-0.28125 H 3.15625 c 1.140625,0 1.34375,0.375 1.46875,1.359375 h 0.234375 l -0.21875,-1.609375 h -4.25 v 0.25 H 0.5625 c 0.53125,0 0.546875,0.078125 0.546875,0.3125 V -0.5625 c 0,0.234375 -0.015625,0.3125 -0.546875,0.3125 H 0.390625 V 0 h 4.375 z m 0,0"
           id="id-d1c56b04-4d60-4c45-b791-de1cb95e7290" />
      </g>
      <g
         id="id-d549cfce-6467-43b4-b7a6-8e5627f1a33a" />
      <g
         id="id-d2c34ebd-d70a-496e-8959-aef6c9231917">
        <path
           d="m 3.296875,2.390625 c 0,-0.03125 0,-0.046875 -0.171875,-0.21875 C 1.890625,0.921875 1.5625,-0.96875 1.5625,-2.5 c 0,-1.734375 0.375,-3.46875 1.609375,-4.703125 0.125,-0.125 0.125,-0.140625 0.125,-0.171875 0,-0.078125 -0.03125,-0.109375 -0.09375,-0.109375 -0.109375,0 -1,0.6875 -1.59375,1.953125 -0.5,1.09375 -0.625,2.203125 -0.625,3.03125 0,0.78125 0.109375,1.984375 0.65625,3.125 C 2.25,1.84375 3.09375,2.5 3.203125,2.5 c 0.0625,0 0.09375,-0.03125 0.09375,-0.109375 z m 0,0"
           id="id-7428b6a4-c44e-4836-b7f1-ef67e610c089" />
      </g>
      <g
         id="id-909dcb49-44ae-48b3-be23-bb39c9817bee">
        <path
           d="m 2.9375,-6.375 c 0,-0.25 0,-0.265625 -0.234375,-0.265625 C 2.078125,-6 1.203125,-6 0.890625,-6 v 0.3125 c 0.203125,0 0.78125,0 1.296875,-0.265625 v 5.171875 c 0,0.359375 -0.03125,0.46875 -0.921875,0.46875 h -0.3125 V 0 c 0.34375,-0.03125 1.203125,-0.03125 1.609375,-0.03125 0.390625,0 1.265625,0 1.609375,0.03125 v -0.3125 h -0.3125 c -0.90625,0 -0.921875,-0.109375 -0.921875,-0.46875 z m 0,0"
           id="id-f2b664d1-a924-433b-96e2-81942a02e3ae" />
      </g>
      <g
         id="id-fa6e3cbf-999c-4025-a365-6c10e8dcb3ca">
        <path
           d="m 1.171875,-2.171875 c 0,-1.625 0.8125,-2.046875 1.34375,-2.046875 0.09375,0 0.71875,0.015625 1.0625,0.375 -0.40625,0.03125 -0.46875,0.328125 -0.46875,0.453125 0,0.265625 0.1875,0.453125 0.453125,0.453125 0.265625,0 0.46875,-0.15625 0.46875,-0.46875 0,-0.671875 -0.765625,-1.0625 -1.53125,-1.0625 -1.25,0 -2.15625,1.078125 -2.15625,2.3125 0,1.28125 0.984375,2.265625 2.140625,2.265625 1.328125,0 1.65625,-1.203125 1.65625,-1.296875 0,-0.09375 -0.109375,-0.09375 -0.140625,-0.09375 -0.078125,0 -0.109375,0.03125 -0.125,0.09375 -0.28125,0.921875 -0.9375,1.046875 -1.296875,1.046875 -0.53125,0 -1.40625,-0.421875 -1.40625,-2.03125 z m 0,0"
           id="id-6977b426-dad1-4b3b-9df0-2429045bc242" />
      </g>
      <g
         id="id-1585f392-4686-4edd-b57a-ea3ee5de4d91">
        <path
           d="M 4.6875,-2.140625 C 4.6875,-3.40625 3.703125,-4.46875 2.5,-4.46875 c -1.25,0 -2.21875,1.09375 -2.21875,2.328125 0,1.296875 1.03125,2.25 2.203125,2.25 1.203125,0 2.203125,-0.984375 2.203125,-2.25 z m -2.1875,2 c -0.4375,0 -0.875,-0.203125 -1.140625,-0.671875 -0.25,-0.4375 -0.25,-1.046875 -0.25,-1.40625 0,-0.390625 0,-0.921875 0.234375,-1.359375 C 1.609375,-4.03125 2.078125,-4.25 2.484375,-4.25 c 0.4375,0 0.859375,0.21875 1.125,0.65625 0.265625,0.421875 0.265625,1 0.265625,1.375 0,0.359375 0,0.90625 -0.21875,1.34375 C 3.421875,-0.421875 2.984375,-0.140625 2.5,-0.140625 Z m 0,0"
           id="id-a0a30553-2544-48f8-b43a-8223028caeea" />
      </g>
      <g
         id="id-c3a5d289-0b30-4b6a-9af3-5888efd0224e">
        <path
           d="m 2.078125,-1.9375 c 0.21875,0.046875 1.03125,0.203125 1.03125,0.921875 0,0.5 -0.34375,0.90625 -1.125,0.90625 -0.84375,0 -1.203125,-0.5625 -1.390625,-1.421875 C 0.5625,-1.65625 0.5625,-1.6875 0.453125,-1.6875 c -0.125,0 -0.125,0.0625 -0.125,0.234375 V -0.125 c 0,0.171875 0,0.234375 0.109375,0.234375 0.046875,0 0.0625,-0.015625 0.25,-0.203125 0.015625,-0.015625 0.015625,-0.03125 0.203125,-0.21875 0.4375,0.40625 0.890625,0.421875 1.09375,0.421875 1.140625,0 1.609375,-0.671875 1.609375,-1.390625 0,-0.515625 -0.296875,-0.828125 -0.421875,-0.9375 C 2.84375,-2.546875 2.453125,-2.625 2.03125,-2.703125 1.46875,-2.8125 0.8125,-2.9375 0.8125,-3.515625 c 0,-0.359375 0.25,-0.765625 1.109375,-0.765625 1.09375,0 1.15625,0.90625 1.171875,1.203125 0,0.09375 0.09375,0.09375 0.109375,0.09375 0.140625,0 0.140625,-0.046875 0.140625,-0.234375 v -1.015625 c 0,-0.15625 0,-0.234375 -0.109375,-0.234375 -0.046875,0 -0.078125,0 -0.203125,0.125 -0.03125,0.03125 -0.125,0.125 -0.171875,0.15625 -0.375,-0.28125 -0.78125,-0.28125 -0.9375,-0.28125 -1.21875,0 -1.59375,0.671875 -1.59375,1.234375 0,0.34375 0.15625,0.625 0.421875,0.84375 0.328125,0.25 0.609375,0.3125 1.328125,0.453125 z m 0,0"
           id="id-fa99b29d-3b01-4739-b33b-4bfdeb0ad866" />
      </g>
      <g
         id="id-ea43046f-4b3c-4859-b412-7ef1ac73100e">
        <path
           d="m 2.875,-2.5 c 0,-0.765625 -0.109375,-1.96875 -0.65625,-3.109375 -0.59375,-1.21875 -1.453125,-1.875 -1.546875,-1.875 -0.0625,0 -0.109375,0.046875 -0.109375,0.109375 0,0.03125 0,0.046875 0.1875,0.234375 0.984375,0.984375 1.546875,2.5625 1.546875,4.640625 0,1.71875 -0.359375,3.46875 -1.59375,4.71875 C 0.5625,2.34375 0.5625,2.359375 0.5625,2.390625 0.5625,2.453125 0.609375,2.5 0.671875,2.5 0.765625,2.5 1.671875,1.8125 2.25,0.546875 2.765625,-0.546875 2.875,-1.65625 2.875,-2.5 Z m 0,0"
           id="id-be074205-7c0b-48db-9086-68a20fba82c0" />
      </g>
      <g
         id="id-0e56d00f-7907-43fc-9cc9-9247b4b37d9e" />
      <g
         id="id-f7ffc6fe-8bb4-4c8c-a525-b7d928998c6e">
        <path
           d="m 6.5625,-2.296875 c 0.171875,0 0.359375,0 0.359375,-0.203125 0,-0.1875 -0.1875,-0.1875 -0.359375,-0.1875 H 1.171875 c -0.171875,0 -0.34375,0 -0.34375,0.1875 0,0.203125 0.171875,0.203125 0.34375,0.203125 z m 0,0"
           id="id-1f976a11-5f2c-49fd-87f8-cfc07d5a7ef2" />
      </g>
    </g>
  </defs>
  <g
     inkscape:label="Layer 1"
     inkscape:groupmode="layer"
     id="layer1"
     transform="translate(5.3782439,-167.00948)">
    <g
       id="g233659"
       transform="translate(-467.98931,-241.44083)">
      <path
         style="color:#000000;fill:#000000;fill-rule:evenodd;stroke:#000000;stroke-width:0.593464;-inkscape-stroke:none"
         d="m 499.33999,409.53043 -0.90411,3.16437 0.90411,-0.9041 0.9041,0.9041 z m 0,0.69199 0.52044,1.82096 -0.52044,-0.5216 -0.0672,0.0672 -0.45321,0.45437 z"
         id="path233383" />
      <path
         style="color:#000000;fill:#000000;stroke:#000000;stroke-width:0.593464;stroke-linecap:square;-inkscape-stroke:none;paint-order:fill markers stroke"
         d="m 499.25073,410.22242 v 0.0881 37.0619 h 0.1785 v -37.0619 -0.0881 z"
         id="path233387"
         sodipodi:nodetypes="ccccccc" />
      <g
         inkscape:label=""
         transform="matrix(0.59346446,0,0,0.59346446,436.746,398.41667)"
         id="g233395"
         style="fill:#000000;stroke:#000000">
        <g
           id="g233393"
           style="fill:#000000;stroke:#000000">
          <g
             style="fill:#000000;fill-opacity:1;stroke:#000000"
             id="g233391">
            <g
               id="use233389"
               style="fill:#000000;stroke:#000000"
               transform="translate(91.925003,81.962997)">
              <path
                 style="stroke:none"
                 d="m 4.578125,-3.1875 c 0,-0.796875 -0.046875,-1.59375 -0.390625,-2.328125 -0.453125,-0.96875 -1.28125,-1.125 -1.6875,-1.125 -0.609375,0 -1.328125,0.265625 -1.75,1.1875 -0.3125,0.6875 -0.359375,1.46875 -0.359375,2.265625 0,0.75 0.03125,1.640625 0.453125,2.40625 0.421875,0.796875 1.15625,1 1.640625,1 0.53125,0 1.296875,-0.203125 1.734375,-1.15625 0.3125,-0.6875 0.359375,-1.46875 0.359375,-2.25 z M 2.484375,0 C 2.09375,0 1.5,-0.25 1.328125,-1.203125 1.21875,-1.796875 1.21875,-2.71875 1.21875,-3.3125 c 0,-0.640625 0,-1.296875 0.078125,-1.828125 0.1875,-1.1875 0.9375,-1.28125 1.1875,-1.28125 0.328125,0 0.984375,0.1875 1.171875,1.171875 0.109375,0.5625 0.109375,1.3125 0.109375,1.9375 0,0.75 0,1.421875 -0.109375,2.0625 C 3.5,-0.296875 2.9375,0 2.484375,0 Z m 0,0"
                 id="path266506" />
            </g>
          </g>
        </g>
      </g>
      <path
         style="fill:#000000;stroke:#000000;stroke-width:0.178039;paint-order:fill markers stroke"
         d="m 496.19957,445.15322 h 3.14041"
         id="path233397" />
      <path
         style="fill:#000000;stroke:#000000;stroke-width:0.593464;stroke-miterlimit:4;stroke-dasharray:none;paint-order:fill markers stroke"
         d="m 512.47999,445.15326 h 52.56"
         id="path233399"
         sodipodi:nodetypes="cc" />
      <path
         style="fill:#000000;stroke:#000000;stroke-width:0.593464;stroke-miterlimit:4;stroke-dasharray:none;paint-order:fill markers stroke"
         d="m 512.47999,419.88139 h 52.56"
         id="path233401"
         sodipodi:nodetypes="cc" />
      <g
         inkscape:label=""
         transform="matrix(0,-0.59346446,0.59346446,0,437.9875,489.54831)"
         id="g233409"
         style="fill:#000000;stroke:#000000">
        <g
           id="g233407"
           style="fill:#000000;stroke:#000000">
          <g
             style="fill:#000000;fill-opacity:1;stroke:#000000"
             id="g233405">
            <g
               id="use233403"
               style="fill:#000000;stroke:#000000"
               transform="translate(91.925003,81.962997)">
              <path
                 style="stroke:none"
                 d="M 7.0625,-2.328125 C 7.078125,-2.375 7.109375,-2.4375 7.109375,-2.46875 c 0,0 0,-0.109375 -0.125,-0.109375 -0.09375,0 -0.109375,0.0625 -0.125,0.125 C 6.203125,-0.984375 5.84375,-0.3125 4.140625,-0.3125 H 2.6875 c -0.140625,0 -0.171875,0 -0.21875,0 -0.109375,-0.015625 -0.140625,-0.03125 -0.140625,-0.109375 0,-0.03125 0,-0.046875 0.046875,-0.21875 L 3.0625,-3.375 h 0.984375 c 0.84375,0 0.84375,0.21875 0.84375,0.46875 0,0.0625 0,0.1875 -0.0625,0.484375 C 4.8125,-2.375 4.796875,-2.34375 4.796875,-2.3125 c 0,0.046875 0.03125,0.109375 0.125,0.109375 C 5,-2.203125 5.03125,-2.25 5.078125,-2.40625 l 0.5625,-2.328125 c 0,-0.0625 -0.046875,-0.109375 -0.125,-0.109375 -0.078125,0 -0.109375,0.0625 -0.125,0.171875 -0.21875,0.765625 -0.390625,1 -1.3125,1 h -0.9375 l 0.59375,-2.40625 C 3.828125,-6.4375 3.84375,-6.46875 4.28125,-6.46875 H 5.6875 c 1.203125,0 1.515625,0.28125 1.515625,1.109375 0,0.234375 0,0.25 -0.046875,0.53125 0,0.046875 -0.015625,0.125 -0.015625,0.171875 0,0.046875 0.03125,0.125 0.125,0.125 0.109375,0 0.125,-0.0625 0.140625,-0.25 L 7.609375,-6.515625 C 7.640625,-6.78125 7.59375,-6.78125 7.34375,-6.78125 H 2.296875 c -0.1875,0 -0.296875,0 -0.296875,0.203125 0,0.109375 0.09375,0.109375 0.28125,0.109375 0.375,0 0.65625,0 0.65625,0.171875 0,0.046875 0,0.0625 -0.0625,0.25 L 1.5625,-0.78125 c -0.09375,0.390625 -0.109375,0.46875 -0.90625,0.46875 -0.171875,0 -0.28125,0 -0.28125,0.1875 C 0.375,0 0.46875,0 0.65625,0 h 5.171875 c 0.234375,0 0.25,-0.015625 0.3125,-0.171875 z m 0,0"
                 id="path266502" />
            </g>
          </g>
        </g>
      </g>
      <g
         transform="matrix(0.894291,0,0,0.894291,524.68653,409.55362)"
         ns16:version="1.8.1"
         ns16:texconverter="pdflatex"
         ns16:pdfconverter="inkscape"
         ns16:text="$\\mathcal{D}_{N/2-1}$"
         ns16:preamble="/home/tana/Documents/Conferences/FINESS22/poster_packages.tex"
         ns16:scale="3.38"
         ns16:alignment="middle center"
         ns16:stroke-to-path="0"
         ns16:inkscapeversion="1.1.2"
         ns16:jacobian_sqrt="0.894291"
         id="g233483">
        <defs
           id="defs233445">
          <g
             id="g266346">
            <g
               id="g266314" />
            <g
               id="g266318">
              <path
                 d="m 2.03125,0 c 2.328125,0 5.609375,-1.78125 5.609375,-4.5 0,-0.890625 -0.421875,-1.4375 -0.90625,-1.75 C 5.875,-6.8125 4.953125,-6.8125 4,-6.8125 c -0.84375,0 -1.4375,0 -2.28125,0.359375 -1.3125,0.59375 -1.515625,1.421875 -1.515625,1.5 0,0.0625 0.046875,0.078125 0.109375,0.078125 0.15625,0 0.390625,-0.140625 0.46875,-0.1875 0.203125,-0.140625 0.234375,-0.203125 0.296875,-0.390625 0.140625,-0.40625 0.421875,-0.75 1.671875,-0.8125 -0.15625,2.09375 -0.671875,4 -1.359375,5.734375 -0.375,0.125 -0.609375,0.359375 -0.609375,0.46875 C 0.78125,-0.015625 0.78125,0 1,0 Z m 0.046875,-0.546875 c 1.140625,-2.78125 1.34375,-4.515625 1.484375,-5.71875 0.671875,0 3.21875,0 3.21875,2.203125 0,1.953125 -1.75,3.515625 -4.15625,3.515625 z m 0,0"
                 id="path266316" />
            </g>
            <g
               id="g266320" />
            <g
               id="g266324">
              <path
                 d="M 5.8125,-4 C 5.875,-4.265625 6,-4.5 6.546875,-4.515625 c 0.03125,0 0.140625,0 0.140625,-0.140625 0,-0.046875 -0.03125,-0.109375 -0.109375,-0.109375 -0.21875,0 -0.484375,0.03125 -0.71875,0.03125 -0.171875,0 -0.5625,-0.03125 -0.734375,-0.03125 -0.03125,0 -0.140625,0 -0.140625,0.15625 0,0.09375 0.09375,0.09375 0.15625,0.09375 0.328125,0.015625 0.4375,0.125 0.4375,0.296875 0,0.046875 0,0.09375 -0.03125,0.15625 l -0.75,3.046875 -1.765625,-3.625 c -0.0625,-0.125 -0.078125,-0.125 -0.25,-0.125 H 1.828125 c -0.125,0 -0.21875,0 -0.21875,0.15625 0,0.09375 0.078125,0.09375 0.234375,0.09375 0.140625,0 0.296875,0.015625 0.4375,0.046875 L 1.359375,-0.75 c -0.0625,0.265625 -0.1875,0.484375 -0.734375,0.5 -0.046875,0 -0.140625,0 -0.140625,0.140625 C 0.484375,-0.03125 0.53125,0 0.578125,0 0.8125,0 1.078125,-0.03125 1.3125,-0.03125 1.484375,-0.03125 1.875,0 2.046875,0 2.125,0 2.1875,-0.03125 2.1875,-0.140625 2.1875,-0.25 2.109375,-0.25 2.03125,-0.25 c -0.4375,-0.015625 -0.4375,-0.203125 -0.4375,-0.296875 0,-0.03125 0,-0.0625 0.015625,-0.171875 l 0.90625,-3.5625 2.03125,4.15625 C 4.59375,0 4.625,0 4.703125,0 4.8125,0 4.8125,-0.015625 4.84375,-0.140625 Z m 0,0"
                 id="path266322" />
            </g>
            <g
               id="g266328">
              <path
                 d="m 3.484375,-4.921875 c 0.046875,-0.09375 0.046875,-0.109375 0.046875,-0.125 0,-0.109375 -0.09375,-0.171875 -0.171875,-0.171875 -0.109375,0 -0.140625,0.078125 -0.1875,0.171875 L 0.578125,1.4375 C 0.53125,1.53125 0.53125,1.546875 0.53125,1.5625 c 0,0.109375 0.09375,0.171875 0.171875,0.171875 0.125,0 0.15625,-0.078125 0.1875,-0.171875 z m 0,0"
                 id="path266326" />
            </g>
            <g
               id="g266330" />
            <g
               id="g266334">
              <path
                 d="M 3.515625,-1.265625 H 3.28125 c -0.015625,0.15625 -0.09375,0.5625 -0.1875,0.625 C 3.046875,-0.59375 2.515625,-0.59375 2.40625,-0.59375 H 1.125 c 0.734375,-0.640625 0.984375,-0.84375 1.390625,-1.171875 0.515625,-0.40625 1,-0.84375 1,-1.5 0,-0.84375 -0.734375,-1.359375 -1.625,-1.359375 -0.859375,0 -1.453125,0.609375 -1.453125,1.25 0,0.34375 0.296875,0.390625 0.375,0.390625 0.15625,0 0.359375,-0.125 0.359375,-0.375 0,-0.125 -0.046875,-0.375 -0.40625,-0.375 C 0.984375,-4.21875 1.453125,-4.375 1.78125,-4.375 c 0.703125,0 1.0625,0.546875 1.0625,1.109375 0,0.609375 -0.4375,1.078125 -0.65625,1.328125 L 0.515625,-0.265625 C 0.4375,-0.203125 0.4375,-0.1875 0.4375,0 h 2.875 z m 0,0"
                 id="path266332" />
            </g>
            <g
               id="g266338">
              <path
                 d="m 2.328125,-4.4375 c 0,-0.1875 0,-0.1875 -0.203125,-0.1875 -0.453125,0.4375 -1.078125,0.4375 -1.359375,0.4375 v 0.25 c 0.15625,0 0.625,0 1,-0.1875 v 3.546875 c 0,0.234375 0,0.328125 -0.6875,0.328125 H 0.8125 V 0 c 0.125,0 0.984375,-0.03125 1.234375,-0.03125 0.21875,0 1.09375,0.03125 1.25,0.03125 V -0.25 H 3.03125 c -0.703125,0 -0.703125,-0.09375 -0.703125,-0.328125 z m 0,0"
                 id="path266336" />
            </g>
            <g
               id="g266340" />
            <g
               id="g266344">
              <path
                 d="m 5.1875,-1.578125 c 0.109375,0 0.28125,0 0.28125,-0.15625 0,-0.1875 -0.171875,-0.1875 -0.28125,-0.1875 H 1.03125 c -0.109375,0 -0.28125,0 -0.28125,0.171875 0,0.171875 0.15625,0.171875 0.28125,0.171875 z m 0,0"
                 id="path266342" />
            </g>
          </g>
        </defs>
        <g
           fill="#000000"
           fill-opacity="1"
           id="g233451"
           transform="translate(-148.915,-127.953)">
          <g
             transform="translate(148.712,134.765)"
             id="g233449">
            <path
               d="m 2.03125,0 c 2.328125,0 5.609375,-1.78125 5.609375,-4.5 0,-0.890625 -0.421875,-1.4375 -0.90625,-1.75 C 5.875,-6.8125 4.953125,-6.8125 4,-6.8125 c -0.84375,0 -1.4375,0 -2.28125,0.359375 -1.3125,0.59375 -1.515625,1.421875 -1.515625,1.5 0,0.0625 0.046875,0.078125 0.109375,0.078125 0.15625,0 0.390625,-0.140625 0.46875,-0.1875 0.203125,-0.140625 0.234375,-0.203125 0.296875,-0.390625 0.140625,-0.40625 0.421875,-0.75 1.671875,-0.8125 -0.15625,2.09375 -0.671875,4 -1.359375,5.734375 -0.375,0.125 -0.609375,0.359375 -0.609375,0.46875 C 0.78125,-0.015625 0.78125,0 1,0 Z m 0.046875,-0.546875 c 1.140625,-2.78125 1.34375,-4.515625 1.484375,-5.71875 0.671875,0 3.21875,0 3.21875,2.203125 0,1.953125 -1.75,3.515625 -4.15625,3.515625 z m 0,0"
               id="path233447" />
          </g>
        </g>
        <g
           fill="#000000"
           fill-opacity="1"
           id="g233457"
           transform="translate(-148.915,-127.953)">
          <g
             transform="translate(156.397,136.563)"
             id="g233455">
            <path
               d="M 5.8125,-4 C 5.875,-4.265625 6,-4.5 6.546875,-4.515625 c 0.03125,0 0.140625,0 0.140625,-0.140625 0,-0.046875 -0.03125,-0.109375 -0.109375,-0.109375 -0.21875,0 -0.484375,0.03125 -0.71875,0.03125 -0.171875,0 -0.5625,-0.03125 -0.734375,-0.03125 -0.03125,0 -0.140625,0 -0.140625,0.15625 0,0.09375 0.09375,0.09375 0.15625,0.09375 0.328125,0.015625 0.4375,0.125 0.4375,0.296875 0,0.046875 0,0.09375 -0.03125,0.15625 l -0.75,3.046875 -1.765625,-3.625 c -0.0625,-0.125 -0.078125,-0.125 -0.25,-0.125 H 1.828125 c -0.125,0 -0.21875,0 -0.21875,0.15625 0,0.09375 0.078125,0.09375 0.234375,0.09375 0.140625,0 0.296875,0.015625 0.4375,0.046875 L 1.359375,-0.75 c -0.0625,0.265625 -0.1875,0.484375 -0.734375,0.5 -0.046875,0 -0.140625,0 -0.140625,0.140625 C 0.484375,-0.03125 0.53125,0 0.578125,0 0.8125,0 1.078125,-0.03125 1.3125,-0.03125 1.484375,-0.03125 1.875,0 2.046875,0 2.125,0 2.1875,-0.03125 2.1875,-0.140625 2.1875,-0.25 2.109375,-0.25 2.03125,-0.25 c -0.4375,-0.015625 -0.4375,-0.203125 -0.4375,-0.296875 0,-0.03125 0,-0.0625 0.015625,-0.171875 l 0.90625,-3.5625 2.03125,4.15625 C 4.59375,0 4.625,0 4.703125,0 4.8125,0 4.8125,-0.015625 4.84375,-0.140625 Z m 0,0"
               id="path233453" />
          </g>
        </g>
        <g
           fill="#000000"
           fill-opacity="1"
           id="g233463"
           transform="translate(-148.915,-127.953)">
          <g
             transform="translate(162.812,136.563)"
             id="g233461">
            <path
               d="m 3.484375,-4.921875 c 0.046875,-0.09375 0.046875,-0.109375 0.046875,-0.125 0,-0.109375 -0.09375,-0.171875 -0.171875,-0.171875 -0.109375,0 -0.140625,0.078125 -0.1875,0.171875 L 0.578125,1.4375 C 0.53125,1.53125 0.53125,1.546875 0.53125,1.5625 c 0,0.109375 0.09375,0.171875 0.171875,0.171875 0.125,0 0.15625,-0.078125 0.1875,-0.171875 z m 0,0"
               id="path233459" />
          </g>
        </g>
        <g
           fill="#000000"
           fill-opacity="1"
           id="g233469"
           transform="translate(-148.915,-127.953)">
          <g
             transform="translate(166.894,136.563)"
             id="g233467">
            <path
               d="M 3.515625,-1.265625 H 3.28125 c -0.015625,0.15625 -0.09375,0.5625 -0.1875,0.625 C 3.046875,-0.59375 2.515625,-0.59375 2.40625,-0.59375 H 1.125 c 0.734375,-0.640625 0.984375,-0.84375 1.390625,-1.171875 0.515625,-0.40625 1,-0.84375 1,-1.5 0,-0.84375 -0.734375,-1.359375 -1.625,-1.359375 -0.859375,0 -1.453125,0.609375 -1.453125,1.25 0,0.34375 0.296875,0.390625 0.375,0.390625 0.15625,0 0.359375,-0.125 0.359375,-0.375 0,-0.125 -0.046875,-0.375 -0.40625,-0.375 C 0.984375,-4.21875 1.453125,-4.375 1.78125,-4.375 c 0.703125,0 1.0625,0.546875 1.0625,1.109375 0,0.609375 -0.4375,1.078125 -0.65625,1.328125 L 0.515625,-0.265625 C 0.4375,-0.203125 0.4375,-0.1875 0.4375,0 h 2.875 z m 0,0"
               id="path233465" />
          </g>
        </g>
        <g
           fill="#000000"
           fill-opacity="1"
           id="g233475"
           transform="translate(-148.915,-127.953)">
          <g
             transform="translate(170.865,136.563)"
             id="g233473">
            <path
               d="m 5.1875,-1.578125 c 0.109375,0 0.28125,0 0.28125,-0.15625 0,-0.1875 -0.171875,-0.1875 -0.28125,-0.1875 H 1.03125 c -0.109375,0 -0.28125,0 -0.28125,0.171875 0,0.171875 0.15625,0.171875 0.28125,0.171875 z m 0,0"
               id="path233471" />
          </g>
        </g>
        <g
           fill="#000000"
           fill-opacity="1"
           id="g233481"
           transform="translate(-148.915,-127.953)">
          <g
             transform="translate(177.092,136.563)"
             id="g233479">
            <path
               d="m 2.328125,-4.4375 c 0,-0.1875 0,-0.1875 -0.203125,-0.1875 -0.453125,0.4375 -1.078125,0.4375 -1.359375,0.4375 v 0.25 c 0.15625,0 0.625,0 1,-0.1875 v 3.546875 c 0,0.234375 0,0.328125 -0.6875,0.328125 H 0.8125 V 0 c 0.125,0 0.984375,-0.03125 1.234375,-0.03125 0.21875,0 1.09375,0.03125 1.25,0.03125 V -0.25 H 3.03125 c -0.703125,0 -0.703125,-0.09375 -0.703125,-0.328125 z m 0,0"
               id="path233477" />
          </g>
        </g>
      </g>
      <g
         transform="matrix(0.894291,0,0,0.894291,529.14871,434.91935)"
         ns16:version="1.8.1"
         ns16:texconverter="pdflatex"
         ns16:pdfconverter="inkscape"
         ns16:text="$\\mathcal{D}_{N/2}$"
         ns16:preamble="/home/tana/Documents/Conferences/FINESS22/poster_packages.tex"
         ns16:scale="3.38"
         ns16:alignment="middle center"
         ns16:stroke-to-path="0"
         ns16:inkscapeversion="1.1.2"
         ns16:jacobian_sqrt="0.894291"
         id="g233535">
        <defs
           id="defs233509">
          <g
             id="g266390">
            <g
               id="g266368" />
            <g
               id="g266372">
              <path
                 d="m 2.03125,0 c 2.328125,0 5.609375,-1.78125 5.609375,-4.5 0,-0.890625 -0.421875,-1.4375 -0.90625,-1.75 C 5.875,-6.8125 4.953125,-6.8125 4,-6.8125 c -0.84375,0 -1.4375,0 -2.28125,0.359375 -1.3125,0.59375 -1.515625,1.421875 -1.515625,1.5 0,0.0625 0.046875,0.078125 0.109375,0.078125 0.15625,0 0.390625,-0.140625 0.46875,-0.1875 0.203125,-0.140625 0.234375,-0.203125 0.296875,-0.390625 0.140625,-0.40625 0.421875,-0.75 1.671875,-0.8125 -0.15625,2.09375 -0.671875,4 -1.359375,5.734375 -0.375,0.125 -0.609375,0.359375 -0.609375,0.46875 C 0.78125,-0.015625 0.78125,0 1,0 Z m 0.046875,-0.546875 c 1.140625,-2.78125 1.34375,-4.515625 1.484375,-5.71875 0.671875,0 3.21875,0 3.21875,2.203125 0,1.953125 -1.75,3.515625 -4.15625,3.515625 z m 0,0"
                 id="path266370" />
            </g>
            <g
               id="g266374" />
            <g
               id="g266378">
              <path
                 d="M 5.8125,-4 C 5.875,-4.265625 6,-4.5 6.546875,-4.515625 c 0.03125,0 0.140625,0 0.140625,-0.140625 0,-0.046875 -0.03125,-0.109375 -0.109375,-0.109375 -0.21875,0 -0.484375,0.03125 -0.71875,0.03125 -0.171875,0 -0.5625,-0.03125 -0.734375,-0.03125 -0.03125,0 -0.140625,0 -0.140625,0.15625 0,0.09375 0.09375,0.09375 0.15625,0.09375 0.328125,0.015625 0.4375,0.125 0.4375,0.296875 0,0.046875 0,0.09375 -0.03125,0.15625 l -0.75,3.046875 -1.765625,-3.625 c -0.0625,-0.125 -0.078125,-0.125 -0.25,-0.125 H 1.828125 c -0.125,0 -0.21875,0 -0.21875,0.15625 0,0.09375 0.078125,0.09375 0.234375,0.09375 0.140625,0 0.296875,0.015625 0.4375,0.046875 L 1.359375,-0.75 c -0.0625,0.265625 -0.1875,0.484375 -0.734375,0.5 -0.046875,0 -0.140625,0 -0.140625,0.140625 C 0.484375,-0.03125 0.53125,0 0.578125,0 0.8125,0 1.078125,-0.03125 1.3125,-0.03125 1.484375,-0.03125 1.875,0 2.046875,0 2.125,0 2.1875,-0.03125 2.1875,-0.140625 2.1875,-0.25 2.109375,-0.25 2.03125,-0.25 c -0.4375,-0.015625 -0.4375,-0.203125 -0.4375,-0.296875 0,-0.03125 0,-0.0625 0.015625,-0.171875 l 0.90625,-3.5625 2.03125,4.15625 C 4.59375,0 4.625,0 4.703125,0 4.8125,0 4.8125,-0.015625 4.84375,-0.140625 Z m 0,0"
                 id="path266376" />
            </g>
            <g
               id="g266382">
              <path
                 d="m 3.484375,-4.921875 c 0.046875,-0.09375 0.046875,-0.109375 0.046875,-0.125 0,-0.109375 -0.09375,-0.171875 -0.171875,-0.171875 -0.109375,0 -0.140625,0.078125 -0.1875,0.171875 L 0.578125,1.4375 C 0.53125,1.53125 0.53125,1.546875 0.53125,1.5625 c 0,0.109375 0.09375,0.171875 0.171875,0.171875 0.125,0 0.15625,-0.078125 0.1875,-0.171875 z m 0,0"
                 id="path266380" />
            </g>
            <g
               id="g266384" />
            <g
               id="g266388">
              <path
                 d="M 3.515625,-1.265625 H 3.28125 c -0.015625,0.15625 -0.09375,0.5625 -0.1875,0.625 C 3.046875,-0.59375 2.515625,-0.59375 2.40625,-0.59375 H 1.125 c 0.734375,-0.640625 0.984375,-0.84375 1.390625,-1.171875 0.515625,-0.40625 1,-0.84375 1,-1.5 0,-0.84375 -0.734375,-1.359375 -1.625,-1.359375 -0.859375,0 -1.453125,0.609375 -1.453125,1.25 0,0.34375 0.296875,0.390625 0.375,0.390625 0.15625,0 0.359375,-0.125 0.359375,-0.375 0,-0.125 -0.046875,-0.375 -0.40625,-0.375 C 0.984375,-4.21875 1.453125,-4.375 1.78125,-4.375 c 0.703125,0 1.0625,0.546875 1.0625,1.109375 0,0.609375 -0.4375,1.078125 -0.65625,1.328125 L 0.515625,-0.265625 C 0.4375,-0.203125 0.4375,-0.1875 0.4375,0 h 2.875 z m 0,0"
                 id="path266386" />
            </g>
          </g>
        </defs>
        <g
           fill="#000000"
           fill-opacity="1"
           id="g233515"
           transform="translate(-148.915,-127.953)">
          <g
             transform="translate(148.712,134.765)"
             id="g233513">
            <path
               d="m 2.03125,0 c 2.328125,0 5.609375,-1.78125 5.609375,-4.5 0,-0.890625 -0.421875,-1.4375 -0.90625,-1.75 C 5.875,-6.8125 4.953125,-6.8125 4,-6.8125 c -0.84375,0 -1.4375,0 -2.28125,0.359375 -1.3125,0.59375 -1.515625,1.421875 -1.515625,1.5 0,0.0625 0.046875,0.078125 0.109375,0.078125 0.15625,0 0.390625,-0.140625 0.46875,-0.1875 0.203125,-0.140625 0.234375,-0.203125 0.296875,-0.390625 0.140625,-0.40625 0.421875,-0.75 1.671875,-0.8125 -0.15625,2.09375 -0.671875,4 -1.359375,5.734375 -0.375,0.125 -0.609375,0.359375 -0.609375,0.46875 C 0.78125,-0.015625 0.78125,0 1,0 Z m 0.046875,-0.546875 c 1.140625,-2.78125 1.34375,-4.515625 1.484375,-5.71875 0.671875,0 3.21875,0 3.21875,2.203125 0,1.953125 -1.75,3.515625 -4.15625,3.515625 z m 0,0"
               id="path233511" />
          </g>
        </g>
        <g
           fill="#000000"
           fill-opacity="1"
           id="g233521"
           transform="translate(-148.915,-127.953)">
          <g
             transform="translate(156.397,136.563)"
             id="g233519">
            <path
               d="M 5.8125,-4 C 5.875,-4.265625 6,-4.5 6.546875,-4.515625 c 0.03125,0 0.140625,0 0.140625,-0.140625 0,-0.046875 -0.03125,-0.109375 -0.109375,-0.109375 -0.21875,0 -0.484375,0.03125 -0.71875,0.03125 -0.171875,0 -0.5625,-0.03125 -0.734375,-0.03125 -0.03125,0 -0.140625,0 -0.140625,0.15625 0,0.09375 0.09375,0.09375 0.15625,0.09375 0.328125,0.015625 0.4375,0.125 0.4375,0.296875 0,0.046875 0,0.09375 -0.03125,0.15625 l -0.75,3.046875 -1.765625,-3.625 c -0.0625,-0.125 -0.078125,-0.125 -0.25,-0.125 H 1.828125 c -0.125,0 -0.21875,0 -0.21875,0.15625 0,0.09375 0.078125,0.09375 0.234375,0.09375 0.140625,0 0.296875,0.015625 0.4375,0.046875 L 1.359375,-0.75 c -0.0625,0.265625 -0.1875,0.484375 -0.734375,0.5 -0.046875,0 -0.140625,0 -0.140625,0.140625 C 0.484375,-0.03125 0.53125,0 0.578125,0 0.8125,0 1.078125,-0.03125 1.3125,-0.03125 1.484375,-0.03125 1.875,0 2.046875,0 2.125,0 2.1875,-0.03125 2.1875,-0.140625 2.1875,-0.25 2.109375,-0.25 2.03125,-0.25 c -0.4375,-0.015625 -0.4375,-0.203125 -0.4375,-0.296875 0,-0.03125 0,-0.0625 0.015625,-0.171875 l 0.90625,-3.5625 2.03125,4.15625 C 4.59375,0 4.625,0 4.703125,0 4.8125,0 4.8125,-0.015625 4.84375,-0.140625 Z m 0,0"
               id="path233517" />
          </g>
        </g>
        <g
           fill="#000000"
           fill-opacity="1"
           id="g233527"
           transform="translate(-148.915,-127.953)">
          <g
             transform="translate(162.812,136.563)"
             id="g233525">
            <path
               d="m 3.484375,-4.921875 c 0.046875,-0.09375 0.046875,-0.109375 0.046875,-0.125 0,-0.109375 -0.09375,-0.171875 -0.171875,-0.171875 -0.109375,0 -0.140625,0.078125 -0.1875,0.171875 L 0.578125,1.4375 C 0.53125,1.53125 0.53125,1.546875 0.53125,1.5625 c 0,0.109375 0.09375,0.171875 0.171875,0.171875 0.125,0 0.15625,-0.078125 0.1875,-0.171875 z m 0,0"
               id="path233523" />
          </g>
        </g>
        <g
           fill="#000000"
           fill-opacity="1"
           id="g233533"
           transform="translate(-148.915,-127.953)">
          <g
             transform="translate(166.894,136.563)"
             id="g233531">
            <path
               d="M 3.515625,-1.265625 H 3.28125 c -0.015625,0.15625 -0.09375,0.5625 -0.1875,0.625 C 3.046875,-0.59375 2.515625,-0.59375 2.40625,-0.59375 H 1.125 c 0.734375,-0.640625 0.984375,-0.84375 1.390625,-1.171875 0.515625,-0.40625 1,-0.84375 1,-1.5 0,-0.84375 -0.734375,-1.359375 -1.625,-1.359375 -0.859375,0 -1.453125,0.609375 -1.453125,1.25 0,0.34375 0.296875,0.390625 0.375,0.390625 0.15625,0 0.359375,-0.125 0.359375,-0.375 0,-0.125 -0.046875,-0.375 -0.40625,-0.375 C 0.984375,-4.21875 1.453125,-4.375 1.78125,-4.375 c 0.703125,0 1.0625,0.546875 1.0625,1.109375 0,0.609375 -0.4375,1.078125 -0.65625,1.328125 L 0.515625,-0.265625 C 0.4375,-0.203125 0.4375,-0.1875 0.4375,0 h 2.875 z m 0,0"
               id="path233529" />
          </g>
        </g>
      </g>
      <path
         style="fill:#000000;stroke:#000000;stroke-width:0.178039;paint-order:fill markers stroke"
         d="m 499.33998,419.88138 h -3.14041"
         id="path233537" />
      <path
         style="fill:none;stroke:#000000;stroke-width:0.675525;stroke-linecap:butt;stroke-linejoin:miter;stroke-miterlimit:4;stroke-dasharray:1.35105, 0.675525;stroke-dashoffset:0;stroke-opacity:1;marker-start:url(#Arrow1Mstart-8)"
         d="m 550.73352,441.8748 c 1.91369,-3.86493 4.9862,-10.22734 0,-20.30786"
         id="path233655"
         sodipodi:nodetypes="cc" />
      <path
         style="fill:none;stroke:#000000;stroke-width:0.675525;stroke-linecap:butt;stroke-linejoin:miter;stroke-miterlimit:4;stroke-dasharray:1.35105, 0.675525;stroke-dashoffset:0;stroke-opacity:1;marker-start:url(#Arrow1Mstart-8)"
         d="m 526.78645,422.61255 c -1.91369,3.86494 -4.9862,10.22734 0,20.30787"
         id="path233657"
         sodipodi:nodetypes="cc" />
      <g
         transform="matrix(0.529166,0,0,0.529166,462.611,417.24)"
         ns16:version="1.8.1"
         ns16:texconverter="pdflatex"
         ns16:pdfconverter="inkscape"
         ns16:text="$J_\\mathrm{SE}(1-\\cos q)$"
         ns16:preamble="/home/tana/Documents/Conferences/FINESS22/poster_packages.tex"
         ns16:scale="2.0"
         ns16:alignment="middle center"
         ns16:stroke-to-path="0"
         ns16:inkscapeversion="1.1.2"
         ns16:jacobian_sqrt="0.529166"
         id="g233653">
        <defs
           id="id-5ec7d8f1-7214-447c-99f5-87447005e4c9">
          <g
             id="g266461">
            <g
               id="g266409" />
            <g
               id="g266413">
              <path
                 d="M 5.390625,-6.078125 C 5.46875,-6.40625 5.5,-6.5 6.046875,-6.5 c 0.15625,0 0.265625,0 0.265625,-0.1875 0,-0.09375 -0.0625,-0.125 -0.140625,-0.125 -0.25,0 -0.859375,0.03125 -1.109375,0.03125 -0.328125,0 -1.140625,-0.03125 -1.46875,-0.03125 -0.078125,0 -0.203125,0 -0.203125,0.203125 C 3.390625,-6.5 3.46875,-6.5 3.734375,-6.5 c 0.21875,0 0.328125,0 0.578125,0.015625 0.234375,0.03125 0.296875,0.0625 0.296875,0.203125 0,0.0625 -0.015625,0.125 -0.03125,0.203125 L 3.421875,-1.5 C 3.1875,-0.53125 2.515625,0 2,0 1.734375,0 1.203125,-0.09375 1.046875,-0.625 c 0.03125,0.015625 0.09375,0.015625 0.125,0.015625 0.390625,0 0.640625,-0.34375 0.640625,-0.640625 0,-0.3125 -0.265625,-0.421875 -0.4375,-0.421875 -0.171875,0 -0.671875,0.125 -0.671875,0.796875 0,0.625 0.53125,1.09375 1.328125,1.09375 0.90625,0 1.953125,-0.65625 2.203125,-1.640625 z m 0,0"
                 id="path266411" />
            </g>
            <g
               id="g266417">
              <path
                 d="m 4.5,-4.296875 c 0,-0.046875 -0.03125,-0.09375 -0.09375,-0.09375 -0.109375,0 -0.515625,0.390625 -0.671875,0.6875 C 3.515625,-4.25 3.125,-4.40625 2.796875,-4.40625 c -1.171875,0 -2.390625,1.46875 -2.390625,2.921875 0,0.96875 0.578125,1.59375 1.3125,1.59375 0.421875,0 0.8125,-0.234375 1.171875,-0.59375 -0.09375,0.34375 -0.421875,1.6875 -0.453125,1.78125 -0.078125,0.28125 -0.15625,0.3125 -0.71875,0.328125 -0.125,0 -0.21875,0 -0.21875,0.203125 0,0 0,0.109375 0.125,0.109375 0.3125,0 0.671875,-0.03125 1,-0.03125 0.328125,0 0.6875,0.03125 1.03125,0.03125 0.046875,0 0.171875,0 0.171875,-0.203125 C 3.828125,1.625 3.734375,1.625 3.5625,1.625 3.09375,1.625 3.09375,1.5625 3.09375,1.46875 3.09375,1.390625 3.109375,1.328125 3.125,1.25 Z m -2.75,4.1875 c -0.609375,0 -0.640625,-0.765625 -0.640625,-0.9375 0,-0.484375 0.28125,-1.5625 0.453125,-1.984375 0.3125,-0.734375 0.828125,-1.15625 1.234375,-1.15625 0.65625,0 0.796875,0.8125 0.796875,0.875 0,0.0625 -0.546875,2.25 -0.578125,2.28125 C 2.859375,-0.75 2.296875,-0.109375 1.75,-0.109375 Z m 0,0"
                 id="path266415" />
            </g>
            <g
               id="g266419" />
            <g
               id="g266423">
              <path
                 d="M 1.734375,-2.90625 C 1.125,-3.046875 0.9375,-3.484375 0.9375,-3.78125 c 0,-0.453125 0.421875,-0.890625 1.0625,-0.890625 0.9375,0 1.34375,0.625 1.453125,1.359375 0.015625,0.09375 0.015625,0.140625 0.125,0.140625 0.109375,0 0.109375,-0.046875 0.109375,-0.1875 V -4.71875 c 0,-0.125 0,-0.1875 -0.09375,-0.1875 -0.046875,0 -0.0625,0.03125 -0.109375,0.109375 L 3.21875,-4.40625 C 2.765625,-4.875 2.1875,-4.90625 2,-4.90625 c -0.890625,0 -1.515625,0.640625 -1.515625,1.34375 0,0.390625 0.171875,0.6875 0.421875,0.921875 0.28125,0.265625 0.515625,0.3125 1.265625,0.484375 0.640625,0.140625 0.78125,0.171875 0.984375,0.359375 0.15625,0.171875 0.296875,0.390625 0.296875,0.703125 0,0.484375 -0.40625,0.984375 -1.0625,0.984375 -0.6875,0 -1.609375,-0.265625 -1.671875,-1.3125 0,-0.125 0,-0.15625 -0.109375,-0.15625 -0.125,0 -0.125,0.046875 -0.125,0.1875 v 1.34375 c 0,0.125 0,0.1875 0.09375,0.1875 0.0625,0 0.078125,-0.015625 0.125,-0.078125 0.0625,-0.09375 0.203125,-0.3125 0.25,-0.40625 0.4375,0.390625 0.984375,0.484375 1.4375,0.484375 0.90625,0 1.515625,-0.6875 1.515625,-1.4375 0,-0.625 -0.4375,-1.21875 -1.140625,-1.375 z m 0,0"
                 id="path266421" />
            </g>
            <g
               id="g266427">
              <path
                 d="M 5.078125,-1.828125 H 4.84375 C 4.65625,-0.78125 4.5,-0.25 3.203125,-0.25 h -1.09375 c -0.328125,0 -0.34375,-0.0625 -0.34375,-0.265625 v -1.8125 H 2.46875 c 0.703125,0 0.8125,0.203125 0.8125,0.8125 H 3.515625 V -3.40625 H 3.28125 c 0,0.609375 -0.109375,0.828125 -0.8125,0.828125 H 1.765625 v -1.625 c 0,-0.21875 0.015625,-0.28125 0.34375,-0.28125 H 3.15625 c 1.140625,0 1.34375,0.375 1.46875,1.359375 h 0.234375 l -0.21875,-1.609375 h -4.25 v 0.25 H 0.5625 c 0.53125,0 0.546875,0.078125 0.546875,0.3125 V -0.5625 c 0,0.234375 -0.015625,0.3125 -0.546875,0.3125 H 0.390625 V 0 h 4.375 z m 0,0"
                 id="path266425" />
            </g>
            <g
               id="g266429" />
            <g
               id="g266433">
              <path
                 d="m 3.296875,2.390625 c 0,-0.03125 0,-0.046875 -0.171875,-0.21875 C 1.890625,0.921875 1.5625,-0.96875 1.5625,-2.5 c 0,-1.734375 0.375,-3.46875 1.609375,-4.703125 0.125,-0.125 0.125,-0.140625 0.125,-0.171875 0,-0.078125 -0.03125,-0.109375 -0.09375,-0.109375 -0.109375,0 -1,0.6875 -1.59375,1.953125 -0.5,1.09375 -0.625,2.203125 -0.625,3.03125 0,0.78125 0.109375,1.984375 0.65625,3.125 C 2.25,1.84375 3.09375,2.5 3.203125,2.5 c 0.0625,0 0.09375,-0.03125 0.09375,-0.109375 z m 0,0"
                 id="path266431" />
            </g>
            <g
               id="g266437">
              <path
                 d="m 2.9375,-6.375 c 0,-0.25 0,-0.265625 -0.234375,-0.265625 C 2.078125,-6 1.203125,-6 0.890625,-6 v 0.3125 c 0.203125,0 0.78125,0 1.296875,-0.265625 v 5.171875 c 0,0.359375 -0.03125,0.46875 -0.921875,0.46875 h -0.3125 V 0 c 0.34375,-0.03125 1.203125,-0.03125 1.609375,-0.03125 0.390625,0 1.265625,0 1.609375,0.03125 v -0.3125 h -0.3125 c -0.90625,0 -0.921875,-0.109375 -0.921875,-0.46875 z m 0,0"
                 id="path266435" />
            </g>
            <g
               id="g266441">
              <path
                 d="m 1.171875,-2.171875 c 0,-1.625 0.8125,-2.046875 1.34375,-2.046875 0.09375,0 0.71875,0.015625 1.0625,0.375 -0.40625,0.03125 -0.46875,0.328125 -0.46875,0.453125 0,0.265625 0.1875,0.453125 0.453125,0.453125 0.265625,0 0.46875,-0.15625 0.46875,-0.46875 0,-0.671875 -0.765625,-1.0625 -1.53125,-1.0625 -1.25,0 -2.15625,1.078125 -2.15625,2.3125 0,1.28125 0.984375,2.265625 2.140625,2.265625 1.328125,0 1.65625,-1.203125 1.65625,-1.296875 0,-0.09375 -0.109375,-0.09375 -0.140625,-0.09375 -0.078125,0 -0.109375,0.03125 -0.125,0.09375 -0.28125,0.921875 -0.9375,1.046875 -1.296875,1.046875 -0.53125,0 -1.40625,-0.421875 -1.40625,-2.03125 z m 0,0"
                 id="path266439" />
            </g>
            <g
               id="g266445">
              <path
                 d="M 4.6875,-2.140625 C 4.6875,-3.40625 3.703125,-4.46875 2.5,-4.46875 c -1.25,0 -2.21875,1.09375 -2.21875,2.328125 0,1.296875 1.03125,2.25 2.203125,2.25 1.203125,0 2.203125,-0.984375 2.203125,-2.25 z m -2.1875,2 c -0.4375,0 -0.875,-0.203125 -1.140625,-0.671875 -0.25,-0.4375 -0.25,-1.046875 -0.25,-1.40625 0,-0.390625 0,-0.921875 0.234375,-1.359375 C 1.609375,-4.03125 2.078125,-4.25 2.484375,-4.25 c 0.4375,0 0.859375,0.21875 1.125,0.65625 0.265625,0.421875 0.265625,1 0.265625,1.375 0,0.359375 0,0.90625 -0.21875,1.34375 C 3.421875,-0.421875 2.984375,-0.140625 2.5,-0.140625 Z m 0,0"
                 id="path266443" />
            </g>
            <g
               id="g266449">
              <path
                 d="m 2.078125,-1.9375 c 0.21875,0.046875 1.03125,0.203125 1.03125,0.921875 0,0.5 -0.34375,0.90625 -1.125,0.90625 -0.84375,0 -1.203125,-0.5625 -1.390625,-1.421875 C 0.5625,-1.65625 0.5625,-1.6875 0.453125,-1.6875 c -0.125,0 -0.125,0.0625 -0.125,0.234375 V -0.125 c 0,0.171875 0,0.234375 0.109375,0.234375 0.046875,0 0.0625,-0.015625 0.25,-0.203125 0.015625,-0.015625 0.015625,-0.03125 0.203125,-0.21875 0.4375,0.40625 0.890625,0.421875 1.09375,0.421875 1.140625,0 1.609375,-0.671875 1.609375,-1.390625 0,-0.515625 -0.296875,-0.828125 -0.421875,-0.9375 C 2.84375,-2.546875 2.453125,-2.625 2.03125,-2.703125 1.46875,-2.8125 0.8125,-2.9375 0.8125,-3.515625 c 0,-0.359375 0.25,-0.765625 1.109375,-0.765625 1.09375,0 1.15625,0.90625 1.171875,1.203125 0,0.09375 0.09375,0.09375 0.109375,0.09375 0.140625,0 0.140625,-0.046875 0.140625,-0.234375 v -1.015625 c 0,-0.15625 0,-0.234375 -0.109375,-0.234375 -0.046875,0 -0.078125,0 -0.203125,0.125 -0.03125,0.03125 -0.125,0.125 -0.171875,0.15625 -0.375,-0.28125 -0.78125,-0.28125 -0.9375,-0.28125 -1.21875,0 -1.59375,0.671875 -1.59375,1.234375 0,0.34375 0.15625,0.625 0.421875,0.84375 0.328125,0.25 0.609375,0.3125 1.328125,0.453125 z m 0,0"
                 id="path266447" />
            </g>
            <g
               id="g266453">
              <path
                 d="m 2.875,-2.5 c 0,-0.765625 -0.109375,-1.96875 -0.65625,-3.109375 -0.59375,-1.21875 -1.453125,-1.875 -1.546875,-1.875 -0.0625,0 -0.109375,0.046875 -0.109375,0.109375 0,0.03125 0,0.046875 0.1875,0.234375 0.984375,0.984375 1.546875,2.5625 1.546875,4.640625 0,1.71875 -0.359375,3.46875 -1.59375,4.71875 C 0.5625,2.34375 0.5625,2.359375 0.5625,2.390625 0.5625,2.453125 0.609375,2.5 0.671875,2.5 0.765625,2.5 1.671875,1.8125 2.25,0.546875 2.765625,-0.546875 2.875,-1.65625 2.875,-2.5 Z m 0,0"
                 id="path266451" />
            </g>
            <g
               id="g266455" />
            <g
               id="g266459">
              <path
                 d="m 6.5625,-2.296875 c 0.171875,0 0.359375,0 0.359375,-0.203125 0,-0.1875 -0.1875,-0.1875 -0.359375,-0.1875 H 1.171875 c -0.171875,0 -0.34375,0 -0.34375,0.1875 0,0.203125 0.171875,0.203125 0.34375,0.203125 z m 0,0"
                 id="path266457" />
            </g>
          </g>
        </defs>
        <g
           fill="#000000"
           fill-opacity="1"
           id="id-496802b2-8875-41dc-83bd-4134e329fd33"
           transform="translate(-149.415,-127.281)">
          <g
             transform="translate(148.712,134.765)"
             id="g144237">
            <path
               d="M 5.390625,-6.078125 C 5.46875,-6.40625 5.5,-6.5 6.046875,-6.5 c 0.15625,0 0.265625,0 0.265625,-0.1875 0,-0.09375 -0.0625,-0.125 -0.140625,-0.125 -0.25,0 -0.859375,0.03125 -1.109375,0.03125 -0.328125,0 -1.140625,-0.03125 -1.46875,-0.03125 -0.078125,0 -0.203125,0 -0.203125,0.203125 C 3.390625,-6.5 3.46875,-6.5 3.734375,-6.5 c 0.21875,0 0.328125,0 0.578125,0.015625 0.234375,0.03125 0.296875,0.0625 0.296875,0.203125 0,0.0625 -0.015625,0.125 -0.03125,0.203125 L 3.421875,-1.5 C 3.1875,-0.53125 2.515625,0 2,0 1.734375,0 1.203125,-0.09375 1.046875,-0.625 c 0.03125,0.015625 0.09375,0.015625 0.125,0.015625 0.390625,0 0.640625,-0.34375 0.640625,-0.640625 0,-0.3125 -0.265625,-0.421875 -0.4375,-0.421875 -0.171875,0 -0.671875,0.125 -0.671875,0.796875 0,0.625 0.53125,1.09375 1.328125,1.09375 0.90625,0 1.953125,-0.65625 2.203125,-1.640625 z m 0,0"
               id="id-6d755c8c-baa8-45e4-a9a2-0bb3840e2f14" />
          </g>
        </g>
        <g
           fill="#000000"
           fill-opacity="1"
           id="id-dc12dc33-1a40-4876-ae55-edd2bcdfeaae"
           transform="translate(-149.415,-127.281)">
          <g
             transform="translate(154.237,136.259)"
             id="g144241">
            <path
               d="M 1.734375,-2.90625 C 1.125,-3.046875 0.9375,-3.484375 0.9375,-3.78125 c 0,-0.453125 0.421875,-0.890625 1.0625,-0.890625 0.9375,0 1.34375,0.625 1.453125,1.359375 0.015625,0.09375 0.015625,0.140625 0.125,0.140625 0.109375,0 0.109375,-0.046875 0.109375,-0.1875 V -4.71875 c 0,-0.125 0,-0.1875 -0.09375,-0.1875 -0.046875,0 -0.0625,0.03125 -0.109375,0.109375 L 3.21875,-4.40625 C 2.765625,-4.875 2.1875,-4.90625 2,-4.90625 c -0.890625,0 -1.515625,0.640625 -1.515625,1.34375 0,0.390625 0.171875,0.6875 0.421875,0.921875 0.28125,0.265625 0.515625,0.3125 1.265625,0.484375 0.640625,0.140625 0.78125,0.171875 0.984375,0.359375 0.15625,0.171875 0.296875,0.390625 0.296875,0.703125 0,0.484375 -0.40625,0.984375 -1.0625,0.984375 -0.6875,0 -1.609375,-0.265625 -1.671875,-1.3125 0,-0.125 0,-0.15625 -0.109375,-0.15625 -0.125,0 -0.125,0.046875 -0.125,0.1875 v 1.34375 c 0,0.125 0,0.1875 0.09375,0.1875 0.0625,0 0.078125,-0.015625 0.125,-0.078125 0.0625,-0.09375 0.203125,-0.3125 0.25,-0.40625 0.4375,0.390625 0.984375,0.484375 1.4375,0.484375 0.90625,0 1.515625,-0.6875 1.515625,-1.4375 0,-0.625 -0.4375,-1.21875 -1.140625,-1.375 z m 0,0"
               id="id-8ff2db9b-0dde-4d27-857d-786f74db8ea7" />
          </g>
          <g
             transform="translate(158.637,136.259)"
             id="g144244">
            <path
               d="M 5.078125,-1.828125 H 4.84375 C 4.65625,-0.78125 4.5,-0.25 3.203125,-0.25 h -1.09375 c -0.328125,0 -0.34375,-0.0625 -0.34375,-0.265625 v -1.8125 H 2.46875 c 0.703125,0 0.8125,0.203125 0.8125,0.8125 H 3.515625 V -3.40625 H 3.28125 c 0,0.609375 -0.109375,0.828125 -0.8125,0.828125 H 1.765625 v -1.625 c 0,-0.21875 0.015625,-0.28125 0.34375,-0.28125 H 3.15625 c 1.140625,0 1.34375,0.375 1.46875,1.359375 h 0.234375 l -0.21875,-1.609375 h -4.25 v 0.25 H 0.5625 c 0.53125,0 0.546875,0.078125 0.546875,0.3125 V -0.5625 c 0,0.234375 -0.015625,0.3125 -0.546875,0.3125 H 0.390625 V 0 h 4.375 z m 0,0"
               id="id-ce5da31e-1c4a-44e2-9de7-cbcad96035ba" />
          </g>
        </g>
        <g
           fill="#000000"
           fill-opacity="1"
           id="id-31d4a051-c3b0-4a59-8832-2ea00ff11443"
           transform="translate(-149.415,-127.281)">
          <g
             transform="translate(164.49,134.765)"
             id="g144248">
            <path
               d="m 3.296875,2.390625 c 0,-0.03125 0,-0.046875 -0.171875,-0.21875 C 1.890625,0.921875 1.5625,-0.96875 1.5625,-2.5 c 0,-1.734375 0.375,-3.46875 1.609375,-4.703125 0.125,-0.125 0.125,-0.140625 0.125,-0.171875 0,-0.078125 -0.03125,-0.109375 -0.09375,-0.109375 -0.109375,0 -1,0.6875 -1.59375,1.953125 -0.5,1.09375 -0.625,2.203125 -0.625,3.03125 0,0.78125 0.109375,1.984375 0.65625,3.125 C 2.25,1.84375 3.09375,2.5 3.203125,2.5 c 0.0625,0 0.09375,-0.03125 0.09375,-0.109375 z m 0,0"
               id="id-6b40e775-c25c-4800-9c84-128877ac349f" />
          </g>
          <g
             transform="translate(168.364,134.765)"
             id="g144251">
            <path
               d="m 2.9375,-6.375 c 0,-0.25 0,-0.265625 -0.234375,-0.265625 C 2.078125,-6 1.203125,-6 0.890625,-6 v 0.3125 c 0.203125,0 0.78125,0 1.296875,-0.265625 v 5.171875 c 0,0.359375 -0.03125,0.46875 -0.921875,0.46875 h -0.3125 V 0 c 0.34375,-0.03125 1.203125,-0.03125 1.609375,-0.03125 0.390625,0 1.265625,0 1.609375,0.03125 v -0.3125 h -0.3125 c -0.90625,0 -0.921875,-0.109375 -0.921875,-0.46875 z m 0,0"
               id="id-4885bbb3-0120-4993-942e-15beb27bb175" />
          </g>
        </g>
        <g
           fill="#000000"
           fill-opacity="1"
           id="id-94d903f4-46e1-405c-8e3f-732407eb15e8"
           transform="translate(-149.415,-127.281)">
          <g
             transform="translate(175.56,134.765)"
             id="g144255">
            <path
               d="m 6.5625,-2.296875 c 0.171875,0 0.359375,0 0.359375,-0.203125 0,-0.1875 -0.1875,-0.1875 -0.359375,-0.1875 H 1.171875 c -0.171875,0 -0.34375,0 -0.34375,0.1875 0,0.203125 0.171875,0.203125 0.34375,0.203125 z m 0,0"
               id="id-eb588134-1092-44af-b6fe-def1d563f514" />
          </g>
        </g>
        <g
           fill="#000000"
           fill-opacity="1"
           id="id-78e410b0-28be-4f9f-a163-abeabe180f0a"
           transform="translate(-149.415,-127.281)">
          <g
             transform="translate(185.522,134.765)"
             id="g144259">
            <path
               d="m 1.171875,-2.171875 c 0,-1.625 0.8125,-2.046875 1.34375,-2.046875 0.09375,0 0.71875,0.015625 1.0625,0.375 -0.40625,0.03125 -0.46875,0.328125 -0.46875,0.453125 0,0.265625 0.1875,0.453125 0.453125,0.453125 0.265625,0 0.46875,-0.15625 0.46875,-0.46875 0,-0.671875 -0.765625,-1.0625 -1.53125,-1.0625 -1.25,0 -2.15625,1.078125 -2.15625,2.3125 0,1.28125 0.984375,2.265625 2.140625,2.265625 1.328125,0 1.65625,-1.203125 1.65625,-1.296875 0,-0.09375 -0.109375,-0.09375 -0.140625,-0.09375 -0.078125,0 -0.109375,0.03125 -0.125,0.09375 -0.28125,0.921875 -0.9375,1.046875 -1.296875,1.046875 -0.53125,0 -1.40625,-0.421875 -1.40625,-2.03125 z m 0,0"
               id="id-79b0b045-27f7-42c9-a73b-dd23ff9714aa" />
          </g>
          <g
             transform="translate(189.949,134.765)"
             id="g144262">
            <path
               d="M 4.6875,-2.140625 C 4.6875,-3.40625 3.703125,-4.46875 2.5,-4.46875 c -1.25,0 -2.21875,1.09375 -2.21875,2.328125 0,1.296875 1.03125,2.25 2.203125,2.25 1.203125,0 2.203125,-0.984375 2.203125,-2.25 z m -2.1875,2 c -0.4375,0 -0.875,-0.203125 -1.140625,-0.671875 -0.25,-0.4375 -0.25,-1.046875 -0.25,-1.40625 0,-0.390625 0,-0.921875 0.234375,-1.359375 C 1.609375,-4.03125 2.078125,-4.25 2.484375,-4.25 c 0.4375,0 0.859375,0.21875 1.125,0.65625 0.265625,0.421875 0.265625,1 0.265625,1.375 0,0.359375 0,0.90625 -0.21875,1.34375 C 3.421875,-0.421875 2.984375,-0.140625 2.5,-0.140625 Z m 0,0"
               id="id-915ed430-f118-498e-abca-ff858968dfca" />
          </g>
          <g
             transform="translate(194.931,134.765)"
             id="g144265">
            <path
               d="m 2.078125,-1.9375 c 0.21875,0.046875 1.03125,0.203125 1.03125,0.921875 0,0.5 -0.34375,0.90625 -1.125,0.90625 -0.84375,0 -1.203125,-0.5625 -1.390625,-1.421875 C 0.5625,-1.65625 0.5625,-1.6875 0.453125,-1.6875 c -0.125,0 -0.125,0.0625 -0.125,0.234375 V -0.125 c 0,0.171875 0,0.234375 0.109375,0.234375 0.046875,0 0.0625,-0.015625 0.25,-0.203125 0.015625,-0.015625 0.015625,-0.03125 0.203125,-0.21875 0.4375,0.40625 0.890625,0.421875 1.09375,0.421875 1.140625,0 1.609375,-0.671875 1.609375,-1.390625 0,-0.515625 -0.296875,-0.828125 -0.421875,-0.9375 C 2.84375,-2.546875 2.453125,-2.625 2.03125,-2.703125 1.46875,-2.8125 0.8125,-2.9375 0.8125,-3.515625 c 0,-0.359375 0.25,-0.765625 1.109375,-0.765625 1.09375,0 1.15625,0.90625 1.171875,1.203125 0,0.09375 0.09375,0.09375 0.109375,0.09375 0.140625,0 0.140625,-0.046875 0.140625,-0.234375 v -1.015625 c 0,-0.15625 0,-0.234375 -0.109375,-0.234375 -0.046875,0 -0.078125,0 -0.203125,0.125 -0.03125,0.03125 -0.125,0.125 -0.171875,0.15625 -0.375,-0.28125 -0.78125,-0.28125 -0.9375,-0.28125 -1.21875,0 -1.59375,0.671875 -1.59375,1.234375 0,0.34375 0.15625,0.625 0.421875,0.84375 0.328125,0.25 0.609375,0.3125 1.328125,0.453125 z m 0,0"
               id="id-0e1182cb-9064-4f70-8c01-3dda0df83b26" />
          </g>
        </g>
        <g
           fill="#000000"
           fill-opacity="1"
           id="id-c9224ac0-eef5-46f3-a88b-22b707c977e2"
           transform="translate(-149.415,-127.281)">
          <g
             transform="translate(200.521,134.765)"
             id="g144269">
            <path
               d="m 4.5,-4.296875 c 0,-0.046875 -0.03125,-0.09375 -0.09375,-0.09375 -0.109375,0 -0.515625,0.390625 -0.671875,0.6875 C 3.515625,-4.25 3.125,-4.40625 2.796875,-4.40625 c -1.171875,0 -2.390625,1.46875 -2.390625,2.921875 0,0.96875 0.578125,1.59375 1.3125,1.59375 0.421875,0 0.8125,-0.234375 1.171875,-0.59375 -0.09375,0.34375 -0.421875,1.6875 -0.453125,1.78125 -0.078125,0.28125 -0.15625,0.3125 -0.71875,0.328125 -0.125,0 -0.21875,0 -0.21875,0.203125 0,0 0,0.109375 0.125,0.109375 0.3125,0 0.671875,-0.03125 1,-0.03125 0.328125,0 0.6875,0.03125 1.03125,0.03125 0.046875,0 0.171875,0 0.171875,-0.203125 C 3.828125,1.625 3.734375,1.625 3.5625,1.625 3.09375,1.625 3.09375,1.5625 3.09375,1.46875 3.09375,1.390625 3.109375,1.328125 3.125,1.25 Z m -2.75,4.1875 c -0.609375,0 -0.640625,-0.765625 -0.640625,-0.9375 0,-0.484375 0.28125,-1.5625 0.453125,-1.984375 0.3125,-0.734375 0.828125,-1.15625 1.234375,-1.15625 0.65625,0 0.796875,0.8125 0.796875,0.875 0,0.0625 -0.546875,2.25 -0.578125,2.28125 C 2.859375,-0.75 2.296875,-0.109375 1.75,-0.109375 Z m 0,0"
               id="id-dfd6862d-8f40-4b71-9e49-a0b5e683b29f" />
          </g>
        </g>
        <g
           fill="#000000"
           fill-opacity="1"
           id="id-e8ea4510-fda5-4976-bc8b-54cafce4930d"
           transform="translate(-149.415,-127.281)">
          <g
             transform="translate(205.326,134.765)"
             id="g144273">
            <path
               d="m 2.875,-2.5 c 0,-0.765625 -0.109375,-1.96875 -0.65625,-3.109375 -0.59375,-1.21875 -1.453125,-1.875 -1.546875,-1.875 -0.0625,0 -0.109375,0.046875 -0.109375,0.109375 0,0.03125 0,0.046875 0.1875,0.234375 0.984375,0.984375 1.546875,2.5625 1.546875,4.640625 0,1.71875 -0.359375,3.46875 -1.59375,4.71875 C 0.5625,2.34375 0.5625,2.359375 0.5625,2.390625 0.5625,2.453125 0.609375,2.5 0.671875,2.5 0.765625,2.5 1.671875,1.8125 2.25,0.546875 2.765625,-0.546875 2.875,-1.65625 2.875,-2.5 Z m 0,0"
               id="id-4a8b0a25-0b37-444e-984d-0dfe6406151c" />
          </g>
        </g>
      </g>
    </g>
  </g>
</svg>
