<?xml version="1.0" encoding="UTF-8" standalone="no"?>
<!-- Created with Inkscape (http://www.inkscape.org/) -->

<svg
   width="109.74214mm"
   height="131.7184mm"
   viewBox="0 0 109.74214 131.7184"
   version="1.1"
   id="svg5"
   sodipodi:docname="incoherent_state.svg"
   inkscape:version="1.1.2 (0a00cf5339, 2022-02-04, custom)"
   xmlns:inkscape="http://www.inkscape.org/namespaces/inkscape"
   xmlns:sodipodi="http://sodipodi.sourceforge.net/DTD/sodipodi-0.dtd"
   xmlns="http://www.w3.org/2000/svg"
   xmlns:svg="http://www.w3.org/2000/svg"
   xmlns:ns3="http://www.iki.fi/pav/software/textext/">
  <sodipodi:namedview
     id="namedview7"
     pagecolor="#ffffff"
     bordercolor="#666666"
     borderopacity="1.0"
     inkscape:pageshadow="2"
     inkscape:pageopacity="0.0"
     inkscape:pagecheckerboard="0"
     inkscape:document-units="mm"
     showgrid="false"
     inkscape:snap-object-midpoints="true"
     inkscape:snap-intersection-paths="true"
     inkscape:zoom="1.6589324"
     inkscape:cx="231.47417"
     inkscape:cy="108.80492"
     inkscape:window-width="1920"
     inkscape:window-height="1135"
     inkscape:window-x="0"
     inkscape:window-y="259"
     inkscape:window-maximized="1"
     inkscape:current-layer="layer1"
     inkscape:snap-smooth-nodes="true"
     inkscape:object-paths="true"
     inkscape:snap-bbox="false"
     inkscape:bbox-paths="true"
     inkscape:bbox-nodes="true"
     inkscape:snap-bbox-edge-midpoints="true"
     inkscape:snap-bbox-midpoints="true"
     showguides="true"
     inkscape:guide-bbox="true"
     lock-margins="true"
     fit-margin-top="2"
     fit-margin-left="2"
     fit-margin-right="2"
     fit-margin-bottom="2"
     inkscape:snap-global="true" />
  <defs
     id="defs2">
    <marker
       style="overflow:visible"
       id="Arrow1Lstart"
       refX="0"
       refY="0"
       orient="auto"
       inkscape:stockid="Arrow1Lstart"
       inkscape:isstock="true">
      <path
         transform="matrix(0.8,0,0,0.8,10,0)"
         style="fill:context-stroke;fill-rule:evenodd;stroke:context-stroke;stroke-width:1pt"
         d="M 0,0 5,-5 -12.5,0 5,5 Z"
         id="path1189" />
    </marker>
    <marker
       style="overflow:visible"
       id="Arrow1Lend"
       refX="0"
       refY="0"
       orient="auto"
       inkscape:stockid="Arrow1Lend"
       inkscape:isstock="true">
      <path
         transform="matrix(-0.8,0,0,-0.8,-10,0)"
         style="fill:context-stroke;fill-rule:evenodd;stroke:context-stroke;stroke-width:1pt"
         d="M 0,0 5,-5 -12.5,0 5,5 Z"
         id="path1192" />
    </marker>
  </defs>
  <g
     inkscape:label="Layer 1"
     inkscape:groupmode="layer"
     id="layer1"
     transform="translate(-101.9091,-27.38985)">
    <circle
       style="opacity:0.94;fill:#e6e6e6;fill-opacity:0.963269;stroke:none;stroke-width:0.498545;stroke-linejoin:round;stroke-miterlimit:4;stroke-dasharray:none;stroke-dashoffset:0"
       id="path870"
       cx="156.42087"
       cy="93.773987"
       r="52.262505" />
    <path
       id="circle996"
       style="opacity:0.94;fill:none;fill-opacity:0.963269;stroke:#000000;stroke-width:0.498545;stroke-linejoin:round;stroke-miterlimit:4;stroke-dasharray:3.98836, 0.498545;stroke-dashoffset:0"
       d="m 208.68338,93.773988 a 52.262507,17.133876 0 0 1 -52.26251,17.133872 52.262507,17.133876 0 0 1 -52.2625,-17.133872 52.262507,17.133876 0 0 1 52.2625,-17.133878 52.262507,17.133876 0 0 1 52.26251,17.133878 z" />
    <g
       id="path1185">
      <path
         style="color:#000000;fill:#000000;-inkscape-stroke:none"
         d="m 156.35352,93.525391 -25.86329,14.931639 0.24805,0.43164 25.75,-14.865233 h 52.19531 v -0.498046 z"
         id="path1015" />
      <g
         id="g997">
        <g
           id="path1007">
          <path
             style="color:#000000;fill:#000000;fill-rule:evenodd;stroke-width:0.398836pt;-inkscape-stroke:none"
             d="m 203.69793,93.773981 -1.99418,1.99418 6.97963,-1.99418 -6.97963,-1.99418 z"
             id="path1011" />
          <path
             style="color:#000000;fill:#000000;fill-rule:evenodd;-inkscape-stroke:none"
             d="m 200.79102,91.242187 2.53125,2.53125 -2.53125,2.533204 8.85937,-2.533204 z m 1.82617,1.074219 5.09765,1.457031 -5.0957,1.455079 1.45508,-1.455079 -0.1875,-0.1875 z"
             id="path1013" />
        </g>
        <g
           id="path999">
          <path
             style="color:#000000;fill:#000000;fill-rule:evenodd;stroke-width:0.398836pt;-inkscape-stroke:none"
             d="m 134.93198,106.1806 0.72992,-2.7241 -5.04745,5.21683 7.04163,-1.76281 z"
             id="path1003" />
          <path
             style="color:#000000;fill:#000000;fill-rule:evenodd;-inkscape-stroke:none"
             d="m 136.18359,102.5332 -6.4082,6.625 8.94141,-2.23828 -3.45899,-0.92773 z m -1.04492,1.84571 -0.5332,1.99023 0.25781,0.0684 1.73242,0.46484 -5.14648,1.28907 z"
             id="path1005" />
        </g>
      </g>
    </g>
    <g
       id="path1187">
      <path
         style="color:#000000;fill:#000000;-inkscape-stroke:none"
         d="m 156.40625,40.460937 -0.5,0.002 0.26562,53.3125 0.49805,-0.002 z"
         id="path993" />
      <g
         id="g983">
        <g
           id="path985">
          <path
             style="color:#000000;fill:#000000;fill-rule:evenodd;stroke-width:0.398836pt;-inkscape-stroke:none"
             d="m 156.18096,45.446971 2.00405,1.984256 -2.0288,-6.969644 -1.95951,6.989444 z"
             id="path989" />
          <path
             style="color:#000000;fill:#000000;fill-rule:evenodd;-inkscape-stroke:none"
             d="m 156.15234,39.494141 -2.48828,8.873046 2.51758,-2.542968 2.54492,2.517578 z m 0.008,1.935546 1.48242,5.089844 -1.46289,-1.449219 -0.1875,0.189454 -1.26172,1.273437 z"
             id="path991" />
        </g>
      </g>
    </g>
    <g
       transform="matrix(0.894291,0,0,0.894291,152.5075,29.390185)"
       ns3:version="1.8.1"
       ns3:texconverter="pdflatex"
       ns3:pdfconverter="inkscape"
       ns3:text="$\\ket{\\uparrow}$"
       ns3:preamble="/home/tana/Documents/Conferences/FINESS22/poster_packages.tex"
       ns3:scale="3.38"
       ns3:alignment="middle center"
       ns3:stroke-to-path="0"
       ns3:jacobian_sqrt="0.894291"
       id="g1605">
      <defs
         id="id-99e73245-8ef5-4d43-b2bd-169705feafc3">
        <g
           id="id-b5d34065-736b-4e69-b8fc-2a62c05e63fe">
          <g
             id="id-66448e23-67ca-4f1e-a440-0381451ea1c5" />
          <g
             id="id-b6625240-ebeb-47a9-850f-d83fe9310f5b">
            <path
               d="m 1.578125,-7.125 c 0,-0.171875 0,-0.359375 -0.1875,-0.359375 -0.203125,0 -0.203125,0.1875 -0.203125,0.359375 v 9.265625 c 0,0.171875 0,0.359375 0.203125,0.359375 0.1875,0 0.1875,-0.1875 0.1875,-0.359375 z m 0,0"
               id="id-a5d15ec4-432a-4491-84d6-5c38eb37fd38" />
          </g>
          <g
             id="id-cf066c1f-c7de-4f94-8677-fe248bc28983">
            <path
               d="m 2.6875,-5.53125 c 0.25,0.375 0.515625,0.65625 0.765625,0.84375 0.609375,0.453125 1.21875,0.5625 1.234375,0.5625 0.125,0 0.125,-0.109375 0.125,-0.1875 0,-0.15625 0,-0.171875 -0.234375,-0.25 C 3.90625,-4.75 3.515625,-5.109375 3.296875,-5.359375 2.78125,-5.90625 2.65625,-6.5 2.609375,-6.8125 2.59375,-6.875 2.546875,-6.90625 2.5,-6.90625 c -0.09375,0 -0.109375,0.0625 -0.125,0.171875 C 2.140625,-5.625 1.4375,-4.84375 0.34375,-4.53125 0.1875,-4.484375 0.171875,-4.484375 0.171875,-4.3125 c 0,0.078125 0,0.1875 0.125,0.1875 0.015625,0 0.609375,-0.109375 1.171875,-0.515625 0.328125,-0.25 0.609375,-0.546875 0.828125,-0.890625 v 7.109375 c 0,0.171875 0,0.359375 0.203125,0.359375 0.1875,0 0.1875,-0.1875 0.1875,-0.359375 z m 0,0"
               id="id-863c486b-382a-4fcf-92a2-62daa8ffcfe3" />
          </g>
          <g
             id="id-64aabc15-8cd5-497e-8c56-ecdaec39868a">
            <path
               d="M 2.71875,-2.328125 C 2.765625,-2.4375 2.765625,-2.46875 2.765625,-2.5 c 0,-0.015625 0,-0.046875 -0.046875,-0.15625 L 0.984375,-7.25 c -0.0625,-0.171875 -0.125,-0.234375 -0.234375,-0.234375 -0.109375,0 -0.203125,0.09375 -0.203125,0.203125 0,0.03125 0,0.046875 0.046875,0.15625 L 2.359375,-2.5 0.59375,2.109375 C 0.546875,2.21875 0.546875,2.25 0.546875,2.296875 0.546875,2.40625 0.640625,2.5 0.75,2.5 0.875,2.5 0.921875,2.390625 0.953125,2.296875 Z m 0,0"
               id="id-7b67b8a9-f81d-4a4b-9888-0aab236e5ccd" />
          </g>
        </g>
      </defs>
      <g
         fill="#000000"
         fill-opacity="1"
         id="id-7468e899-0ed9-42d9-80a4-15da085db993"
         transform="translate(-149.9,-127.281)">
        <g
           transform="translate(148.712,134.765)"
           id="g1596">
          <path
             d="m 1.578125,-7.125 c 0,-0.171875 0,-0.359375 -0.1875,-0.359375 -0.203125,0 -0.203125,0.1875 -0.203125,0.359375 v 9.265625 c 0,0.171875 0,0.359375 0.203125,0.359375 0.1875,0 0.1875,-0.1875 0.1875,-0.359375 z m 0,0"
             id="id-57ada7b7-48ae-45ee-8f5a-31a5363cf5c8" />
        </g>
        <g
           transform="translate(151.48,134.765)"
           id="g1599">
          <path
             d="m 2.6875,-5.53125 c 0.25,0.375 0.515625,0.65625 0.765625,0.84375 0.609375,0.453125 1.21875,0.5625 1.234375,0.5625 0.125,0 0.125,-0.109375 0.125,-0.1875 0,-0.15625 0,-0.171875 -0.234375,-0.25 C 3.90625,-4.75 3.515625,-5.109375 3.296875,-5.359375 2.78125,-5.90625 2.65625,-6.5 2.609375,-6.8125 2.59375,-6.875 2.546875,-6.90625 2.5,-6.90625 c -0.09375,0 -0.109375,0.0625 -0.125,0.171875 C 2.140625,-5.625 1.4375,-4.84375 0.34375,-4.53125 0.1875,-4.484375 0.171875,-4.484375 0.171875,-4.3125 c 0,0.078125 0,0.1875 0.125,0.1875 0.015625,0 0.609375,-0.109375 1.171875,-0.515625 0.328125,-0.25 0.609375,-0.546875 0.828125,-0.890625 v 7.109375 c 0,0.171875 0,0.359375 0.203125,0.359375 0.1875,0 0.1875,-0.1875 0.1875,-0.359375 z m 0,0"
             id="id-74c3b383-31f7-4e72-9c42-e34692c405ee" />
        </g>
        <g
           transform="translate(156.461,134.765)"
           id="g1602">
          <path
             d="M 2.71875,-2.328125 C 2.765625,-2.4375 2.765625,-2.46875 2.765625,-2.5 c 0,-0.015625 0,-0.046875 -0.046875,-0.15625 L 0.984375,-7.25 c -0.0625,-0.171875 -0.125,-0.234375 -0.234375,-0.234375 -0.109375,0 -0.203125,0.09375 -0.203125,0.203125 0,0.03125 0,0.046875 0.046875,0.15625 L 2.359375,-2.5 0.59375,2.109375 C 0.546875,2.21875 0.546875,2.25 0.546875,2.296875 0.546875,2.40625 0.640625,2.5 0.75,2.5 0.875,2.5 0.921875,2.390625 0.953125,2.296875 Z m 0,0"
             id="id-fdd6a130-dee1-45f9-a80c-5aa9d6415286" />
        </g>
      </g>
    </g>
    <path
       style="fill:none;stroke:#000000;stroke-width:0.498545;stroke-linecap:butt;stroke-linejoin:miter;stroke-miterlimit:4;stroke-dasharray:0.498545, 0.498545;stroke-dashoffset:0;stroke-opacity:1"
       d="M 156.42087,93.773988 V 146.03648"
       id="path1757" />
    <g
       transform="matrix(0.894291,0,0,0.894291,152.77217,148.17964)"
       ns3:version="1.8.1"
       ns3:texconverter="pdflatex"
       ns3:pdfconverter="inkscape"
       ns3:text="$\\ket{\\downarrow}$"
       ns3:preamble="/home/tana/Documents/Conferences/FINESS22/poster_packages.tex"
       ns3:scale="3.38"
       ns3:alignment="middle center"
       ns3:stroke-to-path="0"
       ns3:jacobian_sqrt="0.894291"
       id="g1889">
      <defs
         id="id-ec88133a-e018-4eb8-b65b-a8a59ed40998">
        <g
           id="id-4ddd0b5d-57f9-40ec-858d-4ea0da9791a5">
          <g
             id="id-b5fe687f-c496-4513-9890-5dc5904b912b" />
          <g
             id="id-2ce6ea1e-6adf-42c9-aba6-f68acdf152a2">
            <path
               d="m 1.578125,-7.125 c 0,-0.171875 0,-0.359375 -0.1875,-0.359375 -0.203125,0 -0.203125,0.1875 -0.203125,0.359375 v 9.265625 c 0,0.171875 0,0.359375 0.203125,0.359375 0.1875,0 0.1875,-0.1875 0.1875,-0.359375 z m 0,0"
               id="id-7006a152-312e-4149-aee2-f601fa1a441f" />
          </g>
          <g
             id="id-29454e19-79ad-4b88-9936-337f291521c2">
            <path
               d="m 2.6875,-6.5625 c 0,-0.171875 0,-0.359375 -0.1875,-0.359375 -0.203125,0 -0.203125,0.1875 -0.203125,0.359375 v 7.109375 c -0.25,-0.375 -0.515625,-0.65625 -0.765625,-0.84375 -0.609375,-0.453125 -1.21875,-0.5625 -1.234375,-0.5625 -0.125,0 -0.125,0.109375 -0.125,0.1875 0,0.15625 0,0.171875 0.234375,0.25 C 1.078125,-0.234375 1.46875,0.125 1.6875,0.375 2.203125,0.921875 2.328125,1.515625 2.375,1.828125 2.390625,1.875 2.421875,1.921875 2.5,1.921875 c 0.078125,0 0.09375,-0.0625 0.109375,-0.15625 0.21875,-1.125 0.9375,-1.90625 2.03125,-2.21875 C 4.796875,-0.5 4.8125,-0.5 4.8125,-0.671875 c 0,-0.078125 0,-0.1875 -0.125,-0.1875 -0.015625,0 -0.609375,0.109375 -1.171875,0.515625 C 3.1875,-0.09375 2.90625,0.203125 2.6875,0.546875 Z m 0,0"
               id="id-9a845f54-3e57-4416-95da-b1a120e7f5e0" />
          </g>
          <g
             id="id-8fee13e6-60eb-4ee0-bdfb-db10d362da03">
            <path
               d="M 2.71875,-2.328125 C 2.765625,-2.4375 2.765625,-2.46875 2.765625,-2.5 c 0,-0.015625 0,-0.046875 -0.046875,-0.15625 L 0.984375,-7.25 c -0.0625,-0.171875 -0.125,-0.234375 -0.234375,-0.234375 -0.109375,0 -0.203125,0.09375 -0.203125,0.203125 0,0.03125 0,0.046875 0.046875,0.15625 L 2.359375,-2.5 0.59375,2.109375 C 0.546875,2.21875 0.546875,2.25 0.546875,2.296875 0.546875,2.40625 0.640625,2.5 0.75,2.5 0.875,2.5 0.921875,2.390625 0.953125,2.296875 Z m 0,0"
               id="id-86d78a95-3cdd-418e-bbfa-05c1e6af151d" />
          </g>
        </g>
      </defs>
      <g
         fill="#000000"
         fill-opacity="1"
         id="id-52deb82c-6c74-45ac-9942-3f650f20275e"
         transform="translate(-149.9,-127.281)">
        <g
           transform="translate(148.712,134.765)"
           id="g1976">
          <path
             d="m 1.578125,-7.125 c 0,-0.171875 0,-0.359375 -0.1875,-0.359375 -0.203125,0 -0.203125,0.1875 -0.203125,0.359375 v 9.265625 c 0,0.171875 0,0.359375 0.203125,0.359375 0.1875,0 0.1875,-0.1875 0.1875,-0.359375 z m 0,0"
             id="id-074be8a7-301e-4ea0-a72c-12fa9e37610b" />
        </g>
        <g
           transform="translate(151.48,134.765)"
           id="g1979">
          <path
             d="m 2.6875,-6.5625 c 0,-0.171875 0,-0.359375 -0.1875,-0.359375 -0.203125,0 -0.203125,0.1875 -0.203125,0.359375 v 7.109375 c -0.25,-0.375 -0.515625,-0.65625 -0.765625,-0.84375 -0.609375,-0.453125 -1.21875,-0.5625 -1.234375,-0.5625 -0.125,0 -0.125,0.109375 -0.125,0.1875 0,0.15625 0,0.171875 0.234375,0.25 C 1.078125,-0.234375 1.46875,0.125 1.6875,0.375 2.203125,0.921875 2.328125,1.515625 2.375,1.828125 2.390625,1.875 2.421875,1.921875 2.5,1.921875 c 0.078125,0 0.09375,-0.0625 0.109375,-0.15625 0.21875,-1.125 0.9375,-1.90625 2.03125,-2.21875 C 4.796875,-0.5 4.8125,-0.5 4.8125,-0.671875 c 0,-0.078125 0,-0.1875 -0.125,-0.1875 -0.015625,0 -0.609375,0.109375 -1.171875,0.515625 C 3.1875,-0.09375 2.90625,0.203125 2.6875,0.546875 Z m 0,0"
             id="id-7e0fe21f-1b7f-4648-a9d5-c370088c09d1" />
        </g>
        <g
           transform="translate(156.461,134.765)"
           id="g1982">
          <path
             d="M 2.71875,-2.328125 C 2.765625,-2.4375 2.765625,-2.46875 2.765625,-2.5 c 0,-0.015625 0,-0.046875 -0.046875,-0.15625 L 0.984375,-7.25 c -0.0625,-0.171875 -0.125,-0.234375 -0.234375,-0.234375 -0.109375,0 -0.203125,0.09375 -0.203125,0.203125 0,0.03125 0,0.046875 0.046875,0.15625 L 2.359375,-2.5 0.59375,2.109375 C 0.546875,2.21875 0.546875,2.25 0.546875,2.296875 0.546875,2.40625 0.640625,2.5 0.75,2.5 0.875,2.5 0.921875,2.390625 0.953125,2.296875 Z m 0,0"
             id="id-9c7d3bcd-1eb5-4f06-b6ef-3011e6e71ff7" />
        </g>
      </g>
    </g>
    <g
       id="path2980">
      <path
         style="color:#000000;fill:#000000;-inkscape-stroke:none"
         d="m 152.60352,75.753906 -0.42774,0.0957 4.03125,17.972657 0.42774,-0.0957 z"
         id="path895" />
      <g
         id="g885">
        <g
           id="path887">
          <path
             style="color:#000000;fill:#000000;fill-rule:evenodd;stroke-width:0.351751pt;-inkscape-stroke:none"
             d="m 153.35195,80.091806 2.10104,1.33119 -3.06336,-5.62148 -0.36887,6.391333 z"
             id="path891" />
          <path
             style="color:#000000;fill:#000000;fill-rule:evenodd;-inkscape-stroke:none"
             d="m 152.20312,74.96875 -0.46875,8.113281 1.69141,-2.667969 2.66602,1.691407 z m 0.37305,1.664062 2.23828,4.107422 -1.53515,-0.972656 -0.125,0.199219 -0.84766,1.33789 z"
             id="path893" />
        </g>
      </g>
    </g>
    <g
       id="path6469">
      <path
         style="color:#000000;fill:#ff0000;-inkscape-stroke:none"
         d="m 153.66406,88.396484 -0.23242,0.125 2.87305,5.314453 0.23242,-0.125 z"
         id="path909" />
      <g
         id="g899">
        <g
           id="path901">
          <path
             style="color:#000000;fill:#ff0000;fill-rule:evenodd;stroke-width:0.211666pt;-inkscape-stroke:none"
             d="m 154.80641,90.787093 1.43427,0.427767 -2.69241,-2.755321 0.83037,3.76183 z"
             id="path905" />
          <path
             style="color:#000000;fill:#ff0000;fill-rule:evenodd;-inkscape-stroke:none"
             d="m 153.30469,88.007812 1.05273,4.775391 0.54297,-1.820312 1.82227,0.542968 z m 0.48633,0.902344 1.96875,2.013672 -1.04883,-0.3125 -0.0391,0.134766 -0.27343,0.916015 z"
             id="path907" />
        </g>
      </g>
    </g>
    <g
       id="path6650">
      <path
         style="color:#000000;fill:#ff0000;-inkscape-stroke:none"
         d="m 161.94336,80.876953 -3.08008,4.986328 0.22461,0.138672 3.08008,-4.986328 z"
         id="path923" />
      <g
         id="g913">
        <g
           id="path915">
          <path
             style="color:#000000;fill:#ff0000;fill-rule:evenodd;stroke-width:0.211666pt;-inkscape-stroke:none"
             d="m 160.66529,83.197431 0.34406,1.456624 1.04664,-3.707484 -2.84732,2.594924 z"
             id="path919" />
          <path
             style="color:#000000;fill:#ff0000;fill-rule:evenodd;-inkscape-stroke:none"
             d="m 162.32617,80.509766 -3.61523,3.294921 1.84961,-0.4375 0.4375,1.84961 z m -0.54101,0.873046 -0.76368,2.708985 -0.25195,-1.064453 -0.13672,0.0332 -0.92578,0.21875 z"
             id="path921" />
        </g>
      </g>
    </g>
    <g
       id="path6652">
      <path
         style="color:#000000;fill:#ff0000;-inkscape-stroke:none"
         d="m 156.7168,71.529297 -4.41797,4.175781 0.18164,0.193359 4.41797,-4.177734 z"
         id="path937" />
      <g
         id="g927">
        <g
           id="path929">
          <path
             style="color:#000000;fill:#ff0000;fill-rule:evenodd;stroke-width:0.211666pt;-inkscape-stroke:none"
             d="m 154.31214,73.983725 0.0419,-1.496121 -1.9644,3.313912 3.41863,-1.775902 z"
             id="path933" />
          <path
             style="color:#000000;fill:#ff0000;fill-rule:evenodd;-inkscape-stroke:none"
             d="m 154.50977,71.947266 -2.49415,4.207031 4.3418,-2.253906 -1.90039,-0.05469 z m -0.3125,1.078125 -0.0293,1.095703 0.14062,0.0039 0.95313,0.02539 -2.49805,1.296875 z"
             id="path935" />
        </g>
      </g>
    </g>
    <g
       id="path6654">
      <path
         style="color:#000000;fill:#ff0000;-inkscape-stroke:none"
         d="m 158.91992,85.8125 -5.42773,2.527344 0.11133,0.240234 5.42773,-2.527344 z"
         id="path951" />
      <g
         id="g941">
        <g
           id="path943">
          <path
             style="color:#000000;fill:#ff0000;fill-rule:evenodd;stroke-width:0.211666pt;-inkscape-stroke:none"
             d="m 156.57718,87.049016 -0.51262,1.406184 2.91113,-2.523135 -3.80469,0.604329 z"
             id="path947" />
          <path
             style="color:#000000;fill:#ff0000;fill-rule:evenodd;-inkscape-stroke:none"
             d="m 159.44141,85.714844 -4.83008,0.767578 1.78515,0.65039 -0.65039,1.785157 z m -0.93164,0.435547 -2.125,1.841796 0.37304,-1.027343 -0.13281,-0.04883 -0.89453,-0.326172 z"
             id="path949" />
        </g>
      </g>
    </g>
    <g
       id="path6656">
      <path
         style="color:#000000;fill:#ff0000;-inkscape-stroke:none"
         d="m 156.93555,71.595703 -0.25782,0.05859 1.18946,5.183594 0.25976,-0.05859 z"
         id="path965" />
      <g
         id="g955">
        <g
           id="path957">
          <path
             style="color:#000000;fill:#ff0000;fill-rule:evenodd;stroke-width:0.211666pt;-inkscape-stroke:none"
             d="m 157.39894,74.203587 1.2683,0.794692 -1.86032,-3.373438 -0.20268,3.847051 z"
             id="path961" />
          <path
             style="color:#000000;fill:#ff0000;fill-rule:evenodd;-inkscape-stroke:none"
             d="m 156.69141,71.125 -0.25586,4.882812 1.00781,-1.611328 1.61133,1.009766 z m 0.23046,1 1.35743,2.464844 -0.92578,-0.580078 -0.0742,0.11914 -0.50391,0.804688 z"
             id="path963" />
        </g>
      </g>
    </g>
    <g
       id="path6658">
      <path
         style="color:#000000;fill:#ff0000;-inkscape-stroke:none"
         d="m 158.0918,76.716797 -0.18946,0.185547 4.0586,4.136718 0.18945,-0.185546 z"
         id="path979" />
      <g
         id="g969">
        <g
           id="path971">
          <path
             style="color:#000000;fill:#ff0000;fill-rule:evenodd;stroke-width:0.211666pt;-inkscape-stroke:none"
             d="m 159.84993,78.697768 1.49664,0.01436 -3.34949,-1.903107 1.83849,3.385386 z"
             id="path975" />
          <path
             style="color:#000000;fill:#ff0000;fill-rule:evenodd;-inkscape-stroke:none"
             d="m 157.63672,76.441406 2.33398,4.298828 0.0176,-1.898437 1.90234,0.01758 z m 0.71875,0.734375 2.44922,1.388672 -1.09375,-0.0098 -0.002,0.142579 -0.008,0.953125 z"
             id="path977" />
        </g>
      </g>
    </g>
  </g>
</svg>
