<?xml version="1.0" encoding="UTF-8" standalone="no"?>
<!-- Created with Inkscape (http://www.inkscape.org/) -->

<svg
   width="160.15411mm"
   height="117.03181mm"
   viewBox="0 0 160.15411 117.03181"
   version="1.1"
   id="svg1"
   inkscape:version="1.3 (0e150ed6c4, 2023-07-21)"
   sodipodi:docname="OAT_ilust.svg"
   xmlns:inkscape="http://www.inkscape.org/namespaces/inkscape"
   xmlns:sodipodi="http://sodipodi.sourceforge.net/DTD/sodipodi-0.dtd"
   xmlns="http://www.w3.org/2000/svg"
   xmlns:svg="http://www.w3.org/2000/svg">
  <sodipodi:namedview
     id="namedview1"
     pagecolor="#ffffff"
     bordercolor="#000000"
     borderopacity="0.25"
     inkscape:showpageshadow="2"
     inkscape:pageopacity="0.0"
     inkscape:pagecheckerboard="0"
     inkscape:deskcolor="#d1d1d1"
     inkscape:document-units="mm"
     inkscape:zoom="0.69041105"
     inkscape:cx="307.06345"
     inkscape:cy="496.08128"
     inkscape:window-width="1920"
     inkscape:window-height="1043"
     inkscape:window-x="0"
     inkscape:window-y="0"
     inkscape:window-maximized="1"
     inkscape:current-layer="layer1" />
  <defs
     id="defs1">
    <marker
       style="overflow:visible"
       id="TriangleOutS-6"
       refX="0"
       refY="0"
       orient="auto"
       inkscape:stockid="TriangleOutS"
       inkscape:isstock="true"
       viewBox="0 0 2.1297632 2.462154"
       markerWidth="4.3250003"
       markerHeight="5"
       preserveAspectRatio="xMidYMid">
      <path
         transform="scale(0.2)"
         style="fill:context-stroke;fill-rule:evenodd;stroke:context-stroke;stroke-width:1pt"
         d="M 5.77,0 -2.88,5 V -5 Z"
         id="path20756-10" />
    </marker>
    <marker
       style="overflow:visible"
       id="marker1"
       refX="0"
       refY="0"
       orient="auto"
       inkscape:stockid="TriangleOutS"
       inkscape:isstock="true"
       viewBox="0 0 2.1297632 2.462154"
       markerWidth="4.3250003"
       markerHeight="5"
       preserveAspectRatio="xMidYMid">
      <path
         transform="scale(0.2)"
         style="fill:context-stroke;fill-rule:evenodd;stroke:context-stroke;stroke-width:1pt"
         d="M 5.77,0 -2.88,5 V -5 Z"
         id="path1" />
    </marker>
    <marker
       style="overflow:visible"
       id="marker10717"
       refX="0"
       refY="0"
       orient="auto"
       inkscape:stockid="Arrow2Send"
       inkscape:isstock="true"
       viewBox="0 0 3.4652294 2.5981128"
       markerWidth="5"
       markerHeight="5"
       preserveAspectRatio="xMidYMid">
      <path
         transform="matrix(-0.3,0,0,-0.3,0.69,0)"
         d="M 8.7185878,4.0337352 -2.2072895,0.01601326 8.7185884,-4.0017078 c -1.7454984,2.3720609 -1.7354408,5.6174519 -6e-7,8.035443 z"
         style="fill:context-stroke;fill-rule:evenodd;stroke:context-stroke;stroke-width:0.625;stroke-linejoin:round"
         id="path10469" />
    </marker>
    <marker
       style="overflow:visible"
       id="marker2"
       refX="0"
       refY="0"
       orient="auto"
       inkscape:stockid="Arrow2Send"
       inkscape:isstock="true"
       viewBox="0 0 3.4652294 2.5981128"
       markerWidth="5"
       markerHeight="5"
       preserveAspectRatio="xMidYMid">
      <path
         transform="matrix(-0.3,0,0,-0.3,0.69,0)"
         d="M 8.7185878,4.0337352 -2.2072895,0.01601326 8.7185884,-4.0017078 c -1.7454984,2.3720609 -1.7354408,5.6174519 -6e-7,8.035443 z"
         style="fill:context-stroke;fill-rule:evenodd;stroke:context-stroke;stroke-width:0.625;stroke-linejoin:round"
         id="path2" />
    </marker>
    <marker
       style="overflow:visible"
       id="marker3"
       refX="0"
       refY="0"
       orient="auto"
       inkscape:stockid="Arrow2Send"
       inkscape:isstock="true"
       viewBox="0 0 3.4652294 2.5981128"
       markerWidth="5"
       markerHeight="5"
       preserveAspectRatio="xMidYMid">
      <path
         transform="matrix(-0.3,0,0,-0.3,0.69,0)"
         d="M 8.7185878,4.0337352 -2.2072895,0.01601326 8.7185884,-4.0017078 c -1.7454984,2.3720609 -1.7354408,5.6174519 -6e-7,8.035443 z"
         style="fill:context-stroke;fill-rule:evenodd;stroke:context-stroke;stroke-width:0.625;stroke-linejoin:round"
         id="path3" />
    </marker>
    <marker
       style="overflow:visible"
       id="marker4"
       refX="0"
       refY="0"
       orient="auto"
       inkscape:stockid="Arrow2Send"
       inkscape:isstock="true"
       viewBox="0 0 3.4652294 2.5981128"
       markerWidth="5"
       markerHeight="5"
       preserveAspectRatio="xMidYMid">
      <path
         transform="matrix(-0.3,0,0,-0.3,0.69,0)"
         d="M 8.7185878,4.0337352 -2.2072895,0.01601326 8.7185884,-4.0017078 c -1.7454984,2.3720609 -1.7354408,5.6174519 -6e-7,8.035443 z"
         style="fill:context-stroke;fill-rule:evenodd;stroke:context-stroke;stroke-width:0.625;stroke-linejoin:round"
         id="path4" />
    </marker>
    <marker
       style="overflow:visible"
       id="marker5"
       refX="0"
       refY="0"
       orient="auto"
       inkscape:stockid="Arrow2Send"
       inkscape:isstock="true"
       viewBox="0 0 3.4652294 2.5981128"
       markerWidth="5"
       markerHeight="5"
       preserveAspectRatio="xMidYMid">
      <path
         transform="matrix(-0.3,0,0,-0.3,0.69,0)"
         d="M 8.7185878,4.0337352 -2.2072895,0.01601326 8.7185884,-4.0017078 c -1.7454984,2.3720609 -1.7354408,5.6174519 -6e-7,8.035443 z"
         style="fill:context-stroke;fill-rule:evenodd;stroke:context-stroke;stroke-width:0.625;stroke-linejoin:round"
         id="path5" />
    </marker>
    <marker
       style="overflow:visible"
       id="marker6"
       refX="0"
       refY="0"
       orient="auto"
       inkscape:stockid="Arrow2Send"
       inkscape:isstock="true"
       viewBox="0 0 3.4652294 2.5981128"
       markerWidth="5"
       markerHeight="5"
       preserveAspectRatio="xMidYMid">
      <path
         transform="matrix(-0.3,0,0,-0.3,0.69,0)"
         d="M 8.7185878,4.0337352 -2.2072895,0.01601326 8.7185884,-4.0017078 c -1.7454984,2.3720609 -1.7354408,5.6174519 -6e-7,8.035443 z"
         style="fill:context-stroke;fill-rule:evenodd;stroke:context-stroke;stroke-width:0.625;stroke-linejoin:round"
         id="path6" />
    </marker>
    <marker
       style="overflow:visible"
       id="marker7"
       refX="0"
       refY="0"
       orient="auto"
       inkscape:stockid="Arrow2Send"
       inkscape:isstock="true"
       viewBox="0 0 3.4652294 2.5981128"
       markerWidth="5"
       markerHeight="5"
       preserveAspectRatio="xMidYMid">
      <path
         transform="matrix(-0.3,0,0,-0.3,0.69,0)"
         d="M 8.7185878,4.0337352 -2.2072895,0.01601326 8.7185884,-4.0017078 c -1.7454984,2.3720609 -1.7354408,5.6174519 -6e-7,8.035443 z"
         style="fill:context-stroke;fill-rule:evenodd;stroke:context-stroke;stroke-width:0.625;stroke-linejoin:round"
         id="path7" />
    </marker>
    <marker
       style="overflow:visible"
       id="marker8"
       refX="0"
       refY="0"
       orient="auto"
       inkscape:stockid="Arrow2Send"
       inkscape:isstock="true"
       viewBox="0 0 3.4652294 2.5981128"
       markerWidth="5"
       markerHeight="5"
       preserveAspectRatio="xMidYMid">
      <path
         transform="matrix(-0.3,0,0,-0.3,0.69,0)"
         d="M 8.7185878,4.0337352 -2.2072895,0.01601326 8.7185884,-4.0017078 c -1.7454984,2.3720609 -1.7354408,5.6174519 -6e-7,8.035443 z"
         style="fill:context-stroke;fill-rule:evenodd;stroke:context-stroke;stroke-width:0.625;stroke-linejoin:round"
         id="path8" />
    </marker>
  </defs>
  <g
     inkscape:label="Layer 1"
     inkscape:groupmode="layer"
     id="layer1"
     transform="translate(-23.899737,-17.167797)">
    <ellipse
       style="display:inline;fill:none;stroke:#000000;stroke-width:0.706001;stroke-linecap:round;stroke-linejoin:round;paint-order:fill markers stroke"
       id="path168540"
       cx="67.701347"
       cy="78.474586"
       rx="26.279995"
       ry="30.451883" />
    <ellipse
       style="display:inline;fill:none;stroke:#000000;stroke-width:0.706001;stroke-linecap:round;stroke-linejoin:round;paint-order:fill markers stroke"
       id="ellipse168695"
       cx="67.701347"
       cy="78.474586"
       rx="13.139994"
       ry="30.451883" />
    <circle
       style="display:inline;fill:none;stroke:#000000;stroke-width:0.757416;stroke-linecap:round;stroke-linejoin:round;paint-order:fill markers stroke"
       id="path123130-9"
       cx="67.701347"
       cy="78.474586"
       r="30.71747" />
    <path
       style="display:inline;fill:none;stroke:#000000;stroke-width:0.757416;stroke-linecap:round;stroke-linejoin:round;marker-end:url(#TriangleOutS-6);paint-order:fill markers stroke"
       d="M 67.701355,121.89748 V 35.051671"
       id="path123186-4" />
    <path
       style="display:inline;fill:none;stroke:#000000;stroke-width:0.757416;stroke-linecap:round;stroke-linejoin:round;marker-end:url(#TriangleOutS-6);paint-order:fill markers stroke"
       d="M 24.278445,78.474571 H 111.12425"
       id="path155575-9" />
    <path
       id="path117131"
       style="color:#000000;display:inline;fill:#b50000;fill-rule:evenodd;stroke-width:0.0284172;stroke-linecap:butt;stroke-linejoin:round;-inkscape-stroke:none"
       d="m 65.416945,47.842361 a 30.71747,30.71747 0 0 0 -4.31188,0.63976 c 0.13473,0.38279 0.23855,0.77355 0.30954,1.1684 h -4.27829 a 30.71747,30.71747 0 0 0 -5.43688,2.6262 h 9.71724 c -0.19268,1.07307 -0.62378,2.10942 -1.2976,3.02514 a 0.35525173,0.35525173 0 0 0 0.40928,0.54312 l 2.68873,-0.98857 c 0.22339,0.43241 0.37703,0.88968 0.46095,1.35599 h -17.12505 a 30.71747,30.71747 0 0 0 -1.63711,1.68051 h 18.76371 c -0.12327,0.68702 -0.39947,1.35047 -0.83096,1.93684 a 0.22736045,0.22736045 0 0 0 0.26149,0.34778 l 6.21305,-2.28462 h 21.17701 a 30.71747,30.71747 0 0 0 -1.63711,-1.68051 h -19.4784 l -4.92735,-1.81178 5.77639,-2.1239 h 13.50254 a 30.71747,30.71747 0 0 0 -5.42344,-2.6262 h -7.97781 z m -0.34365,13.52321 a 0.12789038,0.12789038 0 0 0 -0.10231,0.20154 c 0.24196,0.33713 0.39775,0.71506 0.46767,1.10381 h -24.06003 a 30.71747,30.71747 0 0 0 -0.54416,0.94567 h 24.60522 c -0.0693,0.38614 -0.22466,0.75876 -0.46715,1.08831 a 0.12789038,0.12789038 0 0 0 0.14624,0.19585 l 3.49281,-1.28416 h 25.97206 a 30.71747,30.71747 0 0 0 -0.5426,-0.94567 h -25.39174 l -3.53053,-1.29812 a 0.12789038,0.12789038 0 0 0 -0.0455,-0.007 z m 1.46038,7.07709 v 5.1e-4 a 0.05684034,0.05684034 0 0 0 -0.046,0.0894 c 0.10754,0.14984 0.17676,0.31817 0.20774,0.49093 h -28.2081 a 30.71747,30.71747 0 0 0 -0.14521,0.42013 h 28.35331 c -0.0309,0.17155 -0.10001,0.33726 -0.20774,0.48369 a 0.05684034,0.05684034 0 0 0 0.0667,0.0873 l 1.55236,-0.57102 h 28.95224 a 30.71747,30.71747 0 0 0 -0.13178,-0.42013 h -28.80392 l -1.5689,-0.57671 a 0.05684034,0.05684034 0 0 0 -0.0207,-0.004 z m 0.87592,6.68228 a 0.01421004,0.01421004 0 0 0 -0.0109,0.0233 c 0.0267,0.0372 0.0438,0.0791 0.0517,0.12196 h -30.27823 a 30.71747,30.71747 0 0 0 -0.0119,0.10593 h 30.29014 c -0.008,0.043 -0.0247,0.0842 -0.0517,0.12093 a 0.01421004,0.01421004 0 0 0 0.016,0.0222 l 0.38654,-0.14315 h 30.46016 a 30.71747,30.71747 0 0 0 -0.0109,-0.10593 h -30.44672 l -0.38913,-0.14418 a 0.01421004,0.01421004 0 0 0 -0.005,-0.001 z m 0.0109,0.0336 h 5.1e-4 l 0.001,5.1e-4 c 0.0214,0.0348 0.0351,0.0723 0.0419,0.11111 h -0.002 c -0.007,-0.0383 -0.0205,-0.0763 -0.0413,-0.11162 z m 0.0413,0.21755 h 5.2e-4 0.002 c -0.007,0.0386 -0.0205,0.0759 -0.0419,0.11007 l -0.002,5.2e-4 c 0.0211,-0.0349 0.0348,-0.0722 0.0413,-0.11059 z"
       inkscape:transform-center-x="-0.00951"
       inkscape:transform-center-y="-16.79335" />
    <g
       id="g240632"
       transform="matrix(0.66666994,0,0,0.66666994,-28.672825,-230.12181)"
       style="display:inline;stroke-linecap:butt;stroke-linejoin:round">
      <rect
         style="fill:none;stroke:#000000;stroke-width:0.705556;stroke-linecap:round;stroke-linejoin:round;stroke-dasharray:none;stroke-dashoffset:0;paint-order:fill markers stroke"
         id="rect235814"
         width="52.560005"
         height="52.560005"
         x="236.53998"
         y="382.46997" />
      <path
         style="fill:none;stroke:#000000;stroke-width:0.705556;stroke-linecap:round;stroke-linejoin:round;stroke-dasharray:none;stroke-dashoffset:0;marker-end:url(#marker10717);paint-order:fill markers stroke"
         d="m 227.06656,382.50307 h 6.82758"
         id="path235816"
         inkscape:transform-center-x="32.339646"
         inkscape:transform-center-y="-26.24692" />
      <path
         style="fill:none;stroke:#000000;stroke-width:0.705556;stroke-linecap:round;stroke-linejoin:round;stroke-dasharray:none;stroke-dashoffset:0;marker-end:url(#marker10717);paint-order:fill markers stroke"
         d="m 298.57343,434.99691 h -6.82758"
         id="path236272"
         inkscape:transform-center-x="-32.339644"
         inkscape:transform-center-y="26.24692" />
      <path
         style="fill:none;stroke:#000000;stroke-width:0.705556;stroke-linecap:round;stroke-linejoin:round;stroke-dasharray:none;stroke-dashoffset:0;marker-end:url(#marker10717);paint-order:fill markers stroke"
         d="m 291.07845,382.50985 h 6.82758"
         id="path236276" />
      <path
         style="fill:none;stroke:#000000;stroke-width:0.705556;stroke-linecap:round;stroke-linejoin:round;stroke-dasharray:none;stroke-dashoffset:0;marker-end:url(#marker10717);paint-order:fill markers stroke"
         d="m 234.56154,434.99013 h -6.82758"
         id="path236280" />
      <circle
         style="fill:none;stroke:#009100;stroke-width:0.705556;stroke-linecap:round;stroke-linejoin:round;stroke-dasharray:none;stroke-dashoffset:0;paint-order:fill markers stroke"
         id="path235656"
         cx="262.81998"
         cy="408.74997"
         r="26.279993" />
    </g>
    <text
       xml:space="preserve"
       style="font-style:normal;font-variant:normal;font-weight:normal;font-stretch:normal;font-size:11.2889px;line-height:1.25;font-family:Coolvetica;-inkscape-font-specification:'Coolvetica, Normal';font-variant-ligatures:none;font-variant-caps:normal;font-variant-numeric:normal;font-variant-east-asian:normal;text-align:start;writing-mode:lr-tb;text-anchor:start;display:inline;fill:#000000;stroke:none;stroke-width:0.705556;stroke-linecap:round;stroke-linejoin:round;stroke-dasharray:none;stroke-dashoffset:0;paint-order:fill markers stroke"
       x="120.1256"
       y="133.93996"
       id="text240684"><tspan
         sodipodi:role="line"
         id="tspan240682"
         style="fill:#000000;stroke:none;stroke-width:0.705556"
         x="120.1256"
         y="133.93996">Shear</tspan></text>
    <g
       id="g352545"
       transform="matrix(0.66666994,0,-0.57665264,0.66666994,205.01949,-176.50665)"
       style="display:inline;stroke-linecap:butt;stroke-linejoin:round">
      <rect
         style="fill:none;stroke:#000000;stroke-width:0.705556;stroke-linecap:round;stroke-linejoin:round;stroke-dasharray:none;stroke-dashoffset:0;paint-order:fill markers stroke"
         id="rect352533"
         width="52.560005"
         height="52.560005"
         x="236.53998"
         y="382.46997" />
      <path
         style="fill:none;stroke:#000000;stroke-width:0.705556;stroke-linecap:round;stroke-linejoin:round;stroke-dasharray:none;stroke-dashoffset:0;marker-end:url(#marker10717);paint-order:fill markers stroke"
         d="m 227.06656,382.50307 h 6.82758"
         id="path352535"
         inkscape:transform-center-x="32.339646"
         inkscape:transform-center-y="-26.24692" />
      <path
         style="fill:none;stroke:#000000;stroke-width:0.705556;stroke-linecap:round;stroke-linejoin:round;stroke-dasharray:none;stroke-dashoffset:0;marker-end:url(#marker10717);paint-order:fill markers stroke"
         d="m 298.57343,434.99691 h -6.82758"
         id="path352537"
         inkscape:transform-center-x="-32.339644"
         inkscape:transform-center-y="26.24692" />
      <path
         style="fill:none;stroke:#000000;stroke-width:0.705556;stroke-linecap:round;stroke-linejoin:round;stroke-dasharray:none;stroke-dashoffset:0;marker-end:url(#marker10717);paint-order:fill markers stroke"
         d="m 291.07845,382.50985 h 6.82758"
         id="path352539" />
      <path
         style="fill:none;stroke:#000000;stroke-width:0.705556;stroke-linecap:round;stroke-linejoin:round;stroke-dasharray:none;stroke-dashoffset:0;marker-end:url(#marker10717);paint-order:fill markers stroke"
         d="m 234.56154,434.99013 h -6.82758"
         id="path352541" />
      <path
         id="circle352543"
         style="fill:none;stroke:#009100;stroke-width:0.705556;stroke-linecap:round;stroke-linejoin:round;paint-order:fill markers stroke"
         d="m 289.09997,408.74997 a 26.279993,26.279993 0 0 1 -26.27999,26.27999 26.279993,26.279993 0 0 1 -26.28,-26.27999 26.279993,26.279993 0 0 1 26.28,-26.27999 26.279993,26.279993 0 0 1 26.27999,26.27999 z" />
    </g>
    <text
       xml:space="preserve"
       style="font-size:11.2889px;line-height:1.25;font-family:Coolvetica;-inkscape-font-specification:Coolvetica;text-align:start;writing-mode:lr-tb;text-anchor:start;display:inline;fill:#b50000;fill-opacity:1;stroke:none;stroke-width:0.706001;stroke-linecap:round;stroke-linejoin:round;stroke-dasharray:none;stroke-dashoffset:0;paint-order:fill markers stroke"
       x="57.251213"
       y="26.717077"
       id="text533948"><tspan
         sodipodi:role="line"
         id="tspan533946"
         style="font-size:11.2889px;fill:#b50000;stroke-width:0.706"
         x="57.251213"
         y="26.717077">(S<tspan
   style="font-size:65%;baseline-shift:super;fill:#b50000"
   id="tspan533950">z</tspan>)<tspan
   style="font-size:65%;baseline-shift:super;fill:#b50000"
   id="tspan533952">2</tspan></tspan></text>
    <path
       id="path117200"
       style="color:#000000;display:inline;fill:#b50000;fill-rule:evenodd;stroke-width:0.0284172;stroke-linecap:butt;stroke-linejoin:round;-inkscape-stroke:none"
       d="m 69.985705,109.10683 a 30.71747,30.71747 0 0 0 4.31188,-0.63976 c -0.13473,-0.38279 -0.23855,-0.77355 -0.30954,-1.1684 h 4.27829 a 30.71747,30.71747 0 0 0 5.43688,-2.6262 h -9.71724 c 0.19268,-1.07307 0.62378,-2.10942 1.2976,-3.02514 a 0.35525173,0.35525173 0 0 0 -0.40928,-0.54312 l -2.68873,0.98857 c -0.22339,-0.43241 -0.37703,-0.88968 -0.46095,-1.35599 h 17.12505 a 30.71747,30.71747 0 0 0 1.63711,-1.680509 h -18.76371 c 0.12327,-0.68702 0.39947,-1.35047 0.83096,-1.93684 a 0.22736045,0.22736045 0 0 0 -0.26149,-0.34778 l -6.21305,2.28462 h -21.17701 a 30.71747,30.71747 0 0 0 1.63711,1.680509 h 19.4784 l 4.92735,1.81178 -5.77639,2.1239 h -13.50254 a 30.71747,30.71747 0 0 0 5.42344,2.6262 h 7.97781 z m 0.34365,-13.523209 a 0.12789038,0.12789038 0 0 0 0.10231,-0.20154 c -0.24196,-0.33713 -0.39775,-0.71506 -0.46767,-1.10381 h 24.06003 a 30.71747,30.71747 0 0 0 0.54416,-0.94567 h -24.60522 c 0.0693,-0.38614 0.22466,-0.75876 0.46715,-1.08831 a 0.12789038,0.12789038 0 0 0 -0.14624,-0.19585 l -3.49281,1.28416 h -25.97206 a 30.71747,30.71747 0 0 0 0.5426,0.94567 h 25.39174 l 3.53053,1.29812 a 0.12789038,0.12789038 0 0 0 0.0455,0.007 z m -1.46038,-7.07709 v -5.1e-4 a 0.05684034,0.05684034 0 0 0 0.046,-0.0894 c -0.10754,-0.14984 -0.17676,-0.31817 -0.20774,-0.49093 h 28.2081 a 30.71747,30.71747 0 0 0 0.14521,-0.42013 h -28.35331 c 0.0309,-0.17155 0.10001,-0.33726 0.20774,-0.48369 a 0.05684034,0.05684034 0 0 0 -0.0667,-0.0873 l -1.55236,0.57102 h -28.95224 a 30.71747,30.71747 0 0 0 0.13178,0.42013 h 28.80392 l 1.5689,0.57671 a 0.05684034,0.05684034 0 0 0 0.0207,0.004 z m -0.87592,-6.68228 a 0.01421004,0.01421004 0 0 0 0.0109,-0.0233 c -0.0267,-0.0372 -0.0438,-0.0791 -0.0517,-0.12196 h 30.27823 a 30.71747,30.71747 0 0 0 0.0119,-0.10593 h -30.29014 c 0.008,-0.043 0.0247,-0.0842 0.0517,-0.12093 a 0.01421004,0.01421004 0 0 0 -0.016,-0.0222 l -0.38654,0.14315 h -30.46016 a 30.71747,30.71747 0 0 0 0.0109,0.10593 h 30.44672 l 0.38913,0.14418 a 0.01421004,0.01421004 0 0 0 0.005,0.001 z m -0.0109,-0.0336 h -5.1e-4 l -0.001,-5.1e-4 c -0.0214,-0.0348 -0.0351,-0.0723 -0.0419,-0.11111 h 0.002 c 0.007,0.0383 0.0205,0.0763 0.0413,0.11162 z m -0.0413,-0.21755 h -5.2e-4 -0.002 c 0.007,-0.0386 0.0205,-0.0759 0.0419,-0.11007 l 0.002,-5.2e-4 c -0.0211,0.0349 -0.0348,0.0722 -0.0413,0.11059 z"
       inkscape:transform-center-x="0.00951"
       inkscape:transform-center-y="16.793353" />
  </g>
</svg>
