<?xml version="1.0" encoding="UTF-8" standalone="no"?>
<!-- Created with Inkscape (http://www.inkscape.org/) -->

<svg
   width="420.58185mm"
   height="195.91266mm"
   viewBox="0 0 420.58184 195.91266"
   version="1.1"
   id="svg1"
   inkscape:version="1.3 (0e150ed6c4, 2023-07-21)"
   sodipodi:docname="SWS_ilust.svg"
   xmlns:inkscape="http://www.inkscape.org/namespaces/inkscape"
   xmlns:sodipodi="http://sodipodi.sourceforge.net/DTD/sodipodi-0.dtd"
   xmlns="http://www.w3.org/2000/svg"
   xmlns:svg="http://www.w3.org/2000/svg"
   xmlns:ns29="http://www.iki.fi/pav/software/textext/">
  <sodipodi:namedview
     id="namedview1"
     pagecolor="#ffffff"
     bordercolor="#000000"
     borderopacity="0.25"
     inkscape:showpageshadow="2"
     inkscape:pageopacity="0.0"
     inkscape:pagecheckerboard="0"
     inkscape:deskcolor="#d1d1d1"
     inkscape:document-units="mm"
     inkscape:zoom="0.70759836"
     inkscape:cx="859.24451"
     inkscape:cy="277.69991"
     inkscape:window-width="1920"
     inkscape:window-height="1043"
     inkscape:window-x="0"
     inkscape:window-y="0"
     inkscape:window-maximized="1"
     inkscape:current-layer="layer1" />
  <defs
     id="defs1">
    <marker
       style="overflow:visible"
       id="TriangleOutS-6"
       refX="0"
       refY="0"
       orient="auto"
       inkscape:stockid="TriangleOutS"
       inkscape:isstock="true"
       viewBox="0 0 2.1297632 2.462154"
       markerWidth="4.3250003"
       markerHeight="5"
       preserveAspectRatio="xMidYMid">
      <path
         transform="scale(0.2)"
         style="fill:context-stroke;fill-rule:evenodd;stroke:context-stroke;stroke-width:1pt"
         d="M 5.77,0 -2.88,5 V -5 Z"
         id="path20756-10" />
    </marker>
    <marker
       style="overflow:visible"
       id="marker1"
       refX="0"
       refY="0"
       orient="auto"
       inkscape:stockid="TriangleOutS"
       inkscape:isstock="true"
       viewBox="0 0 2.1297632 2.462154"
       markerWidth="4.3249998"
       markerHeight="5"
       preserveAspectRatio="xMidYMid">
      <path
         transform="scale(0.2)"
         style="fill:context-stroke;fill-rule:evenodd;stroke:context-stroke;stroke-width:1pt"
         d="M 5.77,0 -2.88,5 V -5 Z"
         id="path1" />
    </marker>
    <marker
       style="overflow:visible"
       id="marker10717"
       refX="0"
       refY="0"
       orient="auto"
       inkscape:stockid="Arrow2Send"
       inkscape:isstock="true"
       viewBox="0 0 3.4652294 2.5981128"
       markerWidth="5.0002236"
       markerHeight="3.7490001"
       preserveAspectRatio="xMidYMid">
      <path
         transform="matrix(-0.3,0,0,-0.3,0.69,0)"
         d="M 8.7185878,4.0337352 -2.2072895,0.01601326 8.7185884,-4.0017078 c -1.7454984,2.3720609 -1.7354408,5.6174519 -6e-7,8.035443 z"
         style="fill:context-stroke;fill-rule:evenodd;stroke:context-stroke;stroke-width:0.625;stroke-linejoin:round"
         id="path10469" />
    </marker>
    <marker
       style="overflow:visible"
       id="marker2"
       refX="0"
       refY="0"
       orient="auto"
       inkscape:stockid="Arrow2Send"
       inkscape:isstock="true"
       viewBox="0 0 3.4652294 2.5981128"
       markerWidth="5"
       markerHeight="3.7488322"
       preserveAspectRatio="xMidYMid">
      <path
         transform="matrix(-0.3,0,0,-0.3,0.69,0)"
         d="M 8.7185878,4.0337352 -2.2072895,0.01601326 8.7185884,-4.0017078 c -1.7454984,2.3720609 -1.7354408,5.6174519 -6e-7,8.035443 z"
         style="fill:context-stroke;fill-rule:evenodd;stroke:context-stroke;stroke-width:0.625;stroke-linejoin:round"
         id="path2" />
    </marker>
    <marker
       style="overflow:visible"
       id="marker3"
       refX="0"
       refY="0"
       orient="auto"
       inkscape:stockid="Arrow2Send"
       inkscape:isstock="true"
       viewBox="0 0 3.4652294 2.5981128"
       markerWidth="5"
       markerHeight="3.7488322"
       preserveAspectRatio="xMidYMid">
      <path
         transform="matrix(-0.3,0,0,-0.3,0.69,0)"
         d="M 8.7185878,4.0337352 -2.2072895,0.01601326 8.7185884,-4.0017078 c -1.7454984,2.3720609 -1.7354408,5.6174519 -6e-7,8.035443 z"
         style="fill:context-stroke;fill-rule:evenodd;stroke:context-stroke;stroke-width:0.625;stroke-linejoin:round"
         id="path3" />
    </marker>
    <marker
       style="overflow:visible"
       id="marker4"
       refX="0"
       refY="0"
       orient="auto"
       inkscape:stockid="Arrow2Send"
       inkscape:isstock="true"
       viewBox="0 0 3.4652294 2.5981128"
       markerWidth="5"
       markerHeight="3.7488322"
       preserveAspectRatio="xMidYMid">
      <path
         transform="matrix(-0.3,0,0,-0.3,0.69,0)"
         d="M 8.7185878,4.0337352 -2.2072895,0.01601326 8.7185884,-4.0017078 c -1.7454984,2.3720609 -1.7354408,5.6174519 -6e-7,8.035443 z"
         style="fill:context-stroke;fill-rule:evenodd;stroke:context-stroke;stroke-width:0.625;stroke-linejoin:round"
         id="path4" />
    </marker>
    <marker
       style="overflow:visible"
       id="marker5"
       refX="0"
       refY="0"
       orient="auto"
       inkscape:stockid="Arrow2Send"
       inkscape:isstock="true"
       viewBox="0 0 3.4652294 2.5981128"
       markerWidth="5"
       markerHeight="3.7488322"
       preserveAspectRatio="xMidYMid">
      <path
         transform="matrix(-0.3,0,0,-0.3,0.69,0)"
         d="M 8.7185878,4.0337352 -2.2072895,0.01601326 8.7185884,-4.0017078 c -1.7454984,2.3720609 -1.7354408,5.6174519 -6e-7,8.035443 z"
         style="fill:context-stroke;fill-rule:evenodd;stroke:context-stroke;stroke-width:0.625;stroke-linejoin:round"
         id="path5" />
    </marker>
    <marker
       style="overflow:visible"
       id="marker6"
       refX="0"
       refY="0"
       orient="auto"
       inkscape:stockid="Arrow2Send"
       inkscape:isstock="true"
       viewBox="0 0 3.4652294 2.5981128"
       markerWidth="5"
       markerHeight="3.7488322"
       preserveAspectRatio="xMidYMid">
      <path
         transform="matrix(-0.3,0,0,-0.3,0.69,0)"
         d="M 8.7185878,4.0337352 -2.2072895,0.01601326 8.7185884,-4.0017078 c -1.7454984,2.3720609 -1.7354408,5.6174519 -6e-7,8.035443 z"
         style="fill:context-stroke;fill-rule:evenodd;stroke:context-stroke;stroke-width:0.625;stroke-linejoin:round"
         id="path6" />
    </marker>
    <marker
       style="overflow:visible"
       id="marker7"
       refX="0"
       refY="0"
       orient="auto"
       inkscape:stockid="Arrow2Send"
       inkscape:isstock="true"
       viewBox="0 0 3.4652294 2.5981128"
       markerWidth="5"
       markerHeight="3.7488322"
       preserveAspectRatio="xMidYMid">
      <path
         transform="matrix(-0.3,0,0,-0.3,0.69,0)"
         d="M 8.7185878,4.0337352 -2.2072895,0.01601326 8.7185884,-4.0017078 c -1.7454984,2.3720609 -1.7354408,5.6174519 -6e-7,8.035443 z"
         style="fill:context-stroke;fill-rule:evenodd;stroke:context-stroke;stroke-width:0.625;stroke-linejoin:round"
         id="path7" />
    </marker>
    <marker
       style="overflow:visible"
       id="marker8"
       refX="0"
       refY="0"
       orient="auto"
       inkscape:stockid="Arrow2Send"
       inkscape:isstock="true"
       viewBox="0 0 3.4652294 2.5981128"
       markerWidth="5"
       markerHeight="3.7488322"
       preserveAspectRatio="xMidYMid">
      <path
         transform="matrix(-0.3,0,0,-0.3,0.69,0)"
         d="M 8.7185878,4.0337352 -2.2072895,0.01601326 8.7185884,-4.0017078 c -1.7454984,2.3720609 -1.7354408,5.6174519 -6e-7,8.035443 z"
         style="fill:context-stroke;fill-rule:evenodd;stroke:context-stroke;stroke-width:0.625;stroke-linejoin:round"
         id="path8" />
    </marker>
    <marker
       style="overflow:visible"
       id="marker10717-9"
       refX="0"
       refY="0"
       orient="auto"
       inkscape:stockid="Arrow2Send"
       inkscape:isstock="true"
       viewBox="0 0 3.4652294 2.5981128"
       markerWidth="5"
       markerHeight="3.7488322"
       preserveAspectRatio="xMidYMid">
      <path
         transform="matrix(-0.3,0,0,-0.3,0.69,0)"
         d="M 8.7185878,4.0337352 -2.2072895,0.01601326 8.7185884,-4.0017078 c -1.7454984,2.3720609 -1.7354408,5.6174519 -6e-7,8.035443 z"
         style="fill:context-stroke;fill-rule:evenodd;stroke:context-stroke;stroke-width:0.625;stroke-linejoin:round"
         id="path10469-1" />
    </marker>
    <marker
       style="overflow:visible"
       id="marker1-2"
       refX="0"
       refY="0"
       orient="auto"
       inkscape:stockid="Arrow2Send"
       inkscape:isstock="true"
       viewBox="0 0 3.4652294 2.5981128"
       markerWidth="5"
       markerHeight="3.7488322"
       preserveAspectRatio="xMidYMid">
      <path
         transform="matrix(-0.3,0,0,-0.3,0.69,0)"
         d="M 8.7185878,4.0337352 -2.2072895,0.01601326 8.7185884,-4.0017078 c -1.7454984,2.3720609 -1.7354408,5.6174519 -6e-7,8.035443 z"
         style="fill:context-stroke;fill-rule:evenodd;stroke:context-stroke;stroke-width:0.625;stroke-linejoin:round"
         id="path1-7" />
    </marker>
    <marker
       style="overflow:visible"
       id="marker2-0"
       refX="0"
       refY="0"
       orient="auto"
       inkscape:stockid="Arrow2Send"
       inkscape:isstock="true"
       viewBox="0 0 3.4652294 2.5981128"
       markerWidth="5"
       markerHeight="3.7488322"
       preserveAspectRatio="xMidYMid">
      <path
         transform="matrix(-0.3,0,0,-0.3,0.69,0)"
         d="M 8.7185878,4.0337352 -2.2072895,0.01601326 8.7185884,-4.0017078 c -1.7454984,2.3720609 -1.7354408,5.6174519 -6e-7,8.035443 z"
         style="fill:context-stroke;fill-rule:evenodd;stroke:context-stroke;stroke-width:0.625;stroke-linejoin:round"
         id="path2-9" />
    </marker>
    <marker
       style="overflow:visible"
       id="marker3-3"
       refX="0"
       refY="0"
       orient="auto"
       inkscape:stockid="Arrow2Send"
       inkscape:isstock="true"
       viewBox="0 0 3.4652294 2.5981128"
       markerWidth="5"
       markerHeight="3.7488322"
       preserveAspectRatio="xMidYMid">
      <path
         transform="matrix(-0.3,0,0,-0.3,0.69,0)"
         d="M 8.7185878,4.0337352 -2.2072895,0.01601326 8.7185884,-4.0017078 c -1.7454984,2.3720609 -1.7354408,5.6174519 -6e-7,8.035443 z"
         style="fill:context-stroke;fill-rule:evenodd;stroke:context-stroke;stroke-width:0.625;stroke-linejoin:round"
         id="path3-6" />
    </marker>
    <marker
       style="overflow:visible"
       id="TriangleOutS-6-0"
       refX="0"
       refY="0"
       orient="auto"
       inkscape:stockid="TriangleOutS"
       inkscape:isstock="true"
       viewBox="0 0 2.1297632 2.462154"
       markerWidth="4.3250003"
       markerHeight="5"
       preserveAspectRatio="xMidYMid">
      <path
         transform="scale(0.2)"
         style="fill:context-stroke;fill-rule:evenodd;stroke:context-stroke;stroke-width:1pt"
         d="M 5.77,0 -2.88,5 V -5 Z"
         id="path20756-10-6" />
    </marker>
    <marker
       style="overflow:visible"
       id="marker4-2"
       refX="0"
       refY="0"
       orient="auto"
       inkscape:stockid="TriangleOutS"
       inkscape:isstock="true"
       viewBox="0 0 2.1297632 2.462154"
       markerWidth="4.3250003"
       markerHeight="5"
       preserveAspectRatio="xMidYMid">
      <path
         transform="scale(0.2)"
         style="fill:context-stroke;fill-rule:evenodd;stroke:context-stroke;stroke-width:1pt"
         d="M 5.77,0 -2.88,5 V -5 Z"
         id="path4-6" />
    </marker>
    <marker
       style="overflow:visible"
       id="marker5-1"
       refX="0"
       refY="0"
       orient="auto"
       inkscape:stockid="Arrow2Send"
       inkscape:isstock="true"
       viewBox="0 0 3.4652294 2.5981128"
       markerWidth="5"
       markerHeight="5"
       preserveAspectRatio="xMidYMid">
      <path
         transform="matrix(-0.3,0,0,-0.3,0.69,0)"
         d="M 8.7185878,4.0337352 -2.2072895,0.01601326 8.7185884,-4.0017078 c -1.7454984,2.3720609 -1.7354408,5.6174519 -6e-7,8.035443 z"
         style="fill:context-stroke;fill-rule:evenodd;stroke:context-stroke;stroke-width:0.625;stroke-linejoin:round"
         id="path5-8" />
    </marker>
    <marker
       style="overflow:visible"
       id="marker6-7"
       refX="0"
       refY="0"
       orient="auto"
       inkscape:stockid="Arrow2Send"
       inkscape:isstock="true"
       viewBox="0 0 3.4652294 2.5981128"
       markerWidth="5"
       markerHeight="5"
       preserveAspectRatio="xMidYMid">
      <path
         transform="matrix(-0.3,0,0,-0.3,0.69,0)"
         d="M 8.7185878,4.0337352 -2.2072895,0.01601326 8.7185884,-4.0017078 c -1.7454984,2.3720609 -1.7354408,5.6174519 -6e-7,8.035443 z"
         style="fill:context-stroke;fill-rule:evenodd;stroke:context-stroke;stroke-width:0.625;stroke-linejoin:round"
         id="path6-9" />
    </marker>
    <marker
       style="overflow:visible"
       id="marker7-2"
       refX="0"
       refY="0"
       orient="auto"
       inkscape:stockid="Arrow2Send"
       inkscape:isstock="true"
       viewBox="0 0 3.4652294 2.5981128"
       markerWidth="5"
       markerHeight="3.7488322"
       preserveAspectRatio="xMidYMid">
      <path
         transform="matrix(-0.3,0,0,-0.3,0.69,0)"
         d="M 8.7185878,4.0337352 -2.2072895,0.01601326 8.7185884,-4.0017078 c -1.7454984,2.3720609 -1.7354408,5.6174519 -6e-7,8.035443 z"
         style="fill:context-stroke;fill-rule:evenodd;stroke:context-stroke;stroke-width:0.625;stroke-linejoin:round"
         id="path7-0" />
    </marker>
    <marker
       style="overflow:visible"
       id="marker8-2"
       refX="0"
       refY="0"
       orient="auto"
       inkscape:stockid="Arrow2Send"
       inkscape:isstock="true"
       viewBox="0 0 3.4652294 2.5981128"
       markerWidth="5"
       markerHeight="5"
       preserveAspectRatio="xMidYMid">
      <path
         transform="matrix(-0.3,0,0,-0.3,0.69,0)"
         d="M 8.7185878,4.0337352 -2.2072895,0.01601326 8.7185884,-4.0017078 c -1.7454984,2.3720609 -1.7354408,5.6174519 -6e-7,8.035443 z"
         style="fill:context-stroke;fill-rule:evenodd;stroke:context-stroke;stroke-width:0.625;stroke-linejoin:round"
         id="path8-3" />
    </marker>
    <clipPath
       clipPathUnits="userSpaceOnUse"
       id="clipPath26">
      <circle
         style="display:inline;fill:none;stroke:#000000;stroke-width:0.757415;stroke-linecap:round;stroke-linejoin:round;paint-order:fill markers stroke"
         id="circle27"
         cx="57.589455"
         cy="78.638138"
         r="30.71747" />
    </clipPath>
    <marker
       style="overflow:visible"
       id="TriangleOutS-6-2"
       refX="0"
       refY="0"
       orient="auto"
       inkscape:stockid="TriangleOutS"
       inkscape:isstock="true"
       viewBox="0 0 2.1297632 2.462154"
       markerWidth="4.3250003"
       markerHeight="5"
       preserveAspectRatio="xMidYMid">
      <path
         transform="scale(0.2)"
         style="fill:context-stroke;fill-rule:evenodd;stroke:context-stroke;stroke-width:1pt"
         d="M 5.77,0 -2.88,5 V -5 Z"
         id="path20756-10-2" />
    </marker>
    <marker
       style="overflow:visible"
       id="marker1-8"
       refX="0"
       refY="0"
       orient="auto"
       inkscape:stockid="TriangleOutS"
       inkscape:isstock="true"
       viewBox="0 0 2.1297632 2.462154"
       markerWidth="4.3250003"
       markerHeight="5"
       preserveAspectRatio="xMidYMid">
      <path
         transform="scale(0.2)"
         style="fill:context-stroke;fill-rule:evenodd;stroke:context-stroke;stroke-width:1pt"
         d="M 5.77,0 -2.88,5 V -5 Z"
         id="path1-9" />
    </marker>
    <marker
       style="overflow:visible"
       id="marker2-7"
       refX="0"
       refY="0"
       orient="auto"
       inkscape:stockid="TriangleOutS"
       inkscape:isstock="true"
       viewBox="0 0 2.1297632 2.462154"
       markerWidth="4.3250003"
       markerHeight="5"
       preserveAspectRatio="xMidYMid">
      <path
         transform="scale(0.2)"
         style="fill:context-stroke;fill-rule:evenodd;stroke:context-stroke;stroke-width:1pt"
         d="M 5.77,0 -2.88,5 V -5 Z"
         id="path2-3" />
    </marker>
    <marker
       style="overflow:visible"
       id="marker3-6"
       refX="0"
       refY="0"
       orient="auto"
       inkscape:stockid="TriangleOutS"
       inkscape:isstock="true"
       viewBox="0 0 2.1297632 2.462154"
       markerWidth="4.3250003"
       markerHeight="5"
       preserveAspectRatio="xMidYMid">
      <path
         transform="scale(0.2)"
         style="fill:context-stroke;fill-rule:evenodd;stroke:context-stroke;stroke-width:1pt"
         d="M 5.77,0 -2.88,5 V -5 Z"
         id="path3-1" />
    </marker>
    <marker
       style="overflow:visible"
       id="marker4-29"
       refX="0"
       refY="0"
       orient="auto"
       inkscape:stockid="TriangleOutS"
       inkscape:isstock="true"
       viewBox="0 0 2.1297632 2.462154"
       markerWidth="4.3250003"
       markerHeight="5"
       preserveAspectRatio="xMidYMid">
      <path
         transform="scale(0.2)"
         style="fill:context-stroke;fill-rule:evenodd;stroke:context-stroke;stroke-width:1pt"
         d="M 5.77,0 -2.88,5 V -5 Z"
         id="path4-3" />
    </marker>
    <marker
       style="overflow:visible"
       id="marker5-19"
       refX="0"
       refY="0"
       orient="auto"
       inkscape:stockid="TriangleOutS"
       inkscape:isstock="true"
       viewBox="0 0 2.1297632 2.462154"
       markerWidth="4.3250003"
       markerHeight="5"
       preserveAspectRatio="xMidYMid">
      <path
         transform="scale(0.2)"
         style="fill:context-stroke;fill-rule:evenodd;stroke:context-stroke;stroke-width:1pt"
         d="M 5.77,0 -2.88,5 V -5 Z"
         id="path5-4" />
    </marker>
    <marker
       style="overflow:visible"
       id="marker6-78"
       refX="0"
       refY="0"
       orient="auto"
       inkscape:stockid="TriangleOutS"
       inkscape:isstock="true"
       viewBox="0 0 2.1297632 2.462154"
       markerWidth="4.3250003"
       markerHeight="5"
       preserveAspectRatio="xMidYMid">
      <path
         transform="scale(0.2)"
         style="fill:context-stroke;fill-rule:evenodd;stroke:context-stroke;stroke-width:1pt"
         d="M 5.77,0 -2.88,5 V -5 Z"
         id="path6-4" />
    </marker>
    <marker
       style="overflow:visible"
       id="marker7-5"
       refX="0"
       refY="0"
       orient="auto"
       inkscape:stockid="TriangleOutS"
       inkscape:isstock="true"
       viewBox="0 0 2.1297632 2.462154"
       markerWidth="4.3250003"
       markerHeight="5"
       preserveAspectRatio="xMidYMid">
      <path
         transform="scale(0.2)"
         style="fill:context-stroke;fill-rule:evenodd;stroke:context-stroke;stroke-width:1pt"
         d="M 5.77,0 -2.88,5 V -5 Z"
         id="path7-03" />
    </marker>
    <marker
       style="overflow:visible"
       id="marker8-6"
       refX="0"
       refY="0"
       orient="auto"
       inkscape:stockid="TriangleOutS"
       inkscape:isstock="true"
       viewBox="0 0 2.1297632 2.462154"
       markerWidth="4.3250003"
       markerHeight="5"
       preserveAspectRatio="xMidYMid">
      <path
         transform="scale(0.2)"
         style="fill:context-stroke;fill-rule:evenodd;stroke:context-stroke;stroke-width:1pt"
         d="M 5.77,0 -2.88,5 V -5 Z"
         id="path8-1" />
    </marker>
    <marker
       style="overflow:visible"
       id="marker9"
       refX="0"
       refY="0"
       orient="auto"
       inkscape:stockid="TriangleOutS"
       inkscape:isstock="true"
       viewBox="0 0 2.1297632 2.462154"
       markerWidth="4.3250003"
       markerHeight="5"
       preserveAspectRatio="xMidYMid">
      <path
         transform="scale(0.2)"
         style="fill:context-stroke;fill-rule:evenodd;stroke:context-stroke;stroke-width:1pt"
         d="M 5.77,0 -2.88,5 V -5 Z"
         id="path9" />
    </marker>
    <marker
       style="overflow:visible"
       id="marker10"
       refX="0"
       refY="0"
       orient="auto"
       inkscape:stockid="TriangleOutS"
       inkscape:isstock="true"
       viewBox="0 0 2.1297632 2.462154"
       markerWidth="4.3250003"
       markerHeight="5"
       preserveAspectRatio="xMidYMid">
      <path
         transform="scale(0.2)"
         style="fill:context-stroke;fill-rule:evenodd;stroke:context-stroke;stroke-width:1pt"
         d="M 5.77,0 -2.88,5 V -5 Z"
         id="path10" />
    </marker>
    <marker
       style="overflow:visible"
       id="marker11"
       refX="0"
       refY="0"
       orient="auto"
       inkscape:stockid="TriangleOutS"
       inkscape:isstock="true"
       viewBox="0 0 2.1297632 2.462154"
       markerWidth="4.3250003"
       markerHeight="5"
       preserveAspectRatio="xMidYMid">
      <path
         transform="scale(0.2)"
         style="fill:context-stroke;fill-rule:evenodd;stroke:context-stroke;stroke-width:1pt"
         d="M 5.77,0 -2.88,5 V -5 Z"
         id="path11" />
    </marker>
    <marker
       style="overflow:visible"
       id="marker12"
       refX="0"
       refY="0"
       orient="auto"
       inkscape:stockid="TriangleOutS"
       inkscape:isstock="true"
       viewBox="0 0 2.1297632 2.462154"
       markerWidth="4.3250003"
       markerHeight="5"
       preserveAspectRatio="xMidYMid">
      <path
         transform="scale(0.2)"
         style="fill:context-stroke;fill-rule:evenodd;stroke:context-stroke;stroke-width:1pt"
         d="M 5.77,0 -2.88,5 V -5 Z"
         id="path12" />
    </marker>
    <marker
       style="overflow:visible"
       id="marker13"
       refX="0"
       refY="0"
       orient="auto"
       inkscape:stockid="TriangleOutS"
       inkscape:isstock="true"
       viewBox="0 0 2.1297632 2.462154"
       markerWidth="4.3250003"
       markerHeight="5"
       preserveAspectRatio="xMidYMid">
      <path
         transform="scale(0.2)"
         style="fill:context-stroke;fill-rule:evenodd;stroke:context-stroke;stroke-width:1pt"
         d="M 5.77,0 -2.88,5 V -5 Z"
         id="path13" />
    </marker>
    <marker
       style="overflow:visible"
       id="marker14"
       refX="0"
       refY="0"
       orient="auto"
       inkscape:stockid="TriangleOutS"
       inkscape:isstock="true"
       viewBox="0 0 2.1297632 2.462154"
       markerWidth="4.3250003"
       markerHeight="5"
       preserveAspectRatio="xMidYMid">
      <path
         transform="scale(0.2)"
         style="fill:context-stroke;fill-rule:evenodd;stroke:context-stroke;stroke-width:1pt"
         d="M 5.77,0 -2.88,5 V -5 Z"
         id="path14" />
    </marker>
    <marker
       style="overflow:visible"
       id="marker15"
       refX="0"
       refY="0"
       orient="auto"
       inkscape:stockid="TriangleOutS"
       inkscape:isstock="true"
       viewBox="0 0 2.1297632 2.462154"
       markerWidth="4.3250003"
       markerHeight="5"
       preserveAspectRatio="xMidYMid">
      <path
         transform="scale(0.2)"
         style="fill:context-stroke;fill-rule:evenodd;stroke:context-stroke;stroke-width:1pt"
         d="M 5.77,0 -2.88,5 V -5 Z"
         id="path15" />
    </marker>
    <marker
       style="overflow:visible"
       id="marker16"
       refX="0"
       refY="0"
       orient="auto"
       inkscape:stockid="TriangleOutS"
       inkscape:isstock="true"
       viewBox="0 0 2.1297632 2.462154"
       markerWidth="4.3250003"
       markerHeight="5"
       preserveAspectRatio="xMidYMid">
      <path
         transform="scale(0.2)"
         style="fill:context-stroke;fill-rule:evenodd;stroke:context-stroke;stroke-width:1pt"
         d="M 5.77,0 -2.88,5 V -5 Z"
         id="path16" />
    </marker>
    <marker
       style="overflow:visible"
       id="marker17"
       refX="0"
       refY="0"
       orient="auto"
       inkscape:stockid="TriangleOutS"
       inkscape:isstock="true"
       viewBox="0 0 2.1297632 2.462154"
       markerWidth="4.3250003"
       markerHeight="5"
       preserveAspectRatio="xMidYMid">
      <path
         transform="scale(0.2)"
         style="fill:context-stroke;fill-rule:evenodd;stroke:context-stroke;stroke-width:1pt"
         d="M 5.77,0 -2.88,5 V -5 Z"
         id="path17" />
    </marker>
    <marker
       style="overflow:visible"
       id="marker18"
       refX="0"
       refY="0"
       orient="auto"
       inkscape:stockid="TriangleOutS"
       inkscape:isstock="true"
       viewBox="0 0 2.1297632 2.462154"
       markerWidth="4.3250003"
       markerHeight="5"
       preserveAspectRatio="xMidYMid">
      <path
         transform="scale(0.2)"
         style="fill:context-stroke;fill-rule:evenodd;stroke:context-stroke;stroke-width:1pt"
         d="M 5.77,0 -2.88,5 V -5 Z"
         id="path18" />
    </marker>
    <marker
       style="overflow:visible"
       id="marker19"
       refX="0"
       refY="0"
       orient="auto"
       inkscape:stockid="TriangleOutS"
       inkscape:isstock="true"
       viewBox="0 0 2.1297632 2.462154"
       markerWidth="4.3250003"
       markerHeight="5"
       preserveAspectRatio="xMidYMid">
      <path
         transform="scale(0.2)"
         style="fill:context-stroke;fill-rule:evenodd;stroke:context-stroke;stroke-width:1pt"
         d="M 5.77,0 -2.88,5 V -5 Z"
         id="path19" />
    </marker>
    <marker
       style="overflow:visible"
       id="marker20"
       refX="0"
       refY="0"
       orient="auto"
       inkscape:stockid="TriangleOutS"
       inkscape:isstock="true"
       viewBox="0 0 2.1297632 2.462154"
       markerWidth="4.3250003"
       markerHeight="5"
       preserveAspectRatio="xMidYMid">
      <path
         transform="scale(0.2)"
         style="fill:context-stroke;fill-rule:evenodd;stroke:context-stroke;stroke-width:1pt"
         d="M 5.77,0 -2.88,5 V -5 Z"
         id="path20" />
    </marker>
    <marker
       style="overflow:visible"
       id="marker10717-0"
       refX="0"
       refY="0"
       orient="auto"
       inkscape:stockid="Arrow2Send"
       inkscape:isstock="true"
       viewBox="0 0 3.4652294 2.5981128"
       markerWidth="5"
       markerHeight="5"
       preserveAspectRatio="xMidYMid">
      <path
         transform="matrix(-0.3,0,0,-0.3,0.69,0)"
         d="M 8.7185878,4.0337352 -2.2072895,0.01601326 8.7185884,-4.0017078 c -1.7454984,2.3720609 -1.7354408,5.6174519 -6e-7,8.035443 z"
         style="fill:context-stroke;fill-rule:evenodd;stroke:context-stroke;stroke-width:0.625;stroke-linejoin:round"
         id="path10469-6" />
    </marker>
    <marker
       style="overflow:visible"
       id="marker21"
       refX="0"
       refY="0"
       orient="auto"
       inkscape:stockid="Arrow2Send"
       inkscape:isstock="true"
       viewBox="0 0 3.4652294 2.5981128"
       markerWidth="5"
       markerHeight="5"
       preserveAspectRatio="xMidYMid">
      <path
         transform="matrix(-0.3,0,0,-0.3,0.69,0)"
         d="M 8.7185878,4.0337352 -2.2072895,0.01601326 8.7185884,-4.0017078 c -1.7454984,2.3720609 -1.7354408,5.6174519 -6e-7,8.035443 z"
         style="fill:context-stroke;fill-rule:evenodd;stroke:context-stroke;stroke-width:0.625;stroke-linejoin:round"
         id="path21" />
    </marker>
    <marker
       style="overflow:visible"
       id="marker22"
       refX="0"
       refY="0"
       orient="auto"
       inkscape:stockid="Arrow2Send"
       inkscape:isstock="true"
       viewBox="0 0 3.4652294 2.5981128"
       markerWidth="5"
       markerHeight="5"
       preserveAspectRatio="xMidYMid">
      <path
         transform="matrix(-0.3,0,0,-0.3,0.69,0)"
         d="M 8.7185878,4.0337352 -2.2072895,0.01601326 8.7185884,-4.0017078 c -1.7454984,2.3720609 -1.7354408,5.6174519 -6e-7,8.035443 z"
         style="fill:context-stroke;fill-rule:evenodd;stroke:context-stroke;stroke-width:0.625;stroke-linejoin:round"
         id="path22" />
    </marker>
    <marker
       style="overflow:visible"
       id="marker23"
       refX="0"
       refY="0"
       orient="auto"
       inkscape:stockid="Arrow2Send"
       inkscape:isstock="true"
       viewBox="0 0 3.4652294 2.5981128"
       markerWidth="5"
       markerHeight="5"
       preserveAspectRatio="xMidYMid">
      <path
         transform="matrix(-0.3,0,0,-0.3,0.69,0)"
         d="M 8.7185878,4.0337352 -2.2072895,0.01601326 8.7185884,-4.0017078 c -1.7454984,2.3720609 -1.7354408,5.6174519 -6e-7,8.035443 z"
         style="fill:context-stroke;fill-rule:evenodd;stroke:context-stroke;stroke-width:0.625;stroke-linejoin:round"
         id="path23" />
    </marker>
    <clipPath
       id="clipPath911336">
      <rect
         style="fill:none;stroke:#0000ff;stroke-width:0.705556;stroke-linecap:round;stroke-linejoin:round;stroke-dasharray:none;paint-order:fill markers stroke"
         width="131.39999"
         height="37.149998"
         x="249.67999"
         y="557.34998"
         id="rect71999" />
    </clipPath>
    <g
       id="id-23050f39-5cfd-43ea-ba92-5cc9f3b6d487">
      <g
         id="id-498483b4-dc53-47bf-ac4b-661818315b05" />
      <g
         id="id-66af4855-aea1-4377-a35c-a11eec65a55a">
        <path
           d="m 1.578125,-7.125 c 0,-0.171875 0,-0.359375 -0.1875,-0.359375 -0.203125,0 -0.203125,0.1875 -0.203125,0.359375 v 9.265625 c 0,0.171875 0,0.359375 0.203125,0.359375 0.1875,0 0.1875,-0.1875 0.1875,-0.359375 z m 0,0"
           id="id-ce25a1f1-7c22-45b0-96e8-73bbdec55977" />
      </g>
      <g
         id="id-4b282537-53b1-41d3-ba06-5d4a18532ddd">
        <path
           d="M 2.71875,-2.328125 C 2.765625,-2.4375 2.765625,-2.46875 2.765625,-2.5 c 0,-0.015625 0,-0.046875 -0.046875,-0.15625 L 0.984375,-7.25 c -0.0625,-0.171875 -0.125,-0.234375 -0.234375,-0.234375 -0.109375,0 -0.203125,0.09375 -0.203125,0.203125 0,0.03125 0,0.046875 0.046875,0.15625 L 2.359375,-2.5 0.59375,2.109375 C 0.546875,2.21875 0.546875,2.25 0.546875,2.296875 0.546875,2.40625 0.640625,2.5 0.75,2.5 0.875,2.5 0.921875,2.390625 0.953125,2.296875 Z m 0,0"
           id="id-60e94498-ac60-4b3b-9fc8-fd6c77dd2b93" />
      </g>
      <g
         id="id-5db3927e-dce2-4d8d-8519-233e9341adab">
        <path
           d="M 7.203125,-0.3125 C 7.15625,-0.3125 7,-0.296875 6.96875,-0.296875 c -0.78125,0 -1.3125,-0.78125 -1.65625,-1.296875 -0.09375,-0.171875 -0.375,-0.578125 -0.484375,-0.75 0.25,-0.53125 0.90625,-1.765625 2.09375,-1.765625 0.078125,0 0.171875,0 0.28125,0.015625 0,-0.25 -0.015625,-0.265625 -0.03125,-0.28125 -0.078125,-0.015625 -0.21875,-0.03125 -0.3125,-0.03125 -1.265625,0 -2,1.21875 -2.25,1.71875 C 4.21875,-3.296875 4.078125,-3.515625 3.703125,-3.828125 3.09375,-4.359375 2.546875,-4.40625 2.296875,-4.40625 c -1.09375,0 -1.734375,1.109375 -1.734375,2.265625 0,1.109375 0.609375,2.25 1.703125,2.25 1.265625,0 2.015625,-1.21875 2.25,-1.71875 0.40625,0.609375 0.53125,0.828125 0.90625,1.140625 0.609375,0.53125 1.15625,0.578125 1.40625,0.578125 0.125,0 0.28125,-0.015625 0.375,-0.046875 z m -2.90625,-1.640625 c -0.234375,0.53125 -0.90625,1.78125 -2.09375,1.78125 -0.96875,0 -1.421875,-1.0625 -1.421875,-1.96875 C 0.78125,-3.125 1.328125,-4 2.15625,-4 c 0.796875,0 1.328125,0.78125 1.65625,1.296875 0.109375,0.171875 0.375,0.578125 0.484375,0.75 z m 0,0"
           id="id-432ec4a6-1609-4e80-b960-d0b977984295" />
      </g>
      <g
         id="id-82088f80-8b08-4fc9-97aa-dc63ab64bfc6" />
      <g
         id="id-3b3fd5f8-8251-4de8-93fd-253e1cc54311">
        <path
           d="m 4.5,-4.296875 c 0,-0.046875 -0.03125,-0.09375 -0.09375,-0.09375 -0.109375,0 -0.515625,0.390625 -0.671875,0.6875 C 3.515625,-4.25 3.125,-4.40625 2.796875,-4.40625 c -1.171875,0 -2.390625,1.46875 -2.390625,2.921875 0,0.96875 0.578125,1.59375 1.3125,1.59375 0.421875,0 0.8125,-0.234375 1.171875,-0.59375 -0.09375,0.34375 -0.421875,1.6875 -0.453125,1.78125 -0.078125,0.28125 -0.15625,0.3125 -0.71875,0.328125 -0.125,0 -0.21875,0 -0.21875,0.203125 0,0 0,0.109375 0.125,0.109375 0.3125,0 0.671875,-0.03125 1,-0.03125 0.328125,0 0.6875,0.03125 1.03125,0.03125 0.046875,0 0.171875,0 0.171875,-0.203125 C 3.828125,1.625 3.734375,1.625 3.5625,1.625 3.09375,1.625 3.09375,1.5625 3.09375,1.46875 3.09375,1.390625 3.109375,1.328125 3.125,1.25 Z m -2.75,4.1875 c -0.609375,0 -0.640625,-0.765625 -0.640625,-0.9375 0,-0.484375 0.28125,-1.5625 0.453125,-1.984375 0.3125,-0.734375 0.828125,-1.15625 1.234375,-1.15625 0.65625,0 0.796875,0.8125 0.796875,0.875 0,0.0625 -0.546875,2.25 -0.578125,2.28125 C 2.859375,-0.75 2.296875,-0.109375 1.75,-0.109375 Z m 0,0"
           id="id-2688464e-7c32-4049-bd91-b045ea89de5e" />
      </g>
      <g
         id="id-5c1a5107-ff3c-4db0-90ed-e9ac906215f2">
        <path
           d="M 0.453125,1.21875 C 0.375,1.5625 0.34375,1.625 -0.09375,1.625 c -0.109375,0 -0.21875,0 -0.21875,0.1875 0,0.078125 0.046875,0.125 0.125,0.125 0.265625,0 0.5625,-0.03125 0.828125,-0.03125 0.34375,0 0.671875,0.03125 1,0.03125 0.046875,0 0.171875,0 0.171875,-0.203125 C 1.8125,1.625 1.71875,1.625 1.578125,1.625 c -0.5,0 -0.5,-0.0625 -0.5,-0.15625 0,-0.125 0.421875,-1.75 0.484375,-2 0.125,0.296875 0.40625,0.640625 0.921875,0.640625 1.15625,0 2.40625,-1.453125 2.40625,-2.921875 0,-0.9375 -0.578125,-1.59375 -1.328125,-1.59375 -0.5,0 -0.984375,0.359375 -1.3125,0.75 -0.09375,-0.546875 -0.53125,-0.75 -0.890625,-0.75 -0.46875,0 -0.65625,0.390625 -0.734375,0.5625 C 0.4375,-3.5 0.3125,-2.90625 0.3125,-2.875 c 0,0.109375 0.09375,0.109375 0.109375,0.109375 0.109375,0 0.109375,-0.015625 0.171875,-0.234375 0.171875,-0.703125 0.375,-1.1875 0.734375,-1.1875 0.171875,0 0.3125,0.078125 0.3125,0.453125 0,0.234375 -0.03125,0.34375 -0.078125,0.515625 z m 1.75,-4.328125 C 2.265625,-3.375 2.546875,-3.65625 2.71875,-3.8125 c 0.359375,-0.296875 0.640625,-0.375 0.8125,-0.375 0.390625,0 0.640625,0.34375 0.640625,0.9375 0,0.59375 -0.328125,1.734375 -0.515625,2.109375 -0.34375,0.703125 -0.8125,1.03125 -1.1875,1.03125 C 1.8125,-0.109375 1.6875,-0.9375 1.6875,-1 c 0,-0.015625 0,-0.03125 0.03125,-0.15625 z m 0,0"
           id="id-19f2c6ca-d85a-42b5-b307-728596a5e1b5" />
      </g>
      <g
         id="id-434369f4-0f57-4774-978b-6974054fffc6">
        <path
           d="m 6.4375,-6.921875 c 0,-0.03125 -0.03125,-0.109375 -0.125,-0.109375 -0.046875,0 -0.046875,0.015625 -0.171875,0.15625 L 5.65625,-6.3125 c -0.25,-0.46875 -0.765625,-0.71875 -1.421875,-0.71875 -1.265625,0 -2.453125,1.15625 -2.453125,2.359375 0,0.796875 0.515625,1.265625 1.03125,1.40625 l 1.0625,0.28125 c 0.375,0.09375 0.921875,0.25 0.921875,1.0625 0,0.890625 -0.8125,1.828125 -1.796875,1.828125 -0.640625,0 -1.75,-0.21875 -1.75,-1.453125 0,-0.234375 0.0625,-0.484375 0.0625,-0.53125 0.015625,-0.046875 0.015625,-0.0625 0.015625,-0.078125 0,-0.09375 -0.0625,-0.109375 -0.109375,-0.109375 -0.046875,0 -0.078125,0.015625 -0.109375,0.046875 -0.03125,0.03125 -0.59375,2.3125 -0.59375,2.34375 0,0.046875 0.046875,0.09375 0.109375,0.09375 0.046875,0 0.0625,-0.015625 0.1875,-0.15625 L 1.296875,-0.5 c 0.421875,0.578125 1.109375,0.71875 1.6875,0.71875 1.359375,0 2.53125,-1.328125 2.53125,-2.5625 0,-0.6875 -0.34375,-1.03125 -0.484375,-1.171875 C 4.796875,-3.734375 4.640625,-3.78125 3.765625,-4 3.53125,-4.0625 3.1875,-4.171875 3.09375,-4.1875 2.828125,-4.28125 2.484375,-4.5625 2.484375,-5.09375 c 0,-0.8125 0.796875,-1.65625 1.75,-1.65625 0.8125,0 1.421875,0.4375 1.421875,1.546875 0,0.3125 -0.03125,0.5 -0.03125,0.5625 0,0 0,0.09375 0.109375,0.09375 0.109375,0 0.125,-0.03125 0.15625,-0.203125 z m 0,0"
           id="id-15f6bf2a-68ff-491a-ac22-1b4bd924466b" />
      </g>
      <g
         id="id-36898d1f-4f6a-4400-b6b5-ac8f38da3991">
        <path
           d="m 7.578125,-6.921875 c 0,-0.03125 -0.015625,-0.109375 -0.109375,-0.109375 -0.03125,0 -0.046875,0.015625 -0.15625,0.125 L 6.625,-6.140625 C 6.53125,-6.28125 6.078125,-7.03125 4.96875,-7.03125 2.734375,-7.03125 0.5,-4.828125 0.5,-2.515625 c 0,1.59375 1.109375,2.734375 2.71875,2.734375 0.4375,0 0.890625,-0.09375 1.25,-0.234375 0.5,-0.203125 0.6875,-0.40625 0.859375,-0.609375 0.09375,0.25 0.359375,0.609375 0.453125,0.609375 0.046875,0 0.078125,-0.03125 0.078125,-0.03125 C 5.875,-0.0625 5.96875,-0.453125 6.015625,-0.65625 l 0.1875,-0.765625 C 6.25,-1.59375 6.296875,-1.765625 6.34375,-1.9375 c 0.109375,-0.4375 0.109375,-0.46875 0.6875,-0.46875 0.046875,0 0.15625,-0.015625 0.15625,-0.203125 0,-0.078125 -0.046875,-0.109375 -0.125,-0.109375 -0.234375,0 -0.828125,0.03125 -1.046875,0.03125 -0.3125,0 -1.09375,-0.03125 -1.40625,-0.03125 -0.078125,0 -0.203125,0 -0.203125,0.203125 0,0.109375 0.078125,0.109375 0.296875,0.109375 0.015625,0 0.296875,0 0.53125,0.015625 0.265625,0.03125 0.3125,0.0625 0.3125,0.1875 0,0.09375 -0.109375,0.53125 -0.21875,0.90625 -0.28125,1.09375 -1.5625,1.203125 -1.921875,1.203125 -0.953125,0 -2,-0.5625 -2,-2.09375 0,-0.3125 0.09375,-1.953125 1.140625,-3.25 0.546875,-0.671875 1.515625,-1.28125 2.5,-1.28125 1.015625,0 1.609375,0.765625 1.609375,1.921875 0,0.40625 -0.03125,0.40625 -0.03125,0.515625 0,0.09375 0.109375,0.09375 0.140625,0.09375 0.125,0 0.125,-0.015625 0.1875,-0.203125 z m 0,0"
           id="id-15ae0158-a9f9-42f1-930d-c4100d1324b2" />
      </g>
      <g
         id="id-e74fec1e-064d-47ad-886e-0e6a6b519d75" />
      <g
         id="id-0702ad5f-3f99-483a-aa59-0b4e72a44826">
        <path
           d="m 12.625,13.953125 1.203125,-3.1875 h -0.25 c -0.390625,1.03125 -1.453125,1.71875 -2.59375,2.015625 -0.203125,0.04687 -1.1875,0.3125 -3.09375,0.3125 H 1.875 L 6.953125,7.140625 C 7.015625,7.0625 7.03125,7.03125 7.03125,6.984375 c 0,-0.03125 0,-0.0625 -0.0625,-0.15625 L 2.328125,0.484375 H 7.78125 c 1.34375,0 2.25,0.140625 2.34375,0.15625 0.53125,0.078125 1.40625,0.25 2.1875,0.75 0.25,0.15625 0.921875,0.609375 1.265625,1.40625 h 0.25 L 12.625,0 H 0.84375 c -0.234375,0 -0.25,0.015625 -0.28125,0.0625 0,0.03125 0,0.234375 0,0.34375 l 5.265625,7.203125 -5.15625,6.0625 C 0.5625,13.78125 0.5625,13.84375 0.5625,13.84375 c 0,0.109375 0.09375,0.109375 0.28125,0.109375 z m 0,0"
           id="id-4c77fec5-58de-409b-ae91-4457ce88a374" />
      </g>
      <g
         id="id-290365f3-c8a7-40cc-974c-1c49b0e8f2e3" />
      <g
         id="id-4e99d70a-9dcb-428e-8b6a-6bff8fc93384">
        <path
           d="M 3.0625,-4.359375 C 3.0625,-4.46875 2.96875,-4.625 2.78125,-4.625 c -0.203125,0 -0.390625,0.203125 -0.390625,0.390625 0,0.109375 0.078125,0.265625 0.28125,0.265625 0.1875,0 0.390625,-0.1875 0.390625,-0.390625 z M 1.578125,0.34375 C 1.46875,0.828125 1.09375,1.21875 0.6875,1.21875 c -0.09375,0 -0.171875,0 -0.25,-0.03125 0.171875,-0.09375 0.234375,-0.25 0.234375,-0.359375 0,-0.171875 -0.140625,-0.25 -0.28125,-0.25 C 0.1875,0.578125 0,0.765625 0,0.984375 c 0,0.265625 0.265625,0.4375 0.6875,0.4375 0.421875,0 1.234375,-0.25 1.453125,-1.09375 l 0.625,-2.5 c 0.015625,-0.078125 0.03125,-0.140625 0.03125,-0.25 0,-0.375 -0.328125,-0.65625 -0.734375,-0.65625 -0.78125,0 -1.21875,0.96875 -1.21875,1.078125 0,0.078125 0.09375,0.078125 0.109375,0.078125 0.078125,0 0.09375,-0.015625 0.140625,-0.125 C 1.265625,-2.453125 1.625,-2.875 2.03125,-2.875 c 0.171875,0 0.234375,0.109375 0.234375,0.34375 0,0.078125 0,0.171875 -0.015625,0.203125 z m 0,0"
           id="id-b3b098e6-0e7c-4804-9a7c-f746fe62101b" />
      </g>
      <g
         id="id-0df61bae-862b-4686-9bd5-b882806c1cd7" />
      <g
         id="id-732afc35-e741-458d-97cd-0be6bf4e3d3e">
        <path
           d="M 2.5,-6.921875 1.15625,-5.5625 1.328125,-5.390625 2.5,-6.40625 3.640625,-5.390625 3.8125,-5.5625 Z m 0,0"
           id="id-72367ee3-7e90-40d5-ad2a-2a073fb2c589" />
      </g>
      <g
         id="id-78db99ec-dc9f-4f5a-8e77-d53917f6809f" />
      <g
         id="id-424c56a3-0a0e-4869-a743-900a15cb3cea">
        <path
           d="m 5.1875,-1.578125 c 0.109375,0 0.28125,0 0.28125,-0.15625 0,-0.1875 -0.171875,-0.1875 -0.28125,-0.1875 H 1.03125 c -0.109375,0 -0.28125,0 -0.28125,0.171875 0,0.171875 0.15625,0.171875 0.28125,0.171875 z m 0,0"
           id="id-37622fe0-9ab0-405c-b55f-ecf78c9c54df" />
      </g>
    </g>
  </defs>
  <g
     inkscape:label="Layer 1"
     inkscape:groupmode="layer"
     id="layer1"
     transform="translate(2.6163441,-88.869452)">
    <text
       xml:space="preserve"
       style="font-size:11.2889px;line-height:1.25;font-family:Coolvetica;-inkscape-font-specification:Coolvetica;text-align:justify;writing-mode:lr-tb;white-space:pre;inline-size:197.248;display:inline;fill:#000000;stroke-width:0.647999;stroke-linecap:round;stroke-linejoin:round;paint-order:fill markers stroke"
       x="26.300005"
       y="445.89996"
       id="text20934"
       transform="translate(-28.962281,-340.24213)"><tspan
         x="26.300005"
         y="445.89996"
         id="tspan34"><tspan
           dx="0 0 0 0 2.3784325 0 2.3784325 0 0 0 0 0 0 0 0 0 0 0 2.3784363"
           style="stroke-width:0.648;stroke-linecap:butt"
           id="tspan32">For a spherically symmetric </tspan><tspan
           dx="2.3784287"
           style="stroke-width:0.648;stroke-linecap:butt"
           id="tspan33">Hamiltonian, </tspan></tspan><tspan
         x="26.300005"
         y="460.01107"
         id="tspan37"><tspan
           dx="0 0 0 0 0 0 0 0 0 0 0 0 0 0 5.0094481"
           style="stroke-width:0.648;stroke-linecap:butt"
           id="tspan35">ferromagnetic state </tspan><tspan
           dx="5.0094481 0 0 0 5.0094481 0 0 5.0094404 0 5.0094481"
           style="stroke-width:0.648;stroke-linecap:butt"
           id="tspan36">can be a ground </tspan></tspan><tspan
         x="26.300005"
         y="474.12219"
         id="tspan40"><tspan
           dx="0 0 0 0 0 0 0 6.4905443 0 0 0 6.4905462"
           style="stroke-width:0.648;stroke-linecap:butt"
           id="tspan38">state. Can we </tspan><tspan
           dx="6.4905424 0 0 0 0 0 0 6.4905424 0 0 0 0 0 0 6.49055"
           style="stroke-width:0.648;stroke-linecap:butt"
           id="tspan39">obtain higher energy </tspan></tspan><tspan
         x="26.300005"
         y="488.2333"
         id="tspan43"><tspan
           style="stroke-width:0.648;stroke-linecap:butt"
           id="tspan41">eigenstates </tspan><tspan
           style="stroke-width:0.648;stroke-linecap:butt"
           id="tspan42">from local spin excitations?</tspan></tspan></text>
    <path
       style="display:inline;fill:none;stroke:#b50000;stroke-width:1.05833;stroke-linecap:round;stroke-linejoin:round;stroke-dasharray:none;stroke-opacity:1;marker-end:url(#TriangleOutS-6-2);paint-order:fill markers stroke"
       d="m 102.60527,172.37166 v -9.2875"
       id="path34485"
       sodipodi:nodetypes="cc" />
    <path
       style="display:inline;fill:none;stroke:#b50000;stroke-width:1.05833;stroke-linecap:round;stroke-linejoin:round;stroke-dasharray:none;stroke-opacity:1;marker-end:url(#TriangleOutS-6-2);paint-order:fill markers stroke"
       d="m 115.74527,172.37166 v -9.2875"
       id="path34487"
       sodipodi:nodetypes="cc" />
    <path
       style="display:inline;fill:none;stroke:#b50000;stroke-width:1.05833;stroke-linecap:round;stroke-linejoin:round;stroke-dasharray:none;stroke-opacity:1;marker-end:url(#TriangleOutS-6-2);paint-order:fill markers stroke"
       d="m 128.88528,172.37166 v -9.2875"
       id="path34489"
       sodipodi:nodetypes="cc" />
    <path
       style="display:inline;fill:none;stroke:#b50000;stroke-width:1.05833;stroke-linecap:round;stroke-linejoin:round;stroke-dasharray:none;stroke-opacity:1;marker-end:url(#TriangleOutS-6-2);paint-order:fill markers stroke"
       d="m 142.02528,172.37166 v -9.2875"
       id="path34493"
       sodipodi:nodetypes="cc" />
    <path
       style="display:inline;fill:none;stroke:#b50000;stroke-width:1.05833;stroke-linecap:round;stroke-linejoin:round;stroke-dasharray:none;stroke-opacity:1;marker-end:url(#TriangleOutS-6-2);paint-order:fill markers stroke"
       d="m 155.16527,172.37166 v -9.2875"
       id="path34495"
       sodipodi:nodetypes="cc" />
    <path
       style="display:inline;fill:none;stroke:#b50000;stroke-width:1.05833;stroke-linecap:round;stroke-linejoin:round;stroke-dasharray:none;stroke-opacity:1;marker-end:url(#TriangleOutS-6-2);paint-order:fill markers stroke"
       d="m 168.30527,172.37166 v -9.2875"
       id="path34497"
       sodipodi:nodetypes="cc" />
    <path
       style="display:inline;fill:none;stroke:#b50000;stroke-width:1.05833;stroke-linecap:round;stroke-linejoin:round;stroke-dasharray:none;stroke-opacity:1;marker-end:url(#TriangleOutS-6-2);paint-order:fill markers stroke"
       d="m 181.44527,172.37166 v -9.2875"
       id="path34499"
       sodipodi:nodetypes="cc" />
    <text
       xml:space="preserve"
       style="font-size:11.2889px;line-height:1.25;font-family:Coolvetica;-inkscape-font-specification:Coolvetica;text-align:justify;writing-mode:lr-tb;display:inline;fill:#000000;stroke:none;stroke-width:1.05833;stroke-linecap:round;stroke-linejoin:round;stroke-dasharray:none;paint-order:fill markers stroke"
       x="-2.6840484"
       y="172.11203"
       id="text34557"><tspan
         sodipodi:role="line"
         style="stroke:none;stroke-width:1.05833"
         x="-2.6840484"
         y="172.11203"
         id="tspan34609">Ground State:</tspan></text>
    <text
       xml:space="preserve"
       style="font-size:11.2889px;line-height:1.25;font-family:Coolvetica;-inkscape-font-specification:Coolvetica;text-align:justify;writing-mode:lr-tb;display:inline;fill:#000000;stroke:none;stroke-width:1.05833;stroke-linecap:round;stroke-linejoin:round;stroke-dasharray:none;paint-order:fill markers stroke"
       x="-2.7743595"
       y="190.7999"
       id="text34613"><tspan
         sodipodi:role="line"
         style="stroke-width:1.05833"
         x="-2.7743595"
         y="190.7999"
         id="tspan34615">Excitation at site 2:</tspan></text>
    <path
       style="display:inline;fill:none;stroke:#b50000;stroke-width:1.05833;stroke-linecap:round;stroke-linejoin:round;stroke-dasharray:none;stroke-opacity:1;marker-end:url(#TriangleOutS-6-2);paint-order:fill markers stroke"
       d="m 102.60527,190.94667 v -9.2875"
       id="path34617"
       sodipodi:nodetypes="cc" />
    <path
       style="display:inline;fill:none;stroke:#005c94;stroke-width:1.05833;stroke-linecap:round;stroke-linejoin:round;stroke-dasharray:none;marker-end:url(#TriangleOutS-6-2);paint-order:fill markers stroke"
       d="m 115.74526,179.13555 v 9.2875"
       id="path34619"
       sodipodi:nodetypes="cc" />
    <path
       style="display:inline;fill:none;stroke:#b50000;stroke-width:1.05833;stroke-linecap:round;stroke-linejoin:round;stroke-dasharray:none;stroke-opacity:1;marker-end:url(#TriangleOutS-6-2);paint-order:fill markers stroke"
       d="m 128.88526,190.94667 v -9.2875"
       id="path34621"
       sodipodi:nodetypes="cc" />
    <path
       style="display:inline;fill:none;stroke:#b50000;stroke-width:1.05833;stroke-linecap:round;stroke-linejoin:round;stroke-dasharray:none;stroke-opacity:1;marker-end:url(#TriangleOutS-6-2);paint-order:fill markers stroke"
       d="m 142.02526,190.94667 v -9.2875"
       id="path34623"
       sodipodi:nodetypes="cc" />
    <path
       style="display:inline;fill:none;stroke:#b50000;stroke-width:1.05833;stroke-linecap:round;stroke-linejoin:round;stroke-dasharray:none;stroke-opacity:1;marker-end:url(#TriangleOutS-6-2);paint-order:fill markers stroke"
       d="m 155.16527,190.94667 v -9.2875"
       id="path34625"
       sodipodi:nodetypes="cc" />
    <path
       style="display:inline;fill:none;stroke:#b50000;stroke-width:1.05833;stroke-linecap:round;stroke-linejoin:round;stroke-dasharray:none;stroke-opacity:1;marker-end:url(#TriangleOutS-6-2);paint-order:fill markers stroke"
       d="m 168.30527,190.94667 v -9.2875"
       id="path34627"
       sodipodi:nodetypes="cc" />
    <path
       style="display:inline;fill:none;stroke:#b50000;stroke-width:1.05833;stroke-linecap:round;stroke-linejoin:round;stroke-dasharray:none;stroke-opacity:1;marker-end:url(#TriangleOutS-6-2);paint-order:fill markers stroke"
       d="m 181.44526,190.94667 v -9.2875"
       id="path34629"
       sodipodi:nodetypes="cc" />
    <text
       xml:space="preserve"
       style="font-size:11.2889px;line-height:1.25;font-family:Coolvetica;-inkscape-font-specification:Coolvetica;text-align:justify;writing-mode:lr-tb;display:inline;fill:#000000;stroke:none;stroke-width:1.05833;stroke-linecap:round;stroke-linejoin:round;stroke-dasharray:none;paint-order:fill markers stroke"
       x="-2.7743595"
       y="209.26202"
       id="text34743"><tspan
         sodipodi:role="line"
         style="stroke-width:1.05833"
         x="-2.7743595"
         y="209.26202"
         id="tspan34741">Excitation at site 7:</tspan></text>
    <path
       style="display:inline;fill:none;stroke:#b50000;stroke-width:1.05833;stroke-linecap:round;stroke-linejoin:round;stroke-dasharray:none;stroke-opacity:1;marker-end:url(#TriangleOutS-6-2);paint-order:fill markers stroke"
       d="m 102.60527,209.52166 v -9.2875"
       id="path34747"
       sodipodi:nodetypes="cc" />
    <path
       style="display:inline;fill:none;stroke:#b50000;stroke-width:1.05833;stroke-linecap:round;stroke-linejoin:round;stroke-dasharray:none;stroke-opacity:1;marker-end:url(#TriangleOutS-6-2);paint-order:fill markers stroke"
       d="m 115.74526,209.52166 v -9.2875"
       id="path34749"
       sodipodi:nodetypes="cc" />
    <path
       style="display:inline;fill:none;stroke:#b50000;stroke-width:1.05833;stroke-linecap:round;stroke-linejoin:round;stroke-dasharray:none;stroke-opacity:1;marker-end:url(#TriangleOutS-6-2);paint-order:fill markers stroke"
       d="m 128.88526,209.52166 v -9.2875"
       id="path34751"
       sodipodi:nodetypes="cc" />
    <path
       style="display:inline;fill:none;stroke:#b50000;stroke-width:1.05833;stroke-linecap:round;stroke-linejoin:round;stroke-dasharray:none;stroke-opacity:1;marker-end:url(#TriangleOutS-6-2);paint-order:fill markers stroke"
       d="m 142.02528,209.52166 v -9.2875"
       id="path34753"
       sodipodi:nodetypes="cc" />
    <path
       style="display:inline;fill:none;stroke:#b50000;stroke-width:1.05833;stroke-linecap:round;stroke-linejoin:round;stroke-dasharray:none;stroke-opacity:1;marker-end:url(#TriangleOutS-6-2);paint-order:fill markers stroke"
       d="m 155.16528,209.52166 v -9.2875"
       id="path34755"
       sodipodi:nodetypes="cc" />
    <path
       style="display:inline;fill:none;stroke:#b50000;stroke-width:1.05833;stroke-linecap:round;stroke-linejoin:round;stroke-dasharray:none;stroke-opacity:1;marker-end:url(#TriangleOutS-6-2);paint-order:fill markers stroke"
       d="m 168.30527,209.52166 v -9.2875"
       id="path34757"
       sodipodi:nodetypes="cc" />
    <path
       style="display:inline;fill:none;stroke:#005c94;stroke-width:1.05833;stroke-linecap:round;stroke-linejoin:round;stroke-dasharray:none;marker-end:url(#TriangleOutS-6-2);paint-order:fill markers stroke"
       d="m 181.44527,197.71054 v 9.2875"
       id="path34759"
       sodipodi:nodetypes="cc" />
    <path
       style="display:inline;fill:none;stroke:#000000;stroke-width:0.705556;stroke-linecap:round;stroke-linejoin:round;stroke-dasharray:none;marker-end:url(#marker10717-0);paint-order:fill markers stroke"
       d="M 246.2321,135.22169 V 98.0717"
       id="path20993" />
    <path
       style="display:inline;fill:none;stroke:#000000;stroke-width:0.705556;stroke-linecap:round;stroke-linejoin:round;stroke-dasharray:none;marker-end:url(#marker10717-0);paint-order:fill markers stroke"
       d="M 246.2321,116.6467 H 377.63209"
       id="path27091" />
    <text
       xml:space="preserve"
       style="font-size:11.2889px;line-height:1.25;font-family:Coolvetica;-inkscape-font-specification:Coolvetica;text-align:justify;writing-mode:lr-tb;white-space:pre;inline-size:210.239;display:inline;fill:#000000;stroke:none;stroke-width:0.705556;stroke-linecap:round;stroke-linejoin:round;stroke-dasharray:none;paint-order:fill markers stroke"
       x="236.53999"
       y="501.625"
       id="text30443"
       transform="translate(-28.813791,-347.82833)"><tspan
         x="236.53999"
         y="501.625"
         id="tspan46"><tspan
           dx="0 0 0 7.1222439 0 0 0 0 0 0 0 0 0 0 0 7.122241"
           style="stroke-linecap:butt"
           id="tspan44">If homogeneous superposition, </tspan><tspan
           dx="7.1222334 0 0 0 0 7.1222486"
           style="stroke-linecap:butt"
           id="tspan45">acts as </tspan></tspan><tspan
         x="236.53999"
         y="515.73611"
         id="tspan49"><tspan
           dx="0 0 0 0 0 0 0 7.751605 0 0 0 0 0 0 0 0 7.751605"
           style="stroke-linecap:butt"
           id="tspan47">ladder operator which </tspan><tspan
           dx="7.7515974 0 0 0 0 0 0 0 0 7.7516127"
           style="stroke-linecap:butt"
           id="tspan48">commutes with </tspan></tspan><tspan
         x="236.53999"
         y="529.84723"
         id="tspan51"><tspan
           style="stroke-linecap:butt"
           id="tspan50">Hamiltonian. No change in energy. </tspan></tspan></text>
    <text
       xml:space="preserve"
       style="font-size:11.2889px;line-height:1.25;font-family:Coolvetica;-inkscape-font-specification:Coolvetica;text-align:justify;writing-mode:lr-tb;display:inline;fill:#000000;stroke:none;stroke-width:0.705556;stroke-linecap:round;stroke-linejoin:round;stroke-dasharray:none;paint-order:fill markers stroke"
       x="-135.22168"
       y="227.6963"
       id="text30447"
       transform="rotate(-90)"><tspan
         sodipodi:role="line"
         id="tspan30445"
         style="stroke-width:0.705556"
         x="-135.22168"
         y="227.6963">Superpos.</tspan><tspan
         sodipodi:role="line"
         style="stroke-width:0.705556"
         x="-135.22168"
         y="241.80743"
         id="tspan30469"> Coeff.</tspan></text>
    <text
       xml:space="preserve"
       style="font-size:11.2889px;line-height:1.25;font-family:Coolvetica;-inkscape-font-specification:Coolvetica;text-align:justify;writing-mode:lr-tb;display:inline;fill:#000000;stroke:none;stroke-width:0.705556;stroke-linecap:round;stroke-linejoin:round;stroke-dasharray:none;paint-order:fill markers stroke"
       x="325.07211"
       y="135.22168"
       id="text30451"><tspan
         sodipodi:role="line"
         id="tspan30449"
         style="stroke-width:0.705556"
         x="325.07211"
         y="135.22168">Excited site</tspan></text>
    <path
       style="display:inline;fill:none;stroke:#ff6600;stroke-width:0.705556;stroke-linecap:round;stroke-linejoin:round;stroke-dasharray:none;paint-order:fill markers stroke"
       d="M 246.2321,105.36164 H 377.63209"
       id="path30473" />
    <path
       style="display:inline;fill:none;stroke:#000000;stroke-width:0.705556;stroke-linecap:round;stroke-linejoin:round;stroke-dasharray:none;marker-end:url(#marker10717-0);paint-order:fill markers stroke"
       d="M 246.2321,228.09668 V 190.94669"
       id="path31657" />
    <path
       style="display:inline;fill:none;stroke:#000000;stroke-width:0.705556;stroke-linecap:round;stroke-linejoin:round;stroke-dasharray:none;marker-end:url(#marker10717-0);paint-order:fill markers stroke"
       d="M 246.2321,209.52169 H 377.63209"
       id="path31659" />
    <text
       xml:space="preserve"
       style="font-size:11.2889px;line-height:1.25;font-family:Coolvetica;-inkscape-font-specification:Coolvetica;text-align:justify;writing-mode:lr-tb;white-space:pre;inline-size:210.239;display:inline;fill:#000000;stroke:none;stroke-width:0.705556;stroke-linecap:round;stroke-linejoin:round;stroke-dasharray:none;paint-order:fill markers stroke"
       x="236.53999"
       y="501.625"
       id="text31663"
       transform="translate(-28.813791,-254.95334)"><tspan
         x="236.53999"
         y="501.625"
         id="tspan53"><tspan
           dx="0 0 0 8.5155039 0 0 8.5155039 0 0 0 0 0 0 8.5155058 0 0 0 0 0 0 8.5154982 0 0 0 0 0 0 8.5154982"
           style="stroke-linecap:butt"
           id="tspan52">If we choose wisely (Bethe Ansatz), </tspan></tspan><tspan
         x="236.53999"
         y="515.73611"
         id="tspan56"><tspan
           dx="0 0 0 0 0 0 0 0 0.68980336 0 0 0 0 0 0 0 0 0 0 0.68980718 0 0 0.68979955 0 0 0 0 0 0 0.68979955 0 0 0 0 0 0.68979955"
           style="stroke-linecap:butt"
           id="tspan54">becomes eigenstate of energy given by </tspan><tspan
           dx="0.68979955"
           style="stroke-linecap:butt"
           id="tspan55">free </tspan></tspan><tspan
         x="236.53999"
         y="529.84723"
         id="tspan58"><tspan
           style="stroke-linecap:butt"
           id="tspan57">parameter (momentum). </tspan></tspan></text>
    <path
       style="display:inline;fill:none;stroke:#ff6600;stroke-width:0.705556;stroke-linecap:round;stroke-linejoin:round;stroke-dasharray:none;paint-order:fill markers stroke"
       d="m 249.68,562.916 c 1.51,0.647 3.021,1.48 4.531,2.464 1.51,0.984 3.021,2.12 4.531,3.359 1.51,1.239 3.021,2.582 4.531,3.97 1.51,1.389 3.021,2.823 4.531,4.243 1.51,1.42 3.021,2.825 4.531,4.156 1.511,1.331 3.021,2.587 4.531,3.715 1.511,1.129 3.021,2.129 4.531,2.96 1.511,0.831 3.021,1.49 4.531,1.952 1.511,0.462 3.021,0.725 4.531,0.779 1.511,0.055 3.021,-0.101 4.531,-0.46 1.511,-0.358 3.021,-0.92 4.531,-1.66 1.511,-0.74 3.021,-1.66 4.531,-2.719 1.511,-1.06 3.021,-2.259 4.531,-3.548 1.511,-1.289 3.021,-2.666 4.531,-4.074 1.511,-1.409 3.021,-2.847 4.532,-4.256 1.51,-1.408 3.02,-2.785 4.531,-4.074 1.51,-1.289 3.02,-2.488 4.531,-3.548 1.51,-1.059 3.02,-1.979 4.531,-2.719 1.51,-0.741 3.02,-1.302 4.531,-1.66 1.51,-0.359 3.02,-0.514 4.531,-0.461 1.51,0.054 3.02,0.318 4.531,0.78 1.51,0.461 3.02,1.122 4.531,1.952 1.51,0.83 3.02,1.831 4.531,2.96 1.51,1.128 3.02,2.384 4.531,3.715 1.51,1.331 3.02,2.736 4.531,4.156 1.51,1.42 3.021,2.854 4.531,4.243 1.51,1.388 3.021,2.73 4.531,3.97 1.51,1.239 3.021,2.374 4.531,3.359 1.51,0.985 3.021,1.817 4.531,2.464"
       title="cos(pi/10*(x-1/2)*3)"
       clip-path="url(#clipPath911336)"
       id="path72402"
       transform="translate(-3.447891,-365.49011)" />
    <text
       xml:space="preserve"
       style="font-size:11.2889px;line-height:1.25;font-family:Coolvetica;-inkscape-font-specification:Coolvetica;text-align:justify;writing-mode:lr-tb;white-space:pre;inline-size:197.168;display:inline;fill:#000000;fill-opacity:1;stroke:none;stroke-width:0.705556;stroke-linecap:round;stroke-linejoin:round;stroke-dasharray:none;paint-order:fill markers stroke"
       x="26.232271"
       y="541.56897"
       id="text93237"
       transform="translate(-28.814719,-273.52832)"><tspan
         x="26.232271"
         y="541.56897"
         id="tspan60"><tspan
           dx="0 0 0 0 0 5.9733057 0 0 0 0 0 0 0 0 5.9733076 0 0 0 5.9733076 0 0 0 5.9733076 0 0 0 0 0 5.9733076"
           style="stroke-linecap:butt"
           id="tspan59">Same argument for any Dicke State </tspan></tspan><tspan
         x="26.232271"
         y="555.68011"
         id="tspan62"><tspan
           style="stroke-linecap:butt"
           id="tspan61">(ladder op. acts on Ground State).</tspan></tspan></text>
    <g
       transform="matrix(1.41111,0,0,1.41111,41.599425,220.93616)"
       ns29:version="1.8.2"
       ns29:texconverter="pdflatex"
       ns29:pdfconverter="inkscape"
       ns29:text="$$|q\\rangle \\propto \\sum_j p_j \\hat{S}_j^- |G\\rangle$$"
       ns29:preamble="/usr/share/inkscape/extensions/textext/default_packages.tex"
       ns29:scale="4.0"
       ns29:alignment="bottom left"
       ns29:stroke-to-path="0"
       ns29:inkscapeversion="1.2.2"
       ns29:jacobian_sqrt="1.41111"
       id="g896721"
       style="display:inline;stroke-linecap:butt;stroke-linejoin:round">
      <defs
         id="id-13fe7555-7059-41e8-8e89-22028acdc732">
        <g
           id="g44">
          <g
             id="g27" />
          <g
             id="g28">
            <path
               d="m 1.578125,-7.125 c 0,-0.171875 0,-0.359375 -0.1875,-0.359375 -0.203125,0 -0.203125,0.1875 -0.203125,0.359375 v 9.265625 c 0,0.171875 0,0.359375 0.203125,0.359375 0.1875,0 0.1875,-0.1875 0.1875,-0.359375 z m 0,0"
               id="path27" />
          </g>
          <g
             id="g29">
            <path
               d="M 2.71875,-2.328125 C 2.765625,-2.4375 2.765625,-2.46875 2.765625,-2.5 c 0,-0.015625 0,-0.046875 -0.046875,-0.15625 L 0.984375,-7.25 c -0.0625,-0.171875 -0.125,-0.234375 -0.234375,-0.234375 -0.109375,0 -0.203125,0.09375 -0.203125,0.203125 0,0.03125 0,0.046875 0.046875,0.15625 L 2.359375,-2.5 0.59375,2.109375 C 0.546875,2.21875 0.546875,2.25 0.546875,2.296875 0.546875,2.40625 0.640625,2.5 0.75,2.5 0.875,2.5 0.921875,2.390625 0.953125,2.296875 Z m 0,0"
               id="path28" />
          </g>
          <g
             id="g30">
            <path
               d="M 7.203125,-0.3125 C 7.15625,-0.3125 7,-0.296875 6.96875,-0.296875 c -0.78125,0 -1.3125,-0.78125 -1.65625,-1.296875 -0.09375,-0.171875 -0.375,-0.578125 -0.484375,-0.75 0.25,-0.53125 0.90625,-1.765625 2.09375,-1.765625 0.078125,0 0.171875,0 0.28125,0.015625 0,-0.25 -0.015625,-0.265625 -0.03125,-0.28125 -0.078125,-0.015625 -0.21875,-0.03125 -0.3125,-0.03125 -1.265625,0 -2,1.21875 -2.25,1.71875 C 4.21875,-3.296875 4.078125,-3.515625 3.703125,-3.828125 3.09375,-4.359375 2.546875,-4.40625 2.296875,-4.40625 c -1.09375,0 -1.734375,1.109375 -1.734375,2.265625 0,1.109375 0.609375,2.25 1.703125,2.25 1.265625,0 2.015625,-1.21875 2.25,-1.71875 0.40625,0.609375 0.53125,0.828125 0.90625,1.140625 0.609375,0.53125 1.15625,0.578125 1.40625,0.578125 0.125,0 0.28125,-0.015625 0.375,-0.046875 z m -2.90625,-1.640625 c -0.234375,0.53125 -0.90625,1.78125 -2.09375,1.78125 -0.96875,0 -1.421875,-1.0625 -1.421875,-1.96875 C 0.78125,-3.125 1.328125,-4 2.15625,-4 c 0.796875,0 1.328125,0.78125 1.65625,1.296875 0.109375,0.171875 0.375,0.578125 0.484375,0.75 z m 0,0"
               id="path29" />
          </g>
          <g
             id="g31" />
          <g
             id="g32">
            <path
               d="m 4.5,-4.296875 c 0,-0.046875 -0.03125,-0.09375 -0.09375,-0.09375 -0.109375,0 -0.515625,0.390625 -0.671875,0.6875 C 3.515625,-4.25 3.125,-4.40625 2.796875,-4.40625 c -1.171875,0 -2.390625,1.46875 -2.390625,2.921875 0,0.96875 0.578125,1.59375 1.3125,1.59375 0.421875,0 0.8125,-0.234375 1.171875,-0.59375 -0.09375,0.34375 -0.421875,1.6875 -0.453125,1.78125 -0.078125,0.28125 -0.15625,0.3125 -0.71875,0.328125 -0.125,0 -0.21875,0 -0.21875,0.203125 0,0 0,0.109375 0.125,0.109375 0.3125,0 0.671875,-0.03125 1,-0.03125 0.328125,0 0.6875,0.03125 1.03125,0.03125 0.046875,0 0.171875,0 0.171875,-0.203125 C 3.828125,1.625 3.734375,1.625 3.5625,1.625 3.09375,1.625 3.09375,1.5625 3.09375,1.46875 3.09375,1.390625 3.109375,1.328125 3.125,1.25 Z m -2.75,4.1875 c -0.609375,0 -0.640625,-0.765625 -0.640625,-0.9375 0,-0.484375 0.28125,-1.5625 0.453125,-1.984375 0.3125,-0.734375 0.828125,-1.15625 1.234375,-1.15625 0.65625,0 0.796875,0.8125 0.796875,0.875 0,0.0625 -0.546875,2.25 -0.578125,2.28125 C 2.859375,-0.75 2.296875,-0.109375 1.75,-0.109375 Z m 0,0"
               id="path31" />
          </g>
          <g
             id="g33">
            <path
               d="M 0.453125,1.21875 C 0.375,1.5625 0.34375,1.625 -0.09375,1.625 c -0.109375,0 -0.21875,0 -0.21875,0.1875 0,0.078125 0.046875,0.125 0.125,0.125 0.265625,0 0.5625,-0.03125 0.828125,-0.03125 0.34375,0 0.671875,0.03125 1,0.03125 0.046875,0 0.171875,0 0.171875,-0.203125 C 1.8125,1.625 1.71875,1.625 1.578125,1.625 c -0.5,0 -0.5,-0.0625 -0.5,-0.15625 0,-0.125 0.421875,-1.75 0.484375,-2 0.125,0.296875 0.40625,0.640625 0.921875,0.640625 1.15625,0 2.40625,-1.453125 2.40625,-2.921875 0,-0.9375 -0.578125,-1.59375 -1.328125,-1.59375 -0.5,0 -0.984375,0.359375 -1.3125,0.75 -0.09375,-0.546875 -0.53125,-0.75 -0.890625,-0.75 -0.46875,0 -0.65625,0.390625 -0.734375,0.5625 C 0.4375,-3.5 0.3125,-2.90625 0.3125,-2.875 c 0,0.109375 0.09375,0.109375 0.109375,0.109375 0.109375,0 0.109375,-0.015625 0.171875,-0.234375 0.171875,-0.703125 0.375,-1.1875 0.734375,-1.1875 0.171875,0 0.3125,0.078125 0.3125,0.453125 0,0.234375 -0.03125,0.34375 -0.078125,0.515625 z m 1.75,-4.328125 C 2.265625,-3.375 2.546875,-3.65625 2.71875,-3.8125 c 0.359375,-0.296875 0.640625,-0.375 0.8125,-0.375 0.390625,0 0.640625,0.34375 0.640625,0.9375 0,0.59375 -0.328125,1.734375 -0.515625,2.109375 -0.34375,0.703125 -0.8125,1.03125 -1.1875,1.03125 C 1.8125,-0.109375 1.6875,-0.9375 1.6875,-1 c 0,-0.015625 0,-0.03125 0.03125,-0.15625 z m 0,0"
               id="path32" />
          </g>
          <g
             id="g34">
            <path
               d="m 6.4375,-6.921875 c 0,-0.03125 -0.03125,-0.109375 -0.125,-0.109375 -0.046875,0 -0.046875,0.015625 -0.171875,0.15625 L 5.65625,-6.3125 c -0.25,-0.46875 -0.765625,-0.71875 -1.421875,-0.71875 -1.265625,0 -2.453125,1.15625 -2.453125,2.359375 0,0.796875 0.515625,1.265625 1.03125,1.40625 l 1.0625,0.28125 c 0.375,0.09375 0.921875,0.25 0.921875,1.0625 0,0.890625 -0.8125,1.828125 -1.796875,1.828125 -0.640625,0 -1.75,-0.21875 -1.75,-1.453125 0,-0.234375 0.0625,-0.484375 0.0625,-0.53125 0.015625,-0.046875 0.015625,-0.0625 0.015625,-0.078125 0,-0.09375 -0.0625,-0.109375 -0.109375,-0.109375 -0.046875,0 -0.078125,0.015625 -0.109375,0.046875 -0.03125,0.03125 -0.59375,2.3125 -0.59375,2.34375 0,0.046875 0.046875,0.09375 0.109375,0.09375 0.046875,0 0.0625,-0.015625 0.1875,-0.15625 L 1.296875,-0.5 c 0.421875,0.578125 1.109375,0.71875 1.6875,0.71875 1.359375,0 2.53125,-1.328125 2.53125,-2.5625 0,-0.6875 -0.34375,-1.03125 -0.484375,-1.171875 C 4.796875,-3.734375 4.640625,-3.78125 3.765625,-4 3.53125,-4.0625 3.1875,-4.171875 3.09375,-4.1875 2.828125,-4.28125 2.484375,-4.5625 2.484375,-5.09375 c 0,-0.8125 0.796875,-1.65625 1.75,-1.65625 0.8125,0 1.421875,0.4375 1.421875,1.546875 0,0.3125 -0.03125,0.5 -0.03125,0.5625 0,0 0,0.09375 0.109375,0.09375 0.109375,0 0.125,-0.03125 0.15625,-0.203125 z m 0,0"
               id="path33" />
          </g>
          <g
             id="g35">
            <path
               d="m 7.578125,-6.921875 c 0,-0.03125 -0.015625,-0.109375 -0.109375,-0.109375 -0.03125,0 -0.046875,0.015625 -0.15625,0.125 L 6.625,-6.140625 C 6.53125,-6.28125 6.078125,-7.03125 4.96875,-7.03125 2.734375,-7.03125 0.5,-4.828125 0.5,-2.515625 c 0,1.59375 1.109375,2.734375 2.71875,2.734375 0.4375,0 0.890625,-0.09375 1.25,-0.234375 0.5,-0.203125 0.6875,-0.40625 0.859375,-0.609375 0.09375,0.25 0.359375,0.609375 0.453125,0.609375 0.046875,0 0.078125,-0.03125 0.078125,-0.03125 C 5.875,-0.0625 5.96875,-0.453125 6.015625,-0.65625 l 0.1875,-0.765625 C 6.25,-1.59375 6.296875,-1.765625 6.34375,-1.9375 c 0.109375,-0.4375 0.109375,-0.46875 0.6875,-0.46875 0.046875,0 0.15625,-0.015625 0.15625,-0.203125 0,-0.078125 -0.046875,-0.109375 -0.125,-0.109375 -0.234375,0 -0.828125,0.03125 -1.046875,0.03125 -0.3125,0 -1.09375,-0.03125 -1.40625,-0.03125 -0.078125,0 -0.203125,0 -0.203125,0.203125 0,0.109375 0.078125,0.109375 0.296875,0.109375 0.015625,0 0.296875,0 0.53125,0.015625 0.265625,0.03125 0.3125,0.0625 0.3125,0.1875 0,0.09375 -0.109375,0.53125 -0.21875,0.90625 -0.28125,1.09375 -1.5625,1.203125 -1.921875,1.203125 -0.953125,0 -2,-0.5625 -2,-2.09375 0,-0.3125 0.09375,-1.953125 1.140625,-3.25 0.546875,-0.671875 1.515625,-1.28125 2.5,-1.28125 1.015625,0 1.609375,0.765625 1.609375,1.921875 0,0.40625 -0.03125,0.40625 -0.03125,0.515625 0,0.09375 0.109375,0.09375 0.140625,0.09375 0.125,0 0.125,-0.015625 0.1875,-0.203125 z m 0,0"
               id="path34" />
          </g>
          <g
             id="g36" />
          <g
             id="g37">
            <path
               d="m 12.625,13.953125 1.203125,-3.1875 h -0.25 c -0.390625,1.03125 -1.453125,1.71875 -2.59375,2.015625 -0.203125,0.04687 -1.1875,0.3125 -3.09375,0.3125 H 1.875 L 6.953125,7.140625 C 7.015625,7.0625 7.03125,7.03125 7.03125,6.984375 c 0,-0.03125 0,-0.0625 -0.0625,-0.15625 L 2.328125,0.484375 H 7.78125 c 1.34375,0 2.25,0.140625 2.34375,0.15625 0.53125,0.078125 1.40625,0.25 2.1875,0.75 0.25,0.15625 0.921875,0.609375 1.265625,1.40625 h 0.25 L 12.625,0 H 0.84375 c -0.234375,0 -0.25,0.015625 -0.28125,0.0625 0,0.03125 0,0.234375 0,0.34375 l 5.265625,7.203125 -5.15625,6.0625 C 0.5625,13.78125 0.5625,13.84375 0.5625,13.84375 c 0,0.109375 0.09375,0.109375 0.28125,0.109375 z m 0,0"
               id="path36" />
          </g>
          <g
             id="g38" />
          <g
             id="g39">
            <path
               d="M 3.0625,-4.359375 C 3.0625,-4.46875 2.96875,-4.625 2.78125,-4.625 c -0.203125,0 -0.390625,0.203125 -0.390625,0.390625 0,0.109375 0.078125,0.265625 0.28125,0.265625 0.1875,0 0.390625,-0.1875 0.390625,-0.390625 z M 1.578125,0.34375 C 1.46875,0.828125 1.09375,1.21875 0.6875,1.21875 c -0.09375,0 -0.171875,0 -0.25,-0.03125 0.171875,-0.09375 0.234375,-0.25 0.234375,-0.359375 0,-0.171875 -0.140625,-0.25 -0.28125,-0.25 C 0.1875,0.578125 0,0.765625 0,0.984375 c 0,0.265625 0.265625,0.4375 0.6875,0.4375 0.421875,0 1.234375,-0.25 1.453125,-1.09375 l 0.625,-2.5 c 0.015625,-0.078125 0.03125,-0.140625 0.03125,-0.25 0,-0.375 -0.328125,-0.65625 -0.734375,-0.65625 -0.78125,0 -1.21875,0.96875 -1.21875,1.078125 0,0.078125 0.09375,0.078125 0.109375,0.078125 0.078125,0 0.09375,-0.015625 0.140625,-0.125 C 1.265625,-2.453125 1.625,-2.875 2.03125,-2.875 c 0.171875,0 0.234375,0.109375 0.234375,0.34375 0,0.078125 0,0.171875 -0.015625,0.203125 z m 0,0"
               id="path38" />
          </g>
          <g
             id="g40" />
          <g
             id="g41">
            <path
               d="M 2.5,-6.921875 1.15625,-5.5625 1.328125,-5.390625 2.5,-6.40625 3.640625,-5.390625 3.8125,-5.5625 Z m 0,0"
               id="path40" />
          </g>
          <g
             id="g42" />
          <g
             id="g43">
            <path
               d="m 5.1875,-1.578125 c 0.109375,0 0.28125,0 0.28125,-0.15625 0,-0.1875 -0.171875,-0.1875 -0.28125,-0.1875 H 1.03125 c -0.109375,0 -0.28125,0 -0.28125,0.171875 0,0.171875 0.15625,0.171875 0.28125,0.171875 z m 0,0"
               id="path42" />
          </g>
        </g>
      </defs>
      <g
         fill="#000000"
         fill-opacity="1"
         id="id-258e410f-9903-4780-94ee-9a9fc3558b6b"
         transform="translate(-267.875,-137.255)"
         style="stroke-linecap:butt;stroke-linejoin:round">
        <g
           transform="translate(266.687,146.72)"
           id="g939965"
           style="stroke-linecap:butt;stroke-linejoin:round">
          <path
             d="m 1.578125,-7.125 c 0,-0.171875 0,-0.359375 -0.1875,-0.359375 -0.203125,0 -0.203125,0.1875 -0.203125,0.359375 v 9.265625 c 0,0.171875 0,0.359375 0.203125,0.359375 0.1875,0 0.1875,-0.1875 0.1875,-0.359375 z m 0,0"
             id="id-a16794eb-408a-4187-90a4-2a6351dd684b"
             style="stroke-linecap:butt;stroke-linejoin:round" />
        </g>
      </g>
      <g
         fill="#000000"
         fill-opacity="1"
         id="id-3ec7168f-b5d0-4247-9c62-562a4d694f0e"
         transform="translate(-267.875,-137.255)"
         style="stroke-linecap:butt;stroke-linejoin:round">
        <g
           transform="translate(269.454,146.72)"
           id="g939969"
           style="stroke-linecap:butt;stroke-linejoin:round">
          <path
             d="m 4.5,-4.296875 c 0,-0.046875 -0.03125,-0.09375 -0.09375,-0.09375 -0.109375,0 -0.515625,0.390625 -0.671875,0.6875 C 3.515625,-4.25 3.125,-4.40625 2.796875,-4.40625 c -1.171875,0 -2.390625,1.46875 -2.390625,2.921875 0,0.96875 0.578125,1.59375 1.3125,1.59375 0.421875,0 0.8125,-0.234375 1.171875,-0.59375 -0.09375,0.34375 -0.421875,1.6875 -0.453125,1.78125 -0.078125,0.28125 -0.15625,0.3125 -0.71875,0.328125 -0.125,0 -0.21875,0 -0.21875,0.203125 0,0 0,0.109375 0.125,0.109375 0.3125,0 0.671875,-0.03125 1,-0.03125 0.328125,0 0.6875,0.03125 1.03125,0.03125 0.046875,0 0.171875,0 0.171875,-0.203125 C 3.828125,1.625 3.734375,1.625 3.5625,1.625 3.09375,1.625 3.09375,1.5625 3.09375,1.46875 3.09375,1.390625 3.109375,1.328125 3.125,1.25 Z m -2.75,4.1875 c -0.609375,0 -0.640625,-0.765625 -0.640625,-0.9375 0,-0.484375 0.28125,-1.5625 0.453125,-1.984375 0.3125,-0.734375 0.828125,-1.15625 1.234375,-1.15625 0.65625,0 0.796875,0.8125 0.796875,0.875 0,0.0625 -0.546875,2.25 -0.578125,2.28125 C 2.859375,-0.75 2.296875,-0.109375 1.75,-0.109375 Z m 0,0"
             id="id-c4915f20-db52-4b7a-8f94-89613ca28eb7"
             style="stroke-linecap:butt;stroke-linejoin:round" />
        </g>
      </g>
      <g
         fill="#000000"
         fill-opacity="1"
         id="id-b79eaaa4-386e-4163-ae38-c33271c99e61"
         transform="translate(-267.875,-137.255)"
         style="stroke-linecap:butt;stroke-linejoin:round">
        <g
           transform="translate(274.259,146.72)"
           id="g939973"
           style="stroke-linecap:butt;stroke-linejoin:round">
          <path
             d="M 2.71875,-2.328125 C 2.765625,-2.4375 2.765625,-2.46875 2.765625,-2.5 c 0,-0.015625 0,-0.046875 -0.046875,-0.15625 L 0.984375,-7.25 c -0.0625,-0.171875 -0.125,-0.234375 -0.234375,-0.234375 -0.109375,0 -0.203125,0.09375 -0.203125,0.203125 0,0.03125 0,0.046875 0.046875,0.15625 L 2.359375,-2.5 0.59375,2.109375 C 0.546875,2.21875 0.546875,2.25 0.546875,2.296875 0.546875,2.40625 0.640625,2.5 0.75,2.5 0.875,2.5 0.921875,2.390625 0.953125,2.296875 Z m 0,0"
             id="id-6f6bceef-d607-41e3-839a-9009150a4754"
             style="stroke-linecap:butt;stroke-linejoin:round" />
        </g>
      </g>
      <g
         fill="#000000"
         fill-opacity="1"
         id="id-0c579d60-fe4e-40c1-934d-d917b4eb36a9"
         transform="translate(-267.875,-137.255)"
         style="stroke-linecap:butt;stroke-linejoin:round">
        <g
           transform="translate(280.903,146.72)"
           id="g939977"
           style="stroke-linecap:butt;stroke-linejoin:round">
          <path
             d="M 7.203125,-0.3125 C 7.15625,-0.3125 7,-0.296875 6.96875,-0.296875 c -0.78125,0 -1.3125,-0.78125 -1.65625,-1.296875 -0.09375,-0.171875 -0.375,-0.578125 -0.484375,-0.75 0.25,-0.53125 0.90625,-1.765625 2.09375,-1.765625 0.078125,0 0.171875,0 0.28125,0.015625 0,-0.25 -0.015625,-0.265625 -0.03125,-0.28125 -0.078125,-0.015625 -0.21875,-0.03125 -0.3125,-0.03125 -1.265625,0 -2,1.21875 -2.25,1.71875 C 4.21875,-3.296875 4.078125,-3.515625 3.703125,-3.828125 3.09375,-4.359375 2.546875,-4.40625 2.296875,-4.40625 c -1.09375,0 -1.734375,1.109375 -1.734375,2.265625 0,1.109375 0.609375,2.25 1.703125,2.25 1.265625,0 2.015625,-1.21875 2.25,-1.71875 0.40625,0.609375 0.53125,0.828125 0.90625,1.140625 0.609375,0.53125 1.15625,0.578125 1.40625,0.578125 0.125,0 0.28125,-0.015625 0.375,-0.046875 z m -2.90625,-1.640625 c -0.234375,0.53125 -0.90625,1.78125 -2.09375,1.78125 -0.96875,0 -1.421875,-1.0625 -1.421875,-1.96875 C 0.78125,-3.125 1.328125,-4 2.15625,-4 c 0.796875,0 1.328125,0.78125 1.65625,1.296875 0.109375,0.171875 0.375,0.578125 0.484375,0.75 z m 0,0"
             id="id-3598bb4c-2447-40a7-8201-4ee81857523b"
             style="stroke-linecap:butt;stroke-linejoin:round" />
        </g>
      </g>
      <g
         fill="#000000"
         fill-opacity="1"
         id="id-defb372c-3db4-4041-bc3e-c680b3ce4c69"
         transform="translate(-267.875,-137.255)"
         style="stroke-linecap:butt;stroke-linejoin:round">
        <g
           transform="translate(291.417,137.255)"
           id="g939981"
           style="stroke-linecap:butt;stroke-linejoin:round">
          <path
             d="m 12.625,13.953125 1.203125,-3.1875 h -0.25 c -0.390625,1.03125 -1.453125,1.71875 -2.59375,2.015625 -0.203125,0.04687 -1.1875,0.3125 -3.09375,0.3125 H 1.875 L 6.953125,7.140625 C 7.015625,7.0625 7.03125,7.03125 7.03125,6.984375 c 0,-0.03125 0,-0.0625 -0.0625,-0.15625 L 2.328125,0.484375 H 7.78125 c 1.34375,0 2.25,0.140625 2.34375,0.15625 0.53125,0.078125 1.40625,0.25 2.1875,0.75 0.25,0.15625 0.921875,0.609375 1.265625,1.40625 h 0.25 L 12.625,0 H 0.84375 c -0.234375,0 -0.25,0.015625 -0.28125,0.0625 0,0.03125 0,0.234375 0,0.34375 l 5.265625,7.203125 -5.15625,6.0625 C 0.5625,13.78125 0.5625,13.84375 0.5625,13.84375 c 0,0.109375 0.09375,0.109375 0.28125,0.109375 z m 0,0"
             id="id-95f101fd-5d98-44ec-85e5-16ce026b59b9"
             style="stroke-linecap:butt;stroke-linejoin:round" />
        </g>
      </g>
      <g
         fill="#000000"
         fill-opacity="1"
         id="id-54f10aaa-20b6-4435-b298-f7e0ba91d905"
         transform="translate(-267.875,-137.255)"
         style="stroke-linecap:butt;stroke-linejoin:round">
        <g
           transform="translate(296.762,158.474)"
           id="g939985"
           style="stroke-linecap:butt;stroke-linejoin:round">
          <path
             d="M 3.0625,-4.359375 C 3.0625,-4.46875 2.96875,-4.625 2.78125,-4.625 c -0.203125,0 -0.390625,0.203125 -0.390625,0.390625 0,0.109375 0.078125,0.265625 0.28125,0.265625 0.1875,0 0.390625,-0.1875 0.390625,-0.390625 z M 1.578125,0.34375 C 1.46875,0.828125 1.09375,1.21875 0.6875,1.21875 c -0.09375,0 -0.171875,0 -0.25,-0.03125 0.171875,-0.09375 0.234375,-0.25 0.234375,-0.359375 0,-0.171875 -0.140625,-0.25 -0.28125,-0.25 C 0.1875,0.578125 0,0.765625 0,0.984375 c 0,0.265625 0.265625,0.4375 0.6875,0.4375 0.421875,0 1.234375,-0.25 1.453125,-1.09375 l 0.625,-2.5 c 0.015625,-0.078125 0.03125,-0.140625 0.03125,-0.25 0,-0.375 -0.328125,-0.65625 -0.734375,-0.65625 -0.78125,0 -1.21875,0.96875 -1.21875,1.078125 0,0.078125 0.09375,0.078125 0.109375,0.078125 0.078125,0 0.09375,-0.015625 0.140625,-0.125 C 1.265625,-2.453125 1.625,-2.875 2.03125,-2.875 c 0.171875,0 0.234375,0.109375 0.234375,0.34375 0,0.078125 0,0.171875 -0.015625,0.203125 z m 0,0"
             id="id-4a473264-9eb9-49da-a29a-bbbd12624cfe"
             style="stroke-linecap:butt;stroke-linejoin:round" />
        </g>
      </g>
      <g
         fill="#000000"
         fill-opacity="1"
         id="id-fd8559f2-03ef-4177-9f05-a60a1349c744"
         transform="translate(-267.875,-137.255)"
         style="stroke-linecap:butt;stroke-linejoin:round">
        <g
           transform="translate(307.468,146.72)"
           id="g939989"
           style="stroke-linecap:butt;stroke-linejoin:round">
          <path
             d="M 0.453125,1.21875 C 0.375,1.5625 0.34375,1.625 -0.09375,1.625 c -0.109375,0 -0.21875,0 -0.21875,0.1875 0,0.078125 0.046875,0.125 0.125,0.125 0.265625,0 0.5625,-0.03125 0.828125,-0.03125 0.34375,0 0.671875,0.03125 1,0.03125 0.046875,0 0.171875,0 0.171875,-0.203125 C 1.8125,1.625 1.71875,1.625 1.578125,1.625 c -0.5,0 -0.5,-0.0625 -0.5,-0.15625 0,-0.125 0.421875,-1.75 0.484375,-2 0.125,0.296875 0.40625,0.640625 0.921875,0.640625 1.15625,0 2.40625,-1.453125 2.40625,-2.921875 0,-0.9375 -0.578125,-1.59375 -1.328125,-1.59375 -0.5,0 -0.984375,0.359375 -1.3125,0.75 -0.09375,-0.546875 -0.53125,-0.75 -0.890625,-0.75 -0.46875,0 -0.65625,0.390625 -0.734375,0.5625 C 0.4375,-3.5 0.3125,-2.90625 0.3125,-2.875 c 0,0.109375 0.09375,0.109375 0.109375,0.109375 0.109375,0 0.109375,-0.015625 0.171875,-0.234375 0.171875,-0.703125 0.375,-1.1875 0.734375,-1.1875 0.171875,0 0.3125,0.078125 0.3125,0.453125 0,0.234375 -0.03125,0.34375 -0.078125,0.515625 z m 1.75,-4.328125 C 2.265625,-3.375 2.546875,-3.65625 2.71875,-3.8125 c 0.359375,-0.296875 0.640625,-0.375 0.8125,-0.375 0.390625,0 0.640625,0.34375 0.640625,0.9375 0,0.59375 -0.328125,1.734375 -0.515625,2.109375 -0.34375,0.703125 -0.8125,1.03125 -1.1875,1.03125 C 1.8125,-0.109375 1.6875,-0.9375 1.6875,-1 c 0,-0.015625 0,-0.03125 0.03125,-0.15625 z m 0,0"
             id="id-96ffcef5-a272-4e3f-a0ea-f3ff7eed5b9f"
             style="stroke-linecap:butt;stroke-linejoin:round" />
        </g>
      </g>
      <g
         fill="#000000"
         fill-opacity="1"
         id="id-bda76ba4-c787-4413-8f55-00c949b40d35"
         transform="translate(-267.875,-137.255)"
         style="stroke-linecap:butt;stroke-linejoin:round">
        <g
           transform="translate(312.48,148.214)"
           id="g939993"
           style="stroke-linecap:butt;stroke-linejoin:round">
          <path
             d="M 3.0625,-4.359375 C 3.0625,-4.46875 2.96875,-4.625 2.78125,-4.625 c -0.203125,0 -0.390625,0.203125 -0.390625,0.390625 0,0.109375 0.078125,0.265625 0.28125,0.265625 0.1875,0 0.390625,-0.1875 0.390625,-0.390625 z M 1.578125,0.34375 C 1.46875,0.828125 1.09375,1.21875 0.6875,1.21875 c -0.09375,0 -0.171875,0 -0.25,-0.03125 0.171875,-0.09375 0.234375,-0.25 0.234375,-0.359375 0,-0.171875 -0.140625,-0.25 -0.28125,-0.25 C 0.1875,0.578125 0,0.765625 0,0.984375 c 0,0.265625 0.265625,0.4375 0.6875,0.4375 0.421875,0 1.234375,-0.25 1.453125,-1.09375 l 0.625,-2.5 c 0.015625,-0.078125 0.03125,-0.140625 0.03125,-0.25 0,-0.375 -0.328125,-0.65625 -0.734375,-0.65625 -0.78125,0 -1.21875,0.96875 -1.21875,1.078125 0,0.078125 0.09375,0.078125 0.109375,0.078125 0.078125,0 0.09375,-0.015625 0.140625,-0.125 C 1.265625,-2.453125 1.625,-2.875 2.03125,-2.875 c 0.171875,0 0.234375,0.109375 0.234375,0.34375 0,0.078125 0,0.171875 -0.015625,0.203125 z m 0,0"
             id="id-419c2c13-7f87-4a5a-80e3-d65ad667d65a"
             style="stroke-linecap:butt;stroke-linejoin:round" />
        </g>
      </g>
      <g
         fill="#000000"
         fill-opacity="1"
         id="id-3b31b221-4aec-41ff-9b7f-48d9493c454b"
         transform="translate(-267.875,-137.255)"
         style="stroke-linecap:butt;stroke-linejoin:round">
        <g
           transform="translate(318.359,144.201)"
           id="g939997"
           style="stroke-linecap:butt;stroke-linejoin:round">
          <path
             d="M 2.5,-6.921875 1.15625,-5.5625 1.328125,-5.390625 2.5,-6.40625 3.640625,-5.390625 3.8125,-5.5625 Z m 0,0"
             id="id-5401cba4-1188-4639-8cb2-1df1d5ee79be"
             style="stroke-linecap:butt;stroke-linejoin:round" />
        </g>
      </g>
      <g
         fill="#000000"
         fill-opacity="1"
         id="id-8de80174-6e45-44cd-a9cc-6bfc83aab689"
         transform="translate(-267.875,-137.255)"
         style="stroke-linecap:butt;stroke-linejoin:round">
        <g
           transform="translate(316.678,146.72)"
           id="g940001"
           style="stroke-linecap:butt;stroke-linejoin:round">
          <path
             d="m 6.4375,-6.921875 c 0,-0.03125 -0.03125,-0.109375 -0.125,-0.109375 -0.046875,0 -0.046875,0.015625 -0.171875,0.15625 L 5.65625,-6.3125 c -0.25,-0.46875 -0.765625,-0.71875 -1.421875,-0.71875 -1.265625,0 -2.453125,1.15625 -2.453125,2.359375 0,0.796875 0.515625,1.265625 1.03125,1.40625 l 1.0625,0.28125 c 0.375,0.09375 0.921875,0.25 0.921875,1.0625 0,0.890625 -0.8125,1.828125 -1.796875,1.828125 -0.640625,0 -1.75,-0.21875 -1.75,-1.453125 0,-0.234375 0.0625,-0.484375 0.0625,-0.53125 0.015625,-0.046875 0.015625,-0.0625 0.015625,-0.078125 0,-0.09375 -0.0625,-0.109375 -0.109375,-0.109375 -0.046875,0 -0.078125,0.015625 -0.109375,0.046875 -0.03125,0.03125 -0.59375,2.3125 -0.59375,2.34375 0,0.046875 0.046875,0.09375 0.109375,0.09375 0.046875,0 0.0625,-0.015625 0.1875,-0.15625 L 1.296875,-0.5 c 0.421875,0.578125 1.109375,0.71875 1.6875,0.71875 1.359375,0 2.53125,-1.328125 2.53125,-2.5625 0,-0.6875 -0.34375,-1.03125 -0.484375,-1.171875 C 4.796875,-3.734375 4.640625,-3.78125 3.765625,-4 3.53125,-4.0625 3.1875,-4.171875 3.09375,-4.1875 2.828125,-4.28125 2.484375,-4.5625 2.484375,-5.09375 c 0,-0.8125 0.796875,-1.65625 1.75,-1.65625 0.8125,0 1.421875,0.4375 1.421875,1.546875 0,0.3125 -0.03125,0.5 -0.03125,0.5625 0,0 0,0.09375 0.109375,0.09375 0.109375,0 0.125,-0.03125 0.15625,-0.203125 z m 0,0"
             id="id-b7367c29-d638-4729-8f3b-ddf5ca9ffd1a"
             style="stroke-linecap:butt;stroke-linejoin:round" />
        </g>
      </g>
      <g
         fill="#000000"
         fill-opacity="1"
         id="id-ba294145-b8dd-49e1-9ee5-7e7f47dfcf38"
         transform="translate(-267.875,-137.255)"
         style="stroke-linecap:butt;stroke-linejoin:round">
        <g
           transform="translate(323.361,142.458)"
           id="g940005"
           style="stroke-linecap:butt;stroke-linejoin:round">
          <path
             d="m 5.1875,-1.578125 c 0.109375,0 0.28125,0 0.28125,-0.15625 0,-0.1875 -0.171875,-0.1875 -0.28125,-0.1875 H 1.03125 c -0.109375,0 -0.28125,0 -0.28125,0.171875 0,0.171875 0.15625,0.171875 0.28125,0.171875 z m 0,0"
             id="id-d2814247-1a6f-45d1-b948-a133f21e1483"
             style="stroke-linecap:butt;stroke-linejoin:round" />
        </g>
      </g>
      <g
         fill="#000000"
         fill-opacity="1"
         id="id-7ad81e64-d1c8-40de-8a36-8d76eda78bac"
         transform="translate(-267.875,-137.255)"
         style="stroke-linecap:butt;stroke-linejoin:round">
        <g
           transform="translate(322.787,149.497)"
           id="g940009"
           style="stroke-linecap:butt;stroke-linejoin:round">
          <path
             d="M 3.0625,-4.359375 C 3.0625,-4.46875 2.96875,-4.625 2.78125,-4.625 c -0.203125,0 -0.390625,0.203125 -0.390625,0.390625 0,0.109375 0.078125,0.265625 0.28125,0.265625 0.1875,0 0.390625,-0.1875 0.390625,-0.390625 z M 1.578125,0.34375 C 1.46875,0.828125 1.09375,1.21875 0.6875,1.21875 c -0.09375,0 -0.171875,0 -0.25,-0.03125 0.171875,-0.09375 0.234375,-0.25 0.234375,-0.359375 0,-0.171875 -0.140625,-0.25 -0.28125,-0.25 C 0.1875,0.578125 0,0.765625 0,0.984375 c 0,0.265625 0.265625,0.4375 0.6875,0.4375 0.421875,0 1.234375,-0.25 1.453125,-1.09375 l 0.625,-2.5 c 0.015625,-0.078125 0.03125,-0.140625 0.03125,-0.25 0,-0.375 -0.328125,-0.65625 -0.734375,-0.65625 -0.78125,0 -1.21875,0.96875 -1.21875,1.078125 0,0.078125 0.09375,0.078125 0.109375,0.078125 0.078125,0 0.09375,-0.015625 0.140625,-0.125 C 1.265625,-2.453125 1.625,-2.875 2.03125,-2.875 c 0.171875,0 0.234375,0.109375 0.234375,0.34375 0,0.078125 0,0.171875 -0.015625,0.203125 z m 0,0"
             id="id-d2b06760-b4ff-45e8-bd06-3d7e601116dc"
             style="stroke-linecap:butt;stroke-linejoin:round" />
        </g>
      </g>
      <g
         fill="#000000"
         fill-opacity="1"
         id="id-efdbbcf6-4ba7-4096-827f-027eb46f9168"
         transform="translate(-267.875,-137.255)"
         style="stroke-linecap:butt;stroke-linejoin:round">
        <g
           transform="translate(330.086,146.72)"
           id="g940013"
           style="stroke-linecap:butt;stroke-linejoin:round">
          <path
             d="m 1.578125,-7.125 c 0,-0.171875 0,-0.359375 -0.1875,-0.359375 -0.203125,0 -0.203125,0.1875 -0.203125,0.359375 v 9.265625 c 0,0.171875 0,0.359375 0.203125,0.359375 0.1875,0 0.1875,-0.1875 0.1875,-0.359375 z m 0,0"
             id="id-f955fe6c-da83-4772-84ee-13d6a0ce9e94"
             style="stroke-linecap:butt;stroke-linejoin:round" />
        </g>
      </g>
      <g
         fill="#000000"
         fill-opacity="1"
         id="id-90795991-49d7-46a5-b95b-202b7134f145"
         transform="translate(-267.875,-137.255)"
         style="stroke-linecap:butt;stroke-linejoin:round">
        <g
           transform="translate(332.853,146.72)"
           id="g940017"
           style="stroke-linecap:butt;stroke-linejoin:round">
          <path
             d="m 7.578125,-6.921875 c 0,-0.03125 -0.015625,-0.109375 -0.109375,-0.109375 -0.03125,0 -0.046875,0.015625 -0.15625,0.125 L 6.625,-6.140625 C 6.53125,-6.28125 6.078125,-7.03125 4.96875,-7.03125 2.734375,-7.03125 0.5,-4.828125 0.5,-2.515625 c 0,1.59375 1.109375,2.734375 2.71875,2.734375 0.4375,0 0.890625,-0.09375 1.25,-0.234375 0.5,-0.203125 0.6875,-0.40625 0.859375,-0.609375 0.09375,0.25 0.359375,0.609375 0.453125,0.609375 0.046875,0 0.078125,-0.03125 0.078125,-0.03125 C 5.875,-0.0625 5.96875,-0.453125 6.015625,-0.65625 l 0.1875,-0.765625 C 6.25,-1.59375 6.296875,-1.765625 6.34375,-1.9375 c 0.109375,-0.4375 0.109375,-0.46875 0.6875,-0.46875 0.046875,0 0.15625,-0.015625 0.15625,-0.203125 0,-0.078125 -0.046875,-0.109375 -0.125,-0.109375 -0.234375,0 -0.828125,0.03125 -1.046875,0.03125 -0.3125,0 -1.09375,-0.03125 -1.40625,-0.03125 -0.078125,0 -0.203125,0 -0.203125,0.203125 0,0.109375 0.078125,0.109375 0.296875,0.109375 0.015625,0 0.296875,0 0.53125,0.015625 0.265625,0.03125 0.3125,0.0625 0.3125,0.1875 0,0.09375 -0.109375,0.53125 -0.21875,0.90625 -0.28125,1.09375 -1.5625,1.203125 -1.921875,1.203125 -0.953125,0 -2,-0.5625 -2,-2.09375 0,-0.3125 0.09375,-1.953125 1.140625,-3.25 0.546875,-0.671875 1.515625,-1.28125 2.5,-1.28125 1.015625,0 1.609375,0.765625 1.609375,1.921875 0,0.40625 -0.03125,0.40625 -0.03125,0.515625 0,0.09375 0.109375,0.09375 0.140625,0.09375 0.125,0 0.125,-0.015625 0.1875,-0.203125 z m 0,0"
             id="id-6aa8d19e-9898-4470-a549-c430d6fbf607"
             style="stroke-linecap:butt;stroke-linejoin:round" />
        </g>
      </g>
      <g
         fill="#000000"
         fill-opacity="1"
         id="id-07f08347-fc97-460c-a2c5-c576e9903d8a"
         transform="translate(-267.875,-137.255)"
         style="stroke-linecap:butt;stroke-linejoin:round">
        <g
           transform="translate(340.687,146.72)"
           id="g940021"
           style="stroke-linecap:butt;stroke-linejoin:round">
          <path
             d="M 2.71875,-2.328125 C 2.765625,-2.4375 2.765625,-2.46875 2.765625,-2.5 c 0,-0.015625 0,-0.046875 -0.046875,-0.15625 L 0.984375,-7.25 c -0.0625,-0.171875 -0.125,-0.234375 -0.234375,-0.234375 -0.109375,0 -0.203125,0.09375 -0.203125,0.203125 0,0.03125 0,0.046875 0.046875,0.15625 L 2.359375,-2.5 0.59375,2.109375 C 0.546875,2.21875 0.546875,2.25 0.546875,2.296875 0.546875,2.40625 0.640625,2.5 0.75,2.5 0.875,2.5 0.921875,2.390625 0.953125,2.296875 Z m 0,0"
             id="id-b9e72acd-966f-4f3d-9b83-261e3fcafd3a"
             style="stroke-linecap:butt;stroke-linejoin:round" />
        </g>
      </g>
    </g>
  </g>
</svg>
