<?xml version="1.0" encoding="UTF-8" standalone="no"?>
<!-- Created with Inkscape (http://www.inkscape.org/) -->

<svg
   width="97.20829mm"
   height="62.886162mm"
   viewBox="0 0 97.20829 62.886162"
   version="1.1"
   id="svg77050"
   inkscape:version="1.2.1 (9c6d41e410, 2022-07-14, custom)"
   sodipodi:docname="tunnel_rotated.svg"
   xmlns:inkscape="http://www.inkscape.org/namespaces/inkscape"
   xmlns:sodipodi="http://sodipodi.sourceforge.net/DTD/sodipodi-0.dtd"
   xmlns="http://www.w3.org/2000/svg"
   xmlns:svg="http://www.w3.org/2000/svg"
   xmlns:ns10="http://www.iki.fi/pav/software/textext/">
  <sodipodi:namedview
     id="namedview77052"
     pagecolor="#ffffff"
     bordercolor="#666666"
     borderopacity="1.0"
     inkscape:pageshadow="2"
     inkscape:pageopacity="0"
     inkscape:pagecheckerboard="false"
     inkscape:document-units="mm"
     showgrid="false"
     fit-margin-top="0"
     fit-margin-left="0"
     fit-margin-right="0"
     fit-margin-bottom="0"
     inkscape:zoom="2.607816"
     inkscape:cx="177.5432"
     inkscape:cy="82.827929"
     inkscape:window-width="1920"
     inkscape:window-height="1135"
     inkscape:window-x="0"
     inkscape:window-y="63"
     inkscape:window-maximized="1"
     inkscape:current-layer="layer1"
     inkscape:showpageshadow="2"
     inkscape:deskcolor="#ffffff" />
  <defs
     id="defs77047">
    <marker
       style="overflow:visible"
       id="TriangleOutM"
       refX="0"
       refY="0"
       orient="auto"
       inkscape:stockid="TriangleOutM"
       inkscape:isstock="true">
      <path
         transform="scale(0.4)"
         style="fill:context-stroke;fill-rule:evenodd;stroke:context-stroke;stroke-width:1pt"
         d="M 5.77,0 -2.88,5 V -5 Z"
         id="path104778" />
    </marker>
  </defs>
  <g
     inkscape:label="Capa 1"
     inkscape:groupmode="layer"
     id="layer1"
     transform="translate(-81.3929, -134.068)">
    <path
       style="display:inline;fill:none;stroke:#000000;stroke-width:0.33095;stroke-linecap:butt;stroke-linejoin:miter;stroke-miterlimit:4;stroke-dasharray:none;stroke-opacity:1"
       d="m 123.90805,171.9026 h 11.89183"
       id="path295248"
       sodipodi:nodetypes="cc" />
    <path
       style="display:inline;fill:none;stroke:#000000;stroke-width:0.33095;stroke-linecap:butt;stroke-linejoin:miter;stroke-miterlimit:4;stroke-dasharray:none;stroke-opacity:1"
       d="m 156.30595,171.9026 h 11.89182"
       id="path295250"
       sodipodi:nodetypes="cc" />
    <path
       style="display:inline;fill:none;stroke:#000000;stroke-width:0.33095;stroke-linecap:butt;stroke-linejoin:miter;stroke-miterlimit:4;stroke-dasharray:none;stroke-opacity:1"
       d="m 123.90805,158.29405 h 11.89183"
       id="path295938"
       sodipodi:nodetypes="cc" />
    <path
       style="display:inline;fill:none;stroke:#000000;stroke-width:0.33095;stroke-linecap:butt;stroke-linejoin:miter;stroke-miterlimit:4;stroke-dasharray:none;stroke-opacity:1"
       d="m 156.30595,158.29405 h 11.89182"
       id="path295942"
       sodipodi:nodetypes="cc" />
    <path
       id="path401527"
       style="display:inline;fill:none;stroke:#000000;stroke-width:0.992849;stroke-miterlimit:4;stroke-dasharray:none"
       d="M 113.61514 145.81526 C 114.3102 145.79288 115.00527 146.36942 115.70032 147.50017 C 116.40942 148.65086 117.11831 150.38106 117.82721 152.54033 C 118.53676 154.69961 119.24566 157.29074 119.95455 160.0964 C 120.66344 162.8993 121.37233 165.91669 122.08189 168.89511 C 122.79079 171.87349 123.49969 174.8101 124.20856 177.46533 C 124.91749 180.11775 125.62702 182.48321 126.33592 184.36386 C 127.04482 186.2473 127.75371 187.64319 128.46327 188.43723 C 129.17217 189.23408 129.88104 189.42632 130.58997 189.00283 C 131.29884 188.57653 132.0084 187.53453 132.7173 185.96033 C 133.4262 184.38895 134.13509 182.28538 134.84399 179.8252 C 135.55352 177.3678 136.26242 174.55658 136.97132 171.62553 C 137.68022 168.6945 138.38978 165.64922 139.09868 162.73767 C 139.80758 159.82614 140.51647 157.05391 141.22534 154.64946 C 141.9349 152.245 142.6438 150.21389 143.3527 148.7233 C 144.0616 147.22991 144.7705 146.27983 145.48006 145.94828 C 146.18895 145.61673 146.89783 145.90648 147.60672 146.79249 C 148.31562 147.67849 149.02518 149.16072 149.73408 151.11661 C 150.44298 153.06971 151.15188 155.49645 151.86144 158.19067 C 152.57031 160.88489 153.27921 163.84656 153.9881 166.83056 C 154.697 169.81175 155.40656 172.81523 156.11546 175.58467 C 156.82436 178.3569 157.53326 180.89232 158.24213 182.9875 C 158.95169 185.07991 159.66059 186.72932 160.36948 187.79361 C 161.07838 188.86072 161.78794 189.33994 162.49681 189.19785 C 163.20574 189.05577 163.91461 188.28957 164.62351 186.96615 C 165.33307 185.63992 166.04196 183.75649 166.75086 181.46903 C 167.45976 179.18438 168.16863 176.49574 168.87819 173.63435 C 169.58709 170.77018 170.29599 167.73049 171.00489 164.77157 C 171.71378 161.80988 172.42334 158.93179 173.13224 156.36852 C 173.84111 153.80804 174.55001 151.57075 175.25957 149.83776 C 175.96847 148.10755 176.67737 146.88721 177.38627 146.27426 C 177.77655 145.93678 178.16708 145.78595 178.55755 145.82039 " />
    <circle
       style="fill:#ff0000;stroke:#ffffff;stroke-width:0.109519"
       id="circle105059"
       cx="129.85396"
       cy="158.29405"
       r="3.6581175" />
    <g
       id="path105061"
       style="fill:#ffffff"
       transform="translate(-137.80879,-117.07009)">
      <path
         style="color:#000000;fill:#ffffff;stroke-width:0.46333;-inkscape-stroke:none"
         d="m 267.66277,278.2938 v -4.54308"
         id="path644068" />
      <path
         style="color:#000000;fill:#ffffff;-inkscape-stroke:none"
         d="m 267.43164,273.75 v 4.54297 h 0.46289 V 273.75 Z"
         id="path644070" />
      <g
         id="g644055"
         style="fill:#ffffff">
        <g
           id="path644058"
           style="fill:#ffffff">
          <path
             style="color:#000000;fill:#ffffff;fill-rule:evenodd;stroke-width:0.185332pt;-inkscape-stroke:none"
             d="m 267.66277,272.68135 0.92666,1.60313 h -1.85332 z"
             id="path644062" />
          <path
             style="color:#000000;fill:#ffffff;fill-rule:evenodd;-inkscape-stroke:none"
             d="m 267.66211,272.43359 -0.10547,0.18555 -1.03516,1.78906 h 2.28125 z m 0.002,0.49414 0.71094,1.23243 h -1.42383 z"
             id="path644064" />
        </g>
      </g>
    </g>
    <g
       id="g335">
      <circle
         style="fill:#ff0000;stroke:#ffffff;stroke-width:0.109519"
         id="path103412"
         cx="97.546356"
         cy="158.29405"
         r="3.6581175" />
      <g
         id="path103527"
         style="fill:#ffffff"
         transform="translate(-137.80879,-117.07009)">
        <path
           style="color:#000000;fill:#ffffff;stroke-width:0.46333;-inkscape-stroke:none"
           d="m 235.35514,278.29379 v -4.54307"
           id="path644088" />
        <path
           style="color:#000000;fill:#ffffff;-inkscape-stroke:none"
           d="m 235.12305,273.75 v 4.54297 h 0.46289 V 273.75 Z"
           id="path644090" />
        <g
           id="g644076"
           style="fill:#ffffff">
          <g
             id="path644078"
             style="fill:#ffffff">
            <path
               style="color:#000000;fill:#ffffff;fill-rule:evenodd;stroke-width:0.185332pt;-inkscape-stroke:none"
               d="m 235.35514,272.68135 0.92666,1.60313 h -1.85332 z"
               id="path644082" />
            <path
               style="color:#000000;fill:#ffffff;fill-rule:evenodd;-inkscape-stroke:none"
               d="m 235.35547,272.43359 -0.10742,0.18555 -1.03321,1.78906 h 2.28125 z m 0,0.4961 0.71289,1.23047 h -1.42578 z"
               id="path644084" />
          </g>
        </g>
      </g>
    </g>
    <g
       id="g325">
      <circle
         style="fill:#0000ff;stroke:#ffffff;stroke-width:0.109519"
         id="circle296050"
         cx="-97.456039"
         cy="-171.90257"
         r="3.6581175"
         transform="scale(-1)" />
      <g
         id="path296052"
         style="fill:#ffffff"
         transform="translate(-137.80879,-117.07009)">
        <path
           style="color:#000000;fill:#ffffff;stroke-width:0.46333;-inkscape-stroke:none"
           d="m 235.26484,286.04302 v 4.54307"
           id="path644108" />
        <path
           style="color:#000000;fill:#ffffff;-inkscape-stroke:none"
           d="m 235.0332,286.04297 v 4.54297 h 0.46289 v -4.54297 z"
           id="path644110" />
        <g
           id="g644096"
           style="fill:#ffffff">
          <g
             id="path644098"
             style="fill:#ffffff">
            <path
               style="color:#000000;fill:#ffffff;fill-rule:evenodd;stroke-width:0.185332pt;-inkscape-stroke:none"
               d="m 235.26484,291.65546 -0.92666,-1.60313 h 1.85332 z"
               id="path644102" />
            <path
               style="color:#000000;fill:#ffffff;fill-rule:evenodd;-inkscape-stroke:none"
               d="m 234.125,289.92969 1.14062,1.97265 0.10547,-0.18554 1.03516,-1.78711 z m 0.42773,0.24609 h 1.42383 l -0.71094,1.23438 z"
               id="path644104" />
          </g>
        </g>
      </g>
    </g>
    <path
       style="fill:#000000;fill-opacity:1;stroke:none;stroke-width:0.6619"
       d="m 131.32703,191.45708 c 0,-0.12411 -0.0931,-0.23787 -0.24821,-0.23787 -0.15513,0 -0.35163,0.15513 -0.35163,0.35163 0,0.13445 0.0931,0.23787 0.24821,0.23787 0.17582,0 0.35163,-0.17581 0.35163,-0.35163 z m -1.3238,4.45748 c -0.1241,0.49642 -0.44471,0.87909 -0.80669,0.87909 -0.0414,0 -0.14479,0 -0.25855,-0.0621 0.1965,-0.0414 0.28958,-0.21718 0.28958,-0.35163 0,-0.10342 -0.0724,-0.22753 -0.24821,-0.22753 -0.16548,0 -0.35164,0.13445 -0.35164,0.37232 0,0.2689 0.25856,0.41369 0.57916,0.41369 0.4654,0 1.07559,-0.35164 1.24107,-1.0032 l 0.59984,-2.42007 c 0.0414,-0.1241 0.0414,-0.21718 0.0414,-0.23787 0,-0.38266 -0.27924,-0.61019 -0.61019,-0.61019 -0.67224,0 -1.04456,0.96183 -1.04456,1.01354 0,0.0724 0.0621,0.0724 0.0724,0.0724 0.062,0 0.0724,-0.0103 0.1241,-0.13444 0.16548,-0.40335 0.4654,-0.80669 0.82738,-0.80669 0.0931,0 0.20684,0.031 0.20684,0.29992 0,0.15513 -0.0103,0.22753 -0.0414,0.34129 z m 0,0"
       id="path77503" />
    <path
       style="fill:#000000;fill-opacity:1;stroke:none;stroke-width:0.6619"
       d="m 157.9534,191.47259 c 0,-0.12411 -0.0931,-0.23787 -0.24821,-0.23787 -0.15513,0 -0.35163,0.15513 -0.35163,0.35163 0,0.13445 0.0931,0.23787 0.24821,0.23787 0.17582,0 0.35163,-0.17581 0.35163,-0.35163 z m -1.3238,4.45748 c -0.1241,0.49642 -0.44471,0.87909 -0.80669,0.87909 -0.0414,0 -0.14479,0 -0.25855,-0.0621 0.1965,-0.0414 0.28958,-0.21718 0.28958,-0.35163 0,-0.10342 -0.0724,-0.22753 -0.24821,-0.22753 -0.16548,0 -0.35164,0.13445 -0.35164,0.37232 0,0.2689 0.25856,0.41369 0.57916,0.41369 0.4654,0 1.07559,-0.35164 1.24107,-1.0032 l 0.59984,-2.42007 c 0.0414,-0.1241 0.0414,-0.21718 0.0414,-0.23787 0,-0.38266 -0.27924,-0.61019 -0.61019,-0.61019 -0.67224,0 -1.04456,0.96183 -1.04456,1.01354 0,0.0724 0.0621,0.0724 0.0724,0.0724 0.062,0 0.0724,-0.0103 0.1241,-0.13444 0.16548,-0.40335 0.4654,-0.80669 0.82738,-0.80669 0.0931,0 0.20684,0.031 0.20684,0.29992 0,0.15513 -0.0103,0.22753 -0.0414,0.34129 z m 0,0"
       id="path77507" />
    <path
       style="fill:#000000;fill-opacity:1;stroke:none;stroke-width:0.6619"
       d="m 162.59464,194.07882 h 1.84091 c 0.0931,0 0.21718,0 0.21718,-0.13445 0,-0.12411 -0.1241,-0.12411 -0.21718,-0.12411 h -1.84091 v -1.85125 c 0,-0.0931 0,-0.21718 -0.13445,-0.21718 -0.13445,0 -0.13445,0.1241 -0.13445,0.21718 v 1.85125 h -1.84091 c -0.0931,0 -0.21718,0 -0.21718,0.12411 0,0.13445 0.1241,0.13445 0.21718,0.13445 h 1.84091 v 1.85125 c 0,0.0931 0,0.21719 0.13445,0.21719 0.13445,0 0.13445,-0.12411 0.13445,-0.21719 z m 0,0"
       id="path77511" />
    <path
       style="fill:#000000;fill-opacity:1;stroke:none;stroke-width:0.6619"
       d="m 168.43259,191.37951 c 0,-0.16548 0,-0.17582 -0.15513,-0.17582 -0.41369,0.42403 -0.99285,0.42403 -1.1997,0.42403 v 0.20685 c 0.13445,0 0.51711,0 0.85841,-0.17582 v 3.42326 c 0,0.23787 -0.0207,0.31027 -0.61019,0.31027 h -0.20685 v 0.20684 c 0.22753,-0.0207 0.79635,-0.0207 1.06525,-0.0207 0.25855,0 0.83771,0 1.06524,0.0207 v -0.20684 h -0.20684 c -0.59985,0 -0.61019,-0.0724 -0.61019,-0.31027 z m 0,0"
       id="path77515" />
    <g
       id="path390795"
       style="stroke:none;fill:#000000">
      <path
         style="color:#000000;fill:#000000;-inkscape-stroke:none;stroke:none"
         d="m 145.20898,142.73242 c -0.87176,0.0821 -1.76721,0.26362 -2.68359,0.56055 -3.66553,1.18773 -7.65018,4.2225 -11.78125,10.16601 l 0.30078,0.20704 c 4.10154,-5.90104 8.02596,-8.86997 11.5918,-10.0254 3.56583,-1.15542 6.78611,-0.50818 9.51758,0.875 5.46292,2.76637 8.91797,8.48829 8.91797,8.48829 l 0.3125,-0.1875 c 0,0 -3.4783,-5.7972 -9.06641,-8.62696 -2.09554,-1.06115 -4.49408,-1.70339 -7.10938,-1.45703 z"
         id="path3496" />
      <g
         id="g3486"
         style="stroke:none;fill:#000000">
        <g
           id="path3488"
           style="stroke:none;fill:#000000">
          <path
             style="color:#000000;fill:#000000;fill-rule:evenodd;stroke-width:0.146pt;-inkscape-stroke:none;stroke:none"
             d="m 161.66387,153.63167 -1.27679,-0.70541 1.2508,-0.75306 z"
             id="path3492" />
          <path
             style="color:#000000;fill:#000000;fill-rule:evenodd;-inkscape-stroke:none;stroke:none"
             d="m 161.73242,152.00195 -1.54101,0.92774 1.57226,0.86914 -0.002,-0.16797 z m -0.18945,0.33985 0.0215,1.12304 -0.98437,-0.54101 z"
             id="path3494" />
        </g>
      </g>
    </g>
    <g
       id="g1088">
      <circle
         style="fill:#ffaaaa;stroke:#ff0000;stroke-width:0.109519;stroke-dasharray:0.109519, 0.219038;stroke-dashoffset:0"
         id="circle337"
         cx="87.528618"
         cy="158.29405"
         r="3.6581175" />
      <g
         id="g351"
         style="fill:#ffffff"
         transform="translate(-147.82652,-117.07009)">
        <path
           style="color:#000000;fill:#ffffff;stroke-width:0.46333"
           d="m 235.35514,278.29379 v -4.54307"
           id="path339" />
        <path
           style="color:#000000;fill:#ffffff"
           d="m 235.12305,273.75 v 4.54297 h 0.46289 V 273.75 Z"
           id="path341" />
        <g
           id="g349"
           style="fill:#ffffff">
          <g
             id="g347"
             style="fill:#ffffff">
            <path
               style="color:#000000;fill:#ffffff;fill-rule:evenodd;stroke-width:0.185332pt"
               d="m 235.35514,272.68135 0.92666,1.60313 h -1.85332 z"
               id="path343" />
            <path
               style="color:#000000;fill:#ffffff;fill-rule:evenodd"
               d="m 235.35547,272.43359 -0.10742,0.18555 -1.03321,1.78906 h 2.28125 z m 0,0.4961 0.71289,1.23047 h -1.42578 z"
               id="path345" />
          </g>
        </g>
      </g>
    </g>
    <g
       id="g1098">
      <circle
         style="fill:#80b3ff;stroke:#0000ff;stroke-width:0.109519;stroke-dasharray:0.109519, 0.219038;stroke-dashoffset:0"
         id="circle355"
         cx="-87.438301"
         cy="-171.90257"
         r="3.6581175"
         transform="scale(-1)" />
      <g
         id="g369"
         style="fill:#ffffff;stroke-dasharray:1, 2;stroke-dashoffset:0"
         transform="translate(-147.82652,-117.07009)">
        <path
           style="color:#000000;fill:#ffffff;stroke-width:0.46333;stroke-dasharray:1, 2;stroke-dashoffset:0"
           d="m 235.26484,286.04302 v 4.54307"
           id="path357" />
        <path
           style="color:#000000;fill:#ffffff;stroke-dasharray:1, 2;stroke-dashoffset:0"
           d="m 235.0332,286.04297 v 4.54297 h 0.46289 v -4.54297 z"
           id="path359" />
        <g
           id="g367"
           style="fill:#ffffff;stroke-dasharray:1, 2;stroke-dashoffset:0">
          <g
             id="g365"
             style="fill:#ffffff;stroke-dasharray:1, 2;stroke-dashoffset:0">
            <path
               style="color:#000000;fill:#ffffff;fill-rule:evenodd;stroke-width:0.185332pt;stroke-dasharray:1, 2;stroke-dashoffset:0"
               d="m 235.26484,291.65546 -0.92666,-1.60313 h 1.85332 z"
               id="path361" />
            <path
               style="color:#000000;fill:#ffffff;fill-rule:evenodd;stroke-dasharray:1, 2;stroke-dashoffset:0"
               d="m 234.125,289.92969 1.14062,1.97265 0.10547,-0.18554 1.03516,-1.78711 z m 0.42773,0.24609 h 1.42383 l -0.71094,1.23438 z"
               id="path363" />
          </g>
        </g>
      </g>
    </g>
    <g
       id="g1116"
       transform="translate(74.723157)">
      <circle
         style="fill:#ffaaaa;stroke:#ff0000;stroke-width:0.109519;stroke-dasharray:0.109519, 0.219038;stroke-dashoffset:0"
         id="circle1100"
         cx="87.528618"
         cy="158.29405"
         r="3.6581175" />
      <g
         id="g1114"
         style="fill:#ffffff"
         transform="translate(-147.82652,-117.07009)">
        <path
           style="color:#000000;fill:#ffffff;stroke-width:0.46333"
           d="m 235.35514,278.29379 v -4.54307"
           id="path1102" />
        <path
           style="color:#000000;fill:#ffffff"
           d="m 235.12305,273.75 v 4.54297 h 0.46289 V 273.75 Z"
           id="path1104" />
        <g
           id="g1112"
           style="fill:#ffffff">
          <g
             id="g1110"
             style="fill:#ffffff">
            <path
               style="color:#000000;fill:#ffffff;fill-rule:evenodd;stroke-width:0.185332pt"
               d="m 235.35514,272.68135 0.92666,1.60313 h -1.85332 z"
               id="path1106" />
            <path
               style="color:#000000;fill:#ffffff;fill-rule:evenodd"
               d="m 235.35547,272.43359 -0.10742,0.18555 -1.03321,1.78906 h 2.28125 z m 0,0.4961 0.71289,1.23047 h -1.42578 z"
               id="path1108" />
          </g>
        </g>
      </g>
    </g>
    <g
       transform="matrix(0.635 0 0 0.635 132.608 134.263)"
       ns10:version="1.8.1"
       ns10:texconverter="pdflatex"
       ns10:pdfconverter="inkscape"
       ns10:text="$\\frac{J}{2}(1+e^{i\\phi})$"
       ns10:preamble="/home/tana/Documents/Conferences/FINESS22/poster_packages.tex"
       ns10:scale="1.8"
       ns10:alignment="middle center"
       ns10:stroke-to-path="0"
       ns10:inkscapeversion="1.2.1"
       ns10:jacobian_sqrt="0.635"
       id="g1334">
      <defs
         id="id-ad2354af-f8e3-4062-813f-abe54e38858f">
        <g
           id="id-4390f97f-1263-44ba-8d58-e50ffa54a260">
          <g
             id="id-28984085-a4b6-403b-a843-c7821d383607" />
          <g
             id="id-26386b7f-93d6-47c3-93b5-d4b70192fb1c">
            <path
               d="m 4.15625,-4.21875 c 0.0625,-0.25 0.078125,-0.296875 0.46875,-0.296875 0.078125,0 0.171875,0 0.171875,-0.140625 0,-0.078125 -0.046875,-0.109375 -0.09375,-0.109375 -0.171875,0 -0.59375,0.03125 -0.765625,0.03125 -0.140625,0 -0.375,0 -0.53125,0 -0.171875,-0.015625 -0.375,-0.03125 -0.546875,-0.03125 -0.046875,0 -0.15625,0 -0.15625,0.15625 0,0.09375 0.0625,0.09375 0.265625,0.09375 0.171875,0 0.1875,0 0.375,0.015625 0.203125,0.03125 0.21875,0.046875 0.21875,0.125 0,0.046875 0,0.0625 -0.03125,0.171875 l -0.796875,3.1875 C 2.59375,-0.5 2.15625,-0.0625 1.703125,-0.0625 1.609375,-0.0625 1.15625,-0.078125 1,-0.421875 c 0.40625,0 0.5,-0.328125 0.5,-0.453125 0,-0.1875 -0.171875,-0.296875 -0.328125,-0.296875 -0.1875,0 -0.46875,0.15625 -0.46875,0.546875 0,0.453125 0.4375,0.765625 1.015625,0.765625 0.6875,0 1.453125,-0.4375 1.640625,-1.140625 z m 0,0"
               id="id-78b28229-8976-4d3a-b77a-23db56a9af78" />
          </g>
          <g
             id="id-4435a97e-0f5d-4ab6-9dd4-5254164a9b9f">
            <path
               d="m 2.265625,-4.359375 c 0,-0.109375 -0.09375,-0.265625 -0.28125,-0.265625 -0.1875,0 -0.390625,0.1875 -0.390625,0.390625 0,0.109375 0.078125,0.265625 0.28125,0.265625 0.1875,0 0.390625,-0.203125 0.390625,-0.390625 z M 0.84375,-0.8125 c -0.03125,0.09375 -0.0625,0.171875 -0.0625,0.296875 0,0.328125 0.265625,0.578125 0.65625,0.578125 0.6875,0 1,-0.953125 1,-1.0625 0,-0.09375 -0.09375,-0.09375 -0.109375,-0.09375 -0.09375,0 -0.109375,0.046875 -0.140625,0.125 -0.15625,0.5625 -0.453125,0.84375 -0.734375,0.84375 -0.140625,0 -0.171875,-0.09375 -0.171875,-0.25 0,-0.15625 0.046875,-0.28125 0.109375,-0.4375 C 1.46875,-1 1.546875,-1.1875 1.609375,-1.375 1.671875,-1.546875 1.9375,-2.171875 1.953125,-2.265625 1.984375,-2.328125 2,-2.40625 2,-2.484375 2,-2.8125 1.71875,-3.078125 1.34375,-3.078125 0.640625,-3.078125 0.328125,-2.125 0.328125,-2 c 0,0.078125 0.09375,0.078125 0.125,0.078125 0.09375,0 0.09375,-0.03125 0.125,-0.109375 C 0.75,-2.625 1.0625,-2.875 1.3125,-2.875 c 0.109375,0 0.171875,0.046875 0.171875,0.234375 0,0.171875 -0.03125,0.265625 -0.203125,0.703125 z m 0,0"
               id="id-55049546-b790-4783-8d53-b83782c26135" />
          </g>
          <g
             id="id-fa03612a-02bb-4d15-a94d-75d9df573c8f">
            <path
               d="m 3.421875,-4.75 c 0,-0.09375 -0.078125,-0.09375 -0.109375,-0.09375 -0.109375,0 -0.109375,0.046875 -0.140625,0.15625 L 2.78125,-3.09375 c -1.234375,0.0625 -2.296875,0.953125 -2.296875,1.875 0,0.796875 0.71875,1.265625 1.5,1.296875 C 1.921875,0.296875 1.875,0.515625 1.8125,0.734375 1.734375,1.0625 1.671875,1.3125 1.671875,1.34375 c 0,0.078125 0.09375,0.078125 0.109375,0.078125 0.109375,0 0.109375,-0.015625 0.15625,-0.171875 L 2.21875,0.078125 c 1.203125,-0.046875 2.296875,-0.921875 2.296875,-1.875 0,-0.71875 -0.640625,-1.25 -1.5,-1.28125 z M 2.03125,-0.125 C 1.484375,-0.140625 1,-0.4375 1,-1.09375 1,-1.796875 1.53125,-2.78125 2.71875,-2.890625 Z m 0.9375,-2.765625 C 3.5,-2.859375 4,-2.578125 4,-1.90625 c 0,0.75 -0.59375,1.6875 -1.734375,1.78125 z m 0,0"
               id="id-3bf6c4ec-4ef8-4d9f-a5d5-005bbe1628b4" />
          </g>
          <g
             id="id-6949ab20-2651-49ad-af48-5dc08360ac5b" />
          <g
             id="id-ab3df148-9e1e-4d01-95b7-35bab8c46c33">
            <path
               d="M 3.515625,-1.265625 H 3.28125 c -0.015625,0.15625 -0.09375,0.5625 -0.1875,0.625 C 3.046875,-0.59375 2.515625,-0.59375 2.40625,-0.59375 H 1.125 c 0.734375,-0.640625 0.984375,-0.84375 1.390625,-1.171875 0.515625,-0.40625 1,-0.84375 1,-1.5 0,-0.84375 -0.734375,-1.359375 -1.625,-1.359375 -0.859375,0 -1.453125,0.609375 -1.453125,1.25 0,0.34375 0.296875,0.390625 0.375,0.390625 0.15625,0 0.359375,-0.125 0.359375,-0.375 0,-0.125 -0.046875,-0.375 -0.40625,-0.375 C 0.984375,-4.21875 1.453125,-4.375 1.78125,-4.375 c 0.703125,0 1.0625,0.546875 1.0625,1.109375 0,0.609375 -0.4375,1.078125 -0.65625,1.328125 L 0.515625,-0.265625 C 0.4375,-0.203125 0.4375,-0.1875 0.4375,0 h 2.875 z m 0,0"
               id="id-ca5cdbb6-5d56-448c-bb8b-ce6462cbfd2c" />
          </g>
          <g
             id="id-1d719a34-c114-48d2-b096-64cf9f7db58c" />
          <g
             id="id-076d963c-b6f2-4f89-ab4b-a2faaba5cb1f">
            <path
               d="m 3.296875,2.390625 c 0,-0.03125 0,-0.046875 -0.171875,-0.21875 C 1.890625,0.921875 1.5625,-0.96875 1.5625,-2.5 c 0,-1.734375 0.375,-3.46875 1.609375,-4.703125 0.125,-0.125 0.125,-0.140625 0.125,-0.171875 0,-0.078125 -0.03125,-0.109375 -0.09375,-0.109375 -0.109375,0 -1,0.6875 -1.59375,1.953125 -0.5,1.09375 -0.625,2.203125 -0.625,3.03125 0,0.78125 0.109375,1.984375 0.65625,3.125 C 2.25,1.84375 3.09375,2.5 3.203125,2.5 c 0.0625,0 0.09375,-0.03125 0.09375,-0.109375 z m 0,0"
               id="id-4df04d92-cfb7-4c39-b8ab-d5ea27e78a6e" />
          </g>
          <g
             id="id-4fd715ff-442c-4d06-a60b-385268a7beba">
            <path
               d="m 2.9375,-6.375 c 0,-0.25 0,-0.265625 -0.234375,-0.265625 C 2.078125,-6 1.203125,-6 0.890625,-6 v 0.3125 c 0.203125,0 0.78125,0 1.296875,-0.265625 v 5.171875 c 0,0.359375 -0.03125,0.46875 -0.921875,0.46875 h -0.3125 V 0 c 0.34375,-0.03125 1.203125,-0.03125 1.609375,-0.03125 0.390625,0 1.265625,0 1.609375,0.03125 v -0.3125 h -0.3125 c -0.90625,0 -0.921875,-0.109375 -0.921875,-0.46875 z m 0,0"
               id="id-a6168878-6f4e-4e81-bcca-0778343e7134" />
          </g>
          <g
             id="id-a460d61f-47e0-42c0-892f-191ff8ea37e5">
            <path
               d="m 4.078125,-2.296875 h 2.78125 C 7,-2.296875 7.1875,-2.296875 7.1875,-2.5 7.1875,-2.6875 7,-2.6875 6.859375,-2.6875 h -2.78125 v -2.796875 c 0,-0.140625 0,-0.328125 -0.203125,-0.328125 -0.203125,0 -0.203125,0.1875 -0.203125,0.328125 V -2.6875 h -2.78125 c -0.140625,0 -0.328125,0 -0.328125,0.1875 0,0.203125 0.1875,0.203125 0.328125,0.203125 h 2.78125 V 0.5 c 0,0.140625 0,0.328125 0.203125,0.328125 0.203125,0 0.203125,-0.1875 0.203125,-0.328125 z m 0,0"
               id="id-096c8742-0a2f-4a65-b6f9-cc0920a21d36" />
          </g>
          <g
             id="id-dcbd0cfa-b81d-448b-95f5-b79cc2c6dbeb">
            <path
               d="m 2.875,-2.5 c 0,-0.765625 -0.109375,-1.96875 -0.65625,-3.109375 -0.59375,-1.21875 -1.453125,-1.875 -1.546875,-1.875 -0.0625,0 -0.109375,0.046875 -0.109375,0.109375 0,0.03125 0,0.046875 0.1875,0.234375 0.984375,0.984375 1.546875,2.5625 1.546875,4.640625 0,1.71875 -0.359375,3.46875 -1.59375,4.71875 C 0.5625,2.34375 0.5625,2.359375 0.5625,2.390625 0.5625,2.453125 0.609375,2.5 0.671875,2.5 0.765625,2.5 1.671875,1.8125 2.25,0.546875 2.765625,-0.546875 2.875,-1.65625 2.875,-2.5 Z m 0,0"
               id="id-df9bd63a-311e-4f25-99f8-a15103a21960" />
          </g>
          <g
             id="id-911064a2-dcd6-48a1-9917-016e7d6bc13e" />
          <g
             id="id-ece82c63-476a-4313-8025-9a089210951d">
            <path
               d="m 1.859375,-2.296875 c 0.296875,0 1.03125,-0.03125 1.53125,-0.234375 0.703125,-0.296875 0.75,-0.890625 0.75,-1.03125 0,-0.4375 -0.375,-0.84375 -1.0625,-0.84375 -1.109375,0 -2.625,0.96875 -2.625,2.71875 0,1.015625 0.59375,1.796875 1.578125,1.796875 1.421875,0 2.25,-1.0625 2.25,-1.171875 0,-0.0625 -0.046875,-0.140625 -0.109375,-0.140625 -0.0625,0 -0.078125,0.03125 -0.140625,0.109375 -0.78125,0.984375 -1.875,0.984375 -1.984375,0.984375 -0.78125,0 -0.875,-0.84375 -0.875,-1.15625 0,-0.125 0.015625,-0.421875 0.15625,-1.03125 z m -0.46875,-0.21875 C 1.78125,-4.03125 2.8125,-4.1875 3.078125,-4.1875 c 0.453125,0 0.734375,0.296875 0.734375,0.625 0,1.046875 -1.59375,1.046875 -2.015625,1.046875 z m 0,0"
               id="id-e95a294b-aea5-42f0-825d-94a6a3924579" />
          </g>
        </g>
      </defs>
      <g
         fill="#000000"
         fill-opacity="1"
         id="id-3a19a71e-12f4-4c14-9a30-54e647405bae"
         transform="translate(-149.906, -126.076)">
        <g
           transform="translate(149.908, 130.842)"
           id="g1700">
          <path
             d="m 4.15625,-4.21875 c 0.0625,-0.25 0.078125,-0.296875 0.46875,-0.296875 0.078125,0 0.171875,0 0.171875,-0.140625 0,-0.078125 -0.046875,-0.109375 -0.09375,-0.109375 -0.171875,0 -0.59375,0.03125 -0.765625,0.03125 -0.140625,0 -0.375,0 -0.53125,0 -0.171875,-0.015625 -0.375,-0.03125 -0.546875,-0.03125 -0.046875,0 -0.15625,0 -0.15625,0.15625 0,0.09375 0.0625,0.09375 0.265625,0.09375 0.171875,0 0.1875,0 0.375,0.015625 0.203125,0.03125 0.21875,0.046875 0.21875,0.125 0,0.046875 0,0.0625 -0.03125,0.171875 l -0.796875,3.1875 C 2.59375,-0.5 2.15625,-0.0625 1.703125,-0.0625 1.609375,-0.0625 1.15625,-0.078125 1,-0.421875 c 0.40625,0 0.5,-0.328125 0.5,-0.453125 0,-0.1875 -0.171875,-0.296875 -0.328125,-0.296875 -0.1875,0 -0.46875,0.15625 -0.46875,0.546875 0,0.453125 0.4375,0.765625 1.015625,0.765625 0.6875,0 1.453125,-0.4375 1.640625,-1.140625 z m 0,0"
             id="id-f9c85768-de0b-4a0b-91fc-9310e587b1f3" />
        </g>
      </g>
      <path
         fill="none"
         stroke-width="0.398"
         stroke-linecap="butt"
         stroke-linejoin="miter"
         stroke="#000000"
         stroke-opacity="1"
         stroke-miterlimit="10"
         d="M 0,6.1970673 H 5.066406"
         id="id-9452b4d5-5b3d-4229-af32-9e36e239367e" />
      <g
         fill="#000000"
         fill-opacity="1"
         id="id-fb1440fc-24bb-4236-a9be-9b79942a6e8c"
         transform="translate(-149.906, -126.076)">
        <g
           transform="translate(150.455, 138.2)"
           id="g1705">
          <path
             d="M 3.515625,-1.265625 H 3.28125 c -0.015625,0.15625 -0.09375,0.5625 -0.1875,0.625 C 3.046875,-0.59375 2.515625,-0.59375 2.40625,-0.59375 H 1.125 c 0.734375,-0.640625 0.984375,-0.84375 1.390625,-1.171875 0.515625,-0.40625 1,-0.84375 1,-1.5 0,-0.84375 -0.734375,-1.359375 -1.625,-1.359375 -0.859375,0 -1.453125,0.609375 -1.453125,1.25 0,0.34375 0.296875,0.390625 0.375,0.390625 0.15625,0 0.359375,-0.125 0.359375,-0.375 0,-0.125 -0.046875,-0.375 -0.40625,-0.375 C 0.984375,-4.21875 1.453125,-4.375 1.78125,-4.375 c 0.703125,0 1.0625,0.546875 1.0625,1.109375 0,0.609375 -0.4375,1.078125 -0.65625,1.328125 L 0.515625,-0.265625 C 0.4375,-0.203125 0.4375,-0.1875 0.4375,0 h 2.875 z m 0,0"
             id="id-d4d887a4-a3a9-493e-b279-50d9ad8ed122" />
        </g>
      </g>
      <g
         fill="#000000"
         fill-opacity="1"
         id="id-79a826cf-6494-408b-8733-efbc3b54966b"
         transform="translate(-149.906, -126.076)">
        <g
           transform="translate(156.169, 134.765)"
           id="g1709">
          <path
             d="m 3.296875,2.390625 c 0,-0.03125 0,-0.046875 -0.171875,-0.21875 C 1.890625,0.921875 1.5625,-0.96875 1.5625,-2.5 c 0,-1.734375 0.375,-3.46875 1.609375,-4.703125 0.125,-0.125 0.125,-0.140625 0.125,-0.171875 0,-0.078125 -0.03125,-0.109375 -0.09375,-0.109375 -0.109375,0 -1,0.6875 -1.59375,1.953125 -0.5,1.09375 -0.625,2.203125 -0.625,3.03125 0,0.78125 0.109375,1.984375 0.65625,3.125 C 2.25,1.84375 3.09375,2.5 3.203125,2.5 c 0.0625,0 0.09375,-0.03125 0.09375,-0.109375 z m 0,0"
             id="id-942d29f4-e4c1-4590-84e0-895d13cb1e95" />
        </g>
        <g
           transform="translate(160.043, 134.765)"
           id="g1712">
          <path
             d="m 2.9375,-6.375 c 0,-0.25 0,-0.265625 -0.234375,-0.265625 C 2.078125,-6 1.203125,-6 0.890625,-6 v 0.3125 c 0.203125,0 0.78125,0 1.296875,-0.265625 v 5.171875 c 0,0.359375 -0.03125,0.46875 -0.921875,0.46875 h -0.3125 V 0 c 0.34375,-0.03125 1.203125,-0.03125 1.609375,-0.03125 0.390625,0 1.265625,0 1.609375,0.03125 v -0.3125 h -0.3125 c -0.90625,0 -0.921875,-0.109375 -0.921875,-0.46875 z m 0,0"
             id="id-75d37e9c-62e7-49e9-b256-0c868483af52" />
        </g>
      </g>
      <g
         fill="#000000"
         fill-opacity="1"
         id="id-8d1df35e-6a86-4113-bd45-976fbc28ca3a"
         transform="translate(-149.906, -126.076)">
        <g
           transform="translate(167.236, 134.765)"
           id="g1716">
          <path
             d="m 4.078125,-2.296875 h 2.78125 C 7,-2.296875 7.1875,-2.296875 7.1875,-2.5 7.1875,-2.6875 7,-2.6875 6.859375,-2.6875 h -2.78125 v -2.796875 c 0,-0.140625 0,-0.328125 -0.203125,-0.328125 -0.203125,0 -0.203125,0.1875 -0.203125,0.328125 V -2.6875 h -2.78125 c -0.140625,0 -0.328125,0 -0.328125,0.1875 0,0.203125 0.1875,0.203125 0.328125,0.203125 h 2.78125 V 0.5 c 0,0.140625 0,0.328125 0.203125,0.328125 0.203125,0 0.203125,-0.1875 0.203125,-0.328125 z m 0,0"
             id="id-9b34c3af-90fa-4e87-a328-62da37c34a5e" />
        </g>
      </g>
      <g
         fill="#000000"
         fill-opacity="1"
         id="id-9f51393f-4af7-4ecb-8718-01fc96226f8b"
         transform="translate(-149.906, -126.076)">
        <g
           transform="translate(177.201, 134.765)"
           id="g1720">
          <path
             d="m 1.859375,-2.296875 c 0.296875,0 1.03125,-0.03125 1.53125,-0.234375 0.703125,-0.296875 0.75,-0.890625 0.75,-1.03125 0,-0.4375 -0.375,-0.84375 -1.0625,-0.84375 -1.109375,0 -2.625,0.96875 -2.625,2.71875 0,1.015625 0.59375,1.796875 1.578125,1.796875 1.421875,0 2.25,-1.0625 2.25,-1.171875 0,-0.0625 -0.046875,-0.140625 -0.109375,-0.140625 -0.0625,0 -0.078125,0.03125 -0.140625,0.109375 -0.78125,0.984375 -1.875,0.984375 -1.984375,0.984375 -0.78125,0 -0.875,-0.84375 -0.875,-1.15625 0,-0.125 0.015625,-0.421875 0.15625,-1.03125 z m -0.46875,-0.21875 C 1.78125,-4.03125 2.8125,-4.1875 3.078125,-4.1875 c 0.453125,0 0.734375,0.296875 0.734375,0.625 0,1.046875 -1.59375,1.046875 -2.015625,1.046875 z m 0,0"
             id="id-64ed524b-96e9-4c02-9892-dbb20de2b25e" />
        </g>
      </g>
      <g
         fill="#000000"
         fill-opacity="1"
         id="id-c8fe1cdb-ade2-44a6-9826-0f18ac7af38b"
         transform="translate(-149.906, -126.076)">
        <g
           transform="translate(181.84, 131.149)"
           id="g1724">
          <path
             d="m 2.265625,-4.359375 c 0,-0.109375 -0.09375,-0.265625 -0.28125,-0.265625 -0.1875,0 -0.390625,0.1875 -0.390625,0.390625 0,0.109375 0.078125,0.265625 0.28125,0.265625 0.1875,0 0.390625,-0.203125 0.390625,-0.390625 z M 0.84375,-0.8125 c -0.03125,0.09375 -0.0625,0.171875 -0.0625,0.296875 0,0.328125 0.265625,0.578125 0.65625,0.578125 0.6875,0 1,-0.953125 1,-1.0625 0,-0.09375 -0.09375,-0.09375 -0.109375,-0.09375 -0.09375,0 -0.109375,0.046875 -0.140625,0.125 -0.15625,0.5625 -0.453125,0.84375 -0.734375,0.84375 -0.140625,0 -0.171875,-0.09375 -0.171875,-0.25 0,-0.15625 0.046875,-0.28125 0.109375,-0.4375 C 1.46875,-1 1.546875,-1.1875 1.609375,-1.375 1.671875,-1.546875 1.9375,-2.171875 1.953125,-2.265625 1.984375,-2.328125 2,-2.40625 2,-2.484375 2,-2.8125 1.71875,-3.078125 1.34375,-3.078125 0.640625,-3.078125 0.328125,-2.125 0.328125,-2 c 0,0.078125 0.09375,0.078125 0.125,0.078125 0.09375,0 0.09375,-0.03125 0.125,-0.109375 C 0.75,-2.625 1.0625,-2.875 1.3125,-2.875 c 0.109375,0 0.171875,0.046875 0.171875,0.234375 0,0.171875 -0.03125,0.265625 -0.203125,0.703125 z m 0,0"
             id="id-a2ae1e1e-fed0-4740-a8b2-6225129c0827" />
        </g>
        <g
           transform="translate(184.659, 131.149)"
           id="g1727">
          <path
             d="m 3.421875,-4.75 c 0,-0.09375 -0.078125,-0.09375 -0.109375,-0.09375 -0.109375,0 -0.109375,0.046875 -0.140625,0.15625 L 2.78125,-3.09375 c -1.234375,0.0625 -2.296875,0.953125 -2.296875,1.875 0,0.796875 0.71875,1.265625 1.5,1.296875 C 1.921875,0.296875 1.875,0.515625 1.8125,0.734375 1.734375,1.0625 1.671875,1.3125 1.671875,1.34375 c 0,0.078125 0.09375,0.078125 0.109375,0.078125 0.109375,0 0.109375,-0.015625 0.15625,-0.171875 L 2.21875,0.078125 c 1.203125,-0.046875 2.296875,-0.921875 2.296875,-1.875 0,-0.71875 -0.640625,-1.25 -1.5,-1.28125 z M 2.03125,-0.125 C 1.484375,-0.140625 1,-0.4375 1,-1.09375 1,-1.796875 1.53125,-2.78125 2.71875,-2.890625 Z m 0.9375,-2.765625 C 3.5,-2.859375 4,-2.578125 4,-1.90625 c 0,0.75 -0.59375,1.6875 -1.734375,1.78125 z m 0,0"
             id="id-8ee2a8ed-b5ab-4cfa-8d88-c3df5e9e8f10" />
        </g>
      </g>
      <g
         fill="#000000"
         fill-opacity="1"
         id="id-6a5936d4-7cd7-4c53-b852-43104ce8d148"
         transform="translate(-149.906, -126.076)">
        <g
           transform="translate(189.947, 134.765)"
           id="g1731">
          <path
             d="m 2.875,-2.5 c 0,-0.765625 -0.109375,-1.96875 -0.65625,-3.109375 -0.59375,-1.21875 -1.453125,-1.875 -1.546875,-1.875 -0.0625,0 -0.109375,0.046875 -0.109375,0.109375 0,0.03125 0,0.046875 0.1875,0.234375 0.984375,0.984375 1.546875,2.5625 1.546875,4.640625 0,1.71875 -0.359375,3.46875 -1.59375,4.71875 C 0.5625,2.34375 0.5625,2.359375 0.5625,2.390625 0.5625,2.453125 0.609375,2.5 0.671875,2.5 0.765625,2.5 1.671875,1.8125 2.25,0.546875 2.765625,-0.546875 2.875,-1.65625 2.875,-2.5 Z m 0,0"
             id="id-b70537a3-c1b4-48ed-b30f-bb186e796c7f" />
        </g>
      </g>
    </g>
  </g>
</svg>
