<?xml version="1.0" encoding="UTF-8" standalone="no"?>
<!-- Created with Inkscape (http://www.inkscape.org/) -->

<svg
   width="98.385597mm"
   height="63.312519mm"
   viewBox="0 0 98.385597 63.312519"
   version="1.1"
   id="svg30231"
   inkscape:version="1.2.1 (9c6d41e410, 2022-07-14, custom)"
   sodipodi:docname="E_SW0.svg"
   xmlns:inkscape="http://www.inkscape.org/namespaces/inkscape"
   xmlns:sodipodi="http://sodipodi.sourceforge.net/DTD/sodipodi-0.dtd"
   xmlns="http://www.w3.org/2000/svg"
   xmlns:svg="http://www.w3.org/2000/svg"
   xmlns:ns1="http://www.iki.fi/pav/software/textext/">
  <sodipodi:namedview
     id="namedview30233"
     pagecolor="#ffffff"
     bordercolor="#666666"
     borderopacity="1.0"
     inkscape:pageshadow="2"
     inkscape:pageopacity="0.0"
     inkscape:pagecheckerboard="0"
     inkscape:document-units="mm"
     showgrid="false"
     fit-margin-top="0"
     fit-margin-left="0"
     fit-margin-right="0"
     fit-margin-bottom="0"
     inkscape:zoom="2.3831169"
     inkscape:cx="145.60763"
     inkscape:cy="96.51226"
     inkscape:window-width="1920"
     inkscape:window-height="1135"
     inkscape:window-x="0"
     inkscape:window-y="259"
     inkscape:window-maximized="1"
     inkscape:current-layer="g462173"
     inkscape:showpageshadow="2"
     inkscape:deskcolor="#d1d1d1" />
  <defs
     id="defs30228">
    <marker
       style="overflow:visible"
       id="Arrow1Mstart-8-1"
       refX="0"
       refY="0"
       orient="auto"
       inkscape:stockid="Arrow1Mstart"
       inkscape:isstock="true">
      <path
         transform="matrix(0.4,0,0,0.4,4,0)"
         style="fill:context-stroke;fill-rule:evenodd;stroke:context-stroke;stroke-width:1pt"
         d="M 0,0 5,-5 -12.5,0 5,5 Z"
         id="path1315-5-8" />
    </marker>
    <marker
       style="overflow:visible"
       id="Arrow1Mend"
       refX="0"
       refY="0"
       orient="auto"
       inkscape:stockid="Arrow1Mend"
       inkscape:isstock="true">
      <path
         transform="matrix(-0.4,0,0,-0.4,-4,0)"
         style="fill:context-stroke;fill-rule:evenodd;stroke:context-stroke;stroke-width:1pt"
         d="M 0,0 5,-5 -12.5,0 5,5 Z"
         id="path1318" />
    </marker>
    <marker
       style="overflow:visible"
       id="marker30083"
       refX="0"
       refY="0"
       orient="auto"
       inkscape:stockid="Arrow1Mstart"
       inkscape:isstock="true">
      <path
         transform="matrix(0.4,0,0,0.4,4,0)"
         style="fill:context-stroke;fill-rule:evenodd;stroke:context-stroke;stroke-width:1pt"
         d="M 0,0 5,-5 -12.5,0 5,5 Z"
         id="path30081" />
    </marker>
    <marker
       style="overflow:visible"
       id="marker30087"
       refX="0"
       refY="0"
       orient="auto"
       inkscape:stockid="Arrow1Mend"
       inkscape:isstock="true">
      <path
         transform="matrix(-0.4,0,0,-0.4,-4,0)"
         style="fill:context-stroke;fill-rule:evenodd;stroke:context-stroke;stroke-width:1pt"
         d="M 0,0 5,-5 -12.5,0 5,5 Z"
         id="path30085" />
    </marker>
    <marker
       style="overflow:visible"
       id="marker30091"
       refX="0"
       refY="0"
       orient="auto"
       inkscape:stockid="Arrow1Mstart"
       inkscape:isstock="true">
      <path
         transform="matrix(0.4,0,0,0.4,4,0)"
         style="fill:context-stroke;fill-rule:evenodd;stroke:context-stroke;stroke-width:1pt"
         d="M 0,0 5,-5 -12.5,0 5,5 Z"
         id="path30089" />
    </marker>
    <marker
       style="overflow:visible"
       id="marker30095"
       refX="0"
       refY="0"
       orient="auto"
       inkscape:stockid="Arrow1Mend"
       inkscape:isstock="true">
      <path
         transform="matrix(-0.4,0,0,-0.4,-4,0)"
         style="fill:context-stroke;fill-rule:evenodd;stroke:context-stroke;stroke-width:1pt"
         d="M 0,0 5,-5 -12.5,0 5,5 Z"
         id="path30093" />
    </marker>
  </defs>
  <g
     inkscape:label="Layer 1"
     inkscape:groupmode="layer"
     id="layer1"
     transform="translate(-61.656, -49.2587)">
    <g
       id="g462173"
       transform="translate(-4.94491, -815.294)">
      <g
         inkscape:label=""
         transform="matrix(0.59346446,0,0,0.59346446,75.969148,871.36145)"
         id="g215016"
         style="fill:#000000;stroke:#000000">
        <g
           id="g6550"
           style="fill:#000000;stroke:#000000">
          <g
             style="fill:#000000;fill-opacity:1;stroke:#000000"
             id="g3977">
            <g
               id="use4495"
               style="fill:#000000;stroke:#000000"
               transform="translate(91.925003,81.962997)">
              <path
                 style="stroke:none"
                 d="m 1.578125,-7.125 c 0,-0.171875 0,-0.359375 -0.1875,-0.359375 -0.203125,0 -0.203125,0.1875 -0.203125,0.359375 v 9.265625 c 0,0.171875 0,0.359375 0.203125,0.359375 0.1875,0 0.1875,-0.1875 0.1875,-0.359375 z m 0,0"
                 id="path30925" />
            </g>
            <g
               id="use3897"
               style="fill:#000000;stroke:#000000"
               transform="translate(94.692612,81.962997)">
              <path
                 style="stroke:none"
                 d="m 2.6875,-5.53125 c 0.25,0.375 0.515625,0.65625 0.765625,0.84375 0.609375,0.453125 1.21875,0.5625 1.234375,0.5625 0.125,0 0.125,-0.109375 0.125,-0.1875 0,-0.15625 0,-0.171875 -0.234375,-0.25 C 3.90625,-4.75 3.515625,-5.109375 3.296875,-5.359375 2.78125,-5.90625 2.65625,-6.5 2.609375,-6.8125 2.59375,-6.875 2.546875,-6.90625 2.5,-6.90625 c -0.09375,0 -0.109375,0.0625 -0.125,0.171875 C 2.140625,-5.625 1.4375,-4.84375 0.34375,-4.53125 0.1875,-4.484375 0.171875,-4.484375 0.171875,-4.3125 c 0,0.078125 0,0.1875 0.125,0.1875 0.015625,0 0.609375,-0.109375 1.171875,-0.515625 0.328125,-0.25 0.609375,-0.546875 0.828125,-0.890625 v 7.109375 c 0,0.171875 0,0.359375 0.203125,0.359375 0.1875,0 0.1875,-0.1875 0.1875,-0.359375 z m 0,0"
                 id="path30917" />
            </g>
          </g>
          <g
             style="fill:#000000;fill-opacity:1;stroke:#000000"
             id="g5286">
            <g
               id="use8272"
               style="fill:#000000;stroke:#000000"
               transform="translate(99.674004,81.962997)">
              <path
                 style="stroke:none"
                 d="m 2.03125,-0.015625 c 0,-0.65625 -0.25,-1.046875 -0.640625,-1.046875 -0.328125,0 -0.53125,0.25 -0.53125,0.53125 C 0.859375,-0.265625 1.0625,0 1.390625,0 1.5,0 1.640625,-0.046875 1.734375,-0.125 1.765625,-0.15625 1.78125,-0.15625 1.78125,-0.15625 c 0.015625,0 0.015625,0 0.015625,0.140625 0,0.75 -0.34375,1.34375 -0.671875,1.671875 -0.109375,0.109375 -0.109375,0.125 -0.109375,0.15625 0,0.078125 0.046875,0.109375 0.09375,0.109375 0.109375,0 0.921875,-0.765625 0.921875,-1.9375 z m 0,0"
                 id="path30909" />
            </g>
          </g>
          <g
             style="fill:#000000;fill-opacity:1;stroke:#000000"
             id="g2787">
            <g
               id="use7850"
               style="fill:#000000;stroke:#000000"
               transform="translate(104.102,81.962997)">
              <path
                 style="stroke:none"
                 d="m 2.6875,-5.53125 c 0.25,0.375 0.515625,0.65625 0.765625,0.84375 0.609375,0.453125 1.21875,0.5625 1.234375,0.5625 0.125,0 0.125,-0.109375 0.125,-0.1875 0,-0.15625 0,-0.171875 -0.234375,-0.25 C 3.90625,-4.75 3.515625,-5.109375 3.296875,-5.359375 2.78125,-5.90625 2.65625,-6.5 2.609375,-6.8125 2.59375,-6.875 2.546875,-6.90625 2.5,-6.90625 c -0.09375,0 -0.109375,0.0625 -0.125,0.171875 C 2.140625,-5.625 1.4375,-4.84375 0.34375,-4.53125 0.1875,-4.484375 0.171875,-4.484375 0.171875,-4.3125 c 0,0.078125 0,0.1875 0.125,0.1875 0.015625,0 0.609375,-0.109375 1.171875,-0.515625 0.328125,-0.25 0.609375,-0.546875 0.828125,-0.890625 v 7.109375 c 0,0.171875 0,0.359375 0.203125,0.359375 0.1875,0 0.1875,-0.1875 0.1875,-0.359375 z m 0,0"
                 id="path30921" />
            </g>
            <g
               id="use5677"
               style="fill:#000000;stroke:#000000"
               transform="translate(109.0833,81.962997)">
              <path
                 style="stroke:none"
                 d="M 2.71875,-2.328125 C 2.765625,-2.4375 2.765625,-2.46875 2.765625,-2.5 c 0,-0.015625 0,-0.046875 -0.046875,-0.15625 L 0.984375,-7.25 c -0.0625,-0.171875 -0.125,-0.234375 -0.234375,-0.234375 -0.109375,0 -0.203125,0.09375 -0.203125,0.203125 0,0.03125 0,0.046875 0.046875,0.15625 L 2.359375,-2.5 0.59375,2.109375 C 0.546875,2.21875 0.546875,2.25 0.546875,2.296875 0.546875,2.40625 0.640625,2.5 0.75,2.5 0.875,2.5 0.921875,2.390625 0.953125,2.296875 Z m 0,0"
                 id="path30913" />
            </g>
          </g>
        </g>
      </g>
      <g
         inkscape:label=""
         transform="matrix(0.59346446,0,0,0.59346446,50.338035,821.57219)"
         id="g215290"
         style="fill:#000000;stroke:#000000">
        <g
           id="g8074"
           style="fill:#000000;stroke:#000000">
          <g
             style="fill:#000000;fill-opacity:1;stroke:#000000"
             id="g485">
            <g
               id="use4029"
               style="fill:#000000;stroke:#000000"
               transform="translate(91.925003,81.962997)">
              <path
                 style="stroke:none"
                 d="m 1.578125,-7.125 c 0,-0.171875 0,-0.359375 -0.1875,-0.359375 -0.203125,0 -0.203125,0.1875 -0.203125,0.359375 v 9.265625 c 0,0.171875 0,0.359375 0.203125,0.359375 0.1875,0 0.1875,-0.1875 0.1875,-0.359375 z m 0,0"
                 id="path30905" />
            </g>
            <g
               id="use9817"
               style="fill:#000000;stroke:#000000"
               transform="translate(94.692612,81.962997)">
              <path
                 style="stroke:none"
                 d="m 2.6875,-5.53125 c 0.25,0.375 0.515625,0.65625 0.765625,0.84375 0.609375,0.453125 1.21875,0.5625 1.234375,0.5625 0.125,0 0.125,-0.109375 0.125,-0.1875 0,-0.15625 0,-0.171875 -0.234375,-0.25 C 3.90625,-4.75 3.515625,-5.109375 3.296875,-5.359375 2.78125,-5.90625 2.65625,-6.5 2.609375,-6.8125 2.59375,-6.875 2.546875,-6.90625 2.5,-6.90625 c -0.09375,0 -0.109375,0.0625 -0.125,0.171875 C 2.140625,-5.625 1.4375,-4.84375 0.34375,-4.53125 0.1875,-4.484375 0.171875,-4.484375 0.171875,-4.3125 c 0,0.078125 0,0.1875 0.125,0.1875 0.015625,0 0.609375,-0.109375 1.171875,-0.515625 0.328125,-0.25 0.609375,-0.546875 0.828125,-0.890625 v 7.109375 c 0,0.171875 0,0.359375 0.203125,0.359375 0.1875,0 0.1875,-0.1875 0.1875,-0.359375 z m 0,0"
                 id="path30901" />
            </g>
            <g
               id="use1988"
               style="fill:#000000;stroke:#000000"
               transform="translate(99.673912,81.962997)">
              <path
                 style="stroke:none"
                 d="m 2.6875,-6.5625 c 0,-0.171875 0,-0.359375 -0.1875,-0.359375 -0.203125,0 -0.203125,0.1875 -0.203125,0.359375 v 7.109375 c -0.25,-0.375 -0.515625,-0.65625 -0.765625,-0.84375 -0.609375,-0.453125 -1.21875,-0.5625 -1.234375,-0.5625 -0.125,0 -0.125,0.109375 -0.125,0.1875 0,0.15625 0,0.171875 0.234375,0.25 C 1.078125,-0.234375 1.46875,0.125 1.6875,0.375 2.203125,0.921875 2.328125,1.515625 2.375,1.828125 2.390625,1.875 2.421875,1.921875 2.5,1.921875 c 0.078125,0 0.09375,-0.0625 0.109375,-0.15625 0.21875,-1.125 0.9375,-1.90625 2.03125,-2.21875 C 4.796875,-0.5 4.8125,-0.5 4.8125,-0.671875 c 0,-0.078125 0,-0.1875 -0.125,-0.1875 -0.015625,0 -0.609375,0.109375 -1.171875,0.515625 C 3.1875,-0.09375 2.90625,0.203125 2.6875,0.546875 Z m 0,0"
                 id="path30897" />
            </g>
          </g>
          <g
             style="fill:#000000;fill-opacity:1;stroke:#000000"
             id="g7219">
            <g
               id="use5665"
               style="fill:#000000;stroke:#000000"
               transform="translate(104.655,81.962997)">
              <path
                 style="stroke:none"
                 d="m 2.03125,-0.015625 c 0,-0.65625 -0.25,-1.046875 -0.640625,-1.046875 -0.328125,0 -0.53125,0.25 -0.53125,0.53125 C 0.859375,-0.265625 1.0625,0 1.390625,0 1.5,0 1.640625,-0.046875 1.734375,-0.125 1.765625,-0.15625 1.78125,-0.15625 1.78125,-0.15625 c 0.015625,0 0.015625,0 0.015625,0.140625 0,0.75 -0.34375,1.34375 -0.671875,1.671875 -0.109375,0.109375 -0.109375,0.125 -0.109375,0.15625 0,0.078125 0.046875,0.109375 0.09375,0.109375 0.109375,0 0.921875,-0.765625 0.921875,-1.9375 z m 0,0"
                 id="path30889" />
            </g>
          </g>
          <g
             style="fill:#000000;fill-opacity:1;stroke:#000000"
             id="g1774">
            <g
               id="use849"
               style="fill:#000000;stroke:#000000"
               transform="translate(109.083,81.962997)">
              <path
                 style="stroke:none"
                 d="m 4.578125,-3.1875 c 0,-0.796875 -0.046875,-1.59375 -0.390625,-2.328125 -0.453125,-0.96875 -1.28125,-1.125 -1.6875,-1.125 -0.609375,0 -1.328125,0.265625 -1.75,1.1875 -0.3125,0.6875 -0.359375,1.46875 -0.359375,2.265625 0,0.75 0.03125,1.640625 0.453125,2.40625 0.421875,0.796875 1.15625,1 1.640625,1 0.53125,0 1.296875,-0.203125 1.734375,-1.15625 0.3125,-0.6875 0.359375,-1.46875 0.359375,-2.25 z M 2.484375,0 C 2.09375,0 1.5,-0.25 1.328125,-1.203125 1.21875,-1.796875 1.21875,-2.71875 1.21875,-3.3125 c 0,-0.640625 0,-1.296875 0.078125,-1.828125 0.1875,-1.1875 0.9375,-1.28125 1.1875,-1.28125 0.328125,0 0.984375,0.1875 1.171875,1.171875 0.109375,0.5625 0.109375,1.3125 0.109375,1.9375 0,0.75 0,1.421875 -0.109375,2.0625 C 3.5,-0.296875 2.9375,0 2.484375,0 Z m 0,0"
                 id="path30885" />
            </g>
          </g>
          <g
             style="fill:#000000;fill-opacity:1;stroke:#000000"
             id="g462">
            <g
               id="use1553"
               style="fill:#000000;stroke:#000000"
               transform="translate(114.064,81.962997)">
              <path
                 style="stroke:none"
                 d="M 2.71875,-2.328125 C 2.765625,-2.4375 2.765625,-2.46875 2.765625,-2.5 c 0,-0.015625 0,-0.046875 -0.046875,-0.15625 L 0.984375,-7.25 c -0.0625,-0.171875 -0.125,-0.234375 -0.234375,-0.234375 -0.109375,0 -0.203125,0.09375 -0.203125,0.203125 0,0.03125 0,0.046875 0.046875,0.15625 L 2.359375,-2.5 0.59375,2.109375 C 0.546875,2.21875 0.546875,2.25 0.546875,2.296875 0.546875,2.40625 0.640625,2.5 0.75,2.5 0.875,2.5 0.921875,2.390625 0.953125,2.296875 Z m 0,0"
                 id="path30893" />
            </g>
          </g>
        </g>
      </g>
      <g
         inkscape:label=""
         transform="matrix(0.59346446,0,0,0.59346446,32.879473,821.47289)"
         id="g215635"
         style="fill:#000000;stroke:#000000">
        <g
           id="g5478"
           style="fill:#000000;stroke:#000000">
          <g
             style="fill:#000000;fill-opacity:1;stroke:#000000"
             id="g215624">
            <g
               id="use7658"
               style="fill:#000000;stroke:#000000"
               transform="translate(91.925003,81.962997)">
              <path
                 style="stroke:none"
                 d="m 1.578125,-7.125 c 0,-0.171875 0,-0.359375 -0.1875,-0.359375 -0.203125,0 -0.203125,0.1875 -0.203125,0.359375 v 9.265625 c 0,0.171875 0,0.359375 0.203125,0.359375 0.1875,0 0.1875,-0.1875 0.1875,-0.359375 z m 0,0"
                 id="path30881" />
            </g>
          </g>
          <g
             style="fill:#000000;fill-opacity:1;stroke:#000000"
             id="g5730">
            <g
               id="use1681"
               style="fill:#000000;stroke:#000000"
               transform="translate(94.693001,81.962997)">
              <path
                 style="stroke:none"
                 d="m 4.578125,-3.1875 c 0,-0.796875 -0.046875,-1.59375 -0.390625,-2.328125 -0.453125,-0.96875 -1.28125,-1.125 -1.6875,-1.125 -0.609375,0 -1.328125,0.265625 -1.75,1.1875 -0.3125,0.6875 -0.359375,1.46875 -0.359375,2.265625 0,0.75 0.03125,1.640625 0.453125,2.40625 0.421875,0.796875 1.15625,1 1.640625,1 0.53125,0 1.296875,-0.203125 1.734375,-1.15625 0.3125,-0.6875 0.359375,-1.46875 0.359375,-2.25 z M 2.484375,0 C 2.09375,0 1.5,-0.25 1.328125,-1.203125 1.21875,-1.796875 1.21875,-2.71875 1.21875,-3.3125 c 0,-0.640625 0,-1.296875 0.078125,-1.828125 0.1875,-1.1875 0.9375,-1.28125 1.1875,-1.28125 0.328125,0 0.984375,0.1875 1.171875,1.171875 0.109375,0.5625 0.109375,1.3125 0.109375,1.9375 0,0.75 0,1.421875 -0.109375,2.0625 C 3.5,-0.296875 2.9375,0 2.484375,0 Z m 0,0"
                 id="path30865" />
            </g>
          </g>
          <g
             style="fill:#000000;fill-opacity:1;stroke:#000000"
             id="g3360">
            <g
               id="use1872"
               style="fill:#000000;stroke:#000000"
               transform="translate(99.674004,81.962997)">
              <path
                 style="stroke:none"
                 d="m 2.03125,-0.015625 c 0,-0.65625 -0.25,-1.046875 -0.640625,-1.046875 -0.328125,0 -0.53125,0.25 -0.53125,0.53125 C 0.859375,-0.265625 1.0625,0 1.390625,0 1.5,0 1.640625,-0.046875 1.734375,-0.125 1.765625,-0.15625 1.78125,-0.15625 1.78125,-0.15625 c 0.015625,0 0.015625,0 0.015625,0.140625 0,0.75 -0.34375,1.34375 -0.671875,1.671875 -0.109375,0.109375 -0.109375,0.125 -0.109375,0.15625 0,0.078125 0.046875,0.109375 0.09375,0.109375 0.109375,0 0.921875,-0.765625 0.921875,-1.9375 z m 0,0"
                 id="path30861" />
            </g>
          </g>
          <g
             style="fill:#000000;fill-opacity:1;stroke:#000000"
             id="g1731">
            <g
               id="use2899"
               style="fill:#000000;stroke:#000000"
               transform="translate(104.102,81.962997)">
              <path
                 style="stroke:none"
                 d="m 2.6875,-5.53125 c 0.25,0.375 0.515625,0.65625 0.765625,0.84375 0.609375,0.453125 1.21875,0.5625 1.234375,0.5625 0.125,0 0.125,-0.109375 0.125,-0.1875 0,-0.15625 0,-0.171875 -0.234375,-0.25 C 3.90625,-4.75 3.515625,-5.109375 3.296875,-5.359375 2.78125,-5.90625 2.65625,-6.5 2.609375,-6.8125 2.59375,-6.875 2.546875,-6.90625 2.5,-6.90625 c -0.09375,0 -0.109375,0.0625 -0.125,0.171875 C 2.140625,-5.625 1.4375,-4.84375 0.34375,-4.53125 0.1875,-4.484375 0.171875,-4.484375 0.171875,-4.3125 c 0,0.078125 0,0.1875 0.125,0.1875 0.015625,0 0.609375,-0.109375 1.171875,-0.515625 0.328125,-0.25 0.609375,-0.546875 0.828125,-0.890625 v 7.109375 c 0,0.171875 0,0.359375 0.203125,0.359375 0.1875,0 0.1875,-0.1875 0.1875,-0.359375 z m 0,0"
                 id="path30877" />
            </g>
            <g
               id="use7312"
               style="fill:#000000;stroke:#000000"
               transform="translate(109.0833,81.962997)">
              <path
                 style="stroke:none"
                 d="m 2.6875,-6.5625 c 0,-0.171875 0,-0.359375 -0.1875,-0.359375 -0.203125,0 -0.203125,0.1875 -0.203125,0.359375 v 7.109375 c -0.25,-0.375 -0.515625,-0.65625 -0.765625,-0.84375 -0.609375,-0.453125 -1.21875,-0.5625 -1.234375,-0.5625 -0.125,0 -0.125,0.109375 -0.125,0.1875 0,0.15625 0,0.171875 0.234375,0.25 C 1.078125,-0.234375 1.46875,0.125 1.6875,0.375 2.203125,0.921875 2.328125,1.515625 2.375,1.828125 2.390625,1.875 2.421875,1.921875 2.5,1.921875 c 0.078125,0 0.09375,-0.0625 0.109375,-0.15625 0.21875,-1.125 0.9375,-1.90625 2.03125,-2.21875 C 4.796875,-0.5 4.8125,-0.5 4.8125,-0.671875 c 0,-0.078125 0,-0.1875 -0.125,-0.1875 -0.015625,0 -0.609375,0.109375 -1.171875,0.515625 C 3.1875,-0.09375 2.90625,0.203125 2.6875,0.546875 Z m 0,0"
                 id="path30873" />
            </g>
            <g
               id="use544"
               style="fill:#000000;stroke:#000000"
               transform="translate(114.0646,81.962997)">
              <path
                 style="stroke:none"
                 d="M 2.71875,-2.328125 C 2.765625,-2.4375 2.765625,-2.46875 2.765625,-2.5 c 0,-0.015625 0,-0.046875 -0.046875,-0.15625 L 0.984375,-7.25 c -0.0625,-0.171875 -0.125,-0.234375 -0.234375,-0.234375 -0.109375,0 -0.203125,0.09375 -0.203125,0.203125 0,0.03125 0,0.046875 0.046875,0.15625 L 2.359375,-2.5 0.59375,2.109375 C 0.546875,2.21875 0.546875,2.25 0.546875,2.296875 0.546875,2.40625 0.640625,2.5 0.75,2.5 0.875,2.5 0.921875,2.390625 0.953125,2.296875 Z m 0,0"
                 id="path30869" />
            </g>
          </g>
        </g>
      </g>
      <g
         inkscape:label=""
         transform="matrix(0.59346446,0,0,0.59346446,51.815969,871.36145)"
         id="g216035"
         style="fill:#000000;stroke:#000000">
        <g
           id="g3376"
           style="fill:#000000;stroke:#000000">
          <g
             style="fill:#000000;fill-opacity:1;stroke:#000000"
             id="g9036">
            <g
               id="use9079"
               style="fill:#000000;stroke:#000000"
               transform="translate(91.925003,81.962997)">
              <path
                 style="stroke:none"
                 d="m 1.578125,-7.125 c 0,-0.171875 0,-0.359375 -0.1875,-0.359375 -0.203125,0 -0.203125,0.1875 -0.203125,0.359375 v 9.265625 c 0,0.171875 0,0.359375 0.203125,0.359375 0.1875,0 0.1875,-0.1875 0.1875,-0.359375 z m 0,0"
                 id="path30857" />
            </g>
            <g
               id="use4785"
               style="fill:#000000;stroke:#000000"
               transform="translate(94.692612,81.962997)">
              <path
                 style="stroke:none"
                 d="m 2.6875,-5.53125 c 0.25,0.375 0.515625,0.65625 0.765625,0.84375 0.609375,0.453125 1.21875,0.5625 1.234375,0.5625 0.125,0 0.125,-0.109375 0.125,-0.1875 0,-0.15625 0,-0.171875 -0.234375,-0.25 C 3.90625,-4.75 3.515625,-5.109375 3.296875,-5.359375 2.78125,-5.90625 2.65625,-6.5 2.609375,-6.8125 2.59375,-6.875 2.546875,-6.90625 2.5,-6.90625 c -0.09375,0 -0.109375,0.0625 -0.125,0.171875 C 2.140625,-5.625 1.4375,-4.84375 0.34375,-4.53125 0.1875,-4.484375 0.171875,-4.484375 0.171875,-4.3125 c 0,0.078125 0,0.1875 0.125,0.1875 0.015625,0 0.609375,-0.109375 1.171875,-0.515625 0.328125,-0.25 0.609375,-0.546875 0.828125,-0.890625 v 7.109375 c 0,0.171875 0,0.359375 0.203125,0.359375 0.1875,0 0.1875,-0.1875 0.1875,-0.359375 z m 0,0"
                 id="path30853" />
            </g>
          </g>
          <g
             style="fill:#000000;fill-opacity:1;stroke:#000000"
             id="g7160">
            <g
               id="use9461"
               style="fill:#000000;stroke:#000000"
               transform="translate(99.674004,81.962997)">
              <path
                 style="stroke:none"
                 d="m 2.03125,-0.015625 c 0,-0.65625 -0.25,-1.046875 -0.640625,-1.046875 -0.328125,0 -0.53125,0.25 -0.53125,0.53125 C 0.859375,-0.265625 1.0625,0 1.390625,0 1.5,0 1.640625,-0.046875 1.734375,-0.125 1.765625,-0.15625 1.78125,-0.15625 1.78125,-0.15625 c 0.015625,0 0.015625,0 0.015625,0.140625 0,0.75 -0.34375,1.34375 -0.671875,1.671875 -0.109375,0.109375 -0.109375,0.125 -0.109375,0.15625 0,0.078125 0.046875,0.109375 0.09375,0.109375 0.109375,0 0.921875,-0.765625 0.921875,-1.9375 z m 0,0"
                 id="path30841" />
            </g>
          </g>
          <g
             style="fill:#000000;fill-opacity:1;stroke:#000000"
             id="g241">
            <g
               id="use2135"
               style="fill:#000000;stroke:#000000"
               transform="translate(104.102,81.962997)">
              <path
                 style="stroke:none"
                 d="m 2.6875,-6.5625 c 0,-0.171875 0,-0.359375 -0.1875,-0.359375 -0.203125,0 -0.203125,0.1875 -0.203125,0.359375 v 7.109375 c -0.25,-0.375 -0.515625,-0.65625 -0.765625,-0.84375 -0.609375,-0.453125 -1.21875,-0.5625 -1.234375,-0.5625 -0.125,0 -0.125,0.109375 -0.125,0.1875 0,0.15625 0,0.171875 0.234375,0.25 C 1.078125,-0.234375 1.46875,0.125 1.6875,0.375 2.203125,0.921875 2.328125,1.515625 2.375,1.828125 2.390625,1.875 2.421875,1.921875 2.5,1.921875 c 0.078125,0 0.09375,-0.0625 0.109375,-0.15625 0.21875,-1.125 0.9375,-1.90625 2.03125,-2.21875 C 4.796875,-0.5 4.8125,-0.5 4.8125,-0.671875 c 0,-0.078125 0,-0.1875 -0.125,-0.1875 -0.015625,0 -0.609375,0.109375 -1.171875,0.515625 C 3.1875,-0.09375 2.90625,0.203125 2.6875,0.546875 Z m 0,0"
                 id="path30849" />
            </g>
            <g
               id="use9255"
               style="fill:#000000;stroke:#000000"
               transform="translate(109.0833,81.962997)">
              <path
                 style="stroke:none"
                 d="M 2.71875,-2.328125 C 2.765625,-2.4375 2.765625,-2.46875 2.765625,-2.5 c 0,-0.015625 0,-0.046875 -0.046875,-0.15625 L 0.984375,-7.25 c -0.0625,-0.171875 -0.125,-0.234375 -0.234375,-0.234375 -0.109375,0 -0.203125,0.09375 -0.203125,0.203125 0,0.03125 0,0.046875 0.046875,0.15625 L 2.359375,-2.5 0.59375,2.109375 C 0.546875,2.21875 0.546875,2.25 0.546875,2.296875 0.546875,2.40625 0.640625,2.5 0.75,2.5 0.875,2.5 0.921875,2.390625 0.953125,2.296875 Z m 0,0"
                 id="path30845" />
            </g>
          </g>
        </g>
      </g>
      <g
         id="g216566"
         transform="matrix(0.59346446,0,0,0.59346446,42.233354,799.45643)"
         style="fill:#000000;stroke:#000000">
        <g
           id="use207"
           style="fill:#000000;fill-opacity:1;stroke:#000000"
           transform="translate(78.65417,203.12446)">
          <path
             style="stroke:none"
             d="m 1.578125,-7.125 c 0,-0.171875 0,-0.359375 -0.1875,-0.359375 -0.203125,0 -0.203125,0.1875 -0.203125,0.359375 v 9.265625 c 0,0.171875 0,0.359375 0.203125,0.359375 0.1875,0 0.1875,-0.1875 0.1875,-0.359375 z m 0,0"
             id="path30837" />
        </g>
        <g
           id="use5669"
           style="fill:#000000;fill-opacity:1;stroke:#000000"
           transform="translate(81.421779,203.12446)">
          <path
             style="stroke:none"
             d="m 2.6875,-6.5625 c 0,-0.171875 0,-0.359375 -0.1875,-0.359375 -0.203125,0 -0.203125,0.1875 -0.203125,0.359375 v 7.109375 c -0.25,-0.375 -0.515625,-0.65625 -0.765625,-0.84375 -0.609375,-0.453125 -1.21875,-0.5625 -1.234375,-0.5625 -0.125,0 -0.125,0.109375 -0.125,0.1875 0,0.15625 0,0.171875 0.234375,0.25 C 1.078125,-0.234375 1.46875,0.125 1.6875,0.375 2.203125,0.921875 2.328125,1.515625 2.375,1.828125 2.390625,1.875 2.421875,1.921875 2.5,1.921875 c 0.078125,0 0.09375,-0.0625 0.109375,-0.15625 0.21875,-1.125 0.9375,-1.90625 2.03125,-2.21875 C 4.796875,-0.5 4.8125,-0.5 4.8125,-0.671875 c 0,-0.078125 0,-0.1875 -0.125,-0.1875 -0.015625,0 -0.609375,0.109375 -1.171875,0.515625 C 3.1875,-0.09375 2.90625,0.203125 2.6875,0.546875 Z m 0,0"
             id="path30833" />
        </g>
        <g
           id="use607"
           style="fill:#000000;fill-opacity:1;stroke:#000000"
           transform="translate(86.403171,203.12446)">
          <path
             style="stroke:none"
             d="m 2.03125,-0.015625 c 0,-0.65625 -0.25,-1.046875 -0.640625,-1.046875 -0.328125,0 -0.53125,0.25 -0.53125,0.53125 C 0.859375,-0.265625 1.0625,0 1.390625,0 1.5,0 1.640625,-0.046875 1.734375,-0.125 1.765625,-0.15625 1.78125,-0.15625 1.78125,-0.15625 c 0.015625,0 0.015625,0 0.015625,0.140625 0,0.75 -0.34375,1.34375 -0.671875,1.671875 -0.109375,0.109375 -0.109375,0.125 -0.109375,0.15625 0,0.078125 0.046875,0.109375 0.09375,0.109375 0.109375,0 0.921875,-0.765625 0.921875,-1.9375 z m 0,0"
             id="path30821" />
        </g>
        <g
           id="use8524"
           style="fill:#000000;fill-opacity:1;stroke:#000000"
           transform="translate(90.831164,203.12446)">
          <path
             style="stroke:none"
             d="m 2.6875,-5.53125 c 0.25,0.375 0.515625,0.65625 0.765625,0.84375 0.609375,0.453125 1.21875,0.5625 1.234375,0.5625 0.125,0 0.125,-0.109375 0.125,-0.1875 0,-0.15625 0,-0.171875 -0.234375,-0.25 C 3.90625,-4.75 3.515625,-5.109375 3.296875,-5.359375 2.78125,-5.90625 2.65625,-6.5 2.609375,-6.8125 2.59375,-6.875 2.546875,-6.90625 2.5,-6.90625 c -0.09375,0 -0.109375,0.0625 -0.125,0.171875 C 2.140625,-5.625 1.4375,-4.84375 0.34375,-4.53125 0.1875,-4.484375 0.171875,-4.484375 0.171875,-4.3125 c 0,0.078125 0,0.1875 0.125,0.1875 0.015625,0 0.609375,-0.109375 1.171875,-0.515625 0.328125,-0.25 0.609375,-0.546875 0.828125,-0.890625 v 7.109375 c 0,0.171875 0,0.359375 0.203125,0.359375 0.1875,0 0.1875,-0.1875 0.1875,-0.359375 z m 0,0"
             id="path30829" />
        </g>
        <g
           id="use8528"
           style="fill:#000000;fill-opacity:1;stroke:#000000"
           transform="translate(95.812465,203.12446)">
          <path
             style="stroke:none"
             d="M 2.71875,-2.328125 C 2.765625,-2.4375 2.765625,-2.46875 2.765625,-2.5 c 0,-0.015625 0,-0.046875 -0.046875,-0.15625 L 0.984375,-7.25 c -0.0625,-0.171875 -0.125,-0.234375 -0.234375,-0.234375 -0.109375,0 -0.203125,0.09375 -0.203125,0.203125 0,0.03125 0,0.046875 0.046875,0.15625 L 2.359375,-2.5 0.59375,2.109375 C 0.546875,2.21875 0.546875,2.25 0.546875,2.296875 0.546875,2.40625 0.640625,2.5 0.75,2.5 0.875,2.5 0.921875,2.390625 0.953125,2.296875 Z m 0,0"
             id="path30825" />
        </g>
      </g>
      <g
         inkscape:label=""
         transform="matrix(0.59346446,0,0,0.59346446,97.822023,871.36145)"
         id="g217004"
         style="fill:#000000;stroke:#000000">
        <g
           id="g4231"
           style="fill:#000000;stroke:#000000">
          <g
             style="fill:#000000;fill-opacity:1;stroke:#000000"
             id="g8178">
            <g
               id="use4387"
               style="fill:#000000;stroke:#000000"
               transform="translate(91.925003,81.962997)">
              <path
                 style="stroke:none"
                 d="m 1.578125,-7.125 c 0,-0.171875 0,-0.359375 -0.1875,-0.359375 -0.203125,0 -0.203125,0.1875 -0.203125,0.359375 v 9.265625 c 0,0.171875 0,0.359375 0.203125,0.359375 0.1875,0 0.1875,-0.1875 0.1875,-0.359375 z m 0,0"
                 id="path30817" />
            </g>
            <g
               id="use7929"
               style="fill:#000000;stroke:#000000"
               transform="translate(94.692612,81.962997)">
              <path
                 style="stroke:none"
                 d="m 2.6875,-6.5625 c 0,-0.171875 0,-0.359375 -0.1875,-0.359375 -0.203125,0 -0.203125,0.1875 -0.203125,0.359375 v 7.109375 c -0.25,-0.375 -0.515625,-0.65625 -0.765625,-0.84375 -0.609375,-0.453125 -1.21875,-0.5625 -1.234375,-0.5625 -0.125,0 -0.125,0.109375 -0.125,0.1875 0,0.15625 0,0.171875 0.234375,0.25 C 1.078125,-0.234375 1.46875,0.125 1.6875,0.375 2.203125,0.921875 2.328125,1.515625 2.375,1.828125 2.390625,1.875 2.421875,1.921875 2.5,1.921875 c 0.078125,0 0.09375,-0.0625 0.109375,-0.15625 0.21875,-1.125 0.9375,-1.90625 2.03125,-2.21875 C 4.796875,-0.5 4.8125,-0.5 4.8125,-0.671875 c 0,-0.078125 0,-0.1875 -0.125,-0.1875 -0.015625,0 -0.609375,0.109375 -1.171875,0.515625 C 3.1875,-0.09375 2.90625,0.203125 2.6875,0.546875 Z m 0,0"
                 id="path30809" />
            </g>
          </g>
          <g
             style="fill:#000000;fill-opacity:1;stroke:#000000"
             id="g3778">
            <g
               id="use2845"
               style="fill:#000000;stroke:#000000"
               transform="translate(99.674004,81.962997)">
              <path
                 style="stroke:none"
                 d="m 2.03125,-0.015625 c 0,-0.65625 -0.25,-1.046875 -0.640625,-1.046875 -0.328125,0 -0.53125,0.25 -0.53125,0.53125 C 0.859375,-0.265625 1.0625,0 1.390625,0 1.5,0 1.640625,-0.046875 1.734375,-0.125 1.765625,-0.15625 1.78125,-0.15625 1.78125,-0.15625 c 0.015625,0 0.015625,0 0.015625,0.140625 0,0.75 -0.34375,1.34375 -0.671875,1.671875 -0.109375,0.109375 -0.109375,0.125 -0.109375,0.15625 0,0.078125 0.046875,0.109375 0.09375,0.109375 0.109375,0 0.921875,-0.765625 0.921875,-1.9375 z m 0,0"
                 id="path30801" />
            </g>
          </g>
          <g
             style="fill:#000000;fill-opacity:1;stroke:#000000"
             id="g708">
            <g
               id="use9978"
               style="fill:#000000;stroke:#000000"
               transform="translate(104.102,81.962997)">
              <path
                 style="stroke:none"
                 d="m 2.6875,-6.5625 c 0,-0.171875 0,-0.359375 -0.1875,-0.359375 -0.203125,0 -0.203125,0.1875 -0.203125,0.359375 v 7.109375 c -0.25,-0.375 -0.515625,-0.65625 -0.765625,-0.84375 -0.609375,-0.453125 -1.21875,-0.5625 -1.234375,-0.5625 -0.125,0 -0.125,0.109375 -0.125,0.1875 0,0.15625 0,0.171875 0.234375,0.25 C 1.078125,-0.234375 1.46875,0.125 1.6875,0.375 2.203125,0.921875 2.328125,1.515625 2.375,1.828125 2.390625,1.875 2.421875,1.921875 2.5,1.921875 c 0.078125,0 0.09375,-0.0625 0.109375,-0.15625 0.21875,-1.125 0.9375,-1.90625 2.03125,-2.21875 C 4.796875,-0.5 4.8125,-0.5 4.8125,-0.671875 c 0,-0.078125 0,-0.1875 -0.125,-0.1875 -0.015625,0 -0.609375,0.109375 -1.171875,0.515625 C 3.1875,-0.09375 2.90625,0.203125 2.6875,0.546875 Z m 0,0"
                 id="path30813" />
            </g>
            <g
               id="use9501"
               style="fill:#000000;stroke:#000000"
               transform="translate(109.0833,81.962997)">
              <path
                 style="stroke:none"
                 d="M 2.71875,-2.328125 C 2.765625,-2.4375 2.765625,-2.46875 2.765625,-2.5 c 0,-0.015625 0,-0.046875 -0.046875,-0.15625 L 0.984375,-7.25 c -0.0625,-0.171875 -0.125,-0.234375 -0.234375,-0.234375 -0.109375,0 -0.203125,0.09375 -0.203125,0.203125 0,0.03125 0,0.046875 0.046875,0.15625 L 2.359375,-2.5 0.59375,2.109375 C 0.546875,2.21875 0.546875,2.25 0.546875,2.296875 0.546875,2.40625 0.640625,2.5 0.75,2.5 0.875,2.5 0.921875,2.390625 0.953125,2.296875 Z m 0,0"
                 id="path30805" />
            </g>
          </g>
        </g>
      </g>
      <g
         inkscape:label=""
         transform="matrix(0.59346446,0,0,0.59346446,20.741732,876.36758)"
         id="g217576"
         style="fill:#000000;stroke:#000000">
        <g
           id="g8133"
           style="fill:#000000;stroke:#000000">
          <g
             style="fill:#000000;fill-opacity:1;stroke:#000000"
             id="g9289">
            <g
               id="use9840"
               style="fill:#000000;stroke:#000000"
               transform="translate(91.925003,81.962997)">
              <path
                 style="stroke:none"
                 d="m 4.578125,-3.1875 c 0,-0.796875 -0.046875,-1.59375 -0.390625,-2.328125 -0.453125,-0.96875 -1.28125,-1.125 -1.6875,-1.125 -0.609375,0 -1.328125,0.265625 -1.75,1.1875 -0.3125,0.6875 -0.359375,1.46875 -0.359375,2.265625 0,0.75 0.03125,1.640625 0.453125,2.40625 0.421875,0.796875 1.15625,1 1.640625,1 0.53125,0 1.296875,-0.203125 1.734375,-1.15625 0.3125,-0.6875 0.359375,-1.46875 0.359375,-2.25 z M 2.484375,0 C 2.09375,0 1.5,-0.25 1.328125,-1.203125 1.21875,-1.796875 1.21875,-2.71875 1.21875,-3.3125 c 0,-0.640625 0,-1.296875 0.078125,-1.828125 0.1875,-1.1875 0.9375,-1.28125 1.1875,-1.28125 0.328125,0 0.984375,0.1875 1.171875,1.171875 0.109375,0.5625 0.109375,1.3125 0.109375,1.9375 0,0.75 0,1.421875 -0.109375,2.0625 C 3.5,-0.296875 2.9375,0 2.484375,0 Z m 0,0"
                 id="path30797" />
            </g>
          </g>
        </g>
      </g>
      <g
         id="path327"
         style="fill:#000000;stroke:#000000"
         transform="matrix(0.59346446,0,0,0.59346446,64.493217,815.73205)">
        <path
           style="color:#000000;fill:#000000;fill-rule:evenodd;stroke:#000000;stroke-width:0.24pt;-inkscape-stroke:none"
           d="m 31.75,87.666667 1.2,1.2 -1.2,-4.2 -1.2,4.2 z"
           id="path331" />
        <path
           style="color:#000000;fill:#000000;fill-rule:evenodd;stroke:#000000;-inkscape-stroke:none"
           d="m 31.75,84.083984 -1.523438,5.332032 1.523438,-1.523438 1.523437,1.523438 z m 0,1.166016 0.876953,3.068359 -0.876953,-0.878906 -0.113281,0.113281 -0.763672,0.765625 z"
           id="path333" />
      </g>
      <path
         style="color:#000000;fill:#000000;stroke:#000000;stroke-width:0.593464;stroke-linecap:square;-inkscape-stroke:none;paint-order:fill markers stroke"
         d="m 83.246462,866.3249 v 0.0881 61.15557 h 0.178503 V 866.413 866.3249 Z"
         id="path343"
         sodipodi:nodetypes="ccccccc" />
      <path
         style="fill:#000000;stroke:#000000;stroke-width:0.178039;paint-order:fill markers stroke"
         d="M 83.335714,872.85747 H 80.195297"
         id="path217643" />
      <path
         style="fill:#000000;stroke:#000000;stroke-width:0.178039;paint-order:fill markers stroke"
         d="m 80.195297,923.10413 h 3.140417"
         id="path217731" />
      <path
         style="fill:#000000;stroke:#000000;stroke-width:0.593464;stroke-miterlimit:4;stroke-dasharray:none;paint-order:fill markers stroke"
         d="m 86.47613,923.10413 h 34.54458"
         id="path218971" />
      <g
         inkscape:label=""
         transform="matrix(0,-0.59346446,0.59346446,0,21.983235,955.43867)"
         id="g221018"
         style="fill:#000000;stroke:#000000">
        <g
           id="g8828"
           style="fill:#000000;stroke:#000000">
          <g
             style="fill:#000000;fill-opacity:1;stroke:#000000"
             id="g2725">
            <g
               id="use8595"
               style="fill:#000000;stroke:#000000"
               transform="translate(91.925003,81.962997)">
              <path
                 style="stroke:none"
                 d="M 7.0625,-2.328125 C 7.078125,-2.375 7.109375,-2.4375 7.109375,-2.46875 c 0,0 0,-0.109375 -0.125,-0.109375 -0.09375,0 -0.109375,0.0625 -0.125,0.125 C 6.203125,-0.984375 5.84375,-0.3125 4.140625,-0.3125 H 2.6875 c -0.140625,0 -0.171875,0 -0.21875,0 -0.109375,-0.015625 -0.140625,-0.03125 -0.140625,-0.109375 0,-0.03125 0,-0.046875 0.046875,-0.21875 L 3.0625,-3.375 h 0.984375 c 0.84375,0 0.84375,0.21875 0.84375,0.46875 0,0.0625 0,0.1875 -0.0625,0.484375 C 4.8125,-2.375 4.796875,-2.34375 4.796875,-2.3125 c 0,0.046875 0.03125,0.109375 0.125,0.109375 C 5,-2.203125 5.03125,-2.25 5.078125,-2.40625 l 0.5625,-2.328125 c 0,-0.0625 -0.046875,-0.109375 -0.125,-0.109375 -0.078125,0 -0.109375,0.0625 -0.125,0.171875 -0.21875,0.765625 -0.390625,1 -1.3125,1 h -0.9375 l 0.59375,-2.40625 C 3.828125,-6.4375 3.84375,-6.46875 4.28125,-6.46875 H 5.6875 c 1.203125,0 1.515625,0.28125 1.515625,1.109375 0,0.234375 0,0.25 -0.046875,0.53125 0,0.046875 -0.015625,0.125 -0.015625,0.171875 0,0.046875 0.03125,0.125 0.125,0.125 0.109375,0 0.125,-0.0625 0.140625,-0.25 L 7.609375,-6.515625 C 7.640625,-6.78125 7.59375,-6.78125 7.34375,-6.78125 H 2.296875 c -0.1875,0 -0.296875,0 -0.296875,0.203125 0,0.109375 0.09375,0.109375 0.28125,0.109375 0.375,0 0.65625,0 0.65625,0.171875 0,0.046875 0,0.0625 -0.0625,0.25 L 1.5625,-0.78125 c -0.09375,0.390625 -0.109375,0.46875 -0.90625,0.46875 -0.171875,0 -0.28125,0 -0.28125,0.1875 C 0.375,0 0.46875,0 0.65625,0 h 5.171875 c 0.234375,0 0.25,-0.015625 0.3125,-0.171875 z m 0,0"
                 id="path30793" />
            </g>
          </g>
        </g>
      </g>
      <path
         style="fill:none;stroke:#000000;stroke-width:0.675525;stroke-linecap:butt;stroke-linejoin:miter;stroke-miterlimit:4;stroke-dasharray:1.35105, 0.675525;stroke-dashoffset:0;stroke-opacity:1;marker-start:url(#Arrow1Mstart-8-1);marker-end:url(#Arrow1Mend)"
         d="m 121.02727,875.00375 c 7.16631,15.07697 7.10398,30.44096 0.19078,46.07697"
         id="path38781-1"
         sodipodi:nodetypes="cc" />
      <g
         transform="matrix(0.635,0,0,0.635,74.577688,870.62537)"
         ns1:version="1.8.1"
         ns1:texconverter="pdflatex"
         ns1:pdfconverter="inkscape"
         ns1:text="$U$"
         ns1:preamble="/home/tana/Documents/Conferences/FINESS22/poster_packages.tex"
         ns1:scale="1.8"
         ns1:alignment="middle center"
         ns1:stroke-to-path="0"
         ns1:inkscapeversion="1.1.2"
         ns1:jacobian_sqrt="0.635"
         id="g658">
        <defs
           id="id-4970f2e5-1f3c-4843-bd82-3dba28a5e4bc">
          <g
             id="id-d6788644-4810-4d42-995e-49137ada5ff9">
            <g
               id="id-4a92b3bc-8087-441b-b48a-0a280d330a2f" />
            <g
               id="id-7d41deaa-0780-4534-a5b5-286dcdf68f7b">
              <path
                 d="M 6.328125,-5.765625 C 6.4375,-6.171875 6.609375,-6.46875 7.40625,-6.5 c 0.046875,0 0.171875,-0.015625 0.171875,-0.203125 0,0 0,-0.109375 -0.125,-0.109375 -0.328125,0 -0.6875,0.03125 -1.015625,0.03125 -0.34375,0 -0.71875,-0.03125 -1.046875,-0.03125 -0.0625,0 -0.171875,0 -0.171875,0.203125 C 5.21875,-6.5 5.3125,-6.5 5.390625,-6.5 c 0.578125,0.015625 0.6875,0.21875 0.6875,0.4375 0,0.03125 -0.03125,0.1875 -0.03125,0.203125 l -0.90625,3.5625 C 4.8125,-0.953125 3.65625,-0.09375 2.65625,-0.09375 c -0.671875,0 -1.203125,-0.4375 -1.203125,-1.296875 0,-0.015625 0,-0.328125 0.109375,-0.765625 L 2.515625,-6.046875 C 2.609375,-6.40625 2.625,-6.5 3.359375,-6.5 c 0.265625,0 0.34375,0 0.34375,-0.203125 0,-0.109375 -0.109375,-0.109375 -0.140625,-0.109375 -0.28125,0 -1,0.03125 -1.28125,0.03125 -0.28125,0 -1,-0.03125 -1.28125,-0.03125 -0.078125,0 -0.1875,0 -0.1875,0.203125 C 0.8125,-6.5 0.890625,-6.5 1.09375,-6.5 c 0.015625,0 0.203125,0 0.375,0.015625 0.171875,0.03125 0.265625,0.03125 0.265625,0.171875 0,0.046875 -0.109375,0.46875 -0.171875,0.703125 l -0.21875,0.875 C 1.25,-4.34375 0.78125,-2.46875 0.734375,-2.265625 0.671875,-2 0.671875,-1.84375 0.671875,-1.6875 c 0,1.203125 0.90625,1.90625 1.953125,1.90625 1.25,0 2.484375,-1.125 2.8125,-2.4375 z m 0,0"
                 id="id-3b95d95c-9084-487d-9202-7ed61d445b17" />
            </g>
          </g>
        </defs>
        <g
           fill="#000000"
           fill-opacity="1"
           id="id-ad8b784c-265b-4285-ba75-ba1abeb0887c"
           transform="translate(-149.384,-127.953)">
          <g
             transform="translate(148.712,134.765)"
             id="g655">
            <path
               d="M 6.328125,-5.765625 C 6.4375,-6.171875 6.609375,-6.46875 7.40625,-6.5 c 0.046875,0 0.171875,-0.015625 0.171875,-0.203125 0,0 0,-0.109375 -0.125,-0.109375 -0.328125,0 -0.6875,0.03125 -1.015625,0.03125 -0.34375,0 -0.71875,-0.03125 -1.046875,-0.03125 -0.0625,0 -0.171875,0 -0.171875,0.203125 C 5.21875,-6.5 5.3125,-6.5 5.390625,-6.5 c 0.578125,0.015625 0.6875,0.21875 0.6875,0.4375 0,0.03125 -0.03125,0.1875 -0.03125,0.203125 l -0.90625,3.5625 C 4.8125,-0.953125 3.65625,-0.09375 2.65625,-0.09375 c -0.671875,0 -1.203125,-0.4375 -1.203125,-1.296875 0,-0.015625 0,-0.328125 0.109375,-0.765625 L 2.515625,-6.046875 C 2.609375,-6.40625 2.625,-6.5 3.359375,-6.5 c 0.265625,0 0.34375,0 0.34375,-0.203125 0,-0.109375 -0.109375,-0.109375 -0.140625,-0.109375 -0.28125,0 -1,0.03125 -1.28125,0.03125 -0.28125,0 -1,-0.03125 -1.28125,-0.03125 -0.078125,0 -0.1875,0 -0.1875,0.203125 C 0.8125,-6.5 0.890625,-6.5 1.09375,-6.5 c 0.015625,0 0.203125,0 0.375,0.015625 0.171875,0.03125 0.265625,0.03125 0.265625,0.171875 0,0.046875 -0.109375,0.46875 -0.171875,0.703125 l -0.21875,0.875 C 1.25,-4.34375 0.78125,-2.46875 0.734375,-2.265625 0.671875,-2 0.671875,-1.84375 0.671875,-1.6875 c 0,1.203125 0.90625,1.90625 1.953125,1.90625 1.25,0 2.484375,-1.125 2.8125,-2.4375 z m 0,0"
               id="id-5cf0f820-93b1-43bc-a059-fe4674a6eeec" />
          </g>
        </g>
      </g>
      <path
         id="path821"
         style="fill:none;stroke:#000000;stroke-width:0.593464;stroke-miterlimit:4;stroke-dasharray:none;paint-order:fill markers stroke"
         d="M 152.29484 923.1568 L 164.98653 923.1568 " />
      <path
         id="path879"
         style="fill:none;stroke:#000000;stroke-width:0.593464;stroke-miterlimit:4;stroke-dasharray:none;paint-order:fill markers stroke"
         d="M 130.44196 923.1568 L 143.13366 923.1568 " />
      <path
         style="fill:#000000;stroke:#000000;stroke-width:0.593464;stroke-miterlimit:4;stroke-dasharray:none;paint-order:fill markers stroke"
         d="m 86.47613,872.85747 h 34.54458"
         id="path980" />
    </g>
  </g>
</svg>
