<?xml version="1.0" encoding="UTF-8" standalone="no"?>
<!-- Created with Inkscape (http://www.inkscape.org/) -->

<svg
   width="191.64278mm"
   height="117.03183mm"
   viewBox="0 0 191.64277 117.03183"
   version="1.1"
   id="svg1"
   inkscape:version="1.3 (0e150ed6c4, 2023-07-21)"
   sodipodi:docname="TACT_ilust.svg"
   xmlns:inkscape="http://www.inkscape.org/namespaces/inkscape"
   xmlns:sodipodi="http://sodipodi.sourceforge.net/DTD/sodipodi-0.dtd"
   xmlns="http://www.w3.org/2000/svg"
   xmlns:svg="http://www.w3.org/2000/svg">
  <sodipodi:namedview
     id="namedview1"
     pagecolor="#ffffff"
     bordercolor="#000000"
     borderopacity="0.25"
     inkscape:showpageshadow="2"
     inkscape:pageopacity="0.0"
     inkscape:pagecheckerboard="0"
     inkscape:deskcolor="#d1d1d1"
     inkscape:document-units="mm"
     inkscape:zoom="0.69041105"
     inkscape:cx="344.72217"
     inkscape:cy="496.08128"
     inkscape:window-width="1920"
     inkscape:window-height="1043"
     inkscape:window-x="0"
     inkscape:window-y="0"
     inkscape:window-maximized="1"
     inkscape:current-layer="layer1" />
  <defs
     id="defs1">
    <marker
       style="overflow:visible"
       id="TriangleOutS-6"
       refX="0"
       refY="0"
       orient="auto"
       inkscape:stockid="TriangleOutS"
       inkscape:isstock="true"
       viewBox="0 0 2.1297632 2.462154"
       markerWidth="4.3250003"
       markerHeight="5"
       preserveAspectRatio="xMidYMid">
      <path
         transform="scale(0.2)"
         style="fill:context-stroke;fill-rule:evenodd;stroke:context-stroke;stroke-width:1pt"
         d="M 5.77,0 -2.88,5 V -5 Z"
         id="path20756-10" />
    </marker>
    <marker
       style="overflow:visible"
       id="marker1"
       refX="0"
       refY="0"
       orient="auto"
       inkscape:stockid="TriangleOutS"
       inkscape:isstock="true"
       viewBox="0 0 2.1297632 2.462154"
       markerWidth="4.3250003"
       markerHeight="5"
       preserveAspectRatio="xMidYMid">
      <path
         transform="scale(0.2)"
         style="fill:context-stroke;fill-rule:evenodd;stroke:context-stroke;stroke-width:1pt"
         d="M 5.77,0 -2.88,5 V -5 Z"
         id="path1" />
    </marker>
    <marker
       style="overflow:visible"
       id="marker10717"
       refX="0"
       refY="0"
       orient="auto"
       inkscape:stockid="Arrow2Send"
       inkscape:isstock="true"
       viewBox="0 0 3.4652294 2.5981128"
       markerWidth="5"
       markerHeight="5"
       preserveAspectRatio="xMidYMid">
      <path
         transform="matrix(-0.3,0,0,-0.3,0.69,0)"
         d="M 8.7185878,4.0337352 -2.2072895,0.01601326 8.7185884,-4.0017078 c -1.7454984,2.3720609 -1.7354408,5.6174519 -6e-7,8.035443 z"
         style="fill:context-stroke;fill-rule:evenodd;stroke:context-stroke;stroke-width:0.625;stroke-linejoin:round"
         id="path10469" />
    </marker>
    <marker
       style="overflow:visible"
       id="marker2"
       refX="0"
       refY="0"
       orient="auto"
       inkscape:stockid="Arrow2Send"
       inkscape:isstock="true"
       viewBox="0 0 3.4652294 2.5981128"
       markerWidth="5"
       markerHeight="5"
       preserveAspectRatio="xMidYMid">
      <path
         transform="matrix(-0.3,0,0,-0.3,0.69,0)"
         d="M 8.7185878,4.0337352 -2.2072895,0.01601326 8.7185884,-4.0017078 c -1.7454984,2.3720609 -1.7354408,5.6174519 -6e-7,8.035443 z"
         style="fill:context-stroke;fill-rule:evenodd;stroke:context-stroke;stroke-width:0.625;stroke-linejoin:round"
         id="path2" />
    </marker>
    <marker
       style="overflow:visible"
       id="marker3"
       refX="0"
       refY="0"
       orient="auto"
       inkscape:stockid="Arrow2Send"
       inkscape:isstock="true"
       viewBox="0 0 3.4652294 2.5981128"
       markerWidth="5"
       markerHeight="5"
       preserveAspectRatio="xMidYMid">
      <path
         transform="matrix(-0.3,0,0,-0.3,0.69,0)"
         d="M 8.7185878,4.0337352 -2.2072895,0.01601326 8.7185884,-4.0017078 c -1.7454984,2.3720609 -1.7354408,5.6174519 -6e-7,8.035443 z"
         style="fill:context-stroke;fill-rule:evenodd;stroke:context-stroke;stroke-width:0.625;stroke-linejoin:round"
         id="path3" />
    </marker>
    <marker
       style="overflow:visible"
       id="marker4"
       refX="0"
       refY="0"
       orient="auto"
       inkscape:stockid="Arrow2Send"
       inkscape:isstock="true"
       viewBox="0 0 3.4652294 2.5981128"
       markerWidth="5"
       markerHeight="5"
       preserveAspectRatio="xMidYMid">
      <path
         transform="matrix(-0.3,0,0,-0.3,0.69,0)"
         d="M 8.7185878,4.0337352 -2.2072895,0.01601326 8.7185884,-4.0017078 c -1.7454984,2.3720609 -1.7354408,5.6174519 -6e-7,8.035443 z"
         style="fill:context-stroke;fill-rule:evenodd;stroke:context-stroke;stroke-width:0.625;stroke-linejoin:round"
         id="path4" />
    </marker>
    <marker
       style="overflow:visible"
       id="marker5"
       refX="0"
       refY="0"
       orient="auto"
       inkscape:stockid="Arrow2Send"
       inkscape:isstock="true"
       viewBox="0 0 3.4652294 2.5981128"
       markerWidth="5"
       markerHeight="5"
       preserveAspectRatio="xMidYMid">
      <path
         transform="matrix(-0.3,0,0,-0.3,0.69,0)"
         d="M 8.7185878,4.0337352 -2.2072895,0.01601326 8.7185884,-4.0017078 c -1.7454984,2.3720609 -1.7354408,5.6174519 -6e-7,8.035443 z"
         style="fill:context-stroke;fill-rule:evenodd;stroke:context-stroke;stroke-width:0.625;stroke-linejoin:round"
         id="path5" />
    </marker>
    <marker
       style="overflow:visible"
       id="marker6"
       refX="0"
       refY="0"
       orient="auto"
       inkscape:stockid="Arrow2Send"
       inkscape:isstock="true"
       viewBox="0 0 3.4652294 2.5981128"
       markerWidth="5"
       markerHeight="5"
       preserveAspectRatio="xMidYMid">
      <path
         transform="matrix(-0.3,0,0,-0.3,0.69,0)"
         d="M 8.7185878,4.0337352 -2.2072895,0.01601326 8.7185884,-4.0017078 c -1.7454984,2.3720609 -1.7354408,5.6174519 -6e-7,8.035443 z"
         style="fill:context-stroke;fill-rule:evenodd;stroke:context-stroke;stroke-width:0.625;stroke-linejoin:round"
         id="path6" />
    </marker>
    <marker
       style="overflow:visible"
       id="marker7"
       refX="0"
       refY="0"
       orient="auto"
       inkscape:stockid="Arrow2Send"
       inkscape:isstock="true"
       viewBox="0 0 3.4652294 2.5981128"
       markerWidth="5"
       markerHeight="5"
       preserveAspectRatio="xMidYMid">
      <path
         transform="matrix(-0.3,0,0,-0.3,0.69,0)"
         d="M 8.7185878,4.0337352 -2.2072895,0.01601326 8.7185884,-4.0017078 c -1.7454984,2.3720609 -1.7354408,5.6174519 -6e-7,8.035443 z"
         style="fill:context-stroke;fill-rule:evenodd;stroke:context-stroke;stroke-width:0.625;stroke-linejoin:round"
         id="path7" />
    </marker>
    <marker
       style="overflow:visible"
       id="marker8"
       refX="0"
       refY="0"
       orient="auto"
       inkscape:stockid="Arrow2Send"
       inkscape:isstock="true"
       viewBox="0 0 3.4652294 2.5981128"
       markerWidth="5"
       markerHeight="5"
       preserveAspectRatio="xMidYMid">
      <path
         transform="matrix(-0.3,0,0,-0.3,0.69,0)"
         d="M 8.7185878,4.0337352 -2.2072895,0.01601326 8.7185884,-4.0017078 c -1.7454984,2.3720609 -1.7354408,5.6174519 -6e-7,8.035443 z"
         style="fill:context-stroke;fill-rule:evenodd;stroke:context-stroke;stroke-width:0.625;stroke-linejoin:round"
         id="path8" />
    </marker>
    <marker
       style="overflow:visible"
       id="marker10717-9"
       refX="0"
       refY="0"
       orient="auto"
       inkscape:stockid="Arrow2Send"
       inkscape:isstock="true"
       viewBox="0 0 3.4652294 2.5981128"
       markerWidth="5"
       markerHeight="5"
       preserveAspectRatio="xMidYMid">
      <path
         transform="matrix(-0.3,0,0,-0.3,0.69,0)"
         d="M 8.7185878,4.0337352 -2.2072895,0.01601326 8.7185884,-4.0017078 c -1.7454984,2.3720609 -1.7354408,5.6174519 -6e-7,8.035443 z"
         style="fill:context-stroke;fill-rule:evenodd;stroke:context-stroke;stroke-width:0.625;stroke-linejoin:round"
         id="path10469-1" />
    </marker>
    <marker
       style="overflow:visible"
       id="marker1-2"
       refX="0"
       refY="0"
       orient="auto"
       inkscape:stockid="Arrow2Send"
       inkscape:isstock="true"
       viewBox="0 0 3.4652294 2.5981128"
       markerWidth="5"
       markerHeight="5"
       preserveAspectRatio="xMidYMid">
      <path
         transform="matrix(-0.3,0,0,-0.3,0.69,0)"
         d="M 8.7185878,4.0337352 -2.2072895,0.01601326 8.7185884,-4.0017078 c -1.7454984,2.3720609 -1.7354408,5.6174519 -6e-7,8.035443 z"
         style="fill:context-stroke;fill-rule:evenodd;stroke:context-stroke;stroke-width:0.625;stroke-linejoin:round"
         id="path1-7" />
    </marker>
    <marker
       style="overflow:visible"
       id="marker2-0"
       refX="0"
       refY="0"
       orient="auto"
       inkscape:stockid="Arrow2Send"
       inkscape:isstock="true"
       viewBox="0 0 3.4652294 2.5981128"
       markerWidth="5"
       markerHeight="5"
       preserveAspectRatio="xMidYMid">
      <path
         transform="matrix(-0.3,0,0,-0.3,0.69,0)"
         d="M 8.7185878,4.0337352 -2.2072895,0.01601326 8.7185884,-4.0017078 c -1.7454984,2.3720609 -1.7354408,5.6174519 -6e-7,8.035443 z"
         style="fill:context-stroke;fill-rule:evenodd;stroke:context-stroke;stroke-width:0.625;stroke-linejoin:round"
         id="path2-9" />
    </marker>
    <marker
       style="overflow:visible"
       id="marker3-3"
       refX="0"
       refY="0"
       orient="auto"
       inkscape:stockid="Arrow2Send"
       inkscape:isstock="true"
       viewBox="0 0 3.4652294 2.5981128"
       markerWidth="5"
       markerHeight="5"
       preserveAspectRatio="xMidYMid">
      <path
         transform="matrix(-0.3,0,0,-0.3,0.69,0)"
         d="M 8.7185878,4.0337352 -2.2072895,0.01601326 8.7185884,-4.0017078 c -1.7454984,2.3720609 -1.7354408,5.6174519 -6e-7,8.035443 z"
         style="fill:context-stroke;fill-rule:evenodd;stroke:context-stroke;stroke-width:0.625;stroke-linejoin:round"
         id="path3-6" />
    </marker>
    <marker
       style="overflow:visible"
       id="TriangleOutS-6-0"
       refX="0"
       refY="0"
       orient="auto"
       inkscape:stockid="TriangleOutS"
       inkscape:isstock="true"
       viewBox="0 0 2.1297632 2.462154"
       markerWidth="4.3250003"
       markerHeight="5"
       preserveAspectRatio="xMidYMid">
      <path
         transform="scale(0.2)"
         style="fill:context-stroke;fill-rule:evenodd;stroke:context-stroke;stroke-width:1pt"
         d="M 5.77,0 -2.88,5 V -5 Z"
         id="path20756-10-6" />
    </marker>
    <marker
       style="overflow:visible"
       id="marker4-2"
       refX="0"
       refY="0"
       orient="auto"
       inkscape:stockid="TriangleOutS"
       inkscape:isstock="true"
       viewBox="0 0 2.1297632 2.462154"
       markerWidth="4.3250003"
       markerHeight="5"
       preserveAspectRatio="xMidYMid">
      <path
         transform="scale(0.2)"
         style="fill:context-stroke;fill-rule:evenodd;stroke:context-stroke;stroke-width:1pt"
         d="M 5.77,0 -2.88,5 V -5 Z"
         id="path4-6" />
    </marker>
    <marker
       style="overflow:visible"
       id="marker5-1"
       refX="0"
       refY="0"
       orient="auto"
       inkscape:stockid="Arrow2Send"
       inkscape:isstock="true"
       viewBox="0 0 3.4652294 2.5981128"
       markerWidth="5"
       markerHeight="5"
       preserveAspectRatio="xMidYMid">
      <path
         transform="matrix(-0.3,0,0,-0.3,0.69,0)"
         d="M 8.7185878,4.0337352 -2.2072895,0.01601326 8.7185884,-4.0017078 c -1.7454984,2.3720609 -1.7354408,5.6174519 -6e-7,8.035443 z"
         style="fill:context-stroke;fill-rule:evenodd;stroke:context-stroke;stroke-width:0.625;stroke-linejoin:round"
         id="path5-8" />
    </marker>
    <marker
       style="overflow:visible"
       id="marker6-7"
       refX="0"
       refY="0"
       orient="auto"
       inkscape:stockid="Arrow2Send"
       inkscape:isstock="true"
       viewBox="0 0 3.4652294 2.5981128"
       markerWidth="5"
       markerHeight="5"
       preserveAspectRatio="xMidYMid">
      <path
         transform="matrix(-0.3,0,0,-0.3,0.69,0)"
         d="M 8.7185878,4.0337352 -2.2072895,0.01601326 8.7185884,-4.0017078 c -1.7454984,2.3720609 -1.7354408,5.6174519 -6e-7,8.035443 z"
         style="fill:context-stroke;fill-rule:evenodd;stroke:context-stroke;stroke-width:0.625;stroke-linejoin:round"
         id="path6-9" />
    </marker>
    <marker
       style="overflow:visible"
       id="marker7-2"
       refX="0"
       refY="0"
       orient="auto"
       inkscape:stockid="Arrow2Send"
       inkscape:isstock="true"
       viewBox="0 0 3.4652294 2.5981128"
       markerWidth="5"
       markerHeight="5"
       preserveAspectRatio="xMidYMid">
      <path
         transform="matrix(-0.3,0,0,-0.3,0.69,0)"
         d="M 8.7185878,4.0337352 -2.2072895,0.01601326 8.7185884,-4.0017078 c -1.7454984,2.3720609 -1.7354408,5.6174519 -6e-7,8.035443 z"
         style="fill:context-stroke;fill-rule:evenodd;stroke:context-stroke;stroke-width:0.625;stroke-linejoin:round"
         id="path7-0" />
    </marker>
    <marker
       style="overflow:visible"
       id="marker8-2"
       refX="0"
       refY="0"
       orient="auto"
       inkscape:stockid="Arrow2Send"
       inkscape:isstock="true"
       viewBox="0 0 3.4652294 2.5981128"
       markerWidth="5"
       markerHeight="5"
       preserveAspectRatio="xMidYMid">
      <path
         transform="matrix(-0.3,0,0,-0.3,0.69,0)"
         d="M 8.7185878,4.0337352 -2.2072895,0.01601326 8.7185884,-4.0017078 c -1.7454984,2.3720609 -1.7354408,5.6174519 -6e-7,8.035443 z"
         style="fill:context-stroke;fill-rule:evenodd;stroke:context-stroke;stroke-width:0.625;stroke-linejoin:round"
         id="path8-3" />
    </marker>
  </defs>
  <g
     inkscape:label="Layer 1"
     inkscape:groupmode="layer"
     id="layer1"
     transform="translate(-13.787823,-17.331348)">
    <ellipse
       style="display:inline;fill:none;stroke:#000000;stroke-width:0.706001;stroke-linecap:round;stroke-linejoin:round;paint-order:fill markers stroke"
       id="ellipse168697"
       cx="57.589394"
       cy="78.638168"
       rx="26.279995"
       ry="30.451883" />
    <ellipse
       style="display:inline;fill:none;stroke:#000000;stroke-width:0.706001;stroke-linecap:round;stroke-linejoin:round;paint-order:fill markers stroke"
       id="ellipse168699"
       cx="57.589394"
       cy="78.638168"
       rx="13.139994"
       ry="30.451883" />
    <g
       id="g331797"
       transform="translate(-512.92122,-368.98844)"
       style="display:inline;stroke-linecap:butt;stroke-linejoin:round">
      <rect
         style="fill:none;stroke:#000000;stroke-width:0.470372;stroke-linecap:round;stroke-linejoin:round;stroke-dasharray:none;stroke-dashoffset:0;paint-order:fill markers stroke"
         id="rect261319"
         width="35.04007"
         height="35.04007"
         x="671.25061"
         y="391.90161" />
      <path
         style="fill:none;stroke:#000000;stroke-width:0.470372;stroke-linecap:round;stroke-linejoin:round;stroke-dasharray:none;stroke-dashoffset:0;marker-end:url(#marker10717-9);paint-order:fill markers stroke"
         d="m 666.67775,387.32876 3.21856,3.21856"
         id="path261321"
         inkscape:transform-center-x="30.725355"
         inkscape:transform-center-y="-30.725348" />
      <circle
         style="fill:none;stroke:#009100;stroke-width:0.470372;stroke-linecap:round;stroke-linejoin:round;stroke-dasharray:none;stroke-dashoffset:0;paint-order:fill markers stroke"
         id="circle261329"
         cx="688.77063"
         cy="409.42166"
         r="17.520027" />
      <path
         style="fill:none;stroke:#000000;stroke-width:0.470372;stroke-linecap:round;stroke-linejoin:round;stroke-dasharray:none;stroke-dashoffset:0;marker-end:url(#marker10717-9);paint-order:fill markers stroke"
         d="m 670.15336,428.03572 -3.21856,3.21856"
         id="path304113" />
      <path
         style="fill:none;stroke:#000000;stroke-width:0.470372;stroke-linecap:round;stroke-linejoin:round;stroke-dasharray:none;stroke-dashoffset:0;marker-end:url(#marker10717-9);paint-order:fill markers stroke"
         d="m 710.86353,431.51452 -3.21856,-3.21856"
         id="path304117"
         inkscape:transform-center-x="-30.725355"
         inkscape:transform-center-y="30.725342" />
      <path
         style="fill:none;stroke:#000000;stroke-width:0.470372;stroke-linecap:round;stroke-linejoin:round;stroke-dasharray:none;stroke-dashoffset:0;marker-end:url(#marker10717-9);paint-order:fill markers stroke"
         d="m 707.38791,390.80756 3.21856,-3.21856"
         id="path304121" />
    </g>
    <text
       xml:space="preserve"
       style="font-style:normal;font-variant:normal;font-weight:normal;font-stretch:normal;font-size:11.2889px;line-height:1.25;font-family:Coolvetica;-inkscape-font-specification:'Coolvetica, Normal';font-variant-ligatures:none;font-variant-caps:normal;font-variant-numeric:normal;font-variant-east-asian:normal;text-align:start;writing-mode:lr-tb;text-anchor:start;display:inline;fill:#000000;stroke:none;stroke-width:0.705556;stroke-linecap:round;stroke-linejoin:round;stroke-dasharray:none;stroke-dashoffset:0;paint-order:fill markers stroke"
       x="157.82664"
       y="134.10353"
       id="text261349"><tspan
         sodipodi:role="line"
         id="tspan261347"
         style="fill:#000000;stroke:none;stroke-width:0.705556"
         x="157.82664"
         y="134.10353">Stretch</tspan></text>
    <circle
       style="display:inline;fill:none;stroke:#000000;stroke-width:0.757416;stroke-linecap:round;stroke-linejoin:round;paint-order:fill markers stroke"
       id="circle261247"
       cx="57.589455"
       cy="78.638138"
       r="30.717472" />
    <path
       style="display:inline;fill:none;stroke:#000000;stroke-width:0.757416;stroke-linecap:round;stroke-linejoin:round;marker-end:url(#TriangleOutS-6-0);paint-order:fill markers stroke"
       d="M 57.589441,122.06105 V 35.215243"
       id="path261249" />
    <path
       style="display:inline;fill:none;stroke:#000000;stroke-width:0.757416;stroke-linecap:round;stroke-linejoin:round;marker-end:url(#TriangleOutS-6-0);paint-order:fill markers stroke"
       d="M 14.166531,78.638143 H 101.01234"
       id="path261251" />
    <g
       id="g352609"
       transform="matrix(1.005543,-0.17271322,-0.17271322,1.005543,-443.00062,-194.56025)"
       style="display:inline;stroke-linecap:butt;stroke-linejoin:round">
      <rect
         style="fill:none;stroke:#000000;stroke-width:0.470372;stroke-linecap:round;stroke-linejoin:round;stroke-dasharray:none;stroke-dashoffset:0;paint-order:fill markers stroke"
         id="rect352597"
         width="35.04007"
         height="35.04007"
         x="671.25061"
         y="391.90161" />
      <path
         style="fill:none;stroke:#000000;stroke-width:0.470372;stroke-linecap:round;stroke-linejoin:round;stroke-dasharray:none;stroke-dashoffset:0;marker-end:url(#marker10717-9);paint-order:fill markers stroke"
         d="m 666.67775,387.32876 3.21856,3.21856"
         id="path352599"
         inkscape:transform-center-x="30.725355"
         inkscape:transform-center-y="-30.725348" />
      <circle
         style="fill:none;stroke:#009100;stroke-width:0.470372;stroke-linecap:round;stroke-linejoin:round;stroke-dasharray:none;stroke-dashoffset:0;paint-order:fill markers stroke"
         id="circle352601"
         cx="688.77063"
         cy="409.42166"
         r="17.520027" />
      <path
         style="fill:none;stroke:#000000;stroke-width:0.470372;stroke-linecap:round;stroke-linejoin:round;stroke-dasharray:none;stroke-dashoffset:0;marker-end:url(#marker10717-9);paint-order:fill markers stroke"
         d="m 670.15336,428.03572 -3.21856,3.21856"
         id="path352603" />
      <path
         style="fill:none;stroke:#000000;stroke-width:0.470372;stroke-linecap:round;stroke-linejoin:round;stroke-dasharray:none;stroke-dashoffset:0;marker-end:url(#marker10717-9);paint-order:fill markers stroke"
         d="m 710.86353,431.51452 -3.21856,-3.21856"
         id="path352605"
         inkscape:transform-center-x="-30.725355"
         inkscape:transform-center-y="30.725342" />
      <path
         style="fill:none;stroke:#000000;stroke-width:0.470372;stroke-linecap:round;stroke-linejoin:round;stroke-dasharray:none;stroke-dashoffset:0;marker-end:url(#marker10717-9);paint-order:fill markers stroke"
         d="m 707.38791,390.80756 3.21856,-3.21856"
         id="path352607" />
    </g>
    <text
       xml:space="preserve"
       style="font-size:11.2889px;line-height:1.25;font-family:Coolvetica;-inkscape-font-specification:Coolvetica;text-align:start;writing-mode:lr-tb;text-anchor:start;display:inline;fill:#005c94;fill-opacity:1;stroke:none;stroke-width:0.706001;stroke-linecap:round;stroke-linejoin:round;stroke-dasharray:none;stroke-dashoffset:0;paint-order:fill markers stroke"
       x="111.39574"
       y="82.605637"
       id="text533960"><tspan
         sodipodi:role="line"
         id="tspan533958"
         style="font-size:11.2889px;fill:#005c94;stroke:none;stroke-width:0.706"
         x="111.39574"
         y="82.605637">-(S<tspan
   style="font-size:65%;baseline-shift:super;fill:#005c94;stroke:none"
   id="tspan533962">y</tspan>)<tspan
   style="font-size:65%;baseline-shift:super;fill:#005c94;stroke:none"
   id="tspan533956">2</tspan></tspan></text>
    <text
       xml:space="preserve"
       style="font-size:11.2889px;line-height:1.25;font-family:Coolvetica;-inkscape-font-specification:Coolvetica;text-align:start;writing-mode:lr-tb;text-anchor:start;display:inline;fill:#b50000;fill-opacity:1;stroke:none;stroke-width:0.706001;stroke-linecap:round;stroke-linejoin:round;stroke-dasharray:none;stroke-dashoffset:0;paint-order:fill markers stroke"
       x="47.13932"
       y="26.880629"
       id="text533970"><tspan
         sodipodi:role="line"
         id="tspan533968"
         style="font-size:11.2889px;fill:#b50000;stroke-width:0.706"
         x="47.13932"
         y="26.880629">(S<tspan
   style="font-size:65%;baseline-shift:super;fill:#b50000"
   id="tspan533964">z</tspan>)<tspan
   style="font-size:65%;baseline-shift:super;fill:#b50000"
   id="tspan533966">2</tspan></tspan></text>
    <path
       id="path117236"
       style="color:#000000;display:inline;fill:#b50000;fill-rule:evenodd;stroke-width:0.0284172;stroke-linecap:butt;stroke-linejoin:round;-inkscape-stroke:none"
       d="m 55.305031,48.005933 a 30.71747,30.71747 0 0 0 -4.31188,0.63976 c 0.13473,0.38279 0.23855,0.77355 0.30954,1.1684 h -4.27829 a 30.71747,30.71747 0 0 0 -5.43688,2.6262 h 9.71724 c -0.19268,1.07307 -0.62378,2.10942 -1.2976,3.02514 a 0.35525173,0.35525173 0 0 0 0.40928,0.54312 l 2.68873,-0.98857 c 0.22339,0.43241 0.37703,0.88968 0.46095,1.35599 h -17.12505 a 30.71747,30.71747 0 0 0 -1.63711,1.68051 h 18.76371 c -0.12327,0.68702 -0.39947,1.35047 -0.83096,1.93684 a 0.22736045,0.22736045 0 0 0 0.26149,0.34778 l 6.21305,-2.28462 h 21.17701 a 30.71747,30.71747 0 0 0 -1.63711,-1.68051 h -19.4784 l -4.92735,-1.81178 5.77639,-2.1239 h 13.50254 a 30.71747,30.71747 0 0 0 -5.42344,-2.6262 h -7.97781 z m -0.34365,13.52321 a 0.12789038,0.12789038 0 0 0 -0.10231,0.20154 c 0.24196,0.33713 0.39775,0.71506 0.46767,1.10381 h -24.06003 a 30.71747,30.71747 0 0 0 -0.54416,0.94567 h 24.60522 c -0.0693,0.38614 -0.22466,0.75876 -0.46715,1.08831 a 0.12789038,0.12789038 0 0 0 0.14624,0.19585 l 3.49281,-1.28416 h 25.97206 a 30.71747,30.71747 0 0 0 -0.5426,-0.94567 h -25.39174 l -3.53053,-1.29812 a 0.12789038,0.12789038 0 0 0 -0.0455,-0.007 z m 1.46038,7.07709 v 5.1e-4 a 0.05684034,0.05684034 0 0 0 -0.046,0.0894 c 0.10754,0.14984 0.17676,0.31817 0.20774,0.49093 h -28.2081 a 30.71747,30.71747 0 0 0 -0.14521,0.42013 h 28.35331 c -0.0309,0.17155 -0.10001,0.33726 -0.20774,0.48369 a 0.05684034,0.05684034 0 0 0 0.0667,0.0873 l 1.55236,-0.57102 h 28.95224 a 30.71747,30.71747 0 0 0 -0.13178,-0.42013 h -28.80392 l -1.5689,-0.57671 a 0.05684034,0.05684034 0 0 0 -0.0207,-0.004 z m 0.87592,6.68228 a 0.01421004,0.01421004 0 0 0 -0.0109,0.0233 c 0.0267,0.0372 0.0438,0.0791 0.0517,0.12196 h -30.27823 a 30.71747,30.71747 0 0 0 -0.0119,0.10593 h 30.29014 c -0.008,0.043 -0.0247,0.0842 -0.0517,0.12093 a 0.01421004,0.01421004 0 0 0 0.016,0.0222 l 0.38654,-0.14315 h 30.46016 a 30.71747,30.71747 0 0 0 -0.0109,-0.10593 h -30.44672 l -0.38913,-0.14418 a 0.01421004,0.01421004 0 0 0 -0.005,-0.001 z m 0.0109,0.0336 h 5.1e-4 l 10e-4,5.1e-4 c 0.0214,0.0348 0.0351,0.0723 0.0419,0.11111 h -0.002 c -0.007,-0.0383 -0.0205,-0.0763 -0.0413,-0.11162 z m 0.0413,0.21755 h 5.2e-4 0.002 c -0.007,0.0386 -0.0205,0.0759 -0.0419,0.11007 l -0.002,5.2e-4 c 0.0211,-0.0349 0.0348,-0.0722 0.0413,-0.11059 z"
       inkscape:transform-center-x="-0.00951"
       inkscape:transform-center-y="-16.79335" />
    <path
       id="path117238"
       style="color:#000000;display:inline;fill:#b50000;fill-rule:evenodd;stroke-width:0.0284172;stroke-linecap:butt;stroke-linejoin:round;-inkscape-stroke:none"
       d="m 59.873791,109.2704 a 30.71747,30.71747 0 0 0 4.31188,-0.63976 c -0.13473,-0.38279 -0.23855,-0.77355 -0.30954,-1.1684 h 4.27829 a 30.71747,30.71747 0 0 0 5.43688,-2.6262 h -9.71724 c 0.19268,-1.07307 0.62378,-2.10942 1.2976,-3.02514 a 0.35525173,0.35525173 0 0 0 -0.40928,-0.54312 l -2.68873,0.98857 c -0.22339,-0.43241 -0.37703,-0.88968 -0.46095,-1.35599 h 17.12505 a 30.71747,30.71747 0 0 0 1.63711,-1.680507 h -18.76371 c 0.12327,-0.68702 0.39947,-1.35047 0.83096,-1.93684 a 0.22736045,0.22736045 0 0 0 -0.26149,-0.34778 l -6.21305,2.28462 h -21.17701 a 30.71747,30.71747 0 0 0 1.63711,1.680507 h 19.4784 l 4.92735,1.81178 -5.77639,2.1239 h -13.50254 a 30.71747,30.71747 0 0 0 5.42344,2.6262 h 7.97781 z m 0.34365,-13.523207 a 0.12789038,0.12789038 0 0 0 0.10231,-0.20154 c -0.24196,-0.33713 -0.39775,-0.71506 -0.46767,-1.10381 h 24.06003 a 30.71747,30.71747 0 0 0 0.54416,-0.94567 h -24.60522 c 0.0693,-0.38614 0.22466,-0.75876 0.46715,-1.08831 a 0.12789038,0.12789038 0 0 0 -0.14624,-0.19585 l -3.49281,1.28416 h -25.97206 a 30.71747,30.71747 0 0 0 0.5426,0.94567 h 25.39174 l 3.53053,1.29812 a 0.12789038,0.12789038 0 0 0 0.0455,0.007 z m -1.46038,-7.07709 v -5.1e-4 a 0.05684034,0.05684034 0 0 0 0.046,-0.0894 c -0.10754,-0.14984 -0.17676,-0.31817 -0.20774,-0.49093 h 28.2081 a 30.71747,30.71747 0 0 0 0.14521,-0.42013 h -28.35331 c 0.0309,-0.17155 0.10001,-0.33726 0.20774,-0.48369 a 0.05684034,0.05684034 0 0 0 -0.0667,-0.0873 l -1.55236,0.57102 h -28.95224 a 30.71747,30.71747 0 0 0 0.13178,0.42013 h 28.80392 l 1.5689,0.57671 a 0.05684034,0.05684034 0 0 0 0.0207,0.004 z m -0.87592,-6.68228 a 0.01421004,0.01421004 0 0 0 0.0109,-0.0233 c -0.0267,-0.0372 -0.0438,-0.0791 -0.0517,-0.12196 h 30.27823 a 30.71747,30.71747 0 0 0 0.0119,-0.10593 h -30.29014 c 0.008,-0.043 0.0247,-0.0842 0.0517,-0.12093 a 0.01421004,0.01421004 0 0 0 -0.016,-0.0222 l -0.38654,0.14315 h -30.46016 a 30.71747,30.71747 0 0 0 0.0109,0.10593 h 30.44672 l 0.38913,0.14418 a 0.01421004,0.01421004 0 0 0 0.005,0.001 z m -0.0109,-0.0336 h -5.1e-4 l -0.001,-5.1e-4 c -0.0214,-0.0348 -0.0351,-0.0723 -0.0419,-0.11111 h 0.002 c 0.007,0.0383 0.0205,0.0763 0.0413,0.11162 z m -0.0413,-0.21755 h -5.2e-4 -0.002 c 0.007,-0.0386 0.0205,-0.0759 0.0419,-0.11007 l 0.002,-5.2e-4 c -0.0211,0.0349 -0.0348,0.0722 -0.0413,0.11059 z"
       inkscape:transform-center-x="0.00951"
       inkscape:transform-center-y="16.793353" />
    <path
       id="path117240"
       style="color:#000000;display:inline;fill:#005c94;fill-opacity:1;fill-rule:evenodd;stroke-width:0.0284172;stroke-linecap:butt;stroke-linejoin:round;-inkscape-stroke:none"
       d="m 88.221651,80.922553 a 30.71747,30.71747 0 0 1 -0.63976,4.31188 c -0.38279,-0.13473 -0.77355,-0.23855 -1.1684,-0.30954 v 4.27829 a 30.71747,30.71747 0 0 1 -2.6262,5.43688 v -9.71724 c -1.07307,0.19268 -2.10942,0.62378 -3.02514,1.2976 a 0.35525173,0.35525173 0 0 1 -0.54312,-0.40928 l 0.98857,-2.68873 c -0.43241,-0.22339 -0.88968,-0.37703 -1.35599,-0.46095 v 17.12505 a 30.71747,30.71747 0 0 1 -1.68051,1.637107 V 82.659913 c -0.68702,0.12327 -1.35047,0.39947 -1.93684,0.83096 a 0.22736045,0.22736045 0 0 1 -0.34778,-0.26149 l 2.28462,-6.21305 v -21.17701 a 30.71747,30.71747 0 0 1 1.68051,1.63711 v 19.4784 l 1.81178,4.92735 2.1239,-5.77639 v -13.50254 a 30.71747,30.71747 0 0 1 2.6262,5.42344 v 7.97781 z m -13.52321,0.34365 a 0.12789038,0.12789038 0 0 1 -0.20154,0.10231 c -0.33713,-0.24196 -0.71506,-0.39775 -1.10381,-0.46767 v 24.060027 a 30.71747,30.71747 0 0 1 -0.94567,0.54416 V 80.899813 c -0.38614,0.0693 -0.75876,0.22466 -1.08831,0.46715 a 0.12789038,0.12789038 0 0 1 -0.19585,-0.14624 l 1.28416,-3.49281 v -25.97206 a 30.71747,30.71747 0 0 1 0.94567,0.5426 v 25.39174 l 1.29812,3.53053 a 0.12789038,0.12789038 0 0 1 0.007,0.0455 z m -7.07709,-1.46038 h -5.1e-4 a 0.05684034,0.05684034 0 0 1 -0.0894,0.046 c -0.14984,-0.10754 -0.31817,-0.17676 -0.49093,-0.20774 v 28.208097 a 30.71747,30.71747 0 0 1 -0.42013,0.14521 V 79.644083 c -0.17155,0.0309 -0.33726,0.10001 -0.48369,0.20774 a 0.05684034,0.05684034 0 0 1 -0.0873,-0.0667 l 0.57102,-1.55236 v -28.95224 a 30.71747,30.71747 0 0 1 0.42013,0.13178 v 28.80392 l 0.57671,1.5689 a 0.05684034,0.05684034 0 0 1 0.004,0.0207 z m -6.68228,-0.87592 a 0.01421004,0.01421004 0 0 1 -0.0233,0.0109 c -0.0372,-0.0267 -0.0791,-0.0438 -0.12196,-0.0517 v 30.278227 a 30.71747,30.71747 0 0 1 -0.10593,0.0119 V 78.889093 c -0.043,0.008 -0.0842,0.0247 -0.12093,0.0517 a 0.01421004,0.01421004 0 0 1 -0.0222,-0.016 l 0.14315,-0.38654 v -30.46016 a 30.71747,30.71747 0 0 1 0.10593,0.0109 v 30.44672 l 0.14418,0.38913 a 0.01421004,0.01421004 0 0 1 10e-4,0.005 z m -0.0336,-0.0109 v -5.1e-4 l -5.1e-4,-0.001 c -0.0348,-0.0214 -0.0723,-0.0351 -0.11111,-0.0419 v 0.002 c 0.0383,0.007 0.0763,0.0205 0.11162,0.0413 z m -0.21755,-0.0413 v -5.2e-4 -0.002 c -0.0386,0.007 -0.0759,0.0205 -0.11007,0.0419 l -5.2e-4,0.002 c 0.0349,-0.0211 0.0722,-0.0348 0.11059,-0.0413 z"
       inkscape:transform-center-x="-16.793356"
       inkscape:transform-center-y="-0.0095034279" />
    <path
       id="path117242"
       style="color:#000000;display:inline;fill:#005c94;fill-opacity:1;fill-rule:evenodd;stroke-width:0.0284172;stroke-linecap:butt;stroke-linejoin:round;-inkscape-stroke:none"
       d="m 26.957171,76.353783 a 30.71747,30.71747 0 0 1 0.63976,-4.31188 c 0.38279,0.13473 0.77355,0.23855 1.1684,0.30954 v -4.27829 a 30.71747,30.71747 0 0 1 2.6262,-5.43688 v 9.71724 c 1.07307,-0.19268 2.10942,-0.62378 3.02514,-1.2976 a 0.35525173,0.35525173 0 0 1 0.54312,0.40928 l -0.98857,2.68873 c 0.43241,0.22339 0.88968,0.37703 1.35599,0.46095 v -17.12505 a 30.71747,30.71747 0 0 1 1.68051,-1.63711 v 18.76371 c 0.68702,-0.12327 1.35047,-0.39947 1.93684,-0.83096 a 0.22736045,0.22736045 0 0 1 0.34778,0.26149 l -2.28462,6.21305 v 21.177007 a 30.71747,30.71747 0 0 1 -1.68051,-1.637107 v -19.4784 l -1.81178,-4.92735 -2.1239,5.77639 v 13.50254 a 30.71747,30.71747 0 0 1 -2.6262,-5.42344 v -7.97781 z m 13.52321,-0.34365 a 0.12789038,0.12789038 0 0 1 0.20154,-0.10231 c 0.33713,0.24196 0.71506,0.39775 1.10381,0.46767 v -24.06003 a 30.71747,30.71747 0 0 1 0.94567,-0.54416 v 24.60522 c 0.38614,-0.0693 0.75876,-0.22466 1.08831,-0.46715 a 0.12789038,0.12789038 0 0 1 0.19585,0.14624 l -1.28416,3.49281 v 25.972057 a 30.71747,30.71747 0 0 1 -0.94567,-0.5426 V 79.586143 l -1.29812,-3.53053 a 0.12789038,0.12789038 0 0 1 -0.007,-0.0455 z m 7.07709,1.46038 h 5.1e-4 a 0.05684034,0.05684034 0 0 1 0.0894,-0.046 c 0.14984,0.10754 0.31817,0.17676 0.49093,0.20774 v -28.2081 a 30.71747,30.71747 0 0 1 0.42013,-0.14521 v 28.35331 c 0.17155,-0.0309 0.33726,-0.10001 0.48369,-0.20774 a 0.05684034,0.05684034 0 0 1 0.0873,0.0667 l -0.57102,1.55236 v 28.952237 a 30.71747,30.71747 0 0 1 -0.42013,-0.13178 V 79.060113 l -0.57671,-1.5689 a 0.05684034,0.05684034 0 0 1 -0.004,-0.0207 z m 6.68228,0.87592 a 0.01421004,0.01421004 0 0 1 0.0233,-0.0109 c 0.0372,0.0267 0.0791,0.0438 0.12196,0.0517 v -30.27823 a 30.71747,30.71747 0 0 1 0.10593,-0.0119 v 30.29014 c 0.043,-0.008 0.0842,-0.0247 0.12093,-0.0517 a 0.01421004,0.01421004 0 0 1 0.0222,0.016 l -0.14315,0.38654 v 30.460157 a 30.71747,30.71747 0 0 1 -0.10593,-0.0109 V 78.740623 l -0.14418,-0.38913 a 0.01421004,0.01421004 0 0 1 -10e-4,-0.005 z m 0.0336,0.0109 v 5.1e-4 l 5.1e-4,10e-4 c 0.0348,0.0214 0.0723,0.0351 0.11111,0.0419 v -0.002 c -0.0383,-0.007 -0.0763,-0.0205 -0.11162,-0.0413 z m 0.21755,0.0413 v 5.2e-4 0.002 c 0.0386,-0.007 0.0759,-0.0205 0.11007,-0.0419 l 5.2e-4,-0.002 c -0.0349,0.0211 -0.0722,0.0348 -0.11059,0.0413 z"
       inkscape:transform-center-x="16.793357"
       inkscape:transform-center-y="0.0095065721" />
  </g>
</svg>
