<?xml version="1.0" encoding="UTF-8" standalone="no"?>
<!-- Created with Inkscape (http://www.inkscape.org/) -->

<svg
   width="51.452797mm"
   height="57.469463mm"
   viewBox="0 0 51.452797 57.469463"
   version="1.1"
   id="svg71591"
   inkscape:version="1.1.1 (3bf5ae0d25, 2021-09-20, custom)"
   sodipodi:docname="vilnius_logo.svg"
   xmlns:inkscape="http://www.inkscape.org/namespaces/inkscape"
   xmlns:sodipodi="http://sodipodi.sourceforge.net/DTD/sodipodi-0.dtd"
   xmlns="http://www.w3.org/2000/svg"
   xmlns:svg="http://www.w3.org/2000/svg">
  <sodipodi:namedview
     id="namedview71593"
     pagecolor="#ffffff"
     bordercolor="#666666"
     borderopacity="1.0"
     inkscape:pageshadow="2"
     inkscape:pageopacity="0.0"
     inkscape:pagecheckerboard="0"
     inkscape:document-units="mm"
     showgrid="false"
     fit-margin-top="0"
     fit-margin-left="0"
     fit-margin-right="0"
     fit-margin-bottom="0"
     inkscape:zoom="2.5620932"
     inkscape:cx="104.79713"
     inkscape:cy="137.19251"
     inkscape:window-width="1920"
     inkscape:window-height="991"
     inkscape:window-x="0"
     inkscape:window-y="0"
     inkscape:window-maximized="1"
     inkscape:current-layer="layer1" />
  <defs
     id="defs71588" />
  <g
     inkscape:label="Capa 1"
     inkscape:groupmode="layer"
     id="layer1"
     transform="translate(-44.571669,-79.892394)">
    <g
       id="g310"
       transform="matrix(0.59970919,0,0,-0.59970919,44.571669,137.4177)"
       style="display:inline">
      <path
         d="m 3.66289,35.724302 4.44063,0.8906 -0.17149,0.8543 -4.44023,-0.8902 c -0.82617,-0.166 -1.62657,0.2691 -1.80039,1.1324 -0.175,0.8735 0.41797,1.5688 1.225,1.7309 l 4.44101,0.8914 -0.17187,0.8535 -4.44063,-0.8906 c -1.23906,-0.2489 -2.101951,-1.3504 -1.823045,-2.7395 0.278905,-1.3894 1.501955,-2.0816 2.741015,-1.8328"
         style="fill:#740134;fill-opacity:1;fill-rule:evenodd;stroke:none;stroke-width:0.1"
         id="path14" />
      <path
         d="m 9.99648,30.952002 -4.86562,-1.7765 3.83203,4.6086 -0.33164,0.909 -6.29531,-2.2981 0.29844,-0.818 4.86562,1.775 -3.83203,-4.6082 0.33164,-0.9082 6.29569,2.2969 -0.29882,0.8195"
         style="fill:#740134;fill-opacity:1;fill-rule:evenodd;stroke:none;stroke-width:0.1"
         id="path16" />
      <path
         d="m 11.243,28.228202 -5.9887,-3.0105 0.40429,-0.8039 5.98831,3.0097 -0.4039,0.8047"
         style="fill:#740134;fill-opacity:1;fill-rule:evenodd;stroke:none;stroke-width:0.1"
         id="path18" />
      <path
         d="m 14.6102,22.470402 -5.36567,-1.3953 3.48277,4.3172 -0.4972,0.7722 -4.36408,-5.6023 0.34257,-0.5312 6.89921,1.6667 -0.4976,0.7727"
         style="fill:#740134;fill-opacity:1;fill-rule:evenodd;stroke:none;stroke-width:0.1"
         id="path20" />
      <path
         d="m 13.668,17.559502 1.8968,-2.1809 0.5918,0.5149 -1.8968,2.1804 1.6539,1.4387 1.8968,-2.1809 0.5922,0.5149 -2.4687,2.8386 -5.0547,-4.3972 2.4684,-2.8379 0.5921,0.5152 -1.8968,2.1809 1.625,1.4133"
         style="fill:#740134;fill-opacity:1;fill-rule:evenodd;stroke:none;stroke-width:0.1"
         id="path22" />
      <path
         d="m 21.1363,12.340302 c -0.5254,-0.6218 -1.3886,-0.782 -2.0539,-0.2207 l -1.1336,0.9582 1.9278,2.2824 1.1336,-0.9582 c 0.6656,-0.5625 0.6445,-1.4472 0.1261,-2.0617 z m 0.3809,2.6614 -1.7992,1.5207 -4.3254,-5.1204 0.6648,-0.5625 1.3785,1.6321 1.0532,-0.8906 -0.3618,-2.4894996 0.761,-0.64258 0.3953,2.6484796 c 0.9059,-0.3516 1.8879,-0.0657 2.518,0.6804 0.7906,0.9367 0.7828,2.3215 -0.2844,3.2239"
         style="fill:#740134;fill-opacity:1;fill-rule:evenodd;stroke:none;stroke-width:0.1"
         id="path24" />
      <path
         d="m 26.3375,11.773102 c -0.9719,0.5762 -2.1074,0.4817 -2.7227,-0.5554 -0.65,-1.095 0.0618,-1.9406596 0.8723,-2.8441696 0.4301,-0.47735 0.8805,-1.0125 0.4801,-1.6875 -0.366,-0.61719 -1.0633,-0.70469 -1.7305,-0.30938 -0.782,0.46485 -1.0027,1.27461 -0.534,2.06446 l -0.7496,0.44531 c -0.7273,-1.22734 -0.3023,-2.48125 0.85,-3.16484 1.0707,-0.63516 2.3028,-0.50899 2.9426,0.57031 0.6789,1.14414 -0.0969,2.04961 -0.8633,2.91562 -0.4527,0.51407 -0.8457,1.0140896 -0.4894,1.6151896 0.3273,0.5508 0.9508,0.6274 1.5519,0.2708 0.6668,-0.3958 0.8274,-1.0254 0.434,-1.7266096 l 0.7496,-0.44531 c 0.6215,1.06762 0.2875,2.2121196 -0.791,2.8515196"
         style="fill:#740134;fill-opacity:1;fill-rule:evenodd;stroke:none;stroke-width:0.1"
         id="path26" />
      <path
         d="m 27.2426,3.6051724 0.8273,-0.3543 2.6379,6.15899 -0.8269,0.35468 -2.6383,-6.15937"
         style="fill:#740134;fill-opacity:1;fill-rule:evenodd;stroke:none;stroke-width:0.1"
         id="path28" />
      <path
         d="m 36.1488,7.6247024 -4.1715,1.2207 -0.2207,-0.7539 1.6633,-0.48633 -1.6609,-5.67852 0.8363,-0.24453 1.661,5.67813 1.6722,-0.48946 0.2203,0.75391"
         style="fill:#740134;fill-opacity:1;fill-rule:evenodd;stroke:none;stroke-width:0.1"
         id="path30" />
      <path
         d="m 37.0898,2.5290024 1.5567,3.27539 0.6055,-3.57031 z m 1.4262,4.73242 -3.1894,-6.3293 0.9105,-0.122654 0.4797,0.968364 2.6937,-0.36719 0.2129,-1.062502 0.911,-0.123829 -1.3922,6.952341 -0.6262,0.08477"
         style="fill:#740134;fill-opacity:1;fill-rule:evenodd;stroke:none;stroke-width:0.1"
         id="path32" />
      <path
         d="m 44.7094,4.1528324 c -0.6586,0.18593 -1.2606,0.39179 -1.2875,1.09101 -0.025,0.64063 0.4582,1.04297 1.1562,1.06953 0.775,0.03008 1.252,-0.41133 1.3024,-1.21406 l 0.8707,0.0332 c -0.0574,1.23438 -0.959,2.01367 -2.2129,1.96485 -1.1289,-0.04297 -2.032,-0.73907 -1.9852,-1.94532 0.0492,-1.27226 1.1063,-1.5957 2.2785,-1.91406 0.6196,-0.16797 1.2883,-0.37226 1.3188,-1.15625 0.0277,-0.71758 -0.5102,-1.169921 -1.2852,-1.200389 -0.9093,-0.034766 -1.5347,0.525389 -1.5703,1.444529 l -0.8707,-0.03398 c 0.0555,-1.426174 1.0934,-2.248049 2.4328,-2.196487 1.2442,0.048047 2.2106,0.823438 2.1621,2.077347 -0.0511,1.32968 -1.1953,1.66875 -2.3097,1.98008"
         style="fill:#740134;fill-opacity:1;fill-rule:evenodd;stroke:none;stroke-width:0.1"
         id="path34" />
      <path
         d="m 55.0453,3.5145424 -3.2824,4.47071 -0.8746,-0.28438 4.3004,-5.64922 0.6004,0.19532 0.1527,7.09453 -0.8738,-0.28438 -0.0227,-5.54258"
         style="fill:#740134;fill-opacity:1;fill-rule:evenodd;stroke:none;stroke-width:0.1"
         id="path36" />
      <path
         d="m 57.1246,9.9704024 2.8871,-6.04687 0.8113,0.3875 -2.8867,6.0472696 -0.8117,-0.3878996"
         style="fill:#740134;fill-opacity:1;fill-rule:evenodd;stroke:none;stroke-width:0.1"
         id="path38" />
      <path
         d="m 63.682,6.7731424 -3.1234,5.0253596 -0.7398,-0.4597 3.5375,-5.6926196 2.6027,1.61836 -0.4145,0.66602 -1.8625,-1.15742"
         style="fill:#740134;fill-opacity:1;fill-rule:evenodd;stroke:none;stroke-width:0.1"
         id="path40" />
      <path
         d="m 66.5867,16.329802 3.3723,-3.9309 -5.6606,1.9668 -0.7336,-0.6289 4.3629,-5.0855396 0.661,0.56719 -3.3719,3.9296496 5.6605,-1.9668 0.7336,0.6297 -4.3629,5.0852 -0.6613,-0.5664"
         style="fill:#740134;fill-opacity:1;fill-rule:evenodd;stroke:none;stroke-width:0.1"
         id="path42" />
      <path
         d="m 73.718,15.222402 -1.6492,1.3878 1.8613,2.2125 -0.6004,0.5063 -1.8617,-2.2141 -1.6785,1.4121 1.8617,2.2129 -0.6008,0.5059 -2.4231,-2.8801 5.1301,-4.3152 2.4227,2.8801 -0.6008,0.5054 -1.8613,-2.2136"
         style="fill:#740134;fill-opacity:1;fill-rule:evenodd;stroke:none;stroke-width:0.1"
         id="path44" />
      <path
         d="m 74.2422,26.139502 4.4223,-2.6972 -5.993,0.1219 -0.5035,-0.8262 5.7226,-3.4903 0.4535,0.7442 -4.4226,2.6973 5.9933,-0.1219 0.5036,0.8262 -5.7227,3.4902 -0.4535,-0.7442"
         style="fill:#740134;fill-opacity:1;fill-rule:evenodd;stroke:none;stroke-width:0.1"
         id="path46" />
      <path
         d="m 81.7164,30.748502 c -1.2273,0.5149 -2.0172,-0.3797 -2.7691,-1.2578 -0.4457,-0.5183 -0.8871,-0.9773 -1.5317,-0.7066 -0.5918,0.2476 -0.7523,0.8543 -0.4824,1.4988 0.2996,0.7148 0.9012,0.9617 1.6504,0.668 l 0.3367,0.8039 c -1.143,0.4683 -2.2301,-0.0207 -2.7148,-1.177 -0.4364,-1.0422 -0.186,-2.1535 0.9258,-2.6203 1.1742,-0.491 1.9136,0.3305 2.6964,1.2578 0.4133,0.4907 0.8809,1.011 1.6047,0.7074 0.6617,-0.2777 0.8446,-0.9562 0.5446,-1.671 -0.3516,-0.8387 -1.1231,-1.1692 -1.9704,-0.8133 l -0.3367,-0.8039 c 1.3153,-0.5508 2.4981,0.0422 3.0164,1.2785 0.4813,1.1472 0.1864,2.3515 -0.9699,2.8355"
         style="fill:#740134;fill-opacity:1;fill-rule:evenodd;stroke:none;stroke-width:0.1"
         id="path48" />
      <path
         d="m 77.7652,34.410602 6.418,-1.9254 0.2586,0.8614 -6.4184,1.9258 -0.2582,-0.8618"
         style="fill:#740134;fill-opacity:1;fill-rule:evenodd;stroke:none;stroke-width:0.1"
         id="path50" />
      <path
         d="m 84.1875,40.606002 c -1.307,0.2511 -1.8953,-0.7872 -2.4508,-1.8004 -0.3289,-0.6008 -0.6664,-1.1399 -1.3527,-1.009 -0.6305,0.1211 -0.9129,0.6816 -0.7809,1.3679 0.1457,0.7622 0.6836,1.1274 1.477,0.9946 l 0.164,0.8554 c -1.2148,0.2235 -2.1777,-0.4796 -2.414,-1.7113 -0.2129,-1.1094 0.2613,-2.1465 1.4461,-2.3726 1.2508,-0.2395 1.8039,0.7168 2.3797,1.7859 0.3031,0.5652 0.6531,1.1711 1.4242,1.0234 0.7051,-0.1347 1.0238,-0.7617 0.8777,-1.5234 -0.1707,-0.8926 -0.8582,-1.3762 -1.7605,-1.202 l -0.1641,-0.8554 c 1.4008,-0.2688 2.4363,0.5562 2.6887,1.8719 0.234,1.2226 -0.3024,2.3386 -1.5344,2.575"
         style="fill:#740134;fill-opacity:1;fill-rule:evenodd;stroke:none;stroke-width:0.1"
         id="path52" />
      <path
         d="m 35.9109,29.921602 c 0.3895,-0.177 0.6368,0.425 0.195,0.584 -0.3539,0.123 -0.6543,-0.3899 -0.195,-0.584"
         style="fill:#740134;fill-opacity:1;fill-rule:evenodd;stroke:none;stroke-width:0.1"
         id="path54" />
      <path
         d="m 57.4684,47.999702 c 0.2832,-0.3359 0.4066,-0.6191 0.4773,-1.0969 -0.3008,0.2309 -0.6898,0.3723 -1.1668,0.3899 0.0703,-0.336 0.2824,-0.6192 0.1234,-1.2383 l -0.0175,-0.0352 c -0.2301,0.4246 -0.4953,0.584 -0.725,0.8489 -0.6903,0.7429 -0.4426,1.9097 -0.0535,3.0066 0,0.4602 -0.2297,0.9023 -0.7426,0.9023 -1.3266,-0.2128 -2.4938,-1.3269 -3.8203,-1.2207 -0.4598,0.9551 -0.725,2.4582 -1.9985,3.0247 1.7688,-0.2122 2.9184,-1.1672 3.5196,-2.0872 1.1492,0.9903 2.5293,2.1758 4.1738,1.7161 0.584,-0.1954 0.9199,-0.6196 1.0433,-1.2563 0.1067,-1.0074 -0.5125,-2.2996 0.5485,-3.1836 -0.4242,-0.2305 -0.9375,0.3711 -1.3617,0.2297 z m -8.3661,1.5566 c -0.1589,0.92 -0.5476,1.9278 -1.1668,2.9004 0.5301,0.1946 1.2911,-0.159 1.7153,-0.5832 0.6015,-0.5664 0.9375,-1.4508 1.1324,-2.3347 -0.3187,0.0175 -1.2559,-0.0176 -1.6809,0.0175 z m -3.3953,0.4422 c 0.0356,0.2121 0.2301,0.6367 0.4067,0.9731 0.5308,0.2476 0.9726,0.5664 1.3441,0.9375 0.4953,-0.4602 0.9375,-1.5742 1.0078,-2.3352 -0.866,0.0352 -1.8386,0.177 -2.7586,0.4246 z m -0.2652,0.7785 c -0.584,-1.0437 -0.8664,-2.123 -0.9375,-3.5195 l -1.1492,1.1492 c -0.1949,-0.3535 -0.4602,-0.9375 -0.725,-1.3257 -0.1242,0.2292 -0.3895,0.6003 -0.584,0.9011 0.2652,0.7781 0.3355,1.2031 0.2297,2.211 0.3715,0.3183 1.6269,1.3796 2.7062,1.9101 0.902,0.3184 1.5032,0.6192 1.6801,1.0078 0.1234,-0.123 0.4067,-0.3183 0.6192,-0.4773 -0.3715,-0.6543 -1.6977,-1.4856 -2.8477,-1.7336 0.1949,-0.1406 0.6543,-0.1406 1.0082,-0.1231 z m -4.227,-4.2453 c -0.1058,-0.7957 -0.0175,-0.8836 0,-1.1492 0.0356,-0.3711 -0.725,-0.4598 -1.1851,-0.5476 -0.7074,-0.2305 -1.3793,-0.4778 -2.1043,-0.8848 0.0883,0.7066 0.4949,1.0437 0.9726,1.3797 0.2473,0.123 0.5485,0.2644 0.8133,0.5129 0.3539,0.9019 0.3539,2.6172 0.3715,4.0144 0.3895,-0.0351 1.3797,-0.1062 1.8215,-0.1238 0.1418,-1.2023 -0.548,-2.175 -0.6895,-3.2016 z m -10.2402,-1.5203 c -0.1941,-0.3183 -0.0707,-0.7781 0,-1.1316 -0.2832,-0.0539 -0.6547,-0.0891 -1.1324,-0.1242 -0.0176,0.6543 0.2125,1.2019 0.425,1.6269 0.6719,0.6895 1.5383,1.468 2.1574,2.052 0.2301,0.2468 0.5129,0.5476 0.8492,0.7781 l 3.8731,0.2644 0.0176,0.1243 c -0.2473,0.1589 -0.7075,0.1242 -0.9903,0.1242 l 0.0528,0.4422 c 1.0441,0.4773 2.2285,0.6008 3.3429,0.6718 -0.0176,-0.955 0.0356,-2.1933 -0.1234,-3.1308 -1.4152,-0.2649 -4.0328,0.5664 -5.6774,0.5312 z m -2.3527,0.8137 c 0.1769,0.6543 0.2476,1.4148 0.5133,1.9629 0.9726,0.7605 2.3699,1.5562 3.6253,2.1043 1.0793,0.0351 2.1047,0 3.0954,-0.159 -0.0707,-0.3012 -0.1239,-0.602 -0.159,-0.9731 -0.9375,0.0715 -1.8395,0.1418 -2.8301,0.1418 -0.9551,-0.3183 -2.0516,-0.8664 -2.918,-1.5918 -0.1418,-0.53 0.0707,-0.9199 0.159,-1.45 -0.3539,-0.0351 -1.0258,-0.0175 -1.45,-0.0351 z m 4.2625,13.6707 c 0.3183,-0.0703 0.6898,-0.2473 0.8668,-0.6016 0,0 0.2656,0.0364 0.5656,0.0535 0.0711,-0.3535 0.0711,-0.5835 0.1066,-0.9199 -0.4425,-0.0523 -1.2734,-0.2117 -1.6273,-0.5125 l -0.2652,0.5481 c -0.3711,0.6011 -0.177,0.4773 -0.4778,0.8133 0.2657,0.0175 0.6727,-0.2122 1.0082,-0.4239 -0.0707,0.3887 -0.1414,0.7071 -0.1769,1.043 z m 1.9808,-5.1992 c -0.2652,-0.0535 -0.7961,-0.1414 -1.1672,-0.2305 l -0.0707,0.0715 -0.7074,2.918 c 0.3008,0.2832 1.1145,0.4597 1.5387,0.4597 z m 0,-1.7332 c -0.6894,0 -0.9902,0.4597 -1.0961,1.0078 0.4774,0.1238 1.4852,0.3355 2.0336,0.2305 0.1059,-0.7258 -0.2476,-1.2383 -0.9375,-1.2383 z m 0.9551,1.7156 -0.548,0.0352 -0.3364,3.1296 c 0.6016,-0.0523 1.0618,-0.3535 1.2028,-0.7593 0.2832,-0.5317 -0.3887,-1.8047 -0.3184,-2.4055 z m 3.0242,3.1648 c 0.6192,-0.4949 1.1676,-1.1316 1.6098,-1.8914 -0.1238,-0.0175 -0.407,-0.0886 -0.7074,-0.1953 -0.5129,0.8496 -1.5567,2.0867 -2.6352,2.3875 l 0.177,-0.4414 c 0.8836,-0.5484 1.3968,-1.0965 1.9277,-2.1055 -0.9902,-0.4058 -2.0519,-0.9902 -2.9894,-1.821 0.0882,0.5128 -0.1235,1.0429 0.1066,1.6621 0.3891,0.9914 0.548,2.0515 -0.6016,2.7597 -0.2652,0.1231 -0.548,0.177 -0.8488,0.2117 -0.0355,0.3188 -0.0355,0.6719 -0.0883,0.9731 1.2379,0.0523 3.0418,-0.6543 4.0496,-1.5395 z m -1.2199,8.3125 c 0.1059,0.1067 0.2473,0.1782 0.4242,0.0539 0.1235,-0.1242 0.1235,-0.3007 0.0532,-0.4597 -0.1059,-0.1242 -0.3008,-0.1594 -0.4422,-0.018 -0.1594,0.1059 -0.1239,0.2832 -0.0352,0.4238 z m 1.8391,0.4778 c 0.3539,-0.0528 0.566,-0.4414 0.566,-0.7957 -0.0356,-0.2473 -0.1414,-0.4778 -0.3359,-0.6543 0.0531,-0.6543 0.1945,-2.4231 0.2652,-3.466 l 2.6711,-1.0789 c -0.2485,-0.4426 -0.3367,-0.8665 -0.3895,-1.3086 l -3.4668,1.5203 c 0,1.4676 0.0532,2.9367 0.1067,4.3691 -0.6727,0.4949 -0.3543,1.5203 0.5832,1.4141 z m 4.9343,-6.3133 3.9793,0.6016 c 0.5485,-1.4504 0.8141,-6.0317 -0.7953,-7.3938 -1.7683,0.9024 -3.1129,4.3867 -3.184,6.7922 z m -3.5195,-8.1887 c 1.0789,1.2371 2.4942,2.2637 4.4219,3.0059 0.2473,-0.459 0.6543,-0.9016 0.9902,-1.3086 -0.1593,-0.3359 -0.5836,-0.6367 -1.4328,-0.866 -1.0254,-0.5305 -2.2812,-1.6809 -2.6879,-1.8926 z m -0.3887,-0.3183 1.3793,-1.0442 c 0.0176,-0.0523 0,-0.1414 -0.0175,-0.1941 -0.5133,0.0351 -1.3266,0.1062 -1.8219,0.1418 -0.0356,0.2469 -0.0707,0.3887 -0.0883,0.7066 0.1941,0.1594 0.3535,0.2832 0.5484,0.3899 z m 4.3153,4.4211 c 0.0883,-0.2297 0.2121,-0.4067 0.3535,-0.6719 -1.0961,-0.3711 -2.0691,-0.9903 -2.9887,-1.5207 -0.3183,0.3176 -0.725,0.9187 -0.2476,1.1496 z m -0.7074,2.4414 c 0.1058,-0.6731 0.3003,-1.345 0.4953,-1.9641 -0.3719,-0.123 -1.1321,-0.4238 -1.6629,-0.5477 -0.159,0.6192 -0.3,1.5204 -0.2653,2.211 0.5309,0.0879 0.9375,0.1765 1.4329,0.3008 z m -0.9727,2.7937 c -0.5129,0.4246 -0.6898,1.4324 -0.6191,2.0695 0.0175,0.2481 0.2476,0.6192 0.5308,0.5836 0.5125,-0.2476 0.6188,-2.3171 0.0883,-2.6531 z m 0.1766,-0.5652 c 0.7429,0.9539 0.8488,2.4226 0.1949,3.3953 0.6187,0.1769 1.4144,0.1418 2.0512,-0.0711 0.1062,-0.8137 0.0711,-1.7863 -0.5657,-2.7238 l 0.3891,-0.5828 c -0.3715,-0.0715 -1.0082,-0.1594 -1.5035,-0.2305 -0.0352,-0.4602 0.0535,-1.1672 0.1242,-1.5742 -0.2656,-0.0703 -0.9906,-0.2473 -1.3617,-0.2473 0.0347,0.6895 0.1941,1.4148 0.6715,2.0344 z m -6.3137,-9.427 c 0.884,1.5203 2.4402,2.7586 4.2625,3.5196 -0.0711,-0.584 0.1769,-0.8497 0.548,-1.2559 l -1.3621,-1.3621 -0.884,-0.6543 c -0.8843,0.0351 -1.5918,-0.0703 -2.5644,-0.2473 z m -0.5484,1.8391 c 1.0257,0.8308 2.8828,1.9629 4.439,2.2461 0.1238,0 0.1598,-0.0879 0.2832,-0.0879 -2.2637,-0.9731 -3.6433,-2.3352 -4.598,-3.7149 -0.0711,0.5133 -0.0711,1.0614 -0.1242,1.5567 z m 0.1765,-2.5473 c 0.8492,0.4074 1.9813,0.5481 2.8305,0.4778 0.0531,-0.2293 0.0883,-0.3711 0.1058,-0.5829 -1.0968,-0.089 -2.1753,-0.2128 -3.2371,-0.6195 0,0.2649 0.1598,0.4777 0.3008,0.7246 z m 4.0328,15.8645 0.2477,1.4863 0.389,-1.5215 7.57,0.2481 2.1218,-0.584 -2.0867,-0.5305 -7.5523,-0.0348 -0.2117,-1.557 -0.425,1.4328 h -0.2653 c 0.0887,0.336 0.1242,0.5657 -0.0883,1.0078 z m 27.1129,-23.2215 v 26.5644 l -49.3265,0.0172 c 0,-10.7144 -0.1383,-21.5679 -0.0735,-32.2351 h 29.1539 c 0.3524,1.9226 2.8203,4.1941 1.6403,6.3613 l -1.4153,1.6621 c 0.3364,0.1067 0.8141,0.2656 1.1676,0.4602 l 1.5563,-1.5395 c 0.0886,-0.5301 0.3363,-1.1668 0.5484,-1.5203 -0.6899,-1.1504 -1.2555,-2.8301 -1.468,-3.9269 -0.5058,-0.1219 -0.7363,-0.536 -0.4547,-1.4969 h 1.6223 c 0.073,1.1992 0.7609,1.9062 1.1844,2.9648 0.5308,1.3274 0.584,2.6887 0.0355,3.3789 -1.1847,0.9367 -2.1398,1.927 -3.3777,2.9883 -0.1414,0.0352 -0.2832,0.1594 -0.4246,0.1238 -0.1414,-0.0347 0.2121,-0.5125 0.389,-0.5839 -2.2636,-0.9547 -4.4921,-0.6715 -6.8625,-0.3883 -0.0175,0.5476 -0.0175,0.9898 0.1774,1.5203 0.318,-0.3711 0.4594,-0.6184 0.6719,-1.1848 0.3183,0.2832 0.725,1.0793 0.955,1.4328 l 1.4325,-1.4675 c 0.0711,0.9546 0.2828,2.6699 0.6195,3.3425 1.0074,-0.248 2.0867,-0.4074 3.1121,-0.5136 0.1418,-0.5829 -0.1059,-1.5555 0.4246,-1.5555 0.5309,-0.0188 0.2652,1.1668 0.2301,1.5555 0.4777,-0.0704 1.132,-0.0528 1.6629,-0.0528 0.1234,-0.5476 0.0347,-1.4504 0.4949,-1.4328 0.4773,0.018 0.2117,1.0442 0.1941,1.4856 0.4778,0.0711 0.9551,0.0711 1.5036,0.248 -0.884,-1.8035 -0.5305,-4.209 0.725,-5.4297 l -1.4325,-4.9519 c -0.4937,-0.1594 -0.5832,-0.6172 -0.2675,-1.4797 h 15.5839 c 0.002,1.5703 0.0176,3.8136 0.0176,5.6535"
         style="fill:#740134;fill-opacity:1;fill-rule:evenodd;stroke:none;stroke-width:0.1"
         id="path56" />
      <path
         d="m 54.0727,25.573902 c -2.3524,-0.9551 -3.9438,-3.6789 -6.7207,-4.05 0.6543,0.3188 1.2027,0.7074 1.521,0.9375 0.0176,0.1235 -0.0531,0.1594 -0.1773,0.1594 -0.9902,-0.5313 -1.6094,-0.9727 -2.5469,-1.2207 l -1.5914,-0.3184 c -0.0883,0.0176 -0.2472,-0.0351 -0.3363,0.159 0.3891,0.2121 1.6098,0.5656 2.2461,0.8852 0.6723,0.3008 1.1148,0.6004 1.7336,1.0254 0.0531,0.1062 0.0176,0.2656 -0.2121,0.2117 -0.5664,-0.3535 -1.0262,-0.5481 -1.6274,-0.8485 -0.8843,-0.4074 -1.5386,-0.6543 -2.3879,-0.9027 -0.2472,-0.0523 -0.5125,0.018 -0.5656,0.1418 0.0887,0.0527 -0.0351,0.1066 0.2656,0.2481 0.3711,0.1945 1.3969,0.53 2.1043,0.9011 0.6895,0.3547 1.2379,0.6543 1.8043,1.0793 0.0528,0.1414 -0.0179,0.2305 -0.2125,0.1594 -1.3793,-0.8313 -2.441,-1.2734 -3.9793,-1.8391 -0.2121,-0.0711 -0.5129,-0.1242 -0.6543,-0.0539 v 0.3723 l 2.0516,1.0781 c 0.6188,0.3008 1.0965,0.6016 1.7328,1.0789 l 1.5742,1.3801 v 0.2297 c -1.0965,-0.177 -2.2808,-0.5129 -3.5371,0 v 0.159 c 0.6012,0.1594 1.2563,0.248 1.8395,0.4074 0.9902,0.2645 1.9101,0.7242 3.0062,0.9727 1.2028,0.1765 2.7239,0.1941 4.0504,0.3359 0.3535,-0.6899 0.566,-1.5219 0.6192,-2.6887 z m -0.0176,-3.9969 c -0.0711,-0.3183 -0.2481,-0.3007 -0.4071,-0.2121 -0.5304,0.8489 -0.8488,1.8567 -0.8667,2.8477 0.3007,0.3 0.7964,0.6894 1.3621,0.9016 0.1238,-1.0079 0.1238,-2.5469 -0.0883,-3.5372 z m -9.8867,-3.6261 c -0.2125,-0.1946 -1.061,-0.4239 -1.3442,-0.4239 l -0.0176,0.4598 c 0.5661,0.0703 1.1493,0.2824 1.6094,0.6547 0.1238,-0.3188 -0.1058,-0.5844 -0.2476,-0.6906 z m -1.4149,3.6789 c 0.159,-0.0356 0.2301,0.0183 0.3184,-0.2473 0.0531,-0.1418 0.3715,-0.1941 0.6543,-0.3183 0.159,-0.2305 0.3715,-0.2481 0.548,-0.2832 -0.0176,-0.3184 0,-1.1844 0,-1.5391 0,-0.4414 -1.2023,-0.707 -1.4851,-0.6895 z m -0.1594,4.2273 c 0.425,0.0176 1.0082,0.1946 1.327,0.3887 l 0.0348,-2.4231 -1.2911,-0.7246 z m -0.0351,1.0789 c 0.5305,0.1059 1.0254,0.2473 1.4855,0.6367 0.159,-0.2125 0.1946,-0.5132 0,-0.7078 -0.4422,-0.3183 -0.7777,-0.4422 -1.4504,-0.53 -0.0351,0.1414 -0.0531,0.4421 -0.0351,0.6011 z m -0.0531,3.52 c 0.6898,0.105 1.0609,0.2292 1.4859,0.5828 v -2.7411 c -0.1594,-0.5656 -0.7785,-0.7074 -1.4859,-0.9015 z m 0,1.2371 c 0.4066,0.0714 1.114,0.1765 1.4675,0.6543 0.177,-0.4063 -0.0175,-0.7422 -0.3535,-0.9903 -0.2832,-0.1941 -0.8488,-0.3886 -1.1316,-0.4062 0,0.1406 -0.0531,0.7246 0.0176,0.7422 z m -1.6801,-14.3789 c -0.0352,0.955 0.1414,1.6804 1.4148,2.0339 0.0528,-0.0171 0.0887,-1.8211 0.0887,-1.8562 -0.4426,-0.1067 -1.0262,-0.1238 -1.5035,-0.1777 z m -3.1485,-0.4063 c -0.0175,0.6543 -0.2652,1.5203 -0.8664,1.9277 -0.4066,0.3008 -1.0789,0.4778 -1.5918,0.4246 l -0.0707,9.5325 c 1.4153,-0.0176 2.4231,0.6718 2.352,2.3703 l 2.3703,0.2652 c -0.0176,-1.168 0.8664,-2.193 2.1398,-2.193 l 0.2653,-9.3554 c -1.5567,-0.4426 -2.0516,-1.2922 -1.9453,-2.6711 z m -1.9097,-0.1414 c -0.2301,0 -0.4242,0.1062 -0.5485,0.3887 v 1.698 c 0.5129,0 0.9375,-0.1418 1.3086,-0.425 0.3895,-0.3531 0.6727,-0.8133 0.6727,-1.5555 -0.4602,-0.0539 -0.9734,-0.1062 -1.4328,-0.1062 z m -0.6367,13.618 c -0.018,0.3183 0.0531,0.584 0.4066,0.6191 0.3535,0.0352 0.9727,0.0703 1.5211,0.1066 -0.0176,-1.2738 -0.5133,-1.8925 -1.9277,-1.8925 0,0.3711 0.0175,0.7066 0,1.1668 z m 6.8621,1.2031 v -1.8574 l -0.4071,0.0175 c -0.7074,0.1243 -1.2379,0.9375 -1.2379,1.6985 0.4778,0.0703 1.1145,0.0879 1.645,0.1414 z m -7.2871,-0.8496 -0.0348,-12.7156 c -0.1063,0.1589 -0.2652,0.2468 -0.4602,0.4058 l 0.0356,12.7348 c 0,0.3711 0.0703,0.6187 0.3183,0.6363 1.1321,0.1067 2.6879,0.2656 3.979,0.4602 1.3269,0.1945 2.9363,0.3359 4.298,0.53 0.1059,0.1243 0.0707,0.2485 -0.0707,0.3723 l -8.5246,-0.991 c -0.2297,-0.1059 -0.4422,-0.3012 -0.4422,-0.3891 0,-0.2117 -0.0352,-0.8132 -0.0352,-0.9898 0,-4.2277 -0.0179,-8.207 -0.0535,-12.1867 l -0.4949,0.1062 c -0.0707,3.9797 -0.0355,8.6137 -0.0355,12.9113 0,0.2469 -0.0352,0.6719 0.0355,0.8313 0.0707,0.159 0.4949,0.159 0.4949,0.159 2.9539,0.3008 5.9957,0.7258 8.9668,1.0969 0.1418,0.0527 0.1242,0.2293 -0.0523,0.3359 -2.9188,-0.3188 -6.3852,-0.5844 -9.2153,-0.9199 -0.1058,0 -0.5304,-0.0703 -0.6718,-0.2649 -0.1414,-0.1953 -0.1239,-0.6015 -0.1239,-0.7429 0,-4.4036 0.159,-8.9493 0.0532,-13.4067 h -0.4067 c -0.0176,4.5461 -0.0707,10.2766 -0.0707,14.1672 0,0.4063 0.1414,0.7781 0.7426,0.8137 3.6609,0.3179 5.9246,0.4234 8.8785,0.7957 0.8664,0 1.6274,-0.0891 2.034,-0.7254 0.3184,-0.3711 0.1234,-1.0781 -0.4422,-1.3266 -0.3535,-0.159 -0.7254,-0.2117 -1.1496,-0.2652 -2.3168,-0.2648 -4.6336,-0.5305 -6.9508,-0.7961 -0.3355,-0.0527 -0.5125,-0.2832 -0.6015,-0.6367 z m 31.4289,5.6543 h -47.761 c 0.1766,-6.2422 2.5907,-11.6531 5.986,-15.7356 9.7804,-11.6187196 28.9523,-11.4421596 38.3082,0.9203 3.2265,4.5067 4.9531,8.7665 5.0691,14.8153 h -0.9305 c -0.0054,-3.093 -1.0464,-7.1809 -2.1226,-9.3153 -0.2477,-0.2121 -0.336,-0.2648 -0.6719,-0.3886 -0.9902,-0.4074 -1.5211,-0.3711 -2.5644,-0.7071 -0.2125,-0.1066 -0.4957,-0.1957 -0.5485,-0.3546 0.7254,0 1.468,0.1242 2.1227,0.2832 -0.3184,-0.1946 -0.5485,-0.3887 -0.7606,-0.4954 -2.3879,-1.3972 -5.164,-2.7937 -7.6933,-3.8203 0.5125,1.7864 0.1941,4.8821 -0.6727,7.1457 0.7785,0.1243 1.5918,0.2657 2.3172,0.4778 0.7605,-0.7082 1.0965,-2.3703 1.1496,-3.3078 0.3535,0.4421 0.3715,0.7429 0.407,1.3972 -0.1058,0.6196 -0.5132,1.5031 -0.9375,2.2114 0.6368,0.282 1.5207,0.7781 2.1934,1.0253 0.6895,0.2657 1.6621,0.4598 2.0516,0.6539 -0.2481,0.1946 -0.9555,0.054 -1.3621,0 1.6449,1.1145 3.8203,1.9817 5.7656,2.5825 -0.0883,0.3355 -1.0961,0 -1.4328,0 0.9062,0.6968 1.6925,1.6863 2.0875,2.6121"
         style="fill:#740134;fill-opacity:1;fill-rule:evenodd;stroke:none;stroke-width:0.1"
         id="path58" />
      <path
         d="m 36.1957,18.023902 c -0.4949,0.1594 -0.7074,-0.4949 -0.2824,-0.7066 0.4597,-0.1594 0.7074,0.5125 0.2824,0.7066"
         style="fill:#740134;fill-opacity:1;fill-rule:evenodd;stroke:none;stroke-width:0.1"
         id="path60" />
      <path
         d="m 39.348,24.261402 c 0.0176,-0.5137 0.177,-1.1679 -0.3183,-1.2383 -0.7074,-0.0711 -0.3891,0.7957 -0.5832,1.0789 -0.3012,0.1235 -1.0086,-0.1941 -1.1676,0.354 0.0707,0.707 0.6899,0.6367 1.1316,0.7246 -0.0531,0.5132 -0.3359,0.9375 0.4071,1.114 0.6012,-0.0527 0.3715,-0.5652 0.4246,-0.9363 0.3887,-0.0188 1.0609,0.0699 1.0785,-0.5141 0.018,-0.5828 -0.5484,-0.4058 -0.9727,-0.5828 z m 1.3618,0.5481 c -0.0172,0.689 -0.4598,0.8308 -1.061,0.8672 0.0176,0.3535 -0.0883,0.707 -0.2832,0.9011 -0.7426,0.3535 -1.6625,-0.0527 -1.4324,-1.0078 -0.407,-0.0715 -1.1672,-0.3359 -1.1141,-1.0254 0.0528,-0.6902 0.4598,-0.8847 1.2555,-0.8496 0.0352,-0.5832 0.4067,-1.2383 0.9906,-1.1492 0.5836,0.0887 0.7071,0.743 0.7071,1.4324 0.4601,0 1.0086,0.2473 0.9375,0.8313"
         style="fill:#740134;fill-opacity:1;fill-rule:evenodd;stroke:none;stroke-width:0.1"
         id="path2111909" />
      <path
         d="m 47.7055,54.915702 c -0.0707,0.4063 -0.1766,0.866 -0.2297,1.2371 0.389,0.0539 0.6363,0.0715 0.884,0.1242 l -0.1059,0.6543 c -0.3184,-0.0878 -0.3891,-0.0703 -0.8316,-0.1945 -0.0883,0.4074 -0.141,0.7434 -0.2293,1.2387 0.3183,0.0347 0.6008,0.0523 0.884,0.0879 -0.018,0.1941 -0.0356,0.407 -0.0532,0.6187 -0.2125,-0.0523 -0.6898,-0.1051 -0.9375,-0.1941 -0.0883,0.4426 -0.1414,0.7605 -0.159,1.291 -0.1418,-0.0527 -0.5484,-0.0715 -0.6718,-0.1238 0.1414,-0.4602 0.1941,-0.8313 0.2648,-1.2563 -0.2648,-0.0347 -0.5301,-0.0879 -0.9367,-0.1226 l 0.0879,-0.584 c 0.3187,0.0523 0.7957,0.1765 0.9555,0.1765 0.0703,-0.4953 0.141,-0.8308 0.1765,-1.2207 -0.2832,-0.0879 -0.6363,-0.1054 -0.9195,-0.1418 l 0.1414,-0.6531 c 0.4773,0.1055 0.6191,0.1406 0.8668,0.2293 0,-0.407 0.0883,-0.9723 0.0351,-1.2906 0.2832,0 0.584,0.0879 0.7782,0.1238"
         style="fill:#740134;fill-opacity:1;fill-rule:evenodd;stroke:none;stroke-width:0.1"
         id="path64" />
      <path
         d="m 41.7926,18.413002 c -0.4246,0.2117 -0.725,-0.3535 -0.336,-0.584 0.4422,-0.2121 0.6899,0.4246 0.336,0.584"
         style="fill:#740134;fill-opacity:1;fill-rule:evenodd;stroke:none;stroke-width:0.1"
         id="path66" />
      <path
         d="m 34.1758,56.100502 c 0.0883,0.1941 0.0351,0.318 -0.0883,0.4949 -0.1594,0.0352 -0.2125,0.1238 -0.3719,0 -0.0883,-0.1769 -0.0351,-0.3711 0.0356,-0.5305 0.1945,-0.1062 0.389,-0.1238 0.4246,0.0356"
         style="fill:#740134;fill-opacity:1;fill-rule:evenodd;stroke:none;stroke-width:0.1"
         id="path68" />
      <path
         d="m 41.2129,30.470402 c 0.3539,-0.0879 0.5133,0.4602 0.1598,0.5664 -0.4075,0.1594 -0.5133,-0.5129 -0.1598,-0.5664"
         style="fill:#740134;fill-opacity:1;fill-rule:evenodd;stroke:none;stroke-width:0.1"
         id="path70" />
      <path
         d="m 7.11797,56.398102 -6.185548,3.4746 -0.160938,-0.9042 4.877736,-2.6297 -5.487501,-0.7911 L 0,54.643502 l 7.00742,1.1328 0.11055,0.6218"
         style="fill:#740134;fill-opacity:1;fill-rule:evenodd;stroke:none;stroke-width:0.1"
         id="path72" />
      <path
         d="m 8.20664,60.935202 -6.44609,1.8372 -0.24649,-0.8657 6.44532,-1.8379 0.24726,0.8664"
         style="fill:#740134;fill-opacity:1;fill-rule:evenodd;stroke:none;stroke-width:0.1"
         id="path74" />
      <path
         d="m 9.98867,65.943802 -0.73242,0.2825 -0.78906,-2.045 -5.51914,2.1309 -0.31367,-0.8125 6.25117,-2.4141 1.10312,2.8582"
         style="fill:#740134;fill-opacity:1;fill-rule:evenodd;stroke:none;stroke-width:0.1"
         id="path76" />
      <path
         d="m 10.9145,67.924302 -4.55473,2.466 5.99103,0.1856 0.4597,0.8508 -5.89292,3.1902 -0.41485,-0.7656 4.55467,-2.4661 -5.9906,-0.1863 -0.46055,-0.8508 5.89375,-3.1902 0.4145,0.7664"
         style="fill:#740134;fill-opacity:1;fill-rule:evenodd;stroke:none;stroke-width:0.1"
         id="path78" />
      <path
         d="m 14.5102,73.849302 -5.47739,3.8621 -0.51875,-0.7359 5.47774,-3.8613 0.5184,0.7351"
         style="fill:#740134;fill-opacity:1;fill-rule:evenodd;stroke:none;stroke-width:0.1"
         id="path80" />
      <path
         d="m 13.0488,80.456002 3.3063,-1.479 -1.4457,-1.6343 z m 2.8172,-4.7778 -0.5394,0.9375 1.8007,2.0363 1.002,-0.4128 0.609,0.6882 -6.5551,2.7024 -0.4187,-0.4731 3.4929,-6.1668 0.6086,0.6883"
         style="fill:#740134;fill-opacity:1;fill-rule:evenodd;stroke:none;stroke-width:0.1"
         id="path82" />
      <path
         d="m 21.2219,80.866902 c 1.0855,0.9101 1.1078,2.3152 0.2957,3.2844 l -2.9086,3.4707 -0.668,-0.5598 2.9086,-3.4707 c 0.5414,-0.6465 0.5426,-1.5566 -0.1324,-2.123 -0.6824,-0.5711 -1.5766,-0.3836 -2.1055,0.2468 l -2.909,3.4707 -0.6675,-0.5593 2.9086,-3.4707 c 0.8121,-0.9688 2.1914,-1.1993 3.2781,-0.2891"
         style="fill:#740134;fill-opacity:1;fill-rule:evenodd;stroke:none;stroke-width:0.1"
         id="path84" />
      <path
         d="m 24.5297,87.042702 c 0.6246,0.1484 1.3098,0.2883 1.7105,-0.3867 0.3668,-0.6161 0.1094,-1.2708 -0.557,-1.6668 -0.782,-0.4641 -1.5984,-0.2707 -2.0676,0.5195 l -0.7488,-0.4445 c 0.7285,-1.2266 2.0324,-1.454 3.1844,-0.7696 1.0699,0.636 1.5496,1.7785 0.9086,2.8567 -0.6793,1.1433 -1.8461,0.8953 -2.9735,0.6375 -0.6672,-0.1512 -1.2945,-0.2567 -1.6515,0.3437 -0.3274,0.552 -0.095,1.1348 0.5054,1.4922 0.6672,0.3957 1.2965,0.2355 1.7239,-0.4461 l 0.7484,0.4453 c -0.6387,1.0567 -1.8027,1.3106 -2.8812,0.6707 -0.9708,-0.5769 -1.4317,-1.6191 -0.8161,-2.6562 0.6504,-1.0946 1.7332,-0.8739 2.9145,-0.5957"
         style="fill:#740134;fill-opacity:1;fill-rule:evenodd;stroke:none;stroke-width:0.1"
         id="path86" />
      <path
         d="m 34.2852,87.813402 c 1.3652,0.3777 1.9683,1.6472 1.6312,2.8652 l -1.2066,4.3641 -0.8399,-0.2321 1.2067,-4.3644 c 0.2246,-0.8117 -0.152,-1.6406 -1.0008,-1.8762 -0.8578,-0.2371 -1.5938,0.3047 -1.8129,1.0977 l -1.2074,4.3648 -0.8399,-0.232 1.2071,-4.3641 c 0.3367,-1.2187 1.4968,-2 2.8625,-1.623"
         style="fill:#740134;fill-opacity:1;fill-rule:evenodd;stroke:none;stroke-width:0.1"
         id="path88" />
      <path
         d="m 38.7871,88.918802 -0.4242,5.161 3.4285,-4.9141 0.9637,0.0793 -0.5492,6.677 -0.8676,-0.0707 0.4238,-5.161 -3.4285,4.9141 -0.9637,-0.0797 0.5489,-6.6773 0.8683,0.0714"
         style="fill:#740134;fill-opacity:1;fill-rule:evenodd;stroke:none;stroke-width:0.1"
         id="path90" />
      <path
         d="m 45.9094,95.761002 -0.8989,0.0535 -0.4019,-6.6906 0.898,-0.0539 0.4028,6.691"
         style="fill:#740134;fill-opacity:1;fill-rule:evenodd;stroke:none;stroke-width:0.1"
         id="path92" />
      <path
         d="m 49.6254,88.498902 3.5644,6.1356 -0.9023,0.1738 -2.6996,-4.8398 -0.7113,5.4996 -0.9024,0.1738 1.0309,-7.0231 0.6203,-0.1199"
         style="fill:#740134;fill-opacity:1;fill-rule:evenodd;stroke:none;stroke-width:0.1"
         id="path94" />
      <path
         d="m 56.3227,86.438402 0.2726,0.7351 -2.7113,1.0032 0.7473,2.0203 2.7117,-1.0028 0.2718,0.7364 -2.7117,1.0027 0.761,2.0566 2.7113,-1.0027 0.2726,0.7363 -3.5289,1.3047 -2.3246,-6.2851 3.5282,-1.3047"
         style="fill:#740134;fill-opacity:1;fill-rule:evenodd;stroke:none;stroke-width:0.1"
         id="path96" />
      <path
         d="m 61.3992,90.518502 1.2899,-0.7336 c 0.7574,-0.4305 0.8992,-1.3047 0.5011,-2.0039 -0.4015,-0.7071 -1.2207,-1.0235 -1.9777,-0.5926 l -1.2902,0.7332 z m -2.925,-5.1426 1.0555,1.8554 1.1984,-0.6816 0.1012,-2.5141 0.8656,-0.4918 -0.0972,2.6766 c 0.955,-0.1805 1.8675,0.2813 2.35,1.1301 0.6058,1.0652 0.3445,2.4258 -0.8707,3.1172 l -2.0473,1.164 -3.3129,-5.8254 0.7574,-0.4304"
         style="fill:#740134;fill-opacity:1;fill-rule:evenodd;stroke:none;stroke-width:0.1"
         id="path98" />
      <path
         d="m 63.8805,84.616902 c -0.8926,-1.1133 -0.6469,-2.4141 0.3988,-3.2527 0.9707,-0.7786 2.2086,-0.8262 2.993,0.1519 0.8328,1.0383 0.191,2.0441 -0.4465,3.009 -0.3762,0.5723 -0.6953,1.1223 -0.2578,1.668 0.4008,0.5 1.0289,0.4875 1.5742,0.05 0.6047,-0.4844 0.6758,-1.1313 0.1879,-1.7707 l 0.6797,-0.545 c 0.7652,0.97 0.5949,2.1496 -0.3836,2.9348 -0.8817,0.7059 -2.0199,0.7715 -2.7742,-0.1691 -0.7969,-0.9942 -0.2102,-1.9305 0.466,-2.9395 0.3582,-0.532 0.7297,-1.125 0.2386,-1.7375 -0.4488,-0.5594 -1.1519,-0.5484 -1.7562,-0.0633 -0.7102,0.5684 -0.8152,1.4016 -0.2402,2.1192 l -0.6797,0.5449"
         style="fill:#740134;fill-opacity:1;fill-rule:evenodd;stroke:none;stroke-width:0.1"
         id="path100" />
      <path
         d="m 67.9883,78.178202 4.7793,4.7004 -0.6313,0.6414 -4.7789,-4.7 0.6309,-0.6418"
         style="fill:#740134;fill-opacity:1;fill-rule:evenodd;stroke:none;stroke-width:0.1"
         id="path102" />
      <path
         d="m 70.0941,75.803202 0.5446,-0.6797 4.6191,3.6953 1.0879,-1.3601 0.6133,0.4902 -2.7149,3.3938 -0.6128,-0.4907 1.082,-1.3523 -4.6192,-3.6965"
         style="fill:#740134;fill-opacity:1;fill-rule:evenodd;stroke:none;stroke-width:0.1"
         id="path104" />
      <path
         d="m 74.3809,69.511402 0.6707,0.4082 -1.5028,2.4707 1.8407,1.1192 1.5027,-2.47 0.6707,0.4075 -1.5027,2.4707 1.8734,1.1394 1.5027,-2.4707 0.6711,0.4082 -1.9562,3.2153 -5.7258,-3.4836 1.9555,-3.2149"
         style="fill:#740134;fill-opacity:1;fill-rule:evenodd;stroke:none;stroke-width:0.1"
         id="path106" />
      <path
         d="m 75.6855,66.829002 0.3559,-0.7949 5.3988,2.4199 0.7125,-1.5898 0.7164,0.3203 -1.7773,3.9668 -0.7164,-0.3215 0.7086,-1.5813 -5.3985,-2.4195"
         style="fill:#740134;fill-opacity:1;fill-rule:evenodd;stroke:none;stroke-width:0.1"
         id="path108" />
      <path
         d="m 82.6492,63.423502 -2.9637,-2.08 -0.6625,2.0792 z m -5.5453,0.0313 1.0805,-0.0176 0.8258,-2.5898 -0.8684,-0.6485 0.2793,-0.8762 5.6805,4.2422 -0.1918,0.602 -7.0852,0.1629 0.2793,-0.875"
         style="fill:#740134;fill-opacity:1;fill-rule:evenodd;stroke:none;stroke-width:0.1"
         id="path110" />
      <path
         d="m 83.5445,59.202002 c -1.2523,-0.2296 -1.4226,-1.3214 -1.5718,-2.5265 -0.0778,-0.6375 -0.1852,-1.3289 -0.9571,-1.4695 -0.7066,-0.129 -1.2301,0.3386 -1.3695,1.1011 -0.1641,0.8957 0.3016,1.5942 1.2059,1.759 l -0.1567,0.8574 c -1.4031,-0.2566 -2.0703,-1.4011 -1.8285,-2.7195 0.2238,-1.2238 1.1281,-2.0703 2.3621,-1.8449 1.3086,0.239 1.482,1.4199 1.6324,2.5664 0.0899,0.6777 0.209,1.3039 0.8965,1.4297 0.6313,0.1152 1.0973,-0.3059 1.2231,-0.9934 0.1398,-0.7625 -0.2293,-1.2976 -1.0172,-1.4605 l 0.157,-0.8578 c 1.2133,0.2328 1.8566,1.2355 1.6309,2.4691 -0.2032,1.1109 -1.0207,1.9059 -2.2071,1.6894"
         style="fill:#740134;fill-opacity:1;fill-rule:evenodd;stroke:none;stroke-width:0.1"
         id="path2111935" />
      <path
         d="m 35.9555,74.599302 v 5.5828 h -0.6938 c 0,-0.6695 -0.1914,-0.9246 -1.1887,-0.9246 v -0.582 h 1.1329 v -4.0762 h 0.7496"
         style="fill:#740134;fill-opacity:1;fill-rule:evenodd;stroke:none;stroke-width:0.1"
         id="path114" />
      <path
         d="m 43.7539,74.599302 h 0.7734 l 2.4805,5.5828 h -3.4613 v -0.6543 h 2.4246 l -2.2172,-4.9285"
         style="fill:#740134;fill-opacity:1;fill-rule:evenodd;stroke:none;stroke-width:0.1"
         id="path116" />
      <path
         d="m 50.1148,77.127402 c -0.7179,0 -1.1886,0.5664 -1.1886,1.2446 0,0.6773 0.4707,1.2437 1.1886,1.2437 0.7176,0 1.1805,-0.5664 1.1805,-1.2437 0,-0.6782 -0.4629,-1.2446 -1.1805,-1.2446 z m -0.0875,-2.5281 1.6586,2.6641 c 0.1996,0.3269 0.3352,0.6941 0.3352,1.1242 0,1.0137 -0.7496,1.8824 -1.9063,1.8824 -1.1562,0 -1.914,-0.8687 -1.914,-1.898 0,-1.0285 0.75,-1.8989 1.9222,-1.8989 0.0954,0 0.2872,0.0246 0.3426,0.0879 l -1.2761,-1.9617 h 0.8378"
         style="fill:#740134;fill-opacity:1;fill-rule:evenodd;stroke:none;stroke-width:0.1"
         id="path118" />
      <path
         d="m 30.6941,76.393502 c 0.4997,0 0.9051,0.405 0.9051,0.905 0,0.4992 -0.4054,0.9043 -0.9051,0.9043 -0.4992,0 -0.9043,-0.4051 -0.9043,-0.9043 0,-0.5 0.4051,-0.905 0.9043,-0.905"
         style="fill:#740134;fill-opacity:1;fill-rule:evenodd;stroke:none;stroke-width:0.1"
         id="path120" />
      <path
         d="m 56.3102,77.263402 c 0,0.5 -0.4047,0.9054 -0.9043,0.9054 -0.4996,0 -0.9047,-0.4054 -0.9047,-0.9054 0,-0.4989 0.4051,-0.9043 0.9047,-0.9043 0.4996,0 0.9043,0.4054 0.9043,0.9043"
         style="fill:#740134;fill-opacity:1;fill-rule:evenodd;stroke:none;stroke-width:0.1"
         id="path122" />
      <path
         d="m 2.74648,47.856002 c 0,-0.5 0.40547,-0.9051 0.90469,-0.9051 0.49961,0 0.90508,0.4051 0.90508,0.9051 0,0.4992 -0.40547,0.9042 -0.90508,0.9042 -0.49922,0 -0.90469,-0.405 -0.90469,-0.9042"
         style="fill:#740134;fill-opacity:1;fill-rule:evenodd;stroke:none;stroke-width:0.1"
         id="path124" />
      <path
         d="m 82.3539,48.529002 c -0.375,-0.3301 -0.4113,-0.9023 -0.0816,-1.2773 0.33,-0.375 0.9019,-0.4114 1.2769,-0.0809 0.375,0.3301 0.4113,0.9012 0.0813,1.2762 -0.3301,0.375 -0.9016,0.4121 -1.2766,0.082"
         style="fill:#740134;fill-opacity:1;fill-rule:evenodd;stroke:none;stroke-width:0.1"
         id="path126" />
      <path
         d="m 40.4609,78.405202 c -0.5414,0 -1.0019,-0.186 -1.2847,-0.5657 v 1.6883 h 2.675 v 0.6543 h -3.3453 v -3.0777 h 0.6867 c 0.2179,0.493 0.5656,0.7027 1.1711,0.7027 0.6871,0 1.1152,-0.4844 1.1152,-1.2605 0,-0.7918 -0.4605,-1.293 -1.2117,-1.293 -0.5695,0 -0.9934,0.2805 -1.0891,0.741 h -0.691 c 0.1168,-0.8277 0.7797,-1.3953 1.7723,-1.3953 1.1711,0 1.9304,0.8399 1.9304,1.9719 0,1.114 -0.6703,1.834 -1.7289,1.834"
         style="fill:#740134;fill-opacity:1;fill-rule:nonzero;stroke:none;stroke-width:0.1"
         id="path128" />
    </g>
  </g>
</svg>
