<svg xmlns="http://www.w3.org/2000/svg" width="314.916" height="89.001"><g data-name="Raggruppa 279" fill="#00284b"><g data-name="Raggruppa 277"><path data-name="Tracciato 263" d="m29.355 52.287.305-.292.384.762-.342-.887h-.3l-.343.416Zm.044.1.206-.032.1.247.145.07-.211-.47Zm.862-1.49c.08.012.118.087.144.236.042.372.272.514.343.084.026-.136.07-.188.144-.158v-.079l-.632-.164Zm.632-2.857-.632-.275v2.8l.632.173Zm-.151-.637-.212.165.184-.028.088.22.129.063Zm39.436 2.512h.36v-.052h-.363l-.241.074.012.05Zm-39.723 2.546.289-.276.364.72-.324-.838h-.28l-.323.393Zm.041.1.195-.03.093.233.137.067-.2-.444Zm1.409-4.076-.632-.276v2.64l.632.173Zm-1.1-1.378h-.265l-.306.372h.26l.273-.261.343.681Zm39.374 3.711h.363v-.052h-.368l-.235.064.01.051Zm0 .448h.363v-.052h-.368l-.235.056.009.052Zm-41.1-.667c.1.015.152.1.185.26.053.394.345.564.439.107.032-.146.1-.195.185-.16v-.083l-.809-.21Zm40.864-.23.008.052.231-.052h.363v-.052a1.9 1.9 0 0 0-.609.052Zm-44.3-5.737-.443.539h.376l.4-.378.5.986-.443-1.147Zm1.2 7.3.232-.036.111.279.164.08-.239-.531Zm.367-6.569h-.313l-.362.44h.308l.323-.308.407.806Zm42.736 9.938h.6v-.053h-.6Zm-43.161-3.485.345-.329.434.86-.387-1h-.332l-.387.47Zm-.751-.688h-.384l-.443.539h.378l.4-.378.5.986Zm-.606-1.877.8.219v-3.455l-.8-.348Zm.213 2.551.266-.041.127.319.188.091-.274-.607Zm1.491-6.08-.251.2.217-.034.1.26.153.075Zm-.929-.045-.273-.608-.307.239.266-.042.127.319Zm-1.35 10.081.226-.006v-.05c-.136.008-.458 0-.6 0v.052Zm4.217-5.509.809.221v-2.868l-.809-.352Zm-4.585 5.053h.6v-.053h-.6Zm2.825-8.819-.7-.3v3.394l.7.191Zm-.7 3.488c.091.014.13.1.16.282.047.453.3.614.379.092.029-.164.075-.23.16-.2v-.095l-.7-.181Zm-2.125 4.883h.6v-.052h-.6Zm3.516-2.8.349-.333.439.87-.391-1.013h-.338l-.391.475Zm-.311-1.81c.09.013.13.1.16.27.047.428.3.587.379.092.028-.155.076-.217.16-.184v-.09l-.7-.181Zm.529-4.018-.228.178.2-.031.094.237.14.068Zm.064-.324h-.285l-.329.4h.28l.294-.28.37.733Zm1.137 1.168.213-.033.1.255.15.073-.219-.487Zm-1.369 5.1.235-.036.112.281.165.08-.241-.536Zm1.684-5.644h-.307l-.355.432h.3l.316-.3.4.789Zm40.442 5.63h.363v-.052h-.366l-.235.034.006.052Zm0 .448h.363v-.052h-.365l-.235.028v.052Zm-44.745-2.94c.1.015.149.111.183.3.053.476.344.656.435.106.032-.173.088-.24.183-.2v-.1l-.8-.207Zm45.108 5.13h-.6v.052h.6Zm-42.155-7.841-.7-.3v3.22l.7.191Zm2.886 4.207c.079.012.118.083.144.224.042.349.271.488.343.084.025-.128.072-.176.144-.147v-.073l-.632-.164Zm38.9.555h.363v-.052a2.739 2.739 0 0 0-.6.038l.007.052Zm-50.652 6.787a5.622 5.622 0 0 1 .048-.962v-4.389c-.014-2.583-1.657-3.026-1.7-.129.007.112-.025 5.122.037 5.063v.6Zm50.413-12.557.016.048.231-.106h.359v-.052h-.363Zm.606-.559h-.363l-.244.121.018.048.23-.116h.358Zm-.358-.4h.358v-.052h-.363l-.244.126.019.048Zm-38.439 2.932-.212.165.184-.028.088.22.129.063Zm38.209-3.255.23-.125h.358v-.052h-.363l-.244.131Zm.23 1.669h.358v-.052h-.363l-.244.122.018.048Zm0 1.794h.359v-.052h-.363l-.242.092.015.049Zm-.245-.422.013.051.232-.077h.36v-.052h-.363Zm.245-.923h.359v-.053h-.363l-.243.107.016.048Zm0 .448h.359v-.052h-.363l-.242.095.015.049Zm-.248-3.074.018.048.23-.114h.358v-.052h-.363Zm-45.859 13.83v-7.727c.005 0 0-.165 0-.165l-.759-.147v-.844l-.791-.2v-2.938h-.088v.393h-.13a1.017 1.017 0 0 0-.24-.6h.984l-1.664-1.179-1.67 1.184h.984a1.017 1.017 0 0 0-.24.6h-.174v.134h.289a.813.813 0 1 1 1.621-.067v.067h.244v2.389l-.389-.1v-.3h-.61v.144l-.131-.032v-.112h-.448l-3.428-.855v-1.666h-.091v.393h-.13a1.012 1.012 0 0 0-.24-.6h.984l-1.671-1.179-1.67 1.184h.984a1.014 1.014 0 0 0-.239.6h-.175v.134h.289a.817.817 0 1 1 1.621 0h.244v1.117l-.389-.1v-.793h-.61v.641l-.131-.033v-.608h-.61v.456l-1.864-.465-1.579-.394v.082l1.34.335v.122l-1.36-.332v.041l1.36.332v1.148l-1.36-.264v.165l11.893 2.3c.023-.004-.067 7.836.044 7.739Zm-2.048-12.269a.892.892 0 0 0-1.287 0v-.126h-.446l1.093-.758 1.089.759h-.449Zm-5.1 0a.892.892 0 0 0-1.287 0v-.126h-.446l1.09-.759 1.089.759h-.446Zm-2.54 2.5-.645-.125v-1.3l.645.161Zm1.216.236-1.143-.221v-1.1l1.143.287Zm0-1.076-1.143-.286v-.116l1.143.285Zm.762 1.223-.567-.11v-1.182l.567.142Zm1.205.233-1.131-.219v-.99l1.131.267Zm0-.984-1.131-.267v-.114l1.131.283Zm.657 1.111-.469-.091v-1.066l.469.117Zm1 .194-.945-.183v-.907l.945.231Zm0-.9-.945-.231v-.093l.945.236Zm.61 1.02-.487-.095v-.982l.487.122Zm.935.181-.873-.169v-.825l.873.213Zm0-.824-.873-.213v-.083l.873.218Zm.491.919-.369-.071v-.9l.369.092Zm.893.173-.831-.161v-.759l.831.2Zm0-.755-.831-.2v-.074l.831.208Zm.332.819-.209-.04v-.817l.209.052Zm.74.144-.679-.132v-.696l.679.166Zm0-.7-.679-.165v-.067l.679.17Zm-6.168 8.931c.1-.077.033-4.962.05-5.2 0-1.211-.4-2.252-.9-2.325s-.9.907-.9 2.188c-.009.807 0 5.453.039 6.148l1.709-.194Zm-.1-11.688c-.017-1.063-1.33-1.056-1.339 0-.005-.002 1.344.012 1.335-.002Zm5.092 1.884v-1.635h-.61v1.635Zm0-1.884c-.017-1.063-1.33-1.056-1.339 0 .001-.002 1.349.011 1.34-.002Zm48.487-2.883h-.363l-.244.123.018.048.23-.119h.358Zm-56.11 15.488a6.1 6.1 0 0 1 .061-1.136v-5.179c-.019-3.045-2.148-3.608-2.208-.167-.012.883 0 5.961.047 6.72Zm8.87-1.007c.055-1.721.032-2.92.037-4.636-.008-2.243-1.193-2.573-1.224-.093v4a8.28 8.28 0 0 1 .026.861ZM15.933 69.88a8.808 8.808 0 0 1 1.045 3.452.5.5 0 0 0 .127-.337c.222-3.277-1.307-6.241-3.6-7.406-.268 2.073.2 5.957 3.12 7.77a.265.265 0 0 0 .323 0h-.035a11.254 11.254 0 0 0-1.959-4.857 10.426 10.426 0 0 1-.835-1.529c.541 1.041 1.266 1.869 1.814 2.904Zm54.245-21.3h.359v-.052h-.363l-.242.088.014.05Zm-48.482 9.676a5.208 5.208 0 0 1 .044-.888v-4.056c-.013-2.384-1.537-2.795-1.58-.12.006.1-.023 4.741.034 4.674v.555Zm-1-9.9h.61v-1.635h-.61Zm49.842-5.216h-.363l-.244.129.019.048.23-.124h.358Zm-.36 5.884h.36v-.052h-.363l-.241.083.013.05Zm-37.893 2.393c.078.012.119.08.144.213.042.326.271.463.343.083.025-.12.073-.163.145-.135v-.069l-.632-.164Zm.473-3.008-.212.165.184-.028.088.22.129.063Zm.059-.3h-.264l-.306.372h.26l.273-.26.344.68Zm-.332 4.713.252-.241.317.629-.282-.731h-.244l-.283.344Zm37.449-3.335.011.051.229-.066h.363v-.052h-.368Zm-37.412 3.422.17-.027.081.2.12.058-.174-.387Zm-1.033-.269.273-.261.344.681-.306-.792h-.265l-.306.372Zm.311-5.022h-.265l-.306.372h.26l.273-.26.344.68Zm1.116 1.308-.632-.275v2.477l.632.173Zm1.518.165-.231.28h.2l.205-.2.259.512-.23-.6Zm-2.906 3.642.184-.028.088.22.129.063-.189-.42Zm2.924.443.139-.021.066.166.1.047-.142-.315Zm-.144-1.495.4.11v-2.089l-.4-.175Zm.422-2.048-.142-.316-.16.124.138-.021.066.166Zm-.073 3.193h-.2l-.23.28h.2l.206-.2.258.512Zm-.349-.893c.116.009.1.451.2.441.112.044.081-.388.2-.339v-.06l-.4-.1Zm-.509.715h-.232l-.269.327h.228l.24-.229.3.6Zm-.239.41.162-.025.077.193.114.055-.166-.368Zm-.03-4.436-.268.327h.228l.24-.229.3.6-.268-.7Zm.346.633-.166-.369-.186.145.161-.025.077.194Zm-.581 2.421c.076.011.119.076.144.2.041.3.27.436.343.083.025-.112.075-.15.144-.123v-.064l-.632-.164Zm23.534-2.443-.715.37h.423v-.016h-.288l.591-.258.591.258h-.286v.016h.424c-.004-.001-.732-.384-.738-.371Zm-15.568 6.736c.336-.042.259.441.605.428.347.012.27-.471.606-.428v-.067h-1.211Zm-16.776-1.567h.361l.235.019v-.052l-.236-.019h-.36Zm15.547-5.176-.734.372h.424c.025-.035-.262-.009-.288-.016l.591-.258.59.258h-.288c-.028.037.422.007.424.016s-.715-.367-.721-.368Zm2.166 6.463v-1.661h-.656v1.661Zm0-3.773v-1.661h-.656v1.661Zm-.321 1.083-.734.372h.424c.025-.035-.263-.008-.288-.016l.59-.258.591.258h-.288c-.028.036.422.007.424.016Zm-2.457-.808c.336-.043.259.441.606.428.347.012.269-.471.605-.428v-.067H39.42Zm2.951-2.048h-1v.068h1Zm-2.951 5.821c.336-.043.259.441.606.428.347.012.269-.471.605-.428v-.062H39.42Zm14.235-5.821h-1v.068h1Zm-13.13 3.773h-1v.068h1Zm-.172-2v-1.661h-.656v1.661Zm0 3.773v-1.661h-.656v1.661Zm.172-5.546h-1v.068h1Zm-.493 2.856-.734.372h.424c.025-.035-.262-.008-.288-.016l.591-.258.59.258h-.288c-.028.036.422.007.424.016s-.715-.369-.721-.369Zm5.793-3.825a.894.894 0 0 0-.8.963c0 .266.006 4.61.034 1.5-.117-2.3 1.461-1.793 1.545-.422l.018 1.541.009-2.623a.894.894 0 0 0-.808-.956Zm1.7 0a.892.892 0 0 0-.8.961v2.021h.13v.57h.085v-.624h-.181v-1.458h.107l.2.563s.455.006.45 0c-.007.009.45 0 .45 0l.2-.563h.108v1.458h-.189v.624h.084v-.57h.13v-2.021a.9.9 0 0 0-.775-.956Zm1.674 0a.894.894 0 0 0-.8.963l.009 2.623.018-1.541c.084-1.371 1.662-1.876 1.544.422.028 3.107.034-1.241.034-1.5a.894.894 0 0 0-.807-.964Zm-7.934 3.017c.336-.042.259.441.605.428.347.012.27-.471.606-.428v-.067h-1.211ZM51.59 54.04h-.492v-4.5c0-.111.075-.445.212-.329.124.16.227-.032.273-.145h-.568v-.236h-.155v.236h-.538c.033.113.128.269.247.151.164-.123.246.189.244.317v4.477h-.328v.168h-.276v.17h1.545v-.147h-.169Zm2.065-.124h-1v.068h1Zm-.512-.915-.715.37h.423v-.016h-.288l.591-.258.59.258h-.286v.016h.424c-.008.007-.737-.38-.742-.369Zm.34 2.687v-1.661h-.655v1.661Zm-.933.275c.336-.043.259.441.606.428.347.012.269-.471.605-.428v-.061H52.55Zm-7.783-7.026c0 .007 2.744 0 2.746 0v-.034h-2.738s-.132-.093-.136-.1h-.354v.034h.345Zm5.493 0 .132-.1h.345v-.034h-.352s-.134.094-.136.1h-2.735v.034s2.741.011 2.743.005Zm-8.382.288-.734.372h.424c.025-.035-.263-.009-.288-.016l.59-.258.591.258h-.288c-.028.037.422.007.424.016s-.712-.366-.722-.367Zm5.186 2.932h.9v-.865h-.9Zm-9.489.033c.336-.043.259.441.606.428.347.012.269-.471.605-.428v-.067h-1.211Zm6.967 1.816h-.329v-4.477c0-.13.081-.437.244-.317a.118.118 0 0 0 .2-.044l.045-.107h-.539v-.236h-.154v.236h-.568l.065.13a.116.116 0 0 0 .208.015c.136-.12.215.224.212.329v4.5h-.493v.161h-.163v.145h1.545v-.17h-.276Zm-6.355-4.781-.734.372h.424c.025-.035-.263-.009-.288-.016l.591-.258.59.258h-.285c-.028.037.422.007.424.016s-.718-.366-.724-.367Zm46.845 14.254c.092-.231-.032-.936-.345-.709-.067.053-.137.126-.214.124-.049 0 0-.312-.028-.666-.043-.64-.229-1.452-.686-1.368-.463.159-.6.855-.755 1.263-.071.209-.147.693-.317.417-.2-.3-.44-.031-.5.275-.145.415-.062 1.247-.156 1.571-.044.062-.1 0-.176-.04a.255.255 0 0 0-.319.042c-.284.225-.2.795-.162.93s.228.323.212.416c-.059.08-.356-.169-.471-.026a.877.877 0 0 0-.075.745c.053.206.324.44.3.533s-.093.054-.179.12-.126.418-.169.551a1.974 1.974 0 0 1-.225.355c-.048.064-.135.569.113.5a4.493 4.493 0 0 0 .625-.835 11.42 11.42 0 0 0 1.682-3.668 13.011 13.011 0 0 1-2.114 4.608 4.765 4.765 0 0 0 1.767-1.387c.03-.248-.23 0-.2-.168.358-.236 1.066-.366 1.406-.761.222-.169.553-.846.136-.9-.122-.009-.263 0-.313-.066-.002-.133 1.14-1.333 1.161-1.851Zm-.913-42.523c-.135.138.027.283-.008.443-.011.052-.211-.008-.452 0-1.195.016-1.477.983-.385 1.537.178.1.413.2.216.361a.322.322 0 0 0 .086.563c.363.184.934.064 1 .159.04.106-.1.2-.12.3-.061.312.364.409.562.312.094-.035.26-.258.317-.236.034.075-.2.435-.126.545.074.193.32.147.463.084s.353-.361.409-.339.015.1.038.194.239.132.315.175.145.205.179.232c.167.132.406.008.325-.215-.223-.37-.527-.776-.8-1.143a4.53 4.53 0 0 0-1.61-1.177c.015.007.057.012.086.023a4.965 4.965 0 0 1 2.242 1.888l.205.284a1.364 1.364 0 0 0-.059-.6 3.872 3.872 0 0 0-.408-1.228c-.155-.028-.05.237-.152.21a7.054 7.054 0 0 0-.178-1.449.509.509 0 0 0-.319-.338c-.286-.071-.241.415-.357.517-.029.026-.087-.078-.169-.236-.24-.441-.757-1.407-1.303-.862Zm-1.461 38.353c.045-.731.059-5.867.047-6.72 0-1.4-.494-2.465-1.1-2.375s-1.1 1.228-1.1 2.542v5.179a6.2 6.2 0 0 1 .062 1.136Zm-44.151-7.395v-1.661h-.655v1.661Zm38.578 6.762c.035-.616.045-4.945.036-5.664-.045-2.893-1.688-2.458-1.7.129v4.389a5.82 5.82 0 0 1 .048.962Zm-2.3-.26c.032-.569.042-4.566.034-5.229-.042-2.671-1.566-2.268-1.58.12v4.051a5.32 5.32 0 0 1 .044.888Zm4.846.55c.037-.669.048-5.367.039-6.148-.047-3.139-1.782-2.676-1.8.137v4.771a6.493 6.493 0 0 1 .05 1.046Zm3.234-11.19-1.36.264v-1.148l1.36-.332v-.041l-1.36.332v-.122l1.341-.335v-.082l-3.443.859v-.456h-.61v.608l-.131.033v-.641h-.61v.793l-.389.1v-1.116h.244v-.067a.811.811 0 1 1 1.621 0v.067h.289v-.134h-.175a1.012 1.012 0 0 0-.24-.6h.983l-1.669-1.184-1.669 1.184h.984a1.018 1.018 0 0 0-.24.6h-.13v-.393h-.091v1.666l-3.429.855h-.448v.112l-.131.032v-.144h-.61v.3l-.223.056h-.008l-.158.04v-2.39h.244v-.067a.811.811 0 1 1 1.621 0v.067h.289v-.134h-.175a1.014 1.014 0 0 0-.24-.6h.984l-1.669-1.184-1.669 1.184h.984a1.012 1.012 0 0 0-.239.6h-.13v-.393h-.091v2.937l-.791.2v.846l-.759.147v7.891h.045v-7.735l11.893-2.3Zm-10.409 2.026-.679.132v-.658l.679-.166Zm0-.735-.679.165v-.063l.679-.17Zm.271.683-.209.04v-.806l.209-.052Zm.954-.185-.831.161v-.711l.831-.2Zm0-.8-.831.2v-.063l.831-.208Zm.43.714-.369.071v-.875l.369-.092Zm1-.193-.873.169v-.781l.873-.213Zm0-.868-.873.213v-.078l.873-.218Zm.548.762-.487.095v-.955l.487-.122Zm1.067-.207-.945.183v-.859l.945-.231Zm0-.949-.945.231v-.087l.945-.236Zm.524.847-.469.091v-1.045l.469-.117Zm1.32-.255-1.131.219v-.942l1.131-.267Zm0-1.032-1.131.267v-.1l1.131-.283Zm.64.908-.567.11v-1.15l.567-.142Zm1.337-.259-1.142.221V47.42l1.142-.287Zm0-1.141-1.142.286v-.117l1.142-.285Zm.719 1-.645.125v-1.262l.645-.161Zm8.966-.487c.286-.472.688-1.117.5-1.671-.147-.368-.436.137-.582.111a10.016 10.016 0 0 1 .185-1.268c.039-.44.111-1.218-.455-1.288-.181-.012-.165.284-.291.4-.041.036-.139-.226-.311-.461-.312-.431-.812-.9-1.168-.491s-.089 1.452-.036 1.8c.055.436-.2.123-.4.343-.269.279.082 1.012.27 1.294.16.3.4.484.068.569a.418.418 0 0 0-.251.284.71.71 0 0 0 .3.751c.09.064.338.032.369.107.015.038-.074.075-.171.129-.422.164-.2.621.056.77.14.093.47.036.5.113s-.05.107-.089.216.094.371.122.49a2.265 2.265 0 0 1-.017.4c0 .123.175.456.325.236a14.244 14.244 0 0 0 .09-3.425 6.546 6.546 0 0 0-.266-1.434 11.412 11.412 0 0 1 .428 3.782c-.011.336-.023.678-.045 1a6.418 6.418 0 0 0 .793-2.247c-.09-.19-.186.173-.24.039-.018-.1.225-.401.313-.552Zm-1.247-20.986a3.12 3.12 0 0 1 .451 1.053c-.068.135-.118-.32-.212-.044a10.8 10.8 0 0 0 .2 2.261 30.8 30.8 0 0 0 .706-3.866 11.333 11.333 0 0 1-.192 1.946c-.115.647-.26 1.362-.376 1.974.012.078-.023.191.13.205.272-.1.2-.358.306-.6.052-.1.229-.312.222-.435-.136-.467.129-.148.425-.193a.506.506 0 0 0 .367-.47c0-.243-.318-.437-.277-.508s.25.036.34 0a.755.755 0 0 0 .357-.9c-.04-.233-.259-.356-.32-.539-.02-.155.094-.323.218-.635.148-.234.077-.7.387-.816a.986.986 0 0 0 .005-.185c0-.176-.145-.378-.281-.339-.093.044-.173-.076-.161-.383a4.609 4.609 0 0 0-.275-2.453c-.394-.464-.747.242-.967.8-.12.307-.18.631-.22.594-.123-.111-.144-.447-.3-.393-.2.07-.3.282-.329.555-.116.485.3 2.252.22 2.36-.066.012-.161-.122-.256-.2s-.19-.114-.259.089a1.926 1.926 0 0 0 .091 1.122Zm2.216 6.725c-.291.737.323 1.7.438 2.373-.074.116-.092-.263-.209-.1a13.257 13.257 0 0 0 .04 1.666c.012.393.04.667.1.693.468-1.56.73-3.22 1.263-4.759.064-.17-.044.128-.055.173-.423 1.514-.68 3.165-1.066 4.666.01.086-.027.195.13.235.291-.06.22-.338.338-.569.06-.1.252-.288.25-.414-.118-.511.144-.134.451-.128a.45.45 0 0 0 .4-.43c0-.256-.331-.515-.287-.583s.264.08.36.054a.645.645 0 0 0 .42-.73.673.673 0 0 0-.184-.448c-.284-.213-.062-.332.145-.651.375-.406.7-1.63.141-1.723-.1.013-.175-.09-.139-.359.088-.428.253-1.94-.109-2.4-.387-.554-.795.1-1.055.623-.146.293-.228.6-.267.56-.112-.1-.1-.462-.288-.457-.654.224-.36 1.409-.346 1.988a3.961 3.961 0 0 1 .056.878c-.143.016-.363-.536-.526-.158Zm-.4 7.307a5.774 5.774 0 0 0-.021-2.221c-.14-.1-.108.241-.2.165a10.655 10.655 0 0 0 .225-1.691.758.758 0 0 0-.2-.528c-.248-.217-.339.344-.476.4-.178-.424-.173-1.417-.529-1.813a.377.377 0 0 0-.512-.109c-.166.1-.055.33-.136.474-.026.051-.19-.109-.416-.209-.955-.468-1.561.183-1.028 1.114a5.645 5.645 0 0 0 .373.613c.1.159.056.257-.053.292s-.379.3-.084.694c.189.31.727.469.89.671 0 .171-.263.246-.235.565.007.373.4.424.5.423s.308-.163.358-.121-.263.313-.233.5c.026.225.271.277.424.271.27-.027.592-.438.464.031 0 .108.2.241.258.32a1.773 1.773 0 0 1 .115.328c.079.148.313.227.36 0a6.82 6.82 0 0 0-.462-1.54 7.948 7.948 0 0 0-1.171-2.177l-.07-.074c.012.015.049.044.072.068a9.894 9.894 0 0 1 1.783 3.554Zm-2.249 13.777c.228-.559.718-1.489.1-1.9-.168-.089-.228.208-.376.263-.047.018-.072-.281-.174-.585-.181-.555-.538-1.214-.969-.98-.394.274-.4.963-.459 1.4-.025.226 0 .687-.232.513-.262-.149-.438.045-.455.466-.038.608.255 1.314.2 1.463s-.272-.12-.5.2a.882.882 0 0 0 .061.884c.064.105.3.192.311.28s-.371-.021-.473.166a.73.73 0 0 0 .109.682c.187.261.656.249.283.519-.068.089-.022.412-.032.543a2.491 2.491 0 0 1-.13.4.564.564 0 0 0 .058.367c.124.125.189-.006.236-.058a13.684 13.684 0 0 0 1.148-4.857 5.518 5.518 0 0 1-.01.859 16.538 16.538 0 0 1-.982 4.072c.292-.1.565-.614.8-.9.123-.181.868-1.183.46-1.039-.054.031-.106.07-.112-.009.293-.348.948-.727 1.2-1.2a1.122 1.122 0 0 0 .185-.657c-.038-.433-.445-.051-.573-.142-.051-.089.248-.555.323-.749Zm-.375-26.162c-.247-.292-.434-1.248-.9-1.524a.4.4 0 0 0-.54.084c-.147.146.014.333-.035.514-.016.057-.213-.031-.466-.044-.456-.028-1.078.08-1.15.666-.053.51.438.921.832 1.132.087.058.107.113.057.182-.209.148-.333.511.353.719-.427.056-.512.5-.323.614a.276.276 0 0 0 .206.044c.223 0 .739-.141.867-.054.016.061-.14.177-.158.268-.044.215.06.5.293.536a.622.622 0 0 0 .3-.02c.1-.033.282-.273.34-.246s-.211.415-.148.6c.074.224.333.192.486.133s.379-.386.438-.356.013.118.036.228.248.176.325.235.144.256.178.291a.246.246 0 0 0 .259.066.224.224 0 0 0 .1-.188 7.879 7.879 0 0 0-1.154-1.942c-.2-.25-1.169-1.492-1.175-1.5s.686.8.775.912c.244.3.55.627.771.941.292.415.661.915.9 1.351a1.831 1.831 0 0 0-.044-.719 11.728 11.728 0 0 0-.312-1.344c-.046-.121-.063-.184-.149-.136-.061.056-.021.247-.1.215a6.548 6.548 0 0 0-.063-1.065 3.831 3.831 0 0 0-.13-.8c-.082-.29-.429-.531-.535-.148-.044.147-.073.307-.137.356Zm-2.276-10.664c.08.185.344.654.308.736-.109.08-.453-.287-.474.131-.042.732.75 1.316 1.048 1.856-.029.141-.149-.186-.2.019a10.868 10.868 0 0 0 .724 2.055c.025-1.544-.272-3.6-.285-4.9.048 1.33.342 2.669.371 4a6.41 6.41 0 0 0 .081.961s.051.1.139.051c.216-.188.1-.394.131-.663.024-.114.134-.375.1-.479s-.1-.13-.077-.208.3-.032.416-.126c.212-.134.39-.633.021-.784-.353-.174 0-.153.155-.249a.854.854 0 0 0 .181-.273.837.837 0 0 0-.349-.995c-.087-.035-.148-.025-.172-.113a8.131 8.131 0 0 0 .176-1.5c-.053-.421-.2-.766-.492-.666-.082.068-.17.013-.224-.244a9.184 9.184 0 0 0-.233-1c-.342-1.224-1.106-1.6-1.239.1-.033.326-.008.631-.052.617-.136-.044-.237-.34-.364-.23-.423.367.048 1.349.31 1.904Zm-47.223 36.32h-1v.068h1Zm-1.106 2.048c.336-.043.259.441.606.428.347.012.269-.471.605-.428v-.068h-1.211Zm-1.233-6.738-.734.372h.424c.025-.035-.262-.009-.288-.016l.591-.258.59.258h-.288c-.028.036.422.007.424.016s-.713-.373-.719-.374Zm2.339.917h-1v.068h1Zm-2.952 2.048c.336-.043.259.441.606.428.347.012.269-.471.605-.428v-.067h-1.211Zm2.458.808-.734.372h.424c.025-.035-.263-.008-.288-.016l.591-.258.59.258h-.282c-.028.036.422.007.424.016s-.718-.375-.724-.375Zm.321 2.69v-1.661h-.655v1.661Zm-1.845 0v-1.661h-.656v1.661Zm.172-1.773h-1v.068h1Zm-1.106 2.048c.336-.043.259.441.606.428.347.012.269-.471.605-.428v-.068h-1.211ZM72.12 76.891a1.184 1.184 0 0 0 .41-1.378c-.084-.214-.213-.011-.341-.087a7.646 7.646 0 0 0 .023-1.686c-.3-1.446-.876-.248-1.158.414-.09.173-.158.124-.19-.03-.431-1.048-.737 1.32-.843 1.463-.073.06-.115-.192-.258-.257a5.827 5.827 0 0 0-.968.231.853.853 0 0 0-.379 1.019c.09.192.62.529.018.4s-.692.532-.491.871c.054.153.434.321.448.463-.018.1-.112.075-.213.161s-.1.46-.128.59c-.064.259-.228.355-.2.591.043.416.3.329.415.01a10.1 10.1 0 0 1 1.19-1.8l.311-.062a6.394 6.394 0 0 0 1.276-2.023c-.019.054-.045.148-.072.215a7.282 7.282 0 0 1-1.2 1.976l-.285.057a9.983 9.983 0 0 0-1.159 1.948 4.758 4.758 0 0 0 .929-.643c.18-.1.319-.254.515-.278.29-.1.579-.247.356-.4-.049-.021-.1-.032-.073-.107.143-.071.523.091.732.075a.815.815 0 0 0 .919-.5.324.324 0 0 0-.107-.4c-.1-.078-.215-.131-.243-.228s.4-.272.766-.608ZM36.339 53.002l-.734.372h.424c.025-.035-.262-.008-.288-.016l.591-.258.59.258h-.288c-.028.036.422.007.424.016Zm.321-1.083v-1.661h-.656v1.661Zm.172-1.773h-1v.068h1Zm5.536 3.773h-1v.068h1Zm-17.883-6.242h.36l.232.077.012-.051-.235-.078h-.369Zm0-.448h.359l.231.092.015-.049-.235-.093h-.37Zm0-.448h.359l.231.1.016-.048-.235-.1h-.371Zm0 2.242h.36l.232.081.013-.05-.235-.082h-.37Zm0-2.691h.358l.231.118.018-.048-.235-.12h-.372Zm0 2.243h.359l.232.085.014-.05-.235-.087h-.37Zm0-.448h.359l.231.089.015-.049-.235-.091h-.37Zm0-2.243h.358l.231.106.017-.048-.235-.108h-.371Zm.607-2.615-.235-.126h-.372v.052h.358l.23.124Zm-.607.372h.358l.231.119.018-.048-.235-.121h-.372Zm0 .449h.358l.231.114.018-.048-.235-.116h-.372Zm0 .9h.358l.23.121.019-.048-.235-.124h-.372Zm0-.448h.358l.23.125.02-.047-.235-.128h-.372Zm0 .9h.358l.231.116.011-.056-.235-.119h-.372Zm0 4.037h.357l.235.067.011-.051-.24-.068h-.363Zm0 7.626a5.956 5.956 0 0 0 .6-.017v-.052c-.138.017-.454.02-.6.017Zm.6-.9v-.052a17 17 0 0 1-.6.006v.052c.141-.009.456-.009.6-.018Zm-.6 1.352a4.143 4.143 0 0 0 .6-.025v-.052a4.134 4.134 0 0 1-.6.025Zm0-3.589h.361l.235.014v-.052l-.236-.014h-.36Zm0-.9h.361l.235.024v-.052a4.4 4.4 0 0 0-.6-.024Zm0 3.589c.143 0 .459 0 .6-.012v-.052a8.494 8.494 0 0 1-.6.012Zm0-3.14h.361l.235.019v-.052l-.236-.019h-.36Zm0-3.14a1.83 1.83 0 0 1 .593.052l.009-.052-.239-.053h-.363Zm0 .449a1.457 1.457 0 0 1 .592.063l.011-.051-.24-.065h-.363Zm0 .448a1.7 1.7 0 0 1 .593.056l.009-.052-.24-.056h-.362Zm0-1.346h.36l.232.072.012-.05-.235-.073h-.369Zm0 2.692h.36l.235.028v-.052a3.681 3.681 0 0 0-.6-.028Zm0-.9h.36l.235.038.006-.052a2.816 2.816 0 0 0-.6-.038Zm0 .449h.36l.235.034.005-.052a3.1 3.1 0 0 0-.6-.034Zm29.91.032c.335-.043.259.441.605.428.347.012.27-.471.606-.428v-.067h-1.211Zm.933-.276v-1.661h-.656v1.661Zm-.34-2.687-.715.37h.423v-.016h-.288l.59-.258.591.258h-.287v.016h.424c-.007-.006-.735-.389-.741-.376Zm.513.915h-1v.068h1Zm1.333 2.859-.715.37h.423v-.016h-.288l.591-.258.591.258h-.286v.016h.424c-.009-.004-.738-.391-.743-.38Zm.513.915h-1v.068h1Zm-.172 1.773v-1.661h-.655V55.7Zm-4.031-6.46-.715.37h.423v-.016h-.288l.591-.258.59.258h-.286c-.037.037.424.007.423.016s-.736-.391-.742-.378Zm-.593 2.963c.336-.042.259.441.606.428.347.013.269-.471.605-.428v-.067h-1.211Zm1.846 3.773c.335-.043.259.441.605.428.347.012.27-.471.606-.428v-.074h-1.211Zm.593-2.963-.715.37h.423v-.016h-.288l.59-.258.591.258h-.287c-.036.037.424.007.423.016s-.736-.392-.742-.381Zm.513.915h-1v.068h1Zm-.172 1.773V54.04h-.656v1.661Zm.912.275c.336-.043.259.441.606.428.347.012.269-.471.606-.428v-.074h-1.211Zm1.106-5.821h-1v.068h1Zm1.673 1.773v-1.661h-.655v1.661Zm-.34 1.086-.715.37h.418v-.016h-.288l.591-.258.591.258h-.287v.016h.424c-.006-.006-.731-.393-.74-.382Zm.513-2.859h-1v.068h1Zm-.513-.915-.715.37h.418v-.016h-.288l.591-.258.591.258h-.287v.016h.424c-.006-.008-.731-.391-.74-.378Zm-5.2 2.687v-1.661h-.655v1.661ZM68.8 57.842a14.2 14.2 0 0 0 1.739.16v-.052h-.363l-.572-.068v-5.383l-.8.1v5.186l-.375-.044v-5.094l-.7.089v4.922l-.376-.044v-4.83l-.736.094v4.649l-.651-.077v-4.488l-.779.1v4.3l-.38-.045v-4.2l-.687.088v4.035l-.38-.045v-3.942l-.611.078v3.792l-.38-.045v-3.7l-.6.076v3.552l-.38-.045v-3.459l-.666.085v3.295l-.38-.045v-3.2l-.4.051v3.1l-.456-.054-.04-8.005a.285.285 0 0 1 .13-.259c2.457-1.339 7.789-4.282 10.22-5.594h11.985l.8-.978H70.186l-4.382 2.636-6.088 3.662s-24.414.008-24.418 0l-10.47-6.3H12.052l.8.978h11.994c2.425 1.308 7.755 4.251 10.22 5.594a.286.286 0 0 1 .13.259l-.04 8.005-.456.054v-3.1l-.4-.051v3.2l-.38.045v-3.295l-.666-.085v3.459l-.38.045v-3.562l-.6-.076v3.7l-.38.045v-3.792l-.61-.078v3.942l-.38.045v-4.036l-.686-.088v4.2l-.38.045v-4.3l-.779-.1v4.488l-.651.077v-4.649l-.737-.094v4.83l-.376.044v-4.922l-.7-.089v5.094l-.376.044v-5.186l-.8-.1v5.383l-.572.065h-.362v.052h.363c.517-.049 9.491-1.134 10.31-1.229h24.707Zm-25.693-1.943h-.242v.821h-7.6l.038-7.7a.252.252 0 0 1 .228-.264h7.5l.071.541Zm8.754 0h-.156v.821h-1.77v-2.768a.6.6 0 0 0-1.2 0v2.319l.132.127v.322h-.9v-.322l.118-.129v-2.317a.6.6 0 0 0-1.2 0v2.321l.131.126v.322h-.9v-.322l.12-.13v-2.317a.6.6 0 0 0-1.2 0v2.768h-1.739v-.821h-.156v-6.6l-.07-.536h8.84l-.07.536Zm.3.821v-.821h-.242v-6.6l.071-.541h7.5a.252.252 0 0 1 .228.264l.037 7.7Zm5.925-4.518c.336-.043.259.441.606.428.347.013.269-.471.605-.428v-.067h-1.212Zm-1.846 0c.336-.043.259.441.606.428.347.012.269-.471.606-.428v-.067h-1.211Zm.934-.276v-1.661h-.655v1.661Zm13.367 2.434a5.712 5.712 0 0 0-.6.019v.052a5.416 5.416 0 0 1 .6-.019Zm-11.349-.433h-1v.068h1Zm-1.106 2.048c.336-.043.259.441.606.428.347.012.269-.471.605-.428v-.073h-1.212Zm.933-.275v-1.661h-.655V55.7Zm-25.722-4.298.632.173v-2.211l-.632-.275Zm-2.212-10.293c.082 0 .078.024.076-.069h-.733v.069h.076v.373h.24v-.373h.1v.373h.241Zm-.241.826h.241v-.374h-.241Zm2.355 0h.24v-.374h-.24Zm-2.7 0h.24v-.374h-.24Zm2.354 0h.241v-.374h-.241Zm29.3-.826c.083 0 .078.025.076-.069h-.733v.069h.076v.373h.24v-.373h.1v.373h.24Zm-.24.826h.24v-.374h-.24Zm-44.895-4.48h-.61v1.635h.61Zm42.917 5.563a6.963 6.963 0 0 0 .035-1.312c0-.476-.166-.258-.166.018.006.001.137-.122.137 1.295Zm-26.352-5.2h-.437v.613h.437Zm-.146 3.292c.083 0 .079.025.076-.069h-.728v.069h.076v.373h.241v-.373h.1v.373h.24Zm29.019 3.566.108-.3h-.955l.108.3Zm-31.613-6.245h.442v-.613h-.437Zm31.331 5.45c-.27-.049-.572.132-.564.369h.146a.525.525 0 0 1 .423-.37Zm-31.115-6.833-.643.579.643-.468.457.334h-.901l-1.055 1.345-.5.289v.472c.009.01 5.577-.019 5.577.01l2.251 2.518-2.289-2.354-5.54-.1v4.3l-4.262-2.488h-2.331l.006-3.908.2-.238v-.212l.119-.321h-2.82l.113.332h2.276v4.346h-4.916l.006-3.908.2-.238v-.212l.119-.321h-2.82l.113.332h2.277v4.346h-5.046l-.233.269h12.786c2.458 1.474 7.97 4.861 10.472 6.377h24.385c2.488-1.519 8-4.874 10.446-6.37.02-.021 12.786 0 12.812-.012l-.233-.269h-5.043v-4.346h2.276l.113-.332h-2.82l.119.321v.212l.2.238.006 3.908h-4.916v-4.346h2.276l.113-.332h-2.82l.119.321v.212l.2.238.006 3.908h-2.331l-4.261 2.488v-4.3l-5.54.1-2.289 2.354 2.249-2.515c0-.029 5.568 0 5.577-.01v-.472l-.5-.289-1.055-1.345H63.5l.457-.334.643.468-.643-.579-.493.444h-.17l.758-.667-1.584-2.921-2.083 4.871-1.7 2.45-1.019.2-6.346.013c-.356 0-.347.539-.41.6-.258.21-.39-.073-.615-.1h-.731l.194.8a.424.424 0 0 0 .511.324c.049-.166.1-.521.322-.51h.4l-.008.738 7.739.018-.259-.91 2-2.279h5.32l.141-.106v2.45l-1.138.792h-4.508l-.827.787H48.274a.324.324 0 0 0 .071-.215l-.219.01h-1.232l-.219-.01a.321.321 0 0 0 .071.215H35.572l-.827-.787h-4.508l-1.138-.792v-2.45l.141.106h5.32l2 2.279-.259.91 7.739-.018-.008-.738c.2.017.571-.086.634.2l.087.308a.424.424 0 0 0 .511-.324l.193-.8h-.731a.333.333 0 0 0-.216.1.315.315 0 0 1-.4 0c-.064-.056-.054-.6-.41-.6l-6.347-.013-1.02-.2-1.7-2.45-2.081-4.869-1.584 2.921.758.667h-.169Zm32.5 1.007v-.238c0-.293.4-.163.628-.19.2 0 .157.3.159.428l.253.6c.051.157-.089.162-.2.153-.169.021-.274.178-.475.158-.225.023-.336-.179-.54-.158a.1.1 0 0 1-.076-.153Zm-1.34.748a.387.387 0 0 0-.268.054.577.577 0 0 1-.656 0c-.1-.105-.347.024-.288-.207l.248-.6v-.238c0-.293.4-.163.628-.19a.176.176 0 0 1 .159.19v.238l.253.6a.1.1 0 0 1-.074.152Zm-1.028-1.311.458-.334.457.334Zm.432-.667.66.667h-.141l-.493-.444-.493.444h-.192Zm-11.195 5.6c-.006-.31.565-.31.559 0Zm12.014 2.516v-.09h-.777v.651l-.864.619v-1.5c0-.333-.237-.364-.237.195 0 .353.036 1.755.036 1.755.2-.151.565-.427.757-.566v.484l-1.634 1.119h-1.862l.027-2.145h1.077l.049-.145h-1.229l.052.14v2.15H56.05l.027-2.145h1.077l.05-.145h-1.233l.052.14v2.15h-1.787l.027-2.145h1.078l.049-.145h-1.235l.052.14v2.15H52.42l.026-2.145h1.078l.049-.145h-1.232l.052.14v2.15h-1.057v-.124h-.978v.124h-1.515l.027-2.145h1.077l.05-.145h-1.233l.052.14v2.15h-2.611v-2.15l.052-.14h-1.233l.049.145h1.078l.027 2.145h-1.515v-.124h-.978v.124h-1.057v-2.15l.052-.14h-1.232l.049.145h1.077l.027 2.145h-1.787v-2.15l.052-.14h-1.232l.049.145h1.078l.026 2.145H39v-2.15l.052-.14h-1.233l.049.145h1.078l.026 2.145h-1.787v-2.15l.052-.14h-1.233l.05.145h1.077l.027 2.145h-1.862l-1.634-1.119v-.484c.177.117.6.451.757.566 0 0 .036-1.4.036-1.755 0-.558-.237-.528-.237-.195v1.5l-.864-.619v-.647h-.777v.09l-1.668-1.195h3.8l.763.675h8.062l.078.119h.032l-.035-.119h1.165l-.036.119h.032l.078-.119h5.324l.078.119h.033l-.036-.119h1.165l-.036.119h.033l.078-.119s8.066.007 8.066 0l.759-.671h3.8Zm-18.872-.64h1.238l-.017.057-1.207-.013Zm6.639 0h1.237l-.013.044-1.207.013Zm-2.484-.274a3.391 3.391 0 0 1-.435 0Zm-13.022-.643.827.787h23.955l.827-.787h4.3l-.225.161h-4.094l-.812.712-7.949.087.081-.123h-1.58l.091.139-2.621.028-2.621-.028.091-.139h-1.58l.081.123-7.949-.087-.812-.712h-4.086l-.225-.161Zm9.606-1.2a.262.262 0 0 1 .28.239h-.559a.261.261 0 0 1 .281-.234ZM33.394 36.82l.66.667h-.192l-.493-.444-.493.444h-.141Zm.432.667h-.915l.458-.334Zm-.851.563v-.238c0-.293.4-.163.628-.19.2 0 .157.3.158.428l.248.6c.044.108-.048.172-.14.153-.169.021-.274.178-.476.158-.2.02-.307-.136-.476-.158-.106.008-.247 0-.2-.153Zm-1.346.748c-.2-.021-.315.18-.54.158-.2.02-.307-.136-.476-.158-.106.008-.247 0-.2-.153l.253-.6v-.238c0-.293.4-.163.628-.19a.176.176 0 0 1 .158.19v.238l.248.6a.105.105 0 0 1-.068.157Zm3.963 3.316a6.964 6.964 0 0 0 .035 1.312c0-1.414.131-1.295.131-1.295.003-.27-.163-.488-.163-.011Zm-.55-.413a6.977 6.977 0 0 0 .035 1.312c0-1.414.131-1.294.131-1.294.003-.27-.163-.489-.163-.017Zm44.3-4.251h-.61v1.635h.61Zm-17.769 4.48h.24v-.374h-.24Zm17.159-1.077h.61v-1.635h-.61Zm-.131-3.4h-.61v1.635h.61Zm-62.192 3.4h.61v-1.635h-.61Zm-.74 0h.61v-1.635h-.61Zm.61-3.4h-.61v1.635h.61Zm61.712 3.4h.61v-1.635h-.61ZM64.268 41.93h.24v-.374h-.24Zm-.341 0h.24v-.374h-.24Zm9.043-1.077h.61v-1.635h-.61Zm-8.461.251c.083 0 .078.025.076-.069h-.733v.069h.076v.373h.24v-.373h.1v.373h.24Zm9.071-3.654h-.61v1.635h.61Zm.74 0h-.61v1.635h.61Zm-.61 3.4h.61v-1.635h-.61Zm-14.325 2.573a6.966 6.966 0 0 0 .035-1.312c0-.477-.166-.258-.166.017.005.009.136-.111.136 1.304Zm-17.144 1.41c0 .309-.348.321-.348 0 0-.291-.451.379-.451.379h1.232s-.428-.674-.428-.371Zm-1.814 0c0 .309-.348.321-.348 0 0-.291-.451.379-.451.379h1.232s-.428-.674-.428-.371Zm4.306-.263h-1.1v.062h1.1Zm-.862.6c.16 0 .175-.389.332-.389s.16.389.331.389c.148 0 .206-.484.206-.484h-1.12s.096.49.256.49Zm-.033 2.034h.635v-.039h-.635Zm2.137-1.418h-.655v1.416h.655Zm-3.577 0h-.656v1.416h.656Zm-3.629 0h-.655v1.416h.655Zm-3.928-1.093h.228a.215.215 0 0 1 .238-.24c-.349-.079-.461.04-.461.249Zm-1.915-.827a.579.579 0 0 0-.089.007.525.525 0 0 1 .418.369h.146a.434.434 0 0 0-.47-.368Zm4.028 1.92h-.655v1.416h.655Zm8.864-.952c0 .309-.348.321-.348 0 0-.291-.451.379-.451.379h1.233s-.429-.675-.429-.372Zm-7.206 0c0 .309-.348.321-.348 0 0-.291-.451.379-.451.379h1.233s-.428-.675-.428-.372Zm1.97.952h-.656v1.416h.656Zm-3.785-.952c0 .309-.348.321-.348 0 0-.291-.451.379-.451.379h1.233s-.428-.675-.428-.372Zm21.762 0c0 .326-.348.314-.348 0s-.433.374-.433.374h1.232s-.445-.663-.445-.372Zm-2.318 2.365h.655V45.79h-.655Zm-1.31-2.365c0 .326-.348.314-.348 0s-.433.374-.433.374h1.235s-.449-.663-.449-.372Zm1.814 0c0 .326-.348.314-.348 0s-.433.374-.433.374h1.233s-.446-.663-.446-.372Zm1.31 2.365h.656V45.79h-.656Zm1.838-1.866s.195-.12.195 1.295h.052v-1.312c.006-.475-.241-.255-.241.02Zm-12.389-.179 1.083-.072h-2.165Zm6.922 2.045h.655V45.79h-.655Zm5.276-2.742a.215.215 0 0 1 .238.24h.228c.006-.204-.106-.323-.459-.237Zm-8.327.118h-1.1v.062h1.11Zm-1.837.258c0 .326-.348.314-.348 0s-.433.374-.433.374h1.233s-.445-.662-.445-.371Zm-.5 2.365h.655v-1.409h-.655Zm1.441-2.025c.171 0 .175-.389.331-.389s.172.389.332.389.251-.484.251-.484h-1.119s.06.487.211.487Zm2.136 2.025h.656v-1.409h-.656Zm-2.076.009h.635v-.039h-.635Zm2.58-2.374c0 .326-.348.314-.348 0s-.433.374-.433.374h1.232s-.448-.662-.448-.371Zm-18.248.482v1.312h.052c0-1.415.2-1.295.2-1.295-.002-.271-.249-.491-.249-.014ZM2.83 36.133a.325.325 0 0 0 .289.158 7.834 7.834 0 0 1-.59-1.765c-.443-1.967.025-4 .015-5.987.128 2.568-.453 5.294.654 7.72l-.033.029a.455.455 0 0 0 .3-.3 8.748 8.748 0 0 0-1.053-9.135c-1.138 2.207-1.865 6.218.421 9.283Zm2.133 3.354a6.547 6.547 0 0 1-1.729 2.885.281.281 0 0 0 .3 0 6.094 6.094 0 0 0 2.457-2.831 10.518 10.518 0 0 0 .464-5.018c-2.508 1.124-3.809 4.127-3.446 7.431a.557.557 0 0 0 .184.4 9.1 9.1 0 0 0 1.639-2.944c.392-1.121.565-2.4 1.041-3.488-.388 1.146-.526 2.411-.906 3.569Zm10.8-28.731c2.337-.54 3.8-2.686 5.609-4.09-1.352 1.176-2.463 2.806-4.084 3.639-.256.279-2.062.541-1.251.7 3.561.212 5.876-3.446 6.555-5.241a5.78 5.78 0 0 0-4.051 1.084 9.993 9.993 0 0 0-2.727 3.5c-.102.122-.071.574-.052.412ZM2.725 49.844a.322.322 0 0 0 .342.037 6.3 6.3 0 0 1-.983-1.534c-.882-1.861-.764-4.075-1.17-6.059.655 2.5.51 5.429 2.231 7.527l-.03.044a.646.646 0 0 0 .261-.427c.838-3.714-.232-7.211-2.94-8.789-.643 2.232-1.038 6.838 2.289 9.201Zm22.07 29.737a.29.29 0 0 0 .323-.107l-.034.015c-.552-2.328-2.389-3.73-3.79-5.51 1.552 1.637 3.4 3.088 3.85 5.453a.608.608 0 0 0 .073-.386c-.3-3.227-2.084-5.805-4.754-6.261.054 1.917.959 5.904 4.332 6.796Zm-6.228-4.352a7.528 7.528 0 0 0-4.719-.513 8.056 8.056 0 0 0 3.255 3.6 7.25 7.25 0 0 0 4.119.616c1-.267-1.117-.27-1.43-.516-1.782-.551-3.04-2.006-4.566-2.987 1.09.534 1.977 1.415 3.009 2.038a9.182 9.182 0 0 0 3.33 1.23.46.46 0 0 0-.028-.426 7.7 7.7 0 0 0-2.971-3.041Zm-5.337-4.323c-2.466-.445-3.687-2.888-5.226-4.589 1.677 1.558 2.88 3.908 5.265 4.493l-.007.051a.623.623 0 0 0 .04-.48 8.4 8.4 0 0 0-2.234-3.813 5.757 5.757 0 0 0-4.207-1.238 9.1 9.1 0 0 0 2.408 4.478 5.605 5.605 0 0 0 3.646 1.269.382.382 0 0 0 .314-.17Zm-6.008-9.23c-2.561-.983-3.34-3.948-4.649-6.089 1.476 2.021 2.266 4.864 4.7 5.987l-.016.057a.783.783 0 0 0 .12-.542 10.12 10.12 0 0 0-1.683-4.713 5.672 5.672 0 0 0-4.144-2.1 11.089 11.089 0 0 0 1.754 5.5 5.594 5.594 0 0 0 3.56 2.045.386.386 0 0 0 .357-.144ZM4.803 30.623c1.86-1.27 2.444-3.623 3.559-5.46-.985 1.913-1.56 4.346-3.514 5.529a.264.264 0 0 0 .279.048 5.727 5.727 0 0 0 2.743-2.21 9.881 9.881 0 0 0 1.262-4.563 5.675 5.675 0 0 0-3.2 2.357 9.266 9.266 0 0 0-1.222 3.942.524.524 0 0 0 .1.4Zm13.154-1.648H16.37l-1.847 2.353-2.66 2.012h1.257l11.725.043 4.689 4.588h-.367v-.059h.218l-4.537-4.243-11.666-.015-1.054-.178.995.666 11.725.01 4.213 3.76v.3l.563-.082.443-.069-4.656-4.6-1.147-1.459-3.179-9.479-3.851 5.358 1.085 1.1h-.3l-.863-.777-1.125 1.013 1.125-.819Zm3.28-1.165 1.154 1.165h-.336l-.862-.777-.863.777h-.245Zm.755 1.165h-1.6l.8-.583Zm-1.932 2.027.443-1.04c0-.235-.069-.748.277-.75h.821c.346 0 .273.513.277.75l.434 1.04a.184.184 0 0 1-.133.268c-.357-.037-.551.316-.944.276-.353.036-.536-.239-.832-.276-.192.008-.423.026-.343-.268Zm-1.778 0c.072.2-.074.3-.245.268-.3.037-.479.312-.832.276-.353.036-.536-.239-.833-.276-.192.007-.424.025-.343-.268l.443-1.04c0-.235-.068-.748.277-.75h.821c.346 0 .273.513.277.75Zm-1.5-.384h.763v-1.073h-.763Zm4.794-1.073h-.763v1.073h.763Zm-15.4-4.441c-.869-2.362.335-4.843.816-7.162-.315 2.342-1.454 4.763-.728 7.134l-.04.026a.59.59 0 0 0 .368-.27c1.993-2.826 2.3-6.194.567-8.445a10.872 10.872 0 0 0-2.094 4.788 6.2 6.2 0 0 0 .835 3.779.292.292 0 0 0 .272.148Zm4.009 36.385a9.171 9.171 0 0 1 .084 3.779.465.465 0 0 0 .225-.286 10.137 10.137 0 0 0 .487-4.428 7.929 7.929 0 0 0-2.051-4.175c-.935 2.129-1.409 6.041.971 8.786a.3.3 0 0 0 .327.122l-.036-.01a10.349 10.349 0 0 0-.143-3.729c-.247-1.219-.727-2.335-.887-3.58.253 1.223.752 2.3 1.023 3.521Zm6.588-25.745c0 .713-.8.74-.8-.012 0-.67-1.04.875-1.04.875h2.84s-1.002-1.562-1.002-.863Zm-5.846-20.542c.09-2.369 1.761-4.243 2.9-6.2-.728 1.569-1.945 2.935-2.463 4.6-.213.519-.242 1.151-.4 1.614a.4.4 0 0 0 .356-.1 7.7 7.7 0 0 0 3.133-7.464 9.649 9.649 0 0 0-3.074 3.528 7.477 7.477 0 0 0-.6 3.773.287.287 0 0 0 .148.249ZM5.385 54.86a.332.332 0 0 0 .278-.179 8.6 8.6 0 0 0 1.259-4.152A10.728 10.728 0 0 0 5.56 45.45a8.612 8.612 0 0 0-1.588 4.646 10.392 10.392 0 0 0 1.057 4.493.44.44 0 0 0 .312.272c.066-.553.349-1.211.391-1.845.3-1.949-.251-3.932-.21-5.887.184 2.552.94 5.279-.137 7.731Zm72.929 16.962c.339-.473.658-1.076.3-1.606-.132-.187-.266.1-.412.06a3.876 3.876 0 0 1-.006-.712c-.176-2.429-1.083-1.8-1.538-.045-.075.221-.16.2-.222.063-.459-.711-.507.87-.531 1.142-.04.363.034.866-.225.548-.254-.257-.5.15-.5.447a2.17 2.17 0 0 0 .011.471c.022.156.192.4.173.5-.052.08-.319-.283-.432-.151-.162.139-.152.546-.116.782s.273.559.249.654-.091.035-.175.082-.147.418-.2.55c-.17.3-.356.339-.31.743.034.161.14.143.14.143a8.877 8.877 0 0 0 2.38-4.315c-.012.062-.027.173-.045.252a10.109 10.109 0 0 1-2.147 4.214c-.034.047.126.02.2 0a4.454 4.454 0 0 0 1.577-1.055c.041-.262-.22-.048-.185-.222.016-.088.4-.083.806-.21a1.218 1.218 0 0 0 .913-.9c.04-.245-.062-.314-.182-.356s-.26-.042-.307-.127c.082-.258.562-.615.779-.952Zm-7.776-17.92c-.143 0-.459 0-.6.014v.052c.138-.014.455-.016.6-.014ZM26.971 80.973a8.434 8.434 0 0 0-4.861.312 9 9 0 0 0 4.156 2.726 8.25 8.25 0 0 0 4.285-.12c.923-.4-1.235-.064-1.563-.232-1.918-.2-3.545-1.317-5.321-1.957 1.225.3 2.333.958 3.524 1.352a10.805 10.805 0 0 0 3.645.567.412.412 0 0 0-.134-.382 8.725 8.725 0 0 0-3.731-2.266Zm57.783-11.437a1.886 1.886 0 0 0-.863-.009c-.307.05-.559.18-.572.107-.042-.212.167-.467-.008-.649-.74-.629-1.348.92-1.668 1.382-.128.213-.216.35-.249.314-.128-.141-.01-.777-.384-.7-.752.282-.689 1.586-1.038 2.139-.136-.012.085-.283-.117-.313-.028 0-.079.035-.146.1a9.3 9.3 0 0 0-1.245 1.534 19.648 19.648 0 0 0 2.817-1.126 12.628 12.628 0 0 1 1.342-.61 41.732 41.732 0 0 1-3.759 1.83c-.145.068-.3.077-.387.189a.231.231 0 0 0 .013.237.384.384 0 0 0 .3.167c.052 0 .228-.107.339-.095s.385.13.466.046c.25-.511.227.2.441.476.3.408.735.4.72-.2.008-.665.148-.04.3.178.456.5 1.022.107.973-.5-.012-.144-.042-.247.022-.309s.268-.011.531.018a1.362 1.362 0 0 0 1.072-.255.86.86 0 0 0 .264-.792c-.088-.233-.28-.338.016-.584a6.118 6.118 0 0 0 .736-.641c.515-.447.894-1.681.084-1.934Zm4.574-8.531c-.281.1-.5.27-.529.194-.078-.216.07-.518-.129-.684a.42.42 0 0 0-.628.032c-.378.275-.782 2.083-.917 2.042-.184-.272-.22-1.092-.71-.51-.395.583-.2 1.631-.383 2.2-.133.008.027-.308-.174-.308-.124.04-.386.664-.517.89-.149.3-.494.873-.458 1.079a31 31 0 0 0 2.786-1.9 6.392 6.392 0 0 1 .827-.524 14.915 14.915 0 0 0-1.507 1.156c-.622.522-1.343 1.035-1.982 1.485-.051.1-.109.129.02.322.316.274.382.012.622-.051.108-.008.4.062.452-.039s.025-.219.1-.217.261.475.425.63.465.339.622.122c.136-.155-.08-.679-.014-.772.078 0 .236.36.348.45s.585.38.79-.092c.191-.367-.086-.656-.022-.895.287-.14.937.055 1.327-.3a.771.771 0 0 0 .14-1.082c-.181-.134-.077-.407.116-.584a4.687 4.687 0 0 0 .5-.683c.703-1.111.341-2.531-1.105-1.964Zm5.316-17.859c.477-.97.479-3.554-1.068-1.988-.212.218-.355.483-.391.422-.11-.188-.044-.535-.229-.594-.239-.075-.4.067-.5.312-.249.408-.245 2.353-.356 2.377-.15-.06-.282-.716-.533-.426a1.009 1.009 0 0 0-.19.629c-.051.589.212 1.394.2 1.929-.1.076-.048-.307-.206-.206a8.371 8.371 0 0 0-.253 1.387c-.059.3-.151.952-.071.989.822-1.315 1.45-2.8 2.337-4.073a25.7 25.7 0 0 0-1.322 2.521c-.273.563-.6 1.175-.879 1.705-.011.1-.066.175.09.3.312.095.308-.2.48-.378.082-.065.324-.149.345-.276-.04-.586.223-.009.51.114.164.058.443.076.516-.209.079-.17-.208-.6-.184-.717.06-.044.267.217.376.243.514.131.777-.539.495-1.028-.066-.113-.131-.181-.108-.273.209-.275.8-.454.99-.919a.788.788 0 0 0-.106-1.039c-.269-.112-.05-.5.057-.802Zm-1.615 8.73c-.269.126-.479.326-.5.251-.066-.23.085-.544-.089-.678a.389.389 0 0 0-.588.1c-.433.467-.62 1.677-.941 2.151-.137-.124-.111-.812-.436-.64-.658.479-.419 1.814-.629 2.453-.123.026.03-.314-.156-.288a10.616 10.616 0 0 0-.723 1.429 1.628 1.628 0 0 0-.217.677c1.167-.862 2.177-1.985 3.359-2.823-.94.738-2.178 2.138-3.267 3.029.019.028-.126.137.024.327.291.234.356-.056.576-.143.1-.023.368.008.423-.1s.025-.225.1-.234.239.444.386.573.429.276.572.035c.124-.208-.07-.755 0-.767s.211.326.313.4a.667.667 0 0 0 .331.116.4.4 0 0 0 .4-.309c.189-.5-.1-.725 0-.878s.756-.009 1.236-.449a.8.8 0 0 0 .157-1.062c-.106-.091-.126-.252.028-.458a5.893 5.893 0 0 0 .588-.847c.618-1 .55-2.633-.947-1.865Zm-22.221 30.3a2.579 2.579 0 0 0-.924-.312c-.349-.063-.671-.04-.655-.108.035-.2.363-.341.247-.561a.582.582 0 0 0-.665-.271c-.492.007-1.927 1.087-2.055.994-.068-.188.288-.657-.126-.727-.741-.146-1.368 1-1.884 1.327-.069-.032-.02-.08.02-.135s.072-.115-.028-.166a1.528 1.528 0 0 0-.587.179l.115-.095c-.335.251-.863.528-.964.959 1.225-.492 2.451-.224 3.752-.252.195.01.355.026.524.048a21.265 21.265 0 0 0-2.14.021 4.514 4.514 0 0 0-1.709.222c-.129.052-.283.081-.354.188-.08.2.313.292.416.265.053-.005.2-.1.305-.09s.407.1.463.05.028-.128.1-.109c.038.01.1.1.177.2a1.161 1.161 0 0 0 .846.511c.1-.018-.094-.371-.03-.368a2.154 2.154 0 0 0 .854.676 2.311 2.311 0 0 0 1.314.47c.4.03.853-.308.738-.67-.061-.135 0-.264.276-.316.719-.126 1.831-.382 2.193-1.134a.584.584 0 0 0-.219-.792Zm-33.784 4.535a12.1 12.1 0 0 0 6 .083.482.482 0 0 0-.23-.4 9.039 9.039 0 0 0-4.471-1.621 8.789 8.789 0 0 0-5.071 1.572 9.385 9.385 0 0 0 5.026 2.033 8.529 8.529 0 0 0 4.506-1.21.449.449 0 0 0 .231-.323 7.654 7.654 0 0 1-1.938.452c-2.081.25-4.056-.6-6.082-.873a11.246 11.246 0 0 1 2.029.292Zm-1.537-2.828a10.166 10.166 0 0 0-2.373-2.517c-.9-.667-1.882-1.062-2.733-1.814 1.383.953 2.961 1.472 4.08 2.8.3.166 1.311 2.141 1.011 1.087-1.114-3.043-3.5-5.077-6.2-4.832a10.1 10.1 0 0 0 2.582 4.181 5.494 5.494 0 0 0 3.348 1.277.288.288 0 0 0 .283-.178Zm8.522-1.206a5.264 5.264 0 0 0-3.6-.529 6.941 6.941 0 0 0 2.485 3.108 5.11 5.11 0 0 0 3.145.6.316.316 0 0 0 .261-.192l-.026.023c-1.162-1.651-3.136-2.035-4.814-2.915 1.75.716 3.762 1.124 4.852 2.851a.436.436 0 0 0-.033-.32 6.522 6.522 0 0 0-2.269-2.622Zm19.355.224c.245-.352-.193-.472-.252-.715-.01-.1.534-.169 1.038-.412a1.159 1.159 0 0 0 .808-1.28c-.025-.121-.088-.135-.16-.135-.421.032-.111-.207.019-.686.49-1.6.122-2.666-1.23-.918-.146.151-.213.084-.212-.078-.02-.287-.2-.49-.516-.113-.3.288-.6 1.14-.812 1.368-.1.042-.085-.222-.235-.324a7.872 7.872 0 0 0-1.172-.014.849.849 0 0 0-.685.927.754.754 0 0 0 .154.261c.205.275.076.282-.231.146a.666.666 0 0 0-.513-.033.64.64 0 0 0-.264.783c.024.167.421.432.4.578-.046.1-.148.048-.285.108s-.231.432-.292.559-.282.306-.316.368c-.08.124-.125.475.088.5.08.017.116-.032.173-.056a10.734 10.734 0 0 1 1.8-1.554c.171-.16.284-.1.536-.1a6.754 6.754 0 0 0 1.963-1.707 7.108 7.108 0 0 1-2 1.876l-.343-.015a10.418 10.418 0 0 0-1.8 1.647c-.036.034.063.008.094.008.5-.12 1.1-.437 1.634-.558a1.287 1.287 0 0 0 .687-.121c.138-.2-.176-.157-.089-.305.072-.056.379.12.523.162.484.193 1.168.334 1.491-.166Zm-3.24 3.159a3.1 3.1 0 0 0-1.04-.433c-.4-.1-.767-.109-.744-.183a.842.842 0 0 1 .232-.293c.362-.379-.32-.744-.659-.666-.56-.042-2.274 1.013-2.417.9-.063-.22.369-.7-.1-.815-.833-.234-1.624.966-2.242 1.284-.077-.042-.018-.09.032-.147.195-.322-.318-.166-.706-.045.31-.2-.119.051-.25.124-.26.185-.756.444-.761.745 1.445-.419 2.817 0 4.3.087.223.03.407.063.6.1-.793-.129-1.642-.133-2.454-.183a5.05 5.05 0 0 0-2.337.19c.039.009-.181.086.017.27.357.237.428.063.747.057.124.014.46.147.527.1s.04-.139.127-.11c.123.082.309.453.46.554.209.168.837.6.678.1-.029-.1-.061-.2-.021-.183a2.537 2.537 0 0 0 .937.829c.368.336 1.648 1.039 2.26.384.313-.358-.2-.65.441-.73.816-.072 2.106-.231 2.584-1.041a.645.645 0 0 0-.21-.89Zm-7.828-.687c.231-.278-.145-.44-.177-.652 0-.089.467-.078.913-.225a1.335 1.335 0 0 0 .582-.347c.14-.116.343-.723.052-.8-.359-.024-.088-.189.053-.592.491-1.26.284-2.33-1-.954-.134.112-.188.046-.178-.095-.067-.795-.764.187-.917.492-.134.224-.237.413-.292.427-.087.024-.06-.2-.184-.311l-.7-.136a.7.7 0 0 0-.946.689c-.006.106.235.353.185.451-.128.032-.52-.314-.711-.2a.525.525 0 0 0-.27.645c.012.148.338.427.315.554-.044.078-.129.022-.251.057s-.221.347-.28.448c-.182.234-.441.292-.348.626.171.284.383-.065.552-.174a8.559 8.559 0 0 1 1.482-.947l.319.062a5.581 5.581 0 0 0 1.646-1.082c.045-.044.1-.112.132-.148a4.686 4.686 0 0 1-1.274 1.068c-.178.11-.359.206-.548.3l-.293-.057a7.964 7.964 0 0 0-1.644 1.21c.471.017 1.031-.239 1.525-.267.246.056.8.069.579-.176-.042-.036-.088-.064-.043-.117.44.123 1.216.836 1.722.255Zm-43.1-65.594c2.12-.761 3.279-2.89 4.821-4.386-1.142 1.232-2.013 2.848-3.437 3.792-.216.288-1.893.745-1.1.79 3.345-.252 5.1-3.737 5.583-5.545a5.673 5.673 0 0 0-3.689 1.475 9.272 9.272 0 0 0-2.177 3.506.525.525 0 0 0 0 .411Zm15.289 16.546h.355l.212.191.028-.041-.224-.2h-.371Zm0-.9h.355l.212.193.028-.041-.224-.205h-.371Zm0 .448h.355l.212.193.028-.041-.224-.2h-.371Zm0 .9h.356l.229.168.024-.044-.24-.176h-.369Zm0 1.346h.356l.212.16.025-.044-.224-.169h-.369Zm0-.9h.356l.229.169.024-.044-.24-.178h-.369Zm0 .448h.356l.212.148.024-.044-.224-.156h-.368Zm-3.787 3.188h.61V39.22h-.61Zm4.382-6.175-.224-.2h-.371v.052h.355l.212.193Zm-.595 3.884h.356l.212.157.024-.044-.224-.164h-.368Zm-3.047 2.291h.61V39.22h-.61Zm-.131-3.4h-.61v1.635h.61Zm.741 0h-.61v1.635h.61Zm2.437-2.477h.355l.212.194.028-.041-.224-.205h-.371Zm-2.69.765c0 .713-.8.74-.8-.012 0-.67-1.04.875-1.04.875h2.84s-1.002-1.561-1.002-.862Zm4.223 5.269v-2.729l-.367-.289v2.775Zm1.158.767v-2.577l-.332-.262v2.623Zm-.062-3.932c0 .542-.2.4-.2-.178 0-.515-.256.462-.256.462l.7.574s-.246-1.389-.246-.857Zm.166 4.592c.025-1.121-.059-2.262.051-3.368l.029-.218-.694-.565c-.02.412.288.44.588.73.023.018-.051 3.435.024 3.422Zm.9-3.681c0 .515-.165.4-.167-.151 0-.488-.216.459-.216.459l.594.487s-.213-1.299-.206-.793Zm-2.233-1.906c0 .573-.218.416-.218-.2 0-.544-.283.479-.283.479l.772.633s-.271-1.472-.271-.91Zm1.855 2.362c-.02.383.245.4.5.646l.021 3.242c.061-1.055-.012-1.774 0-2.908a2.708 2.708 0 0 0 .063-.5Zm.158 3.084.294.194-.014-2.455-.285-.224.005 2.489Zm-3.475-2.384h.356l.229.155.023-.045-.24-.163h-.368Zm0-.9h.356l.229.164.024-.044-.24-.172h-.369Zm0 1.346h.357l.229.151.023-.046-.24-.158h-.369Zm0-.9h.356l.212.15.024-.044-.224-.158h-.368Zm1.647 2.249v-3.242l.054-.147a1.915 1.915 0 0 1 .033-.4l-.766-.623c-.019.439.306.467.649.794v3.6Zm-1.779-9.935 4.376 4.717-.668-1.423v-1l.15.073-.285-.633-.32.249.277-.043.087.218v1.438l-.455-.559v-.909l-.136-.289h.169l.412-.393.518 1.027-.461-1.195h-.4l-.105.128-.459-1.189h-.4l-.024.028-.559-1.191.054-.052.518 1.027-.461-1.195h-.216l-2.542-5.416-2.1-2.674Zm2.643.384.515 1.022-.214.26-.212-.438.156.076-.284-.633-.1.076-.077-.164Zm-.243.518.168-.026.132.332c.027-.008 0 1.452.009 1.457l-.309-.425Zm-.8-1.394.04-.006.385.891v1.538l-.425-.522Zm-1.468 9.529h.357l.229.146.022-.046-.24-.153h-.368Zm0 .448h.357l.23.142.021-.046-.235-.145h-.373ZM77.71 77.888a2.337 2.337 0 0 0-.842-.268c-.311-.05-.587-.02-.582-.084.01-.19.272-.336.144-.535-.375-.512-.9-.15-1.326.124-.676.43-1.086 1.036-.937.251.008-.143-.022-.272-.208-.3-.666-.116-1.064.983-1.469 1.3-.064-.028-.027-.074 0-.127s.048-.11-.045-.156c0-.085-.7.335-.4.092-.266.245-.694.542-.717.929a6.252 6.252 0 0 1 2.713-.337 7.216 7.216 0 0 1 .975.03c-.686-.036-1.4.059-2.092.092a2.4 2.4 0 0 0-1.5.427s-.028.089.084.168a.5.5 0 0 0 .311.071c.045-.007.158-.1.254-.093s.366.081.408.034.008-.121.077-.1c.1.05.535.689.977.638.086-.021-.128-.348-.072-.346a2.269 2.269 0 0 0 .826.613c.311.237 1.374.731 1.742.111.181-.317-.254-.527.215-.66a3.208 3.208 0 0 0 1.434-.626.746.746 0 0 0 .028-1.248Zm-4.141-29.534v-1.635h-.61v1.635Zm-8.727 4.107-.324-.393h-.28l-.324.838.363-.72.289.276Zm-1.356-4.844h-.265l-.306.792.343-.68.273.26h.26Zm-1.411 1.212.129-.063.088-.22.184.028-.212-.165Zm.7 3.993-.282-.344h-.244l-.283.731.317-.629.252.241Zm-.527.264.081-.2.17.027-.2-.152-.174.387Zm-.144-1.507c.071-.028.12.014.144.135.073.379.3.243.343-.083.026-.133.067-.2.145-.213v-.072l-.632.164Zm.632-2.928-.632.275v2.376l.632-.173Zm.38 2.67c.187-.076.132.45.316.4.166 0 .137-.543.316-.557v-.076l-.632.164Zm1.156-.1c.072.43.3.289.343-.084.019-.131.068-.216.117-.229s.021-.048.027-.088l-.632.164v.079c.076-.03.12.022.145.158Zm-1.052 1.7.088-.22.184.028-.212-.165-.188.42Zm1.017-.161.093-.233.195.03-.225-.175-.2.444Zm.07-5.22.184.028-.212-.165-.188.419.129-.063Zm.453.225-.632.275v2.7l.632-.173Zm-.97 4.87-.306-.372h-.265l-.306.792.343-.681.273.261Zm.693-5.533h-.264l-.306.792.344-.681.273.261h.26Zm-1.393 1.231.129-.063.088-.22.184.028-.212-.165Zm-2.8 1.3.1-.047.066-.166.138.021-.16-.124Zm.02 2.4c.119-.05.089.383.2.339.1.009.085-.432.2-.441v-.062l-.4.1Zm.053 1.285.066-.166.139.021-.16-.124-.142.315Zm2.105-5.212h-.265l-.305.792.343-.68.273.26h.26Zm11.825-1.638c-.017-1.063-1.329-1.056-1.34 0 0 .003 1.349.017 1.34.003Zm-13.707 2.62h-.201l-.23.6.258-.512.206.2h.2Zm12.26 8.594c.046.1.02-4.277.026-4.345 0-1.014-.274-1.795-.613-1.745s-.612.873-.611 1.838c.005 1.714-.018 2.917.037 4.636l1.161.132Zm-12.135-8.153-.4.175v2.084l.4-.11Zm1.012 2.077-.632.164c.005.04-.018.076.027.057.152-.027.116.393.289.343.151 0 .151-.451.289-.49.046 0 .023-.037.028-.072Zm-.5 1.617.077-.193.162.025-.187-.145-.166.368Zm.5-.251-.268-.327h-.232l-.268.7.3-.6.24.229Zm0-3.883-.632.275v2.211l.632-.173Zm-.931 4.015-.23-.28h-.2l-.23.6.258-.512.206.2Zm.7-4.485h-.232l-.268.7.3-.6.24.229h.228Zm.006.409-.187-.145-.166.369.114-.055.077-.194Zm2.253-.821-.632.276v2.538l.632-.173Zm4.814 3.606-.387-.47h-.335l-.387 1 .434-.86.345.329Zm-2.968-5.283h-.312l-.354.918.4-.789.316.3h.3Zm2.246 5.645.111-.279.232.036-.268-.209-.239.531Zm1.144-.1.127-.319.266.041-.308-.239-.273.607Zm-1.113-1.734c.078.521.332.361.379-.092.022-.158.075-.26.13-.275s.024-.048.03-.106l-.7.181v.095c.085-.028.13.038.159.202Zm.539-4.166-.7.3v3.281l.7-.191Zm-.491-.3.218.034-.251-.2-.224.5.153-.075Zm2.618 10.713h-.362l-.235-.012v.052l.236.012h.363Zm0 .949v-.052a4.142 4.142 0 0 1-.6-.025v.052a4.214 4.214 0 0 0 .598.033Zm0-4.538a4.477 4.477 0 0 0-.6.024v.052a4.491 4.491 0 0 1 .6-.024Zm0 2.692-.371.006-.226-.006v.052c.136.008.459 0 .6 0Zm0-2.243a5.708 5.708 0 0 0-.6.019v.052a5.765 5.765 0 0 1 .6-.019Zm0 2.692c-.143 0-.457 0-.6-.006v.052l.236.007h.363Zm-2.408-10.782h-.313l-.362.938.407-.806.323.308h.308Zm2.408 11.679h-.361l-.235-.017v.052l.236.017h.363Zm-.727-5.379-.443-.539h-.385l-.443 1.147.5-.986.4.378Zm-3.854.621-.342-.416h-.3l-.342.887.384-.762.305.292Zm-.638.319.1-.247.206.032-.238-.185-.211.47Zm1.282-5.927.14-.068.094-.237.2.031-.229-.178Zm.424-.775h-.285l-.329.853.37-.733.294.28h.28Zm-1.076 1.347-.809.352v2.865l.809-.221Zm-.559-.212.213.033-.246-.191-.219.487.15-.073Zm-.064 3.926c.093.457.386.288.439-.107.033-.162.087-.245.185-.26v-.087l-.809.21v.083c.087-.026.15.023.182.169Zm4.071-5.657-.308-.239-.273.608.187-.091.127-.319Zm-.01-.675h-.383l-.443 1.147.5-.986.4.378h.376Zm-.6 5.242c.095-.037.15.03.183.2.036.221.12.365.217.343.222-.017.166-.728.4-.751v-.1l-.8.207Zm-2.157.549c.084-.033.131.028.16.184.079.494.332.335.379-.092.03-.17.07-.256.16-.27v-.093l-.7.181Zm2.157-.955.8-.219v-3.585l-.8.348Zm-1.437 2.586-.391-.475h-.338l-.391 1.013.439-.87.349.333Zm-.022-5.407-.7.3v3.107l.7-.191Zm-.707 5.772.112-.281.235.036-.272-.211-.241.536Zm-.663-14.215v-.3l4.213-3.76 11.725-.01.994-.666-1.054.178-11.666.015-4.537 4.243h.216v.059h-.367l4.689-4.588c.57 0 12.852-.052 12.983-.041l-2.661-2.012-1.847-2.353h-1.586l.8-.583 1.125.819-1.122-.996-.863.777h-.3l1.085-1.1-3.851-5.358-3.184 9.483-1.146 1.447-4.655 4.6c.244.051.767.118 1.011.151Zm10.776-7.2.434-1.04c0-.235-.068-.748.277-.75h.821c.346 0 .274.513.277.75l.443 1.04c.08.293-.149.275-.343.268-.3.038-.479.312-.832.276-.353.036-.536-.238-.832-.276-.167.037-.315-.063-.243-.263Zm-1.911.268a.674.674 0 0 0-.469.094 1.008 1.008 0 0 1-1.147 0 .513.513 0 0 0-.371-.094.183.183 0 0 1-.133-.268l.434-1.04v-.417a.309.309 0 0 1 .277-.333h.821a.309.309 0 0 1 .277.333v.417l.444 1.04a.184.184 0 0 1-.131.274Zm-1.8-2.295.8-.583.8.583Zm.755-1.165 1.154 1.165h-.247l-.863-.777-.862.777h-.337Zm-18.2-9.5s-.32-.262-.377-.25-.187.093-.176.424a3.412 3.412 0 0 0 .059.545s.05-.573.499-.715ZM47.268 6.693c1.342.356 2.039 1.07 3.511 2.093-.1-.13 1.971 1.825 1.964 1.813.466.427-.1.275-.8.364a3.011 3.011 0 0 1-.459-.02.811.811 0 0 1 .3.585 1.906 1.906 0 0 0-.6-.343 1.1 1.1 0 0 1 .239.951c-.009.069-.153.456-.1.393a.992.992 0 0 0 .116.5 1.588 1.588 0 0 1 .158-.593 2.871 2.871 0 0 0 2.124-1.557 7.185 7.185 0 0 0-1.153-.945l.608-.558a.1.1 0 0 0-.05-.175c-.471-.086-1.757-.485-4.246-2.321a2.617 2.617 0 0 0-1.585-.514 2.816 2.816 0 0 0-.936.158Zm8.806 3.15-.211 2.081c-.006.08.136.065.139.062s.039 5.517.054 5.525c0 0 .25-.064.268-.066a47.906 47.906 0 0 1 .1-5.158.984.984 0 0 1 .623.544l-.04-.76-.005-.1c.06.013.2.058.184-.055l-.407-2.109a1.267 1.267 0 0 1 .351-.666 1.457 1.457 0 0 1 .566-.339 22.635 22.635 0 0 0-1.146-7.7l-.144-.3a13.061 13.061 0 0 0-.626 2.077 23.31 23.31 0 0 0-.637 5.905 1.324 1.324 0 0 1 .933 1.063Zm0-6.9c.116-.484.226-.9.329-1.239l.057 7.627c.02.572.006 1.413.012 2-.015-.168-.005.359-.009.343-.086-.018-.3.095-.312-.045l.126-1.5c-.01-.023.024-.763-.15-.961a1.493 1.493 0 0 0-.685-.6 23.18 23.18 0 0 1 .631-5.617Zm-5.058 13.995c.025 0 .051.038.069.02.23-.2.163-.58-.192-.471-.3.139-.55.479-.95.37a.429.429 0 0 0 .14.164 2.731 2.731 0 0 1 .931-.075Zm.012-6.062c-.277-.082-.594-.372-.863-.318-.406.293-.6.8-1.71.708a2.675 2.675 0 0 0 1.794-.151 6.94 6.94 0 0 1 .778-.231Zm-.428 6.471c.192.023.235-.085.334-.126-.21-.132-.811.028-.811.028Zm1.318-2.035a6.051 6.051 0 0 1-1.3-2.23 1.482 1.482 0 0 0-.3.295l.19-.465c-1.207-.36-1.194-.311-2.077.141a5.756 5.756 0 0 1 .966-.093c.163.039.344.111.059.089-.423-.032-.762.338-1.147.252-.049 0-.147-.076-.06.023a.748.748 0 0 0 .866.186.212.212 0 0 0 .25.293.39.39 0 0 0 .315-.283.356.356 0 0 1 0 .29c-.018.046 0 .023.072.009-.03.231.133.374.47.531q.759.441.391.631-.569.241-.128.681a.561.561 0 0 1 .746.323 1.2 1.2 0 0 0 .685-.665Zm15.142 26.99v-2.485l-.285.224-.014 2.455Zm-.054-3.691c0 .548-.169.666-.167.151s-.212.8-.212.8l.595-.487s-.214-.954-.215-.466Zm-9.7-20.642a2.351 2.351 0 0 0-.549-.3 3.675 3.675 0 0 0-.542 0 .986.986 0 0 1-.672-.12c-.02 0-.049-.007-.062.013-.079.114 0 .24.08.329a.772.772 0 0 0 .652.293c.3 0 .6-.146.837.034.157.143.436.4.488.469a.9.9 0 0 1 .086.365s.257-.15.1-.715c-.071-.157-.275-.269-.416-.37Zm9.91 21.249c-.351.334-.663.377-.568.69.088 1.223.006 1.983.021 3.213l.023-.015.021-3.242c.26-.251.525-.262.505-.648Zm-30.485-30.9c-.405.366-.089 1.007-.064 1.481a6.2 6.2 0 0 1 2.612-2.144 5.718 5.718 0 0 0-2.229 2.081 2.738 2.738 0 0 0-.22.542l.012-.017a5.143 5.143 0 0 1 1.95-1.654 4.222 4.222 0 0 0-1.477 2.391 8.307 8.307 0 0 0 .7 1.331c.158.216.373.5.558.735l.424-.315c-.178-3.558.281-5.065 2.2-5.069-1.666 2.1-2.24 4.1-.547 6.5a2.566 2.566 0 0 1-.157 3.827 4.767 4.767 0 0 0 1.513-1.255 1.845 1.845 0 0 1-.541 1.407 3.063 3.063 0 0 1-.5.423 2.412 2.412 0 0 0-1.123 1.959c-.018.183-.005.39-.007.621-.006.847-1.031 1.155-1.031 1.155l-.217.062a3.947 3.947 0 0 0 .927-.175 1.5 1.5 0 0 0 1.065-.933s0 .039.007.107c.023.958.676 3.382 2.188 3.6-.54-.721-1.044-2.521-.191-3.44.594-.7 1.5-1.167 1.857-2.062a2.861 2.861 0 0 0 1.8 1.1 3.572 3.572 0 0 1-1.023-1.538 4.763 4.763 0 0 1-.244-1.313 2.957 2.957 0 0 0 .165-1.016 3.136 3.136 0 0 1 .711-1.826 3.982 3.982 0 0 0-.272 1.729l.253-.4a4.516 4.516 0 0 0 .073 1 1.714 1.714 0 0 0 .768 1.02 2.392 2.392 0 0 0 .447.24v.308a5.8 5.8 0 0 0 .425 1.719l.057-.277a2.312 2.312 0 0 1 .3-1.5c.311-.04.8.268 1.115.284 1.085.189 1.374.155 1.8-.169a1.638 1.638 0 0 1-.471.082c-1.755.028-4.091-1.922-3.09-3.568a1.383 1.383 0 0 0 .226-1.026 2.157 2.157 0 0 1-.088-.671 1.982 1.982 0 0 1 .391-1.356 1.714 1.714 0 0 1 .673-.428 1.942 1.942 0 0 0-.9.311c-.49.346-.67 1.1-1.195 1.366a3.1 3.1 0 0 1-1.761.459 3.135 3.135 0 0 0 .312-.072 2.36 2.36 0 0 0 1.464-1.026c.774-1.225 1.051-1.554 1.643-1.914a3.018 3.018 0 0 1 1.023-.395 2.072 2.072 0 0 1 .629-.04.786.786 0 0 1 .208-.143 5.831 5.831 0 0 0-1.107-.231c-1.953-.059-2.972.464-4.94 1.955a10.432 10.432 0 0 1 3.58-1.406c-2.533.837-3.564 1.58-4.491 2.852a8.039 8.039 0 0 0-.918 1.892c-.424-4.287 5.064-5.654 5.623-5.96.239-.189-.14-.3-.849-.512-.747-.245-3.322-.616-2.162-1.622a4.257 4.257 0 0 1 .974-.576 4.246 4.246 0 0 0-3.487 2.205 1.919 1.919 0 0 1-.04-1.547 5.726 5.726 0 0 1 3.194-1.5 6.989 6.989 0 0 0-2.874.815 4.136 4.136 0 0 1 2.635-1.223c-.155-1.04-.647-2.835 1.8-4.31l-.275-1.12c-2.879 1.551-2.74 3.578-2.393 4.66a7.182 7.182 0 0 1-1.008-2.224 3.638 3.638 0 0 0 .561 2.243 3.7 3.7 0 0 1-1.856-4.02 9.3 9.3 0 0 1 1.7-.54 2.2 2.2 0 0 0 .014 1.25 1.27 1.27 0 0 1 .728-1.385q.46-.066.95-.1a9.194 9.194 0 0 0-4.414 1.01 2.463 2.463 0 0 0 0 .283 5.239 5.239 0 0 0 1.88 3.318 7.234 7.234 0 0 1-2.527-2.889c-.09-.555-.58.161-.848.308.053.085.107.167.167.253a11.7 11.7 0 0 0 2.633 2.576 10.039 10.039 0 0 1-2.944-2.251c-.263-.537-.574.218-.838.446a6.185 6.185 0 0 0 2.693 2.186 7.6 7.6 0 0 1-2.751-1.555c-.4-.54-.636.542-.878.84.66.251 1.494.556 2.154.734-.674-.129-1.615-.32-2.319-.379-.1.392-.842 1.6-.1 1.272a11.874 11.874 0 0 1 3.529-.165 11.426 11.426 0 0 0-3.62.524c-.647.067-.415.937-.519 1.42a8.005 8.005 0 0 1 2.486-1.056 7.066 7.066 0 0 0-2.289 1.427Zm7.9 4.723c.076-.04.156-.08.244-.116a3.532 3.532 0 0 0 1.187-.8 1.764 1.764 0 0 1-1.068 1.169 8.84 8.84 0 0 0-.686.319 2.44 2.44 0 0 0-.688.527 2.019 2.019 0 0 1 1.017-1.103Zm-1.5 3.8a3.465 3.465 0 0 1 2.047-2.2 5.953 5.953 0 0 0-1.2 2.039 4.517 4.517 0 0 1-.307.8 4.4 4.4 0 0 1-1.882 1.915 5.357 5.357 0 0 0 1.352-2.554Zm13.221 2.247a3.924 3.924 0 0 1 1.23.584c.057.04.061-.255.053-.278s-.056-.227-.2-.244a1.237 1.237 0 0 1-.512-.349c-.094-.113-.21-.166-.225-.136s-.077.076-.359.066a1.041 1.041 0 0 0-.69.2.392.392 0 0 1-.223.127.86.86 0 0 0-.129.729 1.494 1.494 0 0 1 1.065-.699Zm-1.078 1.782a2.17 2.17 0 0 0 .376.691.985.985 0 0 0 .434.458c0 .308.006.754.008 1.065l.016 2.2.207-.576c.021-.6 0-3.234 0-3.316a1.791 1.791 0 0 0 .7.319c.02 0 .048 3.707.048 3.838a14.659 14.659 0 0 0 1.121-1.1 14.873 14.873 0 0 0-.427-2.272c-.143-.308-.4-.795-.537-1.02a.878.878 0 0 0-.375-.32 1.225 1.225 0 0 1-.709-.422c-.081-.058-.164.039-.416.075s-.2-.191-.2-.191c.1.025.563-.37.682-.39a3.718 3.718 0 0 1 .827.214c.029.023.179-.028.179-.028a7.282 7.282 0 0 0-1.2-.594c-.065-.04-.4.3-.493.448a.141.141 0 0 1-.224.04 1.758 1.758 0 0 0-.006.881Zm7.025 13.289-1.388 2.279-2.276 4.72 1.624-2.345Zm-14.8 6.609v.082a1.958 1.958 0 0 1 .971.22 1.816 1.816 0 0 0-.96-.302Zm-3.213.567a.325.325 0 0 1 .247.336h.074a.3.3 0 0 0-.31-.337Zm1.559-.624a.12.12 0 1 0-.238 0 .125.125 0 1 0 .249-.001Zm22.25-3.04c0 .578-.2.72-.2.178s-.246.858-.246.858l.7-.574s-.243-.977-.243-.463Zm-23.045 3.77h1.038v-.1h-1.103Zm-1.665-19.85a2.832 2.832 0 0 0-.513.523 2.4 2.4 0 0 0 1.534.922c.04.006.084.012.129.014a2.259 2.259 0 0 1-1.15-1.459Zm-7.014 19.567-2.276-4.72-1.388-2.279 2.04 4.654Zm27.8-3.341h-.436v.613h.436Zm-2.74.613h.436v-.613h-.436Zm-19.9-9.992c6.432 1.331 8-3.835 7.651-5.589.4 2.113-.012 5.509-3.887 6.662.562.02 1.254.28 1.779.034 1.857-1.027 3.12-3.783 2.747-6.669a9.124 9.124 0 0 1 .212 2.233c-.017 1.381-.483 2.385-1.666 4.519a14.688 14.688 0 0 0 1.88-.244 10.609 10.609 0 0 0 .538-5.692 7.579 7.579 0 0 1 .537 5.435c.344-.1.684-.2 1.018-.321a6.417 6.417 0 0 0-.3-4.083 6.723 6.723 0 0 1 .907 3.848q.285-.117.564-.247c.009-.228.015-.553.015-1.021 0-1.926-.6-3.076-1.3-3.536a1.244 1.244 0 0 0-.649-.362c-.08-.219-.545-.6-.887-.419-.255-.33-.9-.23-.9-.229-.184-.373-1.19-.491-1.271-.416.611 1.442.489 2.731-1.671 4.309-1.787 1.269-8.774.408-11.15-2.812a14.694 14.694 0 0 0 5.831 4.6Zm-4.294-16.9a6.536 6.536 0 0 0 1.119 1.663 7.045 7.045 0 0 1-1.079-2q-.029.17-.043.341Zm13.168 30.128h.074a.324.324 0 0 1 .247-.336.3.3 0 0 0-.323.34Zm-2.773-1.678a.121.121 0 1 0-.238 0 .121.121 0 1 0 .235.004Zm-.119.858v-.082a1.815 1.815 0 0 0-.971.3 1.958 1.958 0 0 1 .968-.214Zm1.892-.14a.121.121 0 1 0-.238 0 .121.121 0 1 0 .235.004Zm-.481.73h1.038l.077-.1h-1.115Zm21.616-1.131h-.369l-.24.158.023.046.229-.151h.357Zm-37.978 4.366h.738l.108-.3h-.955Zm46.492-8.943c0 .752-.8.725-.8.012s-1 .863-1 .863h2.84s-1.042-1.54-1.042-.871Zm-8.514 5.026h-.363l-.246.153.022.046.23-.146h.357Zm3.492-5.026c0 .752-.8.725-.8.012s-1 .863-1 .863h2.841s-1.043-1.54-1.043-.871Zm-4.1 5.623.022.046.229-.142h.357v-.053h-.363Zm.608-1.494h-.369l-.24.163.024.045.229-.155h.357Zm3.77 6.858h-.61v1.635h.61Zm-.861-16.1h.764v-1.073h-.764Zm7.072-20.1c.126.2.319.454.434.6s.06.244-.056.264c-.25.081-.323.346-.083.634.2.307.8.527.972.743 0 .167-.281.168-.27.506 0 .37.423.48.531.495s.34-.115.393-.066c.027.025-.048.094-.125.18-.348.294-.034.6.3.621.283.019.651-.345.5.1 0 .108.2.273.263.362a1.816 1.816 0 0 1 .1.346c.055.135.319.3.388.065a8.474 8.474 0 0 0-1.7-3.927c-.085-.084.012.009.046.038a8.546 8.546 0 0 1 1.834 3.737 5.07 5.07 0 0 0 .088-2.217c-.15-.122-.125.22-.222.131-.024-.022 0-.135.052-.3.146-.557.442-1.388 0-1.867-.27-.239-.366.283-.526.332-.156-.185-.264-2.3-1.2-1.937-.18.068-.051.294-.131.436-.025.045-.22-.12-.478-.23-.976-.459-1.779-.032-1.112.962Zm-1.8 35.143a.748.748 0 0 0-.67.81h1.334a.748.748 0 0 0-.665-.802Zm.6-29.933c0 .375.41.606.7.75.173.077.4.159.228.319a.3.3 0 0 0 .121.517c.361.176 1-.09.942.149-.04.112-.138.211-.078.339a.407.407 0 0 0 .531.122c.085-.04.223-.259.277-.243.027.008-.009.1-.044.209-.157.367.1.52.4.35.2-.112.388-.593.4-.168.029.084.232.1.305.139s.151.18.184.2c.188.11.359-.021.291-.223a5.03 5.03 0 0 0-2.379-1.967l-.037-.009a1.665 1.665 0 0 1 .3.08 5.356 5.356 0 0 1 2.217 1.77 4.618 4.618 0 0 0-.482-1.561c-.037-.063-.069-.1-.089-.105-.146-.014-.028.224-.126.207-.142-.423-.013-1.434-.595-1.624-.271-.044-.193.4-.293.507-.072.02-.241-.339-.331-.443-.246-.371-.737-.941-1.114-.471-.115.138.046.261.026.412-.006.048-.2.008-.42.036-.389.059-.93.235-.931.716Zm-5.409-8c-.112.078-.386-.046-.381.13.071.861 1.718.987 2.272 1.326-.006.141-.475.162-.184.467a1.138 1.138 0 0 0 .536.3c.431.155 1.049.036 1.429.147.085.12-.223-.01-.1.171a9.806 9.806 0 0 0 1.919.843c-1.184-1.151-2.561-2.087-3.773-3.193 1 .9 2.172 1.6 3.174 2.51a6.5 6.5 0 0 0 .746.6.09.09 0 0 0 .119-.075c-.01-.3-.229-.348-.4-.562-.069-.1-.193-.365-.289-.409s-.153-.012-.2-.082.152-.26.153-.417c.027-.26-.231-.746-.557-.558-.334.16-.111-.106-.09-.295a.8.8 0 0 0-1.019-.742c-.076.045-.105.1-.184.058-.153-.084-.43-.741-.983-1.173-.338-.248-.676-.368-.773-.068 0 .112-.091.144-.309.009a5.665 5.665 0 0 0-1.45-.732c-1-.232-.715.593-.069 1.279.216.262.453.453.417.478Zm4.326 21.809h-.764v1.073h.764Zm-11.949 6.949 4.377-4.717 3.029-9.256-2.1 2.674-2.542 5.416h-.214l-.454 1.207.518-1.027.054.052-.559 1.191-.023-.028h-.4l-.459 1.189-.105-.128h-.4l-.461 1.195.518-1.027.411.393h.169l-.136.289v.907l-.455.559V33.93l.087-.218.277.043-.32-.249-.284.633.15-.073v1Zm2.353-4.323.385-.891.04.006v1.9l-.425.522Zm-.376 1.846-.309.425v-1.452h.009l.132-.332.168.026Zm-.758-.834.515-1.022.208.2-.077.164-.1-.076-.285.633.157-.076-.206.439Zm3.026 6.228h-.369l-.223.158.024.044.212-.15h.356Zm0-4.486h-.371l-.224.205.028.041.212-.194h.355Zm0-.448h-.371l-.224.2.028.041.212-.193h.355Zm0 4.486h-.369l-.24.172.024.044.229-.164h.356Zm0-3.589h-.371l-.224.205.028.041.212-.193h.355Zm-2.359 6.184v-2.623l-.332.262v2.581Zm.179-3.27-.694.565a1.912 1.912 0 0 1 .029.377l.049.141v3.068l.026-.016v-3.4c.307-.284.611-.31.593-.723Zm.935-1.631c0 .611-.218.769-.218.2s-.271.917-.271.917l.771-.633s-.279-1.016-.279-.471Zm.08 4.111v-2.775l-.367.289V41Zm.2-3.466-.766.623a1.934 1.934 0 0 1 .032.4l.054.147v3.242l.028-.018v-3.6c.347-.316.668-.341.652-.783Zm.969.763h-.37l-.224.169.025.044.212-.16h.356Zm0 .449h-.369l-.224.164.024.044.212-.157h.356Zm0-.9h-.369l-.223.156.024.044.212-.148h.356Zm0-1.794h-.371l-.224.2.028.041.212-.193h.355Zm0 .449h-.371l-.224.2.028.041.212-.191h.355Zm0 .448h-.369l-.24.176.024.044.229-.168h.356Zm0 .448h-.369l-.24.178.024.044.229-.169h.356Z"/><g data-name="Raggruppa 276"><path data-name="Tracciato 264" d="m39.732 67.884-1.37.689v-.992l1.452-.755h.9v5.743h-.984Z"/><path data-name="Tracciato 265" d="M46.28 71.051c0 .919-.779 1.641-2.043 1.641-1.337 0-2.076-.722-2.076-1.747a1.615 1.615 0 0 1 .895-1.428 1.382 1.382 0 0 1-.7-1.239c0-.927.706-1.575 1.846-1.575a1.659 1.659 0 0 1 1.879 1.617 1.581 1.581 0 0 1-.812 1.3 1.554 1.554 0 0 1 1.011 1.431Zm-.993-.033c0-.328-.188-.607-.747-.837l-.632-.262a1.062 1.062 0 0 0-.771.968c0 .583.427.927 1.1.927s1.05-.377 1.05-.796Zm-2-2.715a.869.869 0 0 0 .607.746l.55.222a1.1 1.1 0 0 0 .714-.911c0-.443-.312-.812-.952-.812-.609-.001-.921.355-.921.755Z"/><path data-name="Tracciato 266" d="M51.341 70.805a1.915 1.915 0 0 1-2.067 1.887 3.988 3.988 0 0 1-1.748-.419v-1a3.507 3.507 0 0 0 1.715.492.969.969 0 0 0 1.05-.959.982.982 0 0 0-1.107-.969 1.536 1.536 0 0 0-.87.263l-.706-.517.123-2.757h3.364v.918h-2.486l-.074 1.395a2.019 2.019 0 0 1 .952-.2 1.8 1.8 0 0 1 1.854 1.866Z"/><path data-name="Tracciato 267" d="M52.628 72.396v-.976a3.308 3.308 0 0 0 1.395.353c.943 0 1.4-.517 1.4-1.748a1.924 1.924 0 0 1-1.321.468 1.763 1.763 0 0 1-1.813-1.9 1.9 1.9 0 0 1 2-1.9c1.346 0 2.133 1.034 2.133 2.79 0 2.388-.878 3.2-2.4 3.2a3.675 3.675 0 0 1-1.394-.287Zm2.757-3.257c0-1-.37-1.551-1.1-1.551a1.022 1.022 0 0 0 0 2.043 1.539 1.539 0 0 0 1.1-.492Z"/></g></g><g data-name="Raggruppa 278"><path data-name="Tracciato 268" d="M106.759 11.138h11.843c6.155 0 10.145 4.288 10.145 9.891 0 5.689-3.99 9.976-10.145 9.976h-5.561v9.848h-6.281Zm10.611 14.391c2.8 0 4.67-1.613 4.67-4.5 0-2.844-1.868-4.414-4.67-4.414h-4.33v8.915Z"/><path data-name="Tracciato 269" d="M130.529 30.41c0-6.2 4.585-10.994 11.291-10.994s11.333 4.8 11.333 10.994c0 6.24-4.627 11.078-11.333 11.078s-11.291-4.838-11.291-11.078Zm16.471 0a5.165 5.165 0 1 0-10.315 0c0 3.437 2.292 5.475 5.136 5.475 2.885.001 5.179-2.037 5.179-5.475Z"/><path data-name="Tracciato 270" d="M179.765 34.74v-9.722h-3.522v-4.922h3.735V14.45l5.73-2.124v7.77h4.627v4.922h-4.627v8.321c0 1.867.934 2.8 2.929 2.8a6.49 6.49 0 0 0 1.7-.255v5.137a14.453 14.453 0 0 1-3.565.465c-3.781.004-7.007-1.907-7.007-6.746Z"/><path data-name="Tracciato 271" d="M192.882 30.327c0-6.538 4.713-10.91 10.654-10.91 6.58 0 10.316 4.584 10.316 10.994 0 .51-.043 1.4-.085 1.741H199.08c.126 2.843 2.758 4.414 5.349 4.414a13.617 13.617 0 0 0 7.894-2.547v5.136a14.63 14.63 0 0 1-8.532 2.334c-5.985-.001-10.909-3.99-10.909-11.162Zm14.984-2.165a4 4 0 0 0-4.33-3.82 4.22 4.22 0 0 0-4.329 3.82Z"/><path data-name="Tracciato 272" d="M222.467 30.41a5.129 5.129 0 0 0 5.476 5.433 10.117 10.117 0 0 0 6.069-1.953v6.155a14.531 14.531 0 0 1-6.366 1.442c-6.537 0-11.334-4.5-11.334-11.078 0-6.537 4.8-10.994 11.334-10.994a14.53 14.53 0 0 1 6.366 1.444v6.113a10.4 10.4 0 0 0-6.069-1.953 5.164 5.164 0 0 0-5.476 5.391Z"/><path data-name="Tracciato 273" d="M238.299 20.096h5.857v1.655a7.917 7.917 0 0 1 5.816-2.335 7.325 7.325 0 0 1 7.6 7.6v13.839h-5.943V28.5a3.389 3.389 0 0 0-3.48-3.651 4.828 4.828 0 0 0-3.905 2.164v13.839h-5.943Z"/><path data-name="Tracciato 274" d="M277.728 30.41a5.129 5.129 0 0 0 5.477 5.433 10.117 10.117 0 0 0 6.069-1.953v6.155a14.533 14.533 0 0 1-6.366 1.442c-6.537 0-11.334-4.5-11.334-11.078 0-6.537 4.8-10.994 11.334-10.994a14.532 14.532 0 0 1 6.366 1.444v6.113a10.4 10.4 0 0 0-6.069-1.953 5.164 5.164 0 0 0-5.477 5.391Z"/><path data-name="Tracciato 275" d="M292.291 30.41c0-6.2 4.585-10.994 11.291-10.994s11.333 4.8 11.333 10.994c0 6.24-4.627 11.078-11.333 11.078s-11.291-4.838-11.291-11.078Zm16.471 0a5.165 5.165 0 1 0-10.315 0c0 3.437 2.292 5.475 5.136 5.475 2.886.001 5.178-2.037 5.178-5.475Z"/><path data-name="Tracciato 276" d="M160.879 55.788h-9.466v-5.815h25.383v5.815l-9.508.043v23.9l-6.409-.043Z"/><path data-name="Tracciato 277" d="M173.569 69.244c0-6.2 4.585-10.993 11.291-10.993s11.333 4.8 11.333 10.993c0 6.24-4.627 11.079-11.333 11.079s-11.291-4.839-11.291-11.079Zm16.471 0a5.165 5.165 0 1 0-10.315 0c0 3.439 2.292 5.476 5.136 5.476 2.885 0 5.178-2.037 5.178-5.476Z"/><path data-name="Tracciato 278" d="M199.928 58.929h5.857v3.014a5.827 5.827 0 0 1 5.561-3.691 13.638 13.638 0 0 1 1.528.127v6.027a8.727 8.727 0 0 0-2.164-.212 4.985 4.985 0 0 0-4.839 3.477v12.012h-5.943Z"/><path data-name="Tracciato 279" d="M227.306 58.929h5.857v1.656a7.921 7.921 0 0 1 5.816-2.334 7.323 7.323 0 0 1 7.6 7.6v13.838h-5.943V67.335a3.389 3.389 0 0 0-3.48-3.651 4.827 4.827 0 0 0-3.905 2.164v13.838h-5.943Z"/><path data-name="Tracciato 280" d="M249.886 69.244c0-6.2 4.585-10.993 11.291-10.993s11.333 4.8 11.333 10.993c0 6.24-4.627 11.079-11.333 11.079s-11.291-4.839-11.291-11.079Zm16.471 0a5.165 5.165 0 1 0-10.315 0c0 3.439 2.292 5.476 5.136 5.476 2.886 0 5.179-2.037 5.179-5.476Z"/><path data-name="Tracciato 281" d="M156.76 12.324v28.528h5.943V10.077h-.008Z"/><path data-name="Tracciato 282" d="M167.411 40.852h5.943V20.096h-5.943Zm2.971-24.876a3.649 3.649 0 1 0-3.649-3.649 3.649 3.649 0 0 0 3.652 3.649Z"/><path data-name="Tracciato 283" d="M262.008 40.852h5.943V20.096h-5.943Zm2.971-24.876a3.649 3.649 0 1 0-3.649-3.649 3.649 3.649 0 0 0 3.649 3.649Z"/><path data-name="Tracciato 284" d="M131.293 79.686h5.943V58.93h-5.943Zm2.972-24.876a3.649 3.649 0 1 0-3.649-3.649 3.649 3.649 0 0 0 3.648 3.649Z"/><path data-name="Tracciato 285" d="M216.439 79.686h5.943V58.93h-5.943Zm2.972-24.876a3.649 3.649 0 1 0-3.649-3.649 3.649 3.649 0 0 0 3.653 3.649Z"/><path data-name="Tracciato 286" d="m126.547 48.655-5.934 2.247v9.326a9.106 9.106 0 0 0-6.168-2.319c-5.756 0-9.691 4.8-9.691 10.993 0 6.24 3.935 11.079 9.691 11.079a9.064 9.064 0 0 0 6.168-2.338v1.786h5.943V48.655Zm-10.753 25.724c-2.662 0-4.808-2.038-4.808-5.476 0-3.353 2.145-5.433 4.808-5.433 2.6 0 4.666 1.941 4.818 5.076v.723c-.152 3.208-2.218 5.109-4.818 5.109Z"/></g></g></svg>