<?xml version="1.0" encoding="UTF-8" standalone="no"?>
<!-- Created with Inkscape (http://www.inkscape.org/) -->

<svg
   width="109.74214mm"
   height="131.7184mm"
   viewBox="0 0 109.74214 131.7184"
   version="1.1"
   id="svg5"
   sodipodi:docname="coherent_state.svg"
   inkscape:version="1.1.2 (0a00cf5339, 2022-02-04, custom)"
   xmlns:inkscape="http://www.inkscape.org/namespaces/inkscape"
   xmlns:sodipodi="http://sodipodi.sourceforge.net/DTD/sodipodi-0.dtd"
   xmlns="http://www.w3.org/2000/svg"
   xmlns:svg="http://www.w3.org/2000/svg"
   xmlns:ns3="http://www.iki.fi/pav/software/textext/">
  <sodipodi:namedview
     id="namedview7"
     pagecolor="#ffffff"
     bordercolor="#666666"
     borderopacity="1.0"
     inkscape:pageshadow="2"
     inkscape:pageopacity="0.0"
     inkscape:pagecheckerboard="0"
     inkscape:document-units="mm"
     showgrid="false"
     inkscape:snap-object-midpoints="true"
     inkscape:snap-intersection-paths="true"
     inkscape:zoom="1.0279"
     inkscape:cx="231.54003"
     inkscape:cy="181.43788"
     inkscape:window-width="1920"
     inkscape:window-height="1135"
     inkscape:window-x="0"
     inkscape:window-y="259"
     inkscape:window-maximized="1"
     inkscape:current-layer="layer1"
     inkscape:snap-smooth-nodes="true"
     inkscape:object-paths="true"
     inkscape:snap-bbox="false"
     inkscape:bbox-paths="true"
     inkscape:bbox-nodes="true"
     inkscape:snap-bbox-edge-midpoints="true"
     inkscape:snap-bbox-midpoints="true"
     showguides="true"
     inkscape:guide-bbox="true"
     lock-margins="true"
     fit-margin-top="2"
     fit-margin-left="2"
     fit-margin-right="2"
     fit-margin-bottom="2" />
  <defs
     id="defs2">
    <marker
       style="overflow:visible"
       id="Arrow1Lstart"
       refX="0"
       refY="0"
       orient="auto"
       inkscape:stockid="Arrow1Lstart"
       inkscape:isstock="true">
      <path
         transform="matrix(0.8,0,0,0.8,10,0)"
         style="fill:context-stroke;fill-rule:evenodd;stroke:context-stroke;stroke-width:1pt"
         d="M 0,0 5,-5 -12.5,0 5,5 Z"
         id="path1189" />
    </marker>
    <marker
       style="overflow:visible"
       id="Arrow1Lend"
       refX="0"
       refY="0"
       orient="auto"
       inkscape:stockid="Arrow1Lend"
       inkscape:isstock="true">
      <path
         transform="matrix(-0.8,0,0,-0.8,-10,0)"
         style="fill:context-stroke;fill-rule:evenodd;stroke:context-stroke;stroke-width:1pt"
         d="M 0,0 5,-5 -12.5,0 5,5 Z"
         id="path1192" />
    </marker>
  </defs>
  <g
     inkscape:label="Layer 1"
     inkscape:groupmode="layer"
     id="layer1"
     transform="translate(-101.9091,-27.38985)">
    <circle
       style="opacity:0.94;fill:#e6e6e6;fill-opacity:0.963269;stroke:none;stroke-width:0.498545;stroke-linejoin:round;stroke-miterlimit:4;stroke-dasharray:none;stroke-dashoffset:0"
       id="path870"
       cx="156.42087"
       cy="93.773987"
       r="52.262505" />
    <path
       id="circle996"
       style="opacity:0.94;fill:none;fill-opacity:0.963269;stroke:#000000;stroke-width:0.498545;stroke-linejoin:round;stroke-miterlimit:4;stroke-dasharray:3.98836, 0.498545;stroke-dashoffset:0"
       d="m 208.68338,93.773988 a 52.262507,17.133876 0 0 1 -52.26251,17.133872 52.262507,17.133876 0 0 1 -52.2625,-17.133872 52.262507,17.133876 0 0 1 52.2625,-17.133878 52.262507,17.133876 0 0 1 52.26251,17.133878 z" />
    <g
       id="path1185">
      <path
         style="color:#000000;fill:#000000;-inkscape-stroke:none"
         d="m 156.35352,93.525391 -25.86329,14.931639 0.24805,0.43164 25.75,-14.865233 h 52.19531 v -0.498046 z"
         id="path1036" />
      <g
         id="g1018">
        <g
           id="path1028">
          <path
             style="color:#000000;fill:#000000;fill-rule:evenodd;stroke-width:0.398836pt;-inkscape-stroke:none"
             d="m 203.69793,93.773981 -1.99418,1.99418 6.97963,-1.99418 -6.97963,-1.99418 z"
             id="path1032" />
          <path
             style="color:#000000;fill:#000000;fill-rule:evenodd;-inkscape-stroke:none"
             d="m 200.79102,91.242187 2.53125,2.53125 -2.53125,2.533204 8.85937,-2.533204 z m 1.82617,1.074219 5.09765,1.457031 -5.0957,1.455079 1.45508,-1.455079 -0.1875,-0.1875 z"
             id="path1034" />
        </g>
        <g
           id="path1020">
          <path
             style="color:#000000;fill:#000000;fill-rule:evenodd;stroke-width:0.398836pt;-inkscape-stroke:none"
             d="m 134.93198,106.1806 0.72992,-2.7241 -5.04745,5.21683 7.04163,-1.76281 z"
             id="path1024" />
          <path
             style="color:#000000;fill:#000000;fill-rule:evenodd;-inkscape-stroke:none"
             d="m 136.18359,102.5332 -6.4082,6.625 8.94141,-2.23828 -3.45899,-0.92773 z m -1.04492,1.84571 -0.5332,1.99023 0.25781,0.0684 1.73242,0.46484 -5.14648,1.28907 z"
             id="path1026" />
        </g>
      </g>
    </g>
    <g
       id="path1187">
      <path
         style="color:#000000;fill:#000000;-inkscape-stroke:none"
         d="m 156.40625,40.460937 -0.5,0.002 0.26562,53.3125 0.49805,-0.002 z"
         id="path1014" />
      <g
         id="g1004">
        <g
           id="path1006">
          <path
             style="color:#000000;fill:#000000;fill-rule:evenodd;stroke-width:0.398836pt;-inkscape-stroke:none"
             d="m 156.18096,45.446971 2.00405,1.984256 -2.0288,-6.969644 -1.95951,6.989444 z"
             id="path1010" />
          <path
             style="color:#000000;fill:#000000;fill-rule:evenodd;-inkscape-stroke:none"
             d="m 156.15234,39.494141 -2.48828,8.873046 2.51758,-2.542968 2.54492,2.517578 z m 0.008,1.935546 1.48242,5.089844 -1.46289,-1.449219 -0.1875,0.189454 -1.26172,1.273437 z"
             id="path1012" />
        </g>
      </g>
    </g>
    <g
       transform="matrix(0.894291,0,0,0.894291,152.5075,29.390185)"
       ns3:version="1.8.1"
       ns3:texconverter="pdflatex"
       ns3:pdfconverter="inkscape"
       ns3:text="$\\ket{\\uparrow}$"
       ns3:preamble="/home/tana/Documents/Conferences/FINESS22/poster_packages.tex"
       ns3:scale="3.38"
       ns3:alignment="middle center"
       ns3:stroke-to-path="0"
       ns3:jacobian_sqrt="0.894291"
       id="g1605">
      <defs
         id="id-99e73245-8ef5-4d43-b2bd-169705feafc3">
        <g
           id="id-b5d34065-736b-4e69-b8fc-2a62c05e63fe">
          <g
             id="id-66448e23-67ca-4f1e-a440-0381451ea1c5" />
          <g
             id="id-b6625240-ebeb-47a9-850f-d83fe9310f5b">
            <path
               d="m 1.578125,-7.125 c 0,-0.171875 0,-0.359375 -0.1875,-0.359375 -0.203125,0 -0.203125,0.1875 -0.203125,0.359375 v 9.265625 c 0,0.171875 0,0.359375 0.203125,0.359375 0.1875,0 0.1875,-0.1875 0.1875,-0.359375 z m 0,0"
               id="id-a5d15ec4-432a-4491-84d6-5c38eb37fd38" />
          </g>
          <g
             id="id-cf066c1f-c7de-4f94-8677-fe248bc28983">
            <path
               d="m 2.6875,-5.53125 c 0.25,0.375 0.515625,0.65625 0.765625,0.84375 0.609375,0.453125 1.21875,0.5625 1.234375,0.5625 0.125,0 0.125,-0.109375 0.125,-0.1875 0,-0.15625 0,-0.171875 -0.234375,-0.25 C 3.90625,-4.75 3.515625,-5.109375 3.296875,-5.359375 2.78125,-5.90625 2.65625,-6.5 2.609375,-6.8125 2.59375,-6.875 2.546875,-6.90625 2.5,-6.90625 c -0.09375,0 -0.109375,0.0625 -0.125,0.171875 C 2.140625,-5.625 1.4375,-4.84375 0.34375,-4.53125 0.1875,-4.484375 0.171875,-4.484375 0.171875,-4.3125 c 0,0.078125 0,0.1875 0.125,0.1875 0.015625,0 0.609375,-0.109375 1.171875,-0.515625 0.328125,-0.25 0.609375,-0.546875 0.828125,-0.890625 v 7.109375 c 0,0.171875 0,0.359375 0.203125,0.359375 0.1875,0 0.1875,-0.1875 0.1875,-0.359375 z m 0,0"
               id="id-863c486b-382a-4fcf-92a2-62daa8ffcfe3" />
          </g>
          <g
             id="id-64aabc15-8cd5-497e-8c56-ecdaec39868a">
            <path
               d="M 2.71875,-2.328125 C 2.765625,-2.4375 2.765625,-2.46875 2.765625,-2.5 c 0,-0.015625 0,-0.046875 -0.046875,-0.15625 L 0.984375,-7.25 c -0.0625,-0.171875 -0.125,-0.234375 -0.234375,-0.234375 -0.109375,0 -0.203125,0.09375 -0.203125,0.203125 0,0.03125 0,0.046875 0.046875,0.15625 L 2.359375,-2.5 0.59375,2.109375 C 0.546875,2.21875 0.546875,2.25 0.546875,2.296875 0.546875,2.40625 0.640625,2.5 0.75,2.5 0.875,2.5 0.921875,2.390625 0.953125,2.296875 Z m 0,0"
               id="id-7b67b8a9-f81d-4a4b-9888-0aab236e5ccd" />
          </g>
        </g>
      </defs>
      <g
         fill="#000000"
         fill-opacity="1"
         id="id-7468e899-0ed9-42d9-80a4-15da085db993"
         transform="translate(-149.9,-127.281)">
        <g
           transform="translate(148.712,134.765)"
           id="g1596">
          <path
             d="m 1.578125,-7.125 c 0,-0.171875 0,-0.359375 -0.1875,-0.359375 -0.203125,0 -0.203125,0.1875 -0.203125,0.359375 v 9.265625 c 0,0.171875 0,0.359375 0.203125,0.359375 0.1875,0 0.1875,-0.1875 0.1875,-0.359375 z m 0,0"
             id="id-57ada7b7-48ae-45ee-8f5a-31a5363cf5c8" />
        </g>
        <g
           transform="translate(151.48,134.765)"
           id="g1599">
          <path
             d="m 2.6875,-5.53125 c 0.25,0.375 0.515625,0.65625 0.765625,0.84375 0.609375,0.453125 1.21875,0.5625 1.234375,0.5625 0.125,0 0.125,-0.109375 0.125,-0.1875 0,-0.15625 0,-0.171875 -0.234375,-0.25 C 3.90625,-4.75 3.515625,-5.109375 3.296875,-5.359375 2.78125,-5.90625 2.65625,-6.5 2.609375,-6.8125 2.59375,-6.875 2.546875,-6.90625 2.5,-6.90625 c -0.09375,0 -0.109375,0.0625 -0.125,0.171875 C 2.140625,-5.625 1.4375,-4.84375 0.34375,-4.53125 0.1875,-4.484375 0.171875,-4.484375 0.171875,-4.3125 c 0,0.078125 0,0.1875 0.125,0.1875 0.015625,0 0.609375,-0.109375 1.171875,-0.515625 0.328125,-0.25 0.609375,-0.546875 0.828125,-0.890625 v 7.109375 c 0,0.171875 0,0.359375 0.203125,0.359375 0.1875,0 0.1875,-0.1875 0.1875,-0.359375 z m 0,0"
             id="id-74c3b383-31f7-4e72-9c42-e34692c405ee" />
        </g>
        <g
           transform="translate(156.461,134.765)"
           id="g1602">
          <path
             d="M 2.71875,-2.328125 C 2.765625,-2.4375 2.765625,-2.46875 2.765625,-2.5 c 0,-0.015625 0,-0.046875 -0.046875,-0.15625 L 0.984375,-7.25 c -0.0625,-0.171875 -0.125,-0.234375 -0.234375,-0.234375 -0.109375,0 -0.203125,0.09375 -0.203125,0.203125 0,0.03125 0,0.046875 0.046875,0.15625 L 2.359375,-2.5 0.59375,2.109375 C 0.546875,2.21875 0.546875,2.25 0.546875,2.296875 0.546875,2.40625 0.640625,2.5 0.75,2.5 0.875,2.5 0.921875,2.390625 0.953125,2.296875 Z m 0,0"
             id="id-fdd6a130-dee1-45f9-a80c-5aa9d6415286" />
        </g>
      </g>
    </g>
    <path
       style="fill:none;stroke:#000000;stroke-width:0.498545;stroke-linecap:butt;stroke-linejoin:miter;stroke-miterlimit:4;stroke-dasharray:0.498545, 0.498545;stroke-dashoffset:0;stroke-opacity:1"
       d="M 156.42087,93.773988 V 146.03648"
       id="path1757" />
    <g
       transform="matrix(0.894291,0,0,0.894291,152.77217,148.17964)"
       ns3:version="1.8.1"
       ns3:texconverter="pdflatex"
       ns3:pdfconverter="inkscape"
       ns3:text="$\\ket{\\downarrow}$"
       ns3:preamble="/home/tana/Documents/Conferences/FINESS22/poster_packages.tex"
       ns3:scale="3.38"
       ns3:alignment="middle center"
       ns3:stroke-to-path="0"
       ns3:jacobian_sqrt="0.894291"
       id="g1889">
      <defs
         id="id-ec88133a-e018-4eb8-b65b-a8a59ed40998">
        <g
           id="id-4ddd0b5d-57f9-40ec-858d-4ea0da9791a5">
          <g
             id="id-b5fe687f-c496-4513-9890-5dc5904b912b" />
          <g
             id="id-2ce6ea1e-6adf-42c9-aba6-f68acdf152a2">
            <path
               d="m 1.578125,-7.125 c 0,-0.171875 0,-0.359375 -0.1875,-0.359375 -0.203125,0 -0.203125,0.1875 -0.203125,0.359375 v 9.265625 c 0,0.171875 0,0.359375 0.203125,0.359375 0.1875,0 0.1875,-0.1875 0.1875,-0.359375 z m 0,0"
               id="id-7006a152-312e-4149-aee2-f601fa1a441f" />
          </g>
          <g
             id="id-29454e19-79ad-4b88-9936-337f291521c2">
            <path
               d="m 2.6875,-6.5625 c 0,-0.171875 0,-0.359375 -0.1875,-0.359375 -0.203125,0 -0.203125,0.1875 -0.203125,0.359375 v 7.109375 c -0.25,-0.375 -0.515625,-0.65625 -0.765625,-0.84375 -0.609375,-0.453125 -1.21875,-0.5625 -1.234375,-0.5625 -0.125,0 -0.125,0.109375 -0.125,0.1875 0,0.15625 0,0.171875 0.234375,0.25 C 1.078125,-0.234375 1.46875,0.125 1.6875,0.375 2.203125,0.921875 2.328125,1.515625 2.375,1.828125 2.390625,1.875 2.421875,1.921875 2.5,1.921875 c 0.078125,0 0.09375,-0.0625 0.109375,-0.15625 0.21875,-1.125 0.9375,-1.90625 2.03125,-2.21875 C 4.796875,-0.5 4.8125,-0.5 4.8125,-0.671875 c 0,-0.078125 0,-0.1875 -0.125,-0.1875 -0.015625,0 -0.609375,0.109375 -1.171875,0.515625 C 3.1875,-0.09375 2.90625,0.203125 2.6875,0.546875 Z m 0,0"
               id="id-9a845f54-3e57-4416-95da-b1a120e7f5e0" />
          </g>
          <g
             id="id-8fee13e6-60eb-4ee0-bdfb-db10d362da03">
            <path
               d="M 2.71875,-2.328125 C 2.765625,-2.4375 2.765625,-2.46875 2.765625,-2.5 c 0,-0.015625 0,-0.046875 -0.046875,-0.15625 L 0.984375,-7.25 c -0.0625,-0.171875 -0.125,-0.234375 -0.234375,-0.234375 -0.109375,0 -0.203125,0.09375 -0.203125,0.203125 0,0.03125 0,0.046875 0.046875,0.15625 L 2.359375,-2.5 0.59375,2.109375 C 0.546875,2.21875 0.546875,2.25 0.546875,2.296875 0.546875,2.40625 0.640625,2.5 0.75,2.5 0.875,2.5 0.921875,2.390625 0.953125,2.296875 Z m 0,0"
               id="id-86d78a95-3cdd-418e-bbfa-05c1e6af151d" />
          </g>
        </g>
      </defs>
      <g
         fill="#000000"
         fill-opacity="1"
         id="id-52deb82c-6c74-45ac-9942-3f650f20275e"
         transform="translate(-149.9,-127.281)">
        <g
           transform="translate(148.712,134.765)"
           id="g1976">
          <path
             d="m 1.578125,-7.125 c 0,-0.171875 0,-0.359375 -0.1875,-0.359375 -0.203125,0 -0.203125,0.1875 -0.203125,0.359375 v 9.265625 c 0,0.171875 0,0.359375 0.203125,0.359375 0.1875,0 0.1875,-0.1875 0.1875,-0.359375 z m 0,0"
             id="id-074be8a7-301e-4ea0-a72c-12fa9e37610b" />
        </g>
        <g
           transform="translate(151.48,134.765)"
           id="g1979">
          <path
             d="m 2.6875,-6.5625 c 0,-0.171875 0,-0.359375 -0.1875,-0.359375 -0.203125,0 -0.203125,0.1875 -0.203125,0.359375 v 7.109375 c -0.25,-0.375 -0.515625,-0.65625 -0.765625,-0.84375 -0.609375,-0.453125 -1.21875,-0.5625 -1.234375,-0.5625 -0.125,0 -0.125,0.109375 -0.125,0.1875 0,0.15625 0,0.171875 0.234375,0.25 C 1.078125,-0.234375 1.46875,0.125 1.6875,0.375 2.203125,0.921875 2.328125,1.515625 2.375,1.828125 2.390625,1.875 2.421875,1.921875 2.5,1.921875 c 0.078125,0 0.09375,-0.0625 0.109375,-0.15625 0.21875,-1.125 0.9375,-1.90625 2.03125,-2.21875 C 4.796875,-0.5 4.8125,-0.5 4.8125,-0.671875 c 0,-0.078125 0,-0.1875 -0.125,-0.1875 -0.015625,0 -0.609375,0.109375 -1.171875,0.515625 C 3.1875,-0.09375 2.90625,0.203125 2.6875,0.546875 Z m 0,0"
             id="id-7e0fe21f-1b7f-4648-a9d5-c370088c09d1" />
        </g>
        <g
           transform="translate(156.461,134.765)"
           id="g1982">
          <path
             d="M 2.71875,-2.328125 C 2.765625,-2.4375 2.765625,-2.46875 2.765625,-2.5 c 0,-0.015625 0,-0.046875 -0.046875,-0.15625 L 0.984375,-7.25 c -0.0625,-0.171875 -0.125,-0.234375 -0.234375,-0.234375 -0.109375,0 -0.203125,0.09375 -0.203125,0.203125 0,0.03125 0,0.046875 0.046875,0.15625 L 2.359375,-2.5 0.59375,2.109375 C 0.546875,2.21875 0.546875,2.25 0.546875,2.296875 0.546875,2.40625 0.640625,2.5 0.75,2.5 0.875,2.5 0.921875,2.390625 0.953125,2.296875 Z m 0,0"
             id="id-9c7d3bcd-1eb5-4f06-b6ef-3011e6e71ff7" />
        </g>
      </g>
    </g>
    <path
       style="fill:none;stroke:#000000;stroke-width:0.439689;stroke-linecap:butt;stroke-linejoin:miter;stroke-miterlimit:4;stroke-dasharray:0.439689, 0.439689;stroke-dashoffset:0;stroke-opacity:1"
       d="M 175.66608,62.624664 V 102.87467 L 156.42087,93.773988"
       id="path2056"
       sodipodi:nodetypes="ccc" />
    <path
       style="opacity:0.94;fill:none;fill-opacity:0.963269;stroke:#000000;stroke-width:0.3;stroke-linejoin:round;stroke-miterlimit:4;stroke-dasharray:0.3, 1.2;stroke-dashoffset:0"
       id="path2363"
       sodipodi:type="arc"
       sodipodi:cx="156.42087"
       sodipodi:cy="93.773972"
       sodipodi:rx="26.417921"
       sodipodi:ry="8.7042913"
       sodipodi:start="0.95999052"
       sodipodi:end="2.0919358"
       sodipodi:arc-type="arc"
       d="m 171.57228,100.90441 a 26.417921,8.7042913 0 0 1 -28.30407,0.41838"
       sodipodi:open="true" />
    <g
       id="path2980">
      <path
         style="color:#000000;fill:#000000;-inkscape-stroke:none"
         d="m 175.47852,62.509766 -19.24415,31.148437 0.37305,0.230469 19.2461,-31.148438 z"
         id="path916" />
      <g
         id="g906">
        <g
           id="path908">
          <path
             style="color:#000000;fill:#000000;fill-rule:evenodd;stroke-width:0.351751pt;-inkscape-stroke:none"
             d="m 173.35503,66.365211 0.5718,2.420639 1.73925,-6.161186 -4.73169,4.312346 z"
             id="path912" />
          <path
             style="color:#000000;fill:#000000;fill-rule:evenodd;-inkscape-stroke:none"
             d="m 176.11523,61.898437 -6.00781,5.47461 3.07422,-0.72461 0.72461,3.072266 z m -0.89843,1.455079 -1.26953,4.498046 -0.41797,-1.767578 -0.22852,0.05273 -1.54101,0.365234 z"
             id="path914" />
        </g>
      </g>
    </g>
    <path
       style="opacity:0.94;fill:none;fill-opacity:0.963269;stroke:#000000;stroke-width:0.3;stroke-linejoin:round;stroke-miterlimit:4;stroke-dasharray:2.4, 0.3;stroke-dashoffset:0"
       id="path3544"
       sodipodi:type="arc"
       sodipodi:cx="156.42087"
       sodipodi:cy="93.773987"
       sodipodi:rx="13.292874"
       sodipodi:ry="27.139511"
       sodipodi:start="4.7012122"
       sodipodi:end="5.6100734"
       sodipodi:arc-type="arc"
       d="m 156.2723,66.636171 a 13.292874,27.139511 0 0 1 10.54207,10.218443"
       sodipodi:open="true" />
    <g
       transform="matrix(0.894291,0,0,0.894291,162.13778,62.027742)"
       ns3:version="1.8.1"
       ns3:texconverter="pdflatex"
       ns3:pdfconverter="inkscape"
       ns3:text="$\\theta$"
       ns3:preamble="/home/tana/Documents/Conferences/FINESS22/poster_packages.tex"
       ns3:scale="3.38"
       ns3:alignment="middle center"
       ns3:stroke-to-path="0"
       ns3:jacobian_sqrt="0.894291"
       id="g4142">
      <defs
         id="id-e085d280-eb85-4a86-ad3a-f5cbcd526305">
        <g
           id="id-5cd1f3f6-5633-49c6-9208-cc3785dd027e">
          <g
             id="id-b3468689-7ea0-4ad3-87be-1f0e4e4de22f" />
          <g
             id="id-da8853d9-9956-4d9c-a157-631243519deb">
            <path
               d="m 4.53125,-4.984375 c 0,-0.65625 -0.171875,-2.046875 -1.1875,-2.046875 -1.390625,0 -2.921875,2.8125 -2.921875,5.09375 0,0.9375 0.28125,2.046875 1.1875,2.046875 1.40625,0 2.921875,-2.859375 2.921875,-5.09375 z M 1.46875,-3.625 C 1.640625,-4.25 1.84375,-5.046875 2.25,-5.765625 2.515625,-6.25 2.875,-6.8125 3.328125,-6.8125 c 0.484375,0 0.546875,0.640625 0.546875,1.203125 0,0.5 -0.078125,1 -0.3125,1.984375 z m 2,0.328125 C 3.359375,-2.84375 3.15625,-2 2.765625,-1.28125 c -0.34375,0.6875 -0.71875,1.171875 -1.15625,1.171875 -0.328125,0 -0.53125,-0.296875 -0.53125,-1.21875 0,-0.421875 0.0625,-1 0.3125,-1.96875 z m 0,0"
               id="id-19c2dfc7-710e-47bd-a88e-eb310a8bfb6a" />
          </g>
        </g>
      </defs>
      <g
         fill="#000000"
         fill-opacity="1"
         id="id-55c9d45a-fb9d-4bb1-a58e-7ade74fcb26d"
         transform="translate(-149.134,-127.734)">
        <g
           transform="translate(148.712,134.765)"
           id="g4139">
          <path
             d="m 4.53125,-4.984375 c 0,-0.65625 -0.171875,-2.046875 -1.1875,-2.046875 -1.390625,0 -2.921875,2.8125 -2.921875,5.09375 0,0.9375 0.28125,2.046875 1.1875,2.046875 1.40625,0 2.921875,-2.859375 2.921875,-5.09375 z M 1.46875,-3.625 C 1.640625,-4.25 1.84375,-5.046875 2.25,-5.765625 2.515625,-6.25 2.875,-6.8125 3.328125,-6.8125 c 0.484375,0 0.546875,0.640625 0.546875,1.203125 0,0.5 -0.078125,1 -0.3125,1.984375 z m 2,0.328125 C 3.359375,-2.84375 3.15625,-2 2.765625,-1.28125 c -0.34375,0.6875 -0.71875,1.171875 -1.15625,1.171875 -0.328125,0 -0.53125,-0.296875 -0.53125,-1.21875 0,-0.421875 0.0625,-1 0.3125,-1.96875 z m 0,0"
             id="id-27805b6a-4894-47ba-ade5-9ab3c566b188" />
        </g>
      </g>
    </g>
    <g
       transform="matrix(0.894291,0,0,0.894291,160.42144,102.3222)"
       ns3:version="1.8.1"
       ns3:texconverter="pdflatex"
       ns3:pdfconverter="inkscape"
       ns3:text="$\\psi$"
       ns3:preamble="/home/tana/Documents/Conferences/FINESS22/poster_packages.tex"
       ns3:scale="3.38"
       ns3:alignment="middle center"
       ns3:stroke-to-path="0"
       ns3:jacobian_sqrt="0.894291"
       id="g4364">
      <defs
         id="id-b773f333-d853-4580-a2f6-64fb21605625">
        <g
           id="id-2a518042-7730-4956-a7ef-b5550ab7bb92">
          <g
             id="id-627c6574-a424-4114-b4a8-7f631d7bb14e" />
          <g
             id="id-6ed9e9b5-e366-4e5c-af89-0618428fd3b6">
            <path
               d="m 4.8125,-6.65625 c 0,-0.046875 0.015625,-0.109375 0.015625,-0.15625 0,-0.09375 -0.0625,-0.109375 -0.109375,-0.109375 -0.109375,0 -0.109375,0.03125 -0.15625,0.203125 L 2.90625,-0.125 c -0.75,-0.09375 -1.125,-0.46875 -1.125,-1.125 0,-0.203125 0,-0.453125 0.53125,-1.84375 0.046875,-0.125 0.109375,-0.296875 0.109375,-0.5 0,-0.4375 -0.3125,-0.8125 -0.8125,-0.8125 -0.953125,0 -1.3125,1.453125 -1.3125,1.53125 0,0.109375 0.09375,0.109375 0.109375,0.109375 0.109375,0 0.109375,-0.03125 0.15625,-0.1875 0.28125,-0.9375 0.671875,-1.234375 1.015625,-1.234375 0.078125,0 0.25,0 0.25,0.3125 0,0.265625 -0.109375,0.515625 -0.234375,0.859375 C 1.109375,-1.75 1.109375,-1.5 1.109375,-1.328125 1.109375,-0.375 1.890625,0.03125 2.84375,0.09375 2.765625,0.453125 2.765625,0.46875 2.625,1 2.609375,1.109375 2.40625,1.90625 2.40625,1.9375 c 0,0.015625 0,0.109375 0.109375,0.109375 0.03125,0 0.078125,0 0.09375,-0.046875 0.03125,-0.015625 0.09375,-0.265625 0.125,-0.40625 l 0.375,-1.484375 c 0.375,0 1.25,0 2.1875,-1.0625 0.40625,-0.46875 0.609375,-0.90625 0.71875,-1.203125 0.09375,-0.25 0.3125,-1.109375 0.3125,-1.546875 0,-0.5625 -0.265625,-0.703125 -0.4375,-0.703125 -0.25,0 -0.5,0.265625 -0.5,0.484375 0,0.125 0.0625,0.1875 0.15625,0.265625 0.109375,0.109375 0.359375,0.359375 0.359375,0.84375 0,0.640625 -0.515625,1.453125 -0.875,1.8125 -0.875,0.890625 -1.515625,0.890625 -1.875,0.890625 z m 0,0"
               id="id-33229a34-c365-40be-be5a-c35db64b78da" />
          </g>
        </g>
      </defs>
      <g
         fill="#000000"
         fill-opacity="1"
         id="id-0a0592e7-869a-4e47-8d82-a31d43dd9921"
         transform="translate(-149.009,-127.843)">
        <g
           transform="translate(148.712,134.765)"
           id="g4361">
          <path
             d="m 4.8125,-6.65625 c 0,-0.046875 0.015625,-0.109375 0.015625,-0.15625 0,-0.09375 -0.0625,-0.109375 -0.109375,-0.109375 -0.109375,0 -0.109375,0.03125 -0.15625,0.203125 L 2.90625,-0.125 c -0.75,-0.09375 -1.125,-0.46875 -1.125,-1.125 0,-0.203125 0,-0.453125 0.53125,-1.84375 0.046875,-0.125 0.109375,-0.296875 0.109375,-0.5 0,-0.4375 -0.3125,-0.8125 -0.8125,-0.8125 -0.953125,0 -1.3125,1.453125 -1.3125,1.53125 0,0.109375 0.09375,0.109375 0.109375,0.109375 0.109375,0 0.109375,-0.03125 0.15625,-0.1875 0.28125,-0.9375 0.671875,-1.234375 1.015625,-1.234375 0.078125,0 0.25,0 0.25,0.3125 0,0.265625 -0.109375,0.515625 -0.234375,0.859375 C 1.109375,-1.75 1.109375,-1.5 1.109375,-1.328125 1.109375,-0.375 1.890625,0.03125 2.84375,0.09375 2.765625,0.453125 2.765625,0.46875 2.625,1 2.609375,1.109375 2.40625,1.90625 2.40625,1.9375 c 0,0.015625 0,0.109375 0.109375,0.109375 0.03125,0 0.078125,0 0.09375,-0.046875 0.03125,-0.015625 0.09375,-0.265625 0.125,-0.40625 l 0.375,-1.484375 c 0.375,0 1.25,0 2.1875,-1.0625 0.40625,-0.46875 0.609375,-0.90625 0.71875,-1.203125 0.09375,-0.25 0.3125,-1.109375 0.3125,-1.546875 0,-0.5625 -0.265625,-0.703125 -0.4375,-0.703125 -0.25,0 -0.5,0.265625 -0.5,0.484375 0,0.125 0.0625,0.1875 0.15625,0.265625 0.109375,0.109375 0.359375,0.359375 0.359375,0.84375 0,0.640625 -0.515625,1.453125 -0.875,1.8125 -0.875,0.890625 -1.515625,0.890625 -1.875,0.890625 z m 0,0"
             id="id-db4a6dc6-1a87-402e-bd13-d53148f81ad8" />
        </g>
      </g>
    </g>
    <g
       id="path6469">
      <path
         style="color:#000000;fill:#ff0000;-inkscape-stroke:none"
         d="m 159.38867,88.71875 -3.08008,4.986328 0.22461,0.138672 3.08008,-4.986328 z"
         id="path930" />
      <g
         id="g920">
        <g
           id="path922">
          <path
             style="color:#000000;fill:#ff0000;fill-rule:evenodd;stroke-width:0.211666pt;-inkscape-stroke:none"
             d="m 158.11047,91.039216 0.34406,1.456624 1.04664,-3.707484 -2.84732,2.594924 z"
             id="path926" />
          <path
             style="color:#000000;fill:#ff0000;fill-rule:evenodd;-inkscape-stroke:none"
             d="m 159.77148,88.351562 -3.61523,3.294922 1.84766,-0.4375 0.4375,1.84961 z m -0.54101,0.873047 -0.76367,2.708985 -0.25196,-1.064453 -0.13672,0.0332 -0.92773,0.21875 z"
             id="path928" />
        </g>
      </g>
    </g>
    <g
       id="path6650">
      <path
         style="color:#000000;fill:#ff0000;-inkscape-stroke:none"
         d="m 162.46875,83.732422 -3.08008,4.986328 0.22461,0.138672 3.08008,-4.984375 z"
         id="path944" />
      <g
         id="g934">
        <g
           id="path936">
          <path
             style="color:#000000;fill:#ff0000;fill-rule:evenodd;stroke-width:0.211666pt;-inkscape-stroke:none"
             d="m 161.19077,86.053722 0.34406,1.456624 1.04664,-3.707484 -2.84732,2.594924 z"
             id="path940" />
          <path
             style="color:#000000;fill:#ff0000;fill-rule:evenodd;-inkscape-stroke:none"
             d="m 162.85156,83.365234 -3.61523,3.294922 1.84961,-0.435547 0.4375,1.847657 z m -0.54101,0.873047 -0.76368,2.710938 -0.25195,-1.064453 -0.13672,0.03125 -0.92578,0.21875 z"
             id="path942" />
        </g>
      </g>
    </g>
    <g
       id="path6652">
      <path
         style="color:#000000;fill:#ff0000;-inkscape-stroke:none"
         d="m 165.54883,78.748047 -3.08008,4.984375 0.22461,0.140625 3.08008,-4.986328 z"
         id="path958" />
      <g
         id="g948">
        <g
           id="path950">
          <path
             style="color:#000000;fill:#ff0000;fill-rule:evenodd;stroke-width:0.211666pt;-inkscape-stroke:none"
             d="m 164.27107,81.068228 0.34406,1.456624 1.04664,-3.707484 -2.84732,2.594924 z"
             id="path954" />
          <path
             style="color:#000000;fill:#ff0000;fill-rule:evenodd;-inkscape-stroke:none"
             d="m 165.93164,78.380859 -3.61523,3.294922 1.84961,-0.4375 0.4375,1.84961 z m -0.54102,0.873047 -0.76367,2.708985 -0.25195,-1.064454 -0.13672,0.0332 -0.92773,0.21875 z"
             id="path956" />
        </g>
      </g>
    </g>
    <g
       id="path6654">
      <path
         style="color:#000000;fill:#ff0000;-inkscape-stroke:none"
         d="m 168.62891,73.761719 -3.08008,4.986328 0.22461,0.138672 3.08203,-4.984375 z"
         id="path972" />
      <g
         id="g962">
        <g
           id="path964">
          <path
             style="color:#000000;fill:#ff0000;fill-rule:evenodd;stroke-width:0.211666pt;-inkscape-stroke:none"
             d="m 167.35137,76.082734 0.34406,1.456624 1.04664,-3.707484 -2.84732,2.594924 z"
             id="path968" />
          <path
             style="color:#000000;fill:#ff0000;fill-rule:evenodd;-inkscape-stroke:none"
             d="m 169.01172,73.394531 -3.61524,3.294922 1.85157,-0.435547 0.43554,1.847656 z m -0.54102,0.875 -0.76367,2.708985 -0.25,-1.066407 -0.13867,0.0332 -0.92578,0.21875 z"
             id="path970" />
        </g>
      </g>
    </g>
    <g
       id="path6656">
      <path
         style="color:#000000;fill:#ff0000;-inkscape-stroke:none"
         d="m 171.70898,68.777344 -3.08007,4.984375 0.22656,0.140625 3.08008,-4.986328 z"
         id="path986" />
      <g
         id="g976">
        <g
           id="path978">
          <path
             style="color:#000000;fill:#ff0000;fill-rule:evenodd;stroke-width:0.211666pt;-inkscape-stroke:none"
             d="m 170.43167,71.09724 0.34406,1.456624 1.04664,-3.707484 -2.84732,2.594924 z"
             id="path982" />
          <path
             style="color:#000000;fill:#ff0000;fill-rule:evenodd;-inkscape-stroke:none"
             d="m 172.0918,68.410156 -3.61524,3.292969 1.85156,-0.435547 0.43555,1.849609 z m -0.53907,0.873047 -0.76562,2.710938 -0.25,-1.066407 -0.13867,0.03125 -0.92578,0.220703 z"
             id="path984" />
        </g>
      </g>
    </g>
    <g
       id="path6658">
      <path
         style="color:#000000;fill:#ff0000;-inkscape-stroke:none"
         d="m 174.79102,63.791016 -3.08204,4.986328 0.22657,0.138672 3.08007,-4.986329 z"
         id="path1000" />
      <g
         id="g990">
        <g
           id="path992">
          <path
             style="color:#000000;fill:#ff0000;fill-rule:evenodd;stroke-width:0.211666pt;-inkscape-stroke:none"
             d="m 173.51197,66.111746 0.34406,1.456624 1.04664,-3.707484 -2.84732,2.594924 z"
             id="path996" />
          <path
             style="color:#000000;fill:#ff0000;fill-rule:evenodd;-inkscape-stroke:none"
             d="m 175.17187,63.423828 -3.61328,3.294922 1.84961,-0.435547 0.43555,1.847656 z m -0.53906,0.873047 -0.76367,2.708984 -0.25195,-1.064453 -0.13672,0.0332 -0.92774,0.21875 z"
             id="path998" />
        </g>
      </g>
    </g>
  </g>
</svg>
