<?xml version="1.0" encoding="UTF-8" standalone="no"?>
<!-- Created with Inkscape (http://www.inkscape.org/) -->

<svg
   version="1.1"
   id="svg1"
   width="655.87201"
   height="327.936"
   viewBox="0 0 655.87201 327.936"
   sodipodi:docname="Fig3b.svg"
   inkscape:version="1.3 (0e150ed6c4, 2023-07-21)"
   xmlns:inkscape="http://www.inkscape.org/namespaces/inkscape"
   xmlns:sodipodi="http://sodipodi.sourceforge.net/DTD/sodipodi-0.dtd"
   xmlns="http://www.w3.org/2000/svg"
   xmlns:svg="http://www.w3.org/2000/svg">
  <defs
     id="defs1">
    <clipPath
       clipPathUnits="userSpaceOnUse"
       id="clipPath4">
      <path
         d="M 69.403804,68.025261 H 417.89574 V 223.54263 H 69.403804 Z"
         id="path4" />
    </clipPath>
    <clipPath
       clipPathUnits="userSpaceOnUse"
       id="clipPath30">
      <path
         d="M 69.403804,68.025261 H 417.89574 V 223.54263 H 69.403804 Z"
         id="path30" />
    </clipPath>
    <clipPath
       clipPathUnits="userSpaceOnUse"
       id="clipPath51">
      <path
         d="M 69.403804,68.025261 H 417.89574 V 223.54263 H 69.403804 Z"
         id="path51" />
    </clipPath>
    <clipPath
       clipPathUnits="userSpaceOnUse"
       id="clipPath52">
      <path
         d="m -8.5,-8.5 h 17 v 17 h -17 z"
         id="path52" />
    </clipPath>
    <clipPath
       clipPathUnits="userSpaceOnUse"
       id="clipPath54">
      <path
         d="M 69.403804,68.025261 H 417.89574 V 223.54263 H 69.403804 Z"
         transform="matrix(1.3333333,0,0,-1.3333333,0,327.936)"
         id="path54" />
    </clipPath>
    <clipPath
       clipPathUnits="userSpaceOnUse"
       id="clipPath55">
      <path
         d="m -8.5,-8.5 h 17 v 17 h -17 z"
         id="path55" />
    </clipPath>
    <clipPath
       clipPathUnits="userSpaceOnUse"
       id="clipPath57">
      <path
         d="M 69.403804,68.025261 H 417.89574 V 223.54263 H 69.403804 Z"
         transform="matrix(1.3333333,0,0,-1.3333333,0,327.936)"
         id="path57" />
    </clipPath>
    <clipPath
       clipPathUnits="userSpaceOnUse"
       id="clipPath58">
      <path
         d="m -8.5,-8.5 h 17 v 17 h -17 z"
         transform="translate(-3.4676001e-6)"
         id="path58" />
    </clipPath>
    <clipPath
       clipPathUnits="userSpaceOnUse"
       id="clipPath60">
      <path
         d="M 69.403804,68.025261 H 417.89574 V 223.54263 H 69.403804 Z"
         transform="matrix(1.3333333,0,0,-1.3333333,0,327.936)"
         id="path60" />
    </clipPath>
    <clipPath
       clipPathUnits="userSpaceOnUse"
       id="clipPath61">
      <path
         d="m -8.5,-8.5 h 17 v 17 h -17 z"
         id="path61" />
    </clipPath>
    <clipPath
       clipPathUnits="userSpaceOnUse"
       id="clipPath63">
      <path
         d="M 69.403804,68.025261 H 417.89574 V 223.54263 H 69.403804 Z"
         transform="matrix(1.3333333,0,0,-1.3333333,0,327.936)"
         id="path63" />
    </clipPath>
    <clipPath
       clipPathUnits="userSpaceOnUse"
       id="clipPath64">
      <path
         d="m -8.5,-8.5 h 17 v 17 h -17 z"
         id="path64" />
    </clipPath>
    <clipPath
       clipPathUnits="userSpaceOnUse"
       id="clipPath66">
      <path
         d="M 69.403804,68.025261 H 417.89574 V 223.54263 H 69.403804 Z"
         transform="matrix(1.3333333,0,0,-1.3333333,0,327.936)"
         id="path66" />
    </clipPath>
    <clipPath
       clipPathUnits="userSpaceOnUse"
       id="clipPath67">
      <path
         d="m -8.5,-8.5 h 17 v 17 h -17 z"
         id="path67" />
    </clipPath>
    <clipPath
       clipPathUnits="userSpaceOnUse"
       id="clipPath69">
      <path
         d="M 69.403804,68.025261 H 417.89574 V 223.54263 H 69.403804 Z"
         transform="matrix(1.3333333,0,0,-1.3333333,0,327.936)"
         id="path69" />
    </clipPath>
    <clipPath
       clipPathUnits="userSpaceOnUse"
       id="clipPath70">
      <path
         d="m -8.5,-8.5 h 17 v 17 h -17 z"
         id="path70" />
    </clipPath>
    <clipPath
       clipPathUnits="userSpaceOnUse"
       id="clipPath72">
      <path
         d="M 69.403804,68.025261 H 417.89574 V 223.54263 H 69.403804 Z"
         transform="matrix(1.3333333,0,0,-1.3333333,0,327.936)"
         id="path72" />
    </clipPath>
    <clipPath
       clipPathUnits="userSpaceOnUse"
       id="clipPath73">
      <path
         d="m -8.5,-8.5 h 17 v 17 h -17 z"
         transform="translate(-3.4329e-6)"
         id="path73" />
    </clipPath>
    <clipPath
       clipPathUnits="userSpaceOnUse"
       id="clipPath75">
      <path
         d="M 69.403804,68.025261 H 417.89574 V 223.54263 H 69.403804 Z"
         transform="matrix(1.3333333,0,0,-1.3333333,0,327.936)"
         id="path75" />
    </clipPath>
    <clipPath
       clipPathUnits="userSpaceOnUse"
       id="clipPath76">
      <path
         d="m -8.5,-8.5 h 17 v 17 h -17 z"
         transform="translate(-3.4076e-6)"
         id="path76" />
    </clipPath>
    <clipPath
       clipPathUnits="userSpaceOnUse"
       id="clipPath78">
      <path
         d="M 69.403804,68.025261 H 417.89574 V 223.54263 H 69.403804 Z"
         transform="matrix(1.3333333,0,0,-1.3333333,0,327.936)"
         id="path78" />
    </clipPath>
    <clipPath
       clipPathUnits="userSpaceOnUse"
       id="clipPath79">
      <path
         d="m -8.5,-8.5 h 17 v 17 h -17 z"
         id="path79" />
    </clipPath>
    <clipPath
       clipPathUnits="userSpaceOnUse"
       id="clipPath81">
      <path
         d="M 69.403804,68.025261 H 417.89574 V 223.54263 H 69.403804 Z"
         transform="matrix(1.3333333,0,0,-1.3333333,0,327.936)"
         id="path81" />
    </clipPath>
    <clipPath
       clipPathUnits="userSpaceOnUse"
       id="clipPath82">
      <path
         d="m -8.5,-8.5 h 17 v 17 h -17 z"
         id="path82" />
    </clipPath>
    <clipPath
       clipPathUnits="userSpaceOnUse"
       id="clipPath84">
      <path
         d="M 69.403804,68.025261 H 417.89574 V 223.54263 H 69.403804 Z"
         transform="matrix(1.3333333,0,0,-1.3333333,0,327.936)"
         id="path84" />
    </clipPath>
    <clipPath
       clipPathUnits="userSpaceOnUse"
       id="clipPath85">
      <path
         d="m -8.5,-8.5 h 17 v 17 h -17 z"
         id="path85" />
    </clipPath>
    <clipPath
       clipPathUnits="userSpaceOnUse"
       id="clipPath87">
      <path
         d="M 69.403804,68.025261 H 417.89574 V 223.54263 H 69.403804 Z"
         transform="matrix(1.3333333,0,0,-1.3333333,0,327.936)"
         id="path87" />
    </clipPath>
    <clipPath
       clipPathUnits="userSpaceOnUse"
       id="clipPath88">
      <path
         d="m -8.5,-8.5 h 17 v 17 h -17 z"
         id="path88" />
    </clipPath>
    <clipPath
       clipPathUnits="userSpaceOnUse"
       id="clipPath90">
      <path
         d="M 69.403804,68.025261 H 417.89574 V 223.54263 H 69.403804 Z"
         transform="matrix(1.3333333,0,0,-1.3333333,0,327.936)"
         id="path90" />
    </clipPath>
    <clipPath
       clipPathUnits="userSpaceOnUse"
       id="clipPath91">
      <path
         d="m -8.5,-8.5 h 17 v 17 h -17 z"
         id="path91" />
    </clipPath>
    <clipPath
       clipPathUnits="userSpaceOnUse"
       id="clipPath93">
      <path
         d="M 69.403804,68.025261 H 417.89574 V 223.54263 H 69.403804 Z"
         transform="matrix(1.3333333,0,0,-1.3333333,0,327.936)"
         id="path93" />
    </clipPath>
    <clipPath
       clipPathUnits="userSpaceOnUse"
       id="clipPath94">
      <path
         d="m -8.5,-8.5 h 17 v 17 h -17 z"
         id="path94" />
    </clipPath>
    <clipPath
       clipPathUnits="userSpaceOnUse"
       id="clipPath96">
      <path
         d="M 69.403804,68.025261 H 417.89574 V 223.54263 H 69.403804 Z"
         transform="matrix(1.3333333,0,0,-1.3333333,0,327.936)"
         id="path96" />
    </clipPath>
    <clipPath
       clipPathUnits="userSpaceOnUse"
       id="clipPath97">
      <path
         d="m -8.5,-8.5 h 17 v 17 h -17 z"
         transform="translate(-3.4676001e-6)"
         id="path97" />
    </clipPath>
    <clipPath
       clipPathUnits="userSpaceOnUse"
       id="clipPath99">
      <path
         d="M 69.403804,68.025261 H 417.89574 V 223.54263 H 69.403804 Z"
         transform="matrix(1.3333333,0,0,-1.3333333,0,327.936)"
         id="path99" />
    </clipPath>
    <clipPath
       clipPathUnits="userSpaceOnUse"
       id="clipPath100">
      <path
         d="m -8.5,-8.5 h 17 v 17 h -17 z"
         id="path100" />
    </clipPath>
    <clipPath
       clipPathUnits="userSpaceOnUse"
       id="clipPath102">
      <path
         d="M 69.403804,68.025261 H 417.89574 V 223.54263 H 69.403804 Z"
         transform="matrix(1.3333333,0,0,-1.3333333,0,327.936)"
         id="path102" />
    </clipPath>
    <clipPath
       clipPathUnits="userSpaceOnUse"
       id="clipPath103">
      <path
         d="m -8.5,-8.5 h 17 v 17 h -17 z"
         id="path103" />
    </clipPath>
    <clipPath
       clipPathUnits="userSpaceOnUse"
       id="clipPath105">
      <path
         d="M 69.403804,68.025261 H 417.89574 V 223.54263 H 69.403804 Z"
         transform="matrix(1.3333333,0,0,-1.3333333,0,327.936)"
         id="path105" />
    </clipPath>
    <clipPath
       clipPathUnits="userSpaceOnUse"
       id="clipPath106">
      <path
         d="m -8.5,-8.5 h 17 v 17 h -17 z"
         id="path106" />
    </clipPath>
    <clipPath
       clipPathUnits="userSpaceOnUse"
       id="clipPath108">
      <path
         d="M 69.403804,68.025261 H 417.89574 V 223.54263 H 69.403804 Z"
         transform="matrix(1.3333333,0,0,-1.3333333,0,327.936)"
         id="path108" />
    </clipPath>
    <clipPath
       clipPathUnits="userSpaceOnUse"
       id="clipPath109">
      <path
         d="m -8.5,-8.5 h 17 v 17 h -17 z"
         id="path109" />
    </clipPath>
    <clipPath
       clipPathUnits="userSpaceOnUse"
       id="clipPath111">
      <path
         d="M 69.403804,68.025261 H 417.89574 V 223.54263 H 69.403804 Z"
         transform="matrix(1.3333333,0,0,-1.3333333,0,327.936)"
         id="path111" />
    </clipPath>
    <clipPath
       clipPathUnits="userSpaceOnUse"
       id="clipPath112">
      <path
         d="m -8.5,-8.5 h 17 v 17 h -17 z"
         transform="translate(-3.4329e-6)"
         id="path112" />
    </clipPath>
    <clipPath
       clipPathUnits="userSpaceOnUse"
       id="clipPath114">
      <path
         d="M 69.403804,68.025261 H 417.89574 V 223.54263 H 69.403804 Z"
         transform="matrix(1.3333333,0,0,-1.3333333,0,327.936)"
         id="path114" />
    </clipPath>
    <clipPath
       clipPathUnits="userSpaceOnUse"
       id="clipPath115">
      <path
         d="m -8.5,-8.5 h 17 v 17 h -17 z"
         transform="translate(-3.4076e-6)"
         id="path115" />
    </clipPath>
    <clipPath
       clipPathUnits="userSpaceOnUse"
       id="clipPath117">
      <path
         d="M 69.403804,68.025261 H 417.89574 V 223.54263 H 69.403804 Z"
         transform="matrix(1.3333333,0,0,-1.3333333,0,327.936)"
         id="path117" />
    </clipPath>
    <clipPath
       clipPathUnits="userSpaceOnUse"
       id="clipPath118">
      <path
         d="m -8.5,-8.5 h 17 v 17 h -17 z"
         id="path118" />
    </clipPath>
    <clipPath
       clipPathUnits="userSpaceOnUse"
       id="clipPath120">
      <path
         d="M 69.403804,68.025261 H 417.89574 V 223.54263 H 69.403804 Z"
         transform="matrix(1.3333333,0,0,-1.3333333,0,327.936)"
         id="path120" />
    </clipPath>
    <clipPath
       clipPathUnits="userSpaceOnUse"
       id="clipPath121">
      <path
         d="m -8.5,-8.5 h 17 v 17 h -17 z"
         id="path121" />
    </clipPath>
    <clipPath
       clipPathUnits="userSpaceOnUse"
       id="clipPath123">
      <path
         d="M 69.403804,68.025261 H 417.89574 V 223.54263 H 69.403804 Z"
         transform="matrix(1.3333333,0,0,-1.3333333,0,327.936)"
         id="path123" />
    </clipPath>
    <clipPath
       clipPathUnits="userSpaceOnUse"
       id="clipPath124">
      <path
         d="m -8.5,-8.5 h 17 v 17 h -17 z"
         id="path124" />
    </clipPath>
    <clipPath
       clipPathUnits="userSpaceOnUse"
       id="clipPath126">
      <path
         d="M 69.403804,68.025261 H 417.89574 V 223.54263 H 69.403804 Z"
         transform="matrix(1.3333333,0,0,-1.3333333,0,327.936)"
         id="path126" />
    </clipPath>
    <clipPath
       clipPathUnits="userSpaceOnUse"
       id="clipPath127">
      <path
         d="m -8.5,-8.5 h 17 v 17 h -17 z"
         id="path127" />
    </clipPath>
    <clipPath
       clipPathUnits="userSpaceOnUse"
       id="clipPath129">
      <path
         d="M 69.403804,68.025261 H 417.89574 V 223.54263 H 69.403804 Z"
         transform="matrix(1.3333333,0,0,-1.3333333,0,327.936)"
         id="path129" />
    </clipPath>
  </defs>
  <sodipodi:namedview
     id="namedview1"
     pagecolor="#ffffff"
     bordercolor="#000000"
     borderopacity="0.25"
     inkscape:showpageshadow="2"
     inkscape:pageopacity="0.0"
     inkscape:pagecheckerboard="0"
     inkscape:deskcolor="#d1d1d1"
     inkscape:zoom="1.7228971"
     inkscape:cx="327.936"
     inkscape:cy="163.968"
     inkscape:window-width="1920"
     inkscape:window-height="1003"
     inkscape:window-x="0"
     inkscape:window-y="0"
     inkscape:window-maximized="1"
     inkscape:current-layer="g1">
    <inkscape:page
       x="0"
       y="0"
       inkscape:label="1"
       id="page1"
       width="655.87201"
       height="327.936"
       margin="0"
       bleed="0" />
  </sodipodi:namedview>
  <g
     id="g1"
     inkscape:groupmode="layer"
     inkscape:label="1">
    <path
       id="path1"
       d="M 0,0 H 491.904 V 245.952 H 0 Z"
       style="fill:#ffffff;fill-opacity:1;fill-rule:nonzero;stroke:none"
       transform="matrix(1.3333333,0,0,-1.3333333,0,327.936)" />
    <path
       id="path2"
       d="M 69.403804,68.025261 H 417.89574 V 223.54263 H 69.403804 Z"
       style="fill:#ffffff;fill-opacity:1;fill-rule:nonzero;stroke:none"
       transform="matrix(1.3333333,0,0,-1.3333333,0,327.936)" />
    <path
       id="path3"
       d="M -273.65537,-76.249891 V 218.06886 l 480.31266,-5.92429 20.65422,-2.4519 12.08194,-1.87951 8.57227,-1.58291 6.64918,-1.39318 5.43277,-1.25828 4.59334,-1.15595 3.97894,-1.07486 3.50966,-1.00854 3.13951,-0.95294 2.84003,-0.90548 2.59274,-0.86431 2.38509,-0.82818 2.20825,-0.7961 2.05583,-0.76738 1.9231,-0.74147 1.80648,-0.71793 1.70319,-0.69642 1.61108,-0.67667 1.52843,-0.65843 1.45383,-0.64154 1.3862,-0.62582 1.32456,-0.61116 1.26818,-0.59742 1.2164,-0.58453 1.16869,-0.57239 1.12458,-0.56094 1.08367,-0.55011 1.04564,-0.53984 1.01019,-0.53009 0.97706,-0.52083 0.94604,-0.51199 0.91693,-0.50357 0.88955,-0.49551 0.86376,-0.4878 0.83943,-0.48042 0.81643,-0.47334 0.79465,-0.46652 0.77401,-0.45999 0.75442,-0.45369 0.73578,-0.44762 0.71805,-0.44177 0.70116,-0.43612 0.68504,-0.43067 0.66964,-0.42539 0.65492,-0.42029 0.64084,-0.41534 0.62734,-0.41056 0.61441,-0.40591 0.60199,-0.40142 0.59007,-0.39703 0.57862,-0.39279 0.56759,-0.38866 0.55699,-0.38465 0.54676,-0.38073 0.53691,-0.37694 0.52741,-0.37323 0.51823,-0.36962 0.50938,-0.3661 0.50081,-0.36266 0.49254,-0.35932 0.48452,-0.35605 0.47678,-0.35286 0.46926,-0.34973 0.46199,-0.34669 0.45494,-0.34371 0.4481,-0.34079 0.44145,-0.33795 0.43501,-0.33515 0.42875,-0.33242 0.42267,-0.32975 0.41676,-0.32713 0.41101,-0.32456 0.40542,-0.32204 0.39998,-0.31958 0.39467,-0.31716 0.38952,-0.31478 0.38449,-0.31246 0.3796,-0.31017 0.37482,-0.30793 0.37016,-0.30573 0.36562,-0.30357 0.36119,-0.30144 0.35686,-0.29935 0.35264,-0.29731 0.34852,-0.29528 0.34449,-0.2933 0.34055,-0.29136 0.3367,-0.28944 0.33294,-0.28755 0.32926,-0.28569 0.32566,-0.28387 0.32214,-0.28208 0.31869,-0.2803 0.31533,-0.27856 0.31202,-0.27685 0.30879,-0.27515 0.30562,-0.27349 0.30251,-0.27186 0.29948,-0.27023 0.2965,-0.26865 0.29357,-0.26707 0.29072,-0.26553 0.2879,-0.264 0.28515,-0.2625 0.28244,-0.26101 0.2798,-0.25955 0.27719,-0.25811 0.27463,-0.25668 0.27213,-0.25528 0.26966,-0.25389 0.26725,-0.25252 0.26487,-0.25117 0.26254,-0.24984 0.26024,-0.24852 0.25799,-0.24722 0.25578,-0.24593 0.2536,-0.24467 0.25146,-0.24342 0.24935,-0.24217 0.24729,-0.24096 0.24525,-0.23975 0.24325,-0.23855 0.24127,-0.23738 0.23934,-0.23621 0.23744,-0.23505 0.23555,-0.23392 0.23371,-0.23279 0.23189,-0.23168 0.2301,-0.23058 0.22834,-0.22949 0.2266,-0.22841 0.22489,-0.22735 0.22321,-0.2263 0.22154,-0.22525 0.21991,-0.22422 0.2183,-0.22321 0.21671,-0.22219 0.21515,-0.2212 0.2136,-0.22021 0.21209,-0.21923 0.21058,-0.21826 0.20911,-0.21731 0.20765,-0.21635 0.20622,-0.21542 0.20479,-0.21449 0.2034,-0.21357 0.20202,-0.21266 0.20066,-0.21176 0.19932,-0.21086 0.19799,-0.20998 0.19668,-0.20911 0.1954,-0.20823 0.19412,-0.20738 0.19287,-0.20652 0.19162,-0.20568 0.19041,-0.20485 0.18919,-0.20402 0.188,-0.2032 0.18682,-0.20238 0.18565,-0.20158 0.18451,-0.20078 0.18337,-0.19999 0.18225,-0.19921 0.18114,-0.19843 0.18005,-0.19766 0.17897,-0.19689 0.17789,-0.19614 0.17685,-0.19539 0.17579,-0.19464 0.17477,-0.19391 0.17375,-0.19317 0.17274,-0.19245 0.17175,-0.19173 0.17076,-0.19102 0.16979,-0.19031 0.16882,-0.18961 0.16788,-0.18891 0.16693,-0.18823 0.16601,-0.18753 0.16508,-0.18687 0.16418,-0.18618 0.16327,-0.18552 0.16239,-0.18486 0.1615,-0.1842 0.16064,-0.18354 0.15977,-0.1829 0.15892,-0.18226 0.15808,-0.18162 0.15725,-0.18099 0.15642,-0.18036 0.1556,-0.17974 0.15479,-0.17912 0.154,-0.17851 0.1532,-0.1779 0.15242,-0.17729 0.15164,-0.17669 0.15087,-0.1761 0.15012,-0.17551 0.14936,-0.17492 0.14862,-0.17434 0.14788,-0.17376 0.14715,-0.17319 0.14642,-0.17262 0.14572,-0.17205 0.145,-0.1715 0.1443,-0.17093 0.1436,-0.17038 0.14292,-0.16983 0.14223,-0.16928 0.14156,-0.16874 0.14088,-0.16821 0.14023,-0.16766 0.13957,-0.16714 0.13891,-0.16661 0.13828,-0.16609 0.13763,-0.16556 0.137,-0.16505 0.13638,-0.16454 0.13575,-0.16402 0.13514,-0.16352 0.13452,-0.16302 0.13393,-0.16251 0.13332,-0.16202 0.13273,-0.16153 0.13214,-0.16103 0.13156,-0.16055 0.13098,-0.16007 0.1304,-0.15958 0.12984,-0.15911 0.12928,-0.15863 0.12871,-0.15816 0.12816,-0.15769 0.12762,-0.15723 0.12707,-0.15676 0.12653,-0.1563 0.12599,-0.15585 0.12547,-0.15539 0.12494,-0.15494 0.12441,-0.15449 0.1239,-0.15405 0.12339,-0.1536 0.12287,-0.15316 0.12238,-0.15273 0.12187,-0.15229 0.12138,-0.15185 0.12088,-0.15143 0.12039,-0.151 0.11991,-0.15057 0.11943,-0.15015 0.11896,-0.14973 0.11848,-0.14932 0.11801,-0.1489 0.11754,-0.14848 0.11709,-0.14808 0.11662,-0.14767 0.11617,-0.14726 0.11572,-0.14686 0.11528,-0.14646 0.11482,-0.14606 0.11439,-0.14566 0.11395,-0.14527 0.11352,-0.14488 0.11308,-0.14449 0.11266,-0.1441 0.11223,-0.14372 0.11181,-0.14333 0.11139,-0.14295 0.11098,-0.14257 0.11057,-0.1422 0.11016,-0.14182 0.10975,-0.14144 0.10935,-0.14108 0.10895,-0.14071 0.10855,-0.14034 0.10816,-0.13997 0.10777,-0.13962 0.10738,-0.13925 0.10699,-0.13889 0.10661,-0.13854 0.10623,-0.13818 0.10586,-0.13783 0.10548,-0.13747 0.1051,-0.13713 0.10474,-0.13678 0.10437,-0.13643 0.10401,-0.13608 0.10364,-0.13575 0.10329,-0.13541 0.10293,-0.13506 0.10257,-0.13473 0.10222,-0.13439 0.10187,-0.13406 0.10153,-0.13373 0.10118,-0.13339 0.10084,-0.13307 0.1005,-0.13274 0.10016,-0.13242 0.0998,-0.13209 0.0995,-0.13177 0.0992,-0.13145 0.0988,-0.13113 0.0985,-0.13081 0.0982,-0.13049 0.0979,-0.13018 0.0975,-0.12987 0.0972,-0.12956 0.0969,-0.12925 0.0966,-0.12894 0.0963,-0.12863 0.096,-0.12833 0.0956,-0.12802 0.0954,-0.12772 0.095,-0.12742 0.0947,-0.12712 0.0944,-0.12682 0.0942,-0.12653 0.0939,-0.12623 0.0935,-0.12593 0.0933,-0.12564 0.093,-0.12536 0.0927,-0.12506 0.0924,-0.12477 0.0921,-0.12449 0.0918,-0.1242 0.0915,-0.12391 0.0913,-0.12364 0.091,-0.12335 0.0907,-0.12307 0.0904,-0.12279 0.0902,-0.12251 0.0899,-0.12223 0.0896,-0.12196 0.0894,-0.12169 0.0891,-0.12141 0.0888,-0.12114 0.0886,-0.12087 0.0883,-0.1206 0.088,-0.12033 0.0878,-0.12007 0.0875,-0.1198 0.0872,-0.11953 0.087,-0.11927 0.0867,-0.11901 0.0865,-0.11875 0.0862,-0.11848 0.086,-0.11823 0.0857,-0.11797 0.0855,-0.11771 0.0853,-0.11746 0.085,-0.1172 0.0848,-0.11695 0.0845,-0.1167 0.0843,-0.11644 0.0841,-0.1162 0.0838,-0.11594 0.0836,-0.1157 0.0833,-0.11545 0.0831,-0.11521 0.0829,-0.11496 0.0827,-0.11471 0.0824,-0.11447 0.0822,-0.11423 0.082,-0.11399 0.0817,-0.11375 0.0815,-0.11351 0.0813,-0.11328 0.0811,-0.11303 0.0809,-0.1128 0.0806,-0.11257 0.0804,-0.11233 0.0802,-0.11209 0.08,-0.11187 0.0798,-0.11163 0.0796,-0.11141 0.0794,-0.11117 0.0791,-0.11095 0.0789,-0.11071 0.0787,-0.1105 0.0785,-0.11026 0.0783,-0.11004 0.0781,-0.10982 0.0779,-0.10959 0.0777,-0.10938 0.0775,-0.10915 0.0773,-0.10893 0.0771,-0.10871 0.0769,-0.10849 0.0767,-0.10827 0.0765,-0.10806 0.0763,-0.10784 0.0761,-0.10763 0.0759,-0.10741 0.0757,-0.1072 0.0755,-0.10698 0.0753,-0.10678 0.0752,-0.10656 0.075,-0.10635 0.0748,-0.10614 0.0746,-0.10593 0.0744,-0.10573 0.0742,-0.10552 0.074,-0.10531 0.0738,-0.10511 0.0737,-0.1049 0.0735,-0.1047 0.0733,-0.10449 0.0731,-0.10429 0.0729,-0.10409 0.0728,-0.10389 0.0726,-0.10369 0.0724,-0.10349 0.0722,-0.10329 0.0721,-0.10309 0.0719,-0.1029 0.0717,-0.1027 0.0715,-0.1025 0.0714,-0.10231 0.0712,-0.10211 0.071,-0.10192 0.0709,-0.10173 0.0707,-0.10153 0.0705,-0.10134 0.0704,-0.10116 0.0702,-0.10096 0.07,-0.10077 0.0699,-0.10058 0.0697,-0.1004 0.0695,-0.10021 0.0694,-0.10002 0.0692,-0.0998 0.0691,-0.0996 0.0689,-0.0995 0.0687,-0.0993 0.0686,-0.0991 0.0684,-0.0989 0.0683,-0.0987 0.0681,-0.0986 0.0679,-0.0984 0.0678,-0.0982 0.0676,-0.098 0.0675,-0.0978 0.0673,-0.0977 0.0672,-0.0975 0.067,-0.0973 0.0669,-0.0971 0.0667,-0.0969 0.0666,-0.0968 0.0664,-0.0966 0.0663,-0.0964 0.0661,-0.0962 0.066,-0.0961 0.0658,-0.0959 0.0657,-0.0957 0.0656,-0.0956 0.0654,-0.0954 0.0653,-0.0952 0.0651,-0.0951 0.065,-0.0949 0.0648,-0.0947 0.0647,-0.0945 0.0646,-0.0944 0.0644,-0.0942 0.0643,-0.094 0.0642,-0.0939 0.064,-0.0937 0.0639,-0.0936 0.0637,-0.0934 0.0636,-0.0932 0.0635,-0.0931 0.0633,-0.0929 0.0632,-0.0927 0.0631,-0.0926 0.0629,-0.0924 0.0628,-0.0922 0.0627,-0.0921 0.0625,-0.0919 0.0624,-0.0918 0.0623,-0.0916 0.0621,-0.0915 0.062,-0.0913 0.0619,-0.0911 0.0618,-0.091 0.0616,-0.0908 0.0615,-0.0907 0.0614,-0.0905 0.0612,-0.0904 0.0611,-0.0902 0.061,-0.0901 0.0609,-0.0899 0.0608,-0.0898 0.0606,-0.0896 0.0605,-0.0895 0.0604,-0.0893 0.0603,-0.0892 0.0601,-0.089 0.06,-0.0889 0.0599,-0.0887 0.0598,-0.0886 0.0596,-0.0884 0.0595,-0.0883 0.0594,-0.0881 0.0593,-0.088 0.0592,-0.0878 0.0591,-0.0877 0.0589,-0.0875 0.0588,-0.0874 0.0587,-0.0872 0.0586,-0.0871 0.0585,-0.087 0.0584,-0.0868 0.0582,-0.0867 0.0582,-0.0865 0.058,-0.0864 0.0579,-0.0863 0.0578,-0.0861 0.0577,-0.086 0.0576,-0.0858 0.0575,-0.0857 0.0573,-0.0856 0.0573,-0.0854 0.0571,-0.0853 0.057,-0.0851 0.0569,-0.085 0.0568,-0.0849 0.0567,-0.0847 0.0566,-0.0846 0.0565,-0.0845 0.0564,-0.0843 0.0563,-0.0842 0.0562,-0.0841 0.0561,-0.08392 0.056,-0.08379 0.0558,-0.08365 0.0558,-0.08352 0.0556,-0.08339 0.0555,-0.08326 0.0554,-0.08312 0.0553,-0.08299 0.0552,-0.08286 0.0551,-0.08273 0.055,-0.0826 0.0549,-0.08247 0.0548,-0.08234 0.0547,-0.08221 0.0546,-0.08209 0.0545,-0.08196 0.0544,-0.08183 0.0543,-0.0817 0.0542,-0.08158 0.0541,-0.08145 0.054,-0.08132 0.0539,-0.0812 0.0538,-0.08107 0.0537,-0.08094 0.0536,-0.08082 0.0535,-0.0807 0.0534,-0.08057 0.0534,-0.08045 0.0533,-0.08033 0.0532,-0.0802 0.0531,-0.08008 0.053,-0.07996 0.0529,-0.07983 0.0528,-0.07971 0.0527,-0.07959 0.0526,-0.07947 0.0525,-0.07935 0.0524,-0.07923 0.0523,-0.07911 0.0522,-0.07899 0.0521,-0.07887 0.0521,-0.07875 0.052,-0.07863 0.0519,-0.07851 0.0518,-0.0784 0.0517,-0.07828 0.0516,-0.07816 0.0515,-0.07804 0.0514,-0.07793 0.0513,-0.07781 0.0512,-0.07769 0.0512,-0.07758 0.0511,-0.07746 0.051,-0.07735 0.0509,-0.07723 0.0508,-0.07712 0.0507,-0.077 0.0506,-0.07689 0.0505,-0.07678 0.0505,-0.07666 0.0504,-0.07655 0.0503,-0.07644 0.0502,-0.07632 0.0501,-0.07621 0.05,-0.0761 0.0499,-0.07599 0.0499,-0.07588 0.0498,-0.07577 0.0497,-0.07566 0.0496,-0.07555 0.0495,-0.07544 0.0494,-0.07533 0.0494,-0.07522 0.0493,-0.07511 0.0492,-0.075 0.0491,-0.07489 0.0491,-0.07478 0.049,-0.07467 0.0489,-0.07457 0.0488,-0.07446 0.0487,-0.07435 0.0487,-0.07425 0.0486,-0.07414 0.0485,-0.07403 0.0484,-0.07393 0.0483,-0.07382 0.0483,-0.07371 0.0482,-0.07361 0.0481,-0.07351 0.048,-0.0734 0.048,-0.0733 0.0479,-0.07319 0.0478,-0.07309 0.0477,-0.07299 0.0476,-0.07288 0.0476,-0.07278 0.0475,-0.07268 0.0474,-0.07257 0.0473,-0.07247 0.0473,-0.07237 0.0472,-0.07227 0.0471,-0.07217 0.047,-0.07206 0.047,-0.07197 0.0469,-0.07186 0.0468,-0.07176 0.0467,-0.07166 0.0467,-0.07156 0.0466,-0.07146 0.0465,-0.07137 0.0465,-0.07126 0.0464,-0.07117 0.0463,-0.07107 0.0462,-0.07097 0.0462,-0.07087 0.0461,-0.07077 0.046,-0.07068 0.046,-0.07058 0.0459,-0.07048 0.0458,-0.07038 0.0457,-0.07029 0.0457,-0.07019 0.0456,-0.07009 0.0455,-0.07 0.0455,-0.0699 0.0454,-0.06981 0.0453,-0.06971 0.0452,-0.06962 0.0452,-0.06952 0.0451,-0.06943 0.045,-0.06933 0.045,-0.06924 0.0449,-0.06915 0.0448,-0.06905 0.0448,-0.06896 0.0447,-0.06887 0.0446,-0.06877 0.0446,-0.06868 0.0445,-0.06859 0.0444,-0.0685 0.0444,-0.0684 0.0443,-0.06831 0.0442,-0.06822 0.0442,-0.06813 0.0441,-0.06804 0.044,-0.06795 0.044,-0.06786 0.0439,-0.06777 0.0438,-0.06768 0.0438,-0.06759 0.0437,-0.0675 0.0437,-0.06741 0.0436,-0.06732 0.0435,-0.06723 0.0435,-0.06714 0.0434,-0.06705 0.0433,-0.06696 0.0433,-0.06687 0.0432,-0.06679 0.0432,-0.0667 0.0431,-0.06661 0.043,-0.06652 0.043,-0.06643 0.0429,-0.06635 0.0428,-0.06626 0.0428,-0.06618 0.0427,-0.06609 0.0427,-0.066 0.0426,-0.06592 0.0425,-0.06583 0.0425,-0.06574 0.0424,-0.06566 0.0424,-0.06557 0.0423,-0.06549 0.0422,-0.0654 0.0422,-0.06532 0.0421,-0.06524 0.0421,-0.06515 0.042,-0.06507 0.0419,-0.06498 0.0419,-0.0649 0.0418,-0.06482 0.0418,-0.06473 0.0417,-0.06465 0.0416,-0.06457 0.0416,-0.06449 0.0415,-0.0644 0.0415,-0.06432 0.0414,-0.06424 0.0413,-0.06415 0.0413,-0.06407 0.0412,-0.06399 0.0412,-0.06391 0.0411,-0.06383 0.0411,-0.06375 0.041,-0.06367 0.041,-0.06359 0.0409,-0.06351 0.0408,-0.06343 0.0408,-0.06335 0.0407,-0.06327 0.0407,-0.06319 0.0406,-0.06311 0.0406,-0.06303 0.0405,-0.06295 0.0405,-0.06287 0.0404,-0.06279 0.0403,-0.06271 0.0403,-0.06263 0.0402,-0.06256 0.0402,-0.06248 0.0401,-0.0624 0.0401,-0.06232 0.04,-0.06224 0.04,-0.06217 0.0399,-0.06209 0.0399,-0.06201 0.0398,-0.06194 0.0398,-0.06186 0.0397,-0.06178 0.0396,-0.06171 0.0396,-0.06163 0.0395,-0.06155 0.0395,-0.06148 0.0394,-0.0614 0.0394,-0.06133 0.0393,-0.06125 0.0393,-0.06118 0.0392,-0.0611 0.0392,-0.06103 0.0391,-0.06095 0.0391,-0.06088 0.039,-0.0608 0.039,-0.06073 0.0389,-0.06065 0.0389,-0.06058 0.0388,-0.06051 0.0388,-0.06043 0.0387,-0.06036 0.0387,-0.06029 0.0386,-0.06021 0.0386,-0.06014 0.0385,-0.06007 0.0385,-0.05999 0.0384,-0.05992 0.0384,-0.05985 0.0383,-0.05978 0.0383,-0.0597 0.0382,-0.05963 0.0382,-0.05956 0.0381,-0.05949 0.0381,-0.05942 0.038,-0.05935 0.038,-0.05928 0.0379,-0.05921 0.0379,-0.05913 0.0378,-0.05907 0.0378,-0.05899 0.0377,-0.05892 0.0377,-0.05885 0.0376,-0.05878 0.0376,-0.05871 0.0376,-0.05864 0.0375,-0.05857 0.0375,-0.0585 0.0374,-0.05844 0.0374,-0.05837 0.0373,-0.0583 0.0373,-0.05823 0.0372,-0.05816 0.0372,-0.05809 0.0371,-0.05802 0.0371,-0.05795 0.037,-0.05789 0.037,-0.05782 0.0369,-0.05775 0.0369,-0.05768 0.0369,-0.05761 0.0368,-0.05755 0.0368,-0.05748 0.0367,-0.05741 0.0367,-0.05735 0.0366,-0.05728 0.0366,-0.05721 0.0365,-0.05715 0.0365,-0.05708 0.0364,-0.05701 0.0364,-0.05695 0.0364,-0.05688 0.0363,-0.05682 0.0363,-0.05675 0.0362,-0.05668 0.0362,-0.05662 0.0361,-0.05655 0.0361,-0.05649 0.0361,-0.05642 0.036,-0.05636 0.036,-0.05629 0.0359,-0.05623 0.0359,-0.05616 0.0358,-0.0561 0.0358,-0.05603 0.0358,-0.05597 0.0357,-0.05591 0.0357,-0.05584 0.0356,-0.05578 0.0356,-0.05572 0.0355,-0.05565 0.0355,-0.05559 0.0354,-0.05553 0.0354,-0.05546 0.0354,-0.0554 0.0353,-0.05533 0.0353,-0.05527 0.0352,-0.05521 0.0352,-0.05515 0.0352,-0.05509 0.0351,-0.05502 0.0351,-0.05496 0.035,-0.0549 0.035,-0.05484 0.0349,-0.05477 0.0349,-0.05471 0.0349,-0.05465 0.0348,-0.05459 0.0348,-0.05453 0.0348,-0.05447 0.0347,-0.05441 0.0347,-0.05435 0.0346,-0.05428 0.0346,-0.05422 0.0346,-0.05416 0.0345,-0.0541 0.0345,-0.05404 0.0344,-0.05398 0.0344,-0.05392 0.0344,-0.05386 0.0343,-0.0538 0.0343,-0.05374 0.0342,-0.05368 0.0342,-0.05362 0.0342,-0.05357 0.0341,-0.05351 0.0341,-0.05345 0.034,-0.05339 0.034,-0.05333 0.034,-0.05327 0.0339,-0.05321 0.0339,-0.05315 0.0338,-0.05309 0.0338,-0.05304 0.0338,-0.05298 0.0337,-0.05292 0.0337,-0.05286 0.0337,-0.0528 0.0336,-0.05275 0.0336,-0.05269 0.0335,-0.05263 0.0335,-0.05257 0.0335,-0.05252 0.0334,-0.05246 0.0334,-0.0524 0.0333,-0.05234 0.0333,-0.05229 0.0333,-0.05223 0.0332,-0.05217 0.0332,-0.05212 0.0332,-0.05206 0.0331,-0.052 0.0331,-0.05195 0.0331,-0.05189 0.033,-0.05184 0.033,-0.05178 0.0329,-0.05172 0.0329,-0.05167 0.0329,-0.05161 0.0328,-0.05156 0.0328,-0.0515 0.0328,-0.05145 0.0327,-0.05139 0.0327,-0.05134 0.0327,-0.05128 0.0326,-0.05123 0.0326,-0.05117 0.0325,-0.05112 0.0325,-0.05106 0.0325,-0.05101 0.0324,-0.05096 0.0324,-0.0509 0.0324,-0.05085 0.0323,-0.05079 0.0323,-0.05074 0.0323,-0.05068 0.0322,-0.05063 0.0322,-0.05058 0.0322,-0.05052 0.0321,-0.05047 0.0321,-0.05042 0.0321,-0.05036 0.032,-0.05031 0.032,-0.05026 0.032,-0.0502 0.0319,-0.05015 0.0319,-0.0501 0.0319,-0.05005 0.0318,-0.04999 0.0318,-0.04994 0.0317,-0.04989 0.0317,-0.04984 0.0317,-0.04978 0.0317,-0.04973 0.0316,-0.04968 0.0316,-0.04963 0.0315,-0.04958 0.0315,-0.04952 0.0315,-0.04947 0.0315,-0.04942 0.0314,-0.04937 0.0314,-0.04932 0.0313,-0.04927 0.0313,-0.04922 0.0313,-0.04916 0.0312,-0.04911 0.0312,-0.04906 0.0312,-0.04901 0.0311,-0.04896 0.0311,-0.04891 0.0311,-0.04886 0.031,-0.04881 0.031,-0.04876 0.031,-0.04871 0.031,-0.04866 0.0309,-0.04861 0.0309,-0.04856 0.0309,-0.04851 0.0308,-0.04846 0.0308,-0.04841 0.0308,-0.04836 0.0307,-0.04831 0.0307,-0.04826 0.0307,-0.04821 0.0306,-0.04816 0.0306,-0.04811 0.0306,-0.04807 0.0306,-0.04802 0.0305,-0.04797 0.0305,-0.04792 0.0304,-0.04787 0.0304,-0.04782 0.0304,-0.04777 0.0304,-0.04772 0.0303,-0.04768 0.0303,-0.04763 0.0303,-0.04758 0.0302,-0.04753 0.0302,-0.04748 0.0302,-0.04743 0.0301,-0.04739 0.0301,-0.04734 0.0301,-0.04729 0.0301,-0.04724 0.03,-0.0472 0.03,-0.04715 0.03,-0.0471 0.0299,-0.04705 0.0299,-0.04701 0.0299,-0.04696 0.0298,-0.04691 v -147.160311 0 h -0.0298 -0.0299 -0.0299 -0.0299 -0.03 -0.03 -0.03 -0.0301 -0.0301 -0.0301 -0.0301 -0.0302 -0.0302 -0.0302 -0.0303 -0.0303 -0.0303 -0.0304 -0.0304 -0.0304 -0.0304 -0.0305 -0.0305 -0.0306 -0.0306 -0.0306 -0.0306 -0.0307 -0.0307 -0.0307 -0.0308 -0.0308 -0.0308 -0.0309 -0.0309 -0.0309 -0.031 -0.031 -0.031 -0.031 -0.0311 -0.0311 -0.0311 -0.0312 -0.0312 -0.0312 -0.0313 -0.0313 -0.0313 -0.0314 -0.0314 -0.0315 -0.0315 -0.0315 -0.0315 -0.0316 -0.0316 -0.0317 -0.0317 -0.0317 -0.0317 -0.0318 -0.0318 -0.0319 -0.0319 -0.0319 -0.032 -0.032 -0.032 -0.0321 -0.0321 -0.0321 -0.0322 -0.0322 -0.0322 -0.0323 -0.0323 -0.0323 -0.0324 -0.0324 -0.0324 -0.0325 -0.0325 -0.0325 -0.0326 -0.0326 -0.0327 -0.0327 -0.0327 -0.0328 -0.0328 -0.0328 -0.0329 -0.0329 -0.0329 -0.033 -0.033 -0.0331 -0.0331 -0.0331 -0.0332 -0.0332 -0.0332 -0.0333 -0.0333 -0.0333 -0.0334 -0.0334 -0.0335 -0.0335 -0.0335 -0.0336 -0.0336 -0.0337 -0.0337 -0.0337 -0.0338 -0.0338 -0.0338 -0.0339 -0.0339 -0.034 -0.034 -0.034 -0.0341 -0.0341 -0.0342 -0.0342 -0.0342 -0.0343 -0.0343 -0.0344 -0.0344 -0.0344 -0.0345 -0.0345 -0.0346 -0.0346 -0.0346 -0.0347 -0.0347 -0.0348 -0.0348 -0.0348 -0.0349 -0.0349 -0.0349 -0.035 -0.035 -0.0351 -0.0351 -0.0352 -0.0352 -0.0352 -0.0353 -0.0353 -0.0354 -0.0354 -0.0354 -0.0355 -0.0355 -0.0356 -0.0356 -0.0357 -0.0357 -0.0358 -0.0358 -0.0358 -0.0359 -0.0359 -0.036 -0.036 -0.0361 -0.0361 -0.0361 -0.0362 -0.0362 -0.0363 -0.0363 -0.0364 -0.0364 -0.0364 -0.0365 -0.0365 -0.0366 -0.0366 -0.0367 -0.0367 -0.0368 -0.0368 -0.0369 -0.0369 -0.0369 -0.037 -0.037 -0.0371 -0.0371 -0.0372 -0.0372 -0.0373 -0.0373 -0.0374 -0.0374 -0.0375 -0.0375 -0.0376 -0.0376 -0.0376 -0.0377 -0.0377 -0.0378 -0.0378 -0.0379 -0.0379 -0.038 -0.038 -0.0381 -0.0381 -0.0382 -0.0382 -0.0383 -0.0383 -0.0384 -0.0384 -0.0385 -0.0385 -0.0386 -0.0386 -0.0387 -0.0387 -0.0388 -0.0388 -0.0389 -0.0389 -0.039 -0.039 -0.0391 -0.0391 -0.0392 -0.0392 -0.0393 -0.0393 -0.0394 -0.0394 -0.0395 -0.0395 -0.0396 -0.0396 -0.0397 -0.0398 -0.0398 -0.0399 -0.0399 -0.04 -0.04 -0.0401 -0.0401 -0.0402 -0.0402 -0.0403 -0.0403 -0.0404 -0.0405 -0.0405 -0.0406 -0.0406 -0.0407 -0.0407 -0.0408 -0.0408 -0.0409 -0.041 -0.041 -0.0411 -0.0411 -0.0412 -0.0412 -0.0413 -0.0413 -0.0414 -0.0415 -0.0415 -0.0416 -0.0416 -0.0417 -0.0418 -0.0418 -0.0419 -0.0419 -0.042 -0.0421 -0.0421 -0.0422 -0.0422 -0.0423 -0.0424 -0.0424 -0.0425 -0.0425 -0.0426 -0.0427 -0.0427 -0.0428 -0.0428 -0.0429 -0.043 -0.043 -0.0431 -0.0432 -0.0432 -0.0433 -0.0433 -0.0434 -0.0435 -0.0435 -0.0436 -0.0437 -0.0437 -0.0438 -0.0438 -0.0439 -0.044 -0.044 -0.0441 -0.0442 -0.0442 -0.0443 -0.0444 -0.0444 -0.0445 -0.0446 -0.0446 -0.0447 -0.0448 -0.0448 -0.0449 -0.045 -0.045 -0.0451 -0.0452 -0.0452 -0.0453 -0.0454 -0.0455 -0.0455 -0.0456 -0.0457 -0.0457 -0.0458 -0.0459 -0.046 -0.046 -0.0461 -0.0462 -0.0462 -0.0463 -0.0464 -0.0465 -0.0465 -0.0466 -0.0467 -0.0467 -0.0468 -0.0469 -0.047 -0.047 -0.0471 -0.0472 -0.0473 -0.0473 -0.0474 -0.0475 -0.0476 -0.0476 -0.0477 -0.0478 -0.0479 -0.048 -0.048 -0.0481 -0.0482 -0.0483 -0.0483 -0.0484 -0.0485 -0.0486 -0.0487 -0.0487 -0.0488 -0.0489 -0.049 -0.0491 -0.0491 -0.0492 -0.0493 -0.0494 -0.0494 -0.0495 -0.0496 -0.0497 -0.0498 -0.0499 -0.0499 -0.05 -0.0501 -0.0502 -0.0503 -0.0504 -0.0505 -0.0505 -0.0506 -0.0507 -0.0508 -0.0509 -0.051 -0.0511 -0.0512 -0.0512 -0.0513 -0.0514 -0.0515 -0.0516 -0.0517 -0.0518 -0.0519 -0.052 -0.0521 -0.0521 -0.0522 -0.0523 -0.0524 -0.0525 -0.0526 -0.0527 -0.0528 -0.0529 -0.053 -0.0531 -0.0532 -0.0533 -0.0534 -0.0534 -0.0535 -0.0536 -0.0537 -0.0538 -0.0539 -0.054 -0.0541 -0.0542 -0.0543 -0.0544 -0.0545 -0.0546 -0.0547 -0.0548 -0.0549 -0.055 -0.0551 -0.0552 -0.0553 -0.0554 -0.0555 -0.0556 -0.0558 -0.0558 -0.056 -0.0561 -0.0562 -0.0563 -0.0564 -0.0565 -0.0566 -0.0567 -0.0568 -0.0569 -0.057 -0.0571 -0.0573 -0.0573 -0.0575 -0.0576 -0.0577 -0.0578 -0.0579 -0.058 -0.0582 -0.0582 -0.0584 -0.0585 -0.0586 -0.0587 -0.0588 -0.0589 -0.0591 -0.0592 -0.0593 -0.0594 -0.0595 -0.0596 -0.0598 -0.0599 -0.06 -0.0601 -0.0603 -0.0604 -0.0605 -0.0606 -0.0608 -0.0609 -0.061 -0.0611 -0.0612 -0.0614 -0.0615 -0.0616 -0.0618 -0.0619 -0.062 -0.0621 -0.0623 -0.0624 -0.0625 -0.0627 -0.0628 -0.0629 -0.0631 -0.0632 -0.0633 -0.0635 -0.0636 -0.0637 -0.0639 -0.064 -0.0642 -0.0643 -0.0644 -0.0646 -0.0647 -0.0648 -0.065 -0.0651 -0.0653 -0.0654 -0.0656 -0.0657 -0.0658 -0.066 -0.0661 -0.0663 -0.0664 -0.0666 -0.0667 -0.0669 -0.067 -0.0672 -0.0673 -0.0675 -0.0676 -0.0678 -0.0679 -0.0681 -0.0683 -0.0684 -0.0686 -0.0687 -0.0689 -0.0691 -0.0692 -0.0694 -0.0695 -0.0697 -0.0699 -0.07 -0.0702 -0.0704 -0.0705 -0.0707 -0.0709 -0.071 -0.0712 -0.0714 -0.0715 -0.0717 -0.0719 -0.0721 -0.0722 -0.0724 -0.0726 -0.0728 -0.0729 -0.0731 -0.0733 -0.0735 -0.0737 -0.0738 -0.074 -0.0742 -0.0744 -0.0746 -0.0748 -0.075 -0.0752 -0.0753 -0.0755 -0.0757 -0.0759 -0.0761 -0.0763 -0.0765 -0.0767 -0.0769 -0.0771 -0.0773 -0.0775 -0.0777 -0.0779 -0.0781 -0.0783 -0.0785 -0.0787 -0.0789 -0.0791 -0.0794 -0.0796 -0.0798 -0.08 -0.0802 -0.0804 -0.0806 -0.0809 -0.0811 -0.0813 -0.0815 -0.0817 -0.082 -0.0822 -0.0824 -0.0827 -0.0829 -0.0831 -0.0833 -0.0836 -0.0838 -0.0841 -0.0843 -0.0845 -0.0848 -0.085 -0.0853 -0.0855 -0.0857 -0.086 -0.0862 -0.0865 -0.0867 -0.087 -0.0872 -0.0875 -0.0878 -0.088 -0.0883 -0.0886 -0.0888 -0.0891 -0.0894 -0.0896 -0.0899 -0.0902 -0.0904 -0.0907 -0.091 -0.0913 -0.0915 -0.0918 -0.0921 -0.0924 -0.0927 -0.093 -0.0933 -0.0935 -0.0939 -0.0942 -0.0944 -0.0947 -0.095 -0.0954 -0.0956 -0.096 -0.0963 -0.0966 -0.0969 -0.0972 -0.0975 -0.0979 -0.0982 -0.0985 -0.0988 -0.0992 -0.0995 -0.0998 -0.10016 -0.1005 -0.10084 -0.10118 -0.10153 -0.10187 -0.10222 -0.10257 -0.10293 -0.10329 -0.10364 -0.10401 -0.10437 -0.10474 -0.1051 -0.10548 -0.10586 -0.10623 -0.10661 -0.10699 -0.10738 -0.10777 -0.10816 -0.10855 -0.10895 -0.10935 -0.10975 -0.11016 -0.11057 -0.11098 -0.11139 -0.11181 -0.11223 -0.11266 -0.11308 -0.11352 -0.11395 -0.11439 -0.11482 -0.11528 -0.11572 -0.11617 -0.11662 -0.11709 -0.11754 -0.11801 -0.11848 -0.11896 -0.11943 -0.11991 -0.12039 -0.12088 -0.12138 -0.12187 -0.12238 -0.12287 -0.12339 -0.1239 -0.12441 -0.12494 -0.12547 -0.12599 -0.12653 -0.12707 -0.12762 -0.12816 -0.12871 -0.12928 -0.12984 -0.1304 -0.13098 -0.13156 -0.13214 -0.13273 -0.13332 -0.13393 -0.13452 -0.13514 -0.13575 -0.13638 -0.137 -0.13763 -0.13828 -0.13891 -0.13957 -0.14023 -0.14088 -0.14156 -0.14223 -0.14292 -0.1436 -0.1443 -0.145 -0.14572 -0.14642 -0.14715 -0.14788 -0.14862 -0.14936 -0.15012 -0.15087 -0.15164 -0.15242 -0.1532 -0.154 -0.15479 -0.1556 -0.15642 -0.15725 -0.15808 -0.15892 -0.15977 -0.16064 -0.1615 -0.16239 -0.16327 -0.16418 -0.16508 -0.16601 -0.16693 -0.16788 -0.16882 -0.16979 -0.17076 -0.17175 -0.17274 -0.17375 -0.17477 -0.17579 -0.17685 -0.17789 -0.17897 -0.18005 -0.18114 -0.18225 -0.18337 -0.18451 -0.18565 -0.18682 -0.188 -0.18919 -0.19041 -0.19162 -0.19287 -0.19412 -0.1954 -0.19668 -0.19799 -0.19932 -0.20066 -0.20202 -0.2034 -0.20479 -0.20622 -0.20765 -0.20911 -0.21058 -0.21209 -0.2136 -0.21515 -0.21671 -0.2183 -0.21991 -0.22154 -0.22321 -0.22489 -0.2266 -0.22834 -0.2301 -0.23189 -0.23371 -0.23555 -0.23744 -0.23934 -0.24127 -0.24325 -0.24525 -0.24729 -0.24935 -0.25146 -0.2536 -0.25578 -0.25799 -0.26024 -0.26254 -0.26487 -0.26725 -0.26966 -0.27213 -0.27463 -0.27719 -0.2798 -0.28244 -0.28515 -0.2879 -0.29072 -0.29357 -0.2965 -0.29948 -0.30251 -0.30562 -0.30879 -0.31202 -0.31533 -0.31869 -0.32214 -0.32566 -0.32926 -0.33294 -0.3367 -0.34055 -0.34449 -0.34852 -0.35264 -0.35686 -0.36119 -0.36562 -0.37016 -0.37482 -0.3796 -0.38449 -0.38952 -0.39467 -0.39998 -0.40542 -0.41101 -0.41676 -0.42267 -0.42875 -0.43501 -0.44145 -0.4481 -0.45494 -0.46199 -0.46926 -0.47678 -0.48452 -0.49254 -0.50081 -0.50938 -0.51823 -0.52741 -0.53691 -0.54676 -0.55699 -0.56759 -0.57862 -0.59007 -0.60199 -0.61441 -0.62734 -0.64084 -0.65492 -0.66964 -0.68504 -0.70116 -0.71805 -0.73578 -0.75442 -0.77401 -0.79465 -0.81643 -0.83943 -0.86376 -0.88955 -0.91693 -0.94604 -0.97706 -1.01019 -1.04564 -1.08367 -1.12458 -1.16869 -1.2164 -1.26818 -1.32456 -1.3862 -1.45383 -1.52843 -1.61108 -1.70319 -1.80648 -1.9231 -2.05583 -2.20825 -2.38509 -2.59274 -2.84003 -3.13951 -3.50966 -3.97894 -4.59334 -5.43277 -6.64918 -8.57227 -12.08194 -20.65422 -480.31266 z"
       style="fill:#4682b4;fill-opacity:0.05;fill-rule:nonzero;stroke:#4682b4;stroke-width:1;stroke-linecap:butt;stroke-linejoin:round;stroke-miterlimit:10;stroke-dasharray:none;stroke-opacity:0.05"
       transform="matrix(1.3333333,0,0,-1.3333333,0,327.936)"
       clip-path="url(#clipPath4)" />
    <path
       id="path5"
       d="m 69.403804,68.025261 v -3.5"
       style="fill:#000000;fill-opacity:1;fill-rule:nonzero;stroke:#000000;stroke-width:0.8;stroke-linecap:butt;stroke-linejoin:round;stroke-miterlimit:10;stroke-dasharray:none;stroke-opacity:1"
       transform="matrix(1.3333333,0,0,-1.3333333,0,327.936)" />
    <g
       id="g5"
       aria-label="10&#10;−5"
       transform="matrix(1.3333333,0,0,1.3333333,68.569846,265.01831)">
      <path
         id="path6"
         d="m 5.2972247,-12.72565 c 0,-0.421875 -0.023437,-0.445313 -0.2929687,-0.445313 -0.7851563,0.9375 -1.9570313,1.242188 -3.0703125,1.277344 -0.058594,0 -0.1640625,0 -0.1757813,0.04687 -0.023437,0.03516 -0.023437,0.07031 -0.023437,0.492188 0.6210938,0 1.6523438,-0.117188 2.4492188,-0.597657 v 10.5000004 c 0,0.69140627 -0.035156,0.93750002 -1.7578125,0.93750002 H 1.8284747 V 9.124183e-4 C 2.7894122,-0.02252508 3.785506,-0.03424383 4.7464435,-0.03424383 c 0.9492187,0 1.9453125,0.01171875 2.90625,0.0351562483 V -0.51471258 H 7.0550372 c -1.7109375,0 -1.7578125,-0.22265625 -1.7578125,-0.93750002 z m 12.1962893,6.3281249 c 0,-1.2070312 -0.02344,-3.28125 -0.855469,-4.8749999 -0.738281,-1.394531 -1.910156,-1.898438 -2.953125,-1.898438 -0.949219,0 -2.167969,0.445313 -2.929687,1.875 -0.7968755,1.5000004 -0.867188,3.3515629 -0.867188,4.8984379 0,1.1367188 0.011719,2.8710938 0.632813,4.3828125 0.855468,2.05078127 2.390625,2.33203127 3.164062,2.33203127 0.914063,0 2.308594,-0.375 3.128906,-2.27343747 0.597657,-1.3710938 0.679688,-2.9882813 0.679688,-4.4414063 z M 13.68492,9.124183e-4 c -1.277344,0 -2.027344,-1.0898437183 -2.308594,-2.6132812183 -0.222656,-1.171875 -0.222656,-2.8828125 -0.222656,-3.9960938 0,-1.5351562 0,-2.8125 0.257813,-4.0312504 0.386718,-1.6875 1.5,-2.203125 2.273437,-2.203125 0.820313,0 1.875,0.527344 2.25,2.167969 0.257813,1.1367189 0.28125,2.4726564 0.28125,4.0664064 0,1.2890625 0,2.8828125 -0.234375,4.0546875 -0.421875,2.17968752 -1.59375,2.5546875183 -2.296875,2.5546875183 z m 0,0"
         style="fill:#000000;fill-opacity:1;fill-rule:nonzero;stroke:none" />
      <path
         id="path7"
         d="m 27.46324,-10.440494 c 0.234375,0 0.492188,0 0.492188,-0.28125 0,-0.269531 -0.257813,-0.269531 -0.492188,-0.269531 h -7.546875 c -0.234375,0 -0.480468,0 -0.480468,0.269531 0,0.28125 0.246093,0.28125 0.480468,0.28125 z m 0,0"
         style="fill:#000000;fill-opacity:1;fill-rule:nonzero;stroke:none" />
      <path
         id="path8"
         d="m 30.905623,-15.221744 c 0.597656,0.199219 1.089844,0.210938 1.242188,0.210938 1.582031,0 2.578125,-1.160157 2.578125,-1.347657 0,-0.05859 -0.02344,-0.128906 -0.105469,-0.128906 -0.03516,0 -0.05859,0 -0.1875,0.05859 -0.773438,0.328125 -1.441406,0.375 -1.804688,0.375 -0.925781,0 -1.582031,-0.28125 -1.839843,-0.398438 -0.105469,-0.03516 -0.128907,-0.03516 -0.140625,-0.03516 -0.117188,0 -0.117188,0.08203 -0.117188,0.304688 v 4.136718 c 0,0.257813 0,0.339844 0.164063,0.339844 0.07031,0 0.09375,-0.01172 0.234375,-0.175781 0.386718,-0.574219 1.042968,-0.914063 1.734375,-0.914063 0.738281,0 1.101562,0.679688 1.21875,0.925782 0.234375,0.539062 0.246093,1.21875 0.246093,1.757812 0,0.5273439 0,1.3242189 -0.386718,1.9453127 -0.304688,0.5039062 -0.855469,0.8554687 -1.464844,0.8554687 -0.925781,0 -1.828125,-0.6328125 -2.074219,-1.6523437 0.07031,0.035156 0.152344,0.046875 0.222656,0.046875 0.234375,0 0.609375,-0.140625 0.609375,-0.609375 0,-0.3984375 -0.269531,-0.6210937 -0.609375,-0.6210937 -0.257812,0 -0.621093,0.128906 -0.621093,0.6679687 0,1.1953125 0.949218,2.5429687 2.496093,2.5429687 1.582032,0 2.964844,-1.3242187 2.964844,-3.0937504 0,-1.664062 -1.125,-3.046875 -2.589844,-3.046875 -0.785156,0 -1.40625,0.351563 -1.769531,0.738282 z m 0,0"
         style="fill:#000000;fill-opacity:1;fill-rule:nonzero;stroke:none" />
    </g>
    <path
       id="path9"
       d="m 206.62747,68.025261 v -3.5"
       style="fill:#000000;fill-opacity:1;fill-rule:nonzero;stroke:#000000;stroke-width:0.8;stroke-linecap:butt;stroke-linejoin:round;stroke-miterlimit:10;stroke-dasharray:none;stroke-opacity:1"
       transform="matrix(1.3333333,0,0,-1.3333333,0,327.936)" />
    <g
       id="g9"
       aria-label="10&#10;−3"
       transform="matrix(1.3333333,0,0,1.3333333,251.53474,265.01831)">
      <path
         id="path10"
         d="m 5.29719,-12.72565 c 0,-0.421875 -0.023437,-0.445313 -0.2929688,-0.445313 -0.7851562,0.9375 -1.9570312,1.242188 -3.0703125,1.277344 -0.058594,0 -0.1640625,0 -0.1757812,0.04687 -0.023437,0.03516 -0.023437,0.07031 -0.023437,0.492188 0.6210937,0 1.6523437,-0.117188 2.4492187,-0.597657 v 10.5000004 c 0,0.69140627 -0.035156,0.93750002 -1.7578125,0.93750002 H 1.82844 V 9.124183e-4 C 2.7893775,-0.02252508 3.7854712,-0.03424383 4.7464087,-0.03424383 c 0.9492188,0 1.9453125,0.01171875 2.90625,0.0351562483 V -0.51471258 H 7.0550025 c -1.7109375,0 -1.7578125,-0.22265625 -1.7578125,-0.93750002 z m 12.196289,6.3281249 c 0,-1.2070312 -0.02344,-3.28125 -0.855469,-4.8749999 -0.738281,-1.394531 -1.910156,-1.898438 -2.953125,-1.898438 -0.949218,0 -2.167968,0.445313 -2.929687,1.875 -0.7968752,1.5000004 -0.8671877,3.3515629 -0.8671877,4.8984379 0,1.1367188 0.011719,2.8710938 0.6328127,4.3828125 0.855469,2.05078127 2.390625,2.33203127 3.164062,2.33203127 0.914063,0 2.308594,-0.375 3.128907,-2.27343747 0.597656,-1.3710938 0.679687,-2.9882813 0.679687,-4.4414063 z M 13.684885,9.124183e-4 c -1.277343,0 -2.027343,-1.0898437183 -2.308593,-2.6132812183 -0.222657,-1.171875 -0.222657,-2.8828125 -0.222657,-3.9960938 0,-1.5351562 0,-2.8125 0.257813,-4.0312504 0.386719,-1.6875 1.5,-2.203125 2.273437,-2.203125 0.820313,0 1.875,0.527344 2.25,2.167969 0.257813,1.1367189 0.28125,2.4726564 0.28125,4.0664064 0,1.2890625 0,2.8828125 -0.234375,4.0546875 -0.421875,2.17968752 -1.59375,2.5546875183 -2.296875,2.5546875183 z m 0,0"
         style="fill:#000000;fill-opacity:1;fill-rule:nonzero;stroke:none" />
      <path
         id="path11"
         d="m 27.463206,-10.440494 c 0.234375,0 0.492187,0 0.492187,-0.28125 0,-0.269531 -0.257812,-0.269531 -0.492187,-0.269531 h -7.546875 c -0.234375,0 -0.480469,0 -0.480469,0.269531 0,0.28125 0.246094,0.28125 0.480469,0.28125 z m 0,0"
         style="fill:#000000;fill-opacity:1;fill-rule:nonzero;stroke:none" />
      <path
         id="path12"
         d="m 31.690745,-12.233463 c -0.234375,0.01172 -0.292969,0.02344 -0.292969,0.152344 0,0.140625 0.07031,0.140625 0.316406,0.140625 h 0.644531 c 1.183594,0 1.710938,0.972656 1.710938,2.3085939 0,1.828125 -0.9375,2.3203125 -1.628906,2.3203125 -0.667969,0 -1.804688,-0.328125 -2.214844,-1.2421875 0.445312,0.070312 0.855469,-0.1875 0.855469,-0.6796875 0,-0.4101562 -0.292969,-0.6914062 -0.691407,-0.6914062 -0.328125,0 -0.691406,0.1992187 -0.691406,0.7265625 0,1.2421875 1.242188,2.2617187 2.789063,2.2617187 1.652343,0 2.882812,-1.265625 2.882812,-2.671875 0,-1.2890624 -1.03125,-2.2968754 -2.367187,-2.5312504 1.207031,-0.351562 1.992187,-1.371093 1.992187,-2.449218 0,-1.101563 -1.148437,-1.910157 -2.496094,-1.910157 -1.394531,0 -2.425781,0.84375 -2.425781,1.863282 0,0.5625 0.433594,0.667968 0.644531,0.667968 0.292969,0 0.621094,-0.210937 0.621094,-0.621093 0,-0.445313 -0.328125,-0.644532 -0.644531,-0.644532 -0.08203,0 -0.105469,0 -0.152344,0.01172 0.539063,-0.949219 1.839844,-0.949219 1.910156,-0.949219 0.46875,0 1.371094,0.210938 1.371094,1.582032 0,0.257812 -0.04687,1.042968 -0.445312,1.640625 -0.421875,0.609375 -0.890625,0.65625 -1.265625,0.667968 z m 0,0"
         style="fill:#000000;fill-opacity:1;fill-rule:nonzero;stroke:none" />
    </g>
    <path
       id="path13"
       d="m 343.85114,68.025261 v -3.5"
       style="fill:#000000;fill-opacity:1;fill-rule:nonzero;stroke:#000000;stroke-width:0.8;stroke-linecap:butt;stroke-linejoin:round;stroke-miterlimit:10;stroke-dasharray:none;stroke-opacity:1"
       transform="matrix(1.3333333,0,0,-1.3333333,0,327.936)" />
    <g
       id="g13"
       aria-label="10&#10;−1"
       transform="matrix(1.3333333,0,0,1.3333333,434.49963,265.01831)">
      <path
         id="path14"
         d="m 5.2971552,-12.72565 c 0,-0.421875 -0.023437,-0.445313 -0.2929687,-0.445313 -0.7851563,0.9375 -1.9570313,1.242188 -3.0703125,1.277344 -0.058594,0 -0.1640625,0 -0.1757813,0.04687 -0.023437,0.03516 -0.023437,0.07031 -0.023437,0.492188 0.6210938,0 1.6523438,-0.117188 2.4492188,-0.597657 v 10.5000004 c 0,0.69140627 -0.035156,0.93750002 -1.7578125,0.93750002 H 1.8284052 V 9.124183e-4 C 2.7893427,-0.02252508 3.7854365,-0.03424383 4.746374,-0.03424383 c 0.9492187,0 1.9453125,0.01171875 2.90625,0.0351562483 V -0.51471258 H 7.0549677 c -1.7109375,0 -1.7578125,-0.22265625 -1.7578125,-0.93750002 z m 12.1962888,6.3281249 c 0,-1.2070312 -0.02344,-3.28125 -0.855468,-4.8749999 -0.738282,-1.394531 -1.910157,-1.898438 -2.953125,-1.898438 -0.949219,0 -2.167969,0.445313 -2.929688,1.875 -0.796875,1.5000004 -0.8671875,3.3515629 -0.8671875,4.8984379 0,1.1367188 0.011719,2.8710938 0.6328125,4.3828125 0.855469,2.05078127 2.390625,2.33203127 3.164063,2.33203127 0.914062,0 2.308593,-0.375 3.128906,-2.27343747 0.597656,-1.3710938 0.679687,-2.9882813 0.679687,-4.4414063 z M 13.684851,9.124183e-4 c -1.277344,0 -2.027344,-1.0898437183 -2.308594,-2.6132812183 -0.222656,-1.171875 -0.222656,-2.8828125 -0.222656,-3.9960938 0,-1.5351562 0,-2.8125 0.257812,-4.0312504 0.386719,-1.6875 1.5,-2.203125 2.273438,-2.203125 0.820312,0 1.875,0.527344 2.25,2.167969 0.257812,1.1367189 0.28125,2.4726564 0.28125,4.0664064 0,1.2890625 0,2.8828125 -0.234375,4.0546875 -0.421875,2.17968752 -1.59375,2.5546875183 -2.296875,2.5546875183 z m 0,0"
         style="fill:#000000;fill-opacity:1;fill-rule:nonzero;stroke:none" />
      <path
         id="path15"
         d="m 27.463171,-10.440494 c 0.234375,0 0.492187,0 0.492187,-0.28125 0,-0.269531 -0.257812,-0.269531 -0.492187,-0.269531 h -7.546875 c -0.234375,0 -0.480469,0 -0.480469,0.269531 0,0.28125 0.246094,0.28125 0.480469,0.28125 z m 0,0"
         style="fill:#000000;fill-opacity:1;fill-rule:nonzero;stroke:none" />
      <path
         id="path16"
         d="m 33.143835,-16.170963 c 0,-0.316406 0,-0.328125 -0.28125,-0.328125 -0.339844,0.375 -1.03125,0.890625 -2.472656,0.890625 v 0.398438 c 0.328125,0 1.019531,0 1.792968,-0.363281 v 7.2656247 c 0,0.5039062 -0.04687,0.6679687 -1.277343,0.6679687 H 30.47196 v 0.4101563 c 0.386719,-0.023437 1.734375,-0.023437 2.191406,-0.023437 0.46875,0 1.804688,0 2.179688,0.023437 V -7.6397126 H 34.40946 c -1.230469,0 -1.265625,-0.1640625 -1.265625,-0.6679687 z m 0,0"
         style="fill:#000000;fill-opacity:1;fill-rule:nonzero;stroke:none" />
    </g>
    <path
       id="path17"
       d="m 9.4570939,-5.5193351 c 0.1054688,-0.3984375 0.1640625,-0.6328125 0.1640625,-1.171875 0,-1.1953125 -0.6914062,-2.0976563 -2.2148437,-2.0976563 -1.7695313,0 -2.7070313,1.2539063 -3.0585938,1.7578125 -0.070312,-1.1367187 -0.8789062,-1.7578125 -1.7578125,-1.7578125 -0.5742187,0 -1.03125,0.28125 -1.4179687,1.0429688 -0.3515625,0.7148437 -0.6328125,1.9335937 -0.6328125,2.0039062 0,0.082031 0.0820313,0.1875 0.22265625,0.1875 0.15234375,0 0.17578125,-0.023437 0.29296875,-0.4804687 0.3046875,-1.171875 0.6796875,-2.3554688 1.4765625,-2.3554688 0.4570312,0 0.6210937,0.328125 0.6210937,0.9257813 0,0.4335937 -0.1992187,1.2070312 -0.3398437,1.828125 l -0.5625,2.15625 c -0.082031,0.375 -0.2929688,1.265625 -0.3984375,1.6289062 -0.140625,0.515625 -0.3632813,1.45312501 -0.3632813,1.55859376 0,0.26953125 0.2226563,0.4921875 0.5273438,0.4921875 0.234375,0 0.515625,-0.1171875 0.6679687,-0.421875 0.046875,-0.09375 0.2226563,-0.79687496 0.328125,-1.19531246 l 0.4335938,-1.7929688 0.65625,-2.625 c 0.046875,-0.1171875 0.5390625,-1.1132812 1.2773437,-1.7578125 0.515625,-0.46875 1.1953125,-0.796875 1.96875,-0.796875 0.796875,0 1.078125,0.5976563 1.078125,1.3945313 0,0.5859375 -0.082031,0.9023437 -0.1757812,1.2773437 L 5.9414689,3.4455086 c -0.023437,0.1054688 -0.070312,0.2226563 -0.070312,0.3398438 0,0.2929687 0.2460938,0.4921875 0.5390625,0.4921875 0.1875,0 0.5976563,-0.070312 0.7617188,-0.6679688 z m 0,0"
       style="fill:#000000;fill-opacity:1;fill-rule:nonzero;stroke:none"
       aria-label="η"
       transform="matrix(1.3333333,0,0,1.3333333,318.44914,293.96849)" />
    <path
       id="path18"
       d="m 69.403804,70.91042 h -3.5"
       style="fill:#000000;fill-opacity:1;fill-rule:nonzero;stroke:#000000;stroke-width:0.8;stroke-linecap:butt;stroke-linejoin:round;stroke-miterlimit:10;stroke-dasharray:none;stroke-opacity:1"
       transform="matrix(1.3333333,0,0,-1.3333333,0,327.936)" />
    <g
       id="g18"
       aria-label="1&#10;2&#10;π"
       transform="matrix(1.3333333,0,0,1.3333333,57.750174,234.15094)">
      <path
         id="path19"
         d="m 4.0194009,-8.9403538 c 0,-0.3164063 0,-0.328125 -0.28125,-0.328125 -0.3398438,0.375 -1.03125,0.890625 -2.4726563,0.890625 v 0.3984375 c 0.328125,0 1.0195313,0 1.7929688,-0.3632813 v 7.265625 c 0,0.50390629 -0.046875,0.66796879 -1.2773438,0.66796879 H 1.3475259 v 0.41015625 c 0.3867187,-0.0234375 1.734375,-0.0234375 2.1914062,-0.0234375 0.46875,0 1.8046875,0 2.1796875,0.0234375 V -0.40910381 H 5.2850259 c -1.2304688,0 -1.265625,-0.1640625 -1.265625,-0.66796879 z M 6.1404946,12.373123 H 5.8240884 c -0.035156,0.234375 -0.1523438,1.007812 -0.2929688,1.230469 -0.09375,0.128906 -0.890625,0.128906 -1.3007812,0.128906 H 1.6404946 c 0.3867188,-0.328125 1.2304688,-1.21875 1.59375,-1.558594 2.1210938,-1.945312 2.90625,-2.671875 2.90625,-4.0546875 0,-1.6054687 -1.2773437,-2.671875 -2.8945312,-2.671875 -1.6171875,0 -2.56640627,1.3710938 -2.56640627,2.578125 0,0.703125 0.62109377,0.703125 0.65624997,0.703125 0.2929688,0 0.65625,-0.1992187 0.65625,-0.6445312 0,-0.3984375 -0.2578125,-0.65625 -0.65625,-0.65625 -0.1171875,0 -0.1523437,0 -0.1875,0.011719 0.2578125,-0.9492187 1.0078125,-1.59375 1.921875,-1.59375 1.1835938,0 1.9101563,0.9960938 1.9101563,2.2734375 0,1.1835938 -0.6796875,2.2148432 -1.4765625,3.1054682 l -2.82421877,3.152344 v 0.339844 H 5.7772134 Z m 0,0"
         style="fill:#000000;fill-opacity:1;fill-rule:nonzero;stroke:none" />
      <path
         id="path20"
         d="m 13.180534,0.33210713 h 2.25 C 14.891471,2.5703884 14.563346,4.0235134 14.563346,5.6172634 c 0,0.2695312 0,2.4257812 0.808594,2.4257812 0.421875,0 0.785156,-0.375 0.785156,-0.7148437 0,-0.1054688 0,-0.140625 -0.140625,-0.4453125 -0.539062,-1.3710938 -0.539062,-3.0820313 -0.539062,-3.2226563 0,-0.1171875 0,-1.5351562 0.410156,-3.32812497 h 2.238281 c 0.257813,0 0.914063,0 0.914063,-0.6328125 0,-0.4453125 -0.375,-0.4453125 -0.738282,-0.4453125 h -6.550781 c -0.457031,0 -1.136719,0 -2.0507811,0.984375 -0.515625,0.57421875 -1.1601562,1.62890627 -1.1601562,1.74609377 0,0.1171875 0.1054687,0.1640625 0.2226562,0.1640625 0.140625,0 0.1523438,-0.058594 0.2578125,-0.1757813 C 10.051627,0.33210713 11.094596,0.33210713 11.586784,0.33210713 h 1.136718 C 12.289909,1.8321071 11.786002,3.5664821 10.157096,7.0469509 9.9930337,7.3633571 9.9930337,7.4102321 9.9930337,7.5274196 c 0,0.4101563 0.3632813,0.515625 0.5390623,0.515625 0.574219,0 0.738281,-0.515625 0.972656,-1.359375 0.328125,-1.0078125 0.328125,-1.0546875 0.527344,-1.8515625 z m 0,0"
         style="fill:#000000;fill-opacity:1;fill-rule:nonzero;stroke:none" />
    </g>
    <path
       id="path21"
       d="m 43.31263,67.076416 h 6.828459 V 67.8734 H 43.31263 Z"
       style="fill:#000000;fill-opacity:1;fill-rule:nonzero;stroke:none"
       transform="matrix(1.3333333,0,0,-1.3333333,0,327.936)" />
    <path
       id="path22"
       d="m 69.403804,144.49057 h -3.5"
       style="fill:#000000;fill-opacity:1;fill-rule:nonzero;stroke:#000000;stroke-width:0.8;stroke-linecap:butt;stroke-linejoin:round;stroke-miterlimit:10;stroke-dasharray:none;stroke-opacity:1"
       transform="matrix(1.3333333,0,0,-1.3333333,0,327.936)" />
    <g
       id="g22"
       aria-label="3&#10;4&#10;π"
       transform="matrix(1.3333333,0,0,1.3333333,57.750174,136.04407)">
      <path
         id="path23"
         d="m 2.5662759,-5.0047298 c -0.234375,0.011719 -0.2929688,0.023437 -0.2929688,0.1523437 0,0.140625 0.070312,0.140625 0.3164063,0.140625 h 0.6445312 c 1.1835938,0 1.7109375,0.9726563 1.7109375,2.3085938 0,1.82812499 -0.9375,2.32031249 -1.6289062,2.32031249 -0.6679688,0 -1.8046875,-0.328125 -2.2148438,-1.24218749 0.4453125,0.070312 0.8554688,-0.1875 0.8554688,-0.6796875 0,-0.4101563 -0.2929688,-0.6914063 -0.6914063,-0.6914063 -0.32812497,0 -0.69140622,0.1992188 -0.69140622,0.7265625 0,1.24218754 1.24218752,2.26171879 2.78906252,2.26171879 1.6523437,0 2.8828125,-1.265625 2.8828125,-2.67187499 0,-1.2890625 -1.03125,-2.296875 -2.3671875,-2.53125 1.2070312,-0.3515625 1.9921875,-1.3710938 1.9921875,-2.4492188 0,-1.1015625 -1.1484375,-1.9101562 -2.4960938,-1.9101562 -1.3945312,0 -2.42578122,0.84375 -2.42578122,1.8632812 0,0.5625 0.43359372,0.6679688 0.64453122,0.6679688 0.2929688,0 0.6210938,-0.2109375 0.6210938,-0.6210938 0,-0.4453125 -0.328125,-0.6445312 -0.6445313,-0.6445312 -0.082031,0 -0.1054687,0 -0.1523437,0.011719 0.5390625,-0.9492187 1.8398437,-0.9492187 1.9101562,-0.9492187 0.46875,0 1.3710938,0.2109375 1.3710938,1.5820312 0,0.2578125 -0.046875,1.0429688 -0.4453125,1.640625 -0.421875,0.609375 -0.890625,0.65625 -1.265625,0.6679688 z M 5.0389321,5.6329655 c 0,-0.2578125 0,-0.328125 -0.1992187,-0.328125 -0.1171875,0 -0.1523438,0 -0.2695313,0.1640625 l -4.19531247,6.515625 v 0.398438 H 4.0428384 v 1.277343 c 0,0.515625 -0.023437,0.644532 -1.0429688,0.644532 h -0.28125 v 0.410156 c 0.3164063,-0.02344 1.4179688,-0.02344 1.8164063,-0.02344 0.3867187,0 1.5,0 1.828125,0.02344 v -0.410156 h -0.28125 c -1.0078125,0 -1.0429688,-0.128907 -1.0429688,-0.644532 v -1.277343 h 1.40625 v -0.398438 h -1.40625 z M 4.1131509,6.7228093 V 11.984528 H 0.72643213 Z m 0,0"
         style="fill:#000000;fill-opacity:1;fill-rule:nonzero;stroke:none" />
      <path
         id="path24"
         d="m 13.180534,0.33316082 h 2.25 C 14.891471,2.5714421 14.563346,4.0245671 14.563346,5.6183171 c 0,0.2695312 0,2.4257812 0.808594,2.4257812 0.421875,0 0.785156,-0.375 0.785156,-0.7148437 0,-0.1054688 0,-0.140625 -0.140625,-0.4453125 -0.539062,-1.3710938 -0.539062,-3.0820313 -0.539062,-3.2226563 0,-0.1171875 0,-1.5351562 0.410156,-3.32812498 h 2.238281 c 0.257813,0 0.914063,0 0.914063,-0.6328125 0,-0.4453125 -0.375,-0.4453125 -0.738282,-0.4453125 h -6.550781 c -0.457031,0 -1.136719,0 -2.0507811,0.984375 -0.515625,0.57421875 -1.1601562,1.62890628 -1.1601562,1.74609378 0,0.1171875 0.1054687,0.1640625 0.2226562,0.1640625 0.140625,0 0.1523438,-0.058594 0.2578125,-0.1757813 C 10.051627,0.33316082 11.094596,0.33316082 11.586784,0.33316082 h 1.136718 C 12.289909,1.8331608 11.786002,3.5675358 10.157096,7.0480046 9.9930337,7.3644108 9.9930337,7.4112858 9.9930337,7.5284733 c 0,0.4101563 0.3632813,0.515625 0.5390623,0.515625 0.574219,0 0.738281,-0.515625 0.972656,-1.359375 0.328125,-1.0078125 0.328125,-1.0546875 0.527344,-1.8515625 z m 0,0"
         style="fill:#000000;fill-opacity:1;fill-rule:nonzero;stroke:none" />
    </g>
    <path
       id="path25"
       d="m 43.31263,140.65657 h 6.828459 v 0.79698 H 43.31263 Z"
       style="fill:#000000;fill-opacity:1;fill-rule:nonzero;stroke:none"
       transform="matrix(1.3333333,0,0,-1.3333333,0,327.936)" />
    <path
       id="path26"
       d="m 69.403804,218.07073 h -3.5"
       style="fill:#000000;fill-opacity:1;fill-rule:nonzero;stroke:#000000;stroke-width:0.8;stroke-linecap:butt;stroke-linejoin:round;stroke-miterlimit:10;stroke-dasharray:none;stroke-opacity:1"
       transform="matrix(1.3333333,0,0,-1.3333333,0,327.936)" />
    <path
       id="path27"
       d="m 5.1565617,-7.5126589 h 2.25 c -0.5390625,2.2382813 -0.8671875,3.6914063 -0.8671875,5.2851563 0,0.2695312 0,2.42578125 0.8085937,2.42578125 0.421875,0 0.7851563,-0.375 0.7851563,-0.71484375 0,-0.10546875 0,-0.140625 -0.140625,-0.4453125 -0.5390625,-1.3710938 -0.5390625,-3.0820313 -0.5390625,-3.2226563 0,-0.1171875 0,-1.5351562 0.4101562,-3.328125 h 2.2382811 c 0.257813,0 0.914063,0 0.914063,-0.6328125 0,-0.4453125 -0.375,-0.4453125 -0.738282,-0.4453125 H 3.7268742 c -0.4570313,0 -1.1367188,0 -2.0507813,0.984375 -0.515625,0.5742188 -1.1601562,1.6289063 -1.1601562,1.7460938 0,0.1171875 0.10546875,0.1640625 0.22265625,0.1640625 0.140625,0 0.15234375,-0.058594 0.2578125,-0.1757813 1.03124995,-1.640625 2.07421875,-1.640625 2.56640625,-1.640625 h 1.1367187 c -0.4335937,1.5 -0.9375,3.234375 -2.5664062,6.7148438 -0.1640625,0.31640625 -0.1640625,0.36328125 -0.1640625,0.48046875 0,0.41015625 0.3632812,0.515625 0.5390625,0.515625 0.5742187,0 0.7382812,-0.515625 0.9726562,-1.35937505 0.328125,-1.0078125 0.328125,-1.0546875 0.5273438,-1.8515625 z m 0,0"
       style="fill:#000000;fill-opacity:1;fill-rule:nonzero;stroke:none"
       aria-label="π"
       transform="matrix(1.3333333,0,0,1.3333333,68.448803,46.399691)" />
    <path
       id="path28"
       d="m 8.8253608,-10.019028 c 0,-2.027344 -0.6328125,-4.007813 -2.2734375,-4.007813 -2.7890625,0 -5.75390626,5.835938 -5.75390626,10.2187505 0,0.9257812 0.19921875,4.00781249 2.28515626,4.00781249 2.71875,0 5.7421875,-5.69531249 5.7421875,-10.21874999 z m -6.0351563,2.8125 c 0.2929688,-1.1835938 0.7148438,-2.847656 1.5117188,-4.265625 0.65625,-1.195313 1.359375,-2.15625 2.2382812,-2.15625 0.65625,0 1.0898438,0.5625 1.0898438,2.472656 0,0.714844 -0.058594,1.7109377 -0.6328125,3.949219 z m 4.0664063,0.5976562 c -0.5039063,1.9453125 -0.9140625,3.1992188 -1.640625,4.453125 -0.5742188,1.0195313 -1.265625,1.95703129 -2.109375,1.95703129 -0.6210938,0 -1.1132813,-0.48046875 -1.1132813,-2.44921879 0,-1.3007812 0.3164063,-2.6484375 0.6328125,-3.9609375 z m 0,0"
       style="fill:#000000;fill-opacity:1;fill-rule:nonzero;stroke:none"
       aria-label="θ"
       transform="matrix(0,-1.3333333,1.3333333,0,47.249329,139.61871)" />
    <path
       id="path29"
       d="m -1,214.70586 207.65729,-2.56129 20.65422,-2.4519 12.08194,-1.87951 8.57227,-1.58291 6.64918,-1.39318 10.02611,-2.41423 7.4886,-2.0834 5.97954,-1.85842 7.18608,-2.48859 5.78541,-2.22678 6.29653,-2.67306 6.36403,-2.99132 5.24114,-2.70181 5.27214,-2.95263 5.16311,-3.13638 4.97783,-3.26873 5.24114,-3.71796 4.86672,-3.72074 4.88349,-4.0068 4.79068,-4.20838 4.88692,-4.58691 4.84269,-4.84687 4.89586,-5.21125 4.97784,-5.62216 5.17699,-6.19174 5.28255,-6.67245 5.48651,-7.2926 5.83274,-8.12816 6.39797,-9.30818 7.32989,-11.071576 9.76639,-15.189169 3.40917,-5.356355 v 0"
       style="fill:none;stroke:#4682b4;stroke-width:3;stroke-linecap:butt;stroke-linejoin:round;stroke-miterlimit:10;stroke-dasharray:3, 4.95;stroke-dashoffset:0;stroke-opacity:1"
       transform="matrix(1.3333333,0,0,-1.3333333,0,327.936)"
       clip-path="url(#clipPath30)" />
    <path
       id="path31"
       d="M 69.403804,68.025261 V 223.54263"
       style="fill:none;stroke:#000000;stroke-width:0.8;stroke-linecap:square;stroke-linejoin:miter;stroke-miterlimit:10;stroke-dasharray:none;stroke-opacity:1"
       transform="matrix(1.3333333,0,0,-1.3333333,0,327.936)" />
    <path
       id="path32"
       d="M 417.89574,68.025261 V 223.54263"
       style="fill:none;stroke:#000000;stroke-width:0.8;stroke-linecap:square;stroke-linejoin:miter;stroke-miterlimit:10;stroke-dasharray:none;stroke-opacity:1"
       transform="matrix(1.3333333,0,0,-1.3333333,0,327.936)" />
    <path
       id="path33"
       d="M 69.403804,68.025261 H 417.89574"
       style="fill:none;stroke:#000000;stroke-width:0.8;stroke-linecap:square;stroke-linejoin:miter;stroke-miterlimit:10;stroke-dasharray:none;stroke-opacity:1"
       transform="matrix(1.3333333,0,0,-1.3333333,0,327.936)" />
    <path
       id="path34"
       d="M 69.403804,223.54263 H 417.89574"
       style="fill:none;stroke:#000000;stroke-width:0.8;stroke-linecap:square;stroke-linejoin:miter;stroke-miterlimit:10;stroke-dasharray:none;stroke-opacity:1"
       transform="matrix(1.3333333,0,0,-1.3333333,0,327.936)" />
    <path
       id="path35"
       d="m 80.603804,120.0139 h 61.127476 c 2.13334,0 3.2,1.06666 3.2,3.2 v 45.1401 c 0,2.13333 -1.06666,3.2 -3.2,3.2 H 80.603804 c -2.133333,0 -3.2,-1.06667 -3.2,-3.2 v -45.1401 c 0,-2.13334 1.066667,-3.2 3.2,-3.2 z"
       style="fill:#ffffff;fill-opacity:0.8;fill-rule:nonzero;stroke:#cccccc;stroke-width:1;stroke-linecap:butt;stroke-linejoin:miter;stroke-miterlimit:10;stroke-dasharray:none;stroke-opacity:0.8"
       transform="matrix(1.3333333,0,0,-1.3333333,0,327.936)" />
    <path
       id="path36"
       d="M 83.803804,158.59775 H 115.8038"
       style="fill:none;stroke:#dc143c;stroke-width:1.5;stroke-linecap:square;stroke-linejoin:round;stroke-miterlimit:10;stroke-dasharray:none;stroke-opacity:1"
       transform="matrix(1.3333333,0,0,-1.3333333,0,327.936)" />
    <path
       id="path37"
       d="m 99.803804,155.09775 c 0.928216,0 1.818526,0.36878 2.474876,1.02512 0.65634,0.65635 1.02512,1.54667 1.02512,2.47488 0,0.92821 -0.36878,1.81853 -1.02512,2.47487 -0.65635,0.65634 -1.54666,1.02513 -2.474876,1.02513 -0.928211,0 -1.81853,-0.36879 -2.474874,-1.02513 -0.656344,-0.65634 -1.025126,-1.54666 -1.025126,-2.47487 0,-0.92821 0.368782,-1.81853 1.025126,-2.47488 0.656344,-0.65634 1.546663,-1.02512 2.474874,-1.02512 z"
       style="fill:none;stroke:#dc143c;stroke-width:1;stroke-linecap:butt;stroke-linejoin:round;stroke-miterlimit:10;stroke-dasharray:none;stroke-opacity:1"
       transform="matrix(1.3333333,0,0,-1.3333333,0,327.936)" />
    <path
       id="path38"
       d="m 7.3835007,-4.0323781 c 0,-1.546875 -0.8789062,-3 -2.5664062,-3 -2.0859375,0 -4.18359378,2.2851563 -4.18359378,4.546875 0,1.3828125 0.86718748,2.64843755 2.49609378,2.64843755 0.984375,0 2.1679687,-0.38671875 3.2929687,-1.34765625 0.2226563,0.90234375 0.7148438,1.34765625 1.40625,1.34765625 0.8554688,0 1.2890625,-0.90234375 1.2890625,-1.1015625 0,-0.14062505 -0.1171875,-0.14062505 -0.1640625,-0.14062505 -0.1289062,0 -0.140625,0.046875 -0.1875,0.16406255 -0.140625,0.3984375 -0.515625,0.75 -0.890625,0.75 -0.4921875,0 -0.4921875,-1.01953125 -0.4921875,-1.99218755 1.6171875,-1.9453125 2.0039063,-3.9492187 2.0039063,-3.9609375 0,-0.140625 -0.1289063,-0.140625 -0.1757813,-0.140625 -0.140625,0 -0.1640625,0.046875 -0.2226562,0.328125 -0.2109375,0.703125 -0.6210938,1.9453125 -1.6054688,3.2578125 z m -1.0078125,2.4726563 c -1.40625,1.25390625 -2.6601562,1.39453125 -3.2226562,1.39453125 -1.125,0 -1.4414063,-0.99609375 -1.4414063,-1.74609375 0,-0.6914063 0.3398438,-2.3085938 0.84375,-3.1875 0.6445313,-1.1132813 1.546875,-1.6171875 2.2617188,-1.6171875 1.546875,0 1.546875,2.0273437 1.546875,3.3632812 0,0.3984375 -0.023437,0.8203125 -0.023437,1.21875 0,0.3164063 0.023437,0.3984375 0.035156,0.5742188 z m 0,0"
       style="fill:#000000;fill-opacity:1;fill-rule:nonzero;stroke:none"
       aria-label="α"
       transform="matrix(1.3333333,0,0,1.3333333,171.47174,123.939)" />
    <path
       id="path39"
       d="M 83.803804,135.11337 H 115.8038"
       style="fill:none;stroke:#4682b4;stroke-width:3;stroke-linecap:butt;stroke-linejoin:round;stroke-miterlimit:10;stroke-dasharray:3, 4.95;stroke-dashoffset:0;stroke-opacity:1"
       transform="matrix(1.3333333,0,0,-1.3333333,0,327.936)" />
    <path
       id="path40"
       d="m 7.0553757,-8.0167531 c 0,-1.6289062 -0.5039062,-3.1992189 -1.8164062,-3.1992189 -2.2265625,0 -4.60546878,4.6640627 -4.60546878,8.1679689 0,0.7382813 0.1640625,3.21093755 1.83984378,3.21093755 2.1679687,0 4.5820312,-4.55859375 4.5820312,-8.17968755 z m -4.828125,2.25 c 0.2460938,-0.9492187 0.5742188,-2.2851562 1.21875,-3.4101562 0.5273438,-0.9609377 1.078125,-1.7226567 1.78125,-1.7226567 0.5273438,0 0.8789063,0.445313 0.8789063,1.9687504 0,0.5742188 -0.046875,1.3710938 -0.515625,3.1640625 z m 3.2578125,0.46875 c -0.3984375,1.5703125 -0.7382812,2.5664063 -1.3125,3.5742188 -0.4570312,0.80859375 -1.0195312,1.55859375 -1.6875,1.55859375 -0.4921875,0 -0.890625,-0.375 -0.890625,-1.95703125 0,-1.03125 0.2578125,-2.1210938 0.515625,-3.1757813 z m 0,0"
       style="fill:#000000;fill-opacity:1;fill-rule:nonzero;stroke:none"
       aria-label="θ"
       transform="matrix(1.3333333,0,0,1.3333333,171.47174,155.2515)" />
    <path
       id="path41"
       d="m 417.89574,118.19216 h 3.5"
       style="fill:#000000;fill-opacity:1;fill-rule:nonzero;stroke:#000000;stroke-width:0.8;stroke-linecap:butt;stroke-linejoin:round;stroke-miterlimit:10;stroke-dasharray:none;stroke-opacity:1"
       transform="matrix(1.3333333,0,0,-1.3333333,0,327.936)" />
    <g
       id="g41"
       aria-label="0.8"
       transform="matrix(1.3333333,0,0,1.3333333,566.52766,179.57112)">
      <path
         id="path42"
         d="m 8.3669519,-6.3990468 c 0,-1.2070313 -0.023437,-3.28125 -0.8554687,-4.8750002 -0.7382813,-1.394531 -1.9101563,-1.898437 -2.953125,-1.898437 -0.9492188,0 -2.1679688,0.445312 -2.9296875,1.875 -0.796875,1.4999997 -0.8671875,3.3515622 -0.8671875,4.8984372 0,1.1367187 0.0117188,2.8710937 0.6328125,4.3828125 0.8554687,2.05078122 2.390625,2.33203122 3.1640625,2.33203122 0.9140625,0 2.3085937,-0.375 3.1289062,-2.27343752 0.5976563,-1.3710937 0.6796875,-2.9882812 0.6796875,-4.4414062 z M 4.5583582,-6.093282e-4 c -1.2773438,0 -2.0273438,-1.0898437718 -2.3085938,-2.6132812718 -0.2226562,-1.171875 -0.2226562,-2.8828125 -0.2226562,-3.9960937 0,-1.5351563 0,-2.8125 0.2578125,-4.0312497 0.3867187,-1.6875 1.5,-2.203125 2.2734375,-2.203125 0.8203125,0 1.875,0.527343 2.25,2.167968 0.2578125,1.1367192 0.28125,2.4726567 0.28125,4.0664067 0,1.2890625 0,2.8828125 -0.234375,4.0546875 -0.421875,2.17968747 -1.59375,2.5546874718 -2.296875,2.5546874718 z m 0,0"
         style="fill:#000000;fill-opacity:1;fill-rule:nonzero;stroke:none" />
      <path
         id="path43"
         d="m 12.805429,-0.96154683 c 0,-0.57421877 -0.480469,-0.97265627 -0.960938,-0.97265627 -0.574219,0 -0.972656,0.4804688 -0.972656,0.96093752 0,0.57421875 0.480469,0.9726562518 0.949219,0.9726562518 0.585937,0 0.984375,-0.4804687518 0.984375,-0.9609375018 z m 0,0"
         style="fill:#000000;fill-opacity:1;fill-rule:nonzero;stroke:none" />
      <path
         id="path44"
         d="m 19.971444,-7.1724843 c 1.253906,-0.6328125 2.53125,-1.59375 2.53125,-3.1289067 0,-1.816406 -1.746094,-2.871093 -3.363281,-2.871093 -1.816406,0 -3.410156,1.324218 -3.410156,3.128906 0,0.5039062 0.117187,1.3593749 0.902343,2.1093749 0.199219,0.1992188 1.03125,0.796875 1.570313,1.1835938 -0.890625,0.4570312 -2.988281,1.546875 -2.988281,3.7382812 0,2.05078127 1.957031,3.32812502 3.890625,3.32812502 2.121093,0 3.914062,-1.53515622 3.914062,-3.56250002 0,-1.8164062 -1.207031,-2.6484375 -2.003906,-3.1875 z m -2.601562,-1.7578125 c -0.164063,-0.09375 -0.960938,-0.7148438 -0.960938,-1.6523442 0,-1.207031 1.253906,-2.132812 2.695313,-2.132812 1.570312,0 2.71875,1.125 2.71875,2.414062 0,1.8515629 -2.0625,2.9062504 -2.167969,2.9062504 -0.02344,0 -0.03516,0 -0.199219,-0.1171875 z m 3.65625,4.0898437 c 0.304687,0.2226563 1.265625,0.8789063 1.265625,2.0859375 0,1.4765625 -1.476563,2.58984377 -3.152344,2.58984377 -1.816406,0 -3.1875,-1.28906247 -3.1875,-2.85937497 0,-1.5820313 1.21875,-2.8945313 2.589844,-3.515625 z m 0,0"
         style="fill:#000000;fill-opacity:1;fill-rule:nonzero;stroke:none" />
    </g>
    <path
       id="path45"
       d="m 417.89574,218.52594 h 3.5"
       style="fill:#000000;fill-opacity:1;fill-rule:nonzero;stroke:#000000;stroke-width:0.8;stroke-linecap:butt;stroke-linejoin:round;stroke-miterlimit:10;stroke-dasharray:none;stroke-opacity:1"
       transform="matrix(1.3333333,0,0,-1.3333333,0,327.936)" />
    <g
       id="g45"
       aria-label="1.0"
       transform="matrix(1.3333333,0,0,1.3333333,566.52766,45.792741)">
      <path
         id="path46"
         d="m 5.2966394,-12.726392 c 0,-0.421875 -0.023437,-0.445312 -0.2929687,-0.445312 -0.7851563,0.9375 -1.9570313,1.242187 -3.0703125,1.277343 -0.058594,0 -0.1640625,0 -0.1757813,0.04687 -0.023437,0.03516 -0.023437,0.07031 -0.023437,0.492188 0.6210938,0 1.6523438,-0.117188 2.4492188,-0.597656 v 10.4999997 c 0,0.69140628 -0.035156,0.93750003 -1.7578125,0.93750003 H 1.8278894 V 1.707313e-4 C 2.7888269,-0.02326677 3.7849207,-0.03498552 4.7458582,-0.03498552 c 0.9492187,0 1.9453125,0.01171875 2.90625,0.0351562513 V -0.51545427 H 7.0544519 c -1.7109375,0 -1.7578125,-0.22265625 -1.7578125,-0.93750003 z m 0,0"
         style="fill:#000000;fill-opacity:1;fill-rule:nonzero;stroke:none" />
      <path
         id="path47"
         d="m 12.805429,-0.96076677 c 0,-0.57421873 -0.480469,-0.97265623 -0.960938,-0.97265623 -0.574219,0 -0.972656,0.4804687 -0.972656,0.96093748 0,0.57421875 0.480469,0.9726562513 0.949219,0.9726562513 0.585937,0 0.984375,-0.4804687513 0.984375,-0.9609375013 z m 0,0"
         style="fill:#000000;fill-opacity:1;fill-rule:nonzero;stroke:none" />
      <path
         id="path48"
         d="m 22.924569,-6.3982668 c 0,-1.2070312 -0.02344,-3.28125 -0.855469,-4.8750002 -0.738281,-1.394531 -1.910156,-1.898437 -2.953125,-1.898437 -0.949218,0 -2.167968,0.445312 -2.929687,1.875 -0.796875,1.4999997 -0.867188,3.3515622 -0.867188,4.8984372 0,1.1367188 0.01172,2.8710938 0.632813,4.3828125 0.855469,2.05078128 2.390625,2.33203128 3.164062,2.33203128 0.914063,0 2.308594,-0.375 3.128907,-2.27343748 0.597656,-1.3710938 0.679687,-2.9882813 0.679687,-4.4414063 z M 19.115975,1.707313e-4 c -1.277343,0 -2.027343,-1.0898437313 -2.308593,-2.6132812313 -0.222657,-1.171875 -0.222657,-2.8828125 -0.222657,-3.9960938 0,-1.5351562 0,-2.8125 0.257813,-4.0312497 0.386719,-1.6875 1.5,-2.203125 2.273437,-2.203125 0.820313,0 1.875,0.527343 2.25,2.167968 0.257813,1.1367192 0.28125,2.4726567 0.28125,4.0664067 0,1.2890625 0,2.8828125 -0.234375,4.0546875 -0.421875,2.17968753 -1.59375,2.5546875313 -2.296875,2.5546875313 z m 0,0"
         style="fill:#000000;fill-opacity:1;fill-rule:nonzero;stroke:none" />
    </g>
    <path
       id="path49"
       d="m 9.2213548,-5.0377414 c 0,-1.9335937 -1.0898438,-3.75 -3.2109375,-3.75 -2.6015625,0 -5.21484379,2.8476563 -5.21484379,5.6835938 0,1.734375 1.07812499,3.30468746 3.10546879,3.30468746 1.2421875,0 2.7070312,-0.48046875 4.125,-1.67578126 0.28125,1.11328126 0.9023437,1.67578126 1.7578125,1.67578126 1.0664062,0 1.6054692,-1.11328125 1.6054692,-1.37109376 0,-0.1875 -0.140625,-0.1875 -0.199219,-0.1875 -0.152344,0 -0.175781,0.070312 -0.234375,0.2226563 -0.175781,0.50390621 -0.632813,0.93749996 -1.1132815,0.93749996 -0.6210937,0 -0.6210937,-1.27734376 -0.6210937,-2.48437496 2.0273442,-2.4375 2.5078122,-4.9453125 2.5078122,-4.96875 0,-0.1757813 -0.152343,-0.1757813 -0.210937,-0.1757813 -0.1875,0 -0.199219,0.058594 -0.28125,0.421875 -0.257813,0.8671875 -0.785156,2.4257813 -2.0156252,4.0546875 z m -1.2539063,3.0820313 c -1.7578125,1.58203121 -3.328125,1.75781246 -4.0195312,1.75781246 -1.4179688,0 -1.8164063,-1.25390626 -1.8164063,-2.19140626 0,-0.8554687 0.4335938,-2.8828125 1.0546875,-3.984375 0.8203125,-1.3945312 1.9335938,-2.015625 2.8242188,-2.015625 1.9335937,0 1.9335937,2.53125 1.9335937,4.2070313 0,0.5039062 -0.011719,1.0195312 -0.011719,1.5117187 0,0.3984375 0.011719,0.5039063 0.035156,0.7148438 z m 0,0"
       style="fill:#000000;fill-opacity:1;fill-rule:nonzero;stroke:none"
       aria-label="α"
       transform="matrix(0,-1.3333333,1.3333333,0,621.90449,141.8303)" />
    <path
       id="path50"
       d="m -1,72.255927 70.403804,0.05831 68.611836,1.032453 68.61183,9.510896 47.95761,29.991514 20.65422,22.69676 20.65422,25.54221 12.08195,14.21557 15.22145,15.23178 20.65422,14.16484 27.30339,8.52791 20.65422,1.9984 12.08195,0.36637 8.57227,0.0651"
       style="fill:none;stroke:#dc143c;stroke-width:1.5;stroke-linecap:square;stroke-linejoin:round;stroke-miterlimit:10;stroke-dasharray:none;stroke-opacity:1"
       transform="matrix(1.3333333,0,0,-1.3333333,0,327.936)"
       clip-path="url(#clipPath51)" />
    <g
       id="g53"
       clip-path="url(#clipPath54)">
      <path
         d="m 0,-3.5 c 0.928211,0 1.81853,0.368782 2.474874,1.025126 C 3.131218,-1.81853 3.5,-0.928211 3.5,0 3.5,0.928211 3.131218,1.81853 2.474874,2.474874 1.81853,3.131218 0.928211,3.5 0,3.5 -0.928211,3.5 -1.81853,3.131218 -2.474874,2.474874 -3.131218,1.81853 -3.5,0.928211 -3.5,0 c 0,-0.928211 0.368782,-1.81853 1.025126,-2.474874 C -1.81853,-3.131218 -0.928211,-3.5 0,-3.5 Z"
         style="fill:none;stroke:#dc143c;stroke-width:1;stroke-linecap:butt;stroke-linejoin:round;stroke-miterlimit:10;stroke-dasharray:none;stroke-opacity:1"
         transform="matrix(1.3333333,0,0,-1.3333333,92.538405,231.51702)"
         clip-path="url(#clipPath52)"
         id="path53" />
    </g>
    <g
       id="g56"
       clip-path="url(#clipPath57)">
      <path
         d="m 0,-3.5 c 0.928211,0 1.81853,0.368782 2.474874,1.025126 C 3.131218,-1.81853 3.5,-0.928211 3.5,0 3.5,0.928211 3.131218,1.81853 2.474874,2.474874 1.81853,3.131218 0.928211,3.5 0,3.5 -0.928211,3.5 -1.81853,3.131218 -2.474874,2.474874 -3.131218,1.81853 -3.5,0.928211 -3.5,0 c 0,-0.928211 0.368782,-1.81853 1.025126,-2.474874 C -1.81853,-3.131218 -0.928211,-3.5 0,-3.5 Z"
         style="fill:none;stroke:#dc143c;stroke-width:1;stroke-linecap:butt;stroke-linejoin:round;stroke-miterlimit:10;stroke-dasharray:none;stroke-opacity:1"
         transform="matrix(1.3333333,0,0,-1.3333333,184.02085,230.14041)"
         clip-path="url(#clipPath55)"
         id="path56" />
    </g>
    <g
       id="g59"
       clip-path="url(#clipPath60)">
      <path
         d="m 0,-3.5 c 0.928211,0 1.81853,0.368782 2.474874,1.025126 C 3.131218,-1.81853 3.5,-0.928211 3.5,0 3.5,0.928211 3.131218,1.81853 2.474874,2.474874 1.81853,3.131218 0.928211,3.5 0,3.5 -0.928211,3.5 -1.81853,3.131218 -2.474874,2.474874 -3.131218,1.81853 -3.5,0.928211 -3.5,0 c 0,-0.928211 0.368782,-1.81853 1.025126,-2.474874 C -1.81853,-3.131218 -0.928211,-3.5 0,-3.5 Z"
         style="fill:none;stroke:#dc143c;stroke-width:1;stroke-linecap:butt;stroke-linejoin:round;stroke-miterlimit:10;stroke-dasharray:none;stroke-opacity:1"
         transform="matrix(1.3333333,0,0,-1.3333333,275.5033,217.45922)"
         clip-path="url(#clipPath58)"
         id="path59" />
    </g>
    <g
       id="g62"
       clip-path="url(#clipPath63)">
      <path
         d="m 0,-3.5 c 0.928211,0 1.81853,0.368782 2.474874,1.025126 C 3.131218,-1.81853 3.5,-0.928211 3.5,0 3.5,0.928211 3.131218,1.81853 2.474874,2.474874 1.81853,3.131218 0.928211,3.5 0,3.5 -0.928211,3.5 -1.81853,3.131218 -2.474874,2.474874 -3.131218,1.81853 -3.5,0.928211 -3.5,0 c 0,-0.928211 0.368782,-1.81853 1.025126,-2.474874 C -1.81853,-3.131218 -0.928211,-3.5 0,-3.5 Z"
         style="fill:none;stroke:#dc143c;stroke-width:1;stroke-linecap:butt;stroke-linejoin:round;stroke-miterlimit:10;stroke-dasharray:none;stroke-opacity:1"
         transform="matrix(1.3333333,0,0,-1.3333333,339.44678,177.47053)"
         clip-path="url(#clipPath61)"
         id="path62" />
    </g>
    <g
       id="g65"
       clip-path="url(#clipPath66)">
      <path
         d="m 0,-3.5 c 0.928211,0 1.81853,0.368782 2.474874,1.025126 C 3.131218,-1.81853 3.5,-0.928211 3.5,0 3.5,0.928211 3.131218,1.81853 2.474874,2.474874 1.81853,3.131218 0.928211,3.5 0,3.5 -0.928211,3.5 -1.81853,3.131218 -2.474874,2.474874 -3.131218,1.81853 -3.5,0.928211 -3.5,0 c 0,-0.928211 0.368782,-1.81853 1.025126,-2.474874 C -1.81853,-3.131218 -0.928211,-3.5 0,-3.5 Z"
         style="fill:none;stroke:#dc143c;stroke-width:1;stroke-linecap:butt;stroke-linejoin:round;stroke-miterlimit:10;stroke-dasharray:none;stroke-opacity:1"
         transform="matrix(1.3333333,0,0,-1.3333333,366.98574,147.20818)"
         clip-path="url(#clipPath64)"
         id="path65" />
    </g>
    <g
       id="g68"
       clip-path="url(#clipPath69)">
      <path
         d="m 0,-3.5 c 0.928211,0 1.81853,0.368782 2.474874,1.025126 C 3.131218,-1.81853 3.5,-0.928211 3.5,0 3.5,0.928211 3.131218,1.81853 2.474874,2.474874 1.81853,3.131218 0.928211,3.5 0,3.5 -0.928211,3.5 -1.81853,3.131218 -2.474874,2.474874 -3.131218,1.81853 -3.5,0.928211 -3.5,0 c 0,-0.928211 0.368782,-1.81853 1.025126,-2.474874 C -1.81853,-3.131218 -0.928211,-3.5 0,-3.5 Z"
         style="fill:none;stroke:#dc143c;stroke-width:1;stroke-linecap:butt;stroke-linejoin:round;stroke-miterlimit:10;stroke-dasharray:none;stroke-opacity:1"
         transform="matrix(1.3333333,0,0,-1.3333333,394.5247,113.1519)"
         clip-path="url(#clipPath67)"
         id="path68" />
    </g>
    <g
       id="g71"
       clip-path="url(#clipPath72)">
      <path
         d="m 0,-3.5 c 0.928211,0 1.81853,0.368782 2.474874,1.025126 C 3.131218,-1.81853 3.5,-0.928211 3.5,0 3.5,0.928211 3.131218,1.81853 2.474874,2.474874 1.81853,3.131218 0.928211,3.5 0,3.5 -0.928211,3.5 -1.81853,3.131218 -2.474874,2.474874 -3.131218,1.81853 -3.5,0.928211 -3.5,0 c 0,-0.928211 0.368782,-1.81853 1.025126,-2.474874 C -1.81853,-3.131218 -0.928211,-3.5 0,-3.5 Z"
         style="fill:none;stroke:#dc143c;stroke-width:1;stroke-linecap:butt;stroke-linejoin:round;stroke-miterlimit:10;stroke-dasharray:none;stroke-opacity:1"
         transform="matrix(1.3333333,0,0,-1.3333333,410.63396,94.197818)"
         clip-path="url(#clipPath70)"
         id="path71" />
    </g>
    <g
       id="g74"
       clip-path="url(#clipPath75)">
      <path
         d="m 0,-3.5 c 0.928211,0 1.81853,0.368782 2.474874,1.025126 C 3.131218,-1.81853 3.5,-0.928211 3.5,0 3.5,0.928211 3.131218,1.81853 2.474874,2.474874 1.81853,3.131218 0.928211,3.5 0,3.5 -0.928211,3.5 -1.81853,3.131218 -2.474874,2.474874 -3.131218,1.81853 -3.5,0.928211 -3.5,0 c 0,-0.928211 0.368782,-1.81853 1.025126,-2.474874 C -1.81853,-3.131218 -0.928211,-3.5 0,-3.5 Z"
         style="fill:none;stroke:#dc143c;stroke-width:1;stroke-linecap:butt;stroke-linejoin:round;stroke-miterlimit:10;stroke-dasharray:none;stroke-opacity:1"
         transform="matrix(1.3333333,0,0,-1.3333333,430.92923,73.888774)"
         clip-path="url(#clipPath73)"
         id="path74" />
    </g>
    <g
       id="g77"
       clip-path="url(#clipPath78)">
      <path
         d="m 0,-3.5 c 0.928211,0 1.81853,0.368782 2.474874,1.025126 C 3.131218,-1.81853 3.5,-0.928211 3.5,0 3.5,0.928211 3.131218,1.81853 2.474874,2.474874 1.81853,3.131218 0.928211,3.5 0,3.5 -0.928211,3.5 -1.81853,3.131218 -2.474874,2.474874 -3.131218,1.81853 -3.5,0.928211 -3.5,0 c 0,-0.928211 0.368782,-1.81853 1.025126,-2.474874 C -1.81853,-3.131218 -0.928211,-3.5 0,-3.5 Z"
         style="fill:none;stroke:#dc143c;stroke-width:1;stroke-linecap:butt;stroke-linejoin:round;stroke-miterlimit:10;stroke-dasharray:none;stroke-opacity:1"
         transform="matrix(1.3333333,0,0,-1.3333333,458.46819,55.002325)"
         clip-path="url(#clipPath76)"
         id="path77" />
    </g>
    <g
       id="g80"
       clip-path="url(#clipPath81)">
      <path
         d="m 0,-3.5 c 0.928211,0 1.81853,0.368782 2.474874,1.025126 C 3.131218,-1.81853 3.5,-0.928211 3.5,0 3.5,0.928211 3.131218,1.81853 2.474874,2.474874 1.81853,3.131218 0.928211,3.5 0,3.5 -0.928211,3.5 -1.81853,3.131218 -2.474874,2.474874 -3.131218,1.81853 -3.5,0.928211 -3.5,0 c 0,-0.928211 0.368782,-1.81853 1.025126,-2.474874 C -1.81853,-3.131218 -0.928211,-3.5 0,-3.5 Z"
         style="fill:none;stroke:#dc143c;stroke-width:1;stroke-linecap:butt;stroke-linejoin:round;stroke-miterlimit:10;stroke-dasharray:none;stroke-opacity:1"
         transform="matrix(1.3333333,0,0,-1.3333333,494.87271,43.631768)"
         clip-path="url(#clipPath79)"
         id="path80" />
    </g>
    <g
       id="g83"
       clip-path="url(#clipPath84)">
      <path
         d="m 0,-3.5 c 0.928211,0 1.81853,0.368782 2.474874,1.025126 C 3.131218,-1.81853 3.5,-0.928211 3.5,0 3.5,0.928211 3.131218,1.81853 2.474874,2.474874 1.81853,3.131218 0.928211,3.5 0,3.5 -0.928211,3.5 -1.81853,3.131218 -2.474874,2.474874 -3.131218,1.81853 -3.5,0.928211 -3.5,0 c 0,-0.928211 0.368782,-1.81853 1.025126,-2.474874 C -1.81853,-3.131218 -0.928211,-3.5 0,-3.5 Z"
         style="fill:none;stroke:#dc143c;stroke-width:1;stroke-linecap:butt;stroke-linejoin:round;stroke-miterlimit:10;stroke-dasharray:none;stroke-opacity:1"
         transform="matrix(1.3333333,0,0,-1.3333333,522.41167,40.967237)"
         clip-path="url(#clipPath82)"
         id="path83" />
    </g>
    <g
       id="g86"
       clip-path="url(#clipPath87)">
      <path
         d="m 0,-3.5 c 0.928211,0 1.81853,0.368782 2.474874,1.025126 C 3.131218,-1.81853 3.5,-0.928211 3.5,0 3.5,0.928211 3.131218,1.81853 2.474874,2.474874 1.81853,3.131218 0.928211,3.5 0,3.5 -0.928211,3.5 -1.81853,3.131218 -2.474874,2.474874 -3.131218,1.81853 -3.5,0.928211 -3.5,0 c 0,-0.928211 0.368782,-1.81853 1.025126,-2.474874 C -1.81853,-3.131218 -0.928211,-3.5 0,-3.5 Z"
         style="fill:none;stroke:#dc143c;stroke-width:1;stroke-linecap:butt;stroke-linejoin:round;stroke-miterlimit:10;stroke-dasharray:none;stroke-opacity:1"
         transform="matrix(1.3333333,0,0,-1.3333333,538.52093,40.478743)"
         clip-path="url(#clipPath85)"
         id="path86" />
    </g>
    <g
       id="g89"
       clip-path="url(#clipPath90)">
      <path
         d="m 0,-3.5 c 0.928211,0 1.81853,0.368782 2.474874,1.025126 C 3.131218,-1.81853 3.5,-0.928211 3.5,0 3.5,0.928211 3.131218,1.81853 2.474874,2.474874 1.81853,3.131218 0.928211,3.5 0,3.5 -0.928211,3.5 -1.81853,3.131218 -2.474874,2.474874 -3.131218,1.81853 -3.5,0.928211 -3.5,0 c 0,-0.928211 0.368782,-1.81853 1.025126,-2.474874 C -1.81853,-3.131218 -0.928211,-3.5 0,-3.5 Z"
         style="fill:none;stroke:#dc143c;stroke-width:1;stroke-linecap:butt;stroke-linejoin:round;stroke-miterlimit:10;stroke-dasharray:none;stroke-opacity:1"
         transform="matrix(1.3333333,0,0,-1.3333333,549.95063,40.391933)"
         clip-path="url(#clipPath88)"
         id="path89" />
    </g>
    <g
       id="g92"
       clip-path="url(#clipPath93)">
      <path
         d="m 0,-3.5 c 0.928211,0 1.81853,0.368782 2.474874,1.025126 C 3.131218,-1.81853 3.5,-0.928211 3.5,0 3.5,0.928211 3.131218,1.81853 2.474874,2.474874 1.81853,3.131218 0.928211,3.5 0,3.5 -0.928211,3.5 -1.81853,3.131218 -2.474874,2.474874 -3.131218,1.81853 -3.5,0.928211 -3.5,0 c 0,-0.928211 0.368782,-1.81853 1.025126,-2.474874 C -1.81853,-3.131218 -0.928211,-3.5 0,-3.5 Z"
         style="fill:#dc143c;fill-opacity:0.3;fill-rule:nonzero;stroke:#dc143c;stroke-width:1;stroke-linecap:butt;stroke-linejoin:round;stroke-miterlimit:10;stroke-dasharray:none;stroke-opacity:0.3"
         transform="matrix(1.3333333,0,0,-1.3333333,92.538405,231.51702)"
         clip-path="url(#clipPath91)"
         id="path92" />
    </g>
    <g
       id="g95"
       clip-path="url(#clipPath96)">
      <path
         d="m 0,-3.5 c 0.928211,0 1.81853,0.368782 2.474874,1.025126 C 3.131218,-1.81853 3.5,-0.928211 3.5,0 3.5,0.928211 3.131218,1.81853 2.474874,2.474874 1.81853,3.131218 0.928211,3.5 0,3.5 -0.928211,3.5 -1.81853,3.131218 -2.474874,2.474874 -3.131218,1.81853 -3.5,0.928211 -3.5,0 c 0,-0.928211 0.368782,-1.81853 1.025126,-2.474874 C -1.81853,-3.131218 -0.928211,-3.5 0,-3.5 Z"
         style="fill:#dc143c;fill-opacity:0.3;fill-rule:nonzero;stroke:#dc143c;stroke-width:1;stroke-linecap:butt;stroke-linejoin:round;stroke-miterlimit:10;stroke-dasharray:none;stroke-opacity:0.3"
         transform="matrix(1.3333333,0,0,-1.3333333,184.02085,230.14041)"
         clip-path="url(#clipPath94)"
         id="path95" />
    </g>
    <g
       id="g98"
       clip-path="url(#clipPath99)">
      <path
         d="m 0,-3.5 c 0.928211,0 1.81853,0.368782 2.474874,1.025126 C 3.131218,-1.81853 3.5,-0.928211 3.5,0 3.5,0.928211 3.131218,1.81853 2.474874,2.474874 1.81853,3.131218 0.928211,3.5 0,3.5 -0.928211,3.5 -1.81853,3.131218 -2.474874,2.474874 -3.131218,1.81853 -3.5,0.928211 -3.5,0 c 0,-0.928211 0.368782,-1.81853 1.025126,-2.474874 C -1.81853,-3.131218 -0.928211,-3.5 0,-3.5 Z"
         style="fill:#dc143c;fill-opacity:0.3;fill-rule:nonzero;stroke:#dc143c;stroke-width:1;stroke-linecap:butt;stroke-linejoin:round;stroke-miterlimit:10;stroke-dasharray:none;stroke-opacity:0.3"
         transform="matrix(1.3333333,0,0,-1.3333333,275.5033,217.45922)"
         clip-path="url(#clipPath97)"
         id="path98" />
    </g>
    <g
       id="g101"
       clip-path="url(#clipPath102)">
      <path
         d="m 0,-3.5 c 0.928211,0 1.81853,0.368782 2.474874,1.025126 C 3.131218,-1.81853 3.5,-0.928211 3.5,0 3.5,0.928211 3.131218,1.81853 2.474874,2.474874 1.81853,3.131218 0.928211,3.5 0,3.5 -0.928211,3.5 -1.81853,3.131218 -2.474874,2.474874 -3.131218,1.81853 -3.5,0.928211 -3.5,0 c 0,-0.928211 0.368782,-1.81853 1.025126,-2.474874 C -1.81853,-3.131218 -0.928211,-3.5 0,-3.5 Z"
         style="fill:#dc143c;fill-opacity:0.3;fill-rule:nonzero;stroke:#dc143c;stroke-width:1;stroke-linecap:butt;stroke-linejoin:round;stroke-miterlimit:10;stroke-dasharray:none;stroke-opacity:0.3"
         transform="matrix(1.3333333,0,0,-1.3333333,339.44678,177.47053)"
         clip-path="url(#clipPath100)"
         id="path101" />
    </g>
    <g
       id="g104"
       clip-path="url(#clipPath105)">
      <path
         d="m 0,-3.5 c 0.928211,0 1.81853,0.368782 2.474874,1.025126 C 3.131218,-1.81853 3.5,-0.928211 3.5,0 3.5,0.928211 3.131218,1.81853 2.474874,2.474874 1.81853,3.131218 0.928211,3.5 0,3.5 -0.928211,3.5 -1.81853,3.131218 -2.474874,2.474874 -3.131218,1.81853 -3.5,0.928211 -3.5,0 c 0,-0.928211 0.368782,-1.81853 1.025126,-2.474874 C -1.81853,-3.131218 -0.928211,-3.5 0,-3.5 Z"
         style="fill:#dc143c;fill-opacity:0.3;fill-rule:nonzero;stroke:#dc143c;stroke-width:1;stroke-linecap:butt;stroke-linejoin:round;stroke-miterlimit:10;stroke-dasharray:none;stroke-opacity:0.3"
         transform="matrix(1.3333333,0,0,-1.3333333,366.98574,147.20818)"
         clip-path="url(#clipPath103)"
         id="path104" />
    </g>
    <g
       id="g107"
       clip-path="url(#clipPath108)">
      <path
         d="m 0,-3.5 c 0.928211,0 1.81853,0.368782 2.474874,1.025126 C 3.131218,-1.81853 3.5,-0.928211 3.5,0 3.5,0.928211 3.131218,1.81853 2.474874,2.474874 1.81853,3.131218 0.928211,3.5 0,3.5 -0.928211,3.5 -1.81853,3.131218 -2.474874,2.474874 -3.131218,1.81853 -3.5,0.928211 -3.5,0 c 0,-0.928211 0.368782,-1.81853 1.025126,-2.474874 C -1.81853,-3.131218 -0.928211,-3.5 0,-3.5 Z"
         style="fill:#dc143c;fill-opacity:0.3;fill-rule:nonzero;stroke:#dc143c;stroke-width:1;stroke-linecap:butt;stroke-linejoin:round;stroke-miterlimit:10;stroke-dasharray:none;stroke-opacity:0.3"
         transform="matrix(1.3333333,0,0,-1.3333333,394.5247,113.1519)"
         clip-path="url(#clipPath106)"
         id="path107" />
    </g>
    <g
       id="g110"
       clip-path="url(#clipPath111)">
      <path
         d="m 0,-3.5 c 0.928211,0 1.81853,0.368782 2.474874,1.025126 C 3.131218,-1.81853 3.5,-0.928211 3.5,0 3.5,0.928211 3.131218,1.81853 2.474874,2.474874 1.81853,3.131218 0.928211,3.5 0,3.5 -0.928211,3.5 -1.81853,3.131218 -2.474874,2.474874 -3.131218,1.81853 -3.5,0.928211 -3.5,0 c 0,-0.928211 0.368782,-1.81853 1.025126,-2.474874 C -1.81853,-3.131218 -0.928211,-3.5 0,-3.5 Z"
         style="fill:#dc143c;fill-opacity:0.3;fill-rule:nonzero;stroke:#dc143c;stroke-width:1;stroke-linecap:butt;stroke-linejoin:round;stroke-miterlimit:10;stroke-dasharray:none;stroke-opacity:0.3"
         transform="matrix(1.3333333,0,0,-1.3333333,410.63396,94.197818)"
         clip-path="url(#clipPath109)"
         id="path110" />
    </g>
    <g
       id="g113"
       clip-path="url(#clipPath114)">
      <path
         d="m 0,-3.5 c 0.928211,0 1.81853,0.368782 2.474874,1.025126 C 3.131218,-1.81853 3.5,-0.928211 3.5,0 3.5,0.928211 3.131218,1.81853 2.474874,2.474874 1.81853,3.131218 0.928211,3.5 0,3.5 -0.928211,3.5 -1.81853,3.131218 -2.474874,2.474874 -3.131218,1.81853 -3.5,0.928211 -3.5,0 c 0,-0.928211 0.368782,-1.81853 1.025126,-2.474874 C -1.81853,-3.131218 -0.928211,-3.5 0,-3.5 Z"
         style="fill:#dc143c;fill-opacity:0.3;fill-rule:nonzero;stroke:#dc143c;stroke-width:1;stroke-linecap:butt;stroke-linejoin:round;stroke-miterlimit:10;stroke-dasharray:none;stroke-opacity:0.3"
         transform="matrix(1.3333333,0,0,-1.3333333,430.92923,73.888774)"
         clip-path="url(#clipPath112)"
         id="path113" />
    </g>
    <g
       id="g116"
       clip-path="url(#clipPath117)">
      <path
         d="m 0,-3.5 c 0.928211,0 1.81853,0.368782 2.474874,1.025126 C 3.131218,-1.81853 3.5,-0.928211 3.5,0 3.5,0.928211 3.131218,1.81853 2.474874,2.474874 1.81853,3.131218 0.928211,3.5 0,3.5 -0.928211,3.5 -1.81853,3.131218 -2.474874,2.474874 -3.131218,1.81853 -3.5,0.928211 -3.5,0 c 0,-0.928211 0.368782,-1.81853 1.025126,-2.474874 C -1.81853,-3.131218 -0.928211,-3.5 0,-3.5 Z"
         style="fill:#dc143c;fill-opacity:0.3;fill-rule:nonzero;stroke:#dc143c;stroke-width:1;stroke-linecap:butt;stroke-linejoin:round;stroke-miterlimit:10;stroke-dasharray:none;stroke-opacity:0.3"
         transform="matrix(1.3333333,0,0,-1.3333333,458.46819,55.002325)"
         clip-path="url(#clipPath115)"
         id="path116" />
    </g>
    <g
       id="g119"
       clip-path="url(#clipPath120)">
      <path
         d="m 0,-3.5 c 0.928211,0 1.81853,0.368782 2.474874,1.025126 C 3.131218,-1.81853 3.5,-0.928211 3.5,0 3.5,0.928211 3.131218,1.81853 2.474874,2.474874 1.81853,3.131218 0.928211,3.5 0,3.5 -0.928211,3.5 -1.81853,3.131218 -2.474874,2.474874 -3.131218,1.81853 -3.5,0.928211 -3.5,0 c 0,-0.928211 0.368782,-1.81853 1.025126,-2.474874 C -1.81853,-3.131218 -0.928211,-3.5 0,-3.5 Z"
         style="fill:#dc143c;fill-opacity:0.3;fill-rule:nonzero;stroke:#dc143c;stroke-width:1;stroke-linecap:butt;stroke-linejoin:round;stroke-miterlimit:10;stroke-dasharray:none;stroke-opacity:0.3"
         transform="matrix(1.3333333,0,0,-1.3333333,494.87271,43.631768)"
         clip-path="url(#clipPath118)"
         id="path119" />
    </g>
    <g
       id="g122"
       clip-path="url(#clipPath123)">
      <path
         d="m 0,-3.5 c 0.928211,0 1.81853,0.368782 2.474874,1.025126 C 3.131218,-1.81853 3.5,-0.928211 3.5,0 3.5,0.928211 3.131218,1.81853 2.474874,2.474874 1.81853,3.131218 0.928211,3.5 0,3.5 -0.928211,3.5 -1.81853,3.131218 -2.474874,2.474874 -3.131218,1.81853 -3.5,0.928211 -3.5,0 c 0,-0.928211 0.368782,-1.81853 1.025126,-2.474874 C -1.81853,-3.131218 -0.928211,-3.5 0,-3.5 Z"
         style="fill:#dc143c;fill-opacity:0.3;fill-rule:nonzero;stroke:#dc143c;stroke-width:1;stroke-linecap:butt;stroke-linejoin:round;stroke-miterlimit:10;stroke-dasharray:none;stroke-opacity:0.3"
         transform="matrix(1.3333333,0,0,-1.3333333,522.41167,40.967237)"
         clip-path="url(#clipPath121)"
         id="path122" />
    </g>
    <g
       id="g125"
       clip-path="url(#clipPath126)">
      <path
         d="m 0,-3.5 c 0.928211,0 1.81853,0.368782 2.474874,1.025126 C 3.131218,-1.81853 3.5,-0.928211 3.5,0 3.5,0.928211 3.131218,1.81853 2.474874,2.474874 1.81853,3.131218 0.928211,3.5 0,3.5 -0.928211,3.5 -1.81853,3.131218 -2.474874,2.474874 -3.131218,1.81853 -3.5,0.928211 -3.5,0 c 0,-0.928211 0.368782,-1.81853 1.025126,-2.474874 C -1.81853,-3.131218 -0.928211,-3.5 0,-3.5 Z"
         style="fill:#dc143c;fill-opacity:0.3;fill-rule:nonzero;stroke:#dc143c;stroke-width:1;stroke-linecap:butt;stroke-linejoin:round;stroke-miterlimit:10;stroke-dasharray:none;stroke-opacity:0.3"
         transform="matrix(1.3333333,0,0,-1.3333333,538.52093,40.478743)"
         clip-path="url(#clipPath124)"
         id="path125" />
    </g>
    <g
       id="g128"
       clip-path="url(#clipPath129)">
      <path
         d="m 0,-3.5 c 0.928211,0 1.81853,0.368782 2.474874,1.025126 C 3.131218,-1.81853 3.5,-0.928211 3.5,0 3.5,0.928211 3.131218,1.81853 2.474874,2.474874 1.81853,3.131218 0.928211,3.5 0,3.5 -0.928211,3.5 -1.81853,3.131218 -2.474874,2.474874 -3.131218,1.81853 -3.5,0.928211 -3.5,0 c 0,-0.928211 0.368782,-1.81853 1.025126,-2.474874 C -1.81853,-3.131218 -0.928211,-3.5 0,-3.5 Z"
         style="fill:#dc143c;fill-opacity:0.3;fill-rule:nonzero;stroke:#dc143c;stroke-width:1;stroke-linecap:butt;stroke-linejoin:round;stroke-miterlimit:10;stroke-dasharray:none;stroke-opacity:0.3"
         transform="matrix(1.3333333,0,0,-1.3333333,549.95063,40.391933)"
         clip-path="url(#clipPath127)"
         id="path128" />
    </g>
    <path
       id="path130"
       d="M 69.403804,68.025261 V 223.54263"
       style="fill:none;stroke:#000000;stroke-width:0.8;stroke-linecap:square;stroke-linejoin:miter;stroke-miterlimit:10;stroke-dasharray:none;stroke-opacity:1"
       transform="matrix(1.3333333,0,0,-1.3333333,0,327.936)" />
    <path
       id="path131"
       d="M 417.89574,68.025261 V 223.54263"
       style="fill:none;stroke:#000000;stroke-width:0.8;stroke-linecap:square;stroke-linejoin:miter;stroke-miterlimit:10;stroke-dasharray:none;stroke-opacity:1"
       transform="matrix(1.3333333,0,0,-1.3333333,0,327.936)" />
    <path
       id="path132"
       d="M 69.403804,68.025261 H 417.89574"
       style="fill:none;stroke:#000000;stroke-width:0.8;stroke-linecap:square;stroke-linejoin:miter;stroke-miterlimit:10;stroke-dasharray:none;stroke-opacity:1"
       transform="matrix(1.3333333,0,0,-1.3333333,0,327.936)" />
    <path
       id="path133"
       d="M 69.403804,223.54263 H 417.89574"
       style="fill:none;stroke:#000000;stroke-width:0.8;stroke-linecap:square;stroke-linejoin:miter;stroke-miterlimit:10;stroke-dasharray:none;stroke-opacity:1"
       transform="matrix(1.3333333,0,0,-1.3333333,0,327.936)" />
  </g>
</svg>
