<?xml version="1.0" encoding="UTF-8" standalone="no"?>
<!-- Created with Inkscape (http://www.inkscape.org/) -->

<svg
   width="49.841705mm"
   height="51.633823mm"
   viewBox="0 0 49.841705 51.633823"
   version="1.1"
   id="svg78367"
   inkscape:version="1.3 (0e150ed6c4, 2023-07-21)"
   sodipodi:docname="SOC_model.svg"
   xmlns:inkscape="http://www.inkscape.org/namespaces/inkscape"
   xmlns:sodipodi="http://sodipodi.sourceforge.net/DTD/sodipodi-0.dtd"
   xmlns="http://www.w3.org/2000/svg"
   xmlns:svg="http://www.w3.org/2000/svg">
  <sodipodi:namedview
     id="namedview78369"
     pagecolor="#ffffff"
     bordercolor="#666666"
     borderopacity="1.0"
     inkscape:pageshadow="2"
     inkscape:pageopacity="0.0"
     inkscape:pagecheckerboard="true"
     inkscape:document-units="mm"
     showgrid="false"
     fit-margin-top="0"
     fit-margin-left="0"
     fit-margin-right="0"
     fit-margin-bottom="0"
     inkscape:zoom="2.5620931"
     inkscape:cx="118.65299"
     inkscape:cy="78.256329"
     inkscape:window-width="1920"
     inkscape:window-height="1003"
     inkscape:window-x="0"
     inkscape:window-y="0"
     inkscape:window-maximized="1"
     inkscape:current-layer="g786420"
     showguides="true"
     inkscape:guide-bbox="true"
     inkscape:showpageshadow="2"
     inkscape:deskcolor="#d1d1d1" />
  <defs
     id="defs78364">
    <marker
       style="overflow:visible"
       id="TriangleOutM"
       refX="0"
       refY="0"
       orient="auto"
       inkscape:stockid="TriangleOutM"
       inkscape:isstock="true">
      <path
         transform="scale(0.4)"
         style="fill:context-stroke;fill-rule:evenodd;stroke:context-stroke;stroke-width:1pt"
         d="M 5.77,0 -2.88,5 V -5 Z"
         id="path104778" />
    </marker>
  </defs>
  <g
     inkscape:label="Capa 1"
     inkscape:groupmode="layer"
     id="layer1"
     transform="translate(-62.705316,-99.196416)">
    <g
       inkscape:label=""
       transform="translate(-731.98234,134.59467)"
       id="g786420"
       style="display:inline">
      <path
         style="display:inline;fill:none;stroke:#000000;stroke-width:0.33095;stroke-linecap:butt;stroke-linejoin:miter;stroke-miterlimit:4;stroke-dasharray:none;stroke-opacity:1"
         d="m 804.91662,-8.81577 h 11.89183"
         id="path786274"
         sodipodi:nodetypes="cc" />
      <path
         style="display:inline;fill:none;stroke:#000000;stroke-width:0.33095;stroke-linecap:butt;stroke-linejoin:miter;stroke-miterlimit:4;stroke-dasharray:none;stroke-opacity:1"
         d="m 804.91662,-22.42432 h 11.89183"
         id="path786282"
         sodipodi:nodetypes="cc" />
      <path
         id="path786284"
         style="display:inline;fill:#ffffff;stroke:#000000;stroke-width:0.992849;stroke-miterlimit:4;stroke-dasharray:none"
         d="m 826.8294,-34.880883 c 0,0 0,0 0,0" />
      <path
         id="path786714"
         style="display:inline;fill:none;stroke:#000000;stroke-width:0.992849;stroke-miterlimit:4;stroke-dasharray:none"
         d="m 794.79984,-35.473991 c 0.34146,0.0112 0.6829,0.16422 1.02419,0.45799 0.7089,0.61018 1.41779,1.8333 2.1267,3.56352 0.70955,1.73296 1.41845,3.97025 2.12734,6.53076 0.70889,2.56048 1.41845,5.44137 2.12735,8.40303 0.70889,2.95892 1.41778,5.99864 2.12667,8.86278 0.70956,2.86419 1.41845,5.55006 2.12735,7.83470997 0.70889,2.28743003 1.41778,4.17086003 2.12734,5.49709003 0.7089,1.32619 1.41779,2.08962 2.1267,2.2317 0.70889,0.14208 1.41845,-0.33991 2.12734,-1.40425 0.70889,-1.06428 1.41778,-2.7137 2.12734,-4.8061 0.70889,-2.09240003 1.41779,-4.6306 2.12668,-7.4028 0.70889,-2.76948 1.41845,-5.77295 2.12735,-8.75414 0.70889,-2.984 1.41778,-5.94566 2.12668,-8.63989 0.70956,-2.69422 1.41845,-5.12096 2.12735,-7.07406 0.70889,-1.95588 1.41845,-3.43532 2.12734,-4.32411 0.44056,-0.55062 0.88112,-0.87098 1.32168,-0.95501" />
      <g
         id="g786290"
         transform="matrix(-0.66189971,0,0,-0.66189971,858.6488,173.71823)"
         style="display:inline;fill:#0000ff;stroke:#ffffff">
        <circle
           style="fill:#0000ff;stroke:#ffffff;stroke-width:0.165462"
           id="circle786286"
           cx="72.195625"
           cy="275.77292"
           r="5.5266948" />
        <g
           id="path786288"
           style="fill:#ffffff">
          <path
             style="color:#000000;fill:#ffffff;stroke:none;stroke-width:0.7;-inkscape-stroke:none"
             d="m 72.195625,280.19906 v -6.86369"
             id="path643936" />
          <path
             style="color:#000000;fill:#ffffff;stroke:none;-inkscape-stroke:none"
             d="m 71.845703,273.33594 v 6.86328 h 0.699219 v -6.86328 z"
             id="path643938" />
          <g
             id="g643923"
             style="fill:#ffffff">
            <g
               id="path643926"
               style="fill:#ffffff">
              <path
                 style="color:#000000;fill:#ffffff;fill-rule:evenodd;stroke:none;stroke-width:0.28pt;-inkscape-stroke:none"
                 d="m 72.195625,271.71977 1.4,2.422 h -2.8 z"
                 id="path643930" />
              <path
                 style="color:#000000;fill:#ffffff;fill-rule:evenodd;stroke:none;-inkscape-stroke:none"
                 d="m 72.195312,271.34766 -0.162109,0.27929 -1.560547,2.70117 h 3.447266 z m 0,0.74609 1.076172,1.86133 h -2.152343 z"
                 id="path643932" />
            </g>
          </g>
        </g>
      </g>
      <g
         id="use786336"
         style="fill:#000000;fill-opacity:1"
         transform="matrix(0.66189971,0,0,0.66189971,809.59562,14.880744)">
        <path
           style="stroke:none;fill:#000000"
           d="m 3.953125,-6.234375 c 0,-0.1875 -0.140625,-0.359375 -0.375,-0.359375 -0.234375,0 -0.53125,0.234375 -0.53125,0.53125 0,0.203125 0.140625,0.359375 0.375,0.359375 0.265625,0 0.53125,-0.265625 0.53125,-0.53125 z m -2,6.734375 c -0.1875,0.75 -0.671875,1.328125 -1.21875,1.328125 -0.0625,0 -0.21875,0 -0.390625,-0.09375 0.296875,-0.0625 0.4375,-0.328125 0.4375,-0.53125 0,-0.15625 -0.109375,-0.34375 -0.375,-0.34375 -0.25,0 -0.53125,0.203125 -0.53125,0.5625 0,0.40625 0.390625,0.625 0.875,0.625 0.703125,0 1.625,-0.53125 1.875,-1.515625 L 3.53125,-3.125 c 0.0625,-0.1875 0.0625,-0.328125 0.0625,-0.359375 0,-0.578125 -0.421875,-0.921875 -0.921875,-0.921875 -1.015625,0 -1.578125,1.453125 -1.578125,1.53125 0,0.109375 0.09375,0.109375 0.109375,0.109375 0.09375,0 0.109375,-0.015625 0.1875,-0.203125 0.25,-0.609375 0.703125,-1.21875 1.25,-1.21875 0.140625,0 0.3125,0.046875 0.3125,0.453125 0,0.234375 -0.015625,0.34375 -0.0625,0.515625 z m 0,0"
           id="path79270" />
      </g>
      <path
         style="fill:none;stroke:#000000;stroke-width:0.565;stroke-linecap:butt;stroke-linejoin:miter;stroke-miterlimit:4;stroke-dasharray:none;stroke-opacity:1;marker-end:url(#TriangleOutM)"
         d="M 810.86254,-13.77104 V -19.1781"
         id="path786386"
         sodipodi:nodetypes="cc" />
      <path
         style="fill:#000000;fill-opacity:1;stroke:none"
         d="m 828.95202,-15.489784 h -0.25 c -0.0469,0.25 -0.0937,0.484375 -0.1875,0.71875 -0.0469,0.15625 -0.0781,0.25 -0.65625,0.25 h -0.79687 c 0.14062,-0.5625 0.4375,-1.046875 0.89062,-1.703125 0.46875,-0.703125 0.875,-1.390625 0.875,-2.1875 0,-1.375 -1.34375,-2.5 -3.03125,-2.5 -1.70312,0 -3.03125,1.140625 -3.03125,2.5 0,0.796875 0.40625,1.484375 0.875,2.1875 0.4375,0.65625 0.75,1.140625 0.89063,1.703125 h -0.79688 c -0.57812,0 -0.60937,-0.09375 -0.65625,-0.234375 -0.0937,-0.234375 -0.14062,-0.484375 -0.1875,-0.734375 h -0.25 l 0.32813,1.609375 h 1.59375 c 0.21875,0 0.25,0 0.25,-0.203125 0,-0.703125 -0.3125,-1.578125 -0.53125,-2.21875 -0.21875,-0.578125 -0.5,-1.359375 -0.5,-2.109375 0,-1.59375 1.10937,-2.28125 2.01562,-2.28125 0.95313,0 2.01563,0.71875 2.01563,2.28125 0,0.75 -0.28125,1.5 -0.5625,2.3125 -0.15625,0.421875 -0.46875,1.328125 -0.46875,2.015625 0,0.203125 0.0312,0.203125 0.25,0.203125 h 1.59375 z m 0,0"
         id="path78630" />
      <path
         style="fill:#000000;fill-opacity:1;stroke:none"
         d="m 831.2574,-16.177284 c 0.29687,0 1.03125,-0.03125 1.53125,-0.234375 0.70312,-0.296875 0.75,-0.890625 0.75,-1.03125 0,-0.4375 -0.375,-0.84375 -1.0625,-0.84375 -1.10938,0 -2.625,0.96875 -2.625,2.71875 0,1.015625 0.59375,1.796875 1.57812,1.796875 1.42188,0 2.25,-1.0625 2.25,-1.171875 0,-0.0625 -0.0469,-0.140625 -0.10937,-0.140625 -0.0625,0 -0.0781,0.03125 -0.14063,0.109375 -0.78125,0.984375 -1.875,0.984375 -1.98437,0.984375 -0.78125,0 -0.875,-0.84375 -0.875,-1.15625 0,-0.125 0.0156,-0.421875 0.15625,-1.03125 z m -0.46875,-0.21875 c 0.39062,-1.515625 1.42187,-1.671875 1.6875,-1.671875 0.45312,0 0.73437,0.296875 0.73437,0.625 0,1.046875 -1.59375,1.046875 -2.01562,1.046875 z m 0,0"
         id="path78634" />
      <path
         style="fill:#000000;fill-opacity:1;stroke:none"
         d="m 836.30165,-21.854781 c 0,-0.109375 -0.0937,-0.265625 -0.28125,-0.265625 -0.1875,0 -0.39063,0.1875 -0.39063,0.390625 0,0.109375 0.0781,0.265625 0.28125,0.265625 0.1875,0 0.39063,-0.203125 0.39063,-0.390625 z m -1.42188,3.546875 c -0.0312,0.09375 -0.0625,0.171875 -0.0625,0.296875 0,0.328125 0.26563,0.578125 0.65625,0.578125 0.6875,0 1,-0.953125 1,-1.0625 0,-0.09375 -0.0937,-0.09375 -0.10937,-0.09375 -0.0937,0 -0.10938,0.04687 -0.14063,0.125 -0.15625,0.5625 -0.45312,0.84375 -0.73437,0.84375 -0.14063,0 -0.17188,-0.09375 -0.17188,-0.25 0,-0.15625 0.0469,-0.28125 0.10938,-0.4375 0.0781,-0.1875 0.15625,-0.375 0.21875,-0.5625 0.0625,-0.171875 0.32812,-0.796875 0.34375,-0.890625 0.0312,-0.0625 0.0469,-0.140625 0.0469,-0.21875 0,-0.328125 -0.28125,-0.59375 -0.65625,-0.59375 -0.70312,0 -1.01562,0.953125 -1.01562,1.078125 0,0.07813 0.0937,0.07813 0.125,0.07813 0.0937,0 0.0937,-0.03125 0.125,-0.109375 0.17187,-0.59375 0.48437,-0.84375 0.73437,-0.84375 0.10938,0 0.17188,0.04687 0.17188,0.234375 0,0.171875 -0.0312,0.265625 -0.20313,0.703125 z m 0,0"
         id="path78638" />
      <path
         style="fill:#000000;fill-opacity:1;stroke:none"
         d="m 840.27671,-22.245406 c 0,-0.09375 -0.0781,-0.09375 -0.10938,-0.09375 -0.10937,0 -0.10937,0.04687 -0.14062,0.15625 l -0.39063,1.59375 c -1.23437,0.0625 -2.29687,0.953125 -2.29687,1.875 0,0.796875 0.71875,1.265625 1.5,1.296875 -0.0625,0.21875 -0.10938,0.4375 -0.17188,0.65625 -0.0781,0.328125 -0.14062,0.578125 -0.14062,0.609375 0,0.07813 0.0937,0.07813 0.10937,0.07813 0.10938,0 0.10938,-0.01563 0.15625,-0.171875 l 0.28125,-1.171875 c 1.20313,-0.04687 2.29688,-0.921875 2.29688,-1.875 0,-0.71875 -0.64063,-1.25 -1.5,-1.28125 z m -1.39063,4.625 c -0.54687,-0.01563 -1.03125,-0.3125 -1.03125,-0.96875 0,-0.703125 0.53125,-1.6875 1.71875,-1.796875 z m 0.9375,-2.765625 c 0.53125,0.03125 1.03125,0.3125 1.03125,0.984375 0,0.75 -0.59375,1.6875 -1.73437,1.78125 z m 0,0"
         id="path78642" />
      <path
         style="fill:#000000;fill-opacity:1;stroke:none"
         d="m 844.52936,-21.854781 c 0,-0.109375 -0.0937,-0.265625 -0.28125,-0.265625 -0.20312,0 -0.39062,0.203125 -0.39062,0.390625 0,0.109375 0.0781,0.265625 0.28125,0.265625 0.1875,0 0.39062,-0.1875 0.39062,-0.390625 z m -1.48437,4.703125 c -0.10938,0.484375 -0.48438,0.875 -0.89063,0.875 -0.0937,0 -0.17187,0 -0.25,-0.03125 0.17188,-0.09375 0.23438,-0.25 0.23438,-0.359375 0,-0.171875 -0.14063,-0.25 -0.28125,-0.25 -0.20313,0 -0.39063,0.1875 -0.39063,0.40625 0,0.265625 0.26563,0.4375 0.6875,0.4375 0.42188,0 1.23438,-0.25 1.45313,-1.09375 l 0.625,-2.5 c 0.0156,-0.07813 0.0312,-0.140625 0.0312,-0.25 0,-0.375 -0.32813,-0.65625 -0.73438,-0.65625 -0.78125,0 -1.21875,0.96875 -1.21875,1.078125 0,0.07813 0.0937,0.07813 0.10938,0.07813 0.0781,0 0.0937,-0.01563 0.14062,-0.125 0.17188,-0.40625 0.53125,-0.828125 0.9375,-0.828125 0.17188,0 0.23438,0.109375 0.23438,0.34375 0,0.07813 0,0.171875 -0.0156,0.203125 z m 0,0"
         id="path78646" />
    </g>
  </g>
</svg>
