<?xml version="1.0" encoding="UTF-8" standalone="no"?>
<svg
   width="720pt"
   height="432pt"
   viewBox="0 0 720 432"
   version="1.1"
   id="svg94"
   sodipodi:docname="squeezing_perturbation_level_N16.svg"
   inkscape:version="1.4 (e7c3feb100, 2024-10-09)"
   xmlns:inkscape="http://www.inkscape.org/namespaces/inkscape"
   xmlns:sodipodi="http://sodipodi.sourceforge.net/DTD/sodipodi-0.dtd"
   xmlns:xlink="http://www.w3.org/1999/xlink"
   xmlns="http://www.w3.org/2000/svg"
   xmlns:svg="http://www.w3.org/2000/svg"
   xmlns:rdf="http://www.w3.org/1999/02/22-rdf-syntax-ns#"
   xmlns:cc="http://creativecommons.org/ns#"
   xmlns:dc="http://purl.org/dc/elements/1.1/">
  <sodipodi:namedview
     id="namedview94"
     pagecolor="#ffffff"
     bordercolor="#000000"
     borderopacity="0.25"
     inkscape:showpageshadow="2"
     inkscape:pageopacity="0.0"
     inkscape:pagecheckerboard="0"
     inkscape:deskcolor="#d1d1d1"
     inkscape:document-units="pt"
     inkscape:zoom="0.91145833"
     inkscape:cx="480"
     inkscape:cy="288"
     inkscape:window-width="1281"
     inkscape:window-height="785"
     inkscape:window-x="0"
     inkscape:window-y="0"
     inkscape:window-maximized="1"
     inkscape:current-layer="axes_1" />
  <metadata
     id="metadata1">
    <rdf:RDF>
      <cc:Work>
        <dc:type
           rdf:resource="http://purl.org/dc/dcmitype/StillImage" />
        <dc:date>2025-04-11T16:20:07.133343</dc:date>
        <dc:format>image/svg+xml</dc:format>
        <dc:creator>
          <cc:Agent>
            <dc:title>Matplotlib v3.10.0, https://matplotlib.org/</dc:title>
          </cc:Agent>
        </dc:creator>
      </cc:Work>
    </rdf:RDF>
  </metadata>
  <defs
     id="defs1">
    <style
       type="text/css"
       id="style1">*{stroke-linejoin: round; stroke-linecap: butt}</style>
  </defs>
  <g
     id="figure_1">
    <g
       id="axes_1">
      <g
         id="matplotlib.axis_1">
        <g
           id="xtick_1">
          <g
             id="line2d_1">
            <defs
               id="defs2">
              <path
                 id="m72600d0692"
                 d="M 0 0  L 0 3.5  "
                 style="stroke: #000000; stroke-width: 0.8" />
            </defs>
            <g
               id="g2">
              <use
                 xlink:href="#m72600d0692"
                 x="90"
                 y="384.48"
                 style="stroke: #000000; stroke-width: 0.8"
                 id="use2" />
            </g>
          </g>
          <g
             id="text_1">
            <!-- 0 -->
            <g
               transform="translate(86.81875 399.078438) scale(0.1 -0.1)"
               id="g3">
              <defs
                 id="defs3">
                <path
                   id="DejaVuSans-30"
                   d="M 2034 4250  Q 1547 4250 1301 3770  Q 1056 3291 1056 2328  Q 1056 1369 1301 889  Q 1547 409 2034 409  Q 2525 409 2770 889  Q 3016 1369 3016 2328  Q 3016 3291 2770 3770  Q 2525 4250 2034 4250  z M 2034 4750  Q 2819 4750 3233 4129  Q 3647 3509 3647 2328  Q 3647 1150 3233 529  Q 2819 -91 2034 -91  Q 1250 -91 836 529  Q 422 1150 422 2328  Q 422 3509 836 4129  Q 1250 4750 2034 4750  z "
                   transform="scale(0.015625)" />
              </defs>
              <use
                 xlink:href="#DejaVuSans-30"
                 id="use3" />
            </g>
          </g>
        </g>
        <g
           id="xtick_2">
          <g
             id="line2d_2">
            <g
               id="g4">
              <use
                 xlink:href="#m72600d0692"
                 x="159.75"
                 y="384.48"
                 style="stroke: #000000; stroke-width: 0.8"
                 id="use4" />
            </g>
          </g>
          <g
             id="text_2">
            <!-- 200 -->
            <g
               transform="translate(150.20625 399.078438) scale(0.1 -0.1)"
               id="g7">
              <defs
                 id="defs4">
                <path
                   id="DejaVuSans-32"
                   d="M 1228 531  L 3431 531  L 3431 0  L 469 0  L 469 531  Q 828 903 1448 1529  Q 2069 2156 2228 2338  Q 2531 2678 2651 2914  Q 2772 3150 2772 3378  Q 2772 3750 2511 3984  Q 2250 4219 1831 4219  Q 1534 4219 1204 4116  Q 875 4013 500 3803  L 500 4441  Q 881 4594 1212 4672  Q 1544 4750 1819 4750  Q 2544 4750 2975 4387  Q 3406 4025 3406 3419  Q 3406 3131 3298 2873  Q 3191 2616 2906 2266  Q 2828 2175 2409 1742  Q 1991 1309 1228 531  z "
                   transform="scale(0.015625)" />
              </defs>
              <use
                 xlink:href="#DejaVuSans-32"
                 id="use5" />
              <use
                 xlink:href="#DejaVuSans-30"
                 transform="translate(63.623047 0)"
                 id="use6" />
              <use
                 xlink:href="#DejaVuSans-30"
                 transform="translate(127.246094 0)"
                 id="use7" />
            </g>
          </g>
        </g>
        <g
           id="xtick_3">
          <g
             id="line2d_3">
            <g
               id="g8">
              <use
                 xlink:href="#m72600d0692"
                 x="229.5"
                 y="384.48"
                 style="stroke: #000000; stroke-width: 0.8"
                 id="use8" />
            </g>
          </g>
          <g
             id="text_3">
            <!-- 400 -->
            <g
               transform="translate(219.95625 399.078438) scale(0.1 -0.1)"
               id="g11">
              <defs
                 id="defs8">
                <path
                   id="DejaVuSans-34"
                   d="M 2419 4116  L 825 1625  L 2419 1625  L 2419 4116  z M 2253 4666  L 3047 4666  L 3047 1625  L 3713 1625  L 3713 1100  L 3047 1100  L 3047 0  L 2419 0  L 2419 1100  L 313 1100  L 313 1709  L 2253 4666  z "
                   transform="scale(0.015625)" />
              </defs>
              <use
                 xlink:href="#DejaVuSans-34"
                 id="use9" />
              <use
                 xlink:href="#DejaVuSans-30"
                 transform="translate(63.623047 0)"
                 id="use10" />
              <use
                 xlink:href="#DejaVuSans-30"
                 transform="translate(127.246094 0)"
                 id="use11" />
            </g>
          </g>
        </g>
        <g
           id="xtick_4">
          <g
             id="line2d_4">
            <g
               id="g12">
              <use
                 xlink:href="#m72600d0692"
                 x="299.25"
                 y="384.48"
                 style="stroke: #000000; stroke-width: 0.8"
                 id="use12" />
            </g>
          </g>
          <g
             id="text_4">
            <!-- 600 -->
            <g
               transform="translate(289.70625 399.078438) scale(0.1 -0.1)"
               id="g15">
              <defs
                 id="defs12">
                <path
                   id="DejaVuSans-36"
                   d="M 2113 2584  Q 1688 2584 1439 2293  Q 1191 2003 1191 1497  Q 1191 994 1439 701  Q 1688 409 2113 409  Q 2538 409 2786 701  Q 3034 994 3034 1497  Q 3034 2003 2786 2293  Q 2538 2584 2113 2584  z M 3366 4563  L 3366 3988  Q 3128 4100 2886 4159  Q 2644 4219 2406 4219  Q 1781 4219 1451 3797  Q 1122 3375 1075 2522  Q 1259 2794 1537 2939  Q 1816 3084 2150 3084  Q 2853 3084 3261 2657  Q 3669 2231 3669 1497  Q 3669 778 3244 343  Q 2819 -91 2113 -91  Q 1303 -91 875 529  Q 447 1150 447 2328  Q 447 3434 972 4092  Q 1497 4750 2381 4750  Q 2619 4750 2861 4703  Q 3103 4656 3366 4563  z "
                   transform="scale(0.015625)" />
              </defs>
              <use
                 xlink:href="#DejaVuSans-36"
                 id="use13" />
              <use
                 xlink:href="#DejaVuSans-30"
                 transform="translate(63.623047 0)"
                 id="use14" />
              <use
                 xlink:href="#DejaVuSans-30"
                 transform="translate(127.246094 0)"
                 id="use15" />
            </g>
          </g>
        </g>
        <g
           id="xtick_5">
          <g
             id="line2d_5">
            <g
               id="g16">
              <use
                 xlink:href="#m72600d0692"
                 x="369"
                 y="384.48"
                 style="stroke: #000000; stroke-width: 0.8"
                 id="use16" />
            </g>
          </g>
          <g
             id="text_5">
            <!-- 800 -->
            <g
               transform="translate(359.45625 399.078438) scale(0.1 -0.1)"
               id="g19">
              <defs
                 id="defs16">
                <path
                   id="DejaVuSans-38"
                   d="M 2034 2216  Q 1584 2216 1326 1975  Q 1069 1734 1069 1313  Q 1069 891 1326 650  Q 1584 409 2034 409  Q 2484 409 2743 651  Q 3003 894 3003 1313  Q 3003 1734 2745 1975  Q 2488 2216 2034 2216  z M 1403 2484  Q 997 2584 770 2862  Q 544 3141 544 3541  Q 544 4100 942 4425  Q 1341 4750 2034 4750  Q 2731 4750 3128 4425  Q 3525 4100 3525 3541  Q 3525 3141 3298 2862  Q 3072 2584 2669 2484  Q 3125 2378 3379 2068  Q 3634 1759 3634 1313  Q 3634 634 3220 271  Q 2806 -91 2034 -91  Q 1263 -91 848 271  Q 434 634 434 1313  Q 434 1759 690 2068  Q 947 2378 1403 2484  z M 1172 3481  Q 1172 3119 1398 2916  Q 1625 2713 2034 2713  Q 2441 2713 2670 2916  Q 2900 3119 2900 3481  Q 2900 3844 2670 4047  Q 2441 4250 2034 4250  Q 1625 4250 1398 4047  Q 1172 3844 1172 3481  z "
                   transform="scale(0.015625)" />
              </defs>
              <use
                 xlink:href="#DejaVuSans-38"
                 id="use17" />
              <use
                 xlink:href="#DejaVuSans-30"
                 transform="translate(63.623047 0)"
                 id="use18" />
              <use
                 xlink:href="#DejaVuSans-30"
                 transform="translate(127.246094 0)"
                 id="use19" />
            </g>
          </g>
        </g>
        <g
           id="xtick_6">
          <g
             id="line2d_6">
            <g
               id="g20">
              <use
                 xlink:href="#m72600d0692"
                 x="438.75"
                 y="384.48"
                 style="stroke: #000000; stroke-width: 0.8"
                 id="use20" />
            </g>
          </g>
          <g
             id="text_6">
            <!-- 1000 -->
            <g
               transform="translate(426.025 399.078438) scale(0.1 -0.1)"
               id="g24">
              <defs
                 id="defs20">
                <path
                   id="DejaVuSans-31"
                   d="M 794 531  L 1825 531  L 1825 4091  L 703 3866  L 703 4441  L 1819 4666  L 2450 4666  L 2450 531  L 3481 531  L 3481 0  L 794 0  L 794 531  z "
                   transform="scale(0.015625)" />
              </defs>
              <use
                 xlink:href="#DejaVuSans-31"
                 id="use21" />
              <use
                 xlink:href="#DejaVuSans-30"
                 transform="translate(63.623047 0)"
                 id="use22" />
              <use
                 xlink:href="#DejaVuSans-30"
                 transform="translate(127.246094 0)"
                 id="use23" />
              <use
                 xlink:href="#DejaVuSans-30"
                 transform="translate(190.869141 0)"
                 id="use24" />
            </g>
          </g>
        </g>
        <g
           id="xtick_7">
          <g
             id="line2d_7">
            <g
               id="g25">
              <use
                 xlink:href="#m72600d0692"
                 x="508.5"
                 y="384.48"
                 style="stroke: #000000; stroke-width: 0.8"
                 id="use25" />
            </g>
          </g>
          <g
             id="text_7">
            <!-- 1200 -->
            <g
               transform="translate(495.775 399.078438) scale(0.1 -0.1)"
               id="g29">
              <use
                 xlink:href="#DejaVuSans-31"
                 id="use26" />
              <use
                 xlink:href="#DejaVuSans-32"
                 transform="translate(63.623047 0)"
                 id="use27" />
              <use
                 xlink:href="#DejaVuSans-30"
                 transform="translate(127.246094 0)"
                 id="use28" />
              <use
                 xlink:href="#DejaVuSans-30"
                 transform="translate(190.869141 0)"
                 id="use29" />
            </g>
          </g>
        </g>
        <g
           id="xtick_8">
          <g
             id="line2d_8">
            <g
               id="g30">
              <use
                 xlink:href="#m72600d0692"
                 x="578.25"
                 y="384.48"
                 style="stroke: #000000; stroke-width: 0.8"
                 id="use30" />
            </g>
          </g>
          <g
             id="text_8">
            <!-- 1400 -->
            <g
               transform="translate(565.525 399.078438) scale(0.1 -0.1)"
               id="g34">
              <use
                 xlink:href="#DejaVuSans-31"
                 id="use31" />
              <use
                 xlink:href="#DejaVuSans-34"
                 transform="translate(63.623047 0)"
                 id="use32" />
              <use
                 xlink:href="#DejaVuSans-30"
                 transform="translate(127.246094 0)"
                 id="use33" />
              <use
                 xlink:href="#DejaVuSans-30"
                 transform="translate(190.869141 0)"
                 id="use34" />
            </g>
          </g>
        </g>
        <g
           id="xtick_9">
          <g
             id="line2d_9">
            <g
               id="g35">
              <use
                 xlink:href="#m72600d0692"
                 x="648"
                 y="384.48"
                 style="stroke: #000000; stroke-width: 0.8"
                 id="use35" />
            </g>
          </g>
          <g
             id="text_9">
            <!-- 1600 -->
            <g
               transform="translate(635.275 399.078438) scale(0.1 -0.1)"
               id="g39">
              <use
                 xlink:href="#DejaVuSans-31"
                 id="use36" />
              <use
                 xlink:href="#DejaVuSans-36"
                 transform="translate(63.623047 0)"
                 id="use37" />
              <use
                 xlink:href="#DejaVuSans-30"
                 transform="translate(127.246094 0)"
                 id="use38" />
              <use
                 xlink:href="#DejaVuSans-30"
                 transform="translate(190.869141 0)"
                 id="use39" />
            </g>
          </g>
        </g>
        <g
           id="text_10">
          <!-- $t\ [\hbar/J]$ -->
          <g
             transform="translate(354.85 412.758125) scale(0.1 -0.1)"
             id="g45">
            <defs
               id="defs39">
              <path
                 id="DejaVuSans-Oblique-74"
                 d="M 2706 3500  L 2619 3053  L 1472 3053  L 1100 1153  Q 1081 1047 1072 975  Q 1063 903 1063 863  Q 1063 663 1183 572  Q 1303 481 1569 481  L 2150 481  L 2053 0  L 1503 0  Q 991 0 739 200  Q 488 400 488 806  Q 488 878 497 964  Q 506 1050 525 1153  L 897 3053  L 409 3053  L 500 3500  L 978 3500  L 1172 4494  L 1747 4494  L 1556 3500  L 2706 3500  z "
                 transform="scale(0.015625)" />
              <path
                 id="DejaVuSans-5b"
                 d="M 550 4863  L 1875 4863  L 1875 4416  L 1125 4416  L 1125 -397  L 1875 -397  L 1875 -844  L 550 -844  L 550 4863  z "
                 transform="scale(0.015625)" />
              <path
                 id="DejaVuSans-Oblique-127"
                 d="M 3634 2113  L 3225 0  L 2650 0  L 3056 2094  Q 3094 2291 3094 2450  Q 3094 2688 3006 2838  Q 2863 3084 2475 3084  Q 2009 3084 1681 2788  Q 1356 2491 1256 1978  L 872 0  L 294 0  L 1066 3969  L 675 3969  L 775 4481  L 1166 4481  L 1238 4863  L 1816 4863  L 1744 4481  L 2844 4481  L 2744 3969  L 1644 3969  L 1447 2956  Q 1713 3272 2025 3428  Q 2331 3584 2700 3584  Q 3300 3584 3538 3213  Q 3688 2975 3688 2606  Q 3688 2381 3634 2113  z "
                 transform="scale(0.015625)" />
              <path
                 id="DejaVuSans-2f"
                 d="M 1625 4666  L 2156 4666  L 531 -594  L 0 -594  L 1625 4666  z "
                 transform="scale(0.015625)" />
              <path
                 id="DejaVuSans-Oblique-4a"
                 d="M 1069 4666  L 1703 4666  L 856 325  Q 691 -522 298 -901  Q -94 -1281 -800 -1281  L -1050 -1281  L -947 -750  L -750 -750  Q -328 -750 -109 -509  Q 109 -269 225 325  L 1069 4666  z "
                 transform="scale(0.015625)" />
              <path
                 id="DejaVuSans-5d"
                 d="M 1947 4863  L 1947 -844  L 622 -844  L 622 -397  L 1369 -397  L 1369 4416  L 622 4416  L 622 4863  L 1947 4863  z "
                 transform="scale(0.015625)" />
            </defs>
            <use
               xlink:href="#DejaVuSans-Oblique-74"
               transform="translate(0 0.015625)"
               id="use40" />
            <use
               xlink:href="#DejaVuSans-5b"
               transform="translate(71.679363 0.015625)"
               id="use41" />
            <use
               xlink:href="#DejaVuSans-Oblique-127"
               transform="translate(110.693035 0.015625)"
               id="use42" />
            <use
               xlink:href="#DejaVuSans-2f"
               transform="translate(180.175457 0.015625)"
               id="use43" />
            <use
               xlink:href="#DejaVuSans-Oblique-4a"
               transform="translate(213.866863 0.015625)"
               id="use44" />
            <use
               xlink:href="#DejaVuSans-5d"
               transform="translate(243.35905 0.015625)"
               id="use45" />
          </g>
        </g>
      </g>
      <g
         id="matplotlib.axis_2">
        <g
           id="ytick_1">
          <g
             id="line2d_10">
            <defs
               id="defs45">
              <path
                 id="m6074a5cb5b"
                 d="M 0 0  L -3.5 0  "
                 style="stroke: #000000; stroke-width: 0.8" />
            </defs>
            <g
               id="g46">
              <use
                 xlink:href="#m6074a5cb5b"
                 x="90"
                 y="384.48"
                 style="stroke: #000000; stroke-width: 0.8"
                 id="use46" />
            </g>
          </g>
          <g
             id="text_11">
            <!-- 0.0 -->
            <g
               transform="translate(67.096875 388.279219) scale(0.1 -0.1)"
               id="g49">
              <defs
                 id="defs46">
                <path
                   id="DejaVuSans-2e"
                   d="M 684 794  L 1344 794  L 1344 0  L 684 0  L 684 794  z "
                   transform="scale(0.015625)" />
              </defs>
              <use
                 xlink:href="#DejaVuSans-30"
                 id="use47" />
              <use
                 xlink:href="#DejaVuSans-2e"
                 transform="translate(63.623047 0)"
                 id="use48" />
              <use
                 xlink:href="#DejaVuSans-30"
                 transform="translate(95.410156 0)"
                 id="use49" />
            </g>
          </g>
        </g>
        <g
           id="ytick_2">
          <g
             id="line2d_11">
            <g
               id="g50">
              <use
                 xlink:href="#m6074a5cb5b"
                 x="90"
                 y="324"
                 style="stroke: #000000; stroke-width: 0.8"
                 id="use50" />
            </g>
          </g>
          <g
             id="text_12">
            <!-- 0.2 -->
            <g
               transform="translate(67.096875 327.799219) scale(0.1 -0.1)"
               id="g53">
              <use
                 xlink:href="#DejaVuSans-30"
                 id="use51" />
              <use
                 xlink:href="#DejaVuSans-2e"
                 transform="translate(63.623047 0)"
                 id="use52" />
              <use
                 xlink:href="#DejaVuSans-32"
                 transform="translate(95.410156 0)"
                 id="use53" />
            </g>
          </g>
        </g>
        <g
           id="ytick_3">
          <g
             id="line2d_12">
            <g
               id="g54">
              <use
                 xlink:href="#m6074a5cb5b"
                 x="90"
                 y="263.52"
                 style="stroke: #000000; stroke-width: 0.8"
                 id="use54" />
            </g>
          </g>
          <g
             id="text_13">
            <!-- 0.4 -->
            <g
               transform="translate(67.096875 267.319219) scale(0.1 -0.1)"
               id="g57">
              <use
                 xlink:href="#DejaVuSans-30"
                 id="use55" />
              <use
                 xlink:href="#DejaVuSans-2e"
                 transform="translate(63.623047 0)"
                 id="use56" />
              <use
                 xlink:href="#DejaVuSans-34"
                 transform="translate(95.410156 0)"
                 id="use57" />
            </g>
          </g>
        </g>
        <g
           id="ytick_4">
          <g
             id="line2d_13">
            <g
               id="g58">
              <use
                 xlink:href="#m6074a5cb5b"
                 x="90"
                 y="203.04"
                 style="stroke: #000000; stroke-width: 0.8"
                 id="use58" />
            </g>
          </g>
          <g
             id="text_14">
            <!-- 0.6 -->
            <g
               transform="translate(67.096875 206.839219) scale(0.1 -0.1)"
               id="g61">
              <use
                 xlink:href="#DejaVuSans-30"
                 id="use59" />
              <use
                 xlink:href="#DejaVuSans-2e"
                 transform="translate(63.623047 0)"
                 id="use60" />
              <use
                 xlink:href="#DejaVuSans-36"
                 transform="translate(95.410156 0)"
                 id="use61" />
            </g>
          </g>
        </g>
        <g
           id="ytick_5">
          <g
             id="line2d_14">
            <g
               id="g62">
              <use
                 xlink:href="#m6074a5cb5b"
                 x="90"
                 y="142.56"
                 style="stroke: #000000; stroke-width: 0.8"
                 id="use62" />
            </g>
          </g>
          <g
             id="text_15">
            <!-- 0.8 -->
            <g
               transform="translate(67.096875 146.359219) scale(0.1 -0.1)"
               id="g65">
              <use
                 xlink:href="#DejaVuSans-30"
                 id="use63" />
              <use
                 xlink:href="#DejaVuSans-2e"
                 transform="translate(63.623047 0)"
                 id="use64" />
              <use
                 xlink:href="#DejaVuSans-38"
                 transform="translate(95.410156 0)"
                 id="use65" />
            </g>
          </g>
        </g>
        <g
           id="ytick_6">
          <g
             id="line2d_15">
            <g
               id="g66">
              <use
                 xlink:href="#m6074a5cb5b"
                 x="90"
                 y="82.08"
                 style="stroke: #000000; stroke-width: 0.8"
                 id="use66" />
            </g>
          </g>
          <g
             id="text_16">
            <!-- 1.0 -->
            <g
               transform="translate(67.096875 85.879219) scale(0.1 -0.1)"
               id="g69">
              <use
                 xlink:href="#DejaVuSans-31"
                 id="use67" />
              <use
                 xlink:href="#DejaVuSans-2e"
                 transform="translate(63.623047 0)"
                 id="use68" />
              <use
                 xlink:href="#DejaVuSans-30"
                 transform="translate(95.410156 0)"
                 id="use69" />
            </g>
          </g>
        </g>
        <g
           id="text_17">
          <!-- $\xi^2$ -->
          <g
             transform="translate(60.996875 223.71) rotate(-90) scale(0.1 -0.1)"
             id="g71">
            <defs
               id="defs69">
              <path
                 id="DejaVuSans-Oblique-3be"
                 d="M 2016 397  Q 2428 394 2628 159  Q 2844 -88 2772 -463  Q 2700 -822 2422 -1072  Q 2119 -1344 1609 -1344  Q 1656 -1109 1700 -872  Q 1913 -888 2072 -750  Q 2194 -641 2216 -525  Q 2247 -359 2175 -222  Q 2100 -91 1922 -91  Q -25 -91 241 1275  Q 422 2213 1516 2488  Q 663 2600 822 3413  Q 941 4028 1678 4284  L 1028 4284  L 1141 4863  L 3606 4863  L 3494 4284  Q 1528 4284 1350 3375  Q 1234 2778 2881 2750  L 2778 2219  Q 1009 2288 819 1275  Q 659 428 2016 397  z "
                 transform="scale(0.015625)" />
            </defs>
            <use
               xlink:href="#DejaVuSans-Oblique-3be"
               transform="translate(0 0.765625)"
               id="use70" />
            <use
               xlink:href="#DejaVuSans-32"
               transform="translate(63.209427 39.046875) scale(0.7)"
               id="use71" />
          </g>
        </g>
      </g>
      <g
         id="line2d_16">
        <path
           d="M 90 82.08  L 102.311083 98.618002  L 114.622166 111.781627  L 126.933249 123.538166  L 139.244332 135.685371  L 151.555415 148.377535  L 163.866498 160.030204  L 176.177581 170.067537  L 188.488664 179.097123  L 200.799747 188.152067  L 213.110831 197.98074  L 225.421914 208.41803  L 237.732997 218.093493  L 250.04408 226.299604  L 262.355163 233.139614  L 274.666246 239.155939  L 286.977329 244.77366  L 299.288412 250.086752  L 311.599495 254.892263  L 323.910578 259.171606  L 336.221661 263.137755  L 348.532744 266.882331  L 360.843827 270.903598  L 373.15491 275.238678  L 385.465993 279.565698  L 397.777076 283.601869  L 410.088159 287.09776  L 422.399242 289.98677  L 434.710325 292.337865  L 447.021408 294.385134  L 459.332492 296.147115  L 471.643575 297.48876  L 483.954658 298.40582  L 496.265741 298.994796  L 508.576824 299.807671  L 520.887907 301.126204  L 533.19899 302.659002  L 545.510073 304.114448  L 557.821156 305.172563  L 570.132239 305.784642  L 582.443322 306.289307  L 594.754405 306.727384  L 607.065488 306.882061  L 619.376571 306.472045  L 631.687654 305.266191  L 643.998737 303.554822  L 656.30982 301.960363  L 668.620903 300.872351  L 680.931986 299.999432  L 693.243069 299.015923  L 705.554153 297.509214  L 717.865236 295.594194  L 721 295.122139  "
           clip-path="url(#p87af2b58d8)"
           style="fill: none; stroke: #53257f; stroke-opacity: 0.5; stroke-width: 1.5; stroke-linecap: square"
           id="path71" />
      </g>
      <g
         id="line2d_17">
        <path
           d="M 90 82.08  L 102.311083 98.890086  L 114.622166 114.689386  L 126.933249 129.526106  L 139.244332 143.447669  L 151.555415 156.500553  L 163.866498 168.730139  L 176.177581 180.180568  L 188.488664 190.894615  L 200.799747 200.913573  L 213.110831 210.27716  L 225.421914 219.023438  L 237.732997 227.188754  L 250.04408 234.807697  L 262.355163 241.913067  L 274.666246 248.535871  L 286.977329 254.705318  L 299.288412 260.448839  L 311.599495 265.792113  L 323.910578 270.759098  L 336.221661 275.37208  L 348.532744 279.651718  L 360.843827 283.617096  L 373.15491 287.285779  L 385.465993 290.673871  L 397.777076 293.796072  L 410.088159 296.665733  L 422.399242 299.294912  L 434.710325 301.694429  L 447.021408 303.873913  L 459.332492 305.84185  L 471.643575 307.605627  L 483.954658 309.171569  L 496.265741 310.544977  L 508.576824 311.730158  L 520.887907 312.730449  L 533.19899 313.54824  L 545.510073 314.184994  L 557.821156 314.641253  L 570.132239 314.916653  L 582.443322 315.009924  L 594.754405 314.918885  L 607.065488 314.640444  L 619.376571 314.170585  L 631.687654 313.504349  L 643.998737 312.635817  L 656.30982 311.558083  L 668.620903 310.263227  L 680.931986 308.742273  L 693.243069 306.985155  L 705.554153 304.980665  L 717.865236 302.716407  L 721 302.070242  "
           clip-path="url(#p87af2b58d8)"
           style="fill: none; stroke-dasharray: 5.55,2.4; stroke-dashoffset: 0; stroke: #53257f; stroke-width: 1.5"
           id="path72" />
      </g>
      <g
         id="line2d_18">
        <path
           d="M 90 82.08  L 93.077771 89.108994  L 96.155542 112.803403  L 99.233312 113.06374  L 102.311083 133.446495  L 105.388854 133.479874  L 108.466625 148.470102  L 111.544395 150.845028  L 114.622166 161.226895  L 117.699937 165.468598  L 120.777708 171.876827  L 123.855478 176.850795  L 126.933249 180.37693  L 130.01102 186.047008  L 133.088791 188.178613  L 136.166561 193.847594  L 139.244332 195.099793  L 142.322103 200.085441  L 145.399874 201.158984  L 148.477644 205.899276  L 151.555415 207.531808  L 154.633186 211.399204  L 157.710957 213.449192  L 160.788728 216.294206  L 163.866498 218.508571  L 166.944269 220.604526  L 170.02204 222.932293  L 173.099811 224.554623  L 176.177581 227.773532  L 179.255352 229.386025  L 182.333123 233.125813  L 185.410894 235.265292  L 188.488664 238.927101  L 191.566435 242.272249  L 194.644206 245.31112  L 197.721977 249.823223  L 200.799747 252.233614  L 203.877518 257.3565  L 206.955289 259.400838  L 210.03306 264.008646  L 213.110831 265.689135  L 216.188601 269.228868  L 219.266372 271.004348  L 222.344143 272.918772  L 225.421914 274.501846  L 228.499684 274.612183  L 231.577455 275.384187  L 234.655226 273.945506  L 237.732997 273.161304  L 240.810767 270.247111  L 243.888538 267.966443  L 246.966309 263.941784  L 250.04408 260.184525  L 253.12185 255.546567  L 256.199621 250.365701  L 259.277392 245.748854  L 262.355163 239.142642  L 265.432933 234.861847  L 268.510704 227.137946  L 271.588475 222.686465  L 274.666246 214.8736  L 277.744017 209.458226  L 280.821787 202.453911  L 283.899558 195.635879  L 286.977329 189.599582  L 290.0551 181.852346  L 293.13287 176.176811  L 296.210641 168.065426  L 299.288412 162.193176  L 302.366183 153.982624  L 305.443953 147.46987  L 308.521724 139.009358  L 311.599495 131.417297  L 314.677266 122.057485  L 317.755036 114.133099  L 320.832807 103.537044  L 323.910578 95.56634  L 326.988349 84.754261  L 330.066119 76.11021  L 333.14389 65.314341  L 336.221661 54.999163  L 339.299432 44.46419  L 342.377203 30.987448  L 345.454973 20.293443  L 348.532744 3.403827  L 349.694408 -1  "
           clip-path="url(#p87af2b58d8)"
           style="fill: none; stroke: #1f7dad; stroke-opacity: 0.5; stroke-width: 1.5; stroke-linecap: square"
           id="path73" />
      </g>
      <g
         id="line2d_19">
        <path
           d="M 90 82.08  L 93.077771 98.890086  L 96.155542 114.689386  L 99.233312 129.526106  L 102.311083 143.447669  L 105.388854 156.500553  L 108.466625 168.730139  L 111.544395 180.180568  L 114.622166 190.894615  L 117.699937 200.913573  L 120.777708 210.27716  L 123.855478 219.023438  L 126.933249 227.188754  L 130.01102 234.807697  L 133.088791 241.913067  L 136.166561 248.535871  L 139.244332 254.705318  L 142.322103 260.448839  L 145.399874 265.792113  L 148.477644 270.759098  L 151.555415 275.37208  L 154.633186 279.651718  L 157.710957 283.617096  L 160.788728 287.285779  L 163.866498 290.673871  L 166.944269 293.796072  L 170.02204 296.665733  L 173.099811 299.294912  L 176.177581 301.694429  L 179.255352 303.873913  L 182.333123 305.84185  L 185.410894 307.605627  L 188.488664 309.171569  L 191.566435 310.544977  L 194.644206 311.730158  L 197.721977 312.730449  L 200.799747 313.54824  L 203.877518 314.184994  L 206.955289 314.641253  L 210.03306 314.916653  L 213.110831 315.009924  L 216.188601 314.918885  L 219.266372 314.640444  L 222.344143 314.170585  L 225.421914 313.504349  L 228.499684 312.635817  L 231.577455 311.558083  L 234.655226 310.263227  L 237.732997 308.742273  L 240.810767 306.985155  L 243.888538 304.980665  L 246.966309 302.716407  L 250.04408 300.178738  L 253.12185 297.352703  L 256.199621 294.221968  L 259.277392 290.768742  L 262.355163 286.973698  L 265.432933 282.815882  L 268.510704 278.272615  L 271.588475 273.319389  L 274.666246 267.929754  L 277.744017 262.075198  L 280.821787 255.725012  L 283.899558 248.846152  L 286.977329 241.403089  L 290.0551 233.357641  L 293.13287 224.668804  L 296.210641 215.292561  L 299.288412 205.181683  L 302.366183 194.285511  L 305.443953 182.549729  L 308.521724 169.916113  L 311.599495 156.322266  L 314.677266 141.701334  L 317.755036 125.981698  L 320.832807 109.086648  L 323.910578 90.934032  L 326.988349 71.435877  L 330.066119 50.497981  L 333.14389 28.019483  L 336.221661 3.892393  L 336.803233 -1  "
           clip-path="url(#p87af2b58d8)"
           style="fill: none; stroke-dasharray: 5.55,2.4; stroke-dashoffset: 0; stroke: #1f7dad; stroke-width: 1.5"
           id="path74" />
      </g>
      <g
         id="line2d_20">
        <path
           d="M 90 384.48  "
           clip-path="url(#p87af2b58d8)"
           style="fill: none; stroke: #000000; stroke-opacity: 0.5; stroke-width: 1.5; stroke-linecap: square"
           id="path75" />
      </g>
      <g
         id="line2d_21">
        <path
           d="M 90 384.48  "
           clip-path="url(#p87af2b58d8)"
           style="fill: none; stroke-dasharray: 5.55,2.4; stroke-dashoffset: 0; stroke: #000000; stroke-width: 1.5"
           id="path76" />
      </g>
      <g
         id="patch_3">
        <path
           d="M 90 384.48  L 90 51.84  "
           style="fill: none; stroke: #000000; stroke-width: 0.8; stroke-linejoin: miter; stroke-linecap: square"
           id="path77" />
      </g>
      <g
         id="patch_4">
        <path
           d="M 648 384.48  L 648 51.84  "
           style="fill: none; stroke: #000000; stroke-width: 0.8; stroke-linejoin: miter; stroke-linecap: square"
           id="path78" />
      </g>
      <g
         id="patch_5">
        <path
           d="M 90 384.48  L 648 384.48  "
           style="fill: none; stroke: #000000; stroke-width: 0.8; stroke-linejoin: miter; stroke-linecap: square"
           id="path79" />
      </g>
      <g
         id="patch_6">
        <path
           d="M 90 51.84  L 648 51.84  "
           style="fill: none; stroke: #000000; stroke-width: 0.8; stroke-linejoin: miter; stroke-linecap: square"
           id="path80" />
      </g>
      <g
         id="legend_1">
        <g
           id="line2d_22">
          <path
             d="M 567.21875 64.938437  L 577.21875 64.938437  L 587.21875 64.938437  "
             style="fill: none; stroke: #000000; stroke-opacity: 0.5; stroke-width: 1.5; stroke-linecap: square"
             id="path81" />
        </g>
        <g
           id="text_18">
          <!-- Exact -->
          <g
             transform="translate(595.21875 68.438437) scale(0.1 -0.1)"
             id="g85">
            <defs
               id="defs81">
              <path
                 id="DejaVuSans-45"
                 d="M 628 4666  L 3578 4666  L 3578 4134  L 1259 4134  L 1259 2753  L 3481 2753  L 3481 2222  L 1259 2222  L 1259 531  L 3634 531  L 3634 0  L 628 0  L 628 4666  z "
                 transform="scale(0.015625)" />
              <path
                 id="DejaVuSans-78"
                 d="M 3513 3500  L 2247 1797  L 3578 0  L 2900 0  L 1881 1375  L 863 0  L 184 0  L 1544 1831  L 300 3500  L 978 3500  L 1906 2253  L 2834 3500  L 3513 3500  z "
                 transform="scale(0.015625)" />
              <path
                 id="DejaVuSans-61"
                 d="M 2194 1759  Q 1497 1759 1228 1600  Q 959 1441 959 1056  Q 959 750 1161 570  Q 1363 391 1709 391  Q 2188 391 2477 730  Q 2766 1069 2766 1631  L 2766 1759  L 2194 1759  z M 3341 1997  L 3341 0  L 2766 0  L 2766 531  Q 2569 213 2275 61  Q 1981 -91 1556 -91  Q 1019 -91 701 211  Q 384 513 384 1019  Q 384 1609 779 1909  Q 1175 2209 1959 2209  L 2766 2209  L 2766 2266  Q 2766 2663 2505 2880  Q 2244 3097 1772 3097  Q 1472 3097 1187 3025  Q 903 2953 641 2809  L 641 3341  Q 956 3463 1253 3523  Q 1550 3584 1831 3584  Q 2591 3584 2966 3190  Q 3341 2797 3341 1997  z "
                 transform="scale(0.015625)" />
              <path
                 id="DejaVuSans-63"
                 d="M 3122 3366  L 3122 2828  Q 2878 2963 2633 3030  Q 2388 3097 2138 3097  Q 1578 3097 1268 2742  Q 959 2388 959 1747  Q 959 1106 1268 751  Q 1578 397 2138 397  Q 2388 397 2633 464  Q 2878 531 3122 666  L 3122 134  Q 2881 22 2623 -34  Q 2366 -91 2075 -91  Q 1284 -91 818 406  Q 353 903 353 1747  Q 353 2603 823 3093  Q 1294 3584 2113 3584  Q 2378 3584 2631 3529  Q 2884 3475 3122 3366  z "
                 transform="scale(0.015625)" />
              <path
                 id="DejaVuSans-74"
                 d="M 1172 4494  L 1172 3500  L 2356 3500  L 2356 3053  L 1172 3053  L 1172 1153  Q 1172 725 1289 603  Q 1406 481 1766 481  L 2356 481  L 2356 0  L 1766 0  Q 1100 0 847 248  Q 594 497 594 1153  L 594 3053  L 172 3053  L 172 3500  L 594 3500  L 594 4494  L 1172 4494  z "
                 transform="scale(0.015625)" />
            </defs>
            <use
               xlink:href="#DejaVuSans-45"
               id="use81" />
            <use
               xlink:href="#DejaVuSans-78"
               transform="translate(63.183594 0)"
               id="use82" />
            <use
               xlink:href="#DejaVuSans-61"
               transform="translate(122.363281 0)"
               id="use83" />
            <use
               xlink:href="#DejaVuSans-63"
               transform="translate(183.642578 0)"
               id="use84" />
            <use
               xlink:href="#DejaVuSans-74"
               transform="translate(238.623047 0)"
               id="use85" />
          </g>
        </g>
        <g
           id="line2d_23">
          <path
             d="M 567.21875 79.616562  L 577.21875 79.616562  L 587.21875 79.616562  "
             style="fill: none; stroke-dasharray: 5.55,2.4; stroke-dashoffset: 0; stroke: #000000; stroke-width: 1.5"
             id="path85" />
        </g>
        <g
           id="text_19">
          <!-- Effective -->
          <g
             transform="translate(595.21875 83.116562) scale(0.1 -0.1)"
             id="g94">
            <defs
               id="defs85">
              <path
                 id="DejaVuSans-66"
                 d="M 2375 4863  L 2375 4384  L 1825 4384  Q 1516 4384 1395 4259  Q 1275 4134 1275 3809  L 1275 3500  L 2222 3500  L 2222 3053  L 1275 3053  L 1275 0  L 697 0  L 697 3053  L 147 3053  L 147 3500  L 697 3500  L 697 3744  Q 697 4328 969 4595  Q 1241 4863 1831 4863  L 2375 4863  z "
                 transform="scale(0.015625)" />
              <path
                 id="DejaVuSans-65"
                 d="M 3597 1894  L 3597 1613  L 953 1613  Q 991 1019 1311 708  Q 1631 397 2203 397  Q 2534 397 2845 478  Q 3156 559 3463 722  L 3463 178  Q 3153 47 2828 -22  Q 2503 -91 2169 -91  Q 1331 -91 842 396  Q 353 884 353 1716  Q 353 2575 817 3079  Q 1281 3584 2069 3584  Q 2775 3584 3186 3129  Q 3597 2675 3597 1894  z M 3022 2063  Q 3016 2534 2758 2815  Q 2500 3097 2075 3097  Q 1594 3097 1305 2825  Q 1016 2553 972 2059  L 3022 2063  z "
                 transform="scale(0.015625)" />
              <path
                 id="DejaVuSans-69"
                 d="M 603 3500  L 1178 3500  L 1178 0  L 603 0  L 603 3500  z M 603 4863  L 1178 4863  L 1178 4134  L 603 4134  L 603 4863  z "
                 transform="scale(0.015625)" />
              <path
                 id="DejaVuSans-76"
                 d="M 191 3500  L 800 3500  L 1894 563  L 2988 3500  L 3597 3500  L 2284 0  L 1503 0  L 191 3500  z "
                 transform="scale(0.015625)" />
            </defs>
            <use
               xlink:href="#DejaVuSans-45"
               id="use86" />
            <use
               xlink:href="#DejaVuSans-66"
               transform="translate(63.183594 0)"
               id="use87" />
            <use
               xlink:href="#DejaVuSans-66"
               transform="translate(98.388672 0)"
               id="use88" />
            <use
               xlink:href="#DejaVuSans-65"
               transform="translate(133.59375 0)"
               id="use89" />
            <use
               xlink:href="#DejaVuSans-63"
               transform="translate(195.117188 0)"
               id="use90" />
            <use
               xlink:href="#DejaVuSans-74"
               transform="translate(250.097656 0)"
               id="use91" />
            <use
               xlink:href="#DejaVuSans-69"
               transform="translate(289.306641 0)"
               id="use92" />
            <use
               xlink:href="#DejaVuSans-76"
               transform="translate(317.089844 0)"
               id="use93" />
            <use
               xlink:href="#DejaVuSans-65"
               transform="translate(376.269531 0)"
               id="use94" />
          </g>
        </g>
      </g>
    </g>
  </g>
  <defs
     id="defs94">
    <clipPath
       id="p87af2b58d8">
      <rect
         x="90"
         y="51.84"
         width="558"
         height="332.64"
         id="rect94" />
    </clipPath>
  </defs>
</svg>
