<?xml version="1.0" encoding="UTF-8" standalone="no"?>
<!-- Created with Inkscape (http://www.inkscape.org/) -->

<svg
   width="97.20829mm"
   height="62.886162mm"
   viewBox="0 0 97.20829 62.886162"
   version="1.1"
   id="svg77050"
   inkscape:version="1.3.2 (091e20ef0f, 2023-11-25)"
   sodipodi:docname="dipolar_model.svg"
   xmlns:inkscape="http://www.inkscape.org/namespaces/inkscape"
   xmlns:sodipodi="http://sodipodi.sourceforge.net/DTD/sodipodi-0.dtd"
   xmlns="http://www.w3.org/2000/svg"
   xmlns:svg="http://www.w3.org/2000/svg"
   xmlns:ns8="http://www.iki.fi/pav/software/textext/">
  <sodipodi:namedview
     id="namedview77052"
     pagecolor="#ffffff"
     bordercolor="#666666"
     borderopacity="1.0"
     inkscape:pageshadow="2"
     inkscape:pageopacity="1"
     inkscape:pagecheckerboard="true"
     inkscape:document-units="mm"
     showgrid="false"
     fit-margin-top="0"
     fit-margin-left="0"
     fit-margin-right="0"
     fit-margin-bottom="0"
     inkscape:zoom="2.3309615"
     inkscape:cx="215.36177"
     inkscape:cy="128.91676"
     inkscape:window-width="1698"
     inkscape:window-height="743"
     inkscape:window-x="1970"
     inkscape:window-y="126"
     inkscape:window-maximized="0"
     inkscape:current-layer="g304"
     inkscape:showpageshadow="2"
     inkscape:deskcolor="#ffffff" />
  <defs
     id="defs77047">
    <marker
       style="overflow:visible"
       id="TriangleOutM"
       refX="0"
       refY="0"
       orient="auto"
       inkscape:stockid="TriangleOutM"
       inkscape:isstock="true">
      <path
         transform="scale(0.4)"
         style="fill:context-stroke;fill-rule:evenodd;stroke:context-stroke;stroke-width:1pt"
         d="M 5.77,0 -2.88,5 V -5 Z"
         id="path104778" />
    </marker>
    <defs
       id="id-00eb06bc-d62b-4133-afc1-03201a2b519c">
      <g
         id="id-5158fac6-328d-43b4-b3cb-2640636c019a">
        <g
           id="id-a5de02a0-916c-456f-bc91-4dbce899d23a" />
        <g
           id="id-e78c5396-5fe3-4671-80cd-6d840502c8d0">
          <path
             d="M 3.109375,-0.96875 C 3.078125,-1.375 2.84375,-3.078125 1.703125,-3.078125 1.296875,-3.078125 0.9375,-2.84375 0.75,-2.671875 0.328125,-2.28125 0.234375,-1.84375 0.234375,-1.8125 c 0,0.078125 0.09375,0.078125 0.109375,0.078125 0.09375,0 0.109375,-0.015625 0.140625,-0.125 0.140625,-0.40625 0.65625,-0.65625 1.125,-0.65625 1.125,0 1.265625,1.125 1.265625,1.828125 0,0.359375 -0.015625,0.421875 -0.046875,0.5 -0.15625,0.53125 -0.375,1.296875 -0.375,1.515625 0,0.078125 0.03125,0.15625 0.125,0.15625 0.046875,0 0.125,0 0.234375,-0.359375 C 2.90625,0.859375 3.03125,0.34375 3.09375,-0.15625 3.109375,-0.40625 3.5,-1.34375 3.65625,-1.671875 3.75,-1.890625 3.890625,-2.21875 4.21875,-2.828125 4.25,-2.859375 4.265625,-2.890625 4.265625,-2.921875 4.265625,-3 4.171875,-3 4.140625,-3 4.125,-3 4.0625,-3 4.046875,-2.96875 c -0.09375,0.140625 -0.625,1.140625 -0.9375,2 z m 0,0"
             id="id-a5d60551-4db2-4d7f-b631-ea409d94a3ad" />
        </g>
        <g
           id="id-acad84e4-2069-4bd5-ae5c-d0e8bf1e3f53">
          <path
             d="M 3.0625,-4.359375 C 3.0625,-4.46875 2.96875,-4.625 2.78125,-4.625 c -0.203125,0 -0.390625,0.203125 -0.390625,0.390625 0,0.109375 0.078125,0.265625 0.28125,0.265625 0.1875,0 0.390625,-0.1875 0.390625,-0.390625 z M 1.578125,0.34375 C 1.46875,0.828125 1.09375,1.21875 0.6875,1.21875 c -0.09375,0 -0.171875,0 -0.25,-0.03125 0.171875,-0.09375 0.234375,-0.25 0.234375,-0.359375 0,-0.171875 -0.140625,-0.25 -0.28125,-0.25 C 0.1875,0.578125 0,0.765625 0,0.984375 c 0,0.265625 0.265625,0.4375 0.6875,0.4375 0.421875,0 1.234375,-0.25 1.453125,-1.09375 l 0.625,-2.5 c 0.015625,-0.078125 0.03125,-0.140625 0.03125,-0.25 0,-0.375 -0.328125,-0.65625 -0.734375,-0.65625 -0.78125,0 -1.21875,0.96875 -1.21875,1.078125 0,0.078125 0.09375,0.078125 0.109375,0.078125 0.078125,0 0.09375,-0.015625 0.140625,-0.125 C 1.265625,-2.453125 1.625,-2.875 2.03125,-2.875 c 0.171875,0 0.234375,0.109375 0.234375,0.34375 0,0.078125 0,0.171875 -0.015625,0.203125 z m 0,0"
             id="id-b6d86c99-bd85-4115-9ba4-88b4f5eed88f" />
        </g>
        <g
           id="id-259c1f36-f5d5-42f6-8ca6-cb5e7d966b25">
          <path
             d="m 2.1875,-4.625 c 0,-0.015625 0.015625,-0.109375 0.015625,-0.109375 0,-0.046875 -0.015625,-0.109375 -0.109375,-0.109375 -0.140625,0 -0.71875,0.0625 -0.890625,0.078125 -0.046875,0 -0.15625,0.015625 -0.15625,0.15625 0,0.09375 0.109375,0.09375 0.1875,0.09375 0.328125,0 0.328125,0.0625 0.328125,0.109375 0,0.046875 -0.015625,0.09375 -0.015625,0.15625 L 0.5625,-0.3125 c -0.046875,0.125 -0.046875,0.140625 -0.046875,0.15625 0,0.109375 0.09375,0.21875 0.25,0.21875 0.1875,0 0.265625,-0.125 0.3125,-0.28125 0.015625,-0.03125 0.3125,-1.265625 0.34375,-1.359375 0.5,0.046875 0.890625,0.21875 0.890625,0.578125 0,0.03125 0,0.0625 -0.015625,0.140625 -0.03125,0.09375 -0.03125,0.140625 -0.03125,0.21875 0,0.484375 0.40625,0.703125 0.75,0.703125 0.671875,0 0.875,-1.046875 0.875,-1.0625 0,-0.09375 -0.078125,-0.09375 -0.109375,-0.09375 -0.09375,0 -0.109375,0.046875 -0.140625,0.171875 C 3.5625,-0.625 3.375,-0.125 3.03125,-0.125 c -0.1875,0 -0.25,-0.171875 -0.25,-0.359375 0,-0.125 0,-0.140625 0.046875,-0.3125 0.015625,-0.03125 0.03125,-0.140625 0.03125,-0.21875 0,-0.625 -0.828125,-0.71875 -1.125,-0.734375 C 1.9375,-1.875 2.1875,-2.109375 2.3125,-2.21875 2.671875,-2.546875 3.015625,-2.875 3.40625,-2.875 c 0.078125,0 0.171875,0.015625 0.234375,0.09375 C 3.34375,-2.734375 3.28125,-2.5 3.28125,-2.390625 c 0,0.140625 0.109375,0.25 0.265625,0.25 0.203125,0 0.40625,-0.15625 0.40625,-0.4375 0,-0.234375 -0.171875,-0.5 -0.53125,-0.5 -0.40625,0 -0.765625,0.296875 -1.125,0.625 C 2,-2.1875 1.78125,-1.96875 1.484375,-1.84375 Z m 0,0"
             id="id-867207a8-21a4-45be-a44d-67350231318c" />
        </g>
        <g
           id="id-f85201c7-1dd9-4978-a4a6-7eecc8e02511" />
        <g
           id="id-ef8eb215-53e5-47c3-9306-88871acd60da">
          <path
             d="M 2.9375,-0.96875 H 2.71875 c 0,0.09375 -0.0625,0.40625 -0.140625,0.453125 -0.03125,0.03125 -0.453125,0.03125 -0.53125,0.03125 H 1.078125 C 1.40625,-0.71875 1.765625,-1 2.0625,-1.203125 c 0.453125,-0.3125 0.875,-0.59375 0.875,-1.125 0,-0.640625 -0.609375,-0.984375 -1.3125,-0.984375 -0.671875,0 -1.171875,0.375 -1.171875,0.875 0,0.25 0.21875,0.296875 0.296875,0.296875 0.125,0 0.28125,-0.09375 0.28125,-0.296875 0,-0.171875 -0.125,-0.28125 -0.28125,-0.28125 0.140625,-0.234375 0.4375,-0.375 0.765625,-0.375 0.484375,0 0.890625,0.28125 0.890625,0.765625 0,0.421875 -0.296875,0.75 -0.671875,1.0625 l -1.21875,1.03125 C 0.46875,-0.1875 0.453125,-0.1875 0.453125,-0.15625 V 0 h 2.3125 z m 0,0"
             id="id-7721319e-82c1-4447-84e7-84bf26817a3a" />
        </g>
        <g
           id="id-660cfa1e-7840-4b5d-b24a-2ffc162e388d">
          <path
             d="m 1.640625,-1.65625 c 0.46875,0 0.765625,0.296875 0.765625,0.78125 0,0.515625 -0.3125,0.78125 -0.75,0.78125 -0.0625,0 -0.65625,0 -0.90625,-0.265625 0.203125,-0.03125 0.265625,-0.171875 0.265625,-0.296875 0,-0.1875 -0.140625,-0.3125 -0.3125,-0.3125 -0.15625,0 -0.296875,0.109375 -0.296875,0.328125 0,0.515625 0.578125,0.75 1.265625,0.75 0.8125,0 1.3125,-0.5 1.3125,-0.984375 0,-0.40625 -0.359375,-0.75 -0.921875,-0.875 0.59375,-0.203125 0.75,-0.578125 0.75,-0.859375 0,-0.40625 -0.5,-0.703125 -1.125,-0.703125 -0.625,0 -1.109375,0.25 -1.109375,0.703125 0,0.234375 0.1875,0.296875 0.28125,0.296875 0.140625,0 0.28125,-0.109375 0.28125,-0.296875 0,-0.109375 -0.0625,-0.25 -0.234375,-0.28125 C 1.109375,-3.109375 1.5625,-3.125 1.671875,-3.125 c 0.359375,0 0.609375,0.171875 0.609375,0.515625 0,0.296875 -0.1875,0.75 -0.703125,0.78125 -0.140625,0 -0.15625,0 -0.296875,0.015625 -0.046875,0 -0.109375,0 -0.109375,0.078125 0,0.078125 0.046875,0.078125 0.140625,0.078125 z m 0,0"
             id="id-43173acc-8643-4f7d-af4f-ed2bfc076841" />
        </g>
        <g
           id="id-5d9468aa-52c3-452c-93f1-62f9829ac45b" />
        <g
           id="id-85f6c6bd-67c7-4ee1-a4ff-19c9c9f713a8">
          <path
             d="m 3.6875,-1.140625 v -0.25 H 2.90625 V -4.5 c 0,-0.140625 0,-0.203125 -0.140625,-0.203125 -0.09375,0 -0.125,0 -0.1875,0.109375 l -2.3125,3.203125 v 0.25 h 2.0625 v 0.5625 c 0,0.25 0,0.328125 -0.578125,0.328125 H 1.5625 V 0 C 1.921875,-0.015625 2.359375,-0.03125 2.609375,-0.03125 2.875,-0.03125 3.3125,-0.015625 3.671875,0 v -0.25 h -0.1875 C 2.90625,-0.25 2.90625,-0.328125 2.90625,-0.578125 v -0.5625 z M 2.375,-3.9375 v 2.546875 H 0.53125 Z m 0,0"
             id="id-c86136e0-4d4d-41cf-b981-ee4c00b6aa63" />
        </g>
        <g
           id="id-e487a90e-4f2d-48bd-b719-f67cf749b58f" />
        <g
           id="id-0c859f29-7765-47d6-afa4-384d5235a9a4">
          <path
             d="m 1.359375,-4.953125 c 0,-0.109375 0,-0.265625 -0.171875,-0.265625 -0.171875,0 -0.171875,0.15625 -0.171875,0.265625 V 1.46875 c 0,0.109375 0,0.265625 0.15625,0.265625 0.1875,0 0.1875,-0.15625 0.1875,-0.265625 z m 0,0"
             id="id-4504a1ec-6c1e-4350-af5a-fb69f7c82ed7" />
        </g>
        <g
           id="id-e68421e2-b756-46ed-acdb-5da1206ea504">
          <path
             d="m 5.1875,-1.578125 c 0.109375,0 0.28125,0 0.28125,-0.15625 0,-0.1875 -0.171875,-0.1875 -0.28125,-0.1875 H 1.03125 c -0.109375,0 -0.28125,0 -0.28125,0.171875 0,0.171875 0.15625,0.171875 0.28125,0.171875 z m 0,0"
             id="id-923b523b-bfcc-44b7-8866-7d83e46602cb" />
        </g>
      </g>
    </defs>
  </defs>
  <g
     inkscape:label="Capa 1"
     inkscape:groupmode="layer"
     id="layer1"
     transform="translate(-81.3929, -134.068)">
    <path
       style="display:inline;fill:none;stroke:#000000;stroke-width:0.33095;stroke-linecap:butt;stroke-linejoin:miter;stroke-miterlimit:4;stroke-dasharray:none;stroke-opacity:1"
       d="m 91.51013,171.9026 h 11.89183"
       id="path294877"
       sodipodi:nodetypes="cc" />
    <path
       style="display:inline;fill:none;stroke:#000000;stroke-width:0.33095;stroke-linecap:butt;stroke-linejoin:miter;stroke-miterlimit:4;stroke-dasharray:none;stroke-opacity:1"
       d="m 156.30595,171.9026 h 11.89182"
       id="path295250"
       sodipodi:nodetypes="cc" />
    <path
       style="display:inline;fill:none;stroke:#000000;stroke-width:0.33095;stroke-linecap:butt;stroke-linejoin:miter;stroke-miterlimit:4;stroke-dasharray:none;stroke-opacity:1"
       d="m 91.51013,158.29405 h 11.89183"
       id="path295940"
       sodipodi:nodetypes="cc" />
    <path
       style="display:inline;fill:none;stroke:#000000;stroke-width:0.33095;stroke-linecap:butt;stroke-linejoin:miter;stroke-miterlimit:4;stroke-dasharray:none;stroke-opacity:1"
       d="m 156.30595,158.29405 h 11.89182"
       id="path295942"
       sodipodi:nodetypes="cc" />
    <path
       id="path401527"
       style="display:inline;fill:none;stroke:#000000;stroke-width:0.992849;stroke-miterlimit:4;stroke-dasharray:none"
       d="M 146.37594 145.85817 C 146.7862 145.96666 147.19646 146.27972 147.60672 146.79249 C 148.31562 147.67849 149.02518 149.16072 149.73408 151.11661 C 150.44298 153.06971 151.15188 155.49645 151.86144 158.19067 C 152.57031 160.88489 153.27921 163.84656 153.9881 166.83056 C 154.697 169.81175 155.40656 172.81523 156.11546 175.58467 C 156.82436 178.3569 157.53326 180.89232 158.24213 182.9875 C 158.95169 185.07991 159.66059 186.72932 160.36948 187.79361 C 161.07838 188.86072 161.78794 189.33994 162.49681 189.19785 C 163.20574 189.05577 163.91461 188.28957 164.62351 186.96615 C 165.33307 185.63992 166.04196 183.75649 166.75086 181.46903 C 167.45976 179.18438 168.16863 176.49574 168.87819 173.63435 C 169.58709 170.77018 170.29599 167.73049 171.00489 164.77157 C 171.71378 161.80988 172.42334 158.93179 173.13224 156.36852 C 173.84111 153.80804 174.55001 151.57075 175.25957 149.83776 C 175.96847 148.10755 176.67737 146.88721 177.38627 146.27426 C 177.77655 145.93678 178.16708 145.78595 178.55755 145.82039 " />
    <path
       id="path3107"
       style="display:inline;fill:none;stroke:#000000;stroke-width:0.992849;stroke-miterlimit:4;stroke-dasharray:none"
       d="M 81.47866 145.83381 C 81.54136 145.84481 81.60398 145.86071 81.66663 145.88141 C 82.375729 146.11824 83.084751 146.97916 83.79378 148.38617 C 84.502809 149.79596 85.211831 151.75742 85.92086 154.10337 C 86.629879 156.44653 87.338911 159.17975 88.04801 162.06901 C 88.757039 164.95546 89.466061 168.00073 90.17509 170.94851 C 90.884109 173.89626 91.593131 176.74093 92.30216 179.25405 C 93.011199 181.76436 93.720211 183.93479 94.42931 185.58978 C 95.138339 187.24198 95.847361 188.37315 96.55639 188.89414 C 97.265429 189.41241 97.974441 189.31485 98.68348 188.60998 C 99.392509 187.90785 100.10159 186.59835 100.81062 184.79013 C 101.51964 182.98192 102.22868 180.67777 102.93771 178.06993 C 103.64674 175.46206 104.35576 172.55331 105.06479 169.58051 C 105.77387 166.61046 106.48291 163.5819 107.19194 160.74559 C 107.90096 157.90927 108.60999 155.27077 109.31902 153.04741 C 110.02804 150.82127 110.73707 149.01584 111.44615 147.776 C 112.15519 146.53616 112.86422 145.8647 113.57324 145.81733 C 113.58824 145.81633 113.60324 145.8156 113.61824 145.81516 " />
    <g
       id="g304"
       transform="translate(32.397902)">
      <circle
         style="fill:#53257f;stroke:#ffffff;stroke-width:0.109519;fill-opacity:1"
         id="circle105059"
         cx="129.85396"
         cy="158.29405"
         r="3.6581175" />
      <g
         id="path105061"
         style="fill:#ffffff"
         transform="translate(-137.80879,-117.07009)">
        <path
           style="color:#000000;fill:#ffffff;stroke-width:0.46333;-inkscape-stroke:none"
           d="m 267.66277,278.2938 v -4.54308"
           id="path644068" />
        <path
           style="color:#000000;fill:#ffffff;-inkscape-stroke:none"
           d="m 267.43164,273.75 v 4.54297 h 0.46289 V 273.75 Z"
           id="path644070" />
        <g
           id="g644055"
           style="fill:#ffffff">
          <g
             id="path644058"
             style="fill:#ffffff">
            <path
               style="color:#000000;fill:#ffffff;fill-rule:evenodd;stroke-width:0.185332pt;-inkscape-stroke:none"
               d="m 267.66277,272.68135 0.92666,1.60313 h -1.85332 z"
               id="path644062" />
            <path
               style="color:#000000;fill:#ffffff;fill-rule:evenodd;-inkscape-stroke:none"
               d="m 267.66211,272.43359 -0.10547,0.18555 -1.03516,1.78906 h 2.28125 z m 0.002,0.49414 0.71094,1.23243 h -1.42383 z"
               id="path644064" />
          </g>
        </g>
      </g>
    </g>
    <circle
       style="fill:#1f7dad;stroke:#ffffff;stroke-width:0.109519;fill-opacity:1"
       id="circle296050"
       cx="-97.456039"
       cy="-171.90257"
       r="3.6581175"
       transform="scale(-1)" />
    <g
       id="path296052"
       style="fill:#ffffff"
       transform="translate(-137.80879,-117.07009)">
      <path
         style="color:#000000;fill:#ffffff;stroke-width:0.46333;-inkscape-stroke:none"
         d="m 235.26484,286.04302 v 4.54307"
         id="path644108" />
      <path
         style="color:#000000;fill:#ffffff;-inkscape-stroke:none"
         d="m 235.0332,286.04297 v 4.54297 h 0.46289 v -4.54297 z"
         id="path644110" />
      <g
         id="g644096"
         style="fill:#ffffff">
        <g
           id="path644098"
           style="fill:#ffffff">
          <path
             style="color:#000000;fill:#ffffff;fill-rule:evenodd;stroke-width:0.185332pt;-inkscape-stroke:none"
             d="m 235.26484,291.65546 -0.92666,-1.60313 h 1.85332 z"
             id="path644102" />
          <path
             style="color:#000000;fill:#ffffff;fill-rule:evenodd;-inkscape-stroke:none"
             d="m 234.125,289.92969 1.14062,1.97265 0.10547,-0.18554 1.03516,-1.78711 z m 0.42773,0.24609 h 1.42383 l -0.71094,1.23438 z"
             id="path644104" />
        </g>
      </g>
    </g>
    <g
       id="path390795"
       style="stroke:none;fill:#000000">
      <path
         style="color:#000000;fill:#000000;-inkscape-stroke:none;stroke:none"
         d="m 136.71484,153.06055 c -11.38807,0.40259 -25.29798,3.67398 -35.3789,15.15039 l 0.27539,0.24023 c 19.98732,-22.75413 55.26172,-12.97461 55.26172,-12.97461 l 0.0976,-0.35156 c 0,0 -8.86779,-2.46704 -20.25586,-2.06445 z"
         id="path3569" />
      <g
         id="g3559"
         style="stroke:none;fill:#000000">
        <g
           id="path3561"
           style="stroke:none;fill:#000000">
          <path
             style="color:#000000;fill:#000000;fill-rule:evenodd;stroke-width:0.146pt;-inkscape-stroke:none;stroke:none"
             d="m 157.73269,155.52567 -1.41217,0.3655 0.39062,-1.40678 z"
             id="path3565" />
          <path
             style="color:#000000;fill:#000000;fill-rule:evenodd;-inkscape-stroke:none;stroke:none"
             d="m 156.66211,154.29492 -0.48047,1.73242 1.73828,-0.44922 -0.11719,-0.12109 z m 0.0977,0.37695 0.7871,0.80274 -1.08789,0.2793 z"
             id="path3567" />
        </g>
      </g>
    </g>
    <g
       id="g3039"
       style="fill:#000000"
       transform="matrix(0.88355329,0,0,0.88355329,30.070966,16.386613)">
      <path
         d="m 111.73759,164.46077 c -0.0373,-0.48441 -0.31673,-2.5152 -1.6768,-2.5152 -0.48441,0 -0.91292,0.27947 -1.1365,0.48441 -0.50304,0.46578 -0.61482,0.98745 -0.61482,1.02471 0,0.0932 0.11178,0.0932 0.13041,0.0932 0.11179,0 0.13042,-0.0186 0.16768,-0.14905 0.16768,-0.48441 0.78251,-0.78251 1.34144,-0.78251 1.34144,0 1.50912,1.34144 1.50912,2.17984 0,0.42852 -0.0186,0.50304 -0.0559,0.5962 -0.18631,0.63345 -0.44715,1.54638 -0.44715,1.80721 0,0.0932 0.0373,0.18631 0.14905,0.18631 0.0559,0 0.14905,0 0.27947,-0.42851 0.11178,-0.31673 0.26083,-0.93156 0.33536,-1.52775 0.0186,-0.2981 0.48441,-1.41596 0.67072,-1.80722 0.11178,-0.26083 0.27946,-0.65209 0.67072,-1.3787 0.0373,-0.0373 0.0559,-0.0745 0.0559,-0.11178 0,-0.0932 -0.11179,-0.0932 -0.14905,-0.0932 -0.0186,0 -0.0932,0 -0.11179,0.0373 -0.11178,0.16768 -0.74524,1.36007 -1.11786,2.38478 z m 0,0"
         id="id-13c5a5de-b35e-4c3f-b7e6-207cba14a42a"
         style="fill:#000000;fill-opacity:1;stroke-width:1.19239" />
      <path
         d="m 117.03314,160.87526 h -0.26084 c 0,0.11179 -0.0745,0.48441 -0.16768,0.5403 -0.0373,0.0373 -0.5403,0.0373 -0.63346,0.0373 h -1.15512 c 0.39125,-0.27947 0.81976,-0.61483 1.17375,-0.85703 0.54031,-0.37263 1.04335,-0.70799 1.04335,-1.34144 0,-0.76388 -0.72662,-1.17376 -1.56502,-1.17376 -0.80113,0 -1.39733,0.44714 -1.39733,1.04334 0,0.2981 0.26084,0.35399 0.35399,0.35399 0.14905,0 0.33536,-0.11179 0.33536,-0.35399 0,-0.20494 -0.14905,-0.33536 -0.33536,-0.33536 0.16768,-0.27947 0.52167,-0.44715 0.91293,-0.44715 0.57756,0 1.06197,0.33536 1.06197,0.91293 0,0.50304 -0.35399,0.89429 -0.80114,1.26691 l -1.45322,1.22965 c -0.0559,0.0559 -0.0745,0.0559 -0.0745,0.0932 v 0.18631 h 2.7574 z m 0,0"
         id="id-20f10c25-238f-4883-a7c7-15da50532de1"
         style="fill:#000000;fill-opacity:1;stroke-width:1.19239" />
      <path
         style="color:#000000;fill:#000000;stroke-miterlimit:10;-inkscape-stroke:none"
         d="m 97.044922,167.70703 v 0.47461 h 32.101558 v -0.47461 z"
         id="id-f1e0ccd2-aa4c-4781-b7b1-dd761632898c" />
      <path
         d="m 101.44502,173.65187 v -0.2981 h -0.93155 v -3.70759 c 0,-0.16767 0,-0.2422 -0.16768,-0.2422 -0.11179,0 -0.14905,0 -0.22357,0.13042 l -2.757406,3.81937 v 0.2981 h 2.459304 v 0.67072 c 0,0.2981 0,0.39125 -0.689351,0.39125 h -0.223573 v 0.2981 c 0.428516,-0.0186 0.950186,-0.0373 1.248286,-0.0373 0.31673,0 0.8384,0.0186 1.26691,0.0373 v -0.2981 h -0.22357 c -0.68935,0 -0.68935,-0.0932 -0.68935,-0.39125 v -0.67072 z m -1.565009,-3.33497 v 3.03687 h -2.198469 z m 0,0"
         id="id-ddd48ec4-f4e5-4c7f-b66e-f66f1e29716c"
         style="fill:#000000;fill-opacity:1;stroke-width:1.19239" />
      <path
         d="m 103.40398,169.10588 c 0,-0.13041 0,-0.31673 -0.20495,-0.31673 -0.20494,0 -0.20494,0.18632 -0.20494,0.31673 v 7.65738 c 0,0.13042 0,0.31673 0.18631,0.31673 0.22358,0 0.22358,-0.18631 0.22358,-0.31673 z m 0,0"
         id="id-b5d8ed79-2717-494c-9e5e-a7ab3fb7489a"
         style="fill:#000000;fill-opacity:1;stroke-width:1.19239" />
      <path
         d="m 108.25595,169.81386 c 0,-0.13041 -0.11178,-0.31672 -0.33536,-0.31672 -0.2422,0 -0.46577,0.2422 -0.46577,0.46577 0,0.13042 0.0932,0.31673 0.33536,0.31673 0.22357,0 0.46577,-0.22357 0.46577,-0.46578 z m -1.76995,5.60796 c -0.13042,0.57757 -0.57756,1.04335 -1.06197,1.04335 -0.11179,0 -0.20494,0 -0.2981,-0.0373 0.20494,-0.11178 0.27947,-0.29809 0.27947,-0.42851 0,-0.20494 -0.16768,-0.2981 -0.33536,-0.2981 -0.24221,0 -0.46578,0.22357 -0.46578,0.48441 0,0.31673 0.31673,0.52167 0.81977,0.52167 0.50304,0 1.47185,-0.2981 1.73269,-1.30418 l 0.74524,-2.98097 c 0.0186,-0.0932 0.0373,-0.16768 0.0373,-0.2981 0,-0.44715 -0.39126,-0.78251 -0.87567,-0.78251 -0.93155,0 -1.45322,1.15513 -1.45322,1.28555 0,0.0932 0.11179,0.0932 0.13042,0.0932 0.0932,0 0.11178,-0.0186 0.16768,-0.14905 0.20494,-0.48441 0.63345,-0.98745 1.11786,-0.98745 0.20494,0 0.27947,0.13042 0.27947,0.40988 0,0.0932 0,0.20494 -0.0186,0.24221 z m 0,0"
         id="id-d06e7837-0a1e-4766-a2e3-75e0d62191dc"
         style="fill:#000000;fill-opacity:1;stroke-width:1.19239" />
      <path
         d="m 115.20162,173.1302 c 0.13042,0 0.33536,0 0.33536,-0.18631 0,-0.22357 -0.20494,-0.22357 -0.33536,-0.22357 h -4.95587 c -0.13042,0 -0.33536,0 -0.33536,0.20494 0,0.20494 0.18631,0.20494 0.33536,0.20494 z m 0,0"
         id="id-feebfb33-94e6-41d0-82e3-2a7327c2c912"
         style="fill:#000000;fill-opacity:1;stroke-width:1.19239" />
      <path
         d="m 119.04947,169.49714 c 0,-0.0186 0.0186,-0.13042 0.0186,-0.13042 0,-0.0559 -0.0186,-0.13042 -0.13041,-0.13042 -0.16768,0 -0.85703,0.0745 -1.06198,0.0932 -0.0559,0 -0.18631,0.0186 -0.18631,0.18631 0,0.11178 0.13042,0.11178 0.22358,0.11178 0.39125,0 0.39125,0.0745 0.39125,0.13042 0,0.0559 -0.0186,0.11179 -0.0186,0.18631 l -1.17376,4.69504 c -0.0559,0.14905 -0.0559,0.16768 -0.0559,0.18631 0,0.13042 0.11178,0.26083 0.29809,0.26083 0.22358,0 0.31673,-0.14904 0.37263,-0.33536 0.0186,-0.0373 0.37262,-1.50911 0.40988,-1.6209 0.59619,0.0559 1.06197,0.26083 1.06197,0.68935 0,0.0373 0,0.0745 -0.0186,0.16768 -0.0373,0.11179 -0.0373,0.16768 -0.0373,0.26084 0,0.57756 0.48441,0.83839 0.89429,0.83839 0.80114,0 1.04334,-1.24828 1.04334,-1.26691 0,-0.11179 -0.0931,-0.11179 -0.13042,-0.11179 -0.11178,0 -0.13041,0.0559 -0.16768,0.20495 -0.0932,0.35399 -0.31672,0.95018 -0.72661,0.95018 -0.22357,0 -0.2981,-0.20494 -0.2981,-0.42851 0,-0.14905 0,-0.16768 0.0559,-0.37263 0.0186,-0.0373 0.0373,-0.16768 0.0373,-0.26083 0,-0.74524 -0.98745,-0.85703 -1.34144,-0.87566 0.24221,-0.14905 0.5403,-0.42852 0.68935,-0.55894 0.42852,-0.39125 0.8384,-0.7825 1.30418,-0.7825 0.0931,0 0.20494,0.0186 0.27946,0.11179 -0.35399,0.0559 -0.42851,0.33535 -0.42851,0.46577 0,0.16768 0.13042,0.2981 0.31673,0.2981 0.2422,0 0.48441,-0.18631 0.48441,-0.52167 0,-0.27947 -0.20495,-0.5962 -0.63346,-0.5962 -0.48441,0 -0.91292,0.354 -1.34144,0.74525 -0.35399,0.31673 -0.61483,0.57756 -0.96882,0.72661 z m 0,0"
         id="id-1cf480f1-b3df-4699-b4cd-30bafb035b34"
         style="fill:#000000;fill-opacity:1;stroke-width:1.19239" />
      <path
         d="m 123.31212,169.10588 c 0,-0.13041 0,-0.31673 -0.20495,-0.31673 -0.20494,0 -0.20494,0.18632 -0.20494,0.31673 v 7.65738 c 0,0.13042 0,0.31673 0.18631,0.31673 0.22358,0 0.22358,-0.18631 0.22358,-0.31673 z m 0,0"
         id="id-c9ecc2a3-244d-41ce-9046-7ae320ffdb12"
         style="fill:#000000;fill-opacity:1;stroke-width:1.19239" />
      <path
         d="m 126.46866,170.6606 c 0.55894,0 0.91293,0.35399 0.91293,0.93156 0,0.61482 -0.37262,0.93155 -0.89429,0.93155 -0.0745,0 -0.78251,0 -1.08061,-0.31673 0.24221,-0.0373 0.31673,-0.20494 0.31673,-0.35399 0,-0.22357 -0.16768,-0.37262 -0.37262,-0.37262 -0.18631,0 -0.35399,0.13042 -0.35399,0.39126 0,0.61482 0.68935,0.89429 1.50912,0.89429 0.96881,0 1.56501,-0.5962 1.56501,-1.17376 0,-0.48441 -0.42852,-0.89429 -1.09924,-1.04334 0.70799,-0.24221 0.8943,-0.68935 0.8943,-1.02471 0,-0.48441 -0.5962,-0.8384 -1.34144,-0.8384 -0.74525,0 -1.32281,0.2981 -1.32281,0.8384 0,0.27946 0.22357,0.35399 0.33536,0.35399 0.16768,0 0.33536,-0.13042 0.33536,-0.35399 0,-0.13042 -0.0745,-0.2981 -0.27947,-0.33536 0.24221,-0.26084 0.78251,-0.27947 0.91293,-0.27947 0.42851,0 0.72661,0.20494 0.72661,0.61483 0,0.35399 -0.22357,0.89429 -0.8384,0.93155 -0.16768,0 -0.18631,0 -0.35399,0.0186 -0.0559,0 -0.13042,0 -0.13042,0.0932 0,0.0931 0.0559,0.0931 0.16768,0.0931 z m 0,0"
         id="id-04bf44bf-4514-4103-b090-c9a264c82bea"
         style="fill:#000000;fill-opacity:1;stroke-width:1.19239" />
    </g>
    <g
       transform="matrix(0.635,0,0,0.635,96.16203,191.46695)"
       ns8:version="1.8.1"
       ns8:texconverter="pdflatex"
       ns8:pdfconverter="inkscape"
       ns8:text="$j$"
       ns8:preamble="/home/tana/Documents/Conferences/FINESS22/poster_packages.tex"
       ns8:scale="1.8"
       ns8:alignment="middle center"
       ns8:stroke-to-path="0"
       ns8:inkscapeversion="1.1.1"
       ns8:jacobian_sqrt="0.635"
       style="fill:#000000;stroke-width:0"
       id="g2190">
      <defs
         id="id-e2287e4f-94b4-402b-a3e8-3e9084198dc3"
         style="fill:#ffffff;stroke-width:0">
        <g
           id="id-f7c50939-1ae2-40c0-82e7-57e653af4795"
           style="fill:#ffffff;stroke-width:0">
          <g
             id="id-152ad28b-7723-4ac7-b909-f9f25894eaf8"
             style="fill:#ffffff;stroke-width:0" />
          <g
             id="id-7cf480ca-11af-4177-ac6d-fc1e728e4b98"
             style="fill:#ffffff;stroke-width:0">
            <path
               d="m 3.953125,-6.234375 c 0,-0.1875 -0.140625,-0.359375 -0.375,-0.359375 -0.234375,0 -0.53125,0.234375 -0.53125,0.53125 0,0.203125 0.140625,0.359375 0.375,0.359375 0.265625,0 0.53125,-0.265625 0.53125,-0.53125 z m -2,6.734375 c -0.1875,0.75 -0.671875,1.328125 -1.21875,1.328125 -0.0625,0 -0.21875,0 -0.390625,-0.09375 0.296875,-0.0625 0.4375,-0.328125 0.4375,-0.53125 0,-0.15625 -0.109375,-0.34375 -0.375,-0.34375 -0.25,0 -0.53125,0.203125 -0.53125,0.5625 0,0.40625 0.390625,0.625 0.875,0.625 0.703125,0 1.625,-0.53125 1.875,-1.515625 L 3.53125,-3.125 c 0.0625,-0.1875 0.0625,-0.328125 0.0625,-0.359375 0,-0.578125 -0.421875,-0.921875 -0.921875,-0.921875 -1.015625,0 -1.578125,1.453125 -1.578125,1.53125 0,0.109375 0.09375,0.109375 0.109375,0.109375 0.09375,0 0.109375,-0.015625 0.1875,-0.203125 0.25,-0.609375 0.703125,-1.21875 1.25,-1.21875 0.140625,0 0.3125,0.046875 0.3125,0.453125 0,0.234375 -0.015625,0.34375 -0.0625,0.515625 z m 0,0"
               id="id-2eec3403-8ceb-49d8-9d8c-5312730175ad"
               style="fill:#ffffff;stroke-width:0" />
          </g>
        </g>
      </defs>
      <g
         fill-opacity="1"
         id="id-e01d4109-443f-4f0e-a18f-9376bde7a646"
         transform="translate(-148.587,-128.171)"
         style="fill:#000000;stroke-width:0">
        <g
           transform="translate(148.712,134.765)"
           style="fill:#000000;stroke-width:0"
           id="g2684">
          <path
             d="m 3.953125,-6.234375 c 0,-0.1875 -0.140625,-0.359375 -0.375,-0.359375 -0.234375,0 -0.53125,0.234375 -0.53125,0.53125 0,0.203125 0.140625,0.359375 0.375,0.359375 0.265625,0 0.53125,-0.265625 0.53125,-0.53125 z m -2,6.734375 c -0.1875,0.75 -0.671875,1.328125 -1.21875,1.328125 -0.0625,0 -0.21875,0 -0.390625,-0.09375 0.296875,-0.0625 0.4375,-0.328125 0.4375,-0.53125 0,-0.15625 -0.109375,-0.34375 -0.375,-0.34375 -0.25,0 -0.53125,0.203125 -0.53125,0.5625 0,0.40625 0.390625,0.625 0.875,0.625 0.703125,0 1.625,-0.53125 1.875,-1.515625 L 3.53125,-3.125 c 0.0625,-0.1875 0.0625,-0.328125 0.0625,-0.359375 0,-0.578125 -0.421875,-0.921875 -0.921875,-0.921875 -1.015625,0 -1.578125,1.453125 -1.578125,1.53125 0,0.109375 0.09375,0.109375 0.109375,0.109375 0.09375,0 0.109375,-0.015625 0.1875,-0.203125 0.25,-0.609375 0.703125,-1.21875 1.25,-1.21875 0.140625,0 0.3125,0.046875 0.3125,0.453125 0,0.234375 -0.015625,0.34375 -0.0625,0.515625 z m 0,0"
             id="id-dabdb904-1c81-48b5-b6be-c134f5f9437b"
             style="fill:#000000;stroke-width:0" />
        </g>
      </g>
    </g>
    <g
       transform="matrix(0.635001,0,0,0.635001,160.81823,192.48898)"
       ns8:version="1.8.1"
       ns8:texconverter="pdflatex"
       ns8:pdfconverter="inkscape"
       ns8:text="$k$"
       ns8:preamble="/home/tana/Documents/Conferences/FINESS22/poster_packages.tex"
       ns8:scale="1.8"
       ns8:alignment="middle center"
       ns8:stroke-to-path="0"
       ns8:inkscapeversion="1.1.1"
       ns8:jacobian_sqrt="0.635001"
       style="fill:#000000;stroke-width:0"
       id="g1454">
      <defs
         id="id-4f8e130c-f76a-483c-a382-c6070d34d55e"
         style="fill:#ffffff;stroke-width:0">
        <g
           id="id-78a1f12d-9a0f-4e11-bbfe-6a88ed25c851"
           style="fill:#ffffff;stroke-width:0">
          <g
             id="id-ef263aad-f3c4-42c6-8c27-51832ec307e6"
             style="fill:#ffffff;stroke-width:0" />
          <g
             id="id-9a1064b0-6991-4fba-a0cf-6c6ff211fbf5"
             style="fill:#ffffff;stroke-width:0">
            <path
               d="m 2.859375,-6.8125 c 0,0 0,-0.109375 -0.125,-0.109375 -0.234375,0 -0.953125,0.078125 -1.21875,0.109375 -0.078125,0 -0.1875,0.015625 -0.1875,0.1875 0,0.125 0.09375,0.125 0.234375,0.125 0.484375,0 0.5,0.0625 0.5,0.171875 L 2.03125,-6.125 0.59375,-0.390625 c -0.046875,0.140625 -0.046875,0.15625 -0.046875,0.21875 0,0.234375 0.203125,0.28125 0.296875,0.28125 0.125,0 0.265625,-0.09375 0.328125,-0.203125 0.046875,-0.09375 0.5,-1.9375 0.5625,-2.1875 0.34375,0.03125 1.15625,0.1875 1.15625,0.84375 0,0.078125 0,0.109375 -0.03125,0.21875 -0.015625,0.109375 -0.03125,0.234375 -0.03125,0.34375 0,0.578125 0.390625,0.984375 0.90625,0.984375 0.296875,0 0.578125,-0.15625 0.796875,-0.53125 0.25,-0.4375 0.359375,-0.984375 0.359375,-1 0,-0.109375 -0.09375,-0.109375 -0.125,-0.109375 -0.09375,0 -0.109375,0.046875 -0.140625,0.1875 -0.203125,0.71875 -0.421875,1.234375 -0.859375,1.234375 -0.203125,0 -0.328125,-0.109375 -0.328125,-0.46875 0,-0.171875 0.046875,-0.40625 0.078125,-0.5625 C 3.5625,-1.3125 3.5625,-1.34375 3.5625,-1.453125 3.5625,-2.09375 2.9375,-2.375 2.078125,-2.5 2.390625,-2.671875 2.71875,-2.984375 2.9375,-3.234375 3.421875,-3.765625 3.875,-4.1875 4.359375,-4.1875 c 0.0625,0 0.078125,0 0.09375,0.015625 0.125,0.015625 0.125,0.015625 0.21875,0.078125 0.015625,0 0.015625,0.015625 0.03125,0.03125 -0.46875,0.03125 -0.5625,0.421875 -0.5625,0.546875 0,0.15625 0.109375,0.34375 0.375,0.34375 0.265625,0 0.546875,-0.21875 0.546875,-0.609375 0,-0.296875 -0.234375,-0.625 -0.671875,-0.625 -0.28125,0 -0.734375,0.078125 -1.453125,0.875 -0.34375,0.375 -0.734375,0.78125 -1.109375,0.921875 z m 0,0"
               id="id-e241bae2-b213-46ce-8951-cc09e6c3f05e"
               style="fill:#ffffff;stroke-width:0" />
          </g>
        </g>
      </defs>
      <g
         fill-opacity="1"
         id="id-d3a271b5-0536-41b6-957f-2c624f5e5b27"
         transform="translate(-149.259,-127.843)"
         style="fill:#000000;stroke-width:0">
        <g
           transform="translate(148.712,134.765)"
           style="fill:#000000;stroke-width:0"
           id="g2932">
          <path
             d="m 2.859375,-6.8125 c 0,0 0,-0.109375 -0.125,-0.109375 -0.234375,0 -0.953125,0.078125 -1.21875,0.109375 -0.078125,0 -0.1875,0.015625 -0.1875,0.1875 0,0.125 0.09375,0.125 0.234375,0.125 0.484375,0 0.5,0.0625 0.5,0.171875 L 2.03125,-6.125 0.59375,-0.390625 c -0.046875,0.140625 -0.046875,0.15625 -0.046875,0.21875 0,0.234375 0.203125,0.28125 0.296875,0.28125 0.125,0 0.265625,-0.09375 0.328125,-0.203125 0.046875,-0.09375 0.5,-1.9375 0.5625,-2.1875 0.34375,0.03125 1.15625,0.1875 1.15625,0.84375 0,0.078125 0,0.109375 -0.03125,0.21875 -0.015625,0.109375 -0.03125,0.234375 -0.03125,0.34375 0,0.578125 0.390625,0.984375 0.90625,0.984375 0.296875,0 0.578125,-0.15625 0.796875,-0.53125 0.25,-0.4375 0.359375,-0.984375 0.359375,-1 0,-0.109375 -0.09375,-0.109375 -0.125,-0.109375 -0.09375,0 -0.109375,0.046875 -0.140625,0.1875 -0.203125,0.71875 -0.421875,1.234375 -0.859375,1.234375 -0.203125,0 -0.328125,-0.109375 -0.328125,-0.46875 0,-0.171875 0.046875,-0.40625 0.078125,-0.5625 C 3.5625,-1.3125 3.5625,-1.34375 3.5625,-1.453125 3.5625,-2.09375 2.9375,-2.375 2.078125,-2.5 2.390625,-2.671875 2.71875,-2.984375 2.9375,-3.234375 3.421875,-3.765625 3.875,-4.1875 4.359375,-4.1875 c 0.0625,0 0.078125,0 0.09375,0.015625 0.125,0.015625 0.125,0.015625 0.21875,0.078125 0.015625,0 0.015625,0.015625 0.03125,0.03125 -0.46875,0.03125 -0.5625,0.421875 -0.5625,0.546875 0,0.15625 0.109375,0.34375 0.375,0.34375 0.265625,0 0.546875,-0.21875 0.546875,-0.609375 0,-0.296875 -0.234375,-0.625 -0.671875,-0.625 -0.28125,0 -0.734375,0.078125 -1.453125,0.875 -0.34375,0.375 -0.734375,0.78125 -1.109375,0.921875 z m 0,0"
             id="id-2e2ba3e7-8ba1-42a9-975b-7f6fd4c9b405"
             style="fill:#000000;stroke-width:0" />
        </g>
      </g>
    </g>
    <g
       id="path3112"
       style="stroke:none;fill:#000000">
      <path
         style="color:#000000;fill:#000000;-inkscape-stroke:none;stroke:none"
         d="m 157.24414,162.32617 c -19.98732,22.75414 -55.26172,12.97656 -55.26172,12.97656 l -0.0977,0.35157 c 0,0 35.47292,9.86688 55.63476,-13.08594 z"
         id="path3583" />
      <g
         id="g3573"
         style="stroke:none;fill:#000000">
        <g
           id="path3575"
           style="stroke:none;fill:#000000">
          <path
             style="color:#000000;fill:#000000;fill-rule:evenodd;stroke-width:0.146pt;-inkscape-stroke:none;stroke:none"
             d="m 101.12255,175.25343 1.41217,-0.3655 -0.39062,1.40678 z"
             id="path3579" />
          <path
             style="color:#000000;fill:#000000;fill-rule:evenodd;-inkscape-stroke:none;stroke:none"
             d="m 102.67383,174.75195 -1.73828,0.44922 0.11718,0.1211 1.14063,1.16015 z m -0.27735,0.27344 -0.30078,1.08203 -0.78711,-0.80273 z"
             id="path3581" />
        </g>
      </g>
    </g>
    <g
       transform="matrix(0.635,0,0,0.635,125.299,142.46373)"
       ns8:version="1.8.1"
       ns8:texconverter="pdflatex"
       ns8:pdfconverter="inkscape"
       ns8:text="$[\\ldots]$"
       ns8:preamble="/home/tana/Documents/Conferences/FINESS22/poster_packages.tex"
       ns8:scale="1.8"
       ns8:alignment="middle center"
       ns8:stroke-to-path="0"
       ns8:inkscapeversion="1.1.1"
       ns8:jacobian_sqrt="0.635"
       id="g3322"
       style="fill:#000000">
      <defs
         id="id-2ff9fe41-d7b7-4e3a-b506-cab513368ed6">
        <g
           id="id-2cb63de8-a50d-44b1-a94b-df10eb54d155">
          <g
             id="id-7f687746-52b5-4708-8df9-dc089c0c918d" />
          <g
             id="id-4e478f12-ff6a-4ec3-84df-845c98762abc">
            <path
               d="M 2.546875,2.5 V 2.09375 h -0.96875 v -9.171875 h 0.96875 v -0.40625 h -1.375 V 2.5 Z m 0,0"
               id="id-3ecc7898-674e-4eb2-91bf-37e827cb12ab" />
          </g>
          <g
             id="id-5ec21c01-e43f-42e3-a5c8-626b8fa671d4">
            <path
               d="M 1.578125,-7.484375 H 0.21875 v 0.40625 H 1.1875 V 2.09375 H 0.21875 V 2.5 h 1.359375 z m 0,0"
               id="id-afb0ac49-ef96-43f0-901e-ac53e6973f8d" />
          </g>
          <g
             id="id-d9f7769d-af1d-40e4-afaa-358efbfe7b7d" />
          <g
             id="id-62654e11-7ab3-4b23-8141-0b63f62b5157">
            <path
               d="m 1.90625,-0.53125 c 0,-0.28125 -0.234375,-0.53125 -0.515625,-0.53125 -0.296875,0 -0.53125,0.25 -0.53125,0.53125 C 0.859375,-0.234375 1.09375,0 1.390625,0 1.671875,0 1.90625,-0.234375 1.90625,-0.53125 Z m 0,0"
               id="id-48998db0-47c8-446d-b6c7-f94a2cf9bb07" />
          </g>
        </g>
      </defs>
      <g
         fill="#000000"
         fill-opacity="1"
         id="id-251d69a6-f93e-4bdb-b759-b4de619151ef"
         transform="translate(-149.884,-127.281)"
         style="fill:#000000">
        <g
           transform="translate(148.712,134.765)"
           id="g3303"
           style="fill:#000000">
          <path
             d="M 2.546875,2.5 V 2.09375 h -0.96875 v -9.171875 h 0.96875 v -0.40625 h -1.375 V 2.5 Z m 0,0"
             id="id-81c28d37-6415-49b5-9cd2-a7ef38fa78f2"
             style="fill:#000000" />
        </g>
      </g>
      <g
         fill="#000000"
         fill-opacity="1"
         id="id-807fdce9-7c3d-4c6a-8263-cede729a8b64"
         transform="translate(-149.884,-127.281)"
         style="fill:#000000">
        <g
           transform="translate(151.48,134.765)"
           id="g3307"
           style="fill:#000000">
          <path
             d="m 1.90625,-0.53125 c 0,-0.28125 -0.234375,-0.53125 -0.515625,-0.53125 -0.296875,0 -0.53125,0.25 -0.53125,0.53125 C 0.859375,-0.234375 1.09375,0 1.390625,0 1.671875,0 1.90625,-0.234375 1.90625,-0.53125 Z m 0,0"
             id="id-39135205-c357-459a-b1fe-d75d5e61f271"
             style="fill:#000000" />
        </g>
      </g>
      <g
         fill="#000000"
         fill-opacity="1"
         id="id-1c0003ae-639a-4701-8b70-bfdce19fd2be"
         transform="translate(-149.884,-127.281)"
         style="fill:#000000">
        <g
           transform="translate(155.911,134.765)"
           id="g3311"
           style="fill:#000000">
          <path
             d="m 1.90625,-0.53125 c 0,-0.28125 -0.234375,-0.53125 -0.515625,-0.53125 -0.296875,0 -0.53125,0.25 -0.53125,0.53125 C 0.859375,-0.234375 1.09375,0 1.390625,0 1.671875,0 1.90625,-0.234375 1.90625,-0.53125 Z m 0,0"
             id="id-99db19e4-fc86-4f29-90a6-1be2fc702ccb"
             style="fill:#000000" />
        </g>
      </g>
      <g
         fill="#000000"
         fill-opacity="1"
         id="id-cdcaa67e-5c82-4939-80c6-3f72285f0565"
         transform="translate(-149.884,-127.281)"
         style="fill:#000000">
        <g
           transform="translate(160.333,134.765)"
           id="g3315"
           style="fill:#000000">
          <path
             d="m 1.90625,-0.53125 c 0,-0.28125 -0.234375,-0.53125 -0.515625,-0.53125 -0.296875,0 -0.53125,0.25 -0.53125,0.53125 C 0.859375,-0.234375 1.09375,0 1.390625,0 1.671875,0 1.90625,-0.234375 1.90625,-0.53125 Z m 0,0"
             id="id-3ba0d994-bf6a-474f-ab3a-0c4655e01db5"
             style="fill:#000000" />
        </g>
      </g>
      <g
         fill="#000000"
         fill-opacity="1"
         id="id-eb6b34c8-07f6-4773-85e7-b8e73318effa"
         transform="translate(-149.884,-127.281)"
         style="fill:#000000">
        <g
           transform="translate(163.103,134.765)"
           id="g3319"
           style="fill:#000000">
          <path
             d="M 1.578125,-7.484375 H 0.21875 v 0.40625 H 1.1875 V 2.09375 H 0.21875 V 2.5 h 1.359375 z m 0,0"
             id="id-c92dea60-c3bd-48ea-97b9-7f82e3df58b6"
             style="fill:#000000" />
        </g>
      </g>
    </g>
  </g>
</svg>
