<?xml version="1.0" encoding="UTF-8" standalone="no"?>
<!-- Created with Inkscape (http://www.inkscape.org/) -->

<svg
   width="97.20829mm"
   height="62.886162mm"
   viewBox="0 0 97.20829 62.886162"
   version="1.1"
   id="svg77050"
   inkscape:version="1.3.2 (091e20ef0f, 2023-11-25)"
   sodipodi:docname="FH_model.svg"
   xmlns:inkscape="http://www.inkscape.org/namespaces/inkscape"
   xmlns:sodipodi="http://sodipodi.sourceforge.net/DTD/sodipodi-0.dtd"
   xmlns:xlink="http://www.w3.org/1999/xlink"
   xmlns="http://www.w3.org/2000/svg"
   xmlns:svg="http://www.w3.org/2000/svg">
  <sodipodi:namedview
     id="namedview77052"
     pagecolor="#ffffff"
     bordercolor="#666666"
     borderopacity="1.0"
     inkscape:pageshadow="2"
     inkscape:pageopacity="1"
     inkscape:pagecheckerboard="false"
     inkscape:document-units="mm"
     showgrid="false"
     fit-margin-top="0"
     fit-margin-left="0"
     fit-margin-right="0"
     fit-margin-bottom="0"
     inkscape:zoom="2.1649824"
     inkscape:cx="198.15404"
     inkscape:cy="107.85307"
     inkscape:window-width="1920"
     inkscape:window-height="1003"
     inkscape:window-x="1920"
     inkscape:window-y="40"
     inkscape:window-maximized="1"
     inkscape:current-layer="layer1"
     inkscape:showpageshadow="2"
     inkscape:deskcolor="#cbcbcb" />
  <defs
     id="defs77047">
    <radialGradient
       inkscape:collect="always"
       xlink:href="#linearGradient316125"
       id="radialGradient316257"
       cx="72.127411"
       cy="271.34326"
       fx="72.127411"
       fy="271.34326"
       r="8.717289"
       gradientTransform="matrix(1.0024255,0.00268666,-0.00758235,2.1596698,27.25627,-421.1073)"
       gradientUnits="userSpaceOnUse" />
    <linearGradient
       inkscape:collect="always"
       id="linearGradient316125">
      <stop
         style="stop-color:#db7371;stop-opacity:1;"
         offset="0"
         id="stop316121" />
      <stop
         style="stop-color:#db7371;stop-opacity:0;"
         offset="1"
         id="stop316123" />
    </linearGradient>
    <marker
       style="overflow:visible"
       id="TriangleOutM"
       refX="0"
       refY="0"
       orient="auto"
       inkscape:stockid="TriangleOutM"
       inkscape:isstock="true">
      <path
         transform="scale(0.4)"
         style="fill:context-stroke;fill-rule:evenodd;stroke:context-stroke;stroke-width:1pt"
         d="M 5.77,0 -2.88,5 V -5 Z"
         id="path104778" />
    </marker>
  </defs>
  <g
     inkscape:label="Capa 1"
     inkscape:groupmode="layer"
     id="layer1"
     transform="translate(-81.392878,-134.06775)">
    <ellipse
       style="fill:url(#radialGradient316257);fill-opacity:1;stroke:none;stroke-width:1.20214;stroke-miterlimit:4;stroke-dasharray:none"
       id="path315985"
       cx="97.501205"
       cy="165.09831"
       rx="8.8852253"
       ry="18.826553" />
    <path
       style="display:inline;fill:none;stroke:#000000;stroke-width:0.33095;stroke-linecap:butt;stroke-linejoin:miter;stroke-miterlimit:4;stroke-dasharray:none;stroke-opacity:1"
       d="m 123.90805,171.9026 h 11.89183"
       id="path295248"
       sodipodi:nodetypes="cc" />
    <path
       style="display:inline;fill:none;stroke:#000000;stroke-width:0.33095;stroke-linecap:butt;stroke-linejoin:miter;stroke-miterlimit:4;stroke-dasharray:none;stroke-opacity:1"
       d="m 91.51013,171.9026 h 11.89183"
       id="path294877"
       sodipodi:nodetypes="cc" />
    <path
       style="display:inline;fill:none;stroke:#000000;stroke-width:0.33095;stroke-linecap:butt;stroke-linejoin:miter;stroke-miterlimit:4;stroke-dasharray:none;stroke-opacity:1"
       d="m 156.30595,171.9026 h 11.89182"
       id="path295250"
       sodipodi:nodetypes="cc" />
    <path
       style="display:inline;fill:none;stroke:#000000;stroke-width:0.33095;stroke-linecap:butt;stroke-linejoin:miter;stroke-miterlimit:4;stroke-dasharray:none;stroke-opacity:1"
       d="m 123.90805,158.29405 h 11.89183"
       id="path295938"
       sodipodi:nodetypes="cc" />
    <path
       style="display:inline;fill:none;stroke:#000000;stroke-width:0.33095;stroke-linecap:butt;stroke-linejoin:miter;stroke-miterlimit:4;stroke-dasharray:none;stroke-opacity:1"
       d="m 91.51013,158.29405 h 11.89183"
       id="path295940"
       sodipodi:nodetypes="cc" />
    <path
       style="display:inline;fill:none;stroke:#000000;stroke-width:0.33095;stroke-linecap:butt;stroke-linejoin:miter;stroke-miterlimit:4;stroke-dasharray:none;stroke-opacity:1"
       d="m 156.30595,158.29405 h 11.89182"
       id="path295942"
       sodipodi:nodetypes="cc" />
    <path
       id="path401527"
       style="display:inline;fill:none;stroke:#000000;stroke-width:0.992849;stroke-miterlimit:4;stroke-dasharray:none"
       d="m 81.47866,145.83381 c 0.0627,0.011 0.12532,0.0269 0.18797,0.0476 0.7091,0.23683 1.41812,1.09775 2.12715,2.50476 0.70903,1.40979 1.41805,3.37125 2.12708,5.7172 0.70902,2.34316 1.41805,5.07638 2.12715,7.96564 0.70903,2.88645 1.41805,5.93172 2.12708,8.8795 0.70902,2.94775 1.41804,5.79242 2.12707,8.30554 0.70904,2.51031 1.41805,4.68074 2.12715,6.33573 0.70903,1.6522 1.41805,2.78337 2.12708,3.30436 0.70904,0.51827 1.41805,0.42071 2.12709,-0.28416 0.70903,-0.70213 1.41811,-2.01163 2.12714,-3.81985 0.70902,-1.80821 1.41806,-4.11236 2.12709,-6.7202 0.70903,-2.60787 1.41805,-5.51662 2.12708,-8.48942 0.70908,-2.97005 1.41812,-5.99861 2.12715,-8.83492 0.70902,-2.83632 1.41805,-5.47482 2.12708,-7.69818 0.70902,-2.22614 1.41805,-4.03157 2.12713,-5.27141 0.70904,-1.23984 1.41807,-1.9113 2.12709,-1.95867 0.70903,-0.0474 1.41806,0.52937 2.12708,1.68284 0.7091,1.15069 1.41799,2.88089 2.12689,5.04016 0.70955,2.15928 1.41845,4.75041 2.12734,7.55607 0.70889,2.8029 1.41778,5.82029 2.12734,8.79871 0.7089,2.97838 1.4178,5.91499 2.12667,8.57022 0.70893,2.65242 1.41846,5.01788 2.12736,6.89853 0.7089,1.88344 1.41779,3.27933 2.12735,4.07337 0.7089,0.79685 1.41777,0.98909 2.1267,0.5656 0.70887,-0.4263 1.41843,-1.4683 2.12733,-3.0425 0.7089,-1.57138 1.41779,-3.67495 2.12669,-6.13513 0.70953,-2.4574 1.41843,-5.26862 2.12733,-8.19967 0.7089,-2.93103 1.41846,-5.97631 2.12736,-8.88786 0.7089,-2.91153 1.41779,-5.68376 2.12666,-8.08821 0.70956,-2.40446 1.41846,-4.43557 2.12736,-5.92616 0.7089,-1.49339 1.4178,-2.44347 2.12736,-2.77502 0.70889,-0.33155 1.41777,-0.0418 2.12666,0.84421 0.7089,0.886 1.41846,2.36823 2.12736,4.32412 0.7089,1.9531 1.4178,4.37984 2.12736,7.07406 0.70887,2.69422 1.41777,5.65589 2.12666,8.63989 0.7089,2.98119 1.41846,5.98467 2.12736,8.75411 0.7089,2.77223 1.4178,5.30765 2.12667,7.40283 0.70956,2.09241 1.41846,3.74182 2.12735,4.80611 0.7089,1.06711 1.41846,1.54633 2.12733,1.40424 0.70893,-0.14208 1.4178,-0.90828 2.1267,-2.2317 0.70956,-1.32623 1.41845,-3.20966 2.12735,-5.49712 0.7089,-2.28465 1.41777,-4.97329 2.12733,-7.83468 0.7089,-2.86417 1.4178,-5.90386 2.1267,-8.86278 0.70889,-2.96169 1.41845,-5.83978 2.12735,-8.40305 0.70887,-2.56048 1.41777,-4.79777 2.12733,-6.53076 0.7089,-1.73021 1.4178,-2.95055 2.1267,-3.5635 0.39028,-0.33748 0.78081,-0.48831 1.17128,-0.45387" />
    <circle
       style="fill:#53257f;stroke:#ffffff;stroke-width:0.109519;fill-opacity:1"
       id="circle105059"
       cx="129.85396"
       cy="158.29405"
       r="3.6581175" />
    <g
       id="path105061"
       style="fill:#ffffff"
       transform="translate(-137.80879,-117.07009)">
      <path
         style="color:#000000;fill:#ffffff;stroke-width:0.46333;-inkscape-stroke:none"
         d="m 267.66277,278.2938 v -4.54308"
         id="path644068" />
      <path
         style="color:#000000;fill:#ffffff;-inkscape-stroke:none"
         d="m 267.43164,273.75 v 4.54297 h 0.46289 V 273.75 Z"
         id="path644070" />
      <g
         id="g644055"
         style="fill:#ffffff">
        <g
           id="path644058"
           style="fill:#ffffff">
          <path
             style="color:#000000;fill:#ffffff;fill-rule:evenodd;stroke-width:0.185332pt;-inkscape-stroke:none"
             d="m 267.66277,272.68135 0.92666,1.60313 h -1.85332 z"
             id="path644062" />
          <path
             style="color:#000000;fill:#ffffff;fill-rule:evenodd;-inkscape-stroke:none"
             d="m 267.66211,272.43359 -0.10547,0.18555 -1.03516,1.78906 h 2.28125 z m 0.002,0.49414 0.71094,1.23243 h -1.42383 z"
             id="path644064" />
        </g>
      </g>
    </g>
    <circle
       style="fill:#53257f;stroke:#ffffff;stroke-width:0.109519;fill-opacity:1"
       id="path103412"
       cx="97.546356"
       cy="158.29405"
       r="3.6581175" />
    <g
       id="path103527"
       style="fill:#ffffff"
       transform="translate(-137.80879,-117.07009)">
      <path
         style="color:#000000;fill:#ffffff;stroke-width:0.46333;-inkscape-stroke:none"
         d="m 235.35514,278.29379 v -4.54307"
         id="path644088" />
      <path
         style="color:#000000;fill:#ffffff;-inkscape-stroke:none"
         d="m 235.12305,273.75 v 4.54297 h 0.46289 V 273.75 Z"
         id="path644090" />
      <g
         id="g644076"
         style="fill:#ffffff">
        <g
           id="path644078"
           style="fill:#ffffff">
          <path
             style="color:#000000;fill:#ffffff;fill-rule:evenodd;stroke-width:0.185332pt;-inkscape-stroke:none"
             d="m 235.35514,272.68135 0.92666,1.60313 h -1.85332 z"
             id="path644082" />
          <path
             style="color:#000000;fill:#ffffff;fill-rule:evenodd;-inkscape-stroke:none"
             d="m 235.35547,272.43359 -0.10742,0.18555 -1.03321,1.78906 h 2.28125 z m 0,0.4961 0.71289,1.23047 h -1.42578 z"
             id="path644084" />
        </g>
      </g>
    </g>
    <circle
       style="fill:#1f7dad;stroke:#ffffff;stroke-width:0.109519;fill-opacity:1"
       id="circle296050"
       cx="-97.456039"
       cy="-171.90257"
       r="3.6581175"
       transform="scale(-1)" />
    <g
       id="path296052"
       style="fill:#ffffff"
       transform="translate(-137.80879,-117.07009)">
      <path
         style="color:#000000;fill:#ffffff;stroke-width:0.46333;-inkscape-stroke:none"
         d="m 235.26484,286.04302 v 4.54307"
         id="path644108" />
      <path
         style="color:#000000;fill:#ffffff;-inkscape-stroke:none"
         d="m 235.0332,286.04297 v 4.54297 h 0.46289 v -4.54297 z"
         id="path644110" />
      <g
         id="g644096"
         style="fill:#ffffff">
        <g
           id="path644098"
           style="fill:#ffffff">
          <path
             style="color:#000000;fill:#ffffff;fill-rule:evenodd;stroke-width:0.185332pt;-inkscape-stroke:none"
             d="m 235.26484,291.65546 -0.92666,-1.60313 h 1.85332 z"
             id="path644102" />
          <path
             style="color:#000000;fill:#ffffff;fill-rule:evenodd;-inkscape-stroke:none"
             d="m 234.125,289.92969 1.14062,1.97265 0.10547,-0.18554 1.03516,-1.78711 z m 0.42773,0.24609 h 1.42383 l -0.71094,1.23438 z"
             id="path644104" />
        </g>
      </g>
    </g>
    <path
       style="fill:#000000;fill-opacity:1;stroke:none;stroke-width:0.6619"
       d="m 131.32703,191.45708 c 0,-0.12411 -0.0931,-0.23787 -0.24821,-0.23787 -0.15513,0 -0.35163,0.15513 -0.35163,0.35163 0,0.13445 0.0931,0.23787 0.24821,0.23787 0.17582,0 0.35163,-0.17581 0.35163,-0.35163 z m -1.3238,4.45748 c -0.1241,0.49642 -0.44471,0.87909 -0.80669,0.87909 -0.0414,0 -0.14479,0 -0.25855,-0.0621 0.1965,-0.0414 0.28958,-0.21718 0.28958,-0.35163 0,-0.10342 -0.0724,-0.22753 -0.24821,-0.22753 -0.16548,0 -0.35164,0.13445 -0.35164,0.37232 0,0.2689 0.25856,0.41369 0.57916,0.41369 0.4654,0 1.07559,-0.35164 1.24107,-1.0032 l 0.59984,-2.42007 c 0.0414,-0.1241 0.0414,-0.21718 0.0414,-0.23787 0,-0.38266 -0.27924,-0.61019 -0.61019,-0.61019 -0.67224,0 -1.04456,0.96183 -1.04456,1.01354 0,0.0724 0.0621,0.0724 0.0724,0.0724 0.062,0 0.0724,-0.0103 0.1241,-0.13444 0.16548,-0.40335 0.4654,-0.80669 0.82738,-0.80669 0.0931,0 0.20684,0.031 0.20684,0.29992 0,0.15513 -0.0103,0.22753 -0.0414,0.34129 z m 0,0"
       id="path77503" />
    <path
       style="fill:#000000;fill-opacity:1;stroke:none;stroke-width:0.6619"
       d="m 157.9534,191.47259 c 0,-0.12411 -0.0931,-0.23787 -0.24821,-0.23787 -0.15513,0 -0.35163,0.15513 -0.35163,0.35163 0,0.13445 0.0931,0.23787 0.24821,0.23787 0.17582,0 0.35163,-0.17581 0.35163,-0.35163 z m -1.3238,4.45748 c -0.1241,0.49642 -0.44471,0.87909 -0.80669,0.87909 -0.0414,0 -0.14479,0 -0.25855,-0.0621 0.1965,-0.0414 0.28958,-0.21718 0.28958,-0.35163 0,-0.10342 -0.0724,-0.22753 -0.24821,-0.22753 -0.16548,0 -0.35164,0.13445 -0.35164,0.37232 0,0.2689 0.25856,0.41369 0.57916,0.41369 0.4654,0 1.07559,-0.35164 1.24107,-1.0032 l 0.59984,-2.42007 c 0.0414,-0.1241 0.0414,-0.21718 0.0414,-0.23787 0,-0.38266 -0.27924,-0.61019 -0.61019,-0.61019 -0.67224,0 -1.04456,0.96183 -1.04456,1.01354 0,0.0724 0.0621,0.0724 0.0724,0.0724 0.062,0 0.0724,-0.0103 0.1241,-0.13444 0.16548,-0.40335 0.4654,-0.80669 0.82738,-0.80669 0.0931,0 0.20684,0.031 0.20684,0.29992 0,0.15513 -0.0103,0.22753 -0.0414,0.34129 z m 0,0"
       id="path77507" />
    <path
       style="fill:#000000;fill-opacity:1;stroke:none;stroke-width:0.6619"
       d="m 162.59464,194.07882 h 1.84091 c 0.0931,0 0.21718,0 0.21718,-0.13445 0,-0.12411 -0.1241,-0.12411 -0.21718,-0.12411 h -1.84091 v -1.85125 c 0,-0.0931 0,-0.21718 -0.13445,-0.21718 -0.13445,0 -0.13445,0.1241 -0.13445,0.21718 v 1.85125 h -1.84091 c -0.0931,0 -0.21718,0 -0.21718,0.12411 0,0.13445 0.1241,0.13445 0.21718,0.13445 h 1.84091 v 1.85125 c 0,0.0931 0,0.21719 0.13445,0.21719 0.13445,0 0.13445,-0.12411 0.13445,-0.21719 z m 0,0"
       id="path77511" />
    <path
       style="fill:#000000;fill-opacity:1;stroke:none;stroke-width:0.6619"
       d="m 168.43259,191.37951 c 0,-0.16548 0,-0.17582 -0.15513,-0.17582 -0.41369,0.42403 -0.99285,0.42403 -1.1997,0.42403 v 0.20685 c 0.13445,0 0.51711,0 0.85841,-0.17582 v 3.42326 c 0,0.23787 -0.0207,0.31027 -0.61019,0.31027 h -0.20685 v 0.20684 c 0.22753,-0.0207 0.79635,-0.0207 1.06525,-0.0207 0.25855,0 0.83771,0 1.06524,0.0207 v -0.20684 h -0.20684 c -0.59985,0 -0.61019,-0.0724 -0.61019,-0.31027 z m 0,0"
       id="path77515" />
    <path
       style="fill:#000000;fill-opacity:1;stroke:none;stroke-width:0.6619"
       d="m 93.1568,191.47259 c 0,-0.12411 -0.0931,-0.23787 -0.24821,-0.23787 -0.15513,0 -0.35163,0.15513 -0.35163,0.35163 0,0.13445 0.0931,0.23787 0.24821,0.23787 0.17582,0 0.35163,-0.17581 0.35163,-0.35163 z m -1.3238,4.45748 c -0.1241,0.49642 -0.44471,0.87909 -0.80669,0.87909 -0.0414,0 -0.14479,0 -0.25855,-0.0621 0.1965,-0.0414 0.28958,-0.21718 0.28958,-0.35163 0,-0.10342 -0.0724,-0.22753 -0.24821,-0.22753 -0.16548,0 -0.35164,0.13445 -0.35164,0.37232 0,0.2689 0.25856,0.41369 0.57916,0.41369 0.4654,0 1.07559,-0.35164 1.24107,-1.0032 l 0.59984,-2.42007 c 0.0414,-0.1241 0.0414,-0.21718 0.0414,-0.23787 0,-0.38266 -0.27924,-0.61019 -0.61019,-0.61019 -0.67224,0 -1.04456,0.96183 -1.04456,1.01354 0,0.0724 0.0621,0.0724 0.0724,0.0724 0.062,0 0.0724,-0.0103 0.1241,-0.13444 0.16548,-0.40335 0.4654,-0.80669 0.82738,-0.80669 0.0931,0 0.20684,0.031 0.20684,0.29992 0,0.15513 -0.0103,0.22753 -0.0414,0.34129 z m 0,0"
       id="path77519" />
    <path
       style="fill:#000000;fill-opacity:1;stroke:none;stroke-width:0.6619"
       d="m 99.44245,194.07882 c 0.11376,0 0.23787,0 0.23787,-0.13445 0,-0.12411 -0.12411,-0.12411 -0.23787,-0.12411 h -3.56806 c -0.11376,0 -0.22752,0 -0.22752,0.12411 0,0.13445 0.11376,0.13445 0.22752,0.13445 z m 0,0"
       id="path77523" />
    <path
       style="fill:#000000;fill-opacity:1;stroke:none;stroke-width:0.6619"
       d="m 103.63757,191.37951 c 0,-0.16548 0,-0.17582 -0.15513,-0.17582 -0.41369,0.42403 -0.99285,0.42403 -1.1997,0.42403 v 0.20685 c 0.13445,0 0.51711,0 0.85841,-0.17582 v 3.42326 c 0,0.23787 -0.0207,0.31027 -0.61019,0.31027 h -0.20685 v 0.20684 c 0.22753,-0.0207 0.79635,-0.0207 1.06525,-0.0207 0.25855,0 0.83771,0 1.06524,0.0207 v -0.20684 h -0.20684 c -0.59985,0 -0.61019,-0.0724 -0.61019,-0.31027 z m 0,0"
       id="path77527" />
    <g
       id="path390795"
       style="stroke:none;fill:#000000">
      <path
         style="color:#000000;fill:#000000;-inkscape-stroke:none;stroke:none"
         d="m 145.20898,142.73242 c -0.87176,0.0821 -1.76721,0.26362 -2.68359,0.56055 -3.66553,1.18773 -7.65018,4.2225 -11.78125,10.16601 l 0.30078,0.20704 c 4.10154,-5.90104 8.02596,-8.86997 11.5918,-10.0254 3.56583,-1.15542 6.78611,-0.50818 9.51758,0.875 5.46292,2.76637 8.91797,8.48829 8.91797,8.48829 l 0.3125,-0.1875 c 0,0 -3.4783,-5.7972 -9.06641,-8.62696 -2.09554,-1.06115 -4.49408,-1.70339 -7.10938,-1.45703 z"
         id="path3496" />
      <g
         id="g3486"
         style="stroke:none;fill:#000000">
        <g
           id="path3488"
           style="stroke:none;fill:#000000">
          <path
             style="color:#000000;fill:#000000;fill-rule:evenodd;stroke-width:0.146pt;-inkscape-stroke:none;stroke:none"
             d="m 161.66387,153.63167 -1.27679,-0.70541 1.2508,-0.75306 z"
             id="path3492" />
          <path
             style="color:#000000;fill:#000000;fill-rule:evenodd;-inkscape-stroke:none;stroke:none"
             d="m 161.73242,152.00195 -1.54101,0.92774 1.57226,0.86914 -0.002,-0.16797 z m -0.18945,0.33985 0.0215,1.12304 -0.98437,-0.54101 z"
             id="path3494" />
        </g>
      </g>
    </g>
    <g
       id="use8786"
       style="fill:#000000;fill-opacity:1"
       transform="translate(142.72631,140.88025)">
      <path
         style="stroke:none;fill:#000000"
         d="M 5.390625,-6.078125 C 5.46875,-6.40625 5.5,-6.5 6.046875,-6.5 c 0.15625,0 0.265625,0 0.265625,-0.1875 0,-0.09375 -0.0625,-0.125 -0.140625,-0.125 -0.25,0 -0.859375,0.03125 -1.109375,0.03125 -0.328125,0 -1.140625,-0.03125 -1.46875,-0.03125 -0.078125,0 -0.203125,0 -0.203125,0.203125 C 3.390625,-6.5 3.46875,-6.5 3.734375,-6.5 c 0.21875,0 0.328125,0 0.578125,0.015625 0.234375,0.03125 0.296875,0.0625 0.296875,0.203125 0,0.0625 -0.015625,0.125 -0.03125,0.203125 L 3.421875,-1.5 C 3.1875,-0.53125 2.515625,0 2,0 1.734375,0 1.203125,-0.09375 1.046875,-0.625 c 0.03125,0.015625 0.09375,0.015625 0.125,0.015625 0.390625,0 0.640625,-0.34375 0.640625,-0.640625 0,-0.3125 -0.265625,-0.421875 -0.4375,-0.421875 -0.171875,0 -0.671875,0.125 -0.671875,0.796875 0,0.625 0.53125,1.09375 1.328125,1.09375 0.90625,0 1.953125,-0.65625 2.203125,-1.640625 z m 0,0"
         id="path77608" />
    </g>
    <g
       id="use5611"
       style="fill:#000000;fill-opacity:1"
       transform="translate(93.3762,146.05301)">
      <path
         style="stroke:none;fill:#000000"
         d="M 6.328125,-5.765625 C 6.4375,-6.171875 6.609375,-6.46875 7.40625,-6.5 c 0.046875,0 0.171875,-0.015625 0.171875,-0.203125 0,0 0,-0.109375 -0.125,-0.109375 -0.328125,0 -0.6875,0.03125 -1.015625,0.03125 -0.34375,0 -0.71875,-0.03125 -1.046875,-0.03125 -0.0625,0 -0.171875,0 -0.171875,0.203125 C 5.21875,-6.5 5.3125,-6.5 5.390625,-6.5 c 0.578125,0.015625 0.6875,0.21875 0.6875,0.4375 0,0.03125 -0.03125,0.1875 -0.03125,0.203125 l -0.90625,3.5625 C 4.8125,-0.953125 3.65625,-0.09375 2.65625,-0.09375 c -0.671875,0 -1.203125,-0.4375 -1.203125,-1.296875 0,-0.015625 0,-0.328125 0.109375,-0.765625 L 2.515625,-6.046875 C 2.609375,-6.40625 2.625,-6.5 3.359375,-6.5 c 0.265625,0 0.34375,0 0.34375,-0.203125 0,-0.109375 -0.109375,-0.109375 -0.140625,-0.109375 -0.28125,0 -1,0.03125 -1.28125,0.03125 -0.28125,0 -1,-0.03125 -1.28125,-0.03125 -0.078125,0 -0.1875,0 -0.1875,0.203125 C 0.8125,-6.5 0.890625,-6.5 1.09375,-6.5 c 0.015625,0 0.203125,0 0.375,0.015625 0.171875,0.03125 0.265625,0.03125 0.265625,0.171875 0,0.046875 -0.109375,0.46875 -0.171875,0.703125 l -0.21875,0.875 C 1.25,-4.34375 0.78125,-2.46875 0.734375,-2.265625 0.671875,-2 0.671875,-1.84375 0.671875,-1.6875 c 0,1.203125 0.90625,1.90625 1.953125,1.90625 1.25,0 2.484375,-1.125 2.8125,-2.4375 z m 0,0"
         id="path77612" />
    </g>
  </g>
</svg>
