<?xml version="1.0" encoding="utf-8" standalone="no"?>
<!DOCTYPE svg PUBLIC "-//W3C//DTD SVG 1.1//EN"
  "http://www.w3.org/Graphics/SVG/1.1/DTD/svg11.dtd">
<svg xmlns:xlink="http://www.w3.org/1999/xlink" width="216pt" height="216pt" viewBox="0 0 216 216" xmlns="http://www.w3.org/2000/svg" version="1.1">
 <metadata>
  <rdf:RDF xmlns:dc="http://purl.org/dc/elements/1.1/" xmlns:cc="http://creativecommons.org/ns#" xmlns:rdf="http://www.w3.org/1999/02/22-rdf-syntax-ns#">
   <cc:Work>
    <dc:type rdf:resource="http://purl.org/dc/dcmitype/StillImage"/>
    <dc:date>2025-09-04T00:04:08.896976</dc:date>
    <dc:format>image/svg+xml</dc:format>
    <dc:creator>
     <cc:Agent>
      <dc:title>Matplotlib v3.10.0, https://matplotlib.org/</dc:title>
     </cc:Agent>
    </dc:creator>
   </cc:Work>
  </rdf:RDF>
 </metadata>
 <defs>
  <style type="text/css">*{stroke-linejoin: round; stroke-linecap: butt}</style>
 </defs>
 <g id="figure_1">
  <g id="patch_1">
   <path d="M 0 216 
L 216 216 
L 216 0 
L 0 0 
L 0 216 
z
" style="fill: none"/>
  </g>
  <g id="axes_1">
   <g id="patch_2">
    <path d="M 193.86 109.08 
L 193.86 109.08 
L 193.86 109.08 
L 193.404441 117.772587 
L 192.042754 126.369936 
L 189.78986 134.777853 
L 186.67044 142.904219 
L 182.718673 150.66 
L 177.977853 157.960222 
L 172.499924 164.724901 
L 166.344901 170.879924 
L 159.580222 176.357853 
L 152.28 181.098673 
L 144.524219 185.05044 
L 136.397853 188.16986 
L 127.989936 190.422754 
L 119.392587 191.784441 
L 110.7 192.24 
L 102.007413 191.784441 
L 93.410064 190.422754 
L 85.002147 188.16986 
L 76.875781 185.05044 
L 69.12 181.098673 
L 61.819778 176.357853 
L 55.055099 170.879924 
L 48.900076 164.724901 
L 43.422147 157.960222 
L 38.681327 150.66 
L 34.72956 142.904219 
L 31.61014 134.777853 
L 29.357246 126.369936 
L 27.995559 117.772587 
L 27.54 109.08 
L 27.995559 100.387413 
L 29.357246 91.790064 
L 31.61014 83.382147 
L 34.72956 75.255781 
L 38.681327 67.5 
L 43.422147 60.199778 
L 48.900076 53.435099 
L 55.055099 47.280076 
L 61.819778 41.802147 
L 69.12 37.061327 
L 76.875781 33.10956 
L 85.002147 29.99014 
L 93.410064 27.737246 
L 102.007413 26.375559 
L 110.7 25.92 
L 119.392587 26.375559 
L 127.989936 27.737246 
L 136.397853 29.99014 
L 144.524219 33.10956 
L 152.28 37.061327 
L 159.580222 41.802147 
L 166.344901 47.280076 
L 172.499924 53.435099 
L 177.977853 60.199778 
L 182.718673 67.5 
L 186.67044 75.255781 
L 189.78986 83.382147 
L 192.042754 91.790064 
L 193.404441 100.387413 
L 193.86 109.08 
z
" style="fill: #ffffff"/>
   </g>
   <g id="LineCollection_1">
    <path d="M 96.293399 190.56 
L 94.34704 190.068671 
L 92.413195 189.515363 
L 90.493345 188.900499 
L 88.588958 188.224549 
L 86.701493 187.488032 
L 84.832394 186.69151 
L 82.98309 185.835594 
L 81.154998 184.920937 
L 79.349517 183.948241 
L 77.568027 182.918249 
L 75.811893 181.83175 
L 74.082457 180.689576 
L 72.381045 179.4926 
L 70.708958 178.241738 
L 69.067475 176.937948 
L 67.457853 175.582227 
L 65.881323 174.175613 
L 64.339092 172.719182 
L 62.832341 171.21405 
L 61.362221 169.661367 
L 59.92986 168.062323 
L 58.536352 166.41814 
L 57.182763 164.730077 
L 55.870131 162.999426 
L 54.599459 161.227512 
L 53.37172 159.41569 
L 52.187853 157.565347 
L 51.048765 155.677898 
L 49.955327 153.754789 
L 48.908375 151.797492 
L 47.908712 149.807503 
L 46.957102 147.786346 
L 46.054274 145.735568 
L 45.200917 143.656738 
L 44.397686 141.551447 
L 43.645195 139.421306 
L 42.944021 137.267945 
L 42.294698 135.093013 
L 41.697725 132.898173 
L 41.153559 130.685106 
L 40.662615 128.455504 
L 40.225269 126.211075 
L 39.841857 123.953535 
L 39.512672 121.684614 
L 39.237964 119.406046 
L 39.017946 117.119575 
L 38.852785 114.826953 
L 38.742607 112.529932 
L 38.687497 110.230271 
L 38.687497 107.929729 
L 38.742607 105.630068 
L 38.852785 103.333047 
L 39.017946 101.040425 
L 39.237964 98.753954 
L 39.512672 96.475386 
L 39.841857 94.206465 
L 40.225269 91.948925 
L 40.662615 89.704496 
L 41.153559 87.474894 
L 41.697725 85.261827 
L 42.294698 83.066987 
L 42.944021 80.892055 
L 43.645195 78.738694 
L 44.397686 76.608553 
L 45.200917 74.503262 
L 46.054274 72.424432 
L 46.957102 70.373654 
L 47.908712 68.352497 
L 48.908375 66.362508 
L 49.955327 64.405211 
L 51.048765 62.482102 
L 52.187853 60.594653 
L 53.37172 58.74431 
L 54.599459 56.932488 
L 55.870131 55.160574 
L 57.182763 53.429923 
L 58.536352 51.74186 
L 59.92986 50.097677 
L 61.362221 48.498633 
L 62.832341 46.94595 
L 64.339092 45.440818 
L 65.881323 43.984387 
L 67.457853 42.577773 
L 69.067475 41.222052 
L 70.708958 39.918262 
L 72.381045 38.6674 
L 74.082457 37.470424 
L 75.811893 36.32825 
L 77.568027 35.241751 
L 79.349517 34.211759 
L 81.154998 33.239063 
L 82.98309 32.324406 
L 84.832394 31.46849 
L 86.701493 30.671968 
L 88.588958 29.935451 
L 90.493345 29.259501 
L 92.413195 28.644637 
L 94.34704 28.091329 
L 96.293399 27.6 
" clip-path="url(#p2ec815c14c)" style="fill: none; stroke: #b0b0b0; stroke-width: 0.8"/>
    <path d="M 102.382345 190.56 
L 101.258614 190.068671 
L 100.142108 189.515363 
L 99.033682 188.900499 
L 97.934184 188.224549 
L 96.844456 187.488032 
L 95.765331 186.69151 
L 94.697635 185.835594 
L 93.642185 184.920937 
L 92.59979 183.948241 
L 91.571246 182.918249 
L 90.557342 181.83175 
L 89.558852 180.689576 
L 88.576541 179.4926 
L 87.611161 178.241738 
L 86.66345 176.937948 
L 85.734135 175.582227 
L 84.823925 174.175613 
L 83.933517 172.719182 
L 83.063594 171.21405 
L 82.21482 169.661367 
L 81.387846 168.062323 
L 80.583304 166.41814 
L 79.801809 164.730077 
L 79.04396 162.999426 
L 78.310338 161.227512 
L 77.601502 159.41569 
L 76.917996 157.565347 
L 76.260343 155.677898 
L 75.629047 153.754789 
L 75.024589 151.797492 
L 74.447433 149.807503 
L 73.898021 147.786346 
L 73.376772 145.735568 
L 72.884087 143.656738 
L 72.420341 141.551447 
L 71.985891 139.421306 
L 71.581067 137.267945 
L 71.206181 135.093013 
L 70.861518 132.898173 
L 70.547343 130.685106 
L 70.263897 128.455504 
L 70.011395 126.211075 
L 69.790032 123.953535 
L 69.599977 121.684614 
L 69.441375 119.406046 
L 69.314347 117.119575 
L 69.218991 114.826953 
L 69.15538 112.529932 
L 69.123562 110.230271 
L 69.123562 107.929729 
L 69.15538 105.630068 
L 69.218991 103.333047 
L 69.314347 101.040425 
L 69.441375 98.753954 
L 69.599977 96.475386 
L 69.790032 94.206465 
L 70.011395 91.948925 
L 70.263897 89.704496 
L 70.547343 87.474894 
L 70.861518 85.261827 
L 71.206181 83.066987 
L 71.581067 80.892055 
L 71.985891 78.738694 
L 72.420341 76.608553 
L 72.884087 74.503262 
L 73.376772 72.424432 
L 73.898021 70.373654 
L 74.447433 68.352497 
L 75.024589 66.362508 
L 75.629047 64.405211 
L 76.260343 62.482102 
L 76.917996 60.594653 
L 77.601502 58.74431 
L 78.310338 56.932488 
L 79.04396 55.160574 
L 79.801809 53.429923 
L 80.583304 51.74186 
L 81.387846 50.097677 
L 82.21482 48.498633 
L 83.063594 46.94595 
L 83.933517 45.440818 
L 84.823925 43.984387 
L 85.734135 42.577773 
L 86.66345 41.222052 
L 87.611161 39.918262 
L 88.576541 38.6674 
L 89.558852 37.470424 
L 90.557342 36.32825 
L 91.571246 35.241751 
L 92.59979 34.211759 
L 93.642185 33.239063 
L 94.697635 32.324406 
L 95.765331 31.46849 
L 96.844456 30.671968 
L 97.934184 29.935451 
L 99.033682 29.259501 
L 100.142108 28.644637 
L 101.258614 28.091329 
L 102.382345 27.6 
" clip-path="url(#p2ec815c14c)" style="fill: none; stroke: #b0b0b0; stroke-width: 0.8"/>
    <path d="M 110.7 190.56 
L 110.7 190.068671 
L 110.7 189.515363 
L 110.7 188.900499 
L 110.7 188.224549 
L 110.7 187.488032 
L 110.7 186.69151 
L 110.7 185.835594 
L 110.7 184.920937 
L 110.7 183.948241 
L 110.7 182.918249 
L 110.7 181.83175 
L 110.7 180.689576 
L 110.7 179.4926 
L 110.7 178.241738 
L 110.7 176.937948 
L 110.7 175.582227 
L 110.7 174.175613 
L 110.7 172.719182 
L 110.7 171.21405 
L 110.7 169.661367 
L 110.7 168.062323 
L 110.7 166.41814 
L 110.7 164.730077 
L 110.7 162.999426 
L 110.7 161.227512 
L 110.7 159.41569 
L 110.7 157.565347 
L 110.7 155.677898 
L 110.7 153.754789 
L 110.7 151.797492 
L 110.7 149.807503 
L 110.7 147.786346 
L 110.7 145.735568 
L 110.7 143.656738 
L 110.7 141.551447 
L 110.7 139.421306 
L 110.7 137.267945 
L 110.7 135.093013 
L 110.7 132.898173 
L 110.7 130.685106 
L 110.7 128.455504 
L 110.7 126.211075 
L 110.7 123.953535 
L 110.7 121.684614 
L 110.7 119.406046 
L 110.7 117.119575 
L 110.7 114.826953 
L 110.7 112.529932 
L 110.7 110.230271 
L 110.7 107.929729 
L 110.7 105.630068 
L 110.7 103.333047 
L 110.7 101.040425 
L 110.7 98.753954 
L 110.7 96.475386 
L 110.7 94.206465 
L 110.7 91.948925 
L 110.7 89.704496 
L 110.7 87.474894 
L 110.7 85.261827 
L 110.7 83.066987 
L 110.7 80.892055 
L 110.7 78.738694 
L 110.7 76.608553 
L 110.7 74.503262 
L 110.7 72.424432 
L 110.7 70.373654 
L 110.7 68.352497 
L 110.7 66.362508 
L 110.7 64.405211 
L 110.7 62.482102 
L 110.7 60.594653 
L 110.7 58.74431 
L 110.7 56.932488 
L 110.7 55.160574 
L 110.7 53.429923 
L 110.7 51.74186 
L 110.7 50.097677 
L 110.7 48.498633 
L 110.7 46.94595 
L 110.7 45.440818 
L 110.7 43.984387 
L 110.7 42.577773 
L 110.7 41.222052 
L 110.7 39.918262 
L 110.7 38.6674 
L 110.7 37.470424 
L 110.7 36.32825 
L 110.7 35.241751 
L 110.7 34.211759 
L 110.7 33.239063 
L 110.7 32.324406 
L 110.7 31.46849 
L 110.7 30.671968 
L 110.7 29.935451 
L 110.7 29.259501 
L 110.7 28.644637 
L 110.7 28.091329 
L 110.7 27.6 
" clip-path="url(#p2ec815c14c)" style="fill: none; stroke: #b0b0b0; stroke-width: 0.8"/>
    <path d="M 119.017655 190.56 
L 120.141386 190.068671 
L 121.257892 189.515363 
L 122.366318 188.900499 
L 123.465816 188.224549 
L 124.555544 187.488032 
L 125.634669 186.69151 
L 126.702365 185.835594 
L 127.757815 184.920937 
L 128.80021 183.948241 
L 129.828754 182.918249 
L 130.842658 181.83175 
L 131.841148 180.689576 
L 132.823459 179.4926 
L 133.788839 178.241738 
L 134.73655 176.937948 
L 135.665865 175.582227 
L 136.576075 174.175613 
L 137.466483 172.719182 
L 138.336406 171.21405 
L 139.18518 169.661367 
L 140.012154 168.062323 
L 140.816696 166.41814 
L 141.598191 164.730077 
L 142.35604 162.999426 
L 143.089662 161.227512 
L 143.798498 159.41569 
L 144.482004 157.565347 
L 145.139657 155.677898 
L 145.770953 153.754789 
L 146.375411 151.797492 
L 146.952567 149.807503 
L 147.501979 147.786346 
L 148.023228 145.735568 
L 148.515913 143.656738 
L 148.979659 141.551447 
L 149.414109 139.421306 
L 149.818933 137.267945 
L 150.193819 135.093013 
L 150.538482 132.898173 
L 150.852657 130.685106 
L 151.136103 128.455504 
L 151.388605 126.211075 
L 151.609968 123.953535 
L 151.800023 121.684614 
L 151.958625 119.406046 
L 152.085653 117.119575 
L 152.181009 114.826953 
L 152.24462 112.529932 
L 152.276438 110.230271 
L 152.276438 107.929729 
L 152.24462 105.630068 
L 152.181009 103.333047 
L 152.085653 101.040425 
L 151.958625 98.753954 
L 151.800023 96.475386 
L 151.609968 94.206465 
L 151.388605 91.948925 
L 151.136103 89.704496 
L 150.852657 87.474894 
L 150.538482 85.261827 
L 150.193819 83.066987 
L 149.818933 80.892055 
L 149.414109 78.738694 
L 148.979659 76.608553 
L 148.515913 74.503262 
L 148.023228 72.424432 
L 147.501979 70.373654 
L 146.952567 68.352497 
L 146.375411 66.362508 
L 145.770953 64.405211 
L 145.139657 62.482102 
L 144.482004 60.594653 
L 143.798498 58.74431 
L 143.089662 56.932488 
L 142.35604 55.160574 
L 141.598191 53.429923 
L 140.816696 51.74186 
L 140.012154 50.097677 
L 139.18518 48.498633 
L 138.336406 46.94595 
L 137.466483 45.440818 
L 136.576075 43.984387 
L 135.665865 42.577773 
L 134.73655 41.222052 
L 133.788839 39.918262 
L 132.823459 38.6674 
L 131.841148 37.470424 
L 130.842658 36.32825 
L 129.828754 35.241751 
L 128.80021 34.211759 
L 127.757815 33.239063 
L 126.702365 32.324406 
L 125.634669 31.46849 
L 124.555544 30.671968 
L 123.465816 29.935451 
L 122.366318 29.259501 
L 121.257892 28.644637 
L 120.141386 28.091329 
L 119.017655 27.6 
" clip-path="url(#p2ec815c14c)" style="fill: none; stroke: #b0b0b0; stroke-width: 0.8"/>
    <path d="M 125.106601 190.56 
L 127.05296 190.068671 
L 128.986805 189.515363 
L 130.906655 188.900499 
L 132.811042 188.224549 
L 134.698507 187.488032 
L 136.567606 186.69151 
L 138.41691 185.835594 
L 140.245002 184.920937 
L 142.050483 183.948241 
L 143.831973 182.918249 
L 145.588107 181.83175 
L 147.317543 180.689576 
L 149.018955 179.4926 
L 150.691042 178.241738 
L 152.332525 176.937948 
L 153.942147 175.582227 
L 155.518677 174.175613 
L 157.060908 172.719182 
L 158.567659 171.21405 
L 160.037779 169.661367 
L 161.47014 168.062323 
L 162.863648 166.41814 
L 164.217237 164.730077 
L 165.529869 162.999426 
L 166.800541 161.227512 
L 168.02828 159.41569 
L 169.212147 157.565347 
L 170.351235 155.677898 
L 171.444673 153.754789 
L 172.491625 151.797492 
L 173.491288 149.807503 
L 174.442898 147.786346 
L 175.345726 145.735568 
L 176.199083 143.656738 
L 177.002314 141.551447 
L 177.754805 139.421306 
L 178.455979 137.267945 
L 179.105302 135.093013 
L 179.702275 132.898173 
L 180.246441 130.685106 
L 180.737385 128.455504 
L 181.174731 126.211075 
L 181.558143 123.953535 
L 181.887328 121.684614 
L 182.162036 119.406046 
L 182.382054 117.119575 
L 182.547215 114.826953 
L 182.657393 112.529932 
L 182.712503 110.230271 
L 182.712503 107.929729 
L 182.657393 105.630068 
L 182.547215 103.333047 
L 182.382054 101.040425 
L 182.162036 98.753954 
L 181.887328 96.475386 
L 181.558143 94.206465 
L 181.174731 91.948925 
L 180.737385 89.704496 
L 180.246441 87.474894 
L 179.702275 85.261827 
L 179.105302 83.066987 
L 178.455979 80.892055 
L 177.754805 78.738694 
L 177.002314 76.608553 
L 176.199083 74.503262 
L 175.345726 72.424432 
L 174.442898 70.373654 
L 173.491288 68.352497 
L 172.491625 66.362508 
L 171.444673 64.405211 
L 170.351235 62.482102 
L 169.212147 60.594653 
L 168.02828 58.74431 
L 166.800541 56.932488 
L 165.529869 55.160574 
L 164.217237 53.429923 
L 162.863648 51.74186 
L 161.47014 50.097677 
L 160.037779 48.498633 
L 158.567659 46.94595 
L 157.060908 45.440818 
L 155.518677 43.984387 
L 153.942147 42.577773 
L 152.332525 41.222052 
L 150.691042 39.918262 
L 149.018955 38.6674 
L 147.317543 37.470424 
L 145.588107 36.32825 
L 143.831973 35.241751 
L 142.050483 34.211759 
L 140.245002 33.239063 
L 138.41691 32.324406 
L 136.567606 31.46849 
L 134.698507 30.671968 
L 132.811042 29.935451 
L 130.906655 29.259501 
L 128.986805 28.644637 
L 127.05296 28.091329 
L 125.106601 27.6 
" clip-path="url(#p2ec815c14c)" style="fill: none; stroke: #b0b0b0; stroke-width: 0.8"/>
   </g>
   <g id="LineCollection_2">
    <path d="M 69.183152 181.099393 
L 69.272963 181.099393 
L 69.401602 181.099393 
L 69.568949 181.099393 
L 69.774847 181.099393 
L 70.019102 181.099393 
L 70.301487 181.099393 
L 70.621736 181.099393 
L 70.979549 181.099393 
L 71.37459 181.099393 
L 71.80649 181.099393 
L 72.274844 181.099393 
L 72.779212 181.099393 
L 73.319123 181.099393 
L 73.894069 181.099393 
L 74.503512 181.099393 
L 75.146882 181.099393 
L 75.823574 181.099393 
L 76.532954 181.099393 
L 77.274358 181.099393 
L 78.047091 181.099393 
L 78.850429 181.099393 
L 79.683618 181.099393 
L 80.545878 181.099393 
L 81.4364 181.099393 
L 82.354351 181.099393 
L 83.298868 181.099393 
L 84.269068 181.099393 
L 85.264041 181.099393 
L 86.282854 181.099393 
L 87.324553 181.099393 
L 88.38816 181.099393 
L 89.47268 181.099393 
L 90.577096 181.099393 
L 91.700372 181.099393 
L 92.841456 181.099393 
L 93.999278 181.099393 
L 95.172753 181.099393 
L 96.360781 181.099393 
L 97.562249 181.099393 
L 98.776031 181.099393 
L 100.000988 181.099393 
L 101.235974 181.099393 
L 102.47983 181.099393 
L 103.73139 181.099393 
L 104.989482 181.099393 
L 106.252926 181.099393 
L 107.520538 181.099393 
L 108.79113 181.099393 
L 110.063511 181.099393 
L 111.336489 181.099393 
L 112.60887 181.099393 
L 113.879462 181.099393 
L 115.147074 181.099393 
L 116.410518 181.099393 
L 117.66861 181.099393 
L 118.92017 181.099393 
L 120.164026 181.099393 
L 121.399012 181.099393 
L 122.623969 181.099393 
L 123.837751 181.099393 
L 125.039219 181.099393 
L 126.227247 181.099393 
L 127.400722 181.099393 
L 128.558544 181.099393 
L 129.699628 181.099393 
L 130.822904 181.099393 
L 131.92732 181.099393 
L 133.01184 181.099393 
L 134.075447 181.099393 
L 135.117146 181.099393 
L 136.135959 181.099393 
L 137.130932 181.099393 
L 138.101132 181.099393 
L 139.045649 181.099393 
L 139.9636 181.099393 
L 140.854122 181.099393 
L 141.716382 181.099393 
L 142.549571 181.099393 
L 143.352909 181.099393 
L 144.125642 181.099393 
L 144.867046 181.099393 
L 145.576426 181.099393 
L 146.253118 181.099393 
L 146.896488 181.099393 
L 147.505931 181.099393 
L 148.080877 181.099393 
L 148.620788 181.099393 
L 149.125156 181.099393 
L 149.59351 181.099393 
L 150.02541 181.099393 
L 150.420451 181.099393 
L 150.778264 181.099393 
L 151.098513 181.099393 
L 151.380898 181.099393 
L 151.625153 181.099393 
L 151.831051 181.099393 
L 151.998398 181.099393 
L 152.127037 181.099393 
L 152.216848 181.099393 
" clip-path="url(#p2ec815c14c)" style="fill: none; stroke: #b0b0b0; stroke-width: 0.8"/>
    <path d="M 47.126529 162.534752 
L 47.230097 162.534752 
L 47.427184 162.534752 
L 47.683574 162.534752 
L 47.999028 162.534752 
L 48.373249 162.534752 
L 48.805887 162.534752 
L 49.296537 162.534752 
L 49.844738 162.534752 
L 50.449977 162.534752 
L 51.111686 162.534752 
L 51.829246 162.534752 
L 52.601983 162.534752 
L 53.429174 162.534752 
L 54.310042 162.534752 
L 55.243764 162.534752 
L 56.229462 162.534752 
L 57.266215 162.534752 
L 58.353049 162.534752 
L 59.488946 162.534752 
L 60.672842 162.534752 
L 61.903626 162.534752 
L 63.180146 162.534752 
L 64.501205 162.534752 
L 65.865564 162.534752 
L 67.271946 162.534752 
L 68.719031 162.534752 
L 70.205463 162.534752 
L 71.72985 162.534752 
L 73.290762 162.534752 
L 74.886737 162.534752 
L 76.516278 162.534752 
L 78.177859 162.534752 
L 79.869922 162.534752 
L 81.590881 162.534752 
L 83.339123 162.534752 
L 85.113009 162.534752 
L 86.910877 162.534752 
L 88.731042 162.534752 
L 90.571798 162.534752 
L 92.431419 162.534752 
L 94.308163 162.534752 
L 96.200271 162.534752 
L 98.105968 162.534752 
L 100.02347 162.534752 
L 101.950978 162.534752 
L 103.886687 162.534752 
L 105.828781 162.534752 
L 107.775441 162.534752 
L 109.724842 162.534752 
L 111.675158 162.534752 
L 113.624559 162.534752 
L 115.571219 162.534752 
L 117.513313 162.534752 
L 119.449022 162.534752 
L 121.37653 162.534752 
L 123.294032 162.534752 
L 125.199729 162.534752 
L 127.091837 162.534752 
L 128.968581 162.534752 
L 130.828202 162.534752 
L 132.668958 162.534752 
L 134.489123 162.534752 
L 136.286991 162.534752 
L 138.060877 162.534752 
L 139.809119 162.534752 
L 141.530078 162.534752 
L 143.222141 162.534752 
L 144.883722 162.534752 
L 146.513263 162.534752 
L 148.109238 162.534752 
L 149.67015 162.534752 
L 151.194537 162.534752 
L 152.680969 162.534752 
L 154.128054 162.534752 
L 155.534436 162.534752 
L 156.898795 162.534752 
L 158.219854 162.534752 
L 159.496374 162.534752 
L 160.727158 162.534752 
L 161.911054 162.534752 
L 163.046951 162.534752 
L 164.133785 162.534752 
L 165.170538 162.534752 
L 166.156236 162.534752 
L 167.089958 162.534752 
L 167.970826 162.534752 
L 168.798017 162.534752 
L 169.570754 162.534752 
L 170.288314 162.534752 
L 170.950023 162.534752 
L 171.555262 162.534752 
L 172.103463 162.534752 
L 172.594113 162.534752 
L 173.026751 162.534752 
L 173.400972 162.534752 
L 173.716426 162.534752 
L 173.972816 162.534752 
L 174.169903 162.534752 
L 174.273471 162.534752 
L 174.273471 162.534752 
" clip-path="url(#p2ec815c14c)" style="fill: none; stroke: #b0b0b0; stroke-width: 0.8"/>
    <path d="M 32.673849 137.52268 
L 32.842638 137.52268 
L 33.084401 137.52268 
L 33.39891 137.52268 
L 33.785871 137.52268 
L 34.244922 137.52268 
L 34.775631 137.52268 
L 35.377502 137.52268 
L 36.04997 137.52268 
L 36.792405 137.52268 
L 37.604112 137.52268 
L 38.484329 137.52268 
L 39.432232 137.52268 
L 40.446931 137.52268 
L 41.527477 137.52268 
L 42.672855 137.52268 
L 43.881994 137.52268 
L 45.153759 137.52268 
L 46.486958 137.52268 
L 47.880342 137.52268 
L 49.332606 137.52268 
L 50.842386 137.52268 
L 52.40827 137.52268 
L 54.028788 137.52268 
L 55.702423 137.52268 
L 57.427605 137.52268 
L 59.202718 137.52268 
L 61.026097 137.52268 
L 62.896034 137.52268 
L 64.810777 137.52268 
L 66.768529 137.52268 
L 68.767458 137.52268 
L 70.805688 137.52268 
L 72.881311 137.52268 
L 74.992379 137.52268 
L 77.136915 137.52268 
L 79.312909 137.52268 
L 81.518321 137.52268 
L 83.751084 137.52268 
L 86.009105 137.52268 
L 88.290268 137.52268 
L 90.592435 137.52268 
L 92.913449 137.52268 
L 95.251133 137.52268 
L 97.603297 137.52268 
L 99.967736 137.52268 
L 102.342234 137.52268 
L 104.724565 137.52268 
L 107.112498 137.52268 
L 109.503792 137.52268 
L 111.896208 137.52268 
L 114.287502 137.52268 
L 116.675435 137.52268 
L 119.057766 137.52268 
L 121.432264 137.52268 
L 123.796703 137.52268 
L 126.148867 137.52268 
L 128.486551 137.52268 
L 130.807565 137.52268 
L 133.109732 137.52268 
L 135.390895 137.52268 
L 137.648916 137.52268 
L 139.881679 137.52268 
L 142.087091 137.52268 
L 144.263085 137.52268 
L 146.407621 137.52268 
L 148.518689 137.52268 
L 150.594312 137.52268 
L 152.632542 137.52268 
L 154.631471 137.52268 
L 156.589223 137.52268 
L 158.503966 137.52268 
L 160.373903 137.52268 
L 162.197282 137.52268 
L 163.972395 137.52268 
L 165.697577 137.52268 
L 167.371212 137.52268 
L 168.99173 137.52268 
L 170.557614 137.52268 
L 172.067394 137.52268 
L 173.519658 137.52268 
L 174.913042 137.52268 
L 176.246241 137.52268 
L 177.518006 137.52268 
L 178.727145 137.52268 
L 179.872523 137.52268 
L 180.953069 137.52268 
L 181.967768 137.52268 
L 182.915671 137.52268 
L 183.795888 137.52268 
L 184.607595 137.52268 
L 185.35003 137.52268 
L 186.022498 137.52268 
L 186.624369 137.52268 
L 187.155078 137.52268 
L 187.614129 137.52268 
L 188.00109 137.52268 
L 188.315599 137.52268 
L 188.557362 137.52268 
L 188.726151 137.52268 
" clip-path="url(#p2ec815c14c)" style="fill: none; stroke: #b0b0b0; stroke-width: 0.8"/>
    <path d="M 27.666304 109.08 
L 27.845926 109.08 
L 28.103205 109.08 
L 28.437898 109.08 
L 28.849694 109.08 
L 29.338205 109.08 
L 29.902974 109.08 
L 30.543472 109.08 
L 31.259097 109.08 
L 32.049181 109.08 
L 32.912981 109.08 
L 33.849688 109.08 
L 34.858425 109.08 
L 35.938246 109.08 
L 37.088138 109.08 
L 38.307025 109.08 
L 39.593763 109.08 
L 40.947147 109.08 
L 42.365908 109.08 
L 43.848717 109.08 
L 45.394183 109.08 
L 47.000858 109.08 
L 48.667236 109.08 
L 50.391756 109.08 
L 52.172801 109.08 
L 54.008701 109.08 
L 55.897737 109.08 
L 57.838137 109.08 
L 59.828082 109.08 
L 61.865708 109.08 
L 63.949106 109.08 
L 66.076321 109.08 
L 68.24536 109.08 
L 70.454191 109.08 
L 72.700743 109.08 
L 74.982911 109.08 
L 77.298555 109.08 
L 79.645506 109.08 
L 82.021562 109.08 
L 84.424498 109.08 
L 86.852061 109.08 
L 89.301977 109.08 
L 91.771948 109.08 
L 94.259659 109.08 
L 96.76278 109.08 
L 99.278963 109.08 
L 101.805851 109.08 
L 104.341075 109.08 
L 106.88226 109.08 
L 109.427022 109.08 
L 111.972978 109.08 
L 114.51774 109.08 
L 117.058925 109.08 
L 119.594149 109.08 
L 122.121037 109.08 
L 124.63722 109.08 
L 127.140341 109.08 
L 129.628052 109.08 
L 132.098023 109.08 
L 134.547939 109.08 
L 136.975502 109.08 
L 139.378438 109.08 
L 141.754494 109.08 
L 144.101445 109.08 
L 146.417089 109.08 
L 148.699257 109.08 
L 150.945809 109.08 
L 153.15464 109.08 
L 155.323679 109.08 
L 157.450894 109.08 
L 159.534292 109.08 
L 161.571918 109.08 
L 163.561863 109.08 
L 165.502263 109.08 
L 167.391299 109.08 
L 169.227199 109.08 
L 171.008244 109.08 
L 172.732764 109.08 
L 174.399142 109.08 
L 176.005817 109.08 
L 177.551283 109.08 
L 179.034092 109.08 
L 180.452853 109.08 
L 181.806237 109.08 
L 183.092975 109.08 
L 184.311862 109.08 
L 185.461754 109.08 
L 186.541575 109.08 
L 187.550312 109.08 
L 188.487019 109.08 
L 189.350819 109.08 
L 190.140903 109.08 
L 190.856528 109.08 
L 191.497026 109.08 
L 192.061795 109.08 
L 192.550306 109.08 
L 192.962102 109.08 
L 193.296795 109.08 
L 193.554074 109.08 
L 193.733696 109.08 
" clip-path="url(#p2ec815c14c)" style="fill: none; stroke: #b0b0b0; stroke-width: 0.8"/>
    <path d="M 32.673849 80.63732 
L 32.842638 80.63732 
L 33.084401 80.63732 
L 33.39891 80.63732 
L 33.785871 80.63732 
L 34.244922 80.63732 
L 34.775631 80.63732 
L 35.377502 80.63732 
L 36.04997 80.63732 
L 36.792405 80.63732 
L 37.604112 80.63732 
L 38.484329 80.63732 
L 39.432232 80.63732 
L 40.446931 80.63732 
L 41.527477 80.63732 
L 42.672855 80.63732 
L 43.881994 80.63732 
L 45.153759 80.63732 
L 46.486958 80.63732 
L 47.880342 80.63732 
L 49.332606 80.63732 
L 50.842386 80.63732 
L 52.40827 80.63732 
L 54.028788 80.63732 
L 55.702423 80.63732 
L 57.427605 80.63732 
L 59.202718 80.63732 
L 61.026097 80.63732 
L 62.896034 80.63732 
L 64.810777 80.63732 
L 66.768529 80.63732 
L 68.767458 80.63732 
L 70.805688 80.63732 
L 72.881311 80.63732 
L 74.992379 80.63732 
L 77.136915 80.63732 
L 79.312909 80.63732 
L 81.518321 80.63732 
L 83.751084 80.63732 
L 86.009105 80.63732 
L 88.290268 80.63732 
L 90.592435 80.63732 
L 92.913449 80.63732 
L 95.251133 80.63732 
L 97.603297 80.63732 
L 99.967736 80.63732 
L 102.342234 80.63732 
L 104.724565 80.63732 
L 107.112498 80.63732 
L 109.503792 80.63732 
L 111.896208 80.63732 
L 114.287502 80.63732 
L 116.675435 80.63732 
L 119.057766 80.63732 
L 121.432264 80.63732 
L 123.796703 80.63732 
L 126.148867 80.63732 
L 128.486551 80.63732 
L 130.807565 80.63732 
L 133.109732 80.63732 
L 135.390895 80.63732 
L 137.648916 80.63732 
L 139.881679 80.63732 
L 142.087091 80.63732 
L 144.263085 80.63732 
L 146.407621 80.63732 
L 148.518689 80.63732 
L 150.594312 80.63732 
L 152.632542 80.63732 
L 154.631471 80.63732 
L 156.589223 80.63732 
L 158.503966 80.63732 
L 160.373903 80.63732 
L 162.197282 80.63732 
L 163.972395 80.63732 
L 165.697577 80.63732 
L 167.371212 80.63732 
L 168.99173 80.63732 
L 170.557614 80.63732 
L 172.067394 80.63732 
L 173.519658 80.63732 
L 174.913042 80.63732 
L 176.246241 80.63732 
L 177.518006 80.63732 
L 178.727145 80.63732 
L 179.872523 80.63732 
L 180.953069 80.63732 
L 181.967768 80.63732 
L 182.915671 80.63732 
L 183.795888 80.63732 
L 184.607595 80.63732 
L 185.35003 80.63732 
L 186.022498 80.63732 
L 186.624369 80.63732 
L 187.155078 80.63732 
L 187.614129 80.63732 
L 188.00109 80.63732 
L 188.315599 80.63732 
L 188.557362 80.63732 
L 188.726151 80.63732 
" clip-path="url(#p2ec815c14c)" style="fill: none; stroke: #b0b0b0; stroke-width: 0.8"/>
    <path d="M 47.126529 55.625248 
L 47.230097 55.625248 
L 47.427184 55.625248 
L 47.683574 55.625248 
L 47.999028 55.625248 
L 48.373249 55.625248 
L 48.805887 55.625248 
L 49.296537 55.625248 
L 49.844738 55.625248 
L 50.449977 55.625248 
L 51.111686 55.625248 
L 51.829246 55.625248 
L 52.601983 55.625248 
L 53.429174 55.625248 
L 54.310042 55.625248 
L 55.243764 55.625248 
L 56.229462 55.625248 
L 57.266215 55.625248 
L 58.353049 55.625248 
L 59.488946 55.625248 
L 60.672842 55.625248 
L 61.903626 55.625248 
L 63.180146 55.625248 
L 64.501205 55.625248 
L 65.865564 55.625248 
L 67.271946 55.625248 
L 68.719031 55.625248 
L 70.205463 55.625248 
L 71.72985 55.625248 
L 73.290762 55.625248 
L 74.886737 55.625248 
L 76.516278 55.625248 
L 78.177859 55.625248 
L 79.869922 55.625248 
L 81.590881 55.625248 
L 83.339123 55.625248 
L 85.113009 55.625248 
L 86.910877 55.625248 
L 88.731042 55.625248 
L 90.571798 55.625248 
L 92.431419 55.625248 
L 94.308163 55.625248 
L 96.200271 55.625248 
L 98.105968 55.625248 
L 100.02347 55.625248 
L 101.950978 55.625248 
L 103.886687 55.625248 
L 105.828781 55.625248 
L 107.775441 55.625248 
L 109.724842 55.625248 
L 111.675158 55.625248 
L 113.624559 55.625248 
L 115.571219 55.625248 
L 117.513313 55.625248 
L 119.449022 55.625248 
L 121.37653 55.625248 
L 123.294032 55.625248 
L 125.199729 55.625248 
L 127.091837 55.625248 
L 128.968581 55.625248 
L 130.828202 55.625248 
L 132.668958 55.625248 
L 134.489123 55.625248 
L 136.286991 55.625248 
L 138.060877 55.625248 
L 139.809119 55.625248 
L 141.530078 55.625248 
L 143.222141 55.625248 
L 144.883722 55.625248 
L 146.513263 55.625248 
L 148.109238 55.625248 
L 149.67015 55.625248 
L 151.194537 55.625248 
L 152.680969 55.625248 
L 154.128054 55.625248 
L 155.534436 55.625248 
L 156.898795 55.625248 
L 158.219854 55.625248 
L 159.496374 55.625248 
L 160.727158 55.625248 
L 161.911054 55.625248 
L 163.046951 55.625248 
L 164.133785 55.625248 
L 165.170538 55.625248 
L 166.156236 55.625248 
L 167.089958 55.625248 
L 167.970826 55.625248 
L 168.798017 55.625248 
L 169.570754 55.625248 
L 170.288314 55.625248 
L 170.950023 55.625248 
L 171.555262 55.625248 
L 172.103463 55.625248 
L 172.594113 55.625248 
L 173.026751 55.625248 
L 173.400972 55.625248 
L 173.716426 55.625248 
L 173.972816 55.625248 
L 174.169903 55.625248 
L 174.273471 55.625248 
L 174.273471 55.625248 
" clip-path="url(#p2ec815c14c)" style="fill: none; stroke: #b0b0b0; stroke-width: 0.8"/>
    <path d="M 69.183152 37.060607 
L 69.272963 37.060607 
L 69.401602 37.060607 
L 69.568949 37.060607 
L 69.774847 37.060607 
L 70.019102 37.060607 
L 70.301487 37.060607 
L 70.621736 37.060607 
L 70.979549 37.060607 
L 71.37459 37.060607 
L 71.80649 37.060607 
L 72.274844 37.060607 
L 72.779212 37.060607 
L 73.319123 37.060607 
L 73.894069 37.060607 
L 74.503512 37.060607 
L 75.146882 37.060607 
L 75.823574 37.060607 
L 76.532954 37.060607 
L 77.274358 37.060607 
L 78.047091 37.060607 
L 78.850429 37.060607 
L 79.683618 37.060607 
L 80.545878 37.060607 
L 81.4364 37.060607 
L 82.354351 37.060607 
L 83.298868 37.060607 
L 84.269068 37.060607 
L 85.264041 37.060607 
L 86.282854 37.060607 
L 87.324553 37.060607 
L 88.38816 37.060607 
L 89.47268 37.060607 
L 90.577096 37.060607 
L 91.700372 37.060607 
L 92.841456 37.060607 
L 93.999278 37.060607 
L 95.172753 37.060607 
L 96.360781 37.060607 
L 97.562249 37.060607 
L 98.776031 37.060607 
L 100.000988 37.060607 
L 101.235974 37.060607 
L 102.47983 37.060607 
L 103.73139 37.060607 
L 104.989482 37.060607 
L 106.252926 37.060607 
L 107.520538 37.060607 
L 108.79113 37.060607 
L 110.063511 37.060607 
L 111.336489 37.060607 
L 112.60887 37.060607 
L 113.879462 37.060607 
L 115.147074 37.060607 
L 116.410518 37.060607 
L 117.66861 37.060607 
L 118.92017 37.060607 
L 120.164026 37.060607 
L 121.399012 37.060607 
L 122.623969 37.060607 
L 123.837751 37.060607 
L 125.039219 37.060607 
L 126.227247 37.060607 
L 127.400722 37.060607 
L 128.558544 37.060607 
L 129.699628 37.060607 
L 130.822904 37.060607 
L 131.92732 37.060607 
L 133.01184 37.060607 
L 134.075447 37.060607 
L 135.117146 37.060607 
L 136.135959 37.060607 
L 137.130932 37.060607 
L 138.101132 37.060607 
L 139.045649 37.060607 
L 139.9636 37.060607 
L 140.854122 37.060607 
L 141.716382 37.060607 
L 142.549571 37.060607 
L 143.352909 37.060607 
L 144.125642 37.060607 
L 144.867046 37.060607 
L 145.576426 37.060607 
L 146.253118 37.060607 
L 146.896488 37.060607 
L 147.505931 37.060607 
L 148.080877 37.060607 
L 148.620788 37.060607 
L 149.125156 37.060607 
L 149.59351 37.060607 
L 150.02541 37.060607 
L 150.420451 37.060607 
L 150.778264 37.060607 
L 151.098513 37.060607 
L 151.380898 37.060607 
L 151.625153 37.060607 
L 151.831051 37.060607 
L 151.998398 37.060607 
L 152.127037 37.060607 
L 152.216848 37.060607 
" clip-path="url(#p2ec815c14c)" style="fill: none; stroke: #b0b0b0; stroke-width: 0.8"/>
   </g>
   <g id="GeoContourSet_1">
    <path clip-path="url(#p2ec815c14c)" style="fill: none; stroke: #2c1016"/>
    <path d="M 150.176979 86.988527 
L 151.617616 86.868774 
L 153.04081 86.762071 
L 154.446134 86.668241 
L 155.833191 86.587277 
L 157.201614 86.519352 
L 158.551078 86.464826 
L 159.881299 86.424263 
L 161.192049 86.398449 
L 162.483157 86.388418 
L 163.754524 86.395486 
L 165.006128 86.421288 
L 166.23804 86.467834 
L 167.450439 86.537566 
L 168.64362 86.633445 
L 169.81802 86.759041 
L 170.974231 86.91866 
L 171.824182 87.064468 
L 172.112959 87.117199 
L 173.235485 87.362422 
L 174.343678 87.665169 
L 175.082243 87.908264 
L 175.440489 88.04201 
L 176.531037 88.521164 
L 176.983685 88.754397 
L 177.624192 89.152162 
L 178.255333 89.602773 
L 178.73905 90.044024 
L 179.145732 90.4533 
L 179.771285 91.305883 
L 179.955728 91.664426 
L 180.199855 92.160429 
L 180.470321 93.016842 
L 180.606175 93.875029 
L 180.623695 94.734894 
L 180.556431 95.365173 
L 180.534597 95.596342 
L 180.353773 96.45928 
L 180.073185 97.32361 
L 179.931318 97.648311 
L 179.706014 98.189239 
L 179.245389 99.056069 
L 179.14561 99.212424 
L 178.704748 99.924007 
L 178.277618 100.503458 
L 178.068926 100.792955 
L 177.349682 101.651444 
L 177.3403 101.662818 
L 176.532097 102.5335 
L 176.370194 102.689575 
L 175.629758 103.404904 
L 175.345566 103.653874 
L 174.631733 104.276935 
L 174.279527 104.559259 
L 173.536258 105.149496 
L 173.174901 105.416094 
L 172.340585 106.022492 
L 172.033951 106.231776 
L 171.040916 106.895824 
L 170.858569 107.011485 
L 169.65041 107.759159 
L 169.633678 107.769398 
L 168.410993 108.484538 
L 168.13166 108.643117 
L 167.141568 109.185313 
L 166.514398 109.516883 
L 165.843393 109.8621 
L 164.773575 110.390602 
L 164.517689 110.514666 
L 163.165516 111.151323 
L 162.919059 111.264176 
L 161.787857 111.775929 
L 160.947767 112.137508 
L 160.38595 112.378353 
L 158.960833 112.960989 
L 158.837336 113.010504 
L 157.512984 113.542766 
L 156.614708 113.883065 
L 156.044008 114.101484 
L 154.554652 114.645712 
L 154.246092 114.755096 
L 153.045421 115.187784 
L 151.741762 115.6265 
L 151.51815 115.703583 
L 149.972637 116.222711 
L 149.104663 116.497182 
L 148.410663 116.723359 
L 146.832877 117.212349 
L 146.313183 117.367045 
L 145.239809 117.69835 
L 143.633219 118.161492 
L 143.367796 118.235993 
L 142.012644 118.632813 
L 140.38065 119.073846 
L 140.267174 119.103931 
L 138.736134 119.529965 
L 137.082085 119.952174 
L 137.007984 119.970761 
L 135.41717 120.392108 
L 133.744385 120.798415 
L 133.584621 120.83639 
L 132.062573 121.220726 
L 130.374352 121.613754 
L 129.988875 121.70072 
L 128.679091 122.016543 
L 126.978715 122.39868 
L 126.209519 122.563658 
L 125.27338 122.779555 
L 123.564118 123.153005 
L 122.23184 123.425106 
L 121.851979 123.509036 
L 120.137086 123.875863 
L 118.421091 124.214564 
L 118.053238 124.284971 
L 116.703999 124.565684 
L 114.987102 124.899919 
L 113.656181 125.143158 
L 113.271042 125.220138 
L 111.556444 125.551592 
L 109.844214 125.858569 
L 109.02113 125.999571 
L 108.135038 126.166385 
L 106.429722 126.471939 
L 104.728748 126.75573 
L 104.115289 126.854117 
L 103.033206 127.045755 
L 101.343661 127.329053 
L 99.660416 127.592677 
L 98.899761 127.7067 
L 97.984768 127.858895 
L 96.317336 128.122577 
L 94.658123 128.368144 
L 93.305743 128.557227 
L 93.00803 128.603641 
L 91.368844 128.84945 
L 89.739743 129.078222 
L 88.121303 129.291714 
L 87.213556 129.405603 
L 86.515043 129.50367 
L 84.92183 129.716071 
L 83.341047 129.913586 
L 81.773266 130.097534 
L 80.377671 130.251736 
L 80.219296 130.271386 
L 78.681434 130.451997 
L 77.158187 130.618774 
L 75.65009 130.772642 
L 74.157673 130.91436 
L 72.681459 131.044527 
L 72.054326 131.095532 
L 71.223021 131.171473 
L 69.782384 131.291226 
L 68.35919 131.397929 
L 66.953866 131.491759 
L 65.566809 131.572723 
L 64.198386 131.640648 
L 62.848922 131.695174 
L 61.518701 131.735737 
L 60.207951 131.761551 
L 58.916843 131.771582 
L 57.645476 131.764514 
L 56.393872 131.738712 
L 55.16196 131.692166 
L 53.949561 131.622434 
L 52.75638 131.526555 
L 51.58198 131.400959 
L 50.425769 131.24134 
L 49.575818 131.095532 
L 49.287041 131.042801 
L 48.164515 130.797578 
L 47.056322 130.494831 
L 46.317757 130.251736 
L 45.959511 130.11799 
L 44.868963 129.638836 
L 44.416315 129.405603 
L 43.775808 129.007838 
L 43.144667 128.557227 
L 42.66095 128.115976 
L 42.254268 127.7067 
L 41.628715 126.854117 
L 41.444272 126.495574 
L 41.200145 125.999571 
L 40.929679 125.143158 
L 40.793825 124.284971 
L 40.776305 123.425106 
L 40.843569 122.794827 
L 40.865403 122.563658 
L 41.046227 121.70072 
L 41.326815 120.83639 
L 41.468682 120.511689 
L 41.693986 119.970761 
L 42.154611 119.103931 
L 42.25439 118.947576 
L 42.695252 118.235993 
L 43.122382 117.656542 
L 43.331074 117.367045 
L 44.050318 116.508556 
L 44.0597 116.497182 
L 44.867903 115.6265 
L 45.029806 115.470425 
L 45.770242 114.755096 
L 46.054434 114.506126 
L 46.768267 113.883065 
L 47.120473 113.600741 
L 47.863742 113.010504 
L 48.225099 112.743906 
L 49.059415 112.137508 
L 49.366049 111.928224 
L 50.359084 111.264176 
L 50.541431 111.148515 
L 51.74959 110.400841 
L 51.766322 110.390602 
L 52.989007 109.675462 
L 53.26834 109.516883 
L 54.258432 108.974687 
L 54.885602 108.643117 
L 55.556607 108.2979 
L 56.626425 107.769398 
L 56.882311 107.645334 
L 58.234484 107.008677 
L 58.480941 106.895824 
L 59.612143 106.384071 
L 60.452233 106.022492 
L 61.01405 105.781647 
L 62.439167 105.199011 
L 62.562664 105.149496 
L 63.887016 104.617234 
L 64.785292 104.276935 
L 65.355992 104.058516 
L 66.845348 103.514288 
L 67.153908 103.404904 
L 68.354579 102.972216 
L 69.658238 102.5335 
L 69.88185 102.456417 
L 71.427363 101.937289 
L 72.295337 101.662818 
L 72.989337 101.436641 
L 74.567123 100.947651 
L 75.086817 100.792955 
L 76.160191 100.46165 
L 77.766781 99.998508 
L 78.032204 99.924007 
L 79.387356 99.527187 
L 81.01935 99.086154 
L 81.132826 99.056069 
L 82.663866 98.630035 
L 84.317915 98.207826 
L 84.392016 98.189239 
L 85.98283 97.767892 
L 87.655615 97.361585 
L 87.815379 97.32361 
L 89.337427 96.939274 
L 91.025648 96.546246 
L 91.411125 96.45928 
L 92.720909 96.143457 
L 94.421285 95.76132 
L 95.190481 95.596342 
L 96.12662 95.380445 
L 97.835882 95.006995 
L 99.16816 94.734894 
L 99.548021 94.650964 
L 101.262914 94.284137 
L 102.978909 93.945436 
L 103.346762 93.875029 
L 104.696001 93.594316 
L 106.412898 93.260081 
L 107.743819 93.016842 
L 108.128958 92.939862 
L 109.843556 92.608408 
L 111.555786 92.301431 
L 112.37887 92.160429 
L 113.264962 91.993615 
L 114.970278 91.688061 
L 116.671252 91.40427 
L 117.284711 91.305883 
L 118.366794 91.114245 
L 120.056339 90.830947 
L 121.739584 90.567323 
L 122.500239 90.4533 
L 123.415232 90.301105 
L 125.082664 90.037423 
L 126.741877 89.791856 
L 128.094257 89.602773 
L 128.39197 89.556359 
L 130.031156 89.31055 
L 131.660257 89.081778 
L 133.278697 88.868286 
L 134.186444 88.754397 
L 134.884957 88.65633 
L 136.47817 88.443929 
L 138.058953 88.246414 
L 139.626734 88.062466 
L 141.022329 87.908264 
L 141.180704 87.888614 
L 142.718566 87.708003 
L 144.241813 87.541226 
L 145.74991 87.387358 
L 147.242327 87.24564 
L 148.718541 87.115473 
L 149.345674 87.064468 
L 150.176979 86.988527 
z
" clip-path="url(#p2ec815c14c)" style="fill: none; stroke: #4a2013"/>
    <path d="M 144.621459 91.274336 
L 146.15497 91.170749 
L 147.673518 91.083175 
L 149.176714 91.012146 
L 150.664213 90.958473 
L 152.135722 90.923288 
L 153.591007 90.908081 
L 155.029907 90.914761 
L 156.452346 90.945726 
L 157.858345 91.003959 
L 159.248043 91.093141 
L 160.621707 91.217802 
L 161.365008 91.305883 
L 161.980098 91.385954 
L 163.324466 91.609077 
L 164.655653 91.895869 
L 165.637201 92.160429 
L 165.976398 92.269365 
L 167.293013 92.780028 
L 167.800064 93.016842 
L 168.615903 93.514688 
L 169.122779 93.875029 
L 169.952954 94.734894 
L 169.980888 94.780486 
L 170.442729 95.596342 
L 170.675987 96.45928 
L 170.700714 97.32361 
L 170.546668 98.189239 
L 170.397003 98.595346 
L 170.236621 99.056069 
L 169.785326 99.924007 
L 169.347752 100.561975 
L 169.195207 100.792955 
L 168.481193 101.662818 
L 168.199996 101.950576 
L 167.64318 102.5335 
L 166.996261 103.115604 
L 166.679961 103.404904 
L 165.748922 104.152005 
L 165.594816 104.276935 
L 164.463876 105.095353 
L 164.389375 105.149496 
L 163.145063 105.96902 
L 163.063749 106.022492 
L 161.795317 106.788648 
L 161.616583 106.895824 
L 160.416822 107.564773 
L 160.045054 107.769398 
L 159.011373 108.304433 
L 158.344812 108.643117 
L 157.580521 109.012179 
L 156.509867 109.516883 
L 156.125674 109.690721 
L 154.648135 110.342642 
L 154.538002 110.390602 
L 153.149066 110.97533 
L 152.439489 111.264176 
L 151.629646 111.585824 
L 150.185213 112.137508 
L 150.091032 112.172919 
L 148.534087 112.748876 
L 147.79833 113.010504 
L 146.959988 113.305904 
L 145.369814 113.842087 
L 145.246245 113.883065 
L 143.764183 114.373264 
L 142.547514 114.755096 
L 142.144485 114.882309 
L 140.511325 115.383062 
L 139.682961 115.6265 
L 138.865796 115.869571 
L 137.208835 116.341641 
L 136.644458 116.497182 
L 135.541139 116.806903 
L 133.863929 117.253886 
L 133.426723 117.367045 
L 132.177656 117.698409 
L 130.483663 118.123433 
L 130.021223 118.235993 
L 128.782339 118.547015 
L 127.074961 118.952819 
L 126.41571 119.103931 
L 125.362038 119.354593 
L 123.644617 119.74359 
L 122.593634 119.970761 
L 121.923467 120.12204 
L 120.199297 120.496372 
L 118.533471 120.83639 
L 118.473187 120.84932 
L 116.745517 121.2109 
L 115.017469 121.550286 
L 114.220062 121.70072 
L 113.289617 121.886019 
L 111.562788 122.214469 
L 109.837738 122.523535 
L 109.606832 122.563658 
L 108.11524 122.838517 
L 106.396 123.137776 
L 104.680652 123.419723 
L 104.646866 123.425106 
L 102.970238 123.709694 
L 101.265142 123.982355 
L 99.565993 124.239127 
L 99.250347 124.284971 
L 97.873945 124.498928 
L 96.189307 124.746347 
L 94.512596 124.9787 
L 93.261288 125.143158 
L 92.844642 125.202037 
L 91.186473 125.424358 
L 89.538108 125.631847 
L 87.900148 125.825595 
L 86.33554 125.999571 
L 86.273231 126.007042 
L 84.658699 126.187905 
L 83.056271 126.354317 
L 81.466497 126.506852 
L 79.889916 126.645885 
L 78.327046 126.771595 
L 77.184196 126.854117 
L 76.778541 126.885664 
L 75.24503 126.989251 
L 73.726482 127.076825 
L 72.223286 127.147854 
L 70.735787 127.201527 
L 69.264278 127.236712 
L 67.808993 127.251919 
L 66.370093 127.245239 
L 64.947654 127.214274 
L 63.541655 127.156041 
L 62.151957 127.066859 
L 60.778293 126.942198 
L 60.034992 126.854117 
L 59.419902 126.774046 
L 58.075534 126.550923 
L 56.744347 126.264131 
L 55.762799 125.999571 
L 55.423602 125.890635 
L 54.106987 125.379972 
L 53.599936 125.143158 
L 52.784097 124.645312 
L 52.277221 124.284971 
L 51.447046 123.425106 
L 51.419112 123.379514 
L 50.957271 122.563658 
L 50.724013 121.70072 
L 50.699286 120.83639 
L 50.853332 119.970761 
L 51.002997 119.564654 
L 51.163379 119.103931 
L 51.614674 118.235993 
L 52.052248 117.598025 
L 52.204793 117.367045 
L 52.918807 116.497182 
L 53.200004 116.209424 
L 53.75682 115.6265 
L 54.403739 115.044396 
L 54.720039 114.755096 
L 55.651078 114.007995 
L 55.805184 113.883065 
L 56.936124 113.064647 
L 57.010625 113.010504 
L 58.254937 112.19098 
L 58.336251 112.137508 
L 59.604683 111.371352 
L 59.783417 111.264176 
L 60.983178 110.595227 
L 61.354946 110.390602 
L 62.388627 109.855567 
L 63.055188 109.516883 
L 63.819479 109.147821 
L 64.890133 108.643117 
L 65.274326 108.469279 
L 66.751865 107.817358 
L 66.861998 107.769398 
L 68.250934 107.18467 
L 68.960511 106.895824 
L 69.770354 106.574176 
L 71.214787 106.022492 
L 71.308968 105.987081 
L 72.865913 105.411124 
L 73.60167 105.149496 
L 74.440012 104.854096 
L 76.030186 104.317913 
L 76.153755 104.276935 
L 77.635817 103.786736 
L 78.852486 103.404904 
L 79.255515 103.277691 
L 80.888675 102.776938 
L 81.717039 102.5335 
L 82.534204 102.290429 
L 84.191165 101.818359 
L 84.755542 101.662818 
L 85.858861 101.353097 
L 87.536071 100.906114 
L 87.973277 100.792955 
L 89.222344 100.461591 
L 90.916337 100.036567 
L 91.378777 99.924007 
L 92.617661 99.612985 
L 94.325039 99.207181 
L 94.98429 99.056069 
L 96.037962 98.805407 
L 97.755383 98.41641 
L 98.806366 98.189239 
L 99.476533 98.03796 
L 101.200703 97.663628 
L 102.866529 97.32361 
L 102.926813 97.31068 
L 104.654483 96.9491 
L 106.382531 96.609714 
L 107.179938 96.45928 
L 108.110383 96.273981 
L 109.837212 95.945531 
L 111.562262 95.636465 
L 111.793168 95.596342 
L 113.28476 95.321483 
L 115.004 95.022224 
L 116.719348 94.740277 
L 116.753134 94.734894 
L 118.429762 94.450306 
L 120.134858 94.177645 
L 121.834007 93.920873 
L 122.149653 93.875029 
L 123.526055 93.661072 
L 125.210693 93.413653 
L 126.887404 93.1813 
L 128.138712 93.016842 
L 128.555358 92.957963 
L 130.213527 92.735642 
L 131.861892 92.528153 
L 133.499852 92.334405 
L 135.06446 92.160429 
L 135.126769 92.152958 
L 136.741301 91.972095 
L 138.343729 91.805683 
L 139.933503 91.653148 
L 141.510084 91.514115 
L 143.072954 91.388405 
L 144.215804 91.305883 
L 144.621459 91.274336 
z
" clip-path="url(#p2ec815c14c)" style="fill: none; stroke: #68300f"/>
    <path d="M 136.90817 94.674109 
L 138.525613 94.552879 
L 140.131003 94.44948 
L 141.7239 94.364787 
L 143.303908 94.300065 
L 144.870691 94.257038 
L 146.423976 94.237967 
L 147.963574 94.245766 
L 149.489393 94.28414 
L 151.001458 94.357775 
L 152.499935 94.472585 
L 153.985152 94.636043 
L 154.669223 94.734894 
L 155.458765 94.869606 
L 156.92257 95.196132 
L 158.275947 95.596342 
L 158.377932 95.635675 
L 159.837058 96.328716 
L 160.062948 96.45928 
L 161.057676 97.32361 
L 161.340927 97.783399 
L 161.564673 98.189239 
L 161.721076 99.056069 
L 161.604161 99.924007 
L 161.518014 100.132639 
L 161.258884 100.792955 
L 160.7152 101.662818 
L 160.255031 102.208409 
L 159.989994 102.5335 
L 159.097618 103.404904 
L 158.906953 103.560774 
L 158.047813 104.276935 
L 157.514285 104.660401 
L 156.842778 105.149496 
L 156.087877 105.633825 
L 155.486474 106.022492 
L 154.632331 106.517561 
L 153.980623 106.895824 
L 153.150743 107.334625 
L 152.324853 107.769398 
L 151.645396 108.099805 
L 150.516749 108.643117 
L 150.118115 108.822625 
L 148.570457 109.508888 
L 148.552317 109.516883 
L 147.003831 110.160479 
L 146.439048 110.390602 
L 145.419483 110.786774 
L 144.159219 111.264176 
L 143.818598 111.388522 
L 142.202306 111.966798 
L 141.71464 112.137508 
L 140.571646 112.525868 
L 139.094629 113.010504 
L 138.927689 113.064188 
L 137.271374 113.586752 
L 136.298627 113.883065 
L 135.603716 114.091951 
L 133.925664 114.58067 
L 133.309661 114.755096 
L 132.238094 115.056541 
L 130.542018 115.515 
L 130.118907 115.6265 
L 128.838192 115.964046 
L 127.127662 116.395332 
L 126.712836 116.497182 
L 125.411126 116.818949 
L 123.689603 117.225717 
L 123.072438 117.367045 
L 121.963804 117.62432 
L 120.234657 118.008853 
L 119.172247 118.235993 
L 118.502946 118.381956 
L 116.769461 118.746209 
L 115.035075 119.09299 
L 114.978786 119.103931 
L 113.300469 119.438101 
L 111.566511 119.766104 
L 110.43799 119.970761 
L 109.833928 120.083724 
L 108.103491 120.394155 
L 106.375911 120.688657 
L 105.471227 120.83639 
L 104.651952 120.974951 
L 102.932345 121.252113 
L 101.217712 121.514259 
L 99.936407 121.70072 
L 99.508789 121.765454 
L 97.806356 122.009694 
L 96.110906 122.239053 
L 94.423087 122.454548 
L 93.514482 122.563658 
L 92.743657 122.66015 
L 91.073221 122.854629 
L 89.412235 123.034123 
L 87.761288 123.198969 
L 86.12095 123.349258 
L 85.200134 123.425106 
L 84.49183 123.485891 
L 82.874387 123.607121 
L 81.268997 123.71052 
L 79.6761 123.795213 
L 78.096092 123.859935 
L 76.529309 123.902962 
L 74.976024 123.922033 
L 73.436426 123.914234 
L 71.910607 123.87586 
L 70.398542 123.802225 
L 68.900065 123.687415 
L 67.414848 123.523957 
L 66.730777 123.425106 
L 65.941235 123.290394 
L 64.47743 122.963868 
L 63.124053 122.563658 
L 63.022068 122.524325 
L 61.562942 121.831284 
L 61.337052 121.70072 
L 60.342324 120.83639 
L 60.059073 120.376601 
L 59.835327 119.970761 
L 59.678924 119.103931 
L 59.795839 118.235993 
L 59.881986 118.027361 
L 60.141116 117.367045 
L 60.6848 116.497182 
L 61.144969 115.951591 
L 61.410006 115.6265 
L 62.302382 114.755096 
L 62.493047 114.599226 
L 63.352187 113.883065 
L 63.885715 113.499599 
L 64.557222 113.010504 
L 65.312123 112.526175 
L 65.913526 112.137508 
L 66.767669 111.642439 
L 67.419377 111.264176 
L 68.249257 110.825375 
L 69.075147 110.390602 
L 69.754604 110.060195 
L 70.883251 109.516883 
L 71.281885 109.337375 
L 72.829543 108.651112 
L 72.847683 108.643117 
L 74.396169 107.999521 
L 74.960952 107.769398 
L 75.980517 107.373226 
L 77.240781 106.895824 
L 77.581402 106.771478 
L 79.197694 106.193202 
L 79.68536 106.022492 
L 80.828354 105.634132 
L 82.305371 105.149496 
L 82.472311 105.095812 
L 84.128626 104.573248 
L 85.101373 104.276935 
L 85.796284 104.068049 
L 87.474336 103.57933 
L 88.090339 103.404904 
L 89.161906 103.103459 
L 90.857982 102.645 
L 91.281093 102.5335 
L 92.561808 102.195954 
L 94.272338 101.764668 
L 94.687164 101.662818 
L 95.988874 101.341051 
L 97.710397 100.934283 
L 98.327562 100.792955 
L 99.436196 100.53568 
L 101.165343 100.151147 
L 102.227753 99.924007 
L 102.897054 99.778044 
L 104.630539 99.413791 
L 106.364925 99.06701 
L 106.421214 99.056069 
L 108.099531 98.721899 
L 109.833489 98.393896 
L 110.96201 98.189239 
L 111.566072 98.076276 
L 113.296509 97.765845 
L 115.024089 97.471343 
L 115.928773 97.32361 
L 116.748048 97.185049 
L 118.467655 96.907887 
L 120.182288 96.645741 
L 121.463593 96.45928 
L 121.891211 96.394546 
L 123.593644 96.150306 
L 125.289094 95.920947 
L 126.976913 95.705452 
L 127.885518 95.596342 
L 128.656343 95.49985 
L 130.326779 95.305371 
L 131.987765 95.125877 
L 133.638712 94.961031 
L 135.27905 94.810742 
L 136.199866 94.734894 
L 136.90817 94.674109 
z
" clip-path="url(#p2ec815c14c)" style="fill: none; stroke: #86400c"/>
    <path d="M 135.39774 97.305837 
L 137.039234 97.236535 
L 138.669999 97.194048 
L 140.289736 97.181772 
L 141.898233 97.204135 
L 143.49539 97.266877 
L 144.335684 97.32361 
L 145.081601 97.383588 
L 146.657739 97.574583 
L 148.224239 97.85271 
L 149.585073 98.189239 
L 149.783047 98.256984 
L 151.343638 98.955498 
L 151.521319 99.056069 
L 152.426213 99.924007 
L 152.753175 100.792955 
L 152.666876 101.662818 
L 152.264011 102.5335 
L 151.600249 103.404904 
L 151.554235 103.448257 
L 150.700299 104.276935 
L 150.065364 104.771471 
L 149.591117 105.149496 
L 148.542342 105.847603 
L 148.284012 106.022492 
L 146.992939 106.774377 
L 146.78665 106.895824 
L 145.421326 107.603787 
L 145.1035 107.769398 
L 143.830143 108.365367 
L 143.236128 108.643117 
L 142.221304 109.076552 
L 141.183365 109.516883 
L 140.59636 109.747751 
L 138.956663 110.384714 
L 138.941389 110.390602 
L 137.303525 110.981098 
L 136.50543 111.264176 
L 135.63801 111.555609 
L 133.961213 112.107109 
L 133.867475 112.137508 
L 132.274238 112.63084 
L 131.016262 113.010504 
L 130.577978 113.138246 
L 128.873477 113.623345 
L 127.937165 113.883065 
L 127.161609 114.092364 
L 125.443329 114.542833 
L 124.611406 114.755096 
L 123.719499 114.978116 
L 121.991019 115.396582 
L 121.011999 115.6265 
L 120.258722 115.801117 
L 118.523472 116.189807 
L 117.102252 116.497182 
L 116.786078 116.565159 
L 115.047366 116.925926 
L 113.308129 117.272726 
L 112.817736 117.367045 
L 111.56915 117.606741 
L 109.831203 117.926189 
L 108.095043 118.232558 
L 108.074679 118.235993 
L 106.361415 118.525636 
L 104.631039 118.804207 
L 102.904636 119.069538 
L 102.667711 119.103931 
L 101.182899 119.320813 
L 99.466492 119.556876 
L 97.756091 119.778431 
L 96.17418 119.970761 
L 96.052359 119.985726 
L 94.355852 120.175425 
L 92.667193 120.348102 
L 90.986968 120.503389 
L 89.315736 120.640525 
L 87.654019 120.758282 
L 86.307553 120.83639 
L 86.00226 120.854163 
L 84.360766 120.923465 
L 82.730001 120.965952 
L 81.110264 120.978228 
L 79.501767 120.955865 
L 77.90461 120.893123 
L 77.064316 120.83639 
L 76.318399 120.776412 
L 74.742261 120.585417 
L 73.175761 120.30729 
L 71.814927 119.970761 
L 71.616953 119.903016 
L 70.056362 119.204502 
L 69.878681 119.103931 
L 68.973787 118.235993 
L 68.646825 117.367045 
L 68.733124 116.497182 
L 69.135989 115.6265 
L 69.799751 114.755096 
L 69.845765 114.711743 
L 70.699701 113.883065 
L 71.334636 113.388529 
L 71.808883 113.010504 
L 72.857658 112.312397 
L 73.115988 112.137508 
L 74.407061 111.385623 
L 74.61335 111.264176 
L 75.978674 110.556213 
L 76.2965 110.390602 
L 77.569857 109.794633 
L 78.163872 109.516883 
L 79.178696 109.083448 
L 80.216635 108.643117 
L 80.80364 108.412249 
L 82.443337 107.775286 
L 82.458611 107.769398 
L 84.096475 107.178902 
L 84.89457 106.895824 
L 85.76199 106.604391 
L 87.438787 106.052891 
L 87.532525 106.022492 
L 89.125762 105.52916 
L 90.383738 105.149496 
L 90.822022 105.021754 
L 92.526523 104.536655 
L 93.462835 104.276935 
L 94.238391 104.067636 
L 95.956671 103.617167 
L 96.788594 103.404904 
L 97.680501 103.181884 
L 99.408981 102.763418 
L 100.388001 102.5335 
L 101.141278 102.358883 
L 102.876528 101.970193 
L 104.297748 101.662818 
L 104.613922 101.594841 
L 106.352634 101.234074 
L 108.091871 100.887274 
L 108.582264 100.792955 
L 109.83085 100.553259 
L 111.568797 100.233811 
L 113.304957 99.927442 
L 113.325321 99.924007 
L 115.038585 99.634364 
L 116.768961 99.355793 
L 118.495364 99.090462 
L 118.732289 99.056069 
L 120.217101 98.839187 
L 121.933508 98.603124 
L 123.643909 98.381569 
L 125.22582 98.189239 
L 125.347641 98.174274 
L 127.044148 97.984575 
L 128.732807 97.811898 
L 130.413032 97.656611 
L 132.084264 97.519475 
L 133.745981 97.401718 
L 135.092447 97.32361 
L 135.39774 97.305837 
z
" clip-path="url(#p2ec815c14c)" style="fill: none; stroke: #a45009"/>
    <path d="M 123.685495 100.6726 
L 125.396646 100.513744 
L 127.101059 100.378185 
L 128.798207 100.268735 
L 130.487629 100.189346 
L 132.168945 100.145488 
L 133.841888 100.144696 
L 135.506339 100.19739 
L 137.162368 100.31812 
L 138.810296 100.527541 
L 140.165571 100.792955 
L 140.45154 100.877579 
L 142.092857 101.58019 
L 142.235537 101.662818 
L 142.936624 102.5335 
L 142.957995 103.404904 
L 142.513492 104.276935 
L 142.176167 104.631198 
L 141.700002 105.149496 
L 140.589664 106.022492 
L 140.577211 106.030146 
L 139.19717 106.895824 
L 138.951511 107.024965 
L 137.555328 107.769398 
L 137.307725 107.883524 
L 135.673041 108.643117 
L 135.648739 108.653121 
L 133.976527 109.338413 
L 133.5428 109.516883 
L 132.292673 109.978097 
L 131.172962 110.390602 
L 130.598435 110.583979 
L 128.895013 111.151204 
L 128.552022 111.264176 
L 127.183529 111.680124 
L 125.662756 112.137508 
L 125.464885 112.19328 
L 123.740219 112.667419 
L 122.473304 113.010504 
L 122.010301 113.129048 
L 120.276166 113.560435 
L 118.953012 113.883065 
L 118.538583 113.979425 
L 116.798507 114.369928 
L 115.056675 114.752149 
L 115.042684 114.755096 
L 113.313994 115.103513 
L 111.571193 115.443822 
L 110.599135 115.6265 
L 109.829074 115.766142 
L 108.088385 116.065689 
L 106.349887 116.352774 
L 105.425831 116.497182 
L 104.614287 116.619988 
L 102.882248 116.863605 
L 101.15451 117.091373 
L 99.431762 117.302935 
L 98.8481 117.367045 
L 97.714505 117.4874 
L 96.003354 117.646256 
L 94.298941 117.781815 
L 92.601793 117.891265 
L 90.912371 117.970654 
L 89.231055 118.014512 
L 87.558112 118.015304 
L 85.893661 117.96261 
L 84.237632 117.84188 
L 82.589704 117.632459 
L 81.234429 117.367045 
L 80.94846 117.282421 
L 79.307143 116.57981 
L 79.164463 116.497182 
L 78.463376 115.6265 
L 78.442005 114.755096 
L 78.886508 113.883065 
L 79.223833 113.528802 
L 79.699998 113.010504 
L 80.810336 112.137508 
L 80.822789 112.129854 
L 82.20283 111.264176 
L 82.448489 111.135035 
L 83.844672 110.390602 
L 84.092275 110.276476 
L 85.726959 109.516883 
L 85.751261 109.506879 
L 87.423473 108.821587 
L 87.8572 108.643117 
L 89.107327 108.181903 
L 90.227038 107.769398 
L 90.801565 107.576021 
L 92.504987 107.008796 
L 92.847978 106.895824 
L 94.216471 106.479876 
L 95.737244 106.022492 
L 95.935115 105.96672 
L 97.659781 105.492581 
L 98.926696 105.149496 
L 99.389699 105.030952 
L 101.123834 104.599565 
L 102.446988 104.276935 
L 102.861417 104.180575 
L 104.601493 103.790072 
L 106.343325 103.407851 
L 106.357316 103.404904 
L 108.086006 103.056487 
L 109.828807 102.716178 
L 110.800865 102.5335 
L 111.570926 102.393858 
L 113.311615 102.094311 
L 115.050113 101.807226 
L 115.974169 101.662818 
L 116.785713 101.540012 
L 118.517752 101.296395 
L 120.24549 101.068627 
L 121.968238 100.857065 
L 122.5519 100.792955 
L 123.685495 100.6726 
z
" clip-path="url(#p2ec815c14c)" style="fill: none; stroke: #c36105"/>
    <path d="M 116.800279 104.183176 
L 118.537552 103.998938 
L 120.271085 103.846538 
L 122.00031 103.734079 
L 123.724762 103.674088 
L 125.444133 103.686347 
L 127.15836 103.803252 
L 128.867742 104.080763 
L 129.56612 104.276935 
L 130.578527 105.068984 
L 130.644911 105.149496 
L 130.58223 105.403337 
L 130.437589 106.022492 
L 129.544415 106.895824 
L 128.896488 107.299712 
L 128.169466 107.769398 
L 127.19075 108.239727 
L 126.375182 108.643117 
L 125.475236 108.999076 
L 124.194768 109.516883 
L 123.752044 109.667036 
L 122.022606 110.252679 
L 121.615278 110.390602 
L 120.288103 110.774546 
L 118.619252 111.264176 
L 118.549468 111.282216 
L 116.807821 111.711897 
L 115.101079 112.137508 
L 115.063876 112.145795 
L 113.318648 112.509808 
L 111.572847 112.869359 
L 110.851336 113.010504 
L 109.827313 113.189697 
L 108.082783 113.47427 
L 106.340029 113.743978 
L 105.347056 113.883065 
L 104.599721 113.976824 
L 102.862448 114.161062 
L 101.128915 114.313462 
L 99.39969 114.425921 
L 97.675238 114.485912 
L 95.955867 114.473653 
L 94.24164 114.356748 
L 92.532258 114.079237 
L 91.83388 113.883065 
L 90.821473 113.091016 
L 90.755089 113.010504 
L 90.81777 112.756663 
L 90.962411 112.137508 
L 91.855585 111.264176 
L 92.503512 110.860288 
L 93.230534 110.390602 
L 94.20925 109.920273 
L 95.024818 109.516883 
L 95.924764 109.160924 
L 97.205232 108.643117 
L 97.647956 108.492964 
L 99.377394 107.907321 
L 99.784722 107.769398 
L 101.111897 107.385454 
L 102.780748 106.895824 
L 102.850532 106.877784 
L 104.592179 106.448103 
L 106.298921 106.022492 
L 106.336124 106.014205 
L 108.081352 105.650192 
L 109.827153 105.290641 
L 110.548664 105.149496 
L 111.572687 104.970303 
L 113.317217 104.68573 
L 115.059971 104.416022 
L 116.052944 104.276935 
L 116.800279 104.183176 
z
" clip-path="url(#p2ec815c14c)" style="fill: none; stroke: #e07102"/>
    <path clip-path="url(#p2ec815c14c)" style="fill: none; stroke: #f47b00"/>
   </g>
   <g id="patch_3">
    <path d="M 193.86 109.08 
L 193.86 109.08 
L 193.86 109.08 
L 193.404441 117.772587 
L 192.042754 126.369936 
L 189.78986 134.777853 
L 186.67044 142.904219 
L 182.718673 150.66 
L 177.977853 157.960222 
L 172.499924 164.724901 
L 166.344901 170.879924 
L 159.580222 176.357853 
L 152.28 181.098673 
L 144.524219 185.05044 
L 136.397853 188.16986 
L 127.989936 190.422754 
L 119.392587 191.784441 
L 110.7 192.24 
L 102.007413 191.784441 
L 93.410064 190.422754 
L 85.002147 188.16986 
L 76.875781 185.05044 
L 69.12 181.098673 
L 61.819778 176.357853 
L 55.055099 170.879924 
L 48.900076 164.724901 
L 43.422147 157.960222 
L 38.681327 150.66 
L 34.72956 142.904219 
L 31.61014 134.777853 
L 29.357246 126.369936 
L 27.995559 117.772587 
L 27.54 109.08 
L 27.995559 100.387413 
L 29.357246 91.790064 
L 31.61014 83.382147 
L 34.72956 75.255781 
L 38.681327 67.5 
L 43.422147 60.199778 
L 48.900076 53.435099 
L 55.055099 47.280076 
L 61.819778 41.802147 
L 69.12 37.061327 
L 76.875781 33.10956 
L 85.002147 29.99014 
L 93.410064 27.737246 
L 102.007413 26.375559 
L 110.7 25.92 
L 119.392587 26.375559 
L 127.989936 27.737246 
L 136.397853 29.99014 
L 144.524219 33.10956 
L 152.28 37.061327 
L 159.580222 41.802147 
L 166.344901 47.280076 
L 172.499924 53.435099 
L 177.977853 60.199778 
L 182.718673 67.5 
L 186.67044 75.255781 
L 189.78986 83.382147 
L 192.042754 91.790064 
L 193.404441 100.387413 
L 193.86 109.08 
L 193.86 109.08 
z
" style="fill: none; stroke: #000000; stroke-width: 0.8; stroke-linejoin: miter; stroke-linecap: square"/>
   </g>
  </g>
 </g>
 <defs>
  <clipPath id="p2ec815c14c">
   <path d="M 193.86 109.08 
L 193.86 109.08 
L 193.86 109.08 
L 193.404441 117.772587 
L 192.042754 126.369936 
L 189.78986 134.777853 
L 186.67044 142.904219 
L 182.718673 150.66 
L 177.977853 157.960222 
L 172.499924 164.724901 
L 166.344901 170.879924 
L 159.580222 176.357853 
L 152.28 181.098673 
L 144.524219 185.05044 
L 136.397853 188.16986 
L 127.989936 190.422754 
L 119.392587 191.784441 
L 110.7 192.24 
L 102.007413 191.784441 
L 93.410064 190.422754 
L 85.002147 188.16986 
L 76.875781 185.05044 
L 69.12 181.098673 
L 61.819778 176.357853 
L 55.055099 170.879924 
L 48.900076 164.724901 
L 43.422147 157.960222 
L 38.681327 150.66 
L 34.72956 142.904219 
L 31.61014 134.777853 
L 29.357246 126.369936 
L 27.995559 117.772587 
L 27.54 109.08 
L 27.995559 100.387413 
L 29.357246 91.790064 
L 31.61014 83.382147 
L 34.72956 75.255781 
L 38.681327 67.5 
L 43.422147 60.199778 
L 48.900076 53.435099 
L 55.055099 47.280076 
L 61.819778 41.802147 
L 69.12 37.061327 
L 76.875781 33.10956 
L 85.002147 29.99014 
L 93.410064 27.737246 
L 102.007413 26.375559 
L 110.7 25.92 
L 119.392587 26.375559 
L 127.989936 27.737246 
L 136.397853 29.99014 
L 144.524219 33.10956 
L 152.28 37.061327 
L 159.580222 41.802147 
L 166.344901 47.280076 
L 172.499924 53.435099 
L 177.977853 60.199778 
L 182.718673 67.5 
L 186.67044 75.255781 
L 189.78986 83.382147 
L 192.042754 91.790064 
L 193.404441 100.387413 
L 193.86 109.08 
z
"/>
  </clipPath>
 </defs>
</svg>
